G04 #@! TF.GenerationSoftware,KiCad,Pcbnew,5.1.2*
G04 #@! TF.CreationDate,2019-06-28T20:41:13-07:00*
G04 #@! TF.ProjectId,bow-tie.svg.2019_06_28_19_52_47.0,626f772d-7469-4652-9e73-76672e323031,rev?*
G04 #@! TF.SameCoordinates,Original*
G04 #@! TF.FileFunction,Copper,L2,Bot*
G04 #@! TF.FilePolarity,Positive*
%FSLAX46Y46*%
G04 Gerber Fmt 4.6, Leading zero omitted, Abs format (unit mm)*
G04 Created by KiCad (PCBNEW 5.1.2) date 2019-06-28 20:41:13*
%MOMM*%
%LPD*%
G04 APERTURE LIST*
%ADD10C,1.879600*%
%ADD11R,0.800000X0.600000*%
%ADD12R,0.600000X0.800000*%
%ADD13C,0.600000*%
%ADD14C,0.250000*%
%ADD15C,0.254000*%
G04 APERTURE END LIST*
D10*
X-635000Y1397000D03*
X-635000Y-1143000D03*
X1905000Y1397000D03*
X1905000Y-1143000D03*
D11*
X-13589000Y-4891000D03*
X-13589000Y-3491000D03*
X-13589000Y3364000D03*
X-13589000Y4764000D03*
D12*
X12003000Y7239000D03*
X10603000Y7239000D03*
X10222000Y-6985000D03*
X11622000Y-6985000D03*
D13*
X-13589000Y-5842000D03*
X15748000Y-5842000D03*
X15748000Y6096000D03*
X-10668000Y7239000D03*
X-10668000Y-6985000D03*
X-13589000Y6096000D03*
X12827000Y7239000D03*
X12827000Y-6985000D03*
D14*
X-13589000Y-5842000D02*
X-13589000Y-4891000D01*
X-13589000Y6096000D02*
X-13589000Y4764000D01*
X12003000Y7239000D02*
X12827000Y7239000D01*
X11622000Y-6985000D02*
X12827000Y-6985000D01*
X-12172000Y1397000D02*
X-13589000Y2814000D01*
X-13589000Y2814000D02*
X-13589000Y3364000D01*
X-635000Y1397000D02*
X-12172000Y1397000D01*
X-13589000Y-20000D02*
X-13589000Y-3491000D01*
X-12172000Y1397000D02*
X-13589000Y-20000D01*
X9672000Y-6985000D02*
X10222000Y-6985000D01*
X629801Y132199D02*
X2554801Y132199D01*
X-635000Y1397000D02*
X629801Y132199D01*
X6423500Y2959500D02*
X6423500Y-3736500D01*
X10603000Y7139000D02*
X6423500Y2959500D01*
X10603000Y7239000D02*
X10603000Y7139000D01*
X2554801Y132199D02*
X6423500Y-3736500D01*
X6423500Y-3736500D02*
X9672000Y-6985000D01*
D15*
G36*
X11952867Y12232566D02*
G01*
X12125541Y12225448D01*
X12297458Y12211321D01*
X12469101Y12190051D01*
X12634606Y12162498D01*
X12740391Y12138343D01*
X12839525Y12107630D01*
X12938059Y12068884D01*
X13036000Y12021955D01*
X13133186Y11966714D01*
X13229423Y11903028D01*
X13324395Y11830825D01*
X13417781Y11750034D01*
X13509141Y11660703D01*
X13598076Y11562862D01*
X13684122Y11456642D01*
X13766880Y11342125D01*
X13845872Y11219534D01*
X13920685Y11089037D01*
X13990891Y10950863D01*
X14040205Y10840700D01*
X14043329Y10828947D01*
X14067730Y10779213D01*
X14076549Y10759513D01*
X14082544Y10749021D01*
X14102764Y10707808D01*
X14115947Y10690556D01*
X14126714Y10671710D01*
X14156818Y10637067D01*
X14184689Y10600593D01*
X14200981Y10586246D01*
X14215221Y10569860D01*
X14251507Y10541755D01*
X14285956Y10511420D01*
X14304735Y10500527D01*
X14321898Y10487234D01*
X14362976Y10466746D01*
X14402676Y10443718D01*
X14423219Y10436698D01*
X14442645Y10427009D01*
X14486917Y10414931D01*
X14530360Y10400086D01*
X14551882Y10397208D01*
X14572821Y10391496D01*
X14618598Y10388288D01*
X14630591Y10386684D01*
X14652191Y10385933D01*
X14707423Y10382062D01*
X14719480Y10383594D01*
X14872340Y10378280D01*
X15071453Y10366490D01*
X15269214Y10349549D01*
X15460755Y10327688D01*
X15613651Y10303292D01*
X15758392Y10271083D01*
X15900277Y10230385D01*
X16038961Y10181426D01*
X16174129Y10124423D01*
X16305463Y10059592D01*
X16432581Y9987178D01*
X16555169Y9907393D01*
X16672844Y9820500D01*
X16785245Y9726749D01*
X16892062Y9626356D01*
X16992937Y9519578D01*
X17087518Y9406680D01*
X17175513Y9287849D01*
X17256594Y9163315D01*
X17332425Y9029796D01*
X17489968Y8717524D01*
X17568317Y8550362D01*
X17647591Y8371779D01*
X17725860Y8184790D01*
X17802447Y7989759D01*
X17876740Y7786895D01*
X17948071Y7576571D01*
X18015855Y7358939D01*
X18079439Y7134361D01*
X18138225Y6903035D01*
X18191594Y6665239D01*
X18238931Y6421253D01*
X18279646Y6171255D01*
X18313125Y5915550D01*
X18338777Y5654305D01*
X18355999Y5387826D01*
X18364200Y5116207D01*
X18362780Y4839684D01*
X18351133Y4558421D01*
X18328652Y4272598D01*
X18294717Y3982352D01*
X18248706Y3687842D01*
X18189975Y3389180D01*
X18117874Y3086499D01*
X18031726Y2779890D01*
X17930854Y2469497D01*
X17814544Y2155404D01*
X17682085Y1837746D01*
X17532750Y1516662D01*
X17364218Y1189232D01*
X17275537Y1028830D01*
X17189893Y880877D01*
X17185266Y874098D01*
X17173061Y851798D01*
X17160301Y829755D01*
X17156900Y822270D01*
X17140984Y793190D01*
X17129209Y773146D01*
X17124844Y763701D01*
X17119847Y754572D01*
X17110738Y733183D01*
X17090801Y690048D01*
X17080471Y669390D01*
X17076707Y659556D01*
X17072280Y649977D01*
X17064679Y628126D01*
X17047972Y584473D01*
X17039083Y563247D01*
X17035945Y553046D01*
X17032137Y543096D01*
X17026069Y520941D01*
X17012486Y476786D01*
X17005078Y455150D01*
X17002601Y444653D01*
X16999431Y434347D01*
X16994883Y411940D01*
X16984393Y367478D01*
X16978466Y345505D01*
X16976675Y334769D01*
X16974174Y324168D01*
X16971143Y301604D01*
X16963691Y256927D01*
X16959245Y234681D01*
X16958161Y223773D01*
X16956357Y212959D01*
X16954836Y190320D01*
X16950379Y145487D01*
X16947420Y123056D01*
X16947057Y112065D01*
X16945967Y101095D01*
X16945947Y78440D01*
X16944466Y33578D01*
X16942992Y11001D01*
X16943356Y-21D01*
X16942992Y-11049D01*
X16944466Y-33626D01*
X16945947Y-78488D01*
X16945967Y-101143D01*
X16947057Y-112109D01*
X16947420Y-123104D01*
X16950379Y-145535D01*
X16954836Y-190368D01*
X16956357Y-213007D01*
X16958161Y-223821D01*
X16959245Y-234729D01*
X16963691Y-256975D01*
X16971143Y-301652D01*
X16974174Y-324216D01*
X16976675Y-334817D01*
X16978466Y-345553D01*
X16984393Y-367526D01*
X16994883Y-411988D01*
X16999431Y-434395D01*
X17002601Y-444701D01*
X17005078Y-455198D01*
X17012486Y-476834D01*
X17026069Y-520989D01*
X17032137Y-543144D01*
X17035945Y-553094D01*
X17039083Y-563295D01*
X17047972Y-584521D01*
X17064679Y-628174D01*
X17072280Y-650025D01*
X17076707Y-659604D01*
X17080471Y-669438D01*
X17090801Y-690096D01*
X17110738Y-733231D01*
X17119847Y-754620D01*
X17124844Y-763749D01*
X17129209Y-773194D01*
X17140984Y-793238D01*
X17156900Y-822319D01*
X17160302Y-829805D01*
X17173063Y-851850D01*
X17185266Y-874146D01*
X17189893Y-880924D01*
X17275542Y-1028887D01*
X17364222Y-1189286D01*
X17532740Y-1516694D01*
X17682078Y-1837787D01*
X17814528Y-2155426D01*
X17930825Y-2469495D01*
X18031700Y-2779910D01*
X18117834Y-3086486D01*
X18189934Y-3389183D01*
X18248656Y-3687837D01*
X18294658Y-3982341D01*
X18328584Y-4272579D01*
X18351054Y-4558360D01*
X18362692Y-4839614D01*
X18364106Y-5116134D01*
X18355899Y-5387744D01*
X18338668Y-5654242D01*
X18313010Y-5915473D01*
X18279524Y-6171191D01*
X18238814Y-6421134D01*
X18191469Y-6665140D01*
X18138099Y-6902941D01*
X18079312Y-7134273D01*
X18015716Y-7358899D01*
X17947946Y-7576504D01*
X17876606Y-7786872D01*
X17802329Y-7989725D01*
X17725750Y-8184772D01*
X17647484Y-8371798D01*
X17568208Y-8550433D01*
X17489883Y-8717601D01*
X17332415Y-9029857D01*
X17256632Y-9163250D01*
X17175550Y-9287759D01*
X17087546Y-9406583D01*
X16992948Y-9519492D01*
X16892061Y-9626275D01*
X16785248Y-9726666D01*
X16672816Y-9820448D01*
X16555133Y-9907357D01*
X16432538Y-9987157D01*
X16305408Y-10059592D01*
X16174076Y-10124436D01*
X16038897Y-10181457D01*
X15900226Y-10230424D01*
X15758361Y-10271126D01*
X15613640Y-10303339D01*
X15460802Y-10327728D01*
X15268967Y-10349587D01*
X15070719Y-10366746D01*
X14871758Y-10378751D01*
X14719299Y-10384136D01*
X14707433Y-10382628D01*
X14651995Y-10386513D01*
X14630213Y-10387282D01*
X14618422Y-10388865D01*
X14572831Y-10392060D01*
X14551698Y-10397825D01*
X14529989Y-10400740D01*
X14486748Y-10415543D01*
X14442655Y-10427571D01*
X14423053Y-10437348D01*
X14402329Y-10444442D01*
X14362814Y-10467392D01*
X14321907Y-10487794D01*
X14304586Y-10501209D01*
X14285647Y-10512209D01*
X14251362Y-10542433D01*
X14215229Y-10570419D01*
X14200861Y-10586952D01*
X14184429Y-10601438D01*
X14156697Y-10637773D01*
X14126720Y-10672267D01*
X14115855Y-10691283D01*
X14102563Y-10708698D01*
X14082456Y-10749737D01*
X14076553Y-10760069D01*
X14067643Y-10779971D01*
X14043196Y-10829870D01*
X14040131Y-10841429D01*
X13990894Y-10951414D01*
X13920705Y-11089542D01*
X13845901Y-11220003D01*
X13766918Y-11342555D01*
X13684190Y-11456998D01*
X13598145Y-11563182D01*
X13509227Y-11660969D01*
X13417880Y-11750251D01*
X13324522Y-11830981D01*
X13229551Y-11903150D01*
X13133309Y-11966807D01*
X13036112Y-12022026D01*
X12938175Y-12068930D01*
X12839606Y-12107673D01*
X12740434Y-12138388D01*
X12634634Y-12162542D01*
X12470415Y-12189874D01*
X12300001Y-12211006D01*
X12129240Y-12225091D01*
X11958052Y-12232257D01*
X11786379Y-12232616D01*
X11614154Y-12226271D01*
X11441345Y-12213316D01*
X11267885Y-12193834D01*
X11093786Y-12167910D01*
X10919076Y-12135628D01*
X10743698Y-12097059D01*
X10567770Y-12052304D01*
X10391281Y-12001440D01*
X10214281Y-11944560D01*
X10036861Y-11881773D01*
X9859076Y-11813179D01*
X9680966Y-11738878D01*
X9502665Y-11659012D01*
X9324219Y-11573689D01*
X9145637Y-11483000D01*
X8967167Y-11387163D01*
X8788765Y-11286251D01*
X8610535Y-11180418D01*
X8432593Y-11069829D01*
X8254960Y-10954597D01*
X8080221Y-10836563D01*
X7724876Y-10582582D01*
X7374818Y-10314525D01*
X7027965Y-10031780D01*
X6684906Y-9735676D01*
X6346230Y-9427590D01*
X6012473Y-9108882D01*
X5684105Y-8780871D01*
X5361617Y-8444917D01*
X5045521Y-8102421D01*
X4736289Y-7754757D01*
X4434345Y-7403263D01*
X4140144Y-7049315D01*
X3854170Y-6694341D01*
X3576828Y-6339686D01*
X3308466Y-5986613D01*
X3049598Y-5636617D01*
X2800668Y-5291109D01*
X2562001Y-4951343D01*
X2335895Y-4621434D01*
X2302864Y-4571014D01*
X2274155Y-4541778D01*
X2247784Y-4510406D01*
X2226991Y-4493748D01*
X2208324Y-4474738D01*
X2174458Y-4451661D01*
X2142477Y-4426040D01*
X2118833Y-4413758D01*
X2096817Y-4398756D01*
X2059106Y-4382732D01*
X2022735Y-4363839D01*
X1997148Y-4356405D01*
X1972631Y-4345988D01*
X1932515Y-4337628D01*
X1893160Y-4326195D01*
X1866617Y-4323896D01*
X1840535Y-4318461D01*
X1799562Y-4318088D01*
X1758731Y-4314552D01*
X1732246Y-4317476D01*
X1705607Y-4317234D01*
X1665342Y-4324863D01*
X1624613Y-4329360D01*
X1567156Y-4347531D01*
X1387737Y-4400181D01*
X1212277Y-4444510D01*
X1035323Y-4482147D01*
X857049Y-4513063D01*
X677682Y-4537223D01*
X497394Y-4554596D01*
X316428Y-4565146D01*
X145879Y-4568622D01*
X101013Y-4566403D01*
X100804Y-4566351D01*
X34560Y-4563118D01*
X246Y-4561421D01*
X24Y-4561432D01*
X-199Y-4561421D01*
X-34526Y-4563118D01*
X-100756Y-4566351D01*
X-100965Y-4566403D01*
X-145834Y-4568622D01*
X-316351Y-4565145D01*
X-497345Y-4554592D01*
X-677626Y-4537220D01*
X-856988Y-4513062D01*
X-1035289Y-4482142D01*
X-1212236Y-4444508D01*
X-1387673Y-4400185D01*
X-1567096Y-4347535D01*
X-1624564Y-4329360D01*
X-1665291Y-4324864D01*
X-1705559Y-4317234D01*
X-1732204Y-4317476D01*
X-1758683Y-4314553D01*
X-1799501Y-4318088D01*
X-1840486Y-4318461D01*
X-1866575Y-4323898D01*
X-1893112Y-4326196D01*
X-1932457Y-4337627D01*
X-1972582Y-4345988D01*
X-1997104Y-4356408D01*
X-2022687Y-4363840D01*
X-2059055Y-4382731D01*
X-2096768Y-4398756D01*
X-2118782Y-4413757D01*
X-2142429Y-4426040D01*
X-2174414Y-4451665D01*
X-2208275Y-4474738D01*
X-2226942Y-4493747D01*
X-2247735Y-4510406D01*
X-2274106Y-4541778D01*
X-2302815Y-4571014D01*
X-2335847Y-4621436D01*
X-2561900Y-4951268D01*
X-2800619Y-5291109D01*
X-3049609Y-5636700D01*
X-3308446Y-5986652D01*
X-3576794Y-6339706D01*
X-3854144Y-6694371D01*
X-4140149Y-7049380D01*
X-4434316Y-7403285D01*
X-4736239Y-7754755D01*
X-5045496Y-8102446D01*
X-5361591Y-8444941D01*
X-5684055Y-8780869D01*
X-6012425Y-9108882D01*
X-6346182Y-9427590D01*
X-6684876Y-9735693D01*
X-7027899Y-10031765D01*
X-7374749Y-10314509D01*
X-7724835Y-10582586D01*
X-8080175Y-10836564D01*
X-8254907Y-10954594D01*
X-8432520Y-11069814D01*
X-8610497Y-11180424D01*
X-8788717Y-11286251D01*
X-8967103Y-11387154D01*
X-9145609Y-11483011D01*
X-9324170Y-11573689D01*
X-9502600Y-11659004D01*
X-9680922Y-11738881D01*
X-9859038Y-11813183D01*
X-10036817Y-11881774D01*
X-10214233Y-11944560D01*
X-10391219Y-12001436D01*
X-10567711Y-12052301D01*
X-10743641Y-12097057D01*
X-10919029Y-12135629D01*
X-11093735Y-12167909D01*
X-11267834Y-12193833D01*
X-11441290Y-12213315D01*
X-11614127Y-12226271D01*
X-11786330Y-12232616D01*
X-11958003Y-12232257D01*
X-12129193Y-12225091D01*
X-12299950Y-12211006D01*
X-12470364Y-12189874D01*
X-12634584Y-12162542D01*
X-12740383Y-12138388D01*
X-12839557Y-12107673D01*
X-12938125Y-12068931D01*
X-13036069Y-12022022D01*
X-13133266Y-11966803D01*
X-13229500Y-11903151D01*
X-13324477Y-11830977D01*
X-13417836Y-11750247D01*
X-13509179Y-11660969D01*
X-13598097Y-11563182D01*
X-13684140Y-11457000D01*
X-13766879Y-11342541D01*
X-13845859Y-11219995D01*
X-13920651Y-11089554D01*
X-13990853Y-10951400D01*
X-14040083Y-10841431D01*
X-14043150Y-10829867D01*
X-14067606Y-10779952D01*
X-14076508Y-10760067D01*
X-14082409Y-10749740D01*
X-14102518Y-10708696D01*
X-14115807Y-10691285D01*
X-14126674Y-10672265D01*
X-14156656Y-10637764D01*
X-14184384Y-10601436D01*
X-14200815Y-10586951D01*
X-14215184Y-10570417D01*
X-14251317Y-10542432D01*
X-14285603Y-10512207D01*
X-14304546Y-10501205D01*
X-14321863Y-10487793D01*
X-14362758Y-10467397D01*
X-14402285Y-10444440D01*
X-14423014Y-10437344D01*
X-14442611Y-10427570D01*
X-14486699Y-10415543D01*
X-14529945Y-10400739D01*
X-14551653Y-10397824D01*
X-14572787Y-10392059D01*
X-14618384Y-10388864D01*
X-14630168Y-10387282D01*
X-14651939Y-10386513D01*
X-14707390Y-10382628D01*
X-14719257Y-10384136D01*
X-14871712Y-10378752D01*
X-15070687Y-10366746D01*
X-15268914Y-10349588D01*
X-15460753Y-10327728D01*
X-15613592Y-10303339D01*
X-15758315Y-10271126D01*
X-15900168Y-10230427D01*
X-16038852Y-10181456D01*
X-16174033Y-10124434D01*
X-16305358Y-10059593D01*
X-16432494Y-9987154D01*
X-16555084Y-9907358D01*
X-16672762Y-9820452D01*
X-16785199Y-9726665D01*
X-16892015Y-9626273D01*
X-16992895Y-9519497D01*
X-17087499Y-9406581D01*
X-17175500Y-9287761D01*
X-17256587Y-9163245D01*
X-17332366Y-9029856D01*
X-17489830Y-8717611D01*
X-17568159Y-8550433D01*
X-17647436Y-8371794D01*
X-17725684Y-8184816D01*
X-17802278Y-7989732D01*
X-17876560Y-7786866D01*
X-17947900Y-7576494D01*
X-18015664Y-7358913D01*
X-18079259Y-7134289D01*
X-18138051Y-6902939D01*
X-18191420Y-6665145D01*
X-18238765Y-6421138D01*
X-18279475Y-6171198D01*
X-18312962Y-5915475D01*
X-18338620Y-5654244D01*
X-18355851Y-5387743D01*
X-18364058Y-5116134D01*
X-18362644Y-4839615D01*
X-18351006Y-4558360D01*
X-18328536Y-4272577D01*
X-18294610Y-3982339D01*
X-18248608Y-3687843D01*
X-18189885Y-3389185D01*
X-18117786Y-3086487D01*
X-18031652Y-2779912D01*
X-17930780Y-2469508D01*
X-17814474Y-2155415D01*
X-17682023Y-1837772D01*
X-17532699Y-1516709D01*
X-17364162Y-1189267D01*
X-17275490Y-1028879D01*
X-17189848Y-880929D01*
X-17185218Y-874146D01*
X-17173004Y-851830D01*
X-17160254Y-829804D01*
X-17156855Y-822326D01*
X-17140930Y-793229D01*
X-17129161Y-773194D01*
X-17124798Y-763755D01*
X-17119799Y-754621D01*
X-17110689Y-733228D01*
X-17090761Y-690113D01*
X-17080422Y-669438D01*
X-17076654Y-659592D01*
X-17072232Y-650025D01*
X-17064638Y-628194D01*
X-17047919Y-584509D01*
X-17039035Y-563295D01*
X-17035897Y-553095D01*
X-17032089Y-543144D01*
X-17026021Y-520989D01*
X-17012438Y-476834D01*
X-17005030Y-455198D01*
X-17002553Y-444701D01*
X-16999383Y-434395D01*
X-16994835Y-411988D01*
X-16984341Y-367512D01*
X-16978416Y-345543D01*
X-16976627Y-334815D01*
X-16974126Y-324216D01*
X-16971094Y-301641D01*
X-16963644Y-256975D01*
X-16959198Y-234729D01*
X-16958113Y-223813D01*
X-16956309Y-212997D01*
X-16954789Y-190367D01*
X-16950332Y-145533D01*
X-16947374Y-123114D01*
X-16947011Y-112119D01*
X-16945920Y-101145D01*
X-16945900Y-78488D01*
X-16944418Y-33623D01*
X-16942944Y-11039D01*
X-16943308Y-21D01*
X-16942944Y10991D01*
X-16944418Y33575D01*
X-16945900Y78440D01*
X-16945920Y101097D01*
X-16947011Y112071D01*
X-16947374Y123066D01*
X-16950332Y145485D01*
X-16954789Y190319D01*
X-16956309Y212949D01*
X-16958113Y223765D01*
X-16959198Y234681D01*
X-16963644Y256927D01*
X-16971094Y301593D01*
X-16974126Y324168D01*
X-16976627Y334767D01*
X-16978416Y345495D01*
X-16984341Y367464D01*
X-16994835Y411940D01*
X-16999383Y434347D01*
X-17002553Y444653D01*
X-17005030Y455150D01*
X-17012438Y476786D01*
X-17026021Y520941D01*
X-17032089Y543096D01*
X-17035897Y553047D01*
X-17039035Y563247D01*
X-17047919Y584461D01*
X-17064638Y628146D01*
X-17072232Y649977D01*
X-17076654Y659544D01*
X-17080422Y669390D01*
X-17090761Y690065D01*
X-17110689Y733180D01*
X-17119799Y754573D01*
X-17124798Y763707D01*
X-17129161Y773146D01*
X-17140930Y793181D01*
X-17156858Y822282D01*
X-17160254Y829755D01*
X-17172995Y851766D01*
X-17185218Y874098D01*
X-17189850Y880884D01*
X-17275486Y1028824D01*
X-17364170Y1189232D01*
X-17532698Y1516655D01*
X-17682030Y1837731D01*
X-17814489Y2155386D01*
X-17930804Y2469493D01*
X-18031676Y2779886D01*
X-18117823Y3086489D01*
X-18189925Y3389172D01*
X-18248658Y3687844D01*
X-18294669Y3982352D01*
X-18328602Y4272586D01*
X-18351085Y4558430D01*
X-18362732Y4839684D01*
X-18363883Y5064000D01*
X-14627072Y5064000D01*
X-14627072Y4464000D01*
X-14614812Y4339518D01*
X-14578502Y4219820D01*
X-14519537Y4109506D01*
X-14482191Y4064000D01*
X-14519537Y4018494D01*
X-14578502Y3908180D01*
X-14614812Y3788482D01*
X-14627072Y3664000D01*
X-14627072Y3064000D01*
X-14614812Y2939518D01*
X-14578502Y2819820D01*
X-14519537Y2709506D01*
X-14440185Y2612815D01*
X-14343494Y2533463D01*
X-14283729Y2501518D01*
X-14223974Y2389724D01*
X-14196991Y2356846D01*
X-14129001Y2273999D01*
X-14099997Y2250196D01*
X-13246802Y1397000D01*
X-14099997Y543804D01*
X-14129001Y520001D01*
X-14171753Y467907D01*
X-14223974Y404276D01*
X-14291873Y277246D01*
X-14294546Y272246D01*
X-14338003Y128985D01*
X-14349000Y17332D01*
X-14349000Y17322D01*
X-14352676Y-20000D01*
X-14349000Y-57323D01*
X-14348999Y-2664981D01*
X-14440185Y-2739815D01*
X-14519537Y-2836506D01*
X-14578502Y-2946820D01*
X-14614812Y-3066518D01*
X-14627072Y-3191000D01*
X-14627072Y-3791000D01*
X-14614812Y-3915482D01*
X-14578502Y-4035180D01*
X-14519537Y-4145494D01*
X-14482191Y-4191000D01*
X-14519537Y-4236506D01*
X-14578502Y-4346820D01*
X-14614812Y-4466518D01*
X-14627072Y-4591000D01*
X-14627072Y-5191000D01*
X-14614812Y-5315482D01*
X-14578502Y-5435180D01*
X-14519537Y-5545494D01*
X-14490400Y-5580997D01*
X-14524000Y-5749911D01*
X-14524000Y-5934089D01*
X-14488068Y-6114729D01*
X-14417586Y-6284889D01*
X-14315262Y-6438028D01*
X-14185028Y-6568262D01*
X-14031889Y-6670586D01*
X-13861729Y-6741068D01*
X-13681089Y-6777000D01*
X-13496911Y-6777000D01*
X-13316271Y-6741068D01*
X-13146111Y-6670586D01*
X-12992972Y-6568262D01*
X-12862738Y-6438028D01*
X-12760414Y-6284889D01*
X-12689932Y-6114729D01*
X-12654000Y-5934089D01*
X-12654000Y-5749911D01*
X-12687600Y-5580997D01*
X-12658463Y-5545494D01*
X-12599498Y-5435180D01*
X-12563188Y-5315482D01*
X-12550928Y-5191000D01*
X-12550928Y-4591000D01*
X-12563188Y-4466518D01*
X-12599498Y-4346820D01*
X-12658463Y-4236506D01*
X-12695809Y-4191000D01*
X-12658463Y-4145494D01*
X-12599498Y-4035180D01*
X-12563188Y-3915482D01*
X-12550928Y-3791000D01*
X-12550928Y-3191000D01*
X-12563188Y-3066518D01*
X-12599498Y-2946820D01*
X-12658463Y-2836506D01*
X-12737815Y-2739815D01*
X-12829000Y-2664982D01*
X-12829000Y-2235476D01*
X-1547871Y-2235476D01*
X-1459377Y-2493723D01*
X-1180024Y-2628597D01*
X-879725Y-2706381D01*
X-570023Y-2724084D01*
X-262816Y-2681027D01*
X30086Y-2578865D01*
X189377Y-2493723D01*
X277871Y-2235476D01*
X-635000Y-1322605D01*
X-1547871Y-2235476D01*
X-12829000Y-2235476D01*
X-12829000Y-1207977D01*
X-2216084Y-1207977D01*
X-2173027Y-1515184D01*
X-2070865Y-1808086D01*
X-1985723Y-1967377D01*
X-1727476Y-2055871D01*
X-814605Y-1143000D01*
X-1727476Y-230129D01*
X-1985723Y-318623D01*
X-2120597Y-597976D01*
X-2198381Y-898275D01*
X-2216084Y-1207977D01*
X-12829000Y-1207977D01*
X-12829000Y-334801D01*
X-11857198Y637000D01*
X-2021181Y637000D01*
X-1858227Y393123D01*
X-1638877Y173773D01*
X-1502286Y82505D01*
X-1547871Y-50524D01*
X-635000Y-963395D01*
X-620858Y-949253D01*
X-441253Y-1128858D01*
X-455395Y-1143000D01*
X457476Y-2055871D01*
X590505Y-2010286D01*
X681773Y-2146877D01*
X901123Y-2366227D01*
X1159052Y-2538570D01*
X1445648Y-2657282D01*
X1749896Y-2717800D01*
X2060104Y-2717800D01*
X2364352Y-2657282D01*
X2650948Y-2538570D01*
X2908877Y-2366227D01*
X3128227Y-2146877D01*
X3300570Y-1888948D01*
X3359318Y-1747119D01*
X5859706Y-4247508D01*
X5883500Y-4276501D01*
X5912493Y-4300295D01*
X9108201Y-7496003D01*
X9131999Y-7525001D01*
X9247724Y-7619974D01*
X9359518Y-7679730D01*
X9391463Y-7739494D01*
X9470815Y-7836185D01*
X9567506Y-7915537D01*
X9677820Y-7974502D01*
X9797518Y-8010812D01*
X9922000Y-8023072D01*
X10522000Y-8023072D01*
X10646482Y-8010812D01*
X10766180Y-7974502D01*
X10876494Y-7915537D01*
X10922000Y-7878191D01*
X10967506Y-7915537D01*
X11077820Y-7974502D01*
X11197518Y-8010812D01*
X11322000Y-8023072D01*
X11922000Y-8023072D01*
X12046482Y-8010812D01*
X12166180Y-7974502D01*
X12276494Y-7915537D01*
X12373185Y-7836185D01*
X12389798Y-7815942D01*
X12554271Y-7884068D01*
X12734911Y-7920000D01*
X12919089Y-7920000D01*
X13099729Y-7884068D01*
X13269889Y-7813586D01*
X13423028Y-7711262D01*
X13553262Y-7581028D01*
X13655586Y-7427889D01*
X13726068Y-7257729D01*
X13762000Y-7077089D01*
X13762000Y-6892911D01*
X13726068Y-6712271D01*
X13655586Y-6542111D01*
X13553262Y-6388972D01*
X13423028Y-6258738D01*
X13269889Y-6156414D01*
X13099729Y-6085932D01*
X12919089Y-6050000D01*
X12734911Y-6050000D01*
X12554271Y-6085932D01*
X12389798Y-6154058D01*
X12373185Y-6133815D01*
X12276494Y-6054463D01*
X12166180Y-5995498D01*
X12046482Y-5959188D01*
X11922000Y-5946928D01*
X11322000Y-5946928D01*
X11197518Y-5959188D01*
X11077820Y-5995498D01*
X10967506Y-6054463D01*
X10922000Y-6091809D01*
X10876494Y-6054463D01*
X10766180Y-5995498D01*
X10646482Y-5959188D01*
X10522000Y-5946928D01*
X9922000Y-5946928D01*
X9797518Y-5959188D01*
X9738801Y-5977000D01*
X7183500Y-3421699D01*
X7183500Y2644699D01*
X10739730Y6200928D01*
X10903000Y6200928D01*
X11027482Y6213188D01*
X11147180Y6249498D01*
X11257494Y6308463D01*
X11303000Y6345809D01*
X11348506Y6308463D01*
X11458820Y6249498D01*
X11578518Y6213188D01*
X11703000Y6200928D01*
X12303000Y6200928D01*
X12427482Y6213188D01*
X12547180Y6249498D01*
X12657494Y6308463D01*
X12668220Y6317266D01*
X12734911Y6304000D01*
X12919089Y6304000D01*
X13099729Y6339932D01*
X13269889Y6410414D01*
X13423028Y6512738D01*
X13553262Y6642972D01*
X13655586Y6796111D01*
X13726068Y6966271D01*
X13762000Y7146911D01*
X13762000Y7331089D01*
X13726068Y7511729D01*
X13655586Y7681889D01*
X13553262Y7835028D01*
X13423028Y7965262D01*
X13269889Y8067586D01*
X13099729Y8138068D01*
X12919089Y8174000D01*
X12734911Y8174000D01*
X12668220Y8160734D01*
X12657494Y8169537D01*
X12547180Y8228502D01*
X12427482Y8264812D01*
X12303000Y8277072D01*
X11703000Y8277072D01*
X11578518Y8264812D01*
X11458820Y8228502D01*
X11348506Y8169537D01*
X11303000Y8132191D01*
X11257494Y8169537D01*
X11147180Y8228502D01*
X11027482Y8264812D01*
X10903000Y8277072D01*
X10303000Y8277072D01*
X10178518Y8264812D01*
X10058820Y8228502D01*
X9948506Y8169537D01*
X9851815Y8090185D01*
X9772463Y7993494D01*
X9713498Y7883180D01*
X9677188Y7763482D01*
X9664928Y7639000D01*
X9664928Y7275730D01*
X5912503Y3523304D01*
X5883499Y3499501D01*
X5830683Y3435144D01*
X5788526Y3383776D01*
X5737689Y3288667D01*
X5717954Y3251746D01*
X5674497Y3108485D01*
X5663500Y2996832D01*
X5663500Y2996822D01*
X5659824Y2959500D01*
X5663500Y2922177D01*
X5663501Y-1901699D01*
X3224538Y537263D01*
X3300570Y651052D01*
X3419282Y937648D01*
X3479800Y1241896D01*
X3479800Y1552104D01*
X3419282Y1856352D01*
X3300570Y2142948D01*
X3128227Y2400877D01*
X2908877Y2620227D01*
X2650948Y2792570D01*
X2364352Y2911282D01*
X2060104Y2971800D01*
X1749896Y2971800D01*
X1445648Y2911282D01*
X1159052Y2792570D01*
X901123Y2620227D01*
X681773Y2400877D01*
X635000Y2330876D01*
X588227Y2400877D01*
X368877Y2620227D01*
X110948Y2792570D01*
X-175648Y2911282D01*
X-479896Y2971800D01*
X-790104Y2971800D01*
X-1094352Y2911282D01*
X-1380948Y2792570D01*
X-1638877Y2620227D01*
X-1858227Y2400877D01*
X-2021181Y2157000D01*
X-11857198Y2157000D01*
X-12581000Y2880801D01*
X-12563188Y2939518D01*
X-12550928Y3064000D01*
X-12550928Y3664000D01*
X-12563188Y3788482D01*
X-12599498Y3908180D01*
X-12658463Y4018494D01*
X-12695809Y4064000D01*
X-12658463Y4109506D01*
X-12599498Y4219820D01*
X-12563188Y4339518D01*
X-12550928Y4464000D01*
X-12550928Y5064000D01*
X-12563188Y5188482D01*
X-12599498Y5308180D01*
X-12658463Y5418494D01*
X-12737815Y5515185D01*
X-12811931Y5576010D01*
X-12760414Y5653111D01*
X-12689932Y5823271D01*
X-12654000Y6003911D01*
X-12654000Y6188089D01*
X-12689932Y6368729D01*
X-12760414Y6538889D01*
X-12862738Y6692028D01*
X-12992972Y6822262D01*
X-13146111Y6924586D01*
X-13316271Y6995068D01*
X-13496911Y7031000D01*
X-13681089Y7031000D01*
X-13861729Y6995068D01*
X-14031889Y6924586D01*
X-14185028Y6822262D01*
X-14315262Y6692028D01*
X-14417586Y6538889D01*
X-14488068Y6368729D01*
X-14524000Y6188089D01*
X-14524000Y6003911D01*
X-14488068Y5823271D01*
X-14417586Y5653111D01*
X-14366069Y5576010D01*
X-14440185Y5515185D01*
X-14519537Y5418494D01*
X-14578502Y5308180D01*
X-14614812Y5188482D01*
X-14627072Y5064000D01*
X-18363883Y5064000D01*
X-18364152Y5116207D01*
X-18355951Y5387826D01*
X-18338729Y5654308D01*
X-18313075Y5915566D01*
X-18279594Y6171277D01*
X-18238885Y6421246D01*
X-18191545Y6665244D01*
X-18138177Y6903033D01*
X-18079391Y7134360D01*
X-18015804Y7358947D01*
X-17948023Y7576569D01*
X-17876668Y7786960D01*
X-17802395Y7989767D01*
X-17725812Y8184790D01*
X-17647549Y8371764D01*
X-17568251Y8550399D01*
X-17489926Y8717509D01*
X-17332369Y9029807D01*
X-17256544Y9163316D01*
X-17175464Y9287849D01*
X-17087470Y9406679D01*
X-16992878Y9519590D01*
X-16892018Y9626351D01*
X-16785206Y9726739D01*
X-16672781Y9820510D01*
X-16555112Y9907399D01*
X-16432538Y9987174D01*
X-16305412Y10059593D01*
X-16174080Y10124423D01*
X-16038912Y10181426D01*
X-15900224Y10230386D01*
X-15758340Y10271083D01*
X-15613604Y10303292D01*
X-15460704Y10327689D01*
X-15269163Y10349550D01*
X-15071404Y10366490D01*
X-14872293Y10378280D01*
X-14719436Y10383594D01*
X-14707379Y10382062D01*
X-14652138Y10385933D01*
X-14630544Y10386684D01*
X-14618558Y10388287D01*
X-14572777Y10391495D01*
X-14551833Y10397209D01*
X-14530313Y10400086D01*
X-14486881Y10414927D01*
X-14442601Y10427007D01*
X-14423171Y10436698D01*
X-14402628Y10443718D01*
X-14362930Y10466744D01*
X-14321854Y10487232D01*
X-14304690Y10500526D01*
X-14285909Y10511420D01*
X-14251457Y10541758D01*
X-14215177Y10569858D01*
X-14200938Y10586243D01*
X-14184642Y10600593D01*
X-14156768Y10637071D01*
X-14126669Y10671707D01*
X-14115902Y10690551D01*
X-14102716Y10707808D01*
X-14082496Y10749022D01*
X-14076503Y10759510D01*
X-14067683Y10779213D01*
X-14043282Y10828947D01*
X-14040159Y10840697D01*
X-13990842Y10950864D01*
X-13920643Y11089028D01*
X-13845825Y11219533D01*
X-13766835Y11342121D01*
X-13684076Y11456640D01*
X-13598023Y11562868D01*
X-13509095Y11660701D01*
X-13417722Y11750045D01*
X-13324355Y11830818D01*
X-13229373Y11903029D01*
X-13133148Y11966707D01*
X-13035945Y12021958D01*
X-12938010Y12068884D01*
X-12839476Y12107630D01*
X-12740342Y12138343D01*
X-12634556Y12162499D01*
X-12469037Y12190053D01*
X-12297407Y12211321D01*
X-12125494Y12225448D01*
X-11953628Y12232533D01*
X-11934074Y12232533D01*
X-11933270Y12232612D01*
X-11792272Y12232944D01*
X-11630721Y12227421D01*
X-11468660Y12216073D01*
X-11306027Y12198970D01*
X-11142863Y12176186D01*
X-10979106Y12147779D01*
X-10814843Y12113829D01*
X-10650029Y12074395D01*
X-10484695Y12029546D01*
X-10318946Y11979375D01*
X-10152752Y11923941D01*
X-9986207Y11863339D01*
X-9819375Y11797662D01*
X-9652251Y11726977D01*
X-9484965Y11651406D01*
X-9317559Y11571045D01*
X-9150113Y11486004D01*
X-8982652Y11396373D01*
X-8815323Y11302306D01*
X-8650856Y11205492D01*
X-8314295Y10994291D01*
X-7982059Y10769016D01*
X-7651768Y10528879D01*
X-7323871Y10274891D01*
X-6998967Y10008220D01*
X-6677440Y9729891D01*
X-6359763Y9441028D01*
X-6046371Y9142745D01*
X-5737708Y8836183D01*
X-5434157Y8522443D01*
X-5136136Y8202677D01*
X-4844023Y7878000D01*
X-4558164Y7549510D01*
X-4279005Y7218423D01*
X-4006847Y6885797D01*
X-3742026Y6552732D01*
X-3484996Y6220490D01*
X-3236026Y5890101D01*
X-2995518Y5562767D01*
X-2763719Y5239494D01*
X-2541079Y4921563D01*
X-2329512Y4612416D01*
X-2296030Y4561457D01*
X-2267766Y4532752D01*
X-2241869Y4501902D01*
X-2220545Y4484795D01*
X-2201359Y4465309D01*
X-2168037Y4442669D01*
X-2136620Y4417464D01*
X-2112366Y4404844D01*
X-2089750Y4389478D01*
X-2052655Y4373775D01*
X-2016921Y4355182D01*
X-1990670Y4347536D01*
X-1965492Y4336878D01*
X-1926042Y4328713D01*
X-1887372Y4317450D01*
X-1860138Y4315072D01*
X-1833359Y4309530D01*
X-1793076Y4309218D01*
X-1752950Y4305715D01*
X-1725773Y4308697D01*
X-1698431Y4308485D01*
X-1658861Y4316038D01*
X-1618822Y4320431D01*
X-1560687Y4338774D01*
X-1381328Y4391669D01*
X-1206566Y4436097D01*
X-1030293Y4473885D01*
X-852689Y4505006D01*
X-674020Y4529412D01*
X-494432Y4547084D01*
X-314092Y4557987D01*
X-142445Y4561877D01*
X-33542Y4557323D01*
X-4975Y4555711D01*
X24Y4555920D01*
X5023Y4555711D01*
X33591Y4557324D01*
X142484Y4561877D01*
X314155Y4557984D01*
X494477Y4547082D01*
X674054Y4529412D01*
X852758Y4504999D01*
X1030352Y4473882D01*
X1206637Y4436091D01*
X1381370Y4391670D01*
X1560742Y4338772D01*
X1618871Y4320431D01*
X1658912Y4316038D01*
X1698483Y4308485D01*
X1725822Y4308697D01*
X1752999Y4305715D01*
X1793125Y4309218D01*
X1833412Y4309530D01*
X1860192Y4315073D01*
X1887420Y4317450D01*
X1926087Y4328712D01*
X1965545Y4336879D01*
X1990724Y4347538D01*
X2016970Y4355182D01*
X2052704Y4373775D01*
X2089803Y4389480D01*
X2112420Y4404847D01*
X2136669Y4417464D01*
X2168083Y4442666D01*
X2201412Y4465311D01*
X2220598Y4484797D01*
X2241918Y4501901D01*
X2267815Y4532751D01*
X2296082Y4561460D01*
X2329567Y4612424D01*
X2541155Y4921602D01*
X2763791Y5239526D01*
X2995551Y5562746D01*
X3236101Y5890137D01*
X3485015Y6220452D01*
X3742103Y6552769D01*
X4006897Y6885799D01*
X4279045Y7218413D01*
X4558190Y7549484D01*
X4844071Y7878000D01*
X5136184Y8202677D01*
X5434203Y8522441D01*
X5737779Y8836207D01*
X6046419Y9142745D01*
X6359811Y9441028D01*
X6677488Y9729891D01*
X6999015Y10008220D01*
X7323919Y10274891D01*
X7651798Y10528865D01*
X7982095Y10769009D01*
X8314356Y10994299D01*
X8650888Y11205482D01*
X8815371Y11302306D01*
X8982721Y11396384D01*
X9150156Y11486002D01*
X9317638Y11571060D01*
X9485009Y11651405D01*
X9652308Y11726981D01*
X9819400Y11797653D01*
X9986241Y11863334D01*
X10152812Y11923945D01*
X10318985Y11979373D01*
X10484764Y12029552D01*
X10650082Y12074396D01*
X10814876Y12113826D01*
X10979180Y12147783D01*
X11142914Y12176186D01*
X11306076Y12198970D01*
X11468709Y12216073D01*
X11630767Y12227421D01*
X11792319Y12232944D01*
X11952867Y12232566D01*
X11952867Y12232566D01*
G37*
X11952867Y12232566D02*
X12125541Y12225448D01*
X12297458Y12211321D01*
X12469101Y12190051D01*
X12634606Y12162498D01*
X12740391Y12138343D01*
X12839525Y12107630D01*
X12938059Y12068884D01*
X13036000Y12021955D01*
X13133186Y11966714D01*
X13229423Y11903028D01*
X13324395Y11830825D01*
X13417781Y11750034D01*
X13509141Y11660703D01*
X13598076Y11562862D01*
X13684122Y11456642D01*
X13766880Y11342125D01*
X13845872Y11219534D01*
X13920685Y11089037D01*
X13990891Y10950863D01*
X14040205Y10840700D01*
X14043329Y10828947D01*
X14067730Y10779213D01*
X14076549Y10759513D01*
X14082544Y10749021D01*
X14102764Y10707808D01*
X14115947Y10690556D01*
X14126714Y10671710D01*
X14156818Y10637067D01*
X14184689Y10600593D01*
X14200981Y10586246D01*
X14215221Y10569860D01*
X14251507Y10541755D01*
X14285956Y10511420D01*
X14304735Y10500527D01*
X14321898Y10487234D01*
X14362976Y10466746D01*
X14402676Y10443718D01*
X14423219Y10436698D01*
X14442645Y10427009D01*
X14486917Y10414931D01*
X14530360Y10400086D01*
X14551882Y10397208D01*
X14572821Y10391496D01*
X14618598Y10388288D01*
X14630591Y10386684D01*
X14652191Y10385933D01*
X14707423Y10382062D01*
X14719480Y10383594D01*
X14872340Y10378280D01*
X15071453Y10366490D01*
X15269214Y10349549D01*
X15460755Y10327688D01*
X15613651Y10303292D01*
X15758392Y10271083D01*
X15900277Y10230385D01*
X16038961Y10181426D01*
X16174129Y10124423D01*
X16305463Y10059592D01*
X16432581Y9987178D01*
X16555169Y9907393D01*
X16672844Y9820500D01*
X16785245Y9726749D01*
X16892062Y9626356D01*
X16992937Y9519578D01*
X17087518Y9406680D01*
X17175513Y9287849D01*
X17256594Y9163315D01*
X17332425Y9029796D01*
X17489968Y8717524D01*
X17568317Y8550362D01*
X17647591Y8371779D01*
X17725860Y8184790D01*
X17802447Y7989759D01*
X17876740Y7786895D01*
X17948071Y7576571D01*
X18015855Y7358939D01*
X18079439Y7134361D01*
X18138225Y6903035D01*
X18191594Y6665239D01*
X18238931Y6421253D01*
X18279646Y6171255D01*
X18313125Y5915550D01*
X18338777Y5654305D01*
X18355999Y5387826D01*
X18364200Y5116207D01*
X18362780Y4839684D01*
X18351133Y4558421D01*
X18328652Y4272598D01*
X18294717Y3982352D01*
X18248706Y3687842D01*
X18189975Y3389180D01*
X18117874Y3086499D01*
X18031726Y2779890D01*
X17930854Y2469497D01*
X17814544Y2155404D01*
X17682085Y1837746D01*
X17532750Y1516662D01*
X17364218Y1189232D01*
X17275537Y1028830D01*
X17189893Y880877D01*
X17185266Y874098D01*
X17173061Y851798D01*
X17160301Y829755D01*
X17156900Y822270D01*
X17140984Y793190D01*
X17129209Y773146D01*
X17124844Y763701D01*
X17119847Y754572D01*
X17110738Y733183D01*
X17090801Y690048D01*
X17080471Y669390D01*
X17076707Y659556D01*
X17072280Y649977D01*
X17064679Y628126D01*
X17047972Y584473D01*
X17039083Y563247D01*
X17035945Y553046D01*
X17032137Y543096D01*
X17026069Y520941D01*
X17012486Y476786D01*
X17005078Y455150D01*
X17002601Y444653D01*
X16999431Y434347D01*
X16994883Y411940D01*
X16984393Y367478D01*
X16978466Y345505D01*
X16976675Y334769D01*
X16974174Y324168D01*
X16971143Y301604D01*
X16963691Y256927D01*
X16959245Y234681D01*
X16958161Y223773D01*
X16956357Y212959D01*
X16954836Y190320D01*
X16950379Y145487D01*
X16947420Y123056D01*
X16947057Y112065D01*
X16945967Y101095D01*
X16945947Y78440D01*
X16944466Y33578D01*
X16942992Y11001D01*
X16943356Y-21D01*
X16942992Y-11049D01*
X16944466Y-33626D01*
X16945947Y-78488D01*
X16945967Y-101143D01*
X16947057Y-112109D01*
X16947420Y-123104D01*
X16950379Y-145535D01*
X16954836Y-190368D01*
X16956357Y-213007D01*
X16958161Y-223821D01*
X16959245Y-234729D01*
X16963691Y-256975D01*
X16971143Y-301652D01*
X16974174Y-324216D01*
X16976675Y-334817D01*
X16978466Y-345553D01*
X16984393Y-367526D01*
X16994883Y-411988D01*
X16999431Y-434395D01*
X17002601Y-444701D01*
X17005078Y-455198D01*
X17012486Y-476834D01*
X17026069Y-520989D01*
X17032137Y-543144D01*
X17035945Y-553094D01*
X17039083Y-563295D01*
X17047972Y-584521D01*
X17064679Y-628174D01*
X17072280Y-650025D01*
X17076707Y-659604D01*
X17080471Y-669438D01*
X17090801Y-690096D01*
X17110738Y-733231D01*
X17119847Y-754620D01*
X17124844Y-763749D01*
X17129209Y-773194D01*
X17140984Y-793238D01*
X17156900Y-822319D01*
X17160302Y-829805D01*
X17173063Y-851850D01*
X17185266Y-874146D01*
X17189893Y-880924D01*
X17275542Y-1028887D01*
X17364222Y-1189286D01*
X17532740Y-1516694D01*
X17682078Y-1837787D01*
X17814528Y-2155426D01*
X17930825Y-2469495D01*
X18031700Y-2779910D01*
X18117834Y-3086486D01*
X18189934Y-3389183D01*
X18248656Y-3687837D01*
X18294658Y-3982341D01*
X18328584Y-4272579D01*
X18351054Y-4558360D01*
X18362692Y-4839614D01*
X18364106Y-5116134D01*
X18355899Y-5387744D01*
X18338668Y-5654242D01*
X18313010Y-5915473D01*
X18279524Y-6171191D01*
X18238814Y-6421134D01*
X18191469Y-6665140D01*
X18138099Y-6902941D01*
X18079312Y-7134273D01*
X18015716Y-7358899D01*
X17947946Y-7576504D01*
X17876606Y-7786872D01*
X17802329Y-7989725D01*
X17725750Y-8184772D01*
X17647484Y-8371798D01*
X17568208Y-8550433D01*
X17489883Y-8717601D01*
X17332415Y-9029857D01*
X17256632Y-9163250D01*
X17175550Y-9287759D01*
X17087546Y-9406583D01*
X16992948Y-9519492D01*
X16892061Y-9626275D01*
X16785248Y-9726666D01*
X16672816Y-9820448D01*
X16555133Y-9907357D01*
X16432538Y-9987157D01*
X16305408Y-10059592D01*
X16174076Y-10124436D01*
X16038897Y-10181457D01*
X15900226Y-10230424D01*
X15758361Y-10271126D01*
X15613640Y-10303339D01*
X15460802Y-10327728D01*
X15268967Y-10349587D01*
X15070719Y-10366746D01*
X14871758Y-10378751D01*
X14719299Y-10384136D01*
X14707433Y-10382628D01*
X14651995Y-10386513D01*
X14630213Y-10387282D01*
X14618422Y-10388865D01*
X14572831Y-10392060D01*
X14551698Y-10397825D01*
X14529989Y-10400740D01*
X14486748Y-10415543D01*
X14442655Y-10427571D01*
X14423053Y-10437348D01*
X14402329Y-10444442D01*
X14362814Y-10467392D01*
X14321907Y-10487794D01*
X14304586Y-10501209D01*
X14285647Y-10512209D01*
X14251362Y-10542433D01*
X14215229Y-10570419D01*
X14200861Y-10586952D01*
X14184429Y-10601438D01*
X14156697Y-10637773D01*
X14126720Y-10672267D01*
X14115855Y-10691283D01*
X14102563Y-10708698D01*
X14082456Y-10749737D01*
X14076553Y-10760069D01*
X14067643Y-10779971D01*
X14043196Y-10829870D01*
X14040131Y-10841429D01*
X13990894Y-10951414D01*
X13920705Y-11089542D01*
X13845901Y-11220003D01*
X13766918Y-11342555D01*
X13684190Y-11456998D01*
X13598145Y-11563182D01*
X13509227Y-11660969D01*
X13417880Y-11750251D01*
X13324522Y-11830981D01*
X13229551Y-11903150D01*
X13133309Y-11966807D01*
X13036112Y-12022026D01*
X12938175Y-12068930D01*
X12839606Y-12107673D01*
X12740434Y-12138388D01*
X12634634Y-12162542D01*
X12470415Y-12189874D01*
X12300001Y-12211006D01*
X12129240Y-12225091D01*
X11958052Y-12232257D01*
X11786379Y-12232616D01*
X11614154Y-12226271D01*
X11441345Y-12213316D01*
X11267885Y-12193834D01*
X11093786Y-12167910D01*
X10919076Y-12135628D01*
X10743698Y-12097059D01*
X10567770Y-12052304D01*
X10391281Y-12001440D01*
X10214281Y-11944560D01*
X10036861Y-11881773D01*
X9859076Y-11813179D01*
X9680966Y-11738878D01*
X9502665Y-11659012D01*
X9324219Y-11573689D01*
X9145637Y-11483000D01*
X8967167Y-11387163D01*
X8788765Y-11286251D01*
X8610535Y-11180418D01*
X8432593Y-11069829D01*
X8254960Y-10954597D01*
X8080221Y-10836563D01*
X7724876Y-10582582D01*
X7374818Y-10314525D01*
X7027965Y-10031780D01*
X6684906Y-9735676D01*
X6346230Y-9427590D01*
X6012473Y-9108882D01*
X5684105Y-8780871D01*
X5361617Y-8444917D01*
X5045521Y-8102421D01*
X4736289Y-7754757D01*
X4434345Y-7403263D01*
X4140144Y-7049315D01*
X3854170Y-6694341D01*
X3576828Y-6339686D01*
X3308466Y-5986613D01*
X3049598Y-5636617D01*
X2800668Y-5291109D01*
X2562001Y-4951343D01*
X2335895Y-4621434D01*
X2302864Y-4571014D01*
X2274155Y-4541778D01*
X2247784Y-4510406D01*
X2226991Y-4493748D01*
X2208324Y-4474738D01*
X2174458Y-4451661D01*
X2142477Y-4426040D01*
X2118833Y-4413758D01*
X2096817Y-4398756D01*
X2059106Y-4382732D01*
X2022735Y-4363839D01*
X1997148Y-4356405D01*
X1972631Y-4345988D01*
X1932515Y-4337628D01*
X1893160Y-4326195D01*
X1866617Y-4323896D01*
X1840535Y-4318461D01*
X1799562Y-4318088D01*
X1758731Y-4314552D01*
X1732246Y-4317476D01*
X1705607Y-4317234D01*
X1665342Y-4324863D01*
X1624613Y-4329360D01*
X1567156Y-4347531D01*
X1387737Y-4400181D01*
X1212277Y-4444510D01*
X1035323Y-4482147D01*
X857049Y-4513063D01*
X677682Y-4537223D01*
X497394Y-4554596D01*
X316428Y-4565146D01*
X145879Y-4568622D01*
X101013Y-4566403D01*
X100804Y-4566351D01*
X34560Y-4563118D01*
X246Y-4561421D01*
X24Y-4561432D01*
X-199Y-4561421D01*
X-34526Y-4563118D01*
X-100756Y-4566351D01*
X-100965Y-4566403D01*
X-145834Y-4568622D01*
X-316351Y-4565145D01*
X-497345Y-4554592D01*
X-677626Y-4537220D01*
X-856988Y-4513062D01*
X-1035289Y-4482142D01*
X-1212236Y-4444508D01*
X-1387673Y-4400185D01*
X-1567096Y-4347535D01*
X-1624564Y-4329360D01*
X-1665291Y-4324864D01*
X-1705559Y-4317234D01*
X-1732204Y-4317476D01*
X-1758683Y-4314553D01*
X-1799501Y-4318088D01*
X-1840486Y-4318461D01*
X-1866575Y-4323898D01*
X-1893112Y-4326196D01*
X-1932457Y-4337627D01*
X-1972582Y-4345988D01*
X-1997104Y-4356408D01*
X-2022687Y-4363840D01*
X-2059055Y-4382731D01*
X-2096768Y-4398756D01*
X-2118782Y-4413757D01*
X-2142429Y-4426040D01*
X-2174414Y-4451665D01*
X-2208275Y-4474738D01*
X-2226942Y-4493747D01*
X-2247735Y-4510406D01*
X-2274106Y-4541778D01*
X-2302815Y-4571014D01*
X-2335847Y-4621436D01*
X-2561900Y-4951268D01*
X-2800619Y-5291109D01*
X-3049609Y-5636700D01*
X-3308446Y-5986652D01*
X-3576794Y-6339706D01*
X-3854144Y-6694371D01*
X-4140149Y-7049380D01*
X-4434316Y-7403285D01*
X-4736239Y-7754755D01*
X-5045496Y-8102446D01*
X-5361591Y-8444941D01*
X-5684055Y-8780869D01*
X-6012425Y-9108882D01*
X-6346182Y-9427590D01*
X-6684876Y-9735693D01*
X-7027899Y-10031765D01*
X-7374749Y-10314509D01*
X-7724835Y-10582586D01*
X-8080175Y-10836564D01*
X-8254907Y-10954594D01*
X-8432520Y-11069814D01*
X-8610497Y-11180424D01*
X-8788717Y-11286251D01*
X-8967103Y-11387154D01*
X-9145609Y-11483011D01*
X-9324170Y-11573689D01*
X-9502600Y-11659004D01*
X-9680922Y-11738881D01*
X-9859038Y-11813183D01*
X-10036817Y-11881774D01*
X-10214233Y-11944560D01*
X-10391219Y-12001436D01*
X-10567711Y-12052301D01*
X-10743641Y-12097057D01*
X-10919029Y-12135629D01*
X-11093735Y-12167909D01*
X-11267834Y-12193833D01*
X-11441290Y-12213315D01*
X-11614127Y-12226271D01*
X-11786330Y-12232616D01*
X-11958003Y-12232257D01*
X-12129193Y-12225091D01*
X-12299950Y-12211006D01*
X-12470364Y-12189874D01*
X-12634584Y-12162542D01*
X-12740383Y-12138388D01*
X-12839557Y-12107673D01*
X-12938125Y-12068931D01*
X-13036069Y-12022022D01*
X-13133266Y-11966803D01*
X-13229500Y-11903151D01*
X-13324477Y-11830977D01*
X-13417836Y-11750247D01*
X-13509179Y-11660969D01*
X-13598097Y-11563182D01*
X-13684140Y-11457000D01*
X-13766879Y-11342541D01*
X-13845859Y-11219995D01*
X-13920651Y-11089554D01*
X-13990853Y-10951400D01*
X-14040083Y-10841431D01*
X-14043150Y-10829867D01*
X-14067606Y-10779952D01*
X-14076508Y-10760067D01*
X-14082409Y-10749740D01*
X-14102518Y-10708696D01*
X-14115807Y-10691285D01*
X-14126674Y-10672265D01*
X-14156656Y-10637764D01*
X-14184384Y-10601436D01*
X-14200815Y-10586951D01*
X-14215184Y-10570417D01*
X-14251317Y-10542432D01*
X-14285603Y-10512207D01*
X-14304546Y-10501205D01*
X-14321863Y-10487793D01*
X-14362758Y-10467397D01*
X-14402285Y-10444440D01*
X-14423014Y-10437344D01*
X-14442611Y-10427570D01*
X-14486699Y-10415543D01*
X-14529945Y-10400739D01*
X-14551653Y-10397824D01*
X-14572787Y-10392059D01*
X-14618384Y-10388864D01*
X-14630168Y-10387282D01*
X-14651939Y-10386513D01*
X-14707390Y-10382628D01*
X-14719257Y-10384136D01*
X-14871712Y-10378752D01*
X-15070687Y-10366746D01*
X-15268914Y-10349588D01*
X-15460753Y-10327728D01*
X-15613592Y-10303339D01*
X-15758315Y-10271126D01*
X-15900168Y-10230427D01*
X-16038852Y-10181456D01*
X-16174033Y-10124434D01*
X-16305358Y-10059593D01*
X-16432494Y-9987154D01*
X-16555084Y-9907358D01*
X-16672762Y-9820452D01*
X-16785199Y-9726665D01*
X-16892015Y-9626273D01*
X-16992895Y-9519497D01*
X-17087499Y-9406581D01*
X-17175500Y-9287761D01*
X-17256587Y-9163245D01*
X-17332366Y-9029856D01*
X-17489830Y-8717611D01*
X-17568159Y-8550433D01*
X-17647436Y-8371794D01*
X-17725684Y-8184816D01*
X-17802278Y-7989732D01*
X-17876560Y-7786866D01*
X-17947900Y-7576494D01*
X-18015664Y-7358913D01*
X-18079259Y-7134289D01*
X-18138051Y-6902939D01*
X-18191420Y-6665145D01*
X-18238765Y-6421138D01*
X-18279475Y-6171198D01*
X-18312962Y-5915475D01*
X-18338620Y-5654244D01*
X-18355851Y-5387743D01*
X-18364058Y-5116134D01*
X-18362644Y-4839615D01*
X-18351006Y-4558360D01*
X-18328536Y-4272577D01*
X-18294610Y-3982339D01*
X-18248608Y-3687843D01*
X-18189885Y-3389185D01*
X-18117786Y-3086487D01*
X-18031652Y-2779912D01*
X-17930780Y-2469508D01*
X-17814474Y-2155415D01*
X-17682023Y-1837772D01*
X-17532699Y-1516709D01*
X-17364162Y-1189267D01*
X-17275490Y-1028879D01*
X-17189848Y-880929D01*
X-17185218Y-874146D01*
X-17173004Y-851830D01*
X-17160254Y-829804D01*
X-17156855Y-822326D01*
X-17140930Y-793229D01*
X-17129161Y-773194D01*
X-17124798Y-763755D01*
X-17119799Y-754621D01*
X-17110689Y-733228D01*
X-17090761Y-690113D01*
X-17080422Y-669438D01*
X-17076654Y-659592D01*
X-17072232Y-650025D01*
X-17064638Y-628194D01*
X-17047919Y-584509D01*
X-17039035Y-563295D01*
X-17035897Y-553095D01*
X-17032089Y-543144D01*
X-17026021Y-520989D01*
X-17012438Y-476834D01*
X-17005030Y-455198D01*
X-17002553Y-444701D01*
X-16999383Y-434395D01*
X-16994835Y-411988D01*
X-16984341Y-367512D01*
X-16978416Y-345543D01*
X-16976627Y-334815D01*
X-16974126Y-324216D01*
X-16971094Y-301641D01*
X-16963644Y-256975D01*
X-16959198Y-234729D01*
X-16958113Y-223813D01*
X-16956309Y-212997D01*
X-16954789Y-190367D01*
X-16950332Y-145533D01*
X-16947374Y-123114D01*
X-16947011Y-112119D01*
X-16945920Y-101145D01*
X-16945900Y-78488D01*
X-16944418Y-33623D01*
X-16942944Y-11039D01*
X-16943308Y-21D01*
X-16942944Y10991D01*
X-16944418Y33575D01*
X-16945900Y78440D01*
X-16945920Y101097D01*
X-16947011Y112071D01*
X-16947374Y123066D01*
X-16950332Y145485D01*
X-16954789Y190319D01*
X-16956309Y212949D01*
X-16958113Y223765D01*
X-16959198Y234681D01*
X-16963644Y256927D01*
X-16971094Y301593D01*
X-16974126Y324168D01*
X-16976627Y334767D01*
X-16978416Y345495D01*
X-16984341Y367464D01*
X-16994835Y411940D01*
X-16999383Y434347D01*
X-17002553Y444653D01*
X-17005030Y455150D01*
X-17012438Y476786D01*
X-17026021Y520941D01*
X-17032089Y543096D01*
X-17035897Y553047D01*
X-17039035Y563247D01*
X-17047919Y584461D01*
X-17064638Y628146D01*
X-17072232Y649977D01*
X-17076654Y659544D01*
X-17080422Y669390D01*
X-17090761Y690065D01*
X-17110689Y733180D01*
X-17119799Y754573D01*
X-17124798Y763707D01*
X-17129161Y773146D01*
X-17140930Y793181D01*
X-17156858Y822282D01*
X-17160254Y829755D01*
X-17172995Y851766D01*
X-17185218Y874098D01*
X-17189850Y880884D01*
X-17275486Y1028824D01*
X-17364170Y1189232D01*
X-17532698Y1516655D01*
X-17682030Y1837731D01*
X-17814489Y2155386D01*
X-17930804Y2469493D01*
X-18031676Y2779886D01*
X-18117823Y3086489D01*
X-18189925Y3389172D01*
X-18248658Y3687844D01*
X-18294669Y3982352D01*
X-18328602Y4272586D01*
X-18351085Y4558430D01*
X-18362732Y4839684D01*
X-18363883Y5064000D01*
X-14627072Y5064000D01*
X-14627072Y4464000D01*
X-14614812Y4339518D01*
X-14578502Y4219820D01*
X-14519537Y4109506D01*
X-14482191Y4064000D01*
X-14519537Y4018494D01*
X-14578502Y3908180D01*
X-14614812Y3788482D01*
X-14627072Y3664000D01*
X-14627072Y3064000D01*
X-14614812Y2939518D01*
X-14578502Y2819820D01*
X-14519537Y2709506D01*
X-14440185Y2612815D01*
X-14343494Y2533463D01*
X-14283729Y2501518D01*
X-14223974Y2389724D01*
X-14196991Y2356846D01*
X-14129001Y2273999D01*
X-14099997Y2250196D01*
X-13246802Y1397000D01*
X-14099997Y543804D01*
X-14129001Y520001D01*
X-14171753Y467907D01*
X-14223974Y404276D01*
X-14291873Y277246D01*
X-14294546Y272246D01*
X-14338003Y128985D01*
X-14349000Y17332D01*
X-14349000Y17322D01*
X-14352676Y-20000D01*
X-14349000Y-57323D01*
X-14348999Y-2664981D01*
X-14440185Y-2739815D01*
X-14519537Y-2836506D01*
X-14578502Y-2946820D01*
X-14614812Y-3066518D01*
X-14627072Y-3191000D01*
X-14627072Y-3791000D01*
X-14614812Y-3915482D01*
X-14578502Y-4035180D01*
X-14519537Y-4145494D01*
X-14482191Y-4191000D01*
X-14519537Y-4236506D01*
X-14578502Y-4346820D01*
X-14614812Y-4466518D01*
X-14627072Y-4591000D01*
X-14627072Y-5191000D01*
X-14614812Y-5315482D01*
X-14578502Y-5435180D01*
X-14519537Y-5545494D01*
X-14490400Y-5580997D01*
X-14524000Y-5749911D01*
X-14524000Y-5934089D01*
X-14488068Y-6114729D01*
X-14417586Y-6284889D01*
X-14315262Y-6438028D01*
X-14185028Y-6568262D01*
X-14031889Y-6670586D01*
X-13861729Y-6741068D01*
X-13681089Y-6777000D01*
X-13496911Y-6777000D01*
X-13316271Y-6741068D01*
X-13146111Y-6670586D01*
X-12992972Y-6568262D01*
X-12862738Y-6438028D01*
X-12760414Y-6284889D01*
X-12689932Y-6114729D01*
X-12654000Y-5934089D01*
X-12654000Y-5749911D01*
X-12687600Y-5580997D01*
X-12658463Y-5545494D01*
X-12599498Y-5435180D01*
X-12563188Y-5315482D01*
X-12550928Y-5191000D01*
X-12550928Y-4591000D01*
X-12563188Y-4466518D01*
X-12599498Y-4346820D01*
X-12658463Y-4236506D01*
X-12695809Y-4191000D01*
X-12658463Y-4145494D01*
X-12599498Y-4035180D01*
X-12563188Y-3915482D01*
X-12550928Y-3791000D01*
X-12550928Y-3191000D01*
X-12563188Y-3066518D01*
X-12599498Y-2946820D01*
X-12658463Y-2836506D01*
X-12737815Y-2739815D01*
X-12829000Y-2664982D01*
X-12829000Y-2235476D01*
X-1547871Y-2235476D01*
X-1459377Y-2493723D01*
X-1180024Y-2628597D01*
X-879725Y-2706381D01*
X-570023Y-2724084D01*
X-262816Y-2681027D01*
X30086Y-2578865D01*
X189377Y-2493723D01*
X277871Y-2235476D01*
X-635000Y-1322605D01*
X-1547871Y-2235476D01*
X-12829000Y-2235476D01*
X-12829000Y-1207977D01*
X-2216084Y-1207977D01*
X-2173027Y-1515184D01*
X-2070865Y-1808086D01*
X-1985723Y-1967377D01*
X-1727476Y-2055871D01*
X-814605Y-1143000D01*
X-1727476Y-230129D01*
X-1985723Y-318623D01*
X-2120597Y-597976D01*
X-2198381Y-898275D01*
X-2216084Y-1207977D01*
X-12829000Y-1207977D01*
X-12829000Y-334801D01*
X-11857198Y637000D01*
X-2021181Y637000D01*
X-1858227Y393123D01*
X-1638877Y173773D01*
X-1502286Y82505D01*
X-1547871Y-50524D01*
X-635000Y-963395D01*
X-620858Y-949253D01*
X-441253Y-1128858D01*
X-455395Y-1143000D01*
X457476Y-2055871D01*
X590505Y-2010286D01*
X681773Y-2146877D01*
X901123Y-2366227D01*
X1159052Y-2538570D01*
X1445648Y-2657282D01*
X1749896Y-2717800D01*
X2060104Y-2717800D01*
X2364352Y-2657282D01*
X2650948Y-2538570D01*
X2908877Y-2366227D01*
X3128227Y-2146877D01*
X3300570Y-1888948D01*
X3359318Y-1747119D01*
X5859706Y-4247508D01*
X5883500Y-4276501D01*
X5912493Y-4300295D01*
X9108201Y-7496003D01*
X9131999Y-7525001D01*
X9247724Y-7619974D01*
X9359518Y-7679730D01*
X9391463Y-7739494D01*
X9470815Y-7836185D01*
X9567506Y-7915537D01*
X9677820Y-7974502D01*
X9797518Y-8010812D01*
X9922000Y-8023072D01*
X10522000Y-8023072D01*
X10646482Y-8010812D01*
X10766180Y-7974502D01*
X10876494Y-7915537D01*
X10922000Y-7878191D01*
X10967506Y-7915537D01*
X11077820Y-7974502D01*
X11197518Y-8010812D01*
X11322000Y-8023072D01*
X11922000Y-8023072D01*
X12046482Y-8010812D01*
X12166180Y-7974502D01*
X12276494Y-7915537D01*
X12373185Y-7836185D01*
X12389798Y-7815942D01*
X12554271Y-7884068D01*
X12734911Y-7920000D01*
X12919089Y-7920000D01*
X13099729Y-7884068D01*
X13269889Y-7813586D01*
X13423028Y-7711262D01*
X13553262Y-7581028D01*
X13655586Y-7427889D01*
X13726068Y-7257729D01*
X13762000Y-7077089D01*
X13762000Y-6892911D01*
X13726068Y-6712271D01*
X13655586Y-6542111D01*
X13553262Y-6388972D01*
X13423028Y-6258738D01*
X13269889Y-6156414D01*
X13099729Y-6085932D01*
X12919089Y-6050000D01*
X12734911Y-6050000D01*
X12554271Y-6085932D01*
X12389798Y-6154058D01*
X12373185Y-6133815D01*
X12276494Y-6054463D01*
X12166180Y-5995498D01*
X12046482Y-5959188D01*
X11922000Y-5946928D01*
X11322000Y-5946928D01*
X11197518Y-5959188D01*
X11077820Y-5995498D01*
X10967506Y-6054463D01*
X10922000Y-6091809D01*
X10876494Y-6054463D01*
X10766180Y-5995498D01*
X10646482Y-5959188D01*
X10522000Y-5946928D01*
X9922000Y-5946928D01*
X9797518Y-5959188D01*
X9738801Y-5977000D01*
X7183500Y-3421699D01*
X7183500Y2644699D01*
X10739730Y6200928D01*
X10903000Y6200928D01*
X11027482Y6213188D01*
X11147180Y6249498D01*
X11257494Y6308463D01*
X11303000Y6345809D01*
X11348506Y6308463D01*
X11458820Y6249498D01*
X11578518Y6213188D01*
X11703000Y6200928D01*
X12303000Y6200928D01*
X12427482Y6213188D01*
X12547180Y6249498D01*
X12657494Y6308463D01*
X12668220Y6317266D01*
X12734911Y6304000D01*
X12919089Y6304000D01*
X13099729Y6339932D01*
X13269889Y6410414D01*
X13423028Y6512738D01*
X13553262Y6642972D01*
X13655586Y6796111D01*
X13726068Y6966271D01*
X13762000Y7146911D01*
X13762000Y7331089D01*
X13726068Y7511729D01*
X13655586Y7681889D01*
X13553262Y7835028D01*
X13423028Y7965262D01*
X13269889Y8067586D01*
X13099729Y8138068D01*
X12919089Y8174000D01*
X12734911Y8174000D01*
X12668220Y8160734D01*
X12657494Y8169537D01*
X12547180Y8228502D01*
X12427482Y8264812D01*
X12303000Y8277072D01*
X11703000Y8277072D01*
X11578518Y8264812D01*
X11458820Y8228502D01*
X11348506Y8169537D01*
X11303000Y8132191D01*
X11257494Y8169537D01*
X11147180Y8228502D01*
X11027482Y8264812D01*
X10903000Y8277072D01*
X10303000Y8277072D01*
X10178518Y8264812D01*
X10058820Y8228502D01*
X9948506Y8169537D01*
X9851815Y8090185D01*
X9772463Y7993494D01*
X9713498Y7883180D01*
X9677188Y7763482D01*
X9664928Y7639000D01*
X9664928Y7275730D01*
X5912503Y3523304D01*
X5883499Y3499501D01*
X5830683Y3435144D01*
X5788526Y3383776D01*
X5737689Y3288667D01*
X5717954Y3251746D01*
X5674497Y3108485D01*
X5663500Y2996832D01*
X5663500Y2996822D01*
X5659824Y2959500D01*
X5663500Y2922177D01*
X5663501Y-1901699D01*
X3224538Y537263D01*
X3300570Y651052D01*
X3419282Y937648D01*
X3479800Y1241896D01*
X3479800Y1552104D01*
X3419282Y1856352D01*
X3300570Y2142948D01*
X3128227Y2400877D01*
X2908877Y2620227D01*
X2650948Y2792570D01*
X2364352Y2911282D01*
X2060104Y2971800D01*
X1749896Y2971800D01*
X1445648Y2911282D01*
X1159052Y2792570D01*
X901123Y2620227D01*
X681773Y2400877D01*
X635000Y2330876D01*
X588227Y2400877D01*
X368877Y2620227D01*
X110948Y2792570D01*
X-175648Y2911282D01*
X-479896Y2971800D01*
X-790104Y2971800D01*
X-1094352Y2911282D01*
X-1380948Y2792570D01*
X-1638877Y2620227D01*
X-1858227Y2400877D01*
X-2021181Y2157000D01*
X-11857198Y2157000D01*
X-12581000Y2880801D01*
X-12563188Y2939518D01*
X-12550928Y3064000D01*
X-12550928Y3664000D01*
X-12563188Y3788482D01*
X-12599498Y3908180D01*
X-12658463Y4018494D01*
X-12695809Y4064000D01*
X-12658463Y4109506D01*
X-12599498Y4219820D01*
X-12563188Y4339518D01*
X-12550928Y4464000D01*
X-12550928Y5064000D01*
X-12563188Y5188482D01*
X-12599498Y5308180D01*
X-12658463Y5418494D01*
X-12737815Y5515185D01*
X-12811931Y5576010D01*
X-12760414Y5653111D01*
X-12689932Y5823271D01*
X-12654000Y6003911D01*
X-12654000Y6188089D01*
X-12689932Y6368729D01*
X-12760414Y6538889D01*
X-12862738Y6692028D01*
X-12992972Y6822262D01*
X-13146111Y6924586D01*
X-13316271Y6995068D01*
X-13496911Y7031000D01*
X-13681089Y7031000D01*
X-13861729Y6995068D01*
X-14031889Y6924586D01*
X-14185028Y6822262D01*
X-14315262Y6692028D01*
X-14417586Y6538889D01*
X-14488068Y6368729D01*
X-14524000Y6188089D01*
X-14524000Y6003911D01*
X-14488068Y5823271D01*
X-14417586Y5653111D01*
X-14366069Y5576010D01*
X-14440185Y5515185D01*
X-14519537Y5418494D01*
X-14578502Y5308180D01*
X-14614812Y5188482D01*
X-14627072Y5064000D01*
X-18363883Y5064000D01*
X-18364152Y5116207D01*
X-18355951Y5387826D01*
X-18338729Y5654308D01*
X-18313075Y5915566D01*
X-18279594Y6171277D01*
X-18238885Y6421246D01*
X-18191545Y6665244D01*
X-18138177Y6903033D01*
X-18079391Y7134360D01*
X-18015804Y7358947D01*
X-17948023Y7576569D01*
X-17876668Y7786960D01*
X-17802395Y7989767D01*
X-17725812Y8184790D01*
X-17647549Y8371764D01*
X-17568251Y8550399D01*
X-17489926Y8717509D01*
X-17332369Y9029807D01*
X-17256544Y9163316D01*
X-17175464Y9287849D01*
X-17087470Y9406679D01*
X-16992878Y9519590D01*
X-16892018Y9626351D01*
X-16785206Y9726739D01*
X-16672781Y9820510D01*
X-16555112Y9907399D01*
X-16432538Y9987174D01*
X-16305412Y10059593D01*
X-16174080Y10124423D01*
X-16038912Y10181426D01*
X-15900224Y10230386D01*
X-15758340Y10271083D01*
X-15613604Y10303292D01*
X-15460704Y10327689D01*
X-15269163Y10349550D01*
X-15071404Y10366490D01*
X-14872293Y10378280D01*
X-14719436Y10383594D01*
X-14707379Y10382062D01*
X-14652138Y10385933D01*
X-14630544Y10386684D01*
X-14618558Y10388287D01*
X-14572777Y10391495D01*
X-14551833Y10397209D01*
X-14530313Y10400086D01*
X-14486881Y10414927D01*
X-14442601Y10427007D01*
X-14423171Y10436698D01*
X-14402628Y10443718D01*
X-14362930Y10466744D01*
X-14321854Y10487232D01*
X-14304690Y10500526D01*
X-14285909Y10511420D01*
X-14251457Y10541758D01*
X-14215177Y10569858D01*
X-14200938Y10586243D01*
X-14184642Y10600593D01*
X-14156768Y10637071D01*
X-14126669Y10671707D01*
X-14115902Y10690551D01*
X-14102716Y10707808D01*
X-14082496Y10749022D01*
X-14076503Y10759510D01*
X-14067683Y10779213D01*
X-14043282Y10828947D01*
X-14040159Y10840697D01*
X-13990842Y10950864D01*
X-13920643Y11089028D01*
X-13845825Y11219533D01*
X-13766835Y11342121D01*
X-13684076Y11456640D01*
X-13598023Y11562868D01*
X-13509095Y11660701D01*
X-13417722Y11750045D01*
X-13324355Y11830818D01*
X-13229373Y11903029D01*
X-13133148Y11966707D01*
X-13035945Y12021958D01*
X-12938010Y12068884D01*
X-12839476Y12107630D01*
X-12740342Y12138343D01*
X-12634556Y12162499D01*
X-12469037Y12190053D01*
X-12297407Y12211321D01*
X-12125494Y12225448D01*
X-11953628Y12232533D01*
X-11934074Y12232533D01*
X-11933270Y12232612D01*
X-11792272Y12232944D01*
X-11630721Y12227421D01*
X-11468660Y12216073D01*
X-11306027Y12198970D01*
X-11142863Y12176186D01*
X-10979106Y12147779D01*
X-10814843Y12113829D01*
X-10650029Y12074395D01*
X-10484695Y12029546D01*
X-10318946Y11979375D01*
X-10152752Y11923941D01*
X-9986207Y11863339D01*
X-9819375Y11797662D01*
X-9652251Y11726977D01*
X-9484965Y11651406D01*
X-9317559Y11571045D01*
X-9150113Y11486004D01*
X-8982652Y11396373D01*
X-8815323Y11302306D01*
X-8650856Y11205492D01*
X-8314295Y10994291D01*
X-7982059Y10769016D01*
X-7651768Y10528879D01*
X-7323871Y10274891D01*
X-6998967Y10008220D01*
X-6677440Y9729891D01*
X-6359763Y9441028D01*
X-6046371Y9142745D01*
X-5737708Y8836183D01*
X-5434157Y8522443D01*
X-5136136Y8202677D01*
X-4844023Y7878000D01*
X-4558164Y7549510D01*
X-4279005Y7218423D01*
X-4006847Y6885797D01*
X-3742026Y6552732D01*
X-3484996Y6220490D01*
X-3236026Y5890101D01*
X-2995518Y5562767D01*
X-2763719Y5239494D01*
X-2541079Y4921563D01*
X-2329512Y4612416D01*
X-2296030Y4561457D01*
X-2267766Y4532752D01*
X-2241869Y4501902D01*
X-2220545Y4484795D01*
X-2201359Y4465309D01*
X-2168037Y4442669D01*
X-2136620Y4417464D01*
X-2112366Y4404844D01*
X-2089750Y4389478D01*
X-2052655Y4373775D01*
X-2016921Y4355182D01*
X-1990670Y4347536D01*
X-1965492Y4336878D01*
X-1926042Y4328713D01*
X-1887372Y4317450D01*
X-1860138Y4315072D01*
X-1833359Y4309530D01*
X-1793076Y4309218D01*
X-1752950Y4305715D01*
X-1725773Y4308697D01*
X-1698431Y4308485D01*
X-1658861Y4316038D01*
X-1618822Y4320431D01*
X-1560687Y4338774D01*
X-1381328Y4391669D01*
X-1206566Y4436097D01*
X-1030293Y4473885D01*
X-852689Y4505006D01*
X-674020Y4529412D01*
X-494432Y4547084D01*
X-314092Y4557987D01*
X-142445Y4561877D01*
X-33542Y4557323D01*
X-4975Y4555711D01*
X24Y4555920D01*
X5023Y4555711D01*
X33591Y4557324D01*
X142484Y4561877D01*
X314155Y4557984D01*
X494477Y4547082D01*
X674054Y4529412D01*
X852758Y4504999D01*
X1030352Y4473882D01*
X1206637Y4436091D01*
X1381370Y4391670D01*
X1560742Y4338772D01*
X1618871Y4320431D01*
X1658912Y4316038D01*
X1698483Y4308485D01*
X1725822Y4308697D01*
X1752999Y4305715D01*
X1793125Y4309218D01*
X1833412Y4309530D01*
X1860192Y4315073D01*
X1887420Y4317450D01*
X1926087Y4328712D01*
X1965545Y4336879D01*
X1990724Y4347538D01*
X2016970Y4355182D01*
X2052704Y4373775D01*
X2089803Y4389480D01*
X2112420Y4404847D01*
X2136669Y4417464D01*
X2168083Y4442666D01*
X2201412Y4465311D01*
X2220598Y4484797D01*
X2241918Y4501901D01*
X2267815Y4532751D01*
X2296082Y4561460D01*
X2329567Y4612424D01*
X2541155Y4921602D01*
X2763791Y5239526D01*
X2995551Y5562746D01*
X3236101Y5890137D01*
X3485015Y6220452D01*
X3742103Y6552769D01*
X4006897Y6885799D01*
X4279045Y7218413D01*
X4558190Y7549484D01*
X4844071Y7878000D01*
X5136184Y8202677D01*
X5434203Y8522441D01*
X5737779Y8836207D01*
X6046419Y9142745D01*
X6359811Y9441028D01*
X6677488Y9729891D01*
X6999015Y10008220D01*
X7323919Y10274891D01*
X7651798Y10528865D01*
X7982095Y10769009D01*
X8314356Y10994299D01*
X8650888Y11205482D01*
X8815371Y11302306D01*
X8982721Y11396384D01*
X9150156Y11486002D01*
X9317638Y11571060D01*
X9485009Y11651405D01*
X9652308Y11726981D01*
X9819400Y11797653D01*
X9986241Y11863334D01*
X10152812Y11923945D01*
X10318985Y11979373D01*
X10484764Y12029552D01*
X10650082Y12074396D01*
X10814876Y12113826D01*
X10979180Y12147783D01*
X11142914Y12176186D01*
X11306076Y12198970D01*
X11468709Y12216073D01*
X11630767Y12227421D01*
X11792319Y12232944D01*
X11952867Y12232566D01*
M02*
