G04 #@! TF.GenerationSoftware,KiCad,Pcbnew,5.1.2*
G04 #@! TF.CreationDate,2019-06-28T20:41:13-07:00*
G04 #@! TF.ProjectId,bow-tie.svg.2019_06_28_19_52_47.0,626f772d-7469-4652-9e73-76672e323031,rev?*
G04 #@! TF.SameCoordinates,Original*
G04 #@! TF.FileFunction,Legend,Top*
G04 #@! TF.FilePolarity,Positive*
%FSLAX46Y46*%
G04 Gerber Fmt 4.6, Leading zero omitted, Abs format (unit mm)*
G04 Created by KiCad (PCBNEW 5.1.2) date 2019-06-28 20:41:13*
%MOMM*%
%LPD*%
G04 APERTURE LIST*
%ADD10C,0.010000*%
%ADD11C,0.127000*%
G04 APERTURE END LIST*
D10*
G36*
X12412082Y12884542D02*
G01*
X12721909Y12841449D01*
X12997897Y12776761D01*
X13238816Y12690664D01*
X13303250Y12661086D01*
X13566371Y12510519D01*
X13815459Y12322303D01*
X14047453Y12099679D01*
X14259291Y11845884D01*
X14447913Y11564158D01*
X14590875Y11298593D01*
X14700250Y11071935D01*
X14859000Y11070979D01*
X15034852Y11065004D01*
X15234766Y11050108D01*
X15441822Y11027974D01*
X15639098Y11000285D01*
X15733765Y10983959D01*
X16084546Y10897587D01*
X16420406Y10772965D01*
X16738338Y10612164D01*
X17035332Y10417255D01*
X17308379Y10190310D01*
X17554469Y9933399D01*
X17770593Y9648595D01*
X17846567Y9529655D01*
X17909441Y9419668D01*
X17983636Y9279494D01*
X18064762Y9118256D01*
X18148432Y8945076D01*
X18230256Y8769078D01*
X18305845Y8599384D01*
X18370811Y8445119D01*
X18383403Y8413750D01*
X18599711Y7814145D01*
X18775648Y7205408D01*
X18912098Y6584110D01*
X19000516Y6021917D01*
X19012643Y5900652D01*
X19022673Y5745666D01*
X19030560Y5564624D01*
X19036258Y5365190D01*
X19039721Y5155029D01*
X19040902Y4941806D01*
X19039756Y4733184D01*
X19036237Y4536830D01*
X19030298Y4360408D01*
X19021893Y4211582D01*
X19012032Y4106333D01*
X18929918Y3561826D01*
X18819268Y3036218D01*
X18678112Y2523584D01*
X18504481Y2017994D01*
X18296408Y1513519D01*
X18051924Y1004233D01*
X17867028Y657833D01*
X17787465Y510108D01*
X17728627Y389218D01*
X17687686Y286824D01*
X17661816Y194586D01*
X17648186Y104165D01*
X17643970Y7219D01*
X17643954Y0D01*
X17647619Y-97712D01*
X17660501Y-188318D01*
X17685426Y-280158D01*
X17725224Y-381574D01*
X17782722Y-500903D01*
X17860748Y-646486D01*
X17867028Y-657833D01*
X18136974Y-1173650D01*
X18369192Y-1680688D01*
X18565650Y-2184875D01*
X18728318Y-2692140D01*
X18859162Y-3208411D01*
X18960152Y-3739616D01*
X19012032Y-4106333D01*
X19021326Y-4209994D01*
X19028710Y-4353180D01*
X19034104Y-4533123D01*
X19037428Y-4747056D01*
X19038605Y-4992209D01*
X19038585Y-5037667D01*
X19038002Y-5243339D01*
X19036570Y-5413628D01*
X19033976Y-5555481D01*
X19029903Y-5675843D01*
X19024036Y-5781661D01*
X19016060Y-5879883D01*
X19005660Y-5977454D01*
X18992520Y-6081321D01*
X18990547Y-6096000D01*
X18898760Y-6657375D01*
X18776241Y-7204697D01*
X18620483Y-7747522D01*
X18428975Y-8295407D01*
X18379139Y-8424333D01*
X18326479Y-8551586D01*
X18261124Y-8699161D01*
X18186893Y-8859321D01*
X18107608Y-9024331D01*
X18027091Y-9186453D01*
X17949160Y-9337951D01*
X17877638Y-9471088D01*
X17816346Y-9578129D01*
X17783278Y-9630833D01*
X17566234Y-9919614D01*
X17319255Y-10179828D01*
X17045364Y-10409481D01*
X16747582Y-10606577D01*
X16428930Y-10769123D01*
X16092429Y-10895123D01*
X15741100Y-10982583D01*
X15733765Y-10983959D01*
X15548511Y-11013906D01*
X15344523Y-11039189D01*
X15138722Y-11058125D01*
X14948028Y-11069031D01*
X14859000Y-11070978D01*
X14700250Y-11071935D01*
X14590875Y-11298592D01*
X14424931Y-11602058D01*
X14233097Y-11880400D01*
X14018432Y-12130384D01*
X13783992Y-12348773D01*
X13532837Y-12532332D01*
X13303250Y-12661112D01*
X13093659Y-12745551D01*
X12850793Y-12813072D01*
X12580321Y-12863351D01*
X12287912Y-12896066D01*
X11979236Y-12910894D01*
X11659962Y-12907512D01*
X11335760Y-12885596D01*
X11012299Y-12844824D01*
X10787351Y-12804485D01*
X10305402Y-12686506D01*
X9817250Y-12526897D01*
X9323168Y-12325860D01*
X8823431Y-12083600D01*
X8318312Y-11800320D01*
X7808086Y-11476226D01*
X7293026Y-11111519D01*
X6773406Y-10706405D01*
X6249500Y-10261087D01*
X5721581Y-9775769D01*
X5189924Y-9250656D01*
X4654803Y-8685950D01*
X4116490Y-8081855D01*
X3575261Y-7438577D01*
X3567536Y-7429137D01*
X3372433Y-7186991D01*
X3164228Y-6921993D01*
X2948486Y-6641605D01*
X2730773Y-6353287D01*
X2594773Y-6169860D01*
X4000500Y-6169860D01*
X4013344Y-6190221D01*
X4049416Y-6238647D01*
X4105030Y-6310530D01*
X4176496Y-6401260D01*
X4260126Y-6506230D01*
X4352233Y-6620830D01*
X4449128Y-6740452D01*
X4547123Y-6860488D01*
X4642529Y-6976328D01*
X4729050Y-7080250D01*
X5006910Y-7405069D01*
X5301117Y-7736531D01*
X5604878Y-8067454D01*
X5911400Y-8390656D01*
X6213888Y-8698956D01*
X6505549Y-8985171D01*
X6737835Y-9203848D01*
X7233166Y-9643430D01*
X7719637Y-10041838D01*
X8197548Y-10399230D01*
X8667197Y-10715762D01*
X9128882Y-10991592D01*
X9582903Y-11226878D01*
X10029557Y-11421776D01*
X10469143Y-11576443D01*
X10901961Y-11691038D01*
X11328308Y-11765716D01*
X11662833Y-11796710D01*
X11736451Y-11800987D01*
X11797914Y-11804893D01*
X11821583Y-11806604D01*
X11858547Y-11806351D01*
X11927744Y-11803112D01*
X12019224Y-11797440D01*
X12121405Y-11790011D01*
X12329071Y-11769943D01*
X12501994Y-11743521D01*
X12647583Y-11708327D01*
X12773243Y-11661946D01*
X12886383Y-11601962D01*
X12994410Y-11525958D01*
X13036774Y-11491437D01*
X13107517Y-11427072D01*
X13181242Y-11352015D01*
X13252906Y-11272488D01*
X13317463Y-11194713D01*
X13369870Y-11124911D01*
X13405084Y-11069303D01*
X13418059Y-11034110D01*
X13414223Y-11025879D01*
X13380056Y-11015997D01*
X13318634Y-11004860D01*
X13260917Y-10997048D01*
X13182381Y-10985723D01*
X13070721Y-10966633D01*
X12934092Y-10941419D01*
X12780644Y-10911718D01*
X12618531Y-10879170D01*
X12455906Y-10845415D01*
X12300920Y-10812091D01*
X12161727Y-10780837D01*
X12046479Y-10753294D01*
X12038161Y-10751204D01*
X11392004Y-10569062D01*
X10735886Y-10346368D01*
X10070556Y-10083529D01*
X9396760Y-9780951D01*
X8715247Y-9439039D01*
X8026763Y-9058200D01*
X7332056Y-8638838D01*
X6631874Y-8181360D01*
X5926965Y-7686172D01*
X5218075Y-7153679D01*
X4794250Y-6818946D01*
X4669415Y-6718006D01*
X4541189Y-6613352D01*
X4418209Y-6512102D01*
X4309109Y-6421373D01*
X4222525Y-6348282D01*
X4206875Y-6334862D01*
X4129974Y-6269567D01*
X4066080Y-6217068D01*
X4021120Y-6182101D01*
X4001020Y-6169406D01*
X4000500Y-6169860D01*
X2594773Y-6169860D01*
X2516656Y-6064503D01*
X2311699Y-5782712D01*
X2121469Y-5515378D01*
X1951531Y-5269961D01*
X1898720Y-5191878D01*
X1822117Y-5080760D01*
X1764422Y-5004054D01*
X1723638Y-4959361D01*
X1697769Y-4944280D01*
X1693333Y-4944879D01*
X1661696Y-4954653D01*
X1598080Y-4973063D01*
X1511342Y-4997584D01*
X1410339Y-5025691D01*
X1397000Y-5029373D01*
X934106Y-5136169D01*
X472817Y-5200700D01*
X12342Y-5222966D01*
X-448113Y-5202967D01*
X-909338Y-5140702D01*
X-1372126Y-5036172D01*
X-1397000Y-5029373D01*
X-1499186Y-5000924D01*
X-1588222Y-4975628D01*
X-1655251Y-4956038D01*
X-1691412Y-4944705D01*
X-1693333Y-4943992D01*
X-1724173Y-4951886D01*
X-1765235Y-4997412D01*
X-1788567Y-5032241D01*
X-1831363Y-5097420D01*
X-1895370Y-5191313D01*
X-1976742Y-5308511D01*
X-2071633Y-5443605D01*
X-2176201Y-5591186D01*
X-2286599Y-5745845D01*
X-2398982Y-5902173D01*
X-2509507Y-6054760D01*
X-2614328Y-6198199D01*
X-2695162Y-6307667D01*
X-3183289Y-6947853D01*
X-3678178Y-7563650D01*
X-4177837Y-8152965D01*
X-4680274Y-8713703D01*
X-5183496Y-9243770D01*
X-5685511Y-9741073D01*
X-6184327Y-10203518D01*
X-6677952Y-10629011D01*
X-7164394Y-11015458D01*
X-7199965Y-11042381D01*
X-7562104Y-11307554D01*
X-7909082Y-11544494D01*
X-8250586Y-11759241D01*
X-8596304Y-11957834D01*
X-8955923Y-12146315D01*
X-9027583Y-12181957D01*
X-9480574Y-12391042D01*
X-9918458Y-12563267D01*
X-10345107Y-12699614D01*
X-10764392Y-12801062D01*
X-11180187Y-12868593D01*
X-11596364Y-12903187D01*
X-11895537Y-12908279D01*
X-12018900Y-12906670D01*
X-12132722Y-12904428D01*
X-12227914Y-12901786D01*
X-12295388Y-12898982D01*
X-12319000Y-12897298D01*
X-12602123Y-12859070D01*
X-12862809Y-12805315D01*
X-13095180Y-12737520D01*
X-13293360Y-12657168D01*
X-13318852Y-12644592D01*
X-13550679Y-12506777D01*
X-13778165Y-12332244D01*
X-13996100Y-12126599D01*
X-14199272Y-11895448D01*
X-14382471Y-11644397D01*
X-14540487Y-11379053D01*
X-14594645Y-11271900D01*
X-14688827Y-11075667D01*
X-14927372Y-11061233D01*
X-15236608Y-11038003D01*
X-15468675Y-11011812D01*
X-13461354Y-11011812D01*
X-13424635Y-11074303D01*
X-13329595Y-11210184D01*
X-13207157Y-11346682D01*
X-13068291Y-11473717D01*
X-12923965Y-11581207D01*
X-12791615Y-11656117D01*
X-12634423Y-11713014D01*
X-12442890Y-11755663D01*
X-12222670Y-11783690D01*
X-11979417Y-11796723D01*
X-11718784Y-11794388D01*
X-11446426Y-11776313D01*
X-11270014Y-11756500D01*
X-10873326Y-11685754D01*
X-10464282Y-11575659D01*
X-10044280Y-11426904D01*
X-9614717Y-11240177D01*
X-9176989Y-11016167D01*
X-8732493Y-10755564D01*
X-8282627Y-10459054D01*
X-7828787Y-10127327D01*
X-7598833Y-9946883D01*
X-7179778Y-9596897D01*
X-6749441Y-9211139D01*
X-6311636Y-8793388D01*
X-5870177Y-8347424D01*
X-5428876Y-7877026D01*
X-4991547Y-7385973D01*
X-4855903Y-7228417D01*
X-4768658Y-7125369D01*
X-4673192Y-7011091D01*
X-4572945Y-6889851D01*
X-4471357Y-6765921D01*
X-4371866Y-6643568D01*
X-4277913Y-6527065D01*
X-4192937Y-6420680D01*
X-4120377Y-6328683D01*
X-4063673Y-6255344D01*
X-4026264Y-6204933D01*
X-4011591Y-6181720D01*
X-4011905Y-6180667D01*
X-4031521Y-6193671D01*
X-4077551Y-6229599D01*
X-4144265Y-6283820D01*
X-4225938Y-6351705D01*
X-4282391Y-6399317D01*
X-4876440Y-6888625D01*
X-5482604Y-7359886D01*
X-6096985Y-7810558D01*
X-6715684Y-8238102D01*
X-7334802Y-8639974D01*
X-7950442Y-9013635D01*
X-8558703Y-9356543D01*
X-9155688Y-9666156D01*
X-9662583Y-9906334D01*
X-10210460Y-10141614D01*
X-10757993Y-10352622D01*
X-11300571Y-10537972D01*
X-11833582Y-10696277D01*
X-12352414Y-10826153D01*
X-12852457Y-10926211D01*
X-13255302Y-10986291D01*
X-13461354Y-11011812D01*
X-15468675Y-11011812D01*
X-15510595Y-11007081D01*
X-15755975Y-10966888D01*
X-15979391Y-10915844D01*
X-16187482Y-10852371D01*
X-16386892Y-10774887D01*
X-16584261Y-10681815D01*
X-16636127Y-10654833D01*
X-16903061Y-10493031D01*
X-17160998Y-10297325D01*
X-17401131Y-10075665D01*
X-17614647Y-9836000D01*
X-17754149Y-9646029D01*
X-17884149Y-9434992D01*
X-18017228Y-9188743D01*
X-18150641Y-8913999D01*
X-18281639Y-8617477D01*
X-18407476Y-8305895D01*
X-18525404Y-7985972D01*
X-18632676Y-7664424D01*
X-18726544Y-7347969D01*
X-18784212Y-7127353D01*
X-18866355Y-6769903D01*
X-18930462Y-6436687D01*
X-18978052Y-6115077D01*
X-19010645Y-5792445D01*
X-19029763Y-5456166D01*
X-19036924Y-5093612D01*
X-19037061Y-5027083D01*
X-19031086Y-4642970D01*
X-19012473Y-4288404D01*
X-18979889Y-3952134D01*
X-18931997Y-3622910D01*
X-18867463Y-3289481D01*
X-18793399Y-2973917D01*
X-18670117Y-2539843D01*
X-18516803Y-2092635D01*
X-18338034Y-1643536D01*
X-18138387Y-1203790D01*
X-17922438Y-784641D01*
X-17849039Y-653911D01*
X-17775135Y-522252D01*
X-17721105Y-416573D01*
X-17683909Y-327258D01*
X-17660508Y-244688D01*
X-17647864Y-159248D01*
X-17642938Y-61319D01*
X-17642417Y0D01*
X-17644126Y103129D01*
X-17651152Y189826D01*
X-17666340Y268912D01*
X-17692539Y349207D01*
X-17732593Y439534D01*
X-17789351Y548713D01*
X-17860997Y677333D01*
X-18154017Y1235010D01*
X-18405437Y1799202D01*
X-18615656Y2371115D01*
X-18785072Y2951952D01*
X-18914084Y3542919D01*
X-18999831Y4116917D01*
X-19016114Y4294308D01*
X-19027998Y4503345D01*
X-19035486Y4734103D01*
X-19038580Y4976655D01*
X-19038032Y5079919D01*
X-17916710Y5079919D01*
X-17914934Y4867586D01*
X-17909857Y4660008D01*
X-17901544Y4466575D01*
X-17890062Y4296671D01*
X-17878194Y4180417D01*
X-17793468Y3646160D01*
X-17674365Y3127009D01*
X-17519364Y2618478D01*
X-17326946Y2116079D01*
X-17095590Y1615325D01*
X-16859882Y1174750D01*
X-16747345Y965812D01*
X-16661038Y778039D01*
X-16598182Y601765D01*
X-16555999Y427322D01*
X-16531711Y245042D01*
X-16522540Y45259D01*
X-16522274Y0D01*
X-16530331Y-223749D01*
X-16556482Y-426871D01*
X-16603701Y-619846D01*
X-16674961Y-813154D01*
X-16773235Y-1017276D01*
X-16850146Y-1155780D01*
X-17128692Y-1677623D01*
X-17366117Y-2209403D01*
X-17562523Y-2751416D01*
X-17718008Y-3303957D01*
X-17832675Y-3867320D01*
X-17878194Y-4180417D01*
X-17892252Y-4323711D01*
X-17903196Y-4498314D01*
X-17910959Y-4694838D01*
X-17915475Y-4903897D01*
X-17916679Y-5116103D01*
X-17914504Y-5322071D01*
X-17908885Y-5512413D01*
X-17899757Y-5677743D01*
X-17889486Y-5789083D01*
X-17805334Y-6353960D01*
X-17687243Y-6901378D01*
X-17533366Y-7437712D01*
X-17341856Y-7969337D01*
X-17110868Y-8502626D01*
X-17091632Y-8543434D01*
X-16991155Y-8745445D01*
X-16895693Y-8914882D01*
X-16799763Y-9060185D01*
X-16697886Y-9189794D01*
X-16607568Y-9288730D01*
X-16408758Y-9471731D01*
X-16197716Y-9621058D01*
X-15969346Y-9739077D01*
X-15718554Y-9828156D01*
X-15440245Y-9890664D01*
X-15256898Y-9916518D01*
X-15113965Y-9928571D01*
X-14937586Y-9936705D01*
X-14736450Y-9941059D01*
X-14519250Y-9941771D01*
X-14294677Y-9938981D01*
X-14071421Y-9932825D01*
X-13858174Y-9923444D01*
X-13663628Y-9910976D01*
X-13496473Y-9895558D01*
X-13430250Y-9887389D01*
X-12833873Y-9787531D01*
X-12231656Y-9649990D01*
X-11622649Y-9474403D01*
X-11005902Y-9260402D01*
X-10380465Y-9007622D01*
X-9745388Y-8715698D01*
X-9099721Y-8384264D01*
X-8442513Y-8012955D01*
X-8233833Y-7888210D01*
X-7651651Y-7523673D01*
X-7073886Y-7137377D01*
X-6497479Y-6726936D01*
X-5919373Y-6289968D01*
X-5336508Y-5824086D01*
X-4745826Y-5326908D01*
X-4144267Y-4796048D01*
X-3528773Y-4229122D01*
X-3474953Y-4178474D01*
X-3319822Y-4032250D01*
X-3513003Y-3862917D01*
X-3669707Y-3716154D01*
X-3835289Y-3544429D01*
X-3998518Y-3360030D01*
X-4148163Y-3175246D01*
X-4180464Y-3132667D01*
X-4233397Y-3064346D01*
X-4277542Y-3011922D01*
X-4306617Y-2982630D01*
X-4313884Y-2978991D01*
X-4335572Y-2992351D01*
X-4385327Y-3025685D01*
X-4456634Y-3074551D01*
X-4542980Y-3134504D01*
X-4582583Y-3162218D01*
X-5024973Y-3453906D01*
X-5462906Y-3705380D01*
X-5895734Y-3916350D01*
X-6322809Y-4086528D01*
X-6743483Y-4215623D01*
X-7122844Y-4297608D01*
X-7269985Y-4318101D01*
X-7435405Y-4333231D01*
X-7609205Y-4342792D01*
X-7781491Y-4346578D01*
X-7942363Y-4344384D01*
X-8081927Y-4336005D01*
X-8190284Y-4321233D01*
X-8196601Y-4319921D01*
X-8344012Y-4268071D01*
X-8469110Y-4182099D01*
X-8566882Y-4065628D01*
X-8580872Y-4042270D01*
X-8616327Y-3974054D01*
X-8636164Y-3915014D01*
X-8644642Y-3847221D01*
X-8646093Y-3767667D01*
X-8641768Y-3665477D01*
X-8627616Y-3589718D01*
X-8600754Y-3525058D01*
X-8600323Y-3524250D01*
X-8510826Y-3400386D01*
X-8391018Y-3301583D01*
X-8310456Y-3258543D01*
X-8263786Y-3239547D01*
X-8220013Y-3227440D01*
X-8169218Y-3221397D01*
X-8101483Y-3220595D01*
X-8006889Y-3224209D01*
X-7940040Y-3227768D01*
X-7668279Y-3231214D01*
X-7403715Y-3209271D01*
X-7130572Y-3160323D01*
X-7016750Y-3133168D01*
X-6718824Y-3042491D01*
X-6403118Y-2917797D01*
X-6073775Y-2761284D01*
X-5734940Y-2575149D01*
X-5390756Y-2361588D01*
X-5045367Y-2122800D01*
X-4882088Y-2001178D01*
X-4865573Y-1986034D01*
X-4858116Y-1966760D01*
X-4860940Y-1935391D01*
X-4875268Y-1883959D01*
X-4902323Y-1804494D01*
X-4919879Y-1754926D01*
X-5037667Y-1382559D01*
X-5123914Y-1012966D01*
X-5180353Y-635833D01*
X-5208717Y-240845D01*
X-5212981Y-10583D01*
X-5204565Y346758D01*
X-5176992Y677647D01*
X-5128303Y994314D01*
X-5056542Y1308988D01*
X-4959752Y1633899D01*
X-4940594Y1691247D01*
X-4907387Y1793743D01*
X-4881819Y1881586D01*
X-4865852Y1947275D01*
X-4861449Y1983308D01*
X-4863081Y1987580D01*
X-4886379Y2004299D01*
X-4936713Y2040917D01*
X-5007004Y2092268D01*
X-5090170Y2153188D01*
X-5102561Y2162277D01*
X-5328751Y2320372D01*
X-5573883Y2477777D01*
X-5827000Y2628113D01*
X-6077146Y2765001D01*
X-6313364Y2882062D01*
X-6424083Y2931704D01*
X-6541042Y2977887D01*
X-6685172Y3028649D01*
X-6842292Y3079504D01*
X-6998224Y3125964D01*
X-7138787Y3163540D01*
X-7205683Y3179069D01*
X-7293025Y3196128D01*
X-7378627Y3208647D01*
X-7471769Y3217327D01*
X-7581726Y3222867D01*
X-7717777Y3225969D01*
X-7842250Y3227115D01*
X-8004703Y3228861D01*
X-8131475Y3233158D01*
X-8229208Y3241648D01*
X-8304545Y3255976D01*
X-8364128Y3277782D01*
X-8414601Y3308710D01*
X-8462604Y3350403D01*
X-8501339Y3390104D01*
X-8575351Y3480629D01*
X-8620234Y3569763D01*
X-8641798Y3672654D01*
X-8646163Y3767667D01*
X-8644032Y3857552D01*
X-8634221Y3923181D01*
X-8612466Y3982494D01*
X-8580872Y4042270D01*
X-8488421Y4163731D01*
X-8367767Y4255324D01*
X-8223922Y4313428D01*
X-8196601Y4319913D01*
X-8090667Y4335209D01*
X-7952899Y4344133D01*
X-7793283Y4346885D01*
X-7621803Y4343664D01*
X-7448446Y4334669D01*
X-7283197Y4320100D01*
X-7136042Y4300156D01*
X-7126596Y4298550D01*
X-6709447Y4206686D01*
X-6287633Y4074278D01*
X-5860627Y3901090D01*
X-5427904Y3686888D01*
X-4988934Y3431434D01*
X-4575352Y3157144D01*
X-4483589Y3093938D01*
X-4404040Y3041329D01*
X-4343043Y3003339D01*
X-4306934Y2983988D01*
X-4300186Y2982562D01*
X-4282019Y3002386D01*
X-4245334Y3048004D01*
X-4196719Y3111129D01*
X-4173996Y3141312D01*
X-4045322Y3304390D01*
X-3900170Y3473239D01*
X-3748937Y3636505D01*
X-3602022Y3782835D01*
X-3507786Y3868704D01*
X-3319485Y4032250D01*
X-3474784Y4178475D01*
X-3896939Y4571507D01*
X-4298987Y4936329D01*
X-4686942Y5278048D01*
X-5066815Y5601770D01*
X-5444618Y5912600D01*
X-5826365Y6215646D01*
X-6218066Y6516012D01*
X-6297083Y6575429D01*
X-6961382Y7057249D01*
X-7621290Y7503666D01*
X-8275846Y7914222D01*
X-8924090Y8288461D01*
X-9565063Y8625929D01*
X-10197804Y8926168D01*
X-10821353Y9188723D01*
X-11434750Y9413138D01*
X-12037035Y9598957D01*
X-12627247Y9745725D01*
X-13197417Y9851908D01*
X-13423638Y9884822D01*
X-13627294Y9909750D01*
X-13821006Y9927624D01*
X-14017391Y9939374D01*
X-14229068Y9945931D01*
X-14468656Y9948227D01*
X-14503374Y9948261D01*
X-14819470Y9943120D01*
X-15099605Y9927022D01*
X-15348929Y9899103D01*
X-15572595Y9858502D01*
X-15775753Y9804355D01*
X-15963553Y9735801D01*
X-16076083Y9684932D01*
X-16241043Y9596733D01*
X-16389965Y9498784D01*
X-16525941Y9387159D01*
X-16652059Y9257933D01*
X-16771409Y9107179D01*
X-16887082Y8930972D01*
X-17002166Y8725386D01*
X-17119750Y8486493D01*
X-17242926Y8210369D01*
X-17250600Y8192444D01*
X-17468440Y7629844D01*
X-17645512Y7056953D01*
X-17782262Y6472088D01*
X-17879138Y5873566D01*
X-17889486Y5789083D01*
X-17901573Y5651592D01*
X-17910096Y5481309D01*
X-17915120Y5287623D01*
X-17916710Y5079919D01*
X-19038032Y5079919D01*
X-19037281Y5221076D01*
X-19031591Y5457442D01*
X-19021513Y5675826D01*
X-19007048Y5866304D01*
X-18999469Y5937250D01*
X-18904345Y6565976D01*
X-18769751Y7181615D01*
X-18595048Y7786335D01*
X-18379597Y8382302D01*
X-18122758Y8971685D01*
X-18073402Y9074529D01*
X-17944318Y9326555D01*
X-17817695Y9544834D01*
X-17688187Y9737227D01*
X-17550450Y9911594D01*
X-17399139Y10075796D01*
X-17378500Y10096500D01*
X-17162869Y10296242D01*
X-16948609Y10463352D01*
X-16725120Y10605804D01*
X-16636127Y10654833D01*
X-16438063Y10752283D01*
X-16239669Y10833715D01*
X-16034300Y10900711D01*
X-15815313Y10954850D01*
X-15576062Y10997714D01*
X-15447385Y11013750D01*
X-13460209Y11013750D01*
X-13254730Y10987332D01*
X-12668522Y10893299D01*
X-12068271Y10760437D01*
X-11455284Y10589368D01*
X-10830868Y10380713D01*
X-10196330Y10135096D01*
X-9552977Y9853139D01*
X-8902114Y9535465D01*
X-8245050Y9182696D01*
X-7583090Y8795455D01*
X-6917542Y8374365D01*
X-6249711Y7920048D01*
X-5580906Y7433126D01*
X-5228167Y7163354D01*
X-5093069Y7057540D01*
X-4947857Y6942463D01*
X-4798088Y6822641D01*
X-4649323Y6702597D01*
X-4507118Y6586849D01*
X-4377033Y6479920D01*
X-4264625Y6386329D01*
X-4175453Y6310596D01*
X-4123632Y6265049D01*
X-4071652Y6220285D01*
X-4031648Y6189919D01*
X-4015701Y6181535D01*
X-4021687Y6196584D01*
X-4049942Y6238313D01*
X-4096033Y6300555D01*
X-4155528Y6377140D01*
X-4163390Y6387042D01*
X-4574443Y6893452D01*
X-4976826Y7368175D01*
X-5377369Y7818921D01*
X-5782900Y8253398D01*
X-6148292Y8627372D01*
X-6406605Y8883494D01*
X-6644548Y9113098D01*
X-6868789Y9322239D01*
X-7085994Y9516974D01*
X-7302831Y9703359D01*
X-7525967Y9887451D01*
X-7608804Y9954075D01*
X-8080638Y10314385D01*
X-8546253Y10636232D01*
X-9005067Y10919380D01*
X-9456493Y11163590D01*
X-9899949Y11368626D01*
X-10334850Y11534248D01*
X-10760613Y11660219D01*
X-11176653Y11746301D01*
X-11582386Y11792257D01*
X-11977228Y11797849D01*
X-12117395Y11789873D01*
X-12324293Y11770310D01*
X-12496903Y11744606D01*
X-12643109Y11710333D01*
X-12770793Y11665067D01*
X-12887838Y11606381D01*
X-13002127Y11531848D01*
X-13035341Y11507330D01*
X-13113415Y11440284D01*
X-13202184Y11351541D01*
X-13290770Y11253183D01*
X-13368296Y11157291D01*
X-13423881Y11075945D01*
X-13424063Y11075635D01*
X-13460209Y11013750D01*
X-15447385Y11013750D01*
X-15309904Y11030883D01*
X-15010193Y11055938D01*
X-14927796Y11061206D01*
X-14689675Y11075613D01*
X-14590030Y11279265D01*
X-14435631Y11558911D01*
X-14255340Y11822704D01*
X-14053883Y12065570D01*
X-13835986Y12282431D01*
X-13606375Y12468213D01*
X-13369776Y12617838D01*
X-13318852Y12644592D01*
X-13166886Y12710949D01*
X-12986410Y12772435D01*
X-12791241Y12824837D01*
X-12604750Y12862375D01*
X-12471480Y12879065D01*
X-12305831Y12891387D01*
X-12117534Y12899336D01*
X-11916317Y12902908D01*
X-11711911Y12902096D01*
X-11514045Y12896897D01*
X-11332448Y12887306D01*
X-11176851Y12873317D01*
X-11101917Y12863118D01*
X-10628042Y12769708D01*
X-10157122Y12641686D01*
X-9686680Y12478016D01*
X-9214242Y12277657D01*
X-8737332Y12039572D01*
X-8253475Y11762723D01*
X-7821083Y11486950D01*
X-7326206Y11138609D01*
X-6824762Y10750025D01*
X-6318038Y10322557D01*
X-5807317Y9857562D01*
X-5293884Y9356398D01*
X-4779021Y8820421D01*
X-4264015Y8250990D01*
X-3750148Y7649462D01*
X-3238704Y7017193D01*
X-2730969Y6355543D01*
X-2228225Y5665868D01*
X-1980436Y5312833D01*
X-1908077Y5208192D01*
X-1843665Y5114563D01*
X-1791251Y5037875D01*
X-1754888Y4984058D01*
X-1738627Y4959039D01*
X-1738606Y4959001D01*
X-1719958Y4948892D01*
X-1678333Y4952524D01*
X-1607237Y4970856D01*
X-1559791Y4985459D01*
X-1389835Y5026215D01*
X-1240966Y5032379D01*
X-1108771Y5003154D01*
X-988839Y4937741D01*
X-907212Y4867395D01*
X-813891Y4746677D01*
X-759246Y4613027D01*
X-743698Y4471640D01*
X-767670Y4327715D01*
X-831581Y4186448D01*
X-849700Y4158221D01*
X-897534Y4098538D01*
X-957556Y4047114D01*
X-1036849Y3999810D01*
X-1142494Y3952487D01*
X-1281574Y3901006D01*
X-1301750Y3894043D01*
X-1690402Y3739031D01*
X-2056507Y3549384D01*
X-2398354Y3327239D01*
X-2714231Y3074734D01*
X-3002429Y2794006D01*
X-3261236Y2487191D01*
X-3488940Y2156428D01*
X-3683830Y1803854D01*
X-3844196Y1431606D01*
X-3968326Y1041821D01*
X-4054509Y636636D01*
X-4083944Y418876D01*
X-4106751Y16836D01*
X-4088519Y-384003D01*
X-4030491Y-780420D01*
X-3933914Y-1169197D01*
X-3800031Y-1547115D01*
X-3630090Y-1910955D01*
X-3425334Y-2257498D01*
X-3187010Y-2583526D01*
X-2916361Y-2885818D01*
X-2741083Y-3052575D01*
X-2418467Y-3313806D01*
X-2075341Y-3539199D01*
X-1714522Y-3728013D01*
X-1338829Y-3879505D01*
X-951080Y-3992932D01*
X-554091Y-4067552D01*
X-150682Y-4102623D01*
X256331Y-4097402D01*
X664128Y-4051148D01*
X762024Y-4032250D01*
X3319230Y-4032250D01*
X3516990Y-4218277D01*
X4253446Y-4893326D01*
X4983159Y-5526598D01*
X5706149Y-6118109D01*
X6422437Y-6667870D01*
X7132043Y-7175895D01*
X7834988Y-7642198D01*
X8531293Y-8066792D01*
X9220978Y-8449691D01*
X9904064Y-8790908D01*
X10580571Y-9090456D01*
X11250520Y-9348349D01*
X11512075Y-9438321D01*
X12041926Y-9598741D01*
X12575333Y-9729667D01*
X13107209Y-9830389D01*
X13632466Y-9900195D01*
X14146020Y-9938377D01*
X14642783Y-9944224D01*
X15008227Y-9926431D01*
X15261164Y-9902363D01*
X15479513Y-9870760D01*
X15670662Y-9829585D01*
X15841997Y-9776805D01*
X16000907Y-9710384D01*
X16154777Y-9628286D01*
X16208277Y-9595803D01*
X16369964Y-9481167D01*
X16531627Y-9342087D01*
X16679622Y-9191280D01*
X16795123Y-9048750D01*
X16873238Y-8928043D01*
X16960108Y-8773195D01*
X17052786Y-8590749D01*
X17148324Y-8387247D01*
X17243774Y-8169231D01*
X17336189Y-7943244D01*
X17422621Y-7715830D01*
X17500122Y-7493529D01*
X17511670Y-7458339D01*
X17649865Y-6995068D01*
X17756702Y-6548682D01*
X17833763Y-6109479D01*
X17882631Y-5667759D01*
X17904890Y-5213819D01*
X17906701Y-5037667D01*
X17904121Y-4776741D01*
X17895491Y-4544575D01*
X17879773Y-4327891D01*
X17855928Y-4113413D01*
X17822918Y-3887865D01*
X17811261Y-3817175D01*
X17710471Y-3326541D01*
X17574198Y-2833497D01*
X17405745Y-2347480D01*
X17208411Y-1877931D01*
X16985498Y-1434287D01*
X16964758Y-1396785D01*
X16863763Y-1213251D01*
X16782145Y-1059138D01*
X16716848Y-927968D01*
X16664817Y-813263D01*
X16622995Y-708542D01*
X16588327Y-607327D01*
X16580502Y-582083D01*
X16559783Y-511331D01*
X16544681Y-449823D01*
X16534315Y-388704D01*
X16527802Y-319116D01*
X16524261Y-232207D01*
X16522812Y-119119D01*
X16522566Y0D01*
X16522952Y141262D01*
X16524698Y249044D01*
X16528688Y332197D01*
X16535804Y399571D01*
X16546928Y460018D01*
X16562944Y522387D01*
X16580624Y582083D01*
X16610700Y675020D01*
X16644208Y765295D01*
X16684300Y859610D01*
X16734126Y964669D01*
X16796839Y1087176D01*
X16875590Y1233832D01*
X16953793Y1375822D01*
X17205566Y1872168D01*
X17421480Y2387790D01*
X17600169Y2918260D01*
X17740267Y3459152D01*
X17840408Y4006038D01*
X17886835Y4399204D01*
X17895965Y4539654D01*
X17901405Y4711326D01*
X17903344Y4904769D01*
X17901970Y5110535D01*
X17897472Y5319173D01*
X17890037Y5521233D01*
X17879854Y5707265D01*
X17867111Y5867820D01*
X17855556Y5969000D01*
X17767662Y6486075D01*
X17646903Y7004020D01*
X17496300Y7511825D01*
X17318877Y7998478D01*
X17257673Y8146208D01*
X17194142Y8289846D01*
X17122791Y8442622D01*
X17047817Y8596249D01*
X16973420Y8742445D01*
X16903797Y8872925D01*
X16843146Y8979404D01*
X16803650Y9042118D01*
X16630379Y9260109D01*
X16427057Y9449049D01*
X16195614Y9607619D01*
X15937983Y9734503D01*
X15656097Y9828381D01*
X15648027Y9830482D01*
X15417895Y9878584D01*
X15153921Y9913702D01*
X14862593Y9935715D01*
X14550399Y9944501D01*
X14223830Y9939939D01*
X13889373Y9921908D01*
X13553518Y9890287D01*
X13409083Y9872320D01*
X13293782Y9856933D01*
X13174650Y9841133D01*
X13069468Y9827272D01*
X13022212Y9821095D01*
X12859248Y9795027D01*
X12664795Y9755822D01*
X12446863Y9705576D01*
X12213460Y9646385D01*
X11972595Y9580344D01*
X11732279Y9509548D01*
X11500519Y9436093D01*
X11334034Y9379426D01*
X10648738Y9118114D01*
X9958445Y8815210D01*
X9263096Y8470678D01*
X8562631Y8084477D01*
X7856993Y7656570D01*
X7146121Y7186919D01*
X6429956Y6675484D01*
X5708440Y6122227D01*
X4981514Y5527109D01*
X4249119Y4890093D01*
X3719065Y4406118D01*
X3594231Y4289181D01*
X3498184Y4197352D01*
X3428086Y4127597D01*
X3381101Y4076883D01*
X3354389Y4042174D01*
X3345114Y4020438D01*
X3348648Y4010053D01*
X3375647Y3985516D01*
X3425991Y3940352D01*
X3491350Y3882021D01*
X3534833Y3843338D01*
X3673705Y3711990D01*
X3823177Y3556914D01*
X3971912Y3390584D01*
X4108569Y3225477D01*
X4175222Y3138705D01*
X4304438Y2964826D01*
X4407554Y3038908D01*
X4822033Y3323502D01*
X5221987Y3570819D01*
X5610275Y3782183D01*
X5989754Y3958917D01*
X6363280Y4102345D01*
X6733712Y4213789D01*
X7103905Y4294575D01*
X7126596Y4298550D01*
X7272096Y4318866D01*
X7436395Y4333821D01*
X7609507Y4343216D01*
X7781447Y4346851D01*
X7942229Y4344528D01*
X8081867Y4336046D01*
X8190376Y4321206D01*
X8196600Y4319913D01*
X8344007Y4268073D01*
X8469103Y4182107D01*
X8566876Y4065637D01*
X8580871Y4042270D01*
X8616341Y3974010D01*
X8636191Y3914893D01*
X8644687Y3846979D01*
X8646163Y3767667D01*
X8638241Y3644586D01*
X8611346Y3546591D01*
X8559667Y3458535D01*
X8501338Y3390104D01*
X8450788Y3339175D01*
X8402796Y3300254D01*
X8350717Y3271697D01*
X8287911Y3251862D01*
X8207734Y3239107D01*
X8103544Y3231788D01*
X7968699Y3228264D01*
X7842250Y3227115D01*
X7636784Y3223522D01*
X7461838Y3213994D01*
X7305792Y3196656D01*
X7157028Y3169629D01*
X7003925Y3131037D01*
X6834865Y3079001D01*
X6750599Y3050738D01*
X6469205Y2945681D01*
X6195110Y2824266D01*
X5916316Y2680806D01*
X5664156Y2535767D01*
X5579217Y2483058D01*
X5478670Y2417877D01*
X5368893Y2344663D01*
X5256264Y2267857D01*
X5147160Y2191900D01*
X5047958Y2121231D01*
X4965037Y2060292D01*
X4904774Y2013523D01*
X4873547Y1985365D01*
X4873401Y1985190D01*
X4864559Y1962451D01*
X4867488Y1923726D01*
X4883671Y1861803D01*
X4914593Y1769473D01*
X4922235Y1747961D01*
X5054172Y1316814D01*
X5147427Y872745D01*
X5202001Y420026D01*
X5217898Y-37075D01*
X5195119Y-494288D01*
X5133667Y-947342D01*
X5033545Y-1391968D01*
X4920080Y-1754361D01*
X4889504Y-1842694D01*
X4866074Y-1914956D01*
X4852408Y-1962763D01*
X4850338Y-1977852D01*
X4869295Y-1991966D01*
X4916088Y-2026094D01*
X4984205Y-2075505D01*
X5067132Y-2135467D01*
X5090583Y-2152395D01*
X5495049Y-2428280D01*
X5887976Y-2663828D01*
X6269870Y-2859285D01*
X6641238Y-3014898D01*
X7002585Y-3130911D01*
X7196667Y-3177808D01*
X7285634Y-3195263D01*
X7370553Y-3208049D01*
X7460868Y-3216883D01*
X7566022Y-3222481D01*
X7695459Y-3225559D01*
X7842250Y-3226773D01*
X7999945Y-3227971D01*
X8122133Y-3231188D01*
X8215636Y-3237982D01*
X8287278Y-3249908D01*
X8343880Y-3268519D01*
X8392267Y-3295374D01*
X8439262Y-3332025D01*
X8484396Y-3373161D01*
X8567709Y-3467600D01*
X8618760Y-3568852D01*
X8642454Y-3688920D01*
X8645602Y-3767667D01*
X8634471Y-3905141D01*
X8597614Y-4018519D01*
X8529840Y-4120723D01*
X8483597Y-4170813D01*
X8413256Y-4230229D01*
X8332614Y-4274371D01*
X8233128Y-4306196D01*
X8106251Y-4328661D01*
X7992485Y-4340756D01*
X7721601Y-4350230D01*
X7427686Y-4335013D01*
X7121192Y-4296321D01*
X6812572Y-4235369D01*
X6594616Y-4178295D01*
X6268714Y-4069549D01*
X5925710Y-3928862D01*
X5572035Y-3759480D01*
X5214120Y-3564653D01*
X4858396Y-3347628D01*
X4582583Y-3162218D01*
X4491824Y-3098901D01*
X4413338Y-3044787D01*
X4353639Y-3004318D01*
X4319243Y-2981937D01*
X4313884Y-2978991D01*
X4295710Y-2992591D01*
X4259052Y-3033288D01*
X4210190Y-3093842D01*
X4180628Y-3132667D01*
X4062072Y-3283310D01*
X3926243Y-3442490D01*
X3782939Y-3599514D01*
X3641957Y-3743688D01*
X3513095Y-3864316D01*
X3499202Y-3876449D01*
X3319230Y-4032250D01*
X762024Y-4032250D01*
X886527Y-4008216D01*
X1280881Y-3899866D01*
X1657002Y-3755050D01*
X2013115Y-3576056D01*
X2347447Y-3365174D01*
X2658224Y-3124692D01*
X2943670Y-2856900D01*
X3202014Y-2564087D01*
X3431479Y-2248542D01*
X3630293Y-1912555D01*
X3796681Y-1558415D01*
X3928869Y-1188410D01*
X4025084Y-804830D01*
X4083550Y-409964D01*
X4102494Y-6102D01*
X4099434Y137583D01*
X4069380Y521707D01*
X4008865Y883205D01*
X3915592Y1231060D01*
X3787264Y1574253D01*
X3664388Y1838458D01*
X3458128Y2202692D01*
X3219411Y2540455D01*
X2949968Y2850242D01*
X2651531Y3130544D01*
X2325832Y3379856D01*
X1974605Y3596669D01*
X1599581Y3779477D01*
X1301750Y3894043D01*
X1157973Y3946338D01*
X1048519Y3993955D01*
X966306Y4041035D01*
X904253Y4091715D01*
X855278Y4150133D01*
X849700Y4158221D01*
X777528Y4298298D01*
X745384Y4442101D01*
X752845Y4584433D01*
X799490Y4720098D01*
X884898Y4843897D01*
X907212Y4867395D01*
X1021021Y4959489D01*
X1143901Y5014819D01*
X1280265Y5034181D01*
X1434522Y5018374D01*
X1559790Y4985459D01*
X1647623Y4959596D01*
X1702824Y4948891D01*
X1731905Y4952381D01*
X1738616Y4959022D01*
X1761390Y4995075D01*
X1805235Y5060370D01*
X1866533Y5149757D01*
X1941667Y5258088D01*
X2027022Y5380214D01*
X2118979Y5510986D01*
X2213922Y5645256D01*
X2308234Y5777875D01*
X2398299Y5903694D01*
X2480500Y6017565D01*
X2527749Y6082393D01*
X2594068Y6170639D01*
X4000500Y6170639D01*
X4015662Y6179628D01*
X4057661Y6212026D01*
X4121263Y6263605D01*
X4201236Y6330139D01*
X4270375Y6388642D01*
X4378582Y6479848D01*
X4508157Y6587523D01*
X4647244Y6701906D01*
X4783985Y6813233D01*
X4878917Y6889690D01*
X5585994Y7438225D01*
X6291099Y7950259D01*
X6993333Y8425305D01*
X7691798Y8862875D01*
X8385594Y9262484D01*
X9073824Y9623643D01*
X9755587Y9945866D01*
X10429987Y10228666D01*
X11096124Y10471556D01*
X11753100Y10674049D01*
X11969750Y10732446D01*
X12101126Y10765122D01*
X12254338Y10800863D01*
X12421405Y10838026D01*
X12594346Y10874970D01*
X12765182Y10910051D01*
X12925930Y10941628D01*
X13068611Y10968058D01*
X13185245Y10987699D01*
X13260917Y10998165D01*
X13333327Y11007952D01*
X13390177Y11018731D01*
X13414223Y11026126D01*
X13414616Y11047720D01*
X13390288Y11093201D01*
X13346258Y11156332D01*
X13287547Y11230874D01*
X13219174Y11310589D01*
X13146159Y11389238D01*
X13073521Y11460582D01*
X13041540Y11489296D01*
X12934145Y11573036D01*
X12821786Y11639920D01*
X12697441Y11692232D01*
X12554086Y11732258D01*
X12384699Y11762285D01*
X12182254Y11784598D01*
X12118171Y11789814D01*
X11729812Y11798789D01*
X11329920Y11767551D01*
X10919218Y11696408D01*
X10498426Y11585668D01*
X10068264Y11435641D01*
X9629453Y11246633D01*
X9182714Y11018954D01*
X8728768Y10752911D01*
X8268335Y10448814D01*
X7802137Y10106970D01*
X7366000Y9757095D01*
X6891572Y9344365D01*
X6409427Y8892328D01*
X5921411Y8402914D01*
X5429370Y7878057D01*
X4935148Y7319686D01*
X4440591Y6729734D01*
X4258344Y6504401D01*
X4178810Y6404541D01*
X4109232Y6316066D01*
X4053655Y6244212D01*
X4016121Y6194212D01*
X4000677Y6171303D01*
X4000500Y6170639D01*
X2594068Y6170639D01*
X3035042Y6757402D01*
X3546151Y7402664D01*
X4059949Y8017077D01*
X4575310Y8599541D01*
X5091108Y9148956D01*
X5606218Y9664220D01*
X6119514Y10144234D01*
X6629870Y10587897D01*
X7136160Y10994108D01*
X7637258Y11361767D01*
X8132039Y11689773D01*
X8474638Y11895548D01*
X8638694Y11986178D01*
X8826271Y12083803D01*
X9027298Y12183628D01*
X9231701Y12280855D01*
X9429407Y12370688D01*
X9610343Y12448331D01*
X9757833Y12506547D01*
X10121469Y12632825D01*
X10463384Y12732685D01*
X10793247Y12808113D01*
X11120723Y12861099D01*
X11455479Y12893632D01*
X11695825Y12905195D01*
X12069644Y12905853D01*
X12412082Y12884542D01*
X12412082Y12884542D01*
G37*
X12412082Y12884542D02*
X12721909Y12841449D01*
X12997897Y12776761D01*
X13238816Y12690664D01*
X13303250Y12661086D01*
X13566371Y12510519D01*
X13815459Y12322303D01*
X14047453Y12099679D01*
X14259291Y11845884D01*
X14447913Y11564158D01*
X14590875Y11298593D01*
X14700250Y11071935D01*
X14859000Y11070979D01*
X15034852Y11065004D01*
X15234766Y11050108D01*
X15441822Y11027974D01*
X15639098Y11000285D01*
X15733765Y10983959D01*
X16084546Y10897587D01*
X16420406Y10772965D01*
X16738338Y10612164D01*
X17035332Y10417255D01*
X17308379Y10190310D01*
X17554469Y9933399D01*
X17770593Y9648595D01*
X17846567Y9529655D01*
X17909441Y9419668D01*
X17983636Y9279494D01*
X18064762Y9118256D01*
X18148432Y8945076D01*
X18230256Y8769078D01*
X18305845Y8599384D01*
X18370811Y8445119D01*
X18383403Y8413750D01*
X18599711Y7814145D01*
X18775648Y7205408D01*
X18912098Y6584110D01*
X19000516Y6021917D01*
X19012643Y5900652D01*
X19022673Y5745666D01*
X19030560Y5564624D01*
X19036258Y5365190D01*
X19039721Y5155029D01*
X19040902Y4941806D01*
X19039756Y4733184D01*
X19036237Y4536830D01*
X19030298Y4360408D01*
X19021893Y4211582D01*
X19012032Y4106333D01*
X18929918Y3561826D01*
X18819268Y3036218D01*
X18678112Y2523584D01*
X18504481Y2017994D01*
X18296408Y1513519D01*
X18051924Y1004233D01*
X17867028Y657833D01*
X17787465Y510108D01*
X17728627Y389218D01*
X17687686Y286824D01*
X17661816Y194586D01*
X17648186Y104165D01*
X17643970Y7219D01*
X17643954Y0D01*
X17647619Y-97712D01*
X17660501Y-188318D01*
X17685426Y-280158D01*
X17725224Y-381574D01*
X17782722Y-500903D01*
X17860748Y-646486D01*
X17867028Y-657833D01*
X18136974Y-1173650D01*
X18369192Y-1680688D01*
X18565650Y-2184875D01*
X18728318Y-2692140D01*
X18859162Y-3208411D01*
X18960152Y-3739616D01*
X19012032Y-4106333D01*
X19021326Y-4209994D01*
X19028710Y-4353180D01*
X19034104Y-4533123D01*
X19037428Y-4747056D01*
X19038605Y-4992209D01*
X19038585Y-5037667D01*
X19038002Y-5243339D01*
X19036570Y-5413628D01*
X19033976Y-5555481D01*
X19029903Y-5675843D01*
X19024036Y-5781661D01*
X19016060Y-5879883D01*
X19005660Y-5977454D01*
X18992520Y-6081321D01*
X18990547Y-6096000D01*
X18898760Y-6657375D01*
X18776241Y-7204697D01*
X18620483Y-7747522D01*
X18428975Y-8295407D01*
X18379139Y-8424333D01*
X18326479Y-8551586D01*
X18261124Y-8699161D01*
X18186893Y-8859321D01*
X18107608Y-9024331D01*
X18027091Y-9186453D01*
X17949160Y-9337951D01*
X17877638Y-9471088D01*
X17816346Y-9578129D01*
X17783278Y-9630833D01*
X17566234Y-9919614D01*
X17319255Y-10179828D01*
X17045364Y-10409481D01*
X16747582Y-10606577D01*
X16428930Y-10769123D01*
X16092429Y-10895123D01*
X15741100Y-10982583D01*
X15733765Y-10983959D01*
X15548511Y-11013906D01*
X15344523Y-11039189D01*
X15138722Y-11058125D01*
X14948028Y-11069031D01*
X14859000Y-11070978D01*
X14700250Y-11071935D01*
X14590875Y-11298592D01*
X14424931Y-11602058D01*
X14233097Y-11880400D01*
X14018432Y-12130384D01*
X13783992Y-12348773D01*
X13532837Y-12532332D01*
X13303250Y-12661112D01*
X13093659Y-12745551D01*
X12850793Y-12813072D01*
X12580321Y-12863351D01*
X12287912Y-12896066D01*
X11979236Y-12910894D01*
X11659962Y-12907512D01*
X11335760Y-12885596D01*
X11012299Y-12844824D01*
X10787351Y-12804485D01*
X10305402Y-12686506D01*
X9817250Y-12526897D01*
X9323168Y-12325860D01*
X8823431Y-12083600D01*
X8318312Y-11800320D01*
X7808086Y-11476226D01*
X7293026Y-11111519D01*
X6773406Y-10706405D01*
X6249500Y-10261087D01*
X5721581Y-9775769D01*
X5189924Y-9250656D01*
X4654803Y-8685950D01*
X4116490Y-8081855D01*
X3575261Y-7438577D01*
X3567536Y-7429137D01*
X3372433Y-7186991D01*
X3164228Y-6921993D01*
X2948486Y-6641605D01*
X2730773Y-6353287D01*
X2594773Y-6169860D01*
X4000500Y-6169860D01*
X4013344Y-6190221D01*
X4049416Y-6238647D01*
X4105030Y-6310530D01*
X4176496Y-6401260D01*
X4260126Y-6506230D01*
X4352233Y-6620830D01*
X4449128Y-6740452D01*
X4547123Y-6860488D01*
X4642529Y-6976328D01*
X4729050Y-7080250D01*
X5006910Y-7405069D01*
X5301117Y-7736531D01*
X5604878Y-8067454D01*
X5911400Y-8390656D01*
X6213888Y-8698956D01*
X6505549Y-8985171D01*
X6737835Y-9203848D01*
X7233166Y-9643430D01*
X7719637Y-10041838D01*
X8197548Y-10399230D01*
X8667197Y-10715762D01*
X9128882Y-10991592D01*
X9582903Y-11226878D01*
X10029557Y-11421776D01*
X10469143Y-11576443D01*
X10901961Y-11691038D01*
X11328308Y-11765716D01*
X11662833Y-11796710D01*
X11736451Y-11800987D01*
X11797914Y-11804893D01*
X11821583Y-11806604D01*
X11858547Y-11806351D01*
X11927744Y-11803112D01*
X12019224Y-11797440D01*
X12121405Y-11790011D01*
X12329071Y-11769943D01*
X12501994Y-11743521D01*
X12647583Y-11708327D01*
X12773243Y-11661946D01*
X12886383Y-11601962D01*
X12994410Y-11525958D01*
X13036774Y-11491437D01*
X13107517Y-11427072D01*
X13181242Y-11352015D01*
X13252906Y-11272488D01*
X13317463Y-11194713D01*
X13369870Y-11124911D01*
X13405084Y-11069303D01*
X13418059Y-11034110D01*
X13414223Y-11025879D01*
X13380056Y-11015997D01*
X13318634Y-11004860D01*
X13260917Y-10997048D01*
X13182381Y-10985723D01*
X13070721Y-10966633D01*
X12934092Y-10941419D01*
X12780644Y-10911718D01*
X12618531Y-10879170D01*
X12455906Y-10845415D01*
X12300920Y-10812091D01*
X12161727Y-10780837D01*
X12046479Y-10753294D01*
X12038161Y-10751204D01*
X11392004Y-10569062D01*
X10735886Y-10346368D01*
X10070556Y-10083529D01*
X9396760Y-9780951D01*
X8715247Y-9439039D01*
X8026763Y-9058200D01*
X7332056Y-8638838D01*
X6631874Y-8181360D01*
X5926965Y-7686172D01*
X5218075Y-7153679D01*
X4794250Y-6818946D01*
X4669415Y-6718006D01*
X4541189Y-6613352D01*
X4418209Y-6512102D01*
X4309109Y-6421373D01*
X4222525Y-6348282D01*
X4206875Y-6334862D01*
X4129974Y-6269567D01*
X4066080Y-6217068D01*
X4021120Y-6182101D01*
X4001020Y-6169406D01*
X4000500Y-6169860D01*
X2594773Y-6169860D01*
X2516656Y-6064503D01*
X2311699Y-5782712D01*
X2121469Y-5515378D01*
X1951531Y-5269961D01*
X1898720Y-5191878D01*
X1822117Y-5080760D01*
X1764422Y-5004054D01*
X1723638Y-4959361D01*
X1697769Y-4944280D01*
X1693333Y-4944879D01*
X1661696Y-4954653D01*
X1598080Y-4973063D01*
X1511342Y-4997584D01*
X1410339Y-5025691D01*
X1397000Y-5029373D01*
X934106Y-5136169D01*
X472817Y-5200700D01*
X12342Y-5222966D01*
X-448113Y-5202967D01*
X-909338Y-5140702D01*
X-1372126Y-5036172D01*
X-1397000Y-5029373D01*
X-1499186Y-5000924D01*
X-1588222Y-4975628D01*
X-1655251Y-4956038D01*
X-1691412Y-4944705D01*
X-1693333Y-4943992D01*
X-1724173Y-4951886D01*
X-1765235Y-4997412D01*
X-1788567Y-5032241D01*
X-1831363Y-5097420D01*
X-1895370Y-5191313D01*
X-1976742Y-5308511D01*
X-2071633Y-5443605D01*
X-2176201Y-5591186D01*
X-2286599Y-5745845D01*
X-2398982Y-5902173D01*
X-2509507Y-6054760D01*
X-2614328Y-6198199D01*
X-2695162Y-6307667D01*
X-3183289Y-6947853D01*
X-3678178Y-7563650D01*
X-4177837Y-8152965D01*
X-4680274Y-8713703D01*
X-5183496Y-9243770D01*
X-5685511Y-9741073D01*
X-6184327Y-10203518D01*
X-6677952Y-10629011D01*
X-7164394Y-11015458D01*
X-7199965Y-11042381D01*
X-7562104Y-11307554D01*
X-7909082Y-11544494D01*
X-8250586Y-11759241D01*
X-8596304Y-11957834D01*
X-8955923Y-12146315D01*
X-9027583Y-12181957D01*
X-9480574Y-12391042D01*
X-9918458Y-12563267D01*
X-10345107Y-12699614D01*
X-10764392Y-12801062D01*
X-11180187Y-12868593D01*
X-11596364Y-12903187D01*
X-11895537Y-12908279D01*
X-12018900Y-12906670D01*
X-12132722Y-12904428D01*
X-12227914Y-12901786D01*
X-12295388Y-12898982D01*
X-12319000Y-12897298D01*
X-12602123Y-12859070D01*
X-12862809Y-12805315D01*
X-13095180Y-12737520D01*
X-13293360Y-12657168D01*
X-13318852Y-12644592D01*
X-13550679Y-12506777D01*
X-13778165Y-12332244D01*
X-13996100Y-12126599D01*
X-14199272Y-11895448D01*
X-14382471Y-11644397D01*
X-14540487Y-11379053D01*
X-14594645Y-11271900D01*
X-14688827Y-11075667D01*
X-14927372Y-11061233D01*
X-15236608Y-11038003D01*
X-15468675Y-11011812D01*
X-13461354Y-11011812D01*
X-13424635Y-11074303D01*
X-13329595Y-11210184D01*
X-13207157Y-11346682D01*
X-13068291Y-11473717D01*
X-12923965Y-11581207D01*
X-12791615Y-11656117D01*
X-12634423Y-11713014D01*
X-12442890Y-11755663D01*
X-12222670Y-11783690D01*
X-11979417Y-11796723D01*
X-11718784Y-11794388D01*
X-11446426Y-11776313D01*
X-11270014Y-11756500D01*
X-10873326Y-11685754D01*
X-10464282Y-11575659D01*
X-10044280Y-11426904D01*
X-9614717Y-11240177D01*
X-9176989Y-11016167D01*
X-8732493Y-10755564D01*
X-8282627Y-10459054D01*
X-7828787Y-10127327D01*
X-7598833Y-9946883D01*
X-7179778Y-9596897D01*
X-6749441Y-9211139D01*
X-6311636Y-8793388D01*
X-5870177Y-8347424D01*
X-5428876Y-7877026D01*
X-4991547Y-7385973D01*
X-4855903Y-7228417D01*
X-4768658Y-7125369D01*
X-4673192Y-7011091D01*
X-4572945Y-6889851D01*
X-4471357Y-6765921D01*
X-4371866Y-6643568D01*
X-4277913Y-6527065D01*
X-4192937Y-6420680D01*
X-4120377Y-6328683D01*
X-4063673Y-6255344D01*
X-4026264Y-6204933D01*
X-4011591Y-6181720D01*
X-4011905Y-6180667D01*
X-4031521Y-6193671D01*
X-4077551Y-6229599D01*
X-4144265Y-6283820D01*
X-4225938Y-6351705D01*
X-4282391Y-6399317D01*
X-4876440Y-6888625D01*
X-5482604Y-7359886D01*
X-6096985Y-7810558D01*
X-6715684Y-8238102D01*
X-7334802Y-8639974D01*
X-7950442Y-9013635D01*
X-8558703Y-9356543D01*
X-9155688Y-9666156D01*
X-9662583Y-9906334D01*
X-10210460Y-10141614D01*
X-10757993Y-10352622D01*
X-11300571Y-10537972D01*
X-11833582Y-10696277D01*
X-12352414Y-10826153D01*
X-12852457Y-10926211D01*
X-13255302Y-10986291D01*
X-13461354Y-11011812D01*
X-15468675Y-11011812D01*
X-15510595Y-11007081D01*
X-15755975Y-10966888D01*
X-15979391Y-10915844D01*
X-16187482Y-10852371D01*
X-16386892Y-10774887D01*
X-16584261Y-10681815D01*
X-16636127Y-10654833D01*
X-16903061Y-10493031D01*
X-17160998Y-10297325D01*
X-17401131Y-10075665D01*
X-17614647Y-9836000D01*
X-17754149Y-9646029D01*
X-17884149Y-9434992D01*
X-18017228Y-9188743D01*
X-18150641Y-8913999D01*
X-18281639Y-8617477D01*
X-18407476Y-8305895D01*
X-18525404Y-7985972D01*
X-18632676Y-7664424D01*
X-18726544Y-7347969D01*
X-18784212Y-7127353D01*
X-18866355Y-6769903D01*
X-18930462Y-6436687D01*
X-18978052Y-6115077D01*
X-19010645Y-5792445D01*
X-19029763Y-5456166D01*
X-19036924Y-5093612D01*
X-19037061Y-5027083D01*
X-19031086Y-4642970D01*
X-19012473Y-4288404D01*
X-18979889Y-3952134D01*
X-18931997Y-3622910D01*
X-18867463Y-3289481D01*
X-18793399Y-2973917D01*
X-18670117Y-2539843D01*
X-18516803Y-2092635D01*
X-18338034Y-1643536D01*
X-18138387Y-1203790D01*
X-17922438Y-784641D01*
X-17849039Y-653911D01*
X-17775135Y-522252D01*
X-17721105Y-416573D01*
X-17683909Y-327258D01*
X-17660508Y-244688D01*
X-17647864Y-159248D01*
X-17642938Y-61319D01*
X-17642417Y0D01*
X-17644126Y103129D01*
X-17651152Y189826D01*
X-17666340Y268912D01*
X-17692539Y349207D01*
X-17732593Y439534D01*
X-17789351Y548713D01*
X-17860997Y677333D01*
X-18154017Y1235010D01*
X-18405437Y1799202D01*
X-18615656Y2371115D01*
X-18785072Y2951952D01*
X-18914084Y3542919D01*
X-18999831Y4116917D01*
X-19016114Y4294308D01*
X-19027998Y4503345D01*
X-19035486Y4734103D01*
X-19038580Y4976655D01*
X-19038032Y5079919D01*
X-17916710Y5079919D01*
X-17914934Y4867586D01*
X-17909857Y4660008D01*
X-17901544Y4466575D01*
X-17890062Y4296671D01*
X-17878194Y4180417D01*
X-17793468Y3646160D01*
X-17674365Y3127009D01*
X-17519364Y2618478D01*
X-17326946Y2116079D01*
X-17095590Y1615325D01*
X-16859882Y1174750D01*
X-16747345Y965812D01*
X-16661038Y778039D01*
X-16598182Y601765D01*
X-16555999Y427322D01*
X-16531711Y245042D01*
X-16522540Y45259D01*
X-16522274Y0D01*
X-16530331Y-223749D01*
X-16556482Y-426871D01*
X-16603701Y-619846D01*
X-16674961Y-813154D01*
X-16773235Y-1017276D01*
X-16850146Y-1155780D01*
X-17128692Y-1677623D01*
X-17366117Y-2209403D01*
X-17562523Y-2751416D01*
X-17718008Y-3303957D01*
X-17832675Y-3867320D01*
X-17878194Y-4180417D01*
X-17892252Y-4323711D01*
X-17903196Y-4498314D01*
X-17910959Y-4694838D01*
X-17915475Y-4903897D01*
X-17916679Y-5116103D01*
X-17914504Y-5322071D01*
X-17908885Y-5512413D01*
X-17899757Y-5677743D01*
X-17889486Y-5789083D01*
X-17805334Y-6353960D01*
X-17687243Y-6901378D01*
X-17533366Y-7437712D01*
X-17341856Y-7969337D01*
X-17110868Y-8502626D01*
X-17091632Y-8543434D01*
X-16991155Y-8745445D01*
X-16895693Y-8914882D01*
X-16799763Y-9060185D01*
X-16697886Y-9189794D01*
X-16607568Y-9288730D01*
X-16408758Y-9471731D01*
X-16197716Y-9621058D01*
X-15969346Y-9739077D01*
X-15718554Y-9828156D01*
X-15440245Y-9890664D01*
X-15256898Y-9916518D01*
X-15113965Y-9928571D01*
X-14937586Y-9936705D01*
X-14736450Y-9941059D01*
X-14519250Y-9941771D01*
X-14294677Y-9938981D01*
X-14071421Y-9932825D01*
X-13858174Y-9923444D01*
X-13663628Y-9910976D01*
X-13496473Y-9895558D01*
X-13430250Y-9887389D01*
X-12833873Y-9787531D01*
X-12231656Y-9649990D01*
X-11622649Y-9474403D01*
X-11005902Y-9260402D01*
X-10380465Y-9007622D01*
X-9745388Y-8715698D01*
X-9099721Y-8384264D01*
X-8442513Y-8012955D01*
X-8233833Y-7888210D01*
X-7651651Y-7523673D01*
X-7073886Y-7137377D01*
X-6497479Y-6726936D01*
X-5919373Y-6289968D01*
X-5336508Y-5824086D01*
X-4745826Y-5326908D01*
X-4144267Y-4796048D01*
X-3528773Y-4229122D01*
X-3474953Y-4178474D01*
X-3319822Y-4032250D01*
X-3513003Y-3862917D01*
X-3669707Y-3716154D01*
X-3835289Y-3544429D01*
X-3998518Y-3360030D01*
X-4148163Y-3175246D01*
X-4180464Y-3132667D01*
X-4233397Y-3064346D01*
X-4277542Y-3011922D01*
X-4306617Y-2982630D01*
X-4313884Y-2978991D01*
X-4335572Y-2992351D01*
X-4385327Y-3025685D01*
X-4456634Y-3074551D01*
X-4542980Y-3134504D01*
X-4582583Y-3162218D01*
X-5024973Y-3453906D01*
X-5462906Y-3705380D01*
X-5895734Y-3916350D01*
X-6322809Y-4086528D01*
X-6743483Y-4215623D01*
X-7122844Y-4297608D01*
X-7269985Y-4318101D01*
X-7435405Y-4333231D01*
X-7609205Y-4342792D01*
X-7781491Y-4346578D01*
X-7942363Y-4344384D01*
X-8081927Y-4336005D01*
X-8190284Y-4321233D01*
X-8196601Y-4319921D01*
X-8344012Y-4268071D01*
X-8469110Y-4182099D01*
X-8566882Y-4065628D01*
X-8580872Y-4042270D01*
X-8616327Y-3974054D01*
X-8636164Y-3915014D01*
X-8644642Y-3847221D01*
X-8646093Y-3767667D01*
X-8641768Y-3665477D01*
X-8627616Y-3589718D01*
X-8600754Y-3525058D01*
X-8600323Y-3524250D01*
X-8510826Y-3400386D01*
X-8391018Y-3301583D01*
X-8310456Y-3258543D01*
X-8263786Y-3239547D01*
X-8220013Y-3227440D01*
X-8169218Y-3221397D01*
X-8101483Y-3220595D01*
X-8006889Y-3224209D01*
X-7940040Y-3227768D01*
X-7668279Y-3231214D01*
X-7403715Y-3209271D01*
X-7130572Y-3160323D01*
X-7016750Y-3133168D01*
X-6718824Y-3042491D01*
X-6403118Y-2917797D01*
X-6073775Y-2761284D01*
X-5734940Y-2575149D01*
X-5390756Y-2361588D01*
X-5045367Y-2122800D01*
X-4882088Y-2001178D01*
X-4865573Y-1986034D01*
X-4858116Y-1966760D01*
X-4860940Y-1935391D01*
X-4875268Y-1883959D01*
X-4902323Y-1804494D01*
X-4919879Y-1754926D01*
X-5037667Y-1382559D01*
X-5123914Y-1012966D01*
X-5180353Y-635833D01*
X-5208717Y-240845D01*
X-5212981Y-10583D01*
X-5204565Y346758D01*
X-5176992Y677647D01*
X-5128303Y994314D01*
X-5056542Y1308988D01*
X-4959752Y1633899D01*
X-4940594Y1691247D01*
X-4907387Y1793743D01*
X-4881819Y1881586D01*
X-4865852Y1947275D01*
X-4861449Y1983308D01*
X-4863081Y1987580D01*
X-4886379Y2004299D01*
X-4936713Y2040917D01*
X-5007004Y2092268D01*
X-5090170Y2153188D01*
X-5102561Y2162277D01*
X-5328751Y2320372D01*
X-5573883Y2477777D01*
X-5827000Y2628113D01*
X-6077146Y2765001D01*
X-6313364Y2882062D01*
X-6424083Y2931704D01*
X-6541042Y2977887D01*
X-6685172Y3028649D01*
X-6842292Y3079504D01*
X-6998224Y3125964D01*
X-7138787Y3163540D01*
X-7205683Y3179069D01*
X-7293025Y3196128D01*
X-7378627Y3208647D01*
X-7471769Y3217327D01*
X-7581726Y3222867D01*
X-7717777Y3225969D01*
X-7842250Y3227115D01*
X-8004703Y3228861D01*
X-8131475Y3233158D01*
X-8229208Y3241648D01*
X-8304545Y3255976D01*
X-8364128Y3277782D01*
X-8414601Y3308710D01*
X-8462604Y3350403D01*
X-8501339Y3390104D01*
X-8575351Y3480629D01*
X-8620234Y3569763D01*
X-8641798Y3672654D01*
X-8646163Y3767667D01*
X-8644032Y3857552D01*
X-8634221Y3923181D01*
X-8612466Y3982494D01*
X-8580872Y4042270D01*
X-8488421Y4163731D01*
X-8367767Y4255324D01*
X-8223922Y4313428D01*
X-8196601Y4319913D01*
X-8090667Y4335209D01*
X-7952899Y4344133D01*
X-7793283Y4346885D01*
X-7621803Y4343664D01*
X-7448446Y4334669D01*
X-7283197Y4320100D01*
X-7136042Y4300156D01*
X-7126596Y4298550D01*
X-6709447Y4206686D01*
X-6287633Y4074278D01*
X-5860627Y3901090D01*
X-5427904Y3686888D01*
X-4988934Y3431434D01*
X-4575352Y3157144D01*
X-4483589Y3093938D01*
X-4404040Y3041329D01*
X-4343043Y3003339D01*
X-4306934Y2983988D01*
X-4300186Y2982562D01*
X-4282019Y3002386D01*
X-4245334Y3048004D01*
X-4196719Y3111129D01*
X-4173996Y3141312D01*
X-4045322Y3304390D01*
X-3900170Y3473239D01*
X-3748937Y3636505D01*
X-3602022Y3782835D01*
X-3507786Y3868704D01*
X-3319485Y4032250D01*
X-3474784Y4178475D01*
X-3896939Y4571507D01*
X-4298987Y4936329D01*
X-4686942Y5278048D01*
X-5066815Y5601770D01*
X-5444618Y5912600D01*
X-5826365Y6215646D01*
X-6218066Y6516012D01*
X-6297083Y6575429D01*
X-6961382Y7057249D01*
X-7621290Y7503666D01*
X-8275846Y7914222D01*
X-8924090Y8288461D01*
X-9565063Y8625929D01*
X-10197804Y8926168D01*
X-10821353Y9188723D01*
X-11434750Y9413138D01*
X-12037035Y9598957D01*
X-12627247Y9745725D01*
X-13197417Y9851908D01*
X-13423638Y9884822D01*
X-13627294Y9909750D01*
X-13821006Y9927624D01*
X-14017391Y9939374D01*
X-14229068Y9945931D01*
X-14468656Y9948227D01*
X-14503374Y9948261D01*
X-14819470Y9943120D01*
X-15099605Y9927022D01*
X-15348929Y9899103D01*
X-15572595Y9858502D01*
X-15775753Y9804355D01*
X-15963553Y9735801D01*
X-16076083Y9684932D01*
X-16241043Y9596733D01*
X-16389965Y9498784D01*
X-16525941Y9387159D01*
X-16652059Y9257933D01*
X-16771409Y9107179D01*
X-16887082Y8930972D01*
X-17002166Y8725386D01*
X-17119750Y8486493D01*
X-17242926Y8210369D01*
X-17250600Y8192444D01*
X-17468440Y7629844D01*
X-17645512Y7056953D01*
X-17782262Y6472088D01*
X-17879138Y5873566D01*
X-17889486Y5789083D01*
X-17901573Y5651592D01*
X-17910096Y5481309D01*
X-17915120Y5287623D01*
X-17916710Y5079919D01*
X-19038032Y5079919D01*
X-19037281Y5221076D01*
X-19031591Y5457442D01*
X-19021513Y5675826D01*
X-19007048Y5866304D01*
X-18999469Y5937250D01*
X-18904345Y6565976D01*
X-18769751Y7181615D01*
X-18595048Y7786335D01*
X-18379597Y8382302D01*
X-18122758Y8971685D01*
X-18073402Y9074529D01*
X-17944318Y9326555D01*
X-17817695Y9544834D01*
X-17688187Y9737227D01*
X-17550450Y9911594D01*
X-17399139Y10075796D01*
X-17378500Y10096500D01*
X-17162869Y10296242D01*
X-16948609Y10463352D01*
X-16725120Y10605804D01*
X-16636127Y10654833D01*
X-16438063Y10752283D01*
X-16239669Y10833715D01*
X-16034300Y10900711D01*
X-15815313Y10954850D01*
X-15576062Y10997714D01*
X-15447385Y11013750D01*
X-13460209Y11013750D01*
X-13254730Y10987332D01*
X-12668522Y10893299D01*
X-12068271Y10760437D01*
X-11455284Y10589368D01*
X-10830868Y10380713D01*
X-10196330Y10135096D01*
X-9552977Y9853139D01*
X-8902114Y9535465D01*
X-8245050Y9182696D01*
X-7583090Y8795455D01*
X-6917542Y8374365D01*
X-6249711Y7920048D01*
X-5580906Y7433126D01*
X-5228167Y7163354D01*
X-5093069Y7057540D01*
X-4947857Y6942463D01*
X-4798088Y6822641D01*
X-4649323Y6702597D01*
X-4507118Y6586849D01*
X-4377033Y6479920D01*
X-4264625Y6386329D01*
X-4175453Y6310596D01*
X-4123632Y6265049D01*
X-4071652Y6220285D01*
X-4031648Y6189919D01*
X-4015701Y6181535D01*
X-4021687Y6196584D01*
X-4049942Y6238313D01*
X-4096033Y6300555D01*
X-4155528Y6377140D01*
X-4163390Y6387042D01*
X-4574443Y6893452D01*
X-4976826Y7368175D01*
X-5377369Y7818921D01*
X-5782900Y8253398D01*
X-6148292Y8627372D01*
X-6406605Y8883494D01*
X-6644548Y9113098D01*
X-6868789Y9322239D01*
X-7085994Y9516974D01*
X-7302831Y9703359D01*
X-7525967Y9887451D01*
X-7608804Y9954075D01*
X-8080638Y10314385D01*
X-8546253Y10636232D01*
X-9005067Y10919380D01*
X-9456493Y11163590D01*
X-9899949Y11368626D01*
X-10334850Y11534248D01*
X-10760613Y11660219D01*
X-11176653Y11746301D01*
X-11582386Y11792257D01*
X-11977228Y11797849D01*
X-12117395Y11789873D01*
X-12324293Y11770310D01*
X-12496903Y11744606D01*
X-12643109Y11710333D01*
X-12770793Y11665067D01*
X-12887838Y11606381D01*
X-13002127Y11531848D01*
X-13035341Y11507330D01*
X-13113415Y11440284D01*
X-13202184Y11351541D01*
X-13290770Y11253183D01*
X-13368296Y11157291D01*
X-13423881Y11075945D01*
X-13424063Y11075635D01*
X-13460209Y11013750D01*
X-15447385Y11013750D01*
X-15309904Y11030883D01*
X-15010193Y11055938D01*
X-14927796Y11061206D01*
X-14689675Y11075613D01*
X-14590030Y11279265D01*
X-14435631Y11558911D01*
X-14255340Y11822704D01*
X-14053883Y12065570D01*
X-13835986Y12282431D01*
X-13606375Y12468213D01*
X-13369776Y12617838D01*
X-13318852Y12644592D01*
X-13166886Y12710949D01*
X-12986410Y12772435D01*
X-12791241Y12824837D01*
X-12604750Y12862375D01*
X-12471480Y12879065D01*
X-12305831Y12891387D01*
X-12117534Y12899336D01*
X-11916317Y12902908D01*
X-11711911Y12902096D01*
X-11514045Y12896897D01*
X-11332448Y12887306D01*
X-11176851Y12873317D01*
X-11101917Y12863118D01*
X-10628042Y12769708D01*
X-10157122Y12641686D01*
X-9686680Y12478016D01*
X-9214242Y12277657D01*
X-8737332Y12039572D01*
X-8253475Y11762723D01*
X-7821083Y11486950D01*
X-7326206Y11138609D01*
X-6824762Y10750025D01*
X-6318038Y10322557D01*
X-5807317Y9857562D01*
X-5293884Y9356398D01*
X-4779021Y8820421D01*
X-4264015Y8250990D01*
X-3750148Y7649462D01*
X-3238704Y7017193D01*
X-2730969Y6355543D01*
X-2228225Y5665868D01*
X-1980436Y5312833D01*
X-1908077Y5208192D01*
X-1843665Y5114563D01*
X-1791251Y5037875D01*
X-1754888Y4984058D01*
X-1738627Y4959039D01*
X-1738606Y4959001D01*
X-1719958Y4948892D01*
X-1678333Y4952524D01*
X-1607237Y4970856D01*
X-1559791Y4985459D01*
X-1389835Y5026215D01*
X-1240966Y5032379D01*
X-1108771Y5003154D01*
X-988839Y4937741D01*
X-907212Y4867395D01*
X-813891Y4746677D01*
X-759246Y4613027D01*
X-743698Y4471640D01*
X-767670Y4327715D01*
X-831581Y4186448D01*
X-849700Y4158221D01*
X-897534Y4098538D01*
X-957556Y4047114D01*
X-1036849Y3999810D01*
X-1142494Y3952487D01*
X-1281574Y3901006D01*
X-1301750Y3894043D01*
X-1690402Y3739031D01*
X-2056507Y3549384D01*
X-2398354Y3327239D01*
X-2714231Y3074734D01*
X-3002429Y2794006D01*
X-3261236Y2487191D01*
X-3488940Y2156428D01*
X-3683830Y1803854D01*
X-3844196Y1431606D01*
X-3968326Y1041821D01*
X-4054509Y636636D01*
X-4083944Y418876D01*
X-4106751Y16836D01*
X-4088519Y-384003D01*
X-4030491Y-780420D01*
X-3933914Y-1169197D01*
X-3800031Y-1547115D01*
X-3630090Y-1910955D01*
X-3425334Y-2257498D01*
X-3187010Y-2583526D01*
X-2916361Y-2885818D01*
X-2741083Y-3052575D01*
X-2418467Y-3313806D01*
X-2075341Y-3539199D01*
X-1714522Y-3728013D01*
X-1338829Y-3879505D01*
X-951080Y-3992932D01*
X-554091Y-4067552D01*
X-150682Y-4102623D01*
X256331Y-4097402D01*
X664128Y-4051148D01*
X762024Y-4032250D01*
X3319230Y-4032250D01*
X3516990Y-4218277D01*
X4253446Y-4893326D01*
X4983159Y-5526598D01*
X5706149Y-6118109D01*
X6422437Y-6667870D01*
X7132043Y-7175895D01*
X7834988Y-7642198D01*
X8531293Y-8066792D01*
X9220978Y-8449691D01*
X9904064Y-8790908D01*
X10580571Y-9090456D01*
X11250520Y-9348349D01*
X11512075Y-9438321D01*
X12041926Y-9598741D01*
X12575333Y-9729667D01*
X13107209Y-9830389D01*
X13632466Y-9900195D01*
X14146020Y-9938377D01*
X14642783Y-9944224D01*
X15008227Y-9926431D01*
X15261164Y-9902363D01*
X15479513Y-9870760D01*
X15670662Y-9829585D01*
X15841997Y-9776805D01*
X16000907Y-9710384D01*
X16154777Y-9628286D01*
X16208277Y-9595803D01*
X16369964Y-9481167D01*
X16531627Y-9342087D01*
X16679622Y-9191280D01*
X16795123Y-9048750D01*
X16873238Y-8928043D01*
X16960108Y-8773195D01*
X17052786Y-8590749D01*
X17148324Y-8387247D01*
X17243774Y-8169231D01*
X17336189Y-7943244D01*
X17422621Y-7715830D01*
X17500122Y-7493529D01*
X17511670Y-7458339D01*
X17649865Y-6995068D01*
X17756702Y-6548682D01*
X17833763Y-6109479D01*
X17882631Y-5667759D01*
X17904890Y-5213819D01*
X17906701Y-5037667D01*
X17904121Y-4776741D01*
X17895491Y-4544575D01*
X17879773Y-4327891D01*
X17855928Y-4113413D01*
X17822918Y-3887865D01*
X17811261Y-3817175D01*
X17710471Y-3326541D01*
X17574198Y-2833497D01*
X17405745Y-2347480D01*
X17208411Y-1877931D01*
X16985498Y-1434287D01*
X16964758Y-1396785D01*
X16863763Y-1213251D01*
X16782145Y-1059138D01*
X16716848Y-927968D01*
X16664817Y-813263D01*
X16622995Y-708542D01*
X16588327Y-607327D01*
X16580502Y-582083D01*
X16559783Y-511331D01*
X16544681Y-449823D01*
X16534315Y-388704D01*
X16527802Y-319116D01*
X16524261Y-232207D01*
X16522812Y-119119D01*
X16522566Y0D01*
X16522952Y141262D01*
X16524698Y249044D01*
X16528688Y332197D01*
X16535804Y399571D01*
X16546928Y460018D01*
X16562944Y522387D01*
X16580624Y582083D01*
X16610700Y675020D01*
X16644208Y765295D01*
X16684300Y859610D01*
X16734126Y964669D01*
X16796839Y1087176D01*
X16875590Y1233832D01*
X16953793Y1375822D01*
X17205566Y1872168D01*
X17421480Y2387790D01*
X17600169Y2918260D01*
X17740267Y3459152D01*
X17840408Y4006038D01*
X17886835Y4399204D01*
X17895965Y4539654D01*
X17901405Y4711326D01*
X17903344Y4904769D01*
X17901970Y5110535D01*
X17897472Y5319173D01*
X17890037Y5521233D01*
X17879854Y5707265D01*
X17867111Y5867820D01*
X17855556Y5969000D01*
X17767662Y6486075D01*
X17646903Y7004020D01*
X17496300Y7511825D01*
X17318877Y7998478D01*
X17257673Y8146208D01*
X17194142Y8289846D01*
X17122791Y8442622D01*
X17047817Y8596249D01*
X16973420Y8742445D01*
X16903797Y8872925D01*
X16843146Y8979404D01*
X16803650Y9042118D01*
X16630379Y9260109D01*
X16427057Y9449049D01*
X16195614Y9607619D01*
X15937983Y9734503D01*
X15656097Y9828381D01*
X15648027Y9830482D01*
X15417895Y9878584D01*
X15153921Y9913702D01*
X14862593Y9935715D01*
X14550399Y9944501D01*
X14223830Y9939939D01*
X13889373Y9921908D01*
X13553518Y9890287D01*
X13409083Y9872320D01*
X13293782Y9856933D01*
X13174650Y9841133D01*
X13069468Y9827272D01*
X13022212Y9821095D01*
X12859248Y9795027D01*
X12664795Y9755822D01*
X12446863Y9705576D01*
X12213460Y9646385D01*
X11972595Y9580344D01*
X11732279Y9509548D01*
X11500519Y9436093D01*
X11334034Y9379426D01*
X10648738Y9118114D01*
X9958445Y8815210D01*
X9263096Y8470678D01*
X8562631Y8084477D01*
X7856993Y7656570D01*
X7146121Y7186919D01*
X6429956Y6675484D01*
X5708440Y6122227D01*
X4981514Y5527109D01*
X4249119Y4890093D01*
X3719065Y4406118D01*
X3594231Y4289181D01*
X3498184Y4197352D01*
X3428086Y4127597D01*
X3381101Y4076883D01*
X3354389Y4042174D01*
X3345114Y4020438D01*
X3348648Y4010053D01*
X3375647Y3985516D01*
X3425991Y3940352D01*
X3491350Y3882021D01*
X3534833Y3843338D01*
X3673705Y3711990D01*
X3823177Y3556914D01*
X3971912Y3390584D01*
X4108569Y3225477D01*
X4175222Y3138705D01*
X4304438Y2964826D01*
X4407554Y3038908D01*
X4822033Y3323502D01*
X5221987Y3570819D01*
X5610275Y3782183D01*
X5989754Y3958917D01*
X6363280Y4102345D01*
X6733712Y4213789D01*
X7103905Y4294575D01*
X7126596Y4298550D01*
X7272096Y4318866D01*
X7436395Y4333821D01*
X7609507Y4343216D01*
X7781447Y4346851D01*
X7942229Y4344528D01*
X8081867Y4336046D01*
X8190376Y4321206D01*
X8196600Y4319913D01*
X8344007Y4268073D01*
X8469103Y4182107D01*
X8566876Y4065637D01*
X8580871Y4042270D01*
X8616341Y3974010D01*
X8636191Y3914893D01*
X8644687Y3846979D01*
X8646163Y3767667D01*
X8638241Y3644586D01*
X8611346Y3546591D01*
X8559667Y3458535D01*
X8501338Y3390104D01*
X8450788Y3339175D01*
X8402796Y3300254D01*
X8350717Y3271697D01*
X8287911Y3251862D01*
X8207734Y3239107D01*
X8103544Y3231788D01*
X7968699Y3228264D01*
X7842250Y3227115D01*
X7636784Y3223522D01*
X7461838Y3213994D01*
X7305792Y3196656D01*
X7157028Y3169629D01*
X7003925Y3131037D01*
X6834865Y3079001D01*
X6750599Y3050738D01*
X6469205Y2945681D01*
X6195110Y2824266D01*
X5916316Y2680806D01*
X5664156Y2535767D01*
X5579217Y2483058D01*
X5478670Y2417877D01*
X5368893Y2344663D01*
X5256264Y2267857D01*
X5147160Y2191900D01*
X5047958Y2121231D01*
X4965037Y2060292D01*
X4904774Y2013523D01*
X4873547Y1985365D01*
X4873401Y1985190D01*
X4864559Y1962451D01*
X4867488Y1923726D01*
X4883671Y1861803D01*
X4914593Y1769473D01*
X4922235Y1747961D01*
X5054172Y1316814D01*
X5147427Y872745D01*
X5202001Y420026D01*
X5217898Y-37075D01*
X5195119Y-494288D01*
X5133667Y-947342D01*
X5033545Y-1391968D01*
X4920080Y-1754361D01*
X4889504Y-1842694D01*
X4866074Y-1914956D01*
X4852408Y-1962763D01*
X4850338Y-1977852D01*
X4869295Y-1991966D01*
X4916088Y-2026094D01*
X4984205Y-2075505D01*
X5067132Y-2135467D01*
X5090583Y-2152395D01*
X5495049Y-2428280D01*
X5887976Y-2663828D01*
X6269870Y-2859285D01*
X6641238Y-3014898D01*
X7002585Y-3130911D01*
X7196667Y-3177808D01*
X7285634Y-3195263D01*
X7370553Y-3208049D01*
X7460868Y-3216883D01*
X7566022Y-3222481D01*
X7695459Y-3225559D01*
X7842250Y-3226773D01*
X7999945Y-3227971D01*
X8122133Y-3231188D01*
X8215636Y-3237982D01*
X8287278Y-3249908D01*
X8343880Y-3268519D01*
X8392267Y-3295374D01*
X8439262Y-3332025D01*
X8484396Y-3373161D01*
X8567709Y-3467600D01*
X8618760Y-3568852D01*
X8642454Y-3688920D01*
X8645602Y-3767667D01*
X8634471Y-3905141D01*
X8597614Y-4018519D01*
X8529840Y-4120723D01*
X8483597Y-4170813D01*
X8413256Y-4230229D01*
X8332614Y-4274371D01*
X8233128Y-4306196D01*
X8106251Y-4328661D01*
X7992485Y-4340756D01*
X7721601Y-4350230D01*
X7427686Y-4335013D01*
X7121192Y-4296321D01*
X6812572Y-4235369D01*
X6594616Y-4178295D01*
X6268714Y-4069549D01*
X5925710Y-3928862D01*
X5572035Y-3759480D01*
X5214120Y-3564653D01*
X4858396Y-3347628D01*
X4582583Y-3162218D01*
X4491824Y-3098901D01*
X4413338Y-3044787D01*
X4353639Y-3004318D01*
X4319243Y-2981937D01*
X4313884Y-2978991D01*
X4295710Y-2992591D01*
X4259052Y-3033288D01*
X4210190Y-3093842D01*
X4180628Y-3132667D01*
X4062072Y-3283310D01*
X3926243Y-3442490D01*
X3782939Y-3599514D01*
X3641957Y-3743688D01*
X3513095Y-3864316D01*
X3499202Y-3876449D01*
X3319230Y-4032250D01*
X762024Y-4032250D01*
X886527Y-4008216D01*
X1280881Y-3899866D01*
X1657002Y-3755050D01*
X2013115Y-3576056D01*
X2347447Y-3365174D01*
X2658224Y-3124692D01*
X2943670Y-2856900D01*
X3202014Y-2564087D01*
X3431479Y-2248542D01*
X3630293Y-1912555D01*
X3796681Y-1558415D01*
X3928869Y-1188410D01*
X4025084Y-804830D01*
X4083550Y-409964D01*
X4102494Y-6102D01*
X4099434Y137583D01*
X4069380Y521707D01*
X4008865Y883205D01*
X3915592Y1231060D01*
X3787264Y1574253D01*
X3664388Y1838458D01*
X3458128Y2202692D01*
X3219411Y2540455D01*
X2949968Y2850242D01*
X2651531Y3130544D01*
X2325832Y3379856D01*
X1974605Y3596669D01*
X1599581Y3779477D01*
X1301750Y3894043D01*
X1157973Y3946338D01*
X1048519Y3993955D01*
X966306Y4041035D01*
X904253Y4091715D01*
X855278Y4150133D01*
X849700Y4158221D01*
X777528Y4298298D01*
X745384Y4442101D01*
X752845Y4584433D01*
X799490Y4720098D01*
X884898Y4843897D01*
X907212Y4867395D01*
X1021021Y4959489D01*
X1143901Y5014819D01*
X1280265Y5034181D01*
X1434522Y5018374D01*
X1559790Y4985459D01*
X1647623Y4959596D01*
X1702824Y4948891D01*
X1731905Y4952381D01*
X1738616Y4959022D01*
X1761390Y4995075D01*
X1805235Y5060370D01*
X1866533Y5149757D01*
X1941667Y5258088D01*
X2027022Y5380214D01*
X2118979Y5510986D01*
X2213922Y5645256D01*
X2308234Y5777875D01*
X2398299Y5903694D01*
X2480500Y6017565D01*
X2527749Y6082393D01*
X2594068Y6170639D01*
X4000500Y6170639D01*
X4015662Y6179628D01*
X4057661Y6212026D01*
X4121263Y6263605D01*
X4201236Y6330139D01*
X4270375Y6388642D01*
X4378582Y6479848D01*
X4508157Y6587523D01*
X4647244Y6701906D01*
X4783985Y6813233D01*
X4878917Y6889690D01*
X5585994Y7438225D01*
X6291099Y7950259D01*
X6993333Y8425305D01*
X7691798Y8862875D01*
X8385594Y9262484D01*
X9073824Y9623643D01*
X9755587Y9945866D01*
X10429987Y10228666D01*
X11096124Y10471556D01*
X11753100Y10674049D01*
X11969750Y10732446D01*
X12101126Y10765122D01*
X12254338Y10800863D01*
X12421405Y10838026D01*
X12594346Y10874970D01*
X12765182Y10910051D01*
X12925930Y10941628D01*
X13068611Y10968058D01*
X13185245Y10987699D01*
X13260917Y10998165D01*
X13333327Y11007952D01*
X13390177Y11018731D01*
X13414223Y11026126D01*
X13414616Y11047720D01*
X13390288Y11093201D01*
X13346258Y11156332D01*
X13287547Y11230874D01*
X13219174Y11310589D01*
X13146159Y11389238D01*
X13073521Y11460582D01*
X13041540Y11489296D01*
X12934145Y11573036D01*
X12821786Y11639920D01*
X12697441Y11692232D01*
X12554086Y11732258D01*
X12384699Y11762285D01*
X12182254Y11784598D01*
X12118171Y11789814D01*
X11729812Y11798789D01*
X11329920Y11767551D01*
X10919218Y11696408D01*
X10498426Y11585668D01*
X10068264Y11435641D01*
X9629453Y11246633D01*
X9182714Y11018954D01*
X8728768Y10752911D01*
X8268335Y10448814D01*
X7802137Y10106970D01*
X7366000Y9757095D01*
X6891572Y9344365D01*
X6409427Y8892328D01*
X5921411Y8402914D01*
X5429370Y7878057D01*
X4935148Y7319686D01*
X4440591Y6729734D01*
X4258344Y6504401D01*
X4178810Y6404541D01*
X4109232Y6316066D01*
X4053655Y6244212D01*
X4016121Y6194212D01*
X4000677Y6171303D01*
X4000500Y6170639D01*
X2594068Y6170639D01*
X3035042Y6757402D01*
X3546151Y7402664D01*
X4059949Y8017077D01*
X4575310Y8599541D01*
X5091108Y9148956D01*
X5606218Y9664220D01*
X6119514Y10144234D01*
X6629870Y10587897D01*
X7136160Y10994108D01*
X7637258Y11361767D01*
X8132039Y11689773D01*
X8474638Y11895548D01*
X8638694Y11986178D01*
X8826271Y12083803D01*
X9027298Y12183628D01*
X9231701Y12280855D01*
X9429407Y12370688D01*
X9610343Y12448331D01*
X9757833Y12506547D01*
X10121469Y12632825D01*
X10463384Y12732685D01*
X10793247Y12808113D01*
X11120723Y12861099D01*
X11455479Y12893632D01*
X11695825Y12905195D01*
X12069644Y12905853D01*
X12412082Y12884542D01*
D11*
X-11112500Y-6510020D02*
X-11112500Y-7459980D01*
X-11112500Y7713980D02*
X-11112500Y6764020D01*
X16446500Y7713980D02*
X16446500Y6764020D01*
X16446500Y-6510020D02*
X16446500Y-7459980D01*
M02*
