M48
; DRILL file {KiCad 5.1.2} date Fri 28 Jun 2019 07:35:02 PM PDT
; FORMAT={-:-/ absolute / inch / decimal}
; #@! TF.CreationDate,2019-06-28T19:35:02-07:00
; #@! TF.GenerationSoftware,Kicad,Pcbnew,5.1.2
; #@! TF.FileFunction,Plated,1,2,PTH
FMAT,2
INCH
T1C0.0157
T2C0.0400
T3C0.0402
%
G90
G05
T1
X1.07Y-4.55
X1.543Y-3.074
X1.613Y-3.074
X1.6451Y-3.8869
X1.6677Y-3.8623
X1.683Y-3.074
X1.69Y-3.84
X1.7177Y-3.7791
X1.752Y-3.074
X1.822Y-3.074
X1.84Y-3.67
X1.875Y-3.675
X1.892Y-3.074
X1.962Y-3.074
X2.0075Y-3.5138
X2.032Y-3.074
X2.102Y-3.074
X2.172Y-3.074
X2.242Y-3.074
X2.2783Y-3.7994
X2.312Y-3.074
X2.382Y-3.074
X2.405Y-3.6504
X2.44Y-3.675
X2.452Y-3.074
X2.521Y-3.074
X2.5244Y-3.7866
X2.54Y-3.88
X2.5661Y-3.5154
X2.591Y-3.074
X2.61Y-1.88
X2.661Y-3.074
X2.6789Y-4.3246
X2.705Y-4.12
X2.71Y-1.92
X2.731Y-3.074
X2.78Y-2.09
X2.801Y-3.074
X2.86Y-3.91
X2.871Y-3.074
X2.91Y-4.11
X2.941Y-3.074
X2.977Y-3.6554
X3.005Y-3.68
X3.01Y-3.074
X3.0429Y-4.3232
X3.0669Y-3.7929
X3.08Y-3.074
X3.1476Y-3.5126
X3.15Y-3.074
T2
X1.5623Y-2.0663
X1.633Y-1.9956
X1.633Y-2.137
X1.7037Y-1.9249
X1.7037Y-2.0663
X1.7744Y-1.9956
X0.9148Y-3.2213
X0.9311Y-3.1221
X0.9666Y-3.0281
X0.9828Y-2.9289
X1.0184Y-2.8349
X3.6752Y-2.8713
X3.7107Y-2.9653
X3.7269Y-3.0645
X3.7625Y-3.1585
T3
X1.74Y-2.315
X2.24Y-2.315
T0
M30
