M48
; DRILL file {KiCad 5.1.2} date Thu 27 Jun 2019 09:01:45 PM PDT
; FORMAT={-:-/ absolute / inch / decimal}
; #@! TF.CreationDate,2019-06-27T21:01:45-07:00
; #@! TF.GenerationSoftware,Kicad,Pcbnew,5.1.2
; #@! TF.FileFunction,Plated,1,2,PTH
FMAT,2
INCH
T1C0.0157
T2C0.0400
T3C0.0402
%
G90
G05
T1
X1.07Y-4.55
X1.5427Y-3.0345
X1.6126Y-3.0345
X1.6451Y-3.8869
X1.6677Y-3.8623
X1.6825Y-3.0345
X1.69Y-3.84
X1.7177Y-3.7791
X1.7524Y-3.0345
X1.8222Y-3.0345
X1.84Y-3.67
X1.875Y-3.675
X1.8921Y-3.0345
X1.962Y-3.0345
X2.0075Y-3.5138
X2.0319Y-3.0345
X2.1018Y-3.0345
X2.1717Y-3.0345
X2.2415Y-3.0345
X2.2783Y-3.7994
X2.3114Y-3.0345
X2.3813Y-3.0345
X2.405Y-3.6504
X2.44Y-3.675
X2.4512Y-3.0345
X2.5211Y-3.0345
X2.5244Y-3.7866
X2.5661Y-3.5154
X2.59Y-3.835
X2.5909Y-3.0345
X2.61Y-1.88
X2.6608Y-3.0345
X2.6789Y-4.3246
X2.705Y-4.12
X2.71Y-1.92
X2.7307Y-3.0345
X2.78Y-2.09
X2.8006Y-3.0345
X2.82Y-3.835
X2.8705Y-3.0345
X2.91Y-4.11
X2.9404Y-3.0345
X2.977Y-3.6554
X3.005Y-3.68
X3.0102Y-3.0345
X3.0429Y-4.3232
X3.0669Y-3.7929
X3.0801Y-3.0345
X3.1476Y-3.5126
X3.15Y-3.0345
T2
X0.9148Y-3.2213
X0.9311Y-3.1221
X0.9666Y-3.0281
X0.9828Y-2.9289
X1.0184Y-2.8349
X3.6752Y-2.8713
X3.7107Y-2.9653
X3.7269Y-3.0645
X3.7625Y-3.1585
T3
X1.74Y-2.315
X2.24Y-2.315
T0
M30
