%FSLAX45Y45*%
G04 Gerber Fmt 4.5, Leading zero omitted, Abs format (unit mm)*
G04 Created by KiCad (PCBNEW 5.1.2) date 2019-06-29 12:22:16*
%MOMM*%
%LPD*%
G04 APERTURE LIST*
%ADD10C,0.150000*%
%ADD11C,0.100000*%
%ADD12C,0.200000*%
%ADD13C,0.300000*%
G04 APERTURE END LIST*
D10*
X6121400Y-2565400D02*
G75*
G03X6121400Y-2565400I-177800J0D01*
G01*
D11*
X6007884Y-11644949D02*
X6027821Y-11644649D01*
X6027821Y-11644649D02*
X6047782Y-11644349D01*
X6047782Y-11644349D02*
X6067762Y-11644049D01*
X6067762Y-11644049D02*
X6087706Y-11643749D01*
X6087706Y-11643749D02*
X6107664Y-11643549D01*
X6107664Y-11643549D02*
X6127647Y-11643349D01*
X6127647Y-11643349D02*
X6147648Y-11643149D01*
X6147648Y-11643149D02*
X6167613Y-11642949D01*
X6167613Y-11642949D02*
X6187560Y-11642883D01*
X6187560Y-11642883D02*
X6207532Y-11642818D01*
X6207532Y-11642818D02*
X6227523Y-11642753D01*
X6227523Y-11642753D02*
X6247477Y-11642688D01*
X6247477Y-11642688D02*
X6267414Y-11642753D01*
X6267414Y-11642753D02*
X6287376Y-11642818D01*
X6287376Y-11642818D02*
X6307355Y-11642883D01*
X6307355Y-11642883D02*
X6327299Y-11642949D01*
X6327299Y-11642949D02*
X6347247Y-11643149D01*
X6347247Y-11643149D02*
X6367219Y-11643349D01*
X6367219Y-11643349D02*
X6387209Y-11643549D01*
X6387209Y-11643549D02*
X6407164Y-11643749D01*
X6407164Y-11643749D02*
X6427132Y-11644149D01*
X6427132Y-11644149D02*
X6447125Y-11644549D01*
X6447125Y-11644549D02*
X6467137Y-11644949D01*
X6467137Y-11644949D02*
X6487113Y-11645349D01*
X6487113Y-11645349D02*
X6507060Y-11645949D01*
X6507060Y-11645949D02*
X6527032Y-11646549D01*
X6527032Y-11646549D02*
X6547023Y-11647149D01*
X6547023Y-11647149D02*
X6566977Y-11647749D01*
X6566977Y-11647749D02*
X6586893Y-11648549D01*
X6586893Y-11648549D02*
X6606833Y-11649349D01*
X6606833Y-11649349D02*
X6626792Y-11650149D01*
X6626792Y-11650149D02*
X6646714Y-11650949D01*
X6646714Y-11650949D02*
X6666598Y-11651849D01*
X6666598Y-11651849D02*
X6686506Y-11652749D01*
X6686506Y-11652749D02*
X6706433Y-11653649D01*
X6706433Y-11653649D02*
X6726324Y-11654549D01*
X6726324Y-11654549D02*
X6746218Y-11655619D01*
X6746218Y-11655619D02*
X6766137Y-11656689D01*
X6766137Y-11656689D02*
X6786075Y-11657769D01*
X6786075Y-11657769D02*
X6805976Y-11658839D01*
X6805976Y-11658839D02*
X6825881Y-11660039D01*
X6825881Y-11660039D02*
X6845810Y-11661239D01*
X6845810Y-11661239D02*
X6865758Y-11662439D01*
X6865758Y-11662439D02*
X6885670Y-11663639D01*
X6885670Y-11663639D02*
X6905532Y-11664969D01*
X6905532Y-11664969D02*
X6925420Y-11666299D01*
X6925420Y-11666299D02*
X6945325Y-11667629D01*
X6945325Y-11667629D02*
X6965195Y-11668959D01*
X6965195Y-11668959D02*
X6985068Y-11670399D01*
X6985068Y-11670399D02*
X7004966Y-11671839D01*
X7004966Y-11671839D02*
X7024882Y-11673289D01*
X7024882Y-11673289D02*
X7044762Y-11674729D01*
X7044762Y-11674729D02*
X7064635Y-11676299D01*
X7064635Y-11676299D02*
X7084533Y-11677869D01*
X7084533Y-11677869D02*
X7104449Y-11679439D01*
X7104449Y-11679439D02*
X7124329Y-11681009D01*
X7124329Y-11681009D02*
X7144202Y-11682699D01*
X7144202Y-11682699D02*
X7164100Y-11684389D01*
X7164100Y-11684389D02*
X7184016Y-11686079D01*
X7184016Y-11686079D02*
X7203896Y-11687769D01*
X7203896Y-11687769D02*
X7223726Y-11689579D01*
X7223726Y-11689579D02*
X7243582Y-11691399D01*
X7243582Y-11691399D02*
X7263455Y-11693219D01*
X7263455Y-11693219D02*
X7283293Y-11695029D01*
X7283293Y-11695029D02*
X7303123Y-11696949D01*
X7303123Y-11696949D02*
X7322979Y-11698869D01*
X7322979Y-11698869D02*
X7342852Y-11700789D01*
X7342852Y-11700789D02*
X7362690Y-11702709D01*
X7362690Y-11702709D02*
X7382499Y-11704739D01*
X7382499Y-11704739D02*
X7402334Y-11706769D01*
X7402334Y-11706769D02*
X7422186Y-11708799D01*
X7422186Y-11708799D02*
X7442002Y-11710829D01*
X7442002Y-11710829D02*
X7461812Y-11712969D01*
X7461812Y-11712969D02*
X7481646Y-11715119D01*
X7481646Y-11715119D02*
X7501498Y-11717269D01*
X7501498Y-11717269D02*
X7521314Y-11719419D01*
X7521314Y-11719419D02*
X7541102Y-11721679D01*
X7541102Y-11721679D02*
X7560915Y-11723939D01*
X7560915Y-11723939D02*
X7580746Y-11726199D01*
X7580746Y-11726199D02*
X7600542Y-11728459D01*
X7600542Y-11728459D02*
X7620319Y-11730829D01*
X7620319Y-11730829D02*
X7640121Y-11733199D01*
X7640121Y-11733199D02*
X7659942Y-11735569D01*
X7659942Y-11735569D02*
X7679726Y-11737939D01*
X7679726Y-11737939D02*
X7699483Y-11740419D01*
X7699483Y-11740419D02*
X7719264Y-11742909D01*
X7719264Y-11742909D02*
X7739063Y-11745399D01*
X7739063Y-11745399D02*
X7758826Y-11747879D01*
X7758826Y-11747879D02*
X7778614Y-11750469D01*
X7778614Y-11750469D02*
X7798427Y-11753059D01*
X7798427Y-11753059D02*
X7818258Y-11755649D01*
X7818258Y-11755649D02*
X7838053Y-11758239D01*
X7838053Y-11758239D02*
X7857810Y-11760949D01*
X7857810Y-11760949D02*
X7877591Y-11763659D01*
X7877591Y-11763659D02*
X7897390Y-11766369D01*
X7897390Y-11766369D02*
X7917153Y-11769079D01*
X7917153Y-11769079D02*
X7938054Y-11772069D01*
X7938054Y-11772069D02*
X7958974Y-11775059D01*
X7958974Y-11775059D02*
X7979855Y-11778039D01*
X7979855Y-11778039D02*
X8000728Y-11781129D01*
X8000728Y-11781129D02*
X8021620Y-11784219D01*
X8021620Y-11784219D02*
X8042472Y-11787299D01*
X8042472Y-11787299D02*
X8063345Y-11790509D01*
X8063345Y-11790509D02*
X8084237Y-11793729D01*
X8084237Y-11793729D02*
X8105089Y-11796939D01*
X8105089Y-11796939D02*
X8125820Y-11800549D01*
X8125820Y-11800549D02*
X8146571Y-11804159D01*
X8146571Y-11804159D02*
X8167282Y-11807769D01*
X8167282Y-11807769D02*
X8174708Y-11827219D01*
X8174708Y-11827219D02*
X8182152Y-11846715D01*
X8182152Y-11846715D02*
X8189584Y-11866180D01*
X8189584Y-11866180D02*
X8196869Y-11885687D01*
X8196869Y-11885687D02*
X8204171Y-11905240D01*
X8204171Y-11905240D02*
X8211461Y-11924761D01*
X8211461Y-11924761D02*
X8218704Y-11944240D01*
X8218704Y-11944240D02*
X8225964Y-11963765D01*
X8225964Y-11963765D02*
X8233212Y-11983258D01*
X8233212Y-11983258D02*
X8239313Y-11999682D01*
X8239313Y-11999682D02*
X8245422Y-12016128D01*
X8245422Y-12016128D02*
X8251536Y-12032588D01*
X8251536Y-12032588D02*
X8257639Y-12049018D01*
X8257639Y-12049018D02*
X8263772Y-12065411D01*
X8263772Y-12065411D02*
X8269912Y-12081825D01*
X8269912Y-12081825D02*
X8276058Y-12098253D01*
X8276058Y-12098253D02*
X8282193Y-12114652D01*
X8282193Y-12114652D02*
X8288411Y-12131023D01*
X8288411Y-12131023D02*
X8294636Y-12147415D01*
X8294636Y-12147415D02*
X8300867Y-12163822D01*
X8300867Y-12163822D02*
X8307087Y-12180200D01*
X8307087Y-12180200D02*
X8313506Y-12196487D01*
X8313506Y-12196487D02*
X8319933Y-12212794D01*
X8319933Y-12212794D02*
X8326366Y-12229116D01*
X8326366Y-12229116D02*
X8332787Y-12245408D01*
X8332787Y-12245408D02*
X8340604Y-12263781D01*
X8340604Y-12263781D02*
X8348421Y-12282155D01*
X8348421Y-12282155D02*
X8354920Y-12295748D01*
X8354920Y-12295748D02*
X8361420Y-12309342D01*
X8361420Y-12309342D02*
X8367176Y-12319389D01*
X8367176Y-12319389D02*
X8372932Y-12329436D01*
X8372932Y-12329436D02*
X8383594Y-12343540D01*
X8383594Y-12343540D02*
X8394257Y-12353820D01*
X8394257Y-12353820D02*
X8405982Y-12362360D01*
X8405982Y-12362360D02*
X8419661Y-12370560D01*
X8419661Y-12370560D02*
X8434317Y-12377360D01*
X8434317Y-12377360D02*
X8450629Y-12382840D01*
X8450629Y-12382840D02*
X8469321Y-12387130D01*
X8469321Y-12387130D02*
X8484551Y-12389170D01*
X8484551Y-12389170D02*
X8499780Y-12391210D01*
X8499780Y-12391210D02*
X8518684Y-12392380D01*
X8518684Y-12392380D02*
X8537588Y-12393550D01*
X8537588Y-12393550D02*
X8554713Y-12393750D01*
X8554713Y-12393750D02*
X8571859Y-12393950D01*
X8571859Y-12393950D02*
X8589021Y-12394150D01*
X8589021Y-12394150D02*
X8606153Y-12394350D01*
X8606153Y-12394350D02*
X8625675Y-12393750D01*
X8625675Y-12393750D02*
X8645223Y-12393150D01*
X8645223Y-12393150D02*
X8664788Y-12392550D01*
X8664788Y-12392550D02*
X8684318Y-12391950D01*
X8684318Y-12391950D02*
X8703788Y-12390780D01*
X8703788Y-12390780D02*
X8723282Y-12389610D01*
X8723282Y-12389610D02*
X8742794Y-12388440D01*
X8742794Y-12388440D02*
X8762271Y-12387270D01*
X8762271Y-12387270D02*
X8781708Y-12385680D01*
X8781708Y-12385680D02*
X8801171Y-12384090D01*
X8801171Y-12384090D02*
X8820651Y-12382500D01*
X8820651Y-12382500D02*
X8840096Y-12380910D01*
X8840096Y-12380910D02*
X8859502Y-12379010D01*
X8859502Y-12379010D02*
X8878932Y-12377110D01*
X8878932Y-12377110D02*
X8898381Y-12375210D01*
X8898381Y-12375210D02*
X8917794Y-12373310D01*
X8917794Y-12373310D02*
X8937178Y-12371150D01*
X8937178Y-12371150D02*
X8956588Y-12368980D01*
X8956588Y-12368980D02*
X8976015Y-12366810D01*
X8976015Y-12366810D02*
X8995407Y-12364640D01*
X8995407Y-12364640D02*
X9014781Y-12362230D01*
X9014781Y-12362230D02*
X9034179Y-12359820D01*
X9034179Y-12359820D02*
X9053596Y-12357410D01*
X9053596Y-12357410D02*
X9072977Y-12355000D01*
X9072977Y-12355000D02*
X9092320Y-12352370D01*
X9092320Y-12352370D02*
X9111686Y-12349740D01*
X9111686Y-12349740D02*
X9131071Y-12347100D01*
X9131071Y-12347100D02*
X9150420Y-12344470D01*
X9150420Y-12344470D02*
X9169741Y-12341590D01*
X9169741Y-12341590D02*
X9189087Y-12338710D01*
X9189087Y-12338710D02*
X9208450Y-12335830D01*
X9208450Y-12335830D02*
X9227778Y-12332950D01*
X9227778Y-12332950D02*
X9247057Y-12329850D01*
X9247057Y-12329850D02*
X9266360Y-12326750D01*
X9266360Y-12326750D02*
X9285680Y-12323640D01*
X9285680Y-12323640D02*
X9304966Y-12320540D01*
X9304966Y-12320540D02*
X9324160Y-12317170D01*
X9324160Y-12317170D02*
X9343378Y-12313790D01*
X9343378Y-12313790D02*
X9362613Y-12310410D01*
X9362613Y-12310410D02*
X9381814Y-12307040D01*
X9381814Y-12307040D02*
X9400966Y-12303340D01*
X9400966Y-12303340D02*
X9420141Y-12299630D01*
X9420141Y-12299630D02*
X9439334Y-12295920D01*
X9439334Y-12295920D02*
X9458492Y-12292220D01*
X9458492Y-12292220D02*
X9477591Y-12288080D01*
X9477591Y-12288080D02*
X9496713Y-12283940D01*
X9496713Y-12283940D02*
X9515853Y-12279790D01*
X9515853Y-12279790D02*
X9534959Y-12275650D01*
X9534959Y-12275650D02*
X9552794Y-12271220D01*
X9552794Y-12271220D02*
X9570652Y-12266780D01*
X9570652Y-12266780D02*
X9588527Y-12262340D01*
X9588527Y-12262340D02*
X9606369Y-12257900D01*
X9606369Y-12257900D02*
X9626123Y-12251870D01*
X9626123Y-12251870D02*
X9645877Y-12245840D01*
X9645877Y-12245840D02*
X9660894Y-12239770D01*
X9660894Y-12239770D02*
X9675911Y-12233700D01*
X9675911Y-12233700D02*
X9693668Y-12223840D01*
X9693668Y-12223840D02*
X9708154Y-12212965D01*
X9708154Y-12212965D02*
X9720303Y-12200603D01*
X9720303Y-12200603D02*
X9731051Y-12186415D01*
X9731051Y-12186415D02*
X9737461Y-12175454D01*
X9737461Y-12175454D02*
X9742981Y-12162923D01*
X9742981Y-12162923D02*
X9747101Y-12148755D01*
X9747101Y-12148755D02*
X9751221Y-12134588D01*
X9751221Y-12134588D02*
X9753071Y-12120378D01*
X9753071Y-12120378D02*
X9754921Y-12106168D01*
X9754921Y-12106168D02*
X9755121Y-12092277D01*
X9755121Y-12092277D02*
X9754101Y-12079023D01*
X9754101Y-12079023D02*
X9751471Y-12064027D01*
X9751471Y-12064027D02*
X9748841Y-12049031D01*
X9748841Y-12049031D02*
X9744271Y-12029022D01*
X9744271Y-12029022D02*
X9739701Y-12009014D01*
X9739701Y-12009014D02*
X9735161Y-11991751D01*
X9735161Y-11991751D02*
X9730611Y-11974466D01*
X9730611Y-11974466D02*
X9726061Y-11957166D01*
X9726061Y-11957166D02*
X9721521Y-11939897D01*
X9721521Y-11939897D02*
X9716591Y-11922730D01*
X9716591Y-11922730D02*
X9711651Y-11905541D01*
X9711651Y-11905541D02*
X9706711Y-11888336D01*
X9706711Y-11888336D02*
X9701771Y-11871162D01*
X9701771Y-11871162D02*
X9696591Y-11854070D01*
X9696591Y-11854070D02*
X9691401Y-11836955D01*
X9691401Y-11836955D02*
X9686211Y-11819825D01*
X9686211Y-11819825D02*
X9681031Y-11802726D01*
X9681031Y-11802726D02*
X9675661Y-11785675D01*
X9675661Y-11785675D02*
X9670281Y-11768603D01*
X9670281Y-11768603D02*
X9664901Y-11751515D01*
X9664901Y-11751515D02*
X9659531Y-11734459D01*
X9659531Y-11734459D02*
X9654001Y-11717461D01*
X9654001Y-11717461D02*
X9648461Y-11700442D01*
X9648461Y-11700442D02*
X9642921Y-11683408D01*
X9642921Y-11683408D02*
X9637391Y-11666404D01*
X9637391Y-11666404D02*
X9631731Y-11649470D01*
X9631731Y-11649470D02*
X9626071Y-11632515D01*
X9626071Y-11632515D02*
X9620401Y-11615544D01*
X9620401Y-11615544D02*
X9614741Y-11598604D01*
X9614741Y-11598604D02*
X9608301Y-11579728D01*
X9608301Y-11579728D02*
X9601851Y-11560829D01*
X9601851Y-11560829D02*
X9595401Y-11541913D01*
X9595401Y-11541913D02*
X9588961Y-11523030D01*
X9588961Y-11523030D02*
X9582441Y-11504197D01*
X9582441Y-11504197D02*
X9575921Y-11485341D01*
X9575921Y-11485341D02*
X9569391Y-11466467D01*
X9569391Y-11466467D02*
X9562871Y-11447626D01*
X9562871Y-11447626D02*
X9556291Y-11428793D01*
X9556291Y-11428793D02*
X9549701Y-11409937D01*
X9549701Y-11409937D02*
X9543111Y-11391063D01*
X9543111Y-11391063D02*
X9536531Y-11372222D01*
X9536531Y-11372222D02*
X9529911Y-11353442D01*
X9529911Y-11353442D02*
X9523281Y-11334639D01*
X9523281Y-11334639D02*
X9516641Y-11315818D01*
X9516641Y-11315818D02*
X9510021Y-11297031D01*
X9510021Y-11297031D02*
X9503351Y-11278240D01*
X9503351Y-11278240D02*
X9496671Y-11259426D01*
X9496671Y-11259426D02*
X9489981Y-11240595D01*
X9489981Y-11240595D02*
X9483301Y-11221797D01*
X9483301Y-11221797D02*
X9476591Y-11203038D01*
X9476591Y-11203038D02*
X9469881Y-11184256D01*
X9469881Y-11184256D02*
X9463161Y-11165456D01*
X9463161Y-11165456D02*
X9456451Y-11146690D01*
X9456451Y-11146690D02*
X9449711Y-11127910D01*
X9449711Y-11127910D02*
X9442965Y-11109107D01*
X9442965Y-11109107D02*
X9436213Y-11090286D01*
X9436213Y-11090286D02*
X9429473Y-11071499D01*
X9429473Y-11071499D02*
X9422693Y-11052730D01*
X9422693Y-11052730D02*
X9415904Y-11033936D01*
X9415904Y-11033936D02*
X9409110Y-11015126D01*
X9409110Y-11015126D02*
X9402328Y-10996350D01*
X9402328Y-10996350D02*
X9395537Y-10977612D01*
X9395537Y-10977612D02*
X9388738Y-10958851D01*
X9388738Y-10958851D02*
X9381933Y-10940073D01*
X9381933Y-10940073D02*
X9375140Y-10921328D01*
X9375140Y-10921328D02*
X9368318Y-10902612D01*
X9368318Y-10902612D02*
X9361487Y-10883872D01*
X9361487Y-10883872D02*
X9354650Y-10865115D01*
X9354650Y-10865115D02*
X9347825Y-10846392D01*
X9347825Y-10846392D02*
X9340982Y-10827676D01*
X9340982Y-10827676D02*
X9334130Y-10808936D01*
X9334130Y-10808936D02*
X9327272Y-10790179D01*
X9327272Y-10790179D02*
X9320426Y-10771455D01*
X9320426Y-10771455D02*
X9313572Y-10752750D01*
X9313572Y-10752750D02*
X9306709Y-10734020D01*
X9306709Y-10734020D02*
X9299840Y-10715274D01*
X9299840Y-10715274D02*
X9292983Y-10696561D01*
X9292983Y-10696561D02*
X9286097Y-10677866D01*
X9286097Y-10677866D02*
X9279202Y-10659147D01*
X9279202Y-10659147D02*
X9272301Y-10640412D01*
X9272301Y-10640412D02*
X9265412Y-10621710D01*
X9265412Y-10621710D02*
X9258515Y-10603025D01*
X9258515Y-10603025D02*
X9251610Y-10584317D01*
X9251610Y-10584317D02*
X9244698Y-10565592D01*
X9244698Y-10565592D02*
X9237799Y-10546900D01*
X9237799Y-10546900D02*
X9230871Y-10528195D01*
X9230871Y-10528195D02*
X9223934Y-10509465D01*
X9223934Y-10509465D02*
X9216990Y-10490719D01*
X9216990Y-10490719D02*
X9210059Y-10472006D01*
X9210059Y-10472006D02*
X9203109Y-10453301D01*
X9203109Y-10453301D02*
X9196150Y-10434571D01*
X9196150Y-10434571D02*
X9189185Y-10415825D01*
X9189185Y-10415825D02*
X9182233Y-10397112D01*
X9182233Y-10397112D02*
X9175273Y-10378449D01*
X9175273Y-10378449D02*
X9168304Y-10359762D01*
X9168304Y-10359762D02*
X9161329Y-10341058D01*
X9161329Y-10341058D02*
X9154366Y-10322388D01*
X9154366Y-10322388D02*
X9147385Y-10303693D01*
X9147385Y-10303693D02*
X9140395Y-10284974D01*
X9140395Y-10284974D02*
X9133398Y-10266238D01*
X9133398Y-10266238D02*
X9126414Y-10247536D01*
X9126414Y-10247536D02*
X9119422Y-10228873D01*
X9119422Y-10228873D02*
X9112421Y-10210186D01*
X9112421Y-10210186D02*
X9105414Y-10191482D01*
X9105414Y-10191482D02*
X9098419Y-10172812D01*
X9098419Y-10172812D02*
X9091395Y-10154128D01*
X9091395Y-10154128D02*
X9084362Y-10135420D01*
X9084362Y-10135420D02*
X9077323Y-10116694D01*
X9077323Y-10116694D02*
X9070297Y-10098003D01*
X9070297Y-10098003D02*
X9063273Y-10079350D01*
X9063273Y-10079350D02*
X9056240Y-10060674D01*
X9056240Y-10060674D02*
X9049201Y-10041981D01*
X9049201Y-10041981D02*
X9042175Y-10023321D01*
X9042175Y-10023321D02*
X9035130Y-10004669D01*
X9035130Y-10004669D02*
X9028076Y-9985992D01*
X9028076Y-9985992D02*
X9021015Y-9967299D01*
X9021015Y-9967299D02*
X9013967Y-9948640D01*
X9013967Y-9948640D02*
X9006901Y-9929997D01*
X9006901Y-9929997D02*
X8999826Y-9911332D01*
X8999826Y-9911332D02*
X8992744Y-9892649D01*
X8992744Y-9892649D02*
X8985675Y-9874000D01*
X8985675Y-9874000D02*
X8978608Y-9855380D01*
X8978608Y-9855380D02*
X8971533Y-9836735D01*
X8971533Y-9836735D02*
X8964451Y-9818074D01*
X8964451Y-9818074D02*
X8957382Y-9799446D01*
X8957382Y-9799446D02*
X8950284Y-9780814D01*
X8950284Y-9780814D02*
X8943177Y-9762160D01*
X8943177Y-9762160D02*
X8936063Y-9743488D01*
X8936063Y-9743488D02*
X8928962Y-9724849D01*
X8928962Y-9724849D02*
X8921842Y-9706207D01*
X8921842Y-9706207D02*
X8914713Y-9687542D01*
X8914713Y-9687542D02*
X8907578Y-9668859D01*
X8907578Y-9668859D02*
X8900456Y-9650210D01*
X8900456Y-9650210D02*
X8893337Y-9631611D01*
X8893337Y-9631611D02*
X8886209Y-9612987D01*
X8886209Y-9612987D02*
X8879074Y-9594347D01*
X8879074Y-9594347D02*
X8871952Y-9575741D01*
X8871952Y-9575741D02*
X8864801Y-9557120D01*
X8864801Y-9557120D02*
X8857641Y-9538476D01*
X8857641Y-9538476D02*
X8850474Y-9519814D01*
X8850474Y-9519814D02*
X8843320Y-9501186D01*
X8843320Y-9501186D02*
X8836474Y-9483377D01*
X8836474Y-9483377D02*
X8829611Y-9465526D01*
X8829611Y-9465526D02*
X8822759Y-9447703D01*
X8822759Y-9447703D02*
X8815898Y-9429851D01*
X8815898Y-9429851D02*
X8809021Y-9411957D01*
X8809021Y-9411957D02*
X8802155Y-9394092D01*
X8802155Y-9394092D02*
X8795295Y-9376268D01*
X8795295Y-9376268D02*
X8788418Y-9358402D01*
X8788418Y-9358402D02*
X8781552Y-9340566D01*
X8781552Y-9340566D02*
X8781567Y-9325571D01*
X8781567Y-9325571D02*
X8781581Y-9310541D01*
X8781581Y-9310541D02*
X8781596Y-9295536D01*
X8781596Y-9295536D02*
X8782166Y-9280965D01*
X8782166Y-9280965D02*
X8782736Y-9266394D01*
X8782736Y-9266394D02*
X8784689Y-9252991D01*
X8784689Y-9252991D02*
X8786644Y-9239588D01*
X8786644Y-9239588D02*
X8790106Y-9226780D01*
X8790106Y-9226780D02*
X8793568Y-9213972D01*
X8793568Y-9213972D02*
X8798942Y-9200102D01*
X8798942Y-9200102D02*
X8804316Y-9186232D01*
X8804316Y-9186232D02*
X8812535Y-9169371D01*
X8812535Y-9169371D02*
X8820773Y-9152469D01*
X8820773Y-9152469D02*
X8828998Y-9135595D01*
X8828998Y-9135595D02*
X8838790Y-9118368D01*
X8838790Y-9118368D02*
X8848582Y-9101142D01*
X8848582Y-9101142D02*
X8857461Y-9089163D01*
X8857461Y-9089163D02*
X8866765Y-9079775D01*
X8866765Y-9079775D02*
X8877979Y-9072001D01*
X8877979Y-9072001D02*
X8891446Y-9065671D01*
X8891446Y-9065671D02*
X8908183Y-9060063D01*
X8908183Y-9060063D02*
X8929084Y-9054371D01*
X8929084Y-9054371D02*
X8946629Y-9050463D01*
X8946629Y-9050463D02*
X8964173Y-9046555D01*
X8964173Y-9046555D02*
X8985032Y-9043411D01*
X8985032Y-9043411D02*
X9005890Y-9040267D01*
X9005890Y-9040267D02*
X9025360Y-9038527D01*
X9025360Y-9038527D02*
X9044854Y-9036785D01*
X9044854Y-9036785D02*
X9064366Y-9035041D01*
X9064366Y-9035041D02*
X9083843Y-9033301D01*
X9083843Y-9033301D02*
X9103355Y-9032198D01*
X9103355Y-9032198D02*
X9122892Y-9031093D01*
X9122892Y-9031093D02*
X9142446Y-9029988D01*
X9142446Y-9029988D02*
X9161965Y-9028885D01*
X9161965Y-9028885D02*
X9181467Y-9028025D01*
X9181467Y-9028025D02*
X9200993Y-9027165D01*
X9200993Y-9027165D02*
X9220537Y-9026305D01*
X9220537Y-9026305D02*
X9240046Y-9025445D01*
X9240046Y-9025445D02*
X9259558Y-9024705D01*
X9259558Y-9024705D02*
X9279094Y-9023965D01*
X9279094Y-9023965D02*
X9298649Y-9023225D01*
X9298649Y-9023225D02*
X9318168Y-9022485D01*
X9318168Y-9022485D02*
X9337670Y-9021795D01*
X9337670Y-9021795D02*
X9357196Y-9021105D01*
X9357196Y-9021105D02*
X9376740Y-9020415D01*
X9376740Y-9020415D02*
X9396249Y-9019725D01*
X9396249Y-9019725D02*
X9415771Y-9019065D01*
X9415771Y-9019065D02*
X9435319Y-9018405D01*
X9435319Y-9018405D02*
X9454884Y-9017745D01*
X9454884Y-9017745D02*
X9474414Y-9017085D01*
X9474414Y-9017085D02*
X9491857Y-9016395D01*
X9491857Y-9016395D02*
X9509322Y-9015705D01*
X9509322Y-9015705D02*
X9526803Y-9015015D01*
X9526803Y-9015015D02*
X9544253Y-9014325D01*
X9544253Y-9014325D02*
X9561653Y-9013200D01*
X9561653Y-9013200D02*
X9579076Y-9012073D01*
X9579076Y-9012073D02*
X9596514Y-9010946D01*
X9596514Y-9010946D02*
X9613922Y-9009821D01*
X9613922Y-9009821D02*
X9632231Y-9007953D01*
X9632231Y-9007953D02*
X9650540Y-9006085D01*
X9650540Y-9006085D02*
X9666874Y-9003749D01*
X9666874Y-9003749D02*
X9683208Y-9001413D01*
X9683208Y-9001413D02*
X9700286Y-8998121D01*
X9700286Y-8998121D02*
X9717363Y-8994829D01*
X9717363Y-8994829D02*
X9734377Y-8990687D01*
X9734377Y-8990687D02*
X9751390Y-8986545D01*
X9751390Y-8986545D02*
X9768085Y-8981192D01*
X9768085Y-8981192D02*
X9784781Y-8975840D01*
X9784781Y-8975840D02*
X9798820Y-8969213D01*
X9798820Y-8969213D02*
X9812860Y-8962586D01*
X9812860Y-8962586D02*
X9826879Y-8953622D01*
X9826879Y-8953622D02*
X9839709Y-8943554D01*
X9839709Y-8943554D02*
X9851518Y-8932211D01*
X9851518Y-8932211D02*
X9862478Y-8919552D01*
X9862478Y-8919552D02*
X9871098Y-8907020D01*
X9871098Y-8907020D02*
X9878408Y-8892874D01*
X9878408Y-8892874D02*
X9884358Y-8876688D01*
X9884358Y-8876688D02*
X9888948Y-8858167D01*
X9888948Y-8858167D02*
X9891068Y-8842958D01*
X9891068Y-8842958D02*
X9893198Y-8827750D01*
X9893198Y-8827750D02*
X9894098Y-8809441D01*
X9894098Y-8809441D02*
X9894998Y-8791132D01*
X9894998Y-8791132D02*
X9894598Y-8774293D01*
X9894598Y-8774293D02*
X9894198Y-8757434D01*
X9894198Y-8757434D02*
X9893798Y-8740559D01*
X9893798Y-8740559D02*
X9893398Y-8723714D01*
X9893398Y-8723714D02*
X9892158Y-8706897D01*
X9892158Y-8706897D02*
X9890918Y-8690059D01*
X9890918Y-8690059D02*
X9889678Y-8673205D01*
X9889678Y-8673205D02*
X9888438Y-8656382D01*
X9888438Y-8656382D02*
X9886788Y-8639607D01*
X9886788Y-8639607D02*
X9885128Y-8622811D01*
X9885128Y-8622811D02*
X9883468Y-8606000D01*
X9883468Y-8606000D02*
X9881808Y-8589219D01*
X9881808Y-8589219D02*
X9879518Y-8569028D01*
X9879518Y-8569028D02*
X9877228Y-8548811D01*
X9877228Y-8548811D02*
X9874928Y-8528576D01*
X9874928Y-8528576D02*
X9872638Y-8508378D01*
X9872638Y-8508378D02*
X9870068Y-8488186D01*
X9870068Y-8488186D02*
X9867498Y-8467970D01*
X9867498Y-8467970D02*
X9864928Y-8447735D01*
X9864928Y-8447735D02*
X9862358Y-8427536D01*
X9862358Y-8427536D02*
X9859518Y-8407377D01*
X9859518Y-8407377D02*
X9856668Y-8387192D01*
X9856668Y-8387192D02*
X9853818Y-8366989D01*
X9853818Y-8366989D02*
X9850978Y-8346822D01*
X9850978Y-8346822D02*
X9847878Y-8326726D01*
X9847878Y-8326726D02*
X9844778Y-8306605D01*
X9844778Y-8306605D02*
X9841668Y-8286466D01*
X9841668Y-8286466D02*
X9838568Y-8266363D01*
X9838568Y-8266363D02*
X9835208Y-8246299D01*
X9835208Y-8246299D02*
X9831838Y-8226210D01*
X9831838Y-8226210D02*
X9828468Y-8206102D01*
X9828468Y-8206102D02*
X9825108Y-8186031D01*
X9825108Y-8186031D02*
X9821488Y-8165999D01*
X9821488Y-8165999D02*
X9817868Y-8145942D01*
X9817868Y-8145942D02*
X9814238Y-8125866D01*
X9814238Y-8125866D02*
X9810618Y-8105827D01*
X9810618Y-8105827D02*
X9806748Y-8085869D01*
X9806748Y-8085869D02*
X9802868Y-8065886D01*
X9802868Y-8065886D02*
X9798988Y-8045885D01*
X9798988Y-8045885D02*
X9795118Y-8025920D01*
X9795118Y-8025920D02*
X9790968Y-8005994D01*
X9790968Y-8005994D02*
X9786818Y-7986043D01*
X9786818Y-7986043D02*
X9782658Y-7966074D01*
X9782658Y-7966074D02*
X9778508Y-7946141D01*
X9778508Y-7946141D02*
X9774098Y-7926279D01*
X9774098Y-7926279D02*
X9769678Y-7906391D01*
X9769678Y-7906391D02*
X9765258Y-7886486D01*
X9765258Y-7886486D02*
X9760838Y-7866616D01*
X9760838Y-7866616D02*
X9756128Y-7846828D01*
X9756128Y-7846828D02*
X9751408Y-7827015D01*
X9751408Y-7827015D02*
X9746688Y-7807184D01*
X9746688Y-7807184D02*
X9741978Y-7787389D01*
X9741978Y-7787389D02*
X9736968Y-7767665D01*
X9736968Y-7767665D02*
X9731958Y-7747915D01*
X9731958Y-7747915D02*
X9726938Y-7728148D01*
X9726938Y-7728148D02*
X9721928Y-7708417D01*
X9721928Y-7708417D02*
X9716578Y-7688777D01*
X9716578Y-7688777D02*
X9711218Y-7669113D01*
X9711218Y-7669113D02*
X9705858Y-7649431D01*
X9705858Y-7649431D02*
X9700508Y-7629784D01*
X9700508Y-7629784D02*
X9694788Y-7610262D01*
X9694788Y-7610262D02*
X9689058Y-7590714D01*
X9689058Y-7590714D02*
X9683328Y-7571149D01*
X9683328Y-7571149D02*
X9677608Y-7551619D01*
X9677608Y-7551619D02*
X9671488Y-7532213D01*
X9671488Y-7532213D02*
X9665358Y-7512783D01*
X9665358Y-7512783D02*
X9659218Y-7493334D01*
X9659218Y-7493334D02*
X9653098Y-7473921D01*
X9653098Y-7473921D02*
X9646498Y-7454674D01*
X9646498Y-7454674D02*
X9639888Y-7435403D01*
X9639888Y-7435403D02*
X9633278Y-7416114D01*
X9633278Y-7416114D02*
X9626678Y-7396860D01*
X9626678Y-7396860D02*
X9620268Y-7379247D01*
X9620268Y-7379247D02*
X9613848Y-7361613D01*
X9613848Y-7361613D02*
X9607428Y-7343961D01*
X9607428Y-7343961D02*
X9601018Y-7326342D01*
X9601018Y-7326342D02*
X9594398Y-7308814D01*
X9594398Y-7308814D02*
X9587768Y-7291264D01*
X9587768Y-7291264D02*
X9581138Y-7273698D01*
X9581138Y-7273698D02*
X9574518Y-7256163D01*
X9574518Y-7256163D02*
X9567638Y-7238731D01*
X9567638Y-7238731D02*
X9560758Y-7221276D01*
X9560758Y-7221276D02*
X9553868Y-7203806D01*
X9553868Y-7203806D02*
X9546988Y-7186367D01*
X9546988Y-7186367D02*
X9539838Y-7169062D01*
X9539838Y-7169062D02*
X9532678Y-7151735D01*
X9532678Y-7151735D02*
X9525508Y-7134392D01*
X9525508Y-7134392D02*
X9518358Y-7117080D01*
X9518358Y-7117080D02*
X9510898Y-7099913D01*
X9510898Y-7099913D02*
X9503428Y-7082724D01*
X9503428Y-7082724D02*
X9495948Y-7065520D01*
X9495948Y-7065520D02*
X9488488Y-7048346D01*
X9488488Y-7048346D02*
X9480708Y-7031349D01*
X9480708Y-7031349D02*
X9472918Y-7014330D01*
X9472918Y-7014330D02*
X9465128Y-6997295D01*
X9465128Y-6997295D02*
X9457348Y-6980291D01*
X9457348Y-6980291D02*
X9449288Y-6963410D01*
X9449288Y-6963410D02*
X9441214Y-6946508D01*
X9441214Y-6946508D02*
X9433133Y-6929591D01*
X9433133Y-6929591D02*
X9425066Y-6912704D01*
X9425066Y-6912704D02*
X9416801Y-6896173D01*
X9416801Y-6896173D02*
X9408525Y-6879622D01*
X9408525Y-6879622D02*
X9400242Y-6863055D01*
X9400242Y-6863055D02*
X9391974Y-6846518D01*
X9391974Y-6846518D02*
X9383369Y-6830189D01*
X9383369Y-6830189D02*
X9374753Y-6813840D01*
X9374753Y-6813840D02*
X9366129Y-6797475D01*
X9366129Y-6797475D02*
X9357521Y-6781140D01*
X9357521Y-6781140D02*
X9348492Y-6765023D01*
X9348492Y-6765023D02*
X9339451Y-6748886D01*
X9339451Y-6748886D02*
X9330402Y-6732734D01*
X9330402Y-6732734D02*
X9321369Y-6716611D01*
X9321369Y-6716611D02*
X9311799Y-6700813D01*
X9311799Y-6700813D02*
X9302217Y-6684994D01*
X9302217Y-6684994D02*
X9292626Y-6669161D01*
X9292626Y-6669161D02*
X9283052Y-6653357D01*
X9283052Y-6653357D02*
X9272803Y-6638036D01*
X9272803Y-6638036D02*
X9262540Y-6622696D01*
X9262540Y-6622696D02*
X9252269Y-6607341D01*
X9252269Y-6607341D02*
X9242015Y-6592014D01*
X9242015Y-6592014D02*
X9230652Y-6576615D01*
X9230652Y-6576615D02*
X9219288Y-6561215D01*
X9219288Y-6561215D02*
X9208158Y-6547324D01*
X9208158Y-6547324D02*
X9197028Y-6533433D01*
X9197028Y-6533433D02*
X9184199Y-6518947D01*
X9184199Y-6518947D02*
X9171369Y-6504461D01*
X9171369Y-6504461D02*
X9158859Y-6492099D01*
X9158859Y-6492099D02*
X9146348Y-6479737D01*
X9146348Y-6479737D02*
X9131182Y-6467247D01*
X9131182Y-6467247D02*
X9116016Y-6454758D01*
X9116016Y-6454758D02*
X9101276Y-6444732D01*
X9101276Y-6444732D02*
X9086747Y-6436363D01*
X9086747Y-6436363D02*
X9072091Y-6429736D01*
X9072091Y-6429736D02*
X9057435Y-6423109D01*
X9057435Y-6423109D02*
X9040124Y-6417119D01*
X9040124Y-6417119D02*
X9022813Y-6411129D01*
X9022813Y-6411129D02*
X9006713Y-6406732D01*
X9006713Y-6406732D02*
X8990612Y-6402335D01*
X8990612Y-6402335D02*
X8973301Y-6398490D01*
X8973301Y-6398490D02*
X8955990Y-6394646D01*
X8955990Y-6394646D02*
X8939253Y-6391693D01*
X8939253Y-6391693D02*
X8922515Y-6388741D01*
X8922515Y-6388741D02*
X8905204Y-6386383D01*
X8905204Y-6386383D02*
X8887893Y-6384026D01*
X8887893Y-6384026D02*
X8870816Y-6382369D01*
X8870816Y-6382369D02*
X8853738Y-6380712D01*
X8853738Y-6380712D02*
X8836534Y-6379672D01*
X8836534Y-6379672D02*
X8819329Y-6378630D01*
X8819329Y-6378630D02*
X8802214Y-6377950D01*
X8802214Y-6377950D02*
X8785079Y-6377270D01*
X8785079Y-6377270D02*
X8767927Y-6376590D01*
X8767927Y-6376590D02*
X8750807Y-6375910D01*
X8750807Y-6375910D02*
X8747175Y-6362869D01*
X8747175Y-6362869D02*
X8743543Y-6349827D01*
X8743543Y-6349827D02*
X8738493Y-6333371D01*
X8738493Y-6333371D02*
X8733436Y-6316894D01*
X8733436Y-6316894D02*
X8728375Y-6300401D01*
X8728375Y-6300401D02*
X8723323Y-6283939D01*
X8723323Y-6283939D02*
X8717795Y-6267610D01*
X8717795Y-6267610D02*
X8712260Y-6251260D01*
X8712260Y-6251260D02*
X8706720Y-6234896D01*
X8706720Y-6234896D02*
X8701190Y-6218561D01*
X8701190Y-6218561D02*
X8695238Y-6202401D01*
X8695238Y-6202401D02*
X8689278Y-6186222D01*
X8689278Y-6186222D02*
X8683313Y-6170027D01*
X8683313Y-6170027D02*
X8677358Y-6153862D01*
X8677358Y-6153862D02*
X8669591Y-6135093D01*
X8669591Y-6135093D02*
X8661814Y-6116299D01*
X8661814Y-6116299D02*
X8654030Y-6097489D01*
X8654030Y-6097489D02*
X8646261Y-6078713D01*
X8646261Y-6078713D02*
X8637943Y-6060166D01*
X8637943Y-6060166D02*
X8629614Y-6041596D01*
X8629614Y-6041596D02*
X8621277Y-6023010D01*
X8621277Y-6023010D02*
X8612956Y-6004456D01*
X8612956Y-6004456D02*
X8604245Y-5986100D01*
X8604245Y-5986100D02*
X8595523Y-5967722D01*
X8595523Y-5967722D02*
X8586793Y-5949326D01*
X8586793Y-5949326D02*
X8578079Y-5930964D01*
X8578079Y-5930964D02*
X8569039Y-5912757D01*
X8569039Y-5912757D02*
X8559988Y-5894527D01*
X8559988Y-5894527D02*
X8550928Y-5876280D01*
X8550928Y-5876280D02*
X8541885Y-5858066D01*
X8541885Y-5858066D02*
X8532580Y-5840018D01*
X8532580Y-5840018D02*
X8523263Y-5821948D01*
X8523263Y-5821948D02*
X8513938Y-5803860D01*
X8513938Y-5803860D02*
X8504629Y-5785806D01*
X8504629Y-5785806D02*
X8495069Y-5767875D01*
X8495069Y-5767875D02*
X8485497Y-5749921D01*
X8485497Y-5749921D02*
X8475916Y-5731951D01*
X8475916Y-5731951D02*
X8466353Y-5714013D01*
X8466353Y-5714013D02*
X8456549Y-5696209D01*
X8456549Y-5696209D02*
X8446733Y-5678383D01*
X8446733Y-5678383D02*
X8436908Y-5660540D01*
X8436908Y-5660540D02*
X8427101Y-5642730D01*
X8427101Y-5642730D02*
X8417095Y-5625074D01*
X8417095Y-5625074D02*
X8407077Y-5607397D01*
X8407077Y-5607397D02*
X8397050Y-5589703D01*
X8397050Y-5589703D02*
X8387041Y-5572041D01*
X8387041Y-5572041D02*
X8376791Y-5554503D01*
X8376791Y-5554503D02*
X8366529Y-5536942D01*
X8366529Y-5536942D02*
X8356257Y-5519365D01*
X8356257Y-5519365D02*
X8346004Y-5501820D01*
X8346004Y-5501820D02*
X8335532Y-5484430D01*
X8335532Y-5484430D02*
X8325046Y-5467018D01*
X8325046Y-5467018D02*
X8314551Y-5449590D01*
X8314551Y-5449590D02*
X8304075Y-5432194D01*
X8304075Y-5432194D02*
X8293338Y-5414952D01*
X8293338Y-5414952D02*
X8282587Y-5397689D01*
X8282587Y-5397689D02*
X8271826Y-5380410D01*
X8271826Y-5380410D02*
X8261084Y-5363162D01*
X8261084Y-5363162D02*
X8249977Y-5346558D01*
X8249977Y-5346558D02*
X8238939Y-5329454D01*
X8238939Y-5329454D02*
X8227892Y-5312335D01*
X8227892Y-5312335D02*
X8216864Y-5295246D01*
X8216864Y-5295246D02*
X8205511Y-5278408D01*
X8205511Y-5278408D02*
X8194143Y-5261548D01*
X8194143Y-5261548D02*
X8182766Y-5244673D01*
X8182766Y-5244673D02*
X8171409Y-5227829D01*
X8171409Y-5227829D02*
X8160342Y-5212200D01*
X8160342Y-5212200D02*
X8149262Y-5196551D01*
X8149262Y-5196551D02*
X8138171Y-5180889D01*
X8138171Y-5180889D02*
X8127101Y-5165254D01*
X8127101Y-5165254D02*
X8115642Y-5149890D01*
X8115642Y-5149890D02*
X8104169Y-5134508D01*
X8104169Y-5134508D02*
X8092685Y-5119111D01*
X8092685Y-5119111D02*
X8081221Y-5103741D01*
X8081221Y-5103741D02*
X8069370Y-5088686D01*
X8069370Y-5088686D02*
X8057503Y-5073611D01*
X8057503Y-5073611D02*
X8045626Y-5058522D01*
X8045626Y-5058522D02*
X8033770Y-5043461D01*
X8033770Y-5043461D02*
X8021484Y-5028734D01*
X8021484Y-5028734D02*
X8009181Y-5013988D01*
X8009181Y-5013988D02*
X7996868Y-4999229D01*
X7996868Y-4999229D02*
X7984577Y-4984497D01*
X7984577Y-4984497D02*
X7971866Y-4970131D01*
X7971866Y-4970131D02*
X7959139Y-4955747D01*
X7959139Y-4955747D02*
X7946400Y-4941349D01*
X7946400Y-4941349D02*
X7933685Y-4926978D01*
X7933685Y-4926978D02*
X7920539Y-4913025D01*
X7920539Y-4913025D02*
X7907376Y-4899055D01*
X7907376Y-4899055D02*
X7894202Y-4885073D01*
X7894202Y-4885073D02*
X7881051Y-4871115D01*
X7881051Y-4871115D02*
X7867448Y-4857587D01*
X7867448Y-4857587D02*
X7853829Y-4844042D01*
X7853829Y-4844042D02*
X7840197Y-4830485D01*
X7840197Y-4830485D02*
X7826590Y-4816952D01*
X7826590Y-4816952D02*
X7812521Y-4803891D01*
X7812521Y-4803891D02*
X7798434Y-4790813D01*
X7798434Y-4790813D02*
X7784334Y-4777723D01*
X7784334Y-4777723D02*
X7770260Y-4764658D01*
X7770260Y-4764658D02*
X7755745Y-4752116D01*
X7755745Y-4752116D02*
X7741212Y-4739559D01*
X7741212Y-4739559D02*
X7726666Y-4726991D01*
X7726666Y-4726991D02*
X7712146Y-4714445D01*
X7712146Y-4714445D02*
X7697196Y-4702445D01*
X7697196Y-4702445D02*
X7682228Y-4690429D01*
X7682228Y-4690429D02*
X7667246Y-4678403D01*
X7667246Y-4678403D02*
X7652290Y-4666399D01*
X7652290Y-4666399D02*
X7636884Y-4654961D01*
X7636884Y-4654961D02*
X7621459Y-4643509D01*
X7621459Y-4643509D02*
X7606019Y-4632046D01*
X7606019Y-4632046D02*
X7590608Y-4620604D01*
X7590608Y-4620604D02*
X7574809Y-4609771D01*
X7574809Y-4609771D02*
X7558991Y-4598925D01*
X7558991Y-4598925D02*
X7543158Y-4588068D01*
X7543158Y-4588068D02*
X7527353Y-4577231D01*
X7527353Y-4577231D02*
X7511152Y-4567013D01*
X7511152Y-4567013D02*
X7494929Y-4556783D01*
X7494929Y-4556783D02*
X7478692Y-4546543D01*
X7478692Y-4546543D02*
X7462485Y-4536322D01*
X7462485Y-4536322D02*
X7445869Y-4526720D01*
X7445869Y-4526720D02*
X7429233Y-4517106D01*
X7429233Y-4517106D02*
X7412581Y-4507483D01*
X7412581Y-4507483D02*
X7395959Y-4497877D01*
X7395959Y-4497877D02*
X7379026Y-4488922D01*
X7379026Y-4488922D02*
X7362070Y-4479956D01*
X7362070Y-4479956D02*
X7345100Y-4470982D01*
X7345100Y-4470982D02*
X7328160Y-4462024D01*
X7328160Y-4462024D02*
X7311841Y-4454172D01*
X7311841Y-4454172D02*
X7295502Y-4446311D01*
X7295502Y-4446311D02*
X7279148Y-4438442D01*
X7279148Y-4438442D02*
X7262824Y-4430588D01*
X7262824Y-4430588D02*
X7246219Y-4423373D01*
X7246219Y-4423373D02*
X7229593Y-4416149D01*
X7229593Y-4416149D02*
X7212952Y-4408918D01*
X7212952Y-4408918D02*
X7196341Y-4401700D01*
X7196341Y-4401700D02*
X7179450Y-4395132D01*
X7179450Y-4395132D02*
X7162537Y-4388556D01*
X7162537Y-4388556D02*
X7145609Y-4381974D01*
X7145609Y-4381974D02*
X7128711Y-4375404D01*
X7128711Y-4375404D02*
X7111618Y-4369462D01*
X7111618Y-4369462D02*
X7094503Y-4363513D01*
X7094503Y-4363513D02*
X7077373Y-4357558D01*
X7077373Y-4357558D02*
X7060274Y-4351614D01*
X7060274Y-4351614D02*
X7042980Y-4346267D01*
X7042980Y-4346267D02*
X7025663Y-4340913D01*
X7025663Y-4340913D02*
X7008331Y-4335554D01*
X7008331Y-4335554D02*
X6991030Y-4330205D01*
X6991030Y-4330205D02*
X6973565Y-4325388D01*
X6973565Y-4325388D02*
X6956079Y-4320565D01*
X6956079Y-4320565D02*
X6938577Y-4315737D01*
X6938577Y-4315737D02*
X6921106Y-4310918D01*
X6921106Y-4310918D02*
X6903546Y-4306600D01*
X6903546Y-4306600D02*
X6885964Y-4302276D01*
X6885964Y-4302276D02*
X6868366Y-4297948D01*
X6868366Y-4297948D02*
X6850800Y-4293628D01*
X6850800Y-4293628D02*
X6833113Y-4289723D01*
X6833113Y-4289723D02*
X6815403Y-4285814D01*
X6815403Y-4285814D02*
X6797678Y-4281901D01*
X6797678Y-4281901D02*
X6779984Y-4277995D01*
X6779984Y-4277995D02*
X6763321Y-4274515D01*
X6763321Y-4274515D02*
X6746617Y-4271027D01*
X6746617Y-4271027D02*
X6729941Y-4267545D01*
X6729941Y-4267545D02*
X6729941Y-4248343D01*
X6729941Y-4248343D02*
X6730821Y-4229510D01*
X6730821Y-4229510D02*
X6731701Y-4210654D01*
X6731701Y-4210654D02*
X6732581Y-4191779D01*
X6732581Y-4191779D02*
X6733461Y-4172939D01*
X6733461Y-4172939D02*
X6734411Y-4154106D01*
X6734411Y-4154106D02*
X6735371Y-4135249D01*
X6735371Y-4135249D02*
X6736331Y-4116375D01*
X6736331Y-4116375D02*
X6737281Y-4097535D01*
X6737281Y-4097535D02*
X6738261Y-4078713D01*
X6738261Y-4078713D02*
X6739241Y-4059867D01*
X6739241Y-4059867D02*
X6740221Y-4041003D01*
X6740221Y-4041003D02*
X6741201Y-4022174D01*
X6741201Y-4022174D02*
X6742201Y-4003352D01*
X6742201Y-4003352D02*
X6743201Y-3984505D01*
X6743201Y-3984505D02*
X6744202Y-3965642D01*
X6744202Y-3965642D02*
X6745202Y-3946813D01*
X6745202Y-3946813D02*
X6746202Y-3928001D01*
X6746202Y-3928001D02*
X6747202Y-3909165D01*
X6747202Y-3909165D02*
X6748203Y-3890312D01*
X6748203Y-3890312D02*
X6749203Y-3871494D01*
X6749203Y-3871494D02*
X6750210Y-3852692D01*
X6750210Y-3852692D02*
X6751219Y-3833868D01*
X6751219Y-3833868D02*
X6752228Y-3815025D01*
X6752228Y-3815025D02*
X6753237Y-3796217D01*
X6753237Y-3796217D02*
X6754309Y-3776079D01*
X6754309Y-3776079D02*
X6755381Y-3755916D01*
X6755381Y-3755916D02*
X6756455Y-3735734D01*
X6756455Y-3735734D02*
X6757527Y-3715588D01*
X6757527Y-3715588D02*
X6758610Y-3695408D01*
X6758610Y-3695408D02*
X6759693Y-3675202D01*
X6759693Y-3675202D02*
X6760778Y-3654977D01*
X6760778Y-3654977D02*
X6761861Y-3634789D01*
X6761861Y-3634789D02*
X6762933Y-3614651D01*
X6762933Y-3614651D02*
X6764005Y-3594488D01*
X6764005Y-3594488D02*
X6765080Y-3574306D01*
X6765080Y-3574306D02*
X6766152Y-3554160D01*
X6766152Y-3554160D02*
X6767213Y-3534022D01*
X6767213Y-3534022D02*
X6768274Y-3513858D01*
X6768274Y-3513858D02*
X6769338Y-3493677D01*
X6769338Y-3493677D02*
X6770399Y-3473531D01*
X6770399Y-3473531D02*
X6771450Y-3453361D01*
X6771450Y-3453361D02*
X6772503Y-3433166D01*
X6772503Y-3433166D02*
X6773556Y-3412952D01*
X6773556Y-3412952D02*
X6774607Y-3392775D01*
X6774607Y-3392775D02*
X6775647Y-3372605D01*
X6775647Y-3372605D02*
X6776689Y-3352409D01*
X6776689Y-3352409D02*
X6777731Y-3332195D01*
X6777731Y-3332195D02*
X6778771Y-3312018D01*
X6778771Y-3312018D02*
X6779778Y-3291869D01*
X6779778Y-3291869D02*
X6780787Y-3271695D01*
X6780787Y-3271695D02*
X6781796Y-3251503D01*
X6781796Y-3251503D02*
X6782805Y-3231346D01*
X6782805Y-3231346D02*
X6783805Y-3211208D01*
X6783805Y-3211208D02*
X6784805Y-3191045D01*
X6784805Y-3191045D02*
X6785806Y-3170863D01*
X6785806Y-3170863D02*
X6786806Y-3150717D01*
X6786806Y-3150717D02*
X6787756Y-3130569D01*
X6787756Y-3130569D02*
X6788716Y-3110395D01*
X6788716Y-3110395D02*
X6789676Y-3090202D01*
X6789676Y-3090202D02*
X6790626Y-3070046D01*
X6790626Y-3070046D02*
X6791536Y-3049865D01*
X6791536Y-3049865D02*
X6792446Y-3029659D01*
X6792446Y-3029659D02*
X6793356Y-3009435D01*
X6793356Y-3009435D02*
X6794266Y-2989247D01*
X6794266Y-2989247D02*
X6795106Y-2969088D01*
X6795106Y-2969088D02*
X6795946Y-2948903D01*
X6795946Y-2948903D02*
X6796786Y-2928700D01*
X6796786Y-2928700D02*
X6797626Y-2908533D01*
X6797626Y-2908533D02*
X6798356Y-2888342D01*
X6798356Y-2888342D02*
X6799086Y-2868125D01*
X6799086Y-2868125D02*
X6799816Y-2847890D01*
X6799816Y-2847890D02*
X6800546Y-2827691D01*
X6800546Y-2827691D02*
X6801096Y-2807521D01*
X6801096Y-2807521D02*
X6801646Y-2787326D01*
X6801646Y-2787326D02*
X6802196Y-2767112D01*
X6802196Y-2767112D02*
X6802746Y-2746935D01*
X6802746Y-2746935D02*
X6802996Y-2726754D01*
X6802996Y-2726754D02*
X6803246Y-2706548D01*
X6803246Y-2706548D02*
X6803496Y-2686324D01*
X6803496Y-2686324D02*
X6803746Y-2666136D01*
X6803746Y-2666136D02*
X6803546Y-2645955D01*
X6803546Y-2645955D02*
X6803346Y-2625749D01*
X6803346Y-2625749D02*
X6803146Y-2605525D01*
X6803146Y-2605525D02*
X6802946Y-2585337D01*
X6802946Y-2585337D02*
X6802376Y-2566271D01*
X6802376Y-2566271D02*
X6801806Y-2547180D01*
X6801806Y-2547180D02*
X6801236Y-2528072D01*
X6801236Y-2528072D02*
X6800666Y-2508999D01*
X6800666Y-2508999D02*
X6799492Y-2494146D01*
X6799492Y-2494146D02*
X6798315Y-2479257D01*
X6798315Y-2479257D02*
X6797140Y-2464393D01*
X6797140Y-2464393D02*
X6794166Y-2448909D01*
X6794166Y-2448909D02*
X6791192Y-2433425D01*
X6791192Y-2433425D02*
X6785160Y-2413926D01*
X6785160Y-2413926D02*
X6777428Y-2395617D01*
X6777428Y-2395617D02*
X6767912Y-2378412D01*
X6767912Y-2378412D02*
X6756528Y-2362227D01*
X6756528Y-2362227D02*
X6744208Y-2348038D01*
X6744208Y-2348038D02*
X6730147Y-2334699D01*
X6730147Y-2334699D02*
X6714301Y-2322124D01*
X6714301Y-2322124D02*
X6696587Y-2310315D01*
X6696587Y-2310315D02*
X6679956Y-2301373D01*
X6679956Y-2301373D02*
X6663324Y-2292431D01*
X6663324Y-2292431D02*
X6643974Y-2284338D01*
X6643974Y-2284338D02*
X6624624Y-2276245D01*
X6624624Y-2276245D02*
X6606548Y-2270170D01*
X6606548Y-2270170D02*
X6588472Y-2264095D01*
X6588472Y-2264095D02*
X6568400Y-2258509D01*
X6568400Y-2258509D02*
X6548328Y-2252923D01*
X6548328Y-2252923D02*
X6529856Y-2248658D01*
X6529856Y-2248658D02*
X6511360Y-2244387D01*
X6511360Y-2244387D02*
X6492847Y-2240112D01*
X6492847Y-2240112D02*
X6474368Y-2235845D01*
X6474368Y-2235845D02*
X6455673Y-2232482D01*
X6455673Y-2232482D02*
X6436955Y-2229114D01*
X6436955Y-2229114D02*
X6418219Y-2225743D01*
X6418219Y-2225743D02*
X6399517Y-2222378D01*
X6399517Y-2222378D02*
X6380716Y-2219895D01*
X6380716Y-2219895D02*
X6361891Y-2217409D01*
X6361891Y-2217409D02*
X6343049Y-2214921D01*
X6343049Y-2214921D02*
X6324240Y-2212437D01*
X6324240Y-2212437D02*
X6305354Y-2210676D01*
X6305354Y-2210676D02*
X6286444Y-2208912D01*
X6286444Y-2208912D02*
X6267517Y-2207147D01*
X6267517Y-2207147D02*
X6248624Y-2205385D01*
X6248624Y-2205385D02*
X6229685Y-2204144D01*
X6229685Y-2204144D02*
X6210722Y-2202901D01*
X6210722Y-2202901D02*
X6191741Y-2201657D01*
X6191741Y-2201657D02*
X6172795Y-2200415D01*
X6172795Y-2200415D02*
X6153845Y-2199535D01*
X6153845Y-2199535D02*
X6134872Y-2198655D01*
X6134872Y-2198655D02*
X6115881Y-2197775D01*
X6115881Y-2197775D02*
X6096924Y-2196895D01*
X6096924Y-2196895D02*
X6075917Y-2196215D01*
X6075917Y-2196215D02*
X6054910Y-2195535D01*
X6054910Y-2195535D02*
X6033816Y-2195105D01*
X6033816Y-2195105D02*
X6012722Y-2194675D01*
X6012722Y-2194675D02*
X5992972Y-2194675D01*
X5992972Y-2194675D02*
X5973247Y-2194675D01*
X5973247Y-2194675D02*
X5953472Y-2194675D01*
X5953472Y-2194675D02*
X5933714Y-2194675D01*
X5933714Y-2194675D02*
X5913937Y-2194675D01*
X5913937Y-2194675D02*
X5894152Y-2194675D01*
X5894152Y-2194675D02*
X5874398Y-2194675D01*
X5874398Y-2194675D02*
X5853306Y-2195095D01*
X5853306Y-2195095D02*
X5832214Y-2195515D01*
X5832214Y-2195515D02*
X5811207Y-2196195D01*
X5811207Y-2196195D02*
X5790201Y-2196875D01*
X5790201Y-2196875D02*
X5771251Y-2197755D01*
X5771251Y-2197755D02*
X5752277Y-2198635D01*
X5752277Y-2198635D02*
X5733286Y-2199515D01*
X5733286Y-2199515D02*
X5714329Y-2200395D01*
X5714329Y-2200395D02*
X5695390Y-2201636D01*
X5695390Y-2201636D02*
X5676427Y-2202879D01*
X5676427Y-2202879D02*
X5657447Y-2204123D01*
X5657447Y-2204123D02*
X5638501Y-2205365D01*
X5638501Y-2205365D02*
X5619615Y-2207126D01*
X5619615Y-2207126D02*
X5600705Y-2208890D01*
X5600705Y-2208890D02*
X5581777Y-2210655D01*
X5581777Y-2210655D02*
X5562885Y-2212417D01*
X5562885Y-2212417D02*
X5544083Y-2214900D01*
X5544083Y-2214900D02*
X5525258Y-2217386D01*
X5525258Y-2217386D02*
X5506416Y-2219874D01*
X5506416Y-2219874D02*
X5487608Y-2222358D01*
X5487608Y-2222358D02*
X5468913Y-2225722D01*
X5468913Y-2225722D02*
X5450194Y-2229090D01*
X5450194Y-2229090D02*
X5431458Y-2232461D01*
X5431458Y-2232461D02*
X5412756Y-2235826D01*
X5412756Y-2235826D02*
X5394284Y-2240091D01*
X5394284Y-2240091D02*
X5375788Y-2244362D01*
X5375788Y-2244362D02*
X5357276Y-2248637D01*
X5357276Y-2248637D02*
X5338797Y-2252904D01*
X5338797Y-2252904D02*
X5318725Y-2258490D01*
X5318725Y-2258490D02*
X5298652Y-2264076D01*
X5298652Y-2264076D02*
X5280576Y-2270151D01*
X5280576Y-2270151D02*
X5262501Y-2276226D01*
X5262501Y-2276226D02*
X5243151Y-2284319D01*
X5243151Y-2284319D02*
X5223801Y-2292412D01*
X5223801Y-2292412D02*
X5207169Y-2301354D01*
X5207169Y-2301354D02*
X5190538Y-2310296D01*
X5190538Y-2310296D02*
X5172823Y-2322105D01*
X5172823Y-2322105D02*
X5156978Y-2334680D01*
X5156978Y-2334680D02*
X5142917Y-2348019D01*
X5142917Y-2348019D02*
X5130597Y-2362208D01*
X5130597Y-2362208D02*
X5119212Y-2378393D01*
X5119212Y-2378393D02*
X5109696Y-2395598D01*
X5109696Y-2395598D02*
X5101965Y-2413907D01*
X5101965Y-2413907D02*
X5095933Y-2433406D01*
X5095933Y-2433406D02*
X5092959Y-2448890D01*
X5092959Y-2448890D02*
X5089985Y-2464375D01*
X5089985Y-2464375D02*
X5088810Y-2479227D01*
X5088810Y-2479227D02*
X5087633Y-2494116D01*
X5087633Y-2494116D02*
X5086459Y-2508980D01*
X5086459Y-2508980D02*
X5085889Y-2528046D01*
X5085889Y-2528046D02*
X5085319Y-2547137D01*
X5085319Y-2547137D02*
X5084749Y-2566245D01*
X5084749Y-2566245D02*
X5084179Y-2585318D01*
X5084179Y-2585318D02*
X5083979Y-2605499D01*
X5083979Y-2605499D02*
X5083779Y-2625705D01*
X5083779Y-2625705D02*
X5083579Y-2645929D01*
X5083579Y-2645929D02*
X5083379Y-2666117D01*
X5083379Y-2666117D02*
X5083629Y-2686298D01*
X5083629Y-2686298D02*
X5083879Y-2706504D01*
X5083879Y-2706504D02*
X5084129Y-2726728D01*
X5084129Y-2726728D02*
X5084379Y-2746916D01*
X5084379Y-2746916D02*
X5084929Y-2767086D01*
X5084929Y-2767086D02*
X5085479Y-2787281D01*
X5085479Y-2787281D02*
X5086029Y-2807495D01*
X5086029Y-2807495D02*
X5086579Y-2827672D01*
X5086579Y-2827672D02*
X5087309Y-2847864D01*
X5087309Y-2847864D02*
X5088039Y-2868080D01*
X5088039Y-2868080D02*
X5088769Y-2888315D01*
X5088769Y-2888315D02*
X5089499Y-2908514D01*
X5089499Y-2908514D02*
X5090339Y-2928673D01*
X5090339Y-2928673D02*
X5091179Y-2948858D01*
X5091179Y-2948858D02*
X5092019Y-2969061D01*
X5092019Y-2969061D02*
X5092859Y-2989228D01*
X5092859Y-2989228D02*
X5093769Y-3009409D01*
X5093769Y-3009409D02*
X5094679Y-3029615D01*
X5094679Y-3029615D02*
X5095589Y-3049839D01*
X5095589Y-3049839D02*
X5096499Y-3070027D01*
X5096499Y-3070027D02*
X5097449Y-3090176D01*
X5097449Y-3090176D02*
X5098409Y-3110350D01*
X5098409Y-3110350D02*
X5099369Y-3130542D01*
X5099369Y-3130542D02*
X5100319Y-3150698D01*
X5100319Y-3150698D02*
X5101319Y-3170837D01*
X5101319Y-3170837D02*
X5102319Y-3191000D01*
X5102319Y-3191000D02*
X5103320Y-3211182D01*
X5103320Y-3211182D02*
X5104320Y-3231328D01*
X5104320Y-3231328D02*
X5105327Y-3251476D01*
X5105327Y-3251476D02*
X5106336Y-3271650D01*
X5106336Y-3271650D02*
X5107345Y-3291843D01*
X5107345Y-3291843D02*
X5108354Y-3311999D01*
X5108354Y-3311999D02*
X5109394Y-3332169D01*
X5109394Y-3332169D02*
X5110436Y-3352364D01*
X5110436Y-3352364D02*
X5111478Y-3372578D01*
X5111478Y-3372578D02*
X5112518Y-3392756D01*
X5112518Y-3392756D02*
X5113569Y-3412926D01*
X5113569Y-3412926D02*
X5114622Y-3433121D01*
X5114622Y-3433121D02*
X5115675Y-3453335D01*
X5115675Y-3453335D02*
X5116726Y-3473512D01*
X5116726Y-3473512D02*
X5117787Y-3493650D01*
X5117787Y-3493650D02*
X5118848Y-3513814D01*
X5118848Y-3513814D02*
X5119912Y-3533996D01*
X5119912Y-3533996D02*
X5120973Y-3554141D01*
X5120973Y-3554141D02*
X5122045Y-3574279D01*
X5122045Y-3574279D02*
X5123117Y-3594443D01*
X5123117Y-3594443D02*
X5124192Y-3614625D01*
X5124192Y-3614625D02*
X5125264Y-3634770D01*
X5125264Y-3634770D02*
X5126347Y-3654951D01*
X5126347Y-3654951D02*
X5127430Y-3675157D01*
X5127430Y-3675157D02*
X5128515Y-3695381D01*
X5128515Y-3695381D02*
X5129598Y-3715569D01*
X5129598Y-3715569D02*
X5130670Y-3735707D01*
X5130670Y-3735707D02*
X5131742Y-3755871D01*
X5131742Y-3755871D02*
X5132816Y-3776053D01*
X5132816Y-3776053D02*
X5133888Y-3796198D01*
X5133888Y-3796198D02*
X5134895Y-3815000D01*
X5134895Y-3815000D02*
X5135904Y-3833824D01*
X5135904Y-3833824D02*
X5136913Y-3852667D01*
X5136913Y-3852667D02*
X5137922Y-3871475D01*
X5137922Y-3871475D02*
X5138922Y-3890287D01*
X5138922Y-3890287D02*
X5139922Y-3909122D01*
X5139922Y-3909122D02*
X5140922Y-3927975D01*
X5140922Y-3927975D02*
X5141922Y-3946794D01*
X5141922Y-3946794D02*
X5142922Y-3965616D01*
X5142922Y-3965616D02*
X5143922Y-3984462D01*
X5143922Y-3984462D02*
X5144922Y-4003326D01*
X5144922Y-4003326D02*
X5145922Y-4022155D01*
X5145922Y-4022155D02*
X5146902Y-4040977D01*
X5146902Y-4040977D02*
X5147882Y-4059824D01*
X5147882Y-4059824D02*
X5148862Y-4078687D01*
X5148862Y-4078687D02*
X5149842Y-4097516D01*
X5149842Y-4097516D02*
X5150792Y-4116350D01*
X5150792Y-4116350D02*
X5151752Y-4135206D01*
X5151752Y-4135206D02*
X5152712Y-4154080D01*
X5152712Y-4154080D02*
X5153662Y-4172920D01*
X5153662Y-4172920D02*
X5154542Y-4191753D01*
X5154542Y-4191753D02*
X5155422Y-4210610D01*
X5155422Y-4210610D02*
X5156302Y-4229484D01*
X5156302Y-4229484D02*
X5157182Y-4248324D01*
X5157182Y-4248324D02*
X5157182Y-4267526D01*
X5157182Y-4267526D02*
X5140519Y-4271006D01*
X5140519Y-4271006D02*
X5123816Y-4274494D01*
X5123816Y-4274494D02*
X5107140Y-4277976D01*
X5107140Y-4277976D02*
X5089452Y-4281881D01*
X5089452Y-4281881D02*
X5071743Y-4285790D01*
X5071743Y-4285790D02*
X5054017Y-4289703D01*
X5054017Y-4289703D02*
X5036324Y-4293609D01*
X5036324Y-4293609D02*
X5018764Y-4297927D01*
X5018764Y-4297927D02*
X5001182Y-4302251D01*
X5001182Y-4302251D02*
X4983584Y-4306579D01*
X4983584Y-4306579D02*
X4966018Y-4310899D01*
X4966018Y-4310899D02*
X4948553Y-4315716D01*
X4948553Y-4315716D02*
X4931067Y-4320539D01*
X4931067Y-4320539D02*
X4913565Y-4325366D01*
X4913565Y-4325366D02*
X4896094Y-4330185D01*
X4896094Y-4330185D02*
X4878799Y-4335533D01*
X4878799Y-4335533D02*
X4861483Y-4340887D01*
X4861483Y-4340887D02*
X4844151Y-4346246D01*
X4844151Y-4346246D02*
X4826850Y-4351596D01*
X4826850Y-4351596D02*
X4809757Y-4357538D01*
X4809757Y-4357538D02*
X4792642Y-4363487D01*
X4792642Y-4363487D02*
X4775512Y-4369442D01*
X4775512Y-4369442D02*
X4758413Y-4375386D01*
X4758413Y-4375386D02*
X4741521Y-4381954D01*
X4741521Y-4381954D02*
X4724609Y-4388530D01*
X4724609Y-4388530D02*
X4707680Y-4395112D01*
X4707680Y-4395112D02*
X4690783Y-4401682D01*
X4690783Y-4401682D02*
X4674178Y-4408897D01*
X4674178Y-4408897D02*
X4657552Y-4416121D01*
X4657552Y-4416121D02*
X4640911Y-4423352D01*
X4640911Y-4423352D02*
X4624300Y-4430570D01*
X4624300Y-4430570D02*
X4607981Y-4438422D01*
X4607981Y-4438422D02*
X4591642Y-4446283D01*
X4591642Y-4446283D02*
X4575289Y-4454152D01*
X4575289Y-4454152D02*
X4558964Y-4462006D01*
X4558964Y-4462006D02*
X4542030Y-4470961D01*
X4542030Y-4470961D02*
X4525075Y-4479927D01*
X4525075Y-4479927D02*
X4508104Y-4488901D01*
X4508104Y-4488901D02*
X4491164Y-4497859D01*
X4491164Y-4497859D02*
X4474549Y-4507461D01*
X4474549Y-4507461D02*
X4457912Y-4517075D01*
X4457912Y-4517075D02*
X4441261Y-4526698D01*
X4441261Y-4526698D02*
X4424639Y-4536304D01*
X4424639Y-4536304D02*
X4408437Y-4546521D01*
X4408437Y-4546521D02*
X4392215Y-4556752D01*
X4392215Y-4556752D02*
X4375978Y-4566992D01*
X4375978Y-4566992D02*
X4359770Y-4577213D01*
X4359770Y-4577213D02*
X4343972Y-4588046D01*
X4343972Y-4588046D02*
X4328153Y-4598893D01*
X4328153Y-4598893D02*
X4312320Y-4609749D01*
X4312320Y-4609749D02*
X4296516Y-4620586D01*
X4296516Y-4620586D02*
X4281110Y-4632024D01*
X4281110Y-4632024D02*
X4265685Y-4643476D01*
X4265685Y-4643476D02*
X4250245Y-4654939D01*
X4250245Y-4654939D02*
X4234834Y-4666381D01*
X4234834Y-4666381D02*
X4219884Y-4678381D01*
X4219884Y-4678381D02*
X4204915Y-4690396D01*
X4204915Y-4690396D02*
X4189933Y-4702422D01*
X4189933Y-4702422D02*
X4174978Y-4714427D01*
X4174978Y-4714427D02*
X4160463Y-4726968D01*
X4160463Y-4726968D02*
X4145930Y-4739525D01*
X4145930Y-4739525D02*
X4131384Y-4752094D01*
X4131384Y-4752094D02*
X4116864Y-4764640D01*
X4116864Y-4764640D02*
X4102794Y-4777701D01*
X4102794Y-4777701D02*
X4088708Y-4790778D01*
X4088708Y-4790778D02*
X4074608Y-4803868D01*
X4074608Y-4803868D02*
X4060534Y-4816934D01*
X4060534Y-4816934D02*
X4046931Y-4830462D01*
X4046931Y-4830462D02*
X4033312Y-4844007D01*
X4033312Y-4844007D02*
X4019680Y-4857564D01*
X4019680Y-4857564D02*
X4006073Y-4871097D01*
X4006073Y-4871097D02*
X3992927Y-4885049D01*
X3992927Y-4885049D02*
X3979764Y-4899019D01*
X3979764Y-4899019D02*
X3966590Y-4913002D01*
X3966590Y-4913002D02*
X3953439Y-4926960D01*
X3953439Y-4926960D02*
X3940728Y-4941326D01*
X3940728Y-4941326D02*
X3928001Y-4955710D01*
X3928001Y-4955710D02*
X3915262Y-4970108D01*
X3915262Y-4970108D02*
X3902547Y-4984479D01*
X3902547Y-4984479D02*
X3890260Y-4999206D01*
X3890260Y-4999206D02*
X3877958Y-5013952D01*
X3877958Y-5013952D02*
X3865645Y-5028710D01*
X3865645Y-5028710D02*
X3853353Y-5043443D01*
X3853353Y-5043443D02*
X3841502Y-5058499D01*
X3841502Y-5058499D02*
X3829635Y-5073573D01*
X3829635Y-5073573D02*
X3817758Y-5088662D01*
X3817758Y-5088662D02*
X3805902Y-5103723D01*
X3805902Y-5103723D02*
X3794443Y-5119087D01*
X3794443Y-5119087D02*
X3782970Y-5134470D01*
X3782970Y-5134470D02*
X3771486Y-5149867D01*
X3771486Y-5149867D02*
X3760023Y-5165236D01*
X3760023Y-5165236D02*
X3748956Y-5180865D01*
X3748956Y-5180865D02*
X3737876Y-5196513D01*
X3737876Y-5196513D02*
X3726785Y-5212176D01*
X3726785Y-5212176D02*
X3715715Y-5227811D01*
X3715715Y-5227811D02*
X3704362Y-5244649D01*
X3704362Y-5244649D02*
X3692995Y-5261509D01*
X3692995Y-5261509D02*
X3681617Y-5278383D01*
X3681617Y-5278383D02*
X3670260Y-5295228D01*
X3670260Y-5295228D02*
X3659236Y-5312310D01*
X3659236Y-5312310D02*
X3648198Y-5329414D01*
X3648198Y-5329414D02*
X3637150Y-5346534D01*
X3637150Y-5346534D02*
X3626122Y-5363623D01*
X3626122Y-5363623D02*
X3615385Y-5380864D01*
X3615385Y-5380864D02*
X3604634Y-5398127D01*
X3604634Y-5398127D02*
X3593873Y-5415406D01*
X3593873Y-5415406D02*
X3583131Y-5432654D01*
X3583131Y-5432654D02*
X3572659Y-5450044D01*
X3572659Y-5450044D02*
X3562174Y-5467456D01*
X3562174Y-5467456D02*
X3551679Y-5484884D01*
X3551679Y-5484884D02*
X3541203Y-5502281D01*
X3541203Y-5502281D02*
X3530953Y-5519819D01*
X3530953Y-5519819D02*
X3520691Y-5537380D01*
X3520691Y-5537380D02*
X3510419Y-5554957D01*
X3510419Y-5554957D02*
X3500166Y-5572502D01*
X3500166Y-5572502D02*
X3490161Y-5590157D01*
X3490161Y-5590157D02*
X3480143Y-5607835D01*
X3480143Y-5607835D02*
X3470115Y-5625528D01*
X3470115Y-5625528D02*
X3460106Y-5643190D01*
X3460106Y-5643190D02*
X3450302Y-5660994D01*
X3450302Y-5660994D02*
X3440486Y-5678820D01*
X3440486Y-5678820D02*
X3430661Y-5696663D01*
X3430661Y-5696663D02*
X3420854Y-5714474D01*
X3420854Y-5714474D02*
X3411294Y-5732405D01*
X3411294Y-5732405D02*
X3401722Y-5750358D01*
X3401722Y-5750358D02*
X3392141Y-5768329D01*
X3392141Y-5768329D02*
X3382578Y-5786266D01*
X3382578Y-5786266D02*
X3373273Y-5804314D01*
X3373273Y-5804314D02*
X3363956Y-5822385D01*
X3363956Y-5822385D02*
X3354631Y-5840472D01*
X3354631Y-5840472D02*
X3345323Y-5858527D01*
X3345323Y-5858527D02*
X3336283Y-5876734D01*
X3336283Y-5876734D02*
X3327232Y-5894964D01*
X3327232Y-5894964D02*
X3318172Y-5913211D01*
X3318172Y-5913211D02*
X3309129Y-5931424D01*
X3309129Y-5931424D02*
X3300418Y-5949780D01*
X3300418Y-5949780D02*
X3291696Y-5968159D01*
X3291696Y-5968159D02*
X3282966Y-5986554D01*
X3282966Y-5986554D02*
X3274252Y-6004917D01*
X3274252Y-6004917D02*
X3265934Y-6023463D01*
X3265934Y-6023463D02*
X3257605Y-6042033D01*
X3257605Y-6042033D02*
X3249268Y-6060620D01*
X3249268Y-6060620D02*
X3240947Y-6079173D01*
X3240947Y-6079173D02*
X3233180Y-6097943D01*
X3233180Y-6097943D02*
X3225404Y-6116736D01*
X3225404Y-6116736D02*
X3217620Y-6135546D01*
X3217620Y-6135546D02*
X3209851Y-6154323D01*
X3209851Y-6154323D02*
X3203899Y-6170482D01*
X3203899Y-6170482D02*
X3197939Y-6186662D01*
X3197939Y-6186662D02*
X3191974Y-6202856D01*
X3191974Y-6202856D02*
X3186019Y-6219021D01*
X3186019Y-6219021D02*
X3180491Y-6235350D01*
X3180491Y-6235350D02*
X3174956Y-6251700D01*
X3174956Y-6251700D02*
X3169416Y-6268064D01*
X3169416Y-6268064D02*
X3163886Y-6284400D01*
X3163886Y-6284400D02*
X3158836Y-6300856D01*
X3158836Y-6300856D02*
X3153779Y-6317333D01*
X3153779Y-6317333D02*
X3148718Y-6333825D01*
X3148718Y-6333825D02*
X3143666Y-6350288D01*
X3143666Y-6350288D02*
X3140034Y-6363329D01*
X3140034Y-6363329D02*
X3136402Y-6376371D01*
X3136402Y-6376371D02*
X3119288Y-6377051D01*
X3119288Y-6377051D02*
X3102152Y-6377731D01*
X3102152Y-6377731D02*
X3085001Y-6378411D01*
X3085001Y-6378411D02*
X3067880Y-6379091D01*
X3067880Y-6379091D02*
X3050675Y-6380133D01*
X3050675Y-6380133D02*
X3033471Y-6381175D01*
X3033471Y-6381175D02*
X3016393Y-6382832D01*
X3016393Y-6382832D02*
X2999316Y-6384489D01*
X2999316Y-6384489D02*
X2982005Y-6386847D01*
X2982005Y-6386847D02*
X2964694Y-6389205D01*
X2964694Y-6389205D02*
X2947956Y-6392157D01*
X2947956Y-6392157D02*
X2931219Y-6395110D01*
X2931219Y-6395110D02*
X2913908Y-6398954D01*
X2913908Y-6398954D02*
X2896597Y-6402799D01*
X2896597Y-6402799D02*
X2880496Y-6407196D01*
X2880496Y-6407196D02*
X2864396Y-6411593D01*
X2864396Y-6411593D02*
X2847085Y-6417583D01*
X2847085Y-6417583D02*
X2829774Y-6423573D01*
X2829774Y-6423573D02*
X2815118Y-6430200D01*
X2815118Y-6430200D02*
X2800462Y-6436827D01*
X2800462Y-6436827D02*
X2785933Y-6445196D01*
X2785933Y-6445196D02*
X2771193Y-6455221D01*
X2771193Y-6455221D02*
X2756027Y-6467711D01*
X2756027Y-6467711D02*
X2740861Y-6480200D01*
X2740861Y-6480200D02*
X2728350Y-6492562D01*
X2728350Y-6492562D02*
X2715840Y-6504924D01*
X2715840Y-6504924D02*
X2703010Y-6519410D01*
X2703010Y-6519410D02*
X2690181Y-6533896D01*
X2690181Y-6533896D02*
X2679051Y-6547788D01*
X2679051Y-6547788D02*
X2667921Y-6561679D01*
X2667921Y-6561679D02*
X2656557Y-6577078D01*
X2656557Y-6577078D02*
X2645194Y-6592478D01*
X2645194Y-6592478D02*
X2634944Y-6607799D01*
X2634944Y-6607799D02*
X2624682Y-6623139D01*
X2624682Y-6623139D02*
X2614410Y-6638494D01*
X2614410Y-6638494D02*
X2604157Y-6653820D01*
X2604157Y-6653820D02*
X2594587Y-6669619D01*
X2594587Y-6669619D02*
X2585004Y-6685437D01*
X2585004Y-6685437D02*
X2575413Y-6701270D01*
X2575413Y-6701270D02*
X2565839Y-6717075D01*
X2565839Y-6717075D02*
X2556810Y-6733192D01*
X2556810Y-6733192D02*
X2547769Y-6749329D01*
X2547769Y-6749329D02*
X2538720Y-6765481D01*
X2538720Y-6765481D02*
X2529687Y-6781604D01*
X2529687Y-6781604D02*
X2521082Y-6797933D01*
X2521082Y-6797933D02*
X2512466Y-6814282D01*
X2512466Y-6814282D02*
X2503842Y-6830647D01*
X2503842Y-6830647D02*
X2495234Y-6846982D01*
X2495234Y-6846982D02*
X2486969Y-6863513D01*
X2486969Y-6863513D02*
X2478693Y-6880064D01*
X2478693Y-6880064D02*
X2470410Y-6896631D01*
X2470410Y-6896631D02*
X2462142Y-6913167D01*
X2462142Y-6913167D02*
X2454078Y-6930048D01*
X2454078Y-6930048D02*
X2446004Y-6946950D01*
X2446004Y-6946950D02*
X2437923Y-6963868D01*
X2437923Y-6963868D02*
X2429856Y-6980755D01*
X2429856Y-6980755D02*
X2422079Y-6997752D01*
X2422079Y-6997752D02*
X2414292Y-7014771D01*
X2414292Y-7014771D02*
X2406498Y-7031806D01*
X2406498Y-7031806D02*
X2398718Y-7048809D01*
X2398718Y-7048809D02*
X2391259Y-7065977D01*
X2391259Y-7065977D02*
X2383791Y-7083166D01*
X2383791Y-7083166D02*
X2376316Y-7100370D01*
X2376316Y-7100370D02*
X2368854Y-7117544D01*
X2368854Y-7117544D02*
X2361703Y-7134849D01*
X2361703Y-7134849D02*
X2354543Y-7152176D01*
X2354543Y-7152176D02*
X2347376Y-7169519D01*
X2347376Y-7169519D02*
X2340222Y-7186830D01*
X2340222Y-7186830D02*
X2333347Y-7204263D01*
X2333347Y-7204263D02*
X2326463Y-7221717D01*
X2326463Y-7221717D02*
X2319573Y-7239188D01*
X2319573Y-7239188D02*
X2312695Y-7256627D01*
X2312695Y-7256627D02*
X2306074Y-7274155D01*
X2306074Y-7274155D02*
X2299445Y-7291705D01*
X2299445Y-7291705D02*
X2292810Y-7309271D01*
X2292810Y-7309271D02*
X2286187Y-7326806D01*
X2286187Y-7326806D02*
X2279778Y-7344419D01*
X2279778Y-7344419D02*
X2273361Y-7362053D01*
X2273361Y-7362053D02*
X2266938Y-7379705D01*
X2266938Y-7379705D02*
X2260527Y-7397324D01*
X2260527Y-7397324D02*
X2253927Y-7416571D01*
X2253927Y-7416571D02*
X2247319Y-7435842D01*
X2247319Y-7435842D02*
X2240705Y-7455131D01*
X2240705Y-7455131D02*
X2234103Y-7474385D01*
X2234103Y-7474385D02*
X2227981Y-7493791D01*
X2227981Y-7493791D02*
X2221851Y-7513221D01*
X2221851Y-7513221D02*
X2215716Y-7532669D01*
X2215716Y-7532669D02*
X2209592Y-7552083D01*
X2209592Y-7552083D02*
X2203873Y-7571605D01*
X2203873Y-7571605D02*
X2198147Y-7591153D01*
X2198147Y-7591153D02*
X2192416Y-7610718D01*
X2192416Y-7610718D02*
X2186695Y-7630248D01*
X2186695Y-7630248D02*
X2181347Y-7649887D01*
X2181347Y-7649887D02*
X2175993Y-7669551D01*
X2175993Y-7669551D02*
X2170634Y-7689234D01*
X2170634Y-7689234D02*
X2165284Y-7708880D01*
X2165284Y-7708880D02*
X2160276Y-7728604D01*
X2160276Y-7728604D02*
X2155262Y-7748354D01*
X2155262Y-7748354D02*
X2150243Y-7768121D01*
X2150243Y-7768121D02*
X2145233Y-7787852D01*
X2145233Y-7787852D02*
X2140522Y-7807640D01*
X2140522Y-7807640D02*
X2135805Y-7827453D01*
X2135805Y-7827453D02*
X2131084Y-7847284D01*
X2131084Y-7847284D02*
X2126371Y-7867080D01*
X2126371Y-7867080D02*
X2121957Y-7886942D01*
X2121957Y-7886942D02*
X2117538Y-7906829D01*
X2117538Y-7906829D02*
X2113115Y-7926735D01*
X2113115Y-7926735D02*
X2108700Y-7946604D01*
X2108700Y-7946604D02*
X2104551Y-7966530D01*
X2104551Y-7966530D02*
X2100397Y-7986481D01*
X2100397Y-7986481D02*
X2096239Y-8006450D01*
X2096239Y-8006450D02*
X2092089Y-8026384D01*
X2092089Y-8026384D02*
X2088216Y-8046342D01*
X2088216Y-8046342D02*
X2084338Y-8066324D01*
X2084338Y-8066324D02*
X2080457Y-8086326D01*
X2080457Y-8086326D02*
X2076583Y-8106291D01*
X2076583Y-8106291D02*
X2072965Y-8126323D01*
X2072965Y-8126323D02*
X2069342Y-8146380D01*
X2069342Y-8146380D02*
X2065716Y-8166455D01*
X2065716Y-8166455D02*
X2062097Y-8186495D01*
X2062097Y-8186495D02*
X2058734Y-8206559D01*
X2058734Y-8206559D02*
X2055366Y-8226648D01*
X2055366Y-8226648D02*
X2051995Y-8246755D01*
X2051995Y-8246755D02*
X2048630Y-8266827D01*
X2048630Y-8266827D02*
X2045532Y-8286922D01*
X2045532Y-8286922D02*
X2042430Y-8307043D01*
X2042430Y-8307043D02*
X2039325Y-8327183D01*
X2039325Y-8327183D02*
X2036226Y-8347286D01*
X2036226Y-8347286D02*
X2033383Y-8367445D01*
X2033383Y-8367445D02*
X2030536Y-8387630D01*
X2030536Y-8387630D02*
X2027686Y-8407833D01*
X2027686Y-8407833D02*
X2024841Y-8428000D01*
X2024841Y-8428000D02*
X2022273Y-8448191D01*
X2022273Y-8448191D02*
X2019702Y-8468407D01*
X2019702Y-8468407D02*
X2017129Y-8488643D01*
X2017129Y-8488643D02*
X2014560Y-8508841D01*
X2014560Y-8508841D02*
X2012268Y-8529032D01*
X2012268Y-8529032D02*
X2009973Y-8549249D01*
X2009973Y-8549249D02*
X2007676Y-8569484D01*
X2007676Y-8569484D02*
X2005383Y-8589683D01*
X2005383Y-8589683D02*
X2003728Y-8606457D01*
X2003728Y-8606457D02*
X2002071Y-8623253D01*
X2002071Y-8623253D02*
X2000412Y-8640064D01*
X2000412Y-8640064D02*
X1998756Y-8656845D01*
X1998756Y-8656845D02*
X1997515Y-8673662D01*
X1997515Y-8673662D02*
X1996272Y-8690501D01*
X1996272Y-8690501D02*
X1995028Y-8707355D01*
X1995028Y-8707355D02*
X1993786Y-8724178D01*
X1993786Y-8724178D02*
X1993366Y-8741016D01*
X1993366Y-8741016D02*
X1992936Y-8757876D01*
X1992936Y-8757876D02*
X1992506Y-8774751D01*
X1992506Y-8774751D02*
X1992086Y-8791595D01*
X1992086Y-8791595D02*
X1992996Y-8809904D01*
X1992996Y-8809904D02*
X1993906Y-8828214D01*
X1993906Y-8828214D02*
X1996030Y-8843422D01*
X1996030Y-8843422D02*
X1998154Y-8858630D01*
X1998154Y-8858630D02*
X2002742Y-8877152D01*
X2002742Y-8877152D02*
X2008689Y-8893337D01*
X2008689Y-8893337D02*
X2015996Y-8907483D01*
X2015996Y-8907483D02*
X2024620Y-8920015D01*
X2024620Y-8920015D02*
X2035580Y-8932675D01*
X2035580Y-8932675D02*
X2047390Y-8944017D01*
X2047390Y-8944017D02*
X2060219Y-8954085D01*
X2060219Y-8954085D02*
X2074238Y-8963049D01*
X2074238Y-8963049D02*
X2088278Y-8969676D01*
X2088278Y-8969676D02*
X2102318Y-8976303D01*
X2102318Y-8976303D02*
X2119013Y-8981656D01*
X2119013Y-8981656D02*
X2135708Y-8987008D01*
X2135708Y-8987008D02*
X2152722Y-8991150D01*
X2152722Y-8991150D02*
X2169735Y-8995292D01*
X2169735Y-8995292D02*
X2186813Y-8998584D01*
X2186813Y-8998584D02*
X2203890Y-9001876D01*
X2203890Y-9001876D02*
X2220224Y-9004212D01*
X2220224Y-9004212D02*
X2236558Y-9006548D01*
X2236558Y-9006548D02*
X2254867Y-9008416D01*
X2254867Y-9008416D02*
X2273177Y-9010284D01*
X2273177Y-9010284D02*
X2290577Y-9011408D01*
X2290577Y-9011408D02*
X2308000Y-9012535D01*
X2308000Y-9012535D02*
X2325439Y-9013662D01*
X2325439Y-9013662D02*
X2342846Y-9014787D01*
X2342846Y-9014787D02*
X2360289Y-9015477D01*
X2360289Y-9015477D02*
X2377754Y-9016167D01*
X2377754Y-9016167D02*
X2395235Y-9016857D01*
X2395235Y-9016857D02*
X2412685Y-9017547D01*
X2412685Y-9017547D02*
X2432207Y-9018207D01*
X2432207Y-9018207D02*
X2451755Y-9018867D01*
X2451755Y-9018867D02*
X2471320Y-9019527D01*
X2471320Y-9019527D02*
X2490850Y-9020187D01*
X2490850Y-9020187D02*
X2510351Y-9020877D01*
X2510351Y-9020877D02*
X2529877Y-9021567D01*
X2529877Y-9021567D02*
X2549421Y-9022257D01*
X2549421Y-9022257D02*
X2568930Y-9022947D01*
X2568930Y-9022947D02*
X2588442Y-9023687D01*
X2588442Y-9023687D02*
X2607979Y-9024427D01*
X2607979Y-9024427D02*
X2627533Y-9025167D01*
X2627533Y-9025167D02*
X2647053Y-9025907D01*
X2647053Y-9025907D02*
X2666554Y-9026767D01*
X2666554Y-9026767D02*
X2686080Y-9027627D01*
X2686080Y-9027627D02*
X2705624Y-9028487D01*
X2705624Y-9028487D02*
X2725133Y-9029347D01*
X2725133Y-9029347D02*
X2744645Y-9030450D01*
X2744645Y-9030450D02*
X2764182Y-9031555D01*
X2764182Y-9031555D02*
X2783736Y-9032660D01*
X2783736Y-9032660D02*
X2803255Y-9033763D01*
X2803255Y-9033763D02*
X2822725Y-9035503D01*
X2822725Y-9035503D02*
X2842219Y-9037245D01*
X2842219Y-9037245D02*
X2861731Y-9038989D01*
X2861731Y-9038989D02*
X2881208Y-9040729D01*
X2881208Y-9040729D02*
X2902066Y-9043873D01*
X2902066Y-9043873D02*
X2922925Y-9047017D01*
X2922925Y-9047017D02*
X2940469Y-9050925D01*
X2940469Y-9050925D02*
X2958014Y-9054833D01*
X2958014Y-9054833D02*
X2978915Y-9060525D01*
X2978915Y-9060525D02*
X2995652Y-9066133D01*
X2995652Y-9066133D02*
X3009119Y-9072463D01*
X3009119Y-9072463D02*
X3020333Y-9080237D01*
X3020333Y-9080237D02*
X3029637Y-9089625D01*
X3029637Y-9089625D02*
X3038515Y-9101605D01*
X3038515Y-9101605D02*
X3048307Y-9118831D01*
X3048307Y-9118831D02*
X3058099Y-9136057D01*
X3058099Y-9136057D02*
X3066318Y-9152919D01*
X3066318Y-9152919D02*
X3074556Y-9169820D01*
X3074556Y-9169820D02*
X3082781Y-9186695D01*
X3082781Y-9186695D02*
X3088155Y-9200565D01*
X3088155Y-9200565D02*
X3093529Y-9214435D01*
X3093529Y-9214435D02*
X3096991Y-9227243D01*
X3096991Y-9227243D02*
X3100453Y-9240051D01*
X3100453Y-9240051D02*
X3102406Y-9253453D01*
X3102406Y-9253453D02*
X3104359Y-9266856D01*
X3104359Y-9266856D02*
X3104929Y-9281427D01*
X3104929Y-9281427D02*
X3105499Y-9295998D01*
X3105499Y-9295998D02*
X3105514Y-9310993D01*
X3105514Y-9310993D02*
X3105528Y-9326023D01*
X3105528Y-9326023D02*
X3105543Y-9341028D01*
X3105543Y-9341028D02*
X3098683Y-9358852D01*
X3098683Y-9358852D02*
X3091806Y-9376718D01*
X3091806Y-9376718D02*
X3084940Y-9394554D01*
X3084940Y-9394554D02*
X3078079Y-9412406D01*
X3078079Y-9412406D02*
X3071202Y-9430300D01*
X3071202Y-9430300D02*
X3064336Y-9448165D01*
X3064336Y-9448165D02*
X3057490Y-9465975D01*
X3057490Y-9465975D02*
X3050627Y-9483826D01*
X3050627Y-9483826D02*
X3043776Y-9501649D01*
X3043776Y-9501649D02*
X3036625Y-9520270D01*
X3036625Y-9520270D02*
X3029465Y-9538914D01*
X3029465Y-9538914D02*
X3022298Y-9557576D01*
X3022298Y-9557576D02*
X3015144Y-9576203D01*
X3015144Y-9576203D02*
X3008025Y-9594803D01*
X3008025Y-9594803D02*
X3000897Y-9613426D01*
X3000897Y-9613426D02*
X2993762Y-9632066D01*
X2993762Y-9632066D02*
X2986640Y-9650673D01*
X2986640Y-9650673D02*
X2979520Y-9669315D01*
X2979520Y-9669315D02*
X2972392Y-9687980D01*
X2972392Y-9687980D02*
X2965257Y-9706663D01*
X2965257Y-9706663D02*
X2958135Y-9725312D01*
X2958135Y-9725312D02*
X2951037Y-9743943D01*
X2951037Y-9743943D02*
X2943930Y-9762598D01*
X2943930Y-9762598D02*
X2936816Y-9781270D01*
X2936816Y-9781270D02*
X2929715Y-9799909D01*
X2929715Y-9799909D02*
X2922649Y-9818529D01*
X2922649Y-9818529D02*
X2915574Y-9837174D01*
X2915574Y-9837174D02*
X2908492Y-9855835D01*
X2908492Y-9855835D02*
X2901423Y-9874463D01*
X2901423Y-9874463D02*
X2894357Y-9893105D01*
X2894357Y-9893105D02*
X2887282Y-9911771D01*
X2887282Y-9911771D02*
X2880200Y-9930453D01*
X2880200Y-9930453D02*
X2873131Y-9949102D01*
X2873131Y-9949102D02*
X2866086Y-9967755D01*
X2866086Y-9967755D02*
X2859032Y-9986431D01*
X2859032Y-9986431D02*
X2851971Y-10005124D01*
X2851971Y-10005124D02*
X2844923Y-10023784D01*
X2844923Y-10023784D02*
X2837899Y-10042437D01*
X2837899Y-10042437D02*
X2830866Y-10061113D01*
X2830866Y-10061113D02*
X2823827Y-10079806D01*
X2823827Y-10079806D02*
X2816801Y-10098466D01*
X2816801Y-10098466D02*
X2809777Y-10117150D01*
X2809777Y-10117150D02*
X2802744Y-10135858D01*
X2802744Y-10135858D02*
X2795705Y-10154583D01*
X2795705Y-10154583D02*
X2788679Y-10173275D01*
X2788679Y-10173275D02*
X2781687Y-10191938D01*
X2781687Y-10191938D02*
X2774686Y-10210625D01*
X2774686Y-10210625D02*
X2767679Y-10229329D01*
X2767679Y-10229329D02*
X2760684Y-10247999D01*
X2760684Y-10247999D02*
X2753703Y-10266694D01*
X2753703Y-10266694D02*
X2746713Y-10285413D01*
X2746713Y-10285413D02*
X2739716Y-10304148D01*
X2739716Y-10304148D02*
X2732732Y-10322850D01*
X2732732Y-10322850D02*
X2725772Y-10341514D01*
X2725772Y-10341514D02*
X2718803Y-10360201D01*
X2718803Y-10360201D02*
X2711828Y-10378904D01*
X2711828Y-10378904D02*
X2704865Y-10397575D01*
X2704865Y-10397575D02*
X2697915Y-10416280D01*
X2697915Y-10416280D02*
X2690957Y-10435010D01*
X2690957Y-10435010D02*
X2683992Y-10453756D01*
X2683992Y-10453756D02*
X2677040Y-10472469D01*
X2677040Y-10472469D02*
X2670111Y-10491175D01*
X2670111Y-10491175D02*
X2663174Y-10509904D01*
X2663174Y-10509904D02*
X2656230Y-10528650D01*
X2656230Y-10528650D02*
X2649299Y-10547363D01*
X2649299Y-10547363D02*
X2642402Y-10566048D01*
X2642402Y-10566048D02*
X2635497Y-10584755D01*
X2635497Y-10584755D02*
X2628585Y-10603481D01*
X2628585Y-10603481D02*
X2621686Y-10622172D01*
X2621686Y-10622172D02*
X2614800Y-10640867D01*
X2614800Y-10640867D02*
X2607905Y-10659586D01*
X2607905Y-10659586D02*
X2601004Y-10678322D01*
X2601004Y-10678322D02*
X2594115Y-10697024D01*
X2594115Y-10697024D02*
X2587261Y-10715729D01*
X2587261Y-10715729D02*
X2580398Y-10734459D01*
X2580398Y-10734459D02*
X2573529Y-10753205D01*
X2573529Y-10753205D02*
X2566672Y-10771918D01*
X2566672Y-10771918D02*
X2559828Y-10790634D01*
X2559828Y-10790634D02*
X2552976Y-10809374D01*
X2552976Y-10809374D02*
X2546118Y-10828131D01*
X2546118Y-10828131D02*
X2539272Y-10846855D01*
X2539272Y-10846855D02*
X2532450Y-10865571D01*
X2532450Y-10865571D02*
X2525619Y-10884311D01*
X2525619Y-10884311D02*
X2518782Y-10903068D01*
X2518782Y-10903068D02*
X2511957Y-10921791D01*
X2511957Y-10921791D02*
X2505166Y-10940529D01*
X2505166Y-10940529D02*
X2498367Y-10959290D01*
X2498367Y-10959290D02*
X2491562Y-10978068D01*
X2491562Y-10978068D02*
X2484769Y-10996813D01*
X2484769Y-10996813D02*
X2477989Y-11015582D01*
X2477989Y-11015582D02*
X2471201Y-11034375D01*
X2471201Y-11034375D02*
X2464406Y-11053185D01*
X2464406Y-11053185D02*
X2457624Y-11071962D01*
X2457624Y-11071962D02*
X2450886Y-11090742D01*
X2450886Y-11090742D02*
X2444140Y-11109545D01*
X2444140Y-11109545D02*
X2437388Y-11128366D01*
X2437388Y-11128366D02*
X2430648Y-11147153D01*
X2430648Y-11147153D02*
X2423942Y-11165912D01*
X2423942Y-11165912D02*
X2417228Y-11184694D01*
X2417228Y-11184694D02*
X2410508Y-11203494D01*
X2410508Y-11203494D02*
X2403800Y-11222260D01*
X2403800Y-11222260D02*
X2397126Y-11241050D01*
X2397126Y-11241050D02*
X2390444Y-11259865D01*
X2390444Y-11259865D02*
X2383756Y-11278696D01*
X2383756Y-11278696D02*
X2377080Y-11297494D01*
X2377080Y-11297494D02*
X2370459Y-11316274D01*
X2370459Y-11316274D02*
X2363830Y-11335077D01*
X2363830Y-11335077D02*
X2357195Y-11353898D01*
X2357195Y-11353898D02*
X2350572Y-11372685D01*
X2350572Y-11372685D02*
X2343994Y-11391518D01*
X2343994Y-11391518D02*
X2337407Y-11410375D01*
X2337407Y-11410375D02*
X2330814Y-11429249D01*
X2330814Y-11429249D02*
X2324233Y-11448089D01*
X2324233Y-11448089D02*
X2317718Y-11466922D01*
X2317718Y-11466922D02*
X2311195Y-11485779D01*
X2311195Y-11485779D02*
X2304666Y-11504653D01*
X2304666Y-11504653D02*
X2298149Y-11523493D01*
X2298149Y-11523493D02*
X2291709Y-11542369D01*
X2291709Y-11542369D02*
X2285260Y-11561268D01*
X2285260Y-11561268D02*
X2278806Y-11580184D01*
X2278806Y-11580184D02*
X2272363Y-11599067D01*
X2272363Y-11599067D02*
X2266708Y-11616001D01*
X2266708Y-11616001D02*
X2261046Y-11632956D01*
X2261046Y-11632956D02*
X2255378Y-11649927D01*
X2255378Y-11649927D02*
X2249721Y-11666867D01*
X2249721Y-11666867D02*
X2244193Y-11683864D01*
X2244193Y-11683864D02*
X2238658Y-11700883D01*
X2238658Y-11700883D02*
X2233118Y-11717918D01*
X2233118Y-11717918D02*
X2227588Y-11734921D01*
X2227588Y-11734921D02*
X2222219Y-11751972D01*
X2222219Y-11751972D02*
X2216844Y-11769044D01*
X2216844Y-11769044D02*
X2211463Y-11786132D01*
X2211463Y-11786132D02*
X2206092Y-11803188D01*
X2206092Y-11803188D02*
X2200914Y-11820281D01*
X2200914Y-11820281D02*
X2195730Y-11837396D01*
X2195730Y-11837396D02*
X2190541Y-11854526D01*
X2190541Y-11854526D02*
X2185361Y-11871625D01*
X2185361Y-11871625D02*
X2180427Y-11888793D01*
X2180427Y-11888793D02*
X2175487Y-11905981D01*
X2175487Y-11905981D02*
X2170543Y-11923186D01*
X2170543Y-11923186D02*
X2165607Y-11940360D01*
X2165607Y-11940360D02*
X2161066Y-11957622D01*
X2161066Y-11957622D02*
X2156519Y-11974907D01*
X2156519Y-11974907D02*
X2151968Y-11992207D01*
X2151968Y-11992207D02*
X2147425Y-12009476D01*
X2147425Y-12009476D02*
X2142858Y-12029485D01*
X2142858Y-12029485D02*
X2138291Y-12049494D01*
X2138291Y-12049494D02*
X2135657Y-12064489D01*
X2135657Y-12064489D02*
X2133023Y-12079485D01*
X2133023Y-12079485D02*
X2132004Y-12092739D01*
X2132004Y-12092739D02*
X2132174Y-12106631D01*
X2132174Y-12106631D02*
X2134022Y-12120840D01*
X2134022Y-12120840D02*
X2135870Y-12135050D01*
X2135870Y-12135050D02*
X2139991Y-12149218D01*
X2139991Y-12149218D02*
X2144112Y-12163385D01*
X2144112Y-12163385D02*
X2149635Y-12175917D01*
X2149635Y-12175917D02*
X2156050Y-12186877D01*
X2156050Y-12186877D02*
X2166798Y-12201066D01*
X2166798Y-12201066D02*
X2178947Y-12213428D01*
X2178947Y-12213428D02*
X2193433Y-12224303D01*
X2193433Y-12224303D02*
X2211190Y-12234163D01*
X2211190Y-12234163D02*
X2226207Y-12240233D01*
X2226207Y-12240233D02*
X2241225Y-12246303D01*
X2241225Y-12246303D02*
X2260978Y-12252333D01*
X2260978Y-12252333D02*
X2280732Y-12258363D01*
X2280732Y-12258363D02*
X2298568Y-12262793D01*
X2298568Y-12262793D02*
X2316426Y-12267233D01*
X2316426Y-12267233D02*
X2334300Y-12271673D01*
X2334300Y-12271673D02*
X2352143Y-12276113D01*
X2352143Y-12276113D02*
X2371241Y-12280253D01*
X2371241Y-12280253D02*
X2390363Y-12284393D01*
X2390363Y-12284393D02*
X2409503Y-12288543D01*
X2409503Y-12288543D02*
X2428609Y-12292683D01*
X2428609Y-12292683D02*
X2447760Y-12296383D01*
X2447760Y-12296383D02*
X2466935Y-12300093D01*
X2466935Y-12300093D02*
X2486128Y-12303803D01*
X2486128Y-12303803D02*
X2505287Y-12307503D01*
X2505287Y-12307503D02*
X2524481Y-12310873D01*
X2524481Y-12310873D02*
X2543699Y-12314253D01*
X2543699Y-12314253D02*
X2562934Y-12317633D01*
X2562934Y-12317633D02*
X2582135Y-12321003D01*
X2582135Y-12321003D02*
X2601414Y-12324103D01*
X2601414Y-12324103D02*
X2620717Y-12327203D01*
X2620717Y-12327203D02*
X2640037Y-12330313D01*
X2640037Y-12330313D02*
X2659323Y-12333413D01*
X2659323Y-12333413D02*
X2678644Y-12336283D01*
X2678644Y-12336283D02*
X2697990Y-12339163D01*
X2697990Y-12339163D02*
X2717353Y-12342043D01*
X2717353Y-12342043D02*
X2736681Y-12344923D01*
X2736681Y-12344923D02*
X2756024Y-12347553D01*
X2756024Y-12347553D02*
X2775390Y-12350183D01*
X2775390Y-12350183D02*
X2794775Y-12352823D01*
X2794775Y-12352823D02*
X2814124Y-12355453D01*
X2814124Y-12355453D02*
X2833498Y-12357863D01*
X2833498Y-12357863D02*
X2852897Y-12360273D01*
X2852897Y-12360273D02*
X2872313Y-12362683D01*
X2872313Y-12362683D02*
X2891694Y-12365093D01*
X2891694Y-12365093D02*
X2911079Y-12367253D01*
X2911079Y-12367253D02*
X2930489Y-12369423D01*
X2930489Y-12369423D02*
X2949915Y-12371593D01*
X2949915Y-12371593D02*
X2969307Y-12373763D01*
X2969307Y-12373763D02*
X2988713Y-12375663D01*
X2988713Y-12375663D02*
X3008144Y-12377563D01*
X3008144Y-12377563D02*
X3027592Y-12379463D01*
X3027592Y-12379463D02*
X3047005Y-12381363D01*
X3047005Y-12381363D02*
X3066443Y-12382953D01*
X3066443Y-12382953D02*
X3085906Y-12384543D01*
X3085906Y-12384543D02*
X3105386Y-12386133D01*
X3105386Y-12386133D02*
X3124831Y-12387723D01*
X3124831Y-12387723D02*
X3144300Y-12388893D01*
X3144300Y-12388893D02*
X3163794Y-12390063D01*
X3163794Y-12390063D02*
X3183306Y-12391233D01*
X3183306Y-12391233D02*
X3202783Y-12392403D01*
X3202783Y-12392403D02*
X3222306Y-12393003D01*
X3222306Y-12393003D02*
X3241853Y-12393603D01*
X3241853Y-12393603D02*
X3261419Y-12394203D01*
X3261419Y-12394203D02*
X3280949Y-12394803D01*
X3280949Y-12394803D02*
X3298073Y-12394603D01*
X3298073Y-12394603D02*
X3315220Y-12394403D01*
X3315220Y-12394403D02*
X3332382Y-12394203D01*
X3332382Y-12394203D02*
X3349513Y-12394003D01*
X3349513Y-12394003D02*
X3368417Y-12392833D01*
X3368417Y-12392833D02*
X3387321Y-12391663D01*
X3387321Y-12391663D02*
X3402550Y-12389623D01*
X3402550Y-12389623D02*
X3417780Y-12387583D01*
X3417780Y-12387583D02*
X3436472Y-12383293D01*
X3436472Y-12383293D02*
X3452784Y-12377813D01*
X3452784Y-12377813D02*
X3467440Y-12371013D01*
X3467440Y-12371013D02*
X3481119Y-12362813D01*
X3481119Y-12362813D02*
X3492844Y-12354273D01*
X3492844Y-12354273D02*
X3503507Y-12343992D01*
X3503507Y-12343992D02*
X3514169Y-12329889D01*
X3514169Y-12329889D02*
X3519925Y-12319842D01*
X3519925Y-12319842D02*
X3525681Y-12309795D01*
X3525681Y-12309795D02*
X3532181Y-12296201D01*
X3532181Y-12296201D02*
X3538681Y-12282607D01*
X3538681Y-12282607D02*
X3546497Y-12264234D01*
X3546497Y-12264234D02*
X3554314Y-12245861D01*
X3554314Y-12245861D02*
X3560733Y-12229575D01*
X3560733Y-12229575D02*
X3567160Y-12213267D01*
X3567160Y-12213267D02*
X3573593Y-12196945D01*
X3573593Y-12196945D02*
X3580015Y-12180653D01*
X3580015Y-12180653D02*
X3586233Y-12164281D01*
X3586233Y-12164281D02*
X3592458Y-12147889D01*
X3592458Y-12147889D02*
X3598689Y-12131482D01*
X3598689Y-12131482D02*
X3604909Y-12115104D01*
X3604909Y-12115104D02*
X3611042Y-12098712D01*
X3611042Y-12098712D02*
X3617182Y-12082298D01*
X3617182Y-12082298D02*
X3623328Y-12065870D01*
X3623328Y-12065870D02*
X3629463Y-12049471D01*
X3629463Y-12049471D02*
X3635564Y-12033047D01*
X3635564Y-12033047D02*
X3641672Y-12016601D01*
X3641672Y-12016601D02*
X3647786Y-12000141D01*
X3647786Y-12000141D02*
X3653889Y-11983711D01*
X3653889Y-11983711D02*
X3661132Y-11964232D01*
X3661132Y-11964232D02*
X3668392Y-11944707D01*
X3668392Y-11944707D02*
X3675640Y-11925214D01*
X3675640Y-11925214D02*
X3682925Y-11905707D01*
X3682925Y-11905707D02*
X3690227Y-11886154D01*
X3690227Y-11886154D02*
X3697517Y-11866633D01*
X3697517Y-11866633D02*
X3704943Y-11847182D01*
X3704943Y-11847182D02*
X3712387Y-11827686D01*
X3712387Y-11827686D02*
X3719819Y-11808221D01*
X3719819Y-11808221D02*
X3740550Y-11804611D01*
X3740550Y-11804611D02*
X3761301Y-11801001D01*
X3761301Y-11801001D02*
X3782012Y-11797391D01*
X3782012Y-11797391D02*
X3802884Y-11794171D01*
X3802884Y-11794171D02*
X3823776Y-11790951D01*
X3823776Y-11790951D02*
X3844629Y-11787741D01*
X3844629Y-11787741D02*
X3865501Y-11784651D01*
X3865501Y-11784651D02*
X3886393Y-11781561D01*
X3886393Y-11781561D02*
X3907246Y-11778481D01*
X3907246Y-11778481D02*
X3928147Y-11775491D01*
X3928147Y-11775491D02*
X3949067Y-11772501D01*
X3949067Y-11772501D02*
X3969948Y-11769521D01*
X3969948Y-11769521D02*
X3989704Y-11766811D01*
X3989704Y-11766811D02*
X4009485Y-11764101D01*
X4009485Y-11764101D02*
X4029284Y-11761391D01*
X4029284Y-11761391D02*
X4049048Y-11758681D01*
X4049048Y-11758681D02*
X4068836Y-11756091D01*
X4068836Y-11756091D02*
X4088649Y-11753501D01*
X4088649Y-11753501D02*
X4108480Y-11750911D01*
X4108480Y-11750911D02*
X4128275Y-11748321D01*
X4128275Y-11748321D02*
X4148031Y-11745841D01*
X4148031Y-11745841D02*
X4167812Y-11743351D01*
X4167812Y-11743351D02*
X4187611Y-11740861D01*
X4187611Y-11740861D02*
X4207375Y-11738381D01*
X4207375Y-11738381D02*
X4227152Y-11736011D01*
X4227152Y-11736011D02*
X4246954Y-11733641D01*
X4246954Y-11733641D02*
X4266775Y-11731271D01*
X4266775Y-11731271D02*
X4286559Y-11728901D01*
X4286559Y-11728901D02*
X4306347Y-11726641D01*
X4306347Y-11726641D02*
X4326160Y-11724381D01*
X4326160Y-11724381D02*
X4345991Y-11722121D01*
X4345991Y-11722121D02*
X4365787Y-11719861D01*
X4365787Y-11719861D02*
X4385596Y-11717721D01*
X4385596Y-11717721D02*
X4405430Y-11715571D01*
X4405430Y-11715571D02*
X4425282Y-11713421D01*
X4425282Y-11713421D02*
X4445099Y-11711281D01*
X4445099Y-11711281D02*
X4464908Y-11709251D01*
X4464908Y-11709251D02*
X4484742Y-11707221D01*
X4484742Y-11707221D02*
X4504594Y-11705191D01*
X4504594Y-11705191D02*
X4524411Y-11703161D01*
X4524411Y-11703161D02*
X4544241Y-11701241D01*
X4544241Y-11701241D02*
X4564097Y-11699321D01*
X4564097Y-11699321D02*
X4583970Y-11697391D01*
X4583970Y-11697391D02*
X4603808Y-11695471D01*
X4603808Y-11695471D02*
X4623638Y-11693661D01*
X4623638Y-11693661D02*
X4643494Y-11691841D01*
X4643494Y-11691841D02*
X4663367Y-11690021D01*
X4663367Y-11690021D02*
X4683205Y-11688201D01*
X4683205Y-11688201D02*
X4703078Y-11686511D01*
X4703078Y-11686511D02*
X4722976Y-11684821D01*
X4722976Y-11684821D02*
X4742892Y-11683131D01*
X4742892Y-11683131D02*
X4762772Y-11681441D01*
X4762772Y-11681441D02*
X4782645Y-11679871D01*
X4782645Y-11679871D02*
X4802543Y-11678301D01*
X4802543Y-11678301D02*
X4822459Y-11676731D01*
X4822459Y-11676731D02*
X4842339Y-11675161D01*
X4842339Y-11675161D02*
X4862212Y-11673721D01*
X4862212Y-11673721D02*
X4882110Y-11672281D01*
X4882110Y-11672281D02*
X4902026Y-11670831D01*
X4902026Y-11670831D02*
X4921906Y-11669391D01*
X4921906Y-11669391D02*
X4941768Y-11668061D01*
X4941768Y-11668061D02*
X4961656Y-11666731D01*
X4961656Y-11666731D02*
X4981561Y-11665401D01*
X4981561Y-11665401D02*
X5001431Y-11664071D01*
X5001431Y-11664071D02*
X5021336Y-11662871D01*
X5021336Y-11662871D02*
X5041265Y-11661671D01*
X5041265Y-11661671D02*
X5061213Y-11660471D01*
X5061213Y-11660471D02*
X5081125Y-11659271D01*
X5081125Y-11659271D02*
X5101019Y-11658201D01*
X5101019Y-11658201D02*
X5120939Y-11657131D01*
X5120939Y-11657131D02*
X5140876Y-11656061D01*
X5140876Y-11656061D02*
X5160777Y-11654991D01*
X5160777Y-11654991D02*
X5180661Y-11654091D01*
X5180661Y-11654091D02*
X5200569Y-11653191D01*
X5200569Y-11653191D02*
X5220496Y-11652291D01*
X5220496Y-11652291D02*
X5240387Y-11651391D01*
X5240387Y-11651391D02*
X5260302Y-11650591D01*
X5260302Y-11650591D02*
X5280243Y-11649791D01*
X5280243Y-11649791D02*
X5300201Y-11648991D01*
X5300201Y-11648991D02*
X5320124Y-11648191D01*
X5320124Y-11648191D02*
X5340071Y-11647591D01*
X5340071Y-11647591D02*
X5360043Y-11646991D01*
X5360043Y-11646991D02*
X5380034Y-11646391D01*
X5380034Y-11646391D02*
X5399988Y-11645791D01*
X5399988Y-11645791D02*
X5419956Y-11645391D01*
X5419956Y-11645391D02*
X5439950Y-11644991D01*
X5439950Y-11644991D02*
X5459962Y-11644591D01*
X5459962Y-11644591D02*
X5479938Y-11644191D01*
X5479938Y-11644191D02*
X5499885Y-11643991D01*
X5499885Y-11643991D02*
X5519857Y-11643791D01*
X5519857Y-11643791D02*
X5539847Y-11643591D01*
X5539847Y-11643591D02*
X5559802Y-11643391D01*
X5559802Y-11643391D02*
X5579738Y-11643326D01*
X5579738Y-11643326D02*
X5599700Y-11643260D01*
X5599700Y-11643260D02*
X5619680Y-11643195D01*
X5619680Y-11643195D02*
X5639624Y-11643130D01*
X5639624Y-11643130D02*
X5659571Y-11643195D01*
X5659571Y-11643195D02*
X5679543Y-11643260D01*
X5679543Y-11643260D02*
X5699534Y-11643326D01*
X5699534Y-11643326D02*
X5719488Y-11643391D01*
X5719488Y-11643391D02*
X5739446Y-11643591D01*
X5739446Y-11643591D02*
X5759429Y-11643791D01*
X5759429Y-11643791D02*
X5779430Y-11643991D01*
X5779430Y-11643991D02*
X5799395Y-11644191D01*
X5799395Y-11644191D02*
X5819332Y-11644491D01*
X5819332Y-11644491D02*
X5839293Y-11644791D01*
X5839293Y-11644791D02*
X5859273Y-11645091D01*
X5859273Y-11645091D02*
X5879217Y-11645391D01*
X5879217Y-11645391D02*
X5900642Y-11645791D01*
X5900642Y-11645791D02*
X5922087Y-11646191D01*
X5922087Y-11646191D02*
X5943491Y-11646591D01*
X5943491Y-11646591D02*
X5964930Y-11646191D01*
X5964930Y-11646191D02*
X5986389Y-11645791D01*
X5986389Y-11645791D02*
X6007808Y-11645391D01*
X6007808Y-11645391D02*
X6007884Y-11644949D01*
D12*
D13*
X2273514Y-12865517D02*
X2273514Y-12565517D01*
X2344943Y-12565517D01*
X2387800Y-12579803D01*
X2416372Y-12608374D01*
X2430657Y-12636946D01*
X2444943Y-12694089D01*
X2444943Y-12736946D01*
X2430657Y-12794089D01*
X2416372Y-12822660D01*
X2387800Y-12851232D01*
X2344943Y-12865517D01*
X2273514Y-12865517D01*
X2573514Y-12865517D02*
X2573514Y-12665517D01*
X2573514Y-12722660D02*
X2587800Y-12694089D01*
X2602086Y-12679803D01*
X2630657Y-12665517D01*
X2659229Y-12665517D01*
X2759229Y-12865517D02*
X2759229Y-12665517D01*
X2759229Y-12565517D02*
X2744943Y-12579803D01*
X2759229Y-12594089D01*
X2773514Y-12579803D01*
X2759229Y-12565517D01*
X2759229Y-12594089D01*
X2944943Y-12865517D02*
X2916372Y-12851232D01*
X2902086Y-12822660D01*
X2902086Y-12565517D01*
X3102086Y-12865517D02*
X3073514Y-12851232D01*
X3059229Y-12822660D01*
X3059229Y-12565517D01*
X3444943Y-12865517D02*
X3444943Y-12565517D01*
X3544943Y-12779803D01*
X3644943Y-12565517D01*
X3644943Y-12865517D01*
X3916372Y-12865517D02*
X3916372Y-12708374D01*
X3902086Y-12679803D01*
X3873514Y-12665517D01*
X3816372Y-12665517D01*
X3787800Y-12679803D01*
X3916372Y-12851232D02*
X3887800Y-12865517D01*
X3816372Y-12865517D01*
X3787800Y-12851232D01*
X3773514Y-12822660D01*
X3773514Y-12794089D01*
X3787800Y-12765517D01*
X3816372Y-12751232D01*
X3887800Y-12751232D01*
X3916372Y-12736946D01*
X4059229Y-12665517D02*
X4059229Y-12965517D01*
X4059229Y-12679803D02*
X4087800Y-12665517D01*
X4144943Y-12665517D01*
X4173514Y-12679803D01*
X4187800Y-12694089D01*
X4202086Y-12722660D01*
X4202086Y-12808374D01*
X4187800Y-12836946D01*
X4173514Y-12851232D01*
X4144943Y-12865517D01*
X4087800Y-12865517D01*
X4059229Y-12851232D01*
X4330657Y-12836946D02*
X4344943Y-12851232D01*
X4330657Y-12865517D01*
X4316372Y-12851232D01*
X4330657Y-12836946D01*
X4330657Y-12865517D01*
X4330657Y-12679803D02*
X4344943Y-12694089D01*
X4330657Y-12708374D01*
X4316372Y-12694089D01*
X4330657Y-12679803D01*
X4330657Y-12708374D01*
M02*
