G04 #@! TF.GenerationSoftware,KiCad,Pcbnew,5.1.2*
G04 #@! TF.CreationDate,2019-06-29T12:22:33-07:00*
G04 #@! TF.ProjectId,DC27-Cylon,44433237-2d43-4796-9c6f-6e2e6b696361,rev?*
G04 #@! TF.SameCoordinates,Original*
G04 #@! TF.FileFunction,Profile,NP*
%FSLAX46Y46*%
G04 Gerber Fmt 4.6, Leading zero omitted, Abs format (unit mm)*
G04 Created by KiCad (PCBNEW 5.1.2) date 2019-06-29 12:22:33*
%MOMM*%
%LPD*%
G04 APERTURE LIST*
%ADD10C,0.150000*%
%ADD11C,0.100000*%
G04 APERTURE END LIST*
D10*
X61214000Y-25654000D02*
G75*
G03X61214000Y-25654000I-1778000J0D01*
G01*
D11*
X60078842Y-116449490D02*
X60278207Y-116446490D01*
X60278207Y-116446490D02*
X60477823Y-116443490D01*
X60477823Y-116443490D02*
X60677621Y-116440490D01*
X60677621Y-116440490D02*
X60877061Y-116437490D01*
X60877061Y-116437490D02*
X61076639Y-116435490D01*
X61076639Y-116435490D02*
X61276468Y-116433490D01*
X61276468Y-116433490D02*
X61476479Y-116431490D01*
X61476479Y-116431490D02*
X61676130Y-116429490D01*
X61676130Y-116429490D02*
X61875602Y-116428830D01*
X61875602Y-116428830D02*
X62075324Y-116428180D01*
X62075324Y-116428180D02*
X62275229Y-116427530D01*
X62275229Y-116427530D02*
X62474773Y-116426880D01*
X62474773Y-116426880D02*
X62674138Y-116427530D01*
X62674138Y-116427530D02*
X62873756Y-116428180D01*
X62873756Y-116428180D02*
X63073554Y-116428830D01*
X63073554Y-116428830D02*
X63272994Y-116429490D01*
X63272994Y-116429490D02*
X63472466Y-116431490D01*
X63472466Y-116431490D02*
X63672188Y-116433490D01*
X63672188Y-116433490D02*
X63872093Y-116435490D01*
X63872093Y-116435490D02*
X64071637Y-116437490D01*
X64071637Y-116437490D02*
X64271320Y-116441490D01*
X64271320Y-116441490D02*
X64471255Y-116445490D01*
X64471255Y-116445490D02*
X64671373Y-116449490D01*
X64671373Y-116449490D02*
X64871130Y-116453490D01*
X64871130Y-116453490D02*
X65070602Y-116459490D01*
X65070602Y-116459490D02*
X65270324Y-116465490D01*
X65270324Y-116465490D02*
X65470229Y-116471490D01*
X65470229Y-116471490D02*
X65669775Y-116477490D01*
X65669775Y-116477490D02*
X65868927Y-116485490D01*
X65868927Y-116485490D02*
X66068332Y-116493490D01*
X66068332Y-116493490D02*
X66267917Y-116501490D01*
X66267917Y-116501490D02*
X66467143Y-116509490D01*
X66467143Y-116509490D02*
X66665978Y-116518490D01*
X66665978Y-116518490D02*
X66865063Y-116527490D01*
X66865063Y-116527490D02*
X67064331Y-116536490D01*
X67064331Y-116536490D02*
X67263239Y-116545490D01*
X67263239Y-116545490D02*
X67462181Y-116556190D01*
X67462181Y-116556190D02*
X67661372Y-116566890D01*
X67661372Y-116566890D02*
X67860746Y-116577690D01*
X67860746Y-116577690D02*
X68059759Y-116588390D01*
X68059759Y-116588390D02*
X68258807Y-116600390D01*
X68258807Y-116600390D02*
X68458103Y-116612390D01*
X68458103Y-116612390D02*
X68657584Y-116624390D01*
X68657584Y-116624390D02*
X68856704Y-116636390D01*
X68856704Y-116636390D02*
X69055325Y-116649690D01*
X69055325Y-116649690D02*
X69254199Y-116662990D01*
X69254199Y-116662990D02*
X69453254Y-116676290D01*
X69453254Y-116676290D02*
X69651949Y-116689590D01*
X69651949Y-116689590D02*
X69850677Y-116703990D01*
X69850677Y-116703990D02*
X70049658Y-116718390D01*
X70049658Y-116718390D02*
X70248819Y-116732890D01*
X70248819Y-116732890D02*
X70447621Y-116747290D01*
X70447621Y-116747290D02*
X70646349Y-116762990D01*
X70646349Y-116762990D02*
X70845328Y-116778690D01*
X70845328Y-116778690D02*
X71044489Y-116794390D01*
X71044489Y-116794390D02*
X71243291Y-116810090D01*
X71243291Y-116810090D02*
X71442019Y-116826990D01*
X71442019Y-116826990D02*
X71640997Y-116843890D01*
X71640997Y-116843890D02*
X71840158Y-116860790D01*
X71840158Y-116860790D02*
X72038960Y-116877690D01*
X72038960Y-116877690D02*
X72237264Y-116895790D01*
X72237264Y-116895790D02*
X72435819Y-116913990D01*
X72435819Y-116913990D02*
X72634553Y-116932190D01*
X72634553Y-116932190D02*
X72832931Y-116950290D01*
X72832931Y-116950290D02*
X73031235Y-116969490D01*
X73031235Y-116969490D02*
X73229790Y-116988690D01*
X73229790Y-116988690D02*
X73428524Y-117007890D01*
X73428524Y-117007890D02*
X73626902Y-117027090D01*
X73626902Y-117027090D02*
X73824995Y-117047390D01*
X73824995Y-117047390D02*
X74023336Y-117067690D01*
X74023336Y-117067690D02*
X74221860Y-117087990D01*
X74221860Y-117087990D02*
X74420025Y-117108290D01*
X74420025Y-117108290D02*
X74618116Y-117129690D01*
X74618116Y-117129690D02*
X74816459Y-117151190D01*
X74816459Y-117151190D02*
X75014981Y-117172690D01*
X75014981Y-117172690D02*
X75213145Y-117194190D01*
X75213145Y-117194190D02*
X75411025Y-117216790D01*
X75411025Y-117216790D02*
X75609155Y-117239390D01*
X75609155Y-117239390D02*
X75807464Y-117261990D01*
X75807464Y-117261990D02*
X76005418Y-117284590D01*
X76005418Y-117284590D02*
X76203191Y-117308290D01*
X76203191Y-117308290D02*
X76401215Y-117331990D01*
X76401215Y-117331990D02*
X76599416Y-117355690D01*
X76599416Y-117355690D02*
X76797264Y-117379390D01*
X76797264Y-117379390D02*
X76994826Y-117404190D01*
X76994826Y-117404190D02*
X77192636Y-117429090D01*
X77192636Y-117429090D02*
X77390627Y-117453990D01*
X77390627Y-117453990D02*
X77588261Y-117478790D01*
X77588261Y-117478790D02*
X77786141Y-117504690D01*
X77786141Y-117504690D02*
X77984271Y-117530590D01*
X77984271Y-117530590D02*
X78182580Y-117556490D01*
X78182580Y-117556490D02*
X78380534Y-117582390D01*
X78380534Y-117582390D02*
X78578096Y-117609490D01*
X78578096Y-117609490D02*
X78775906Y-117636590D01*
X78775906Y-117636590D02*
X78973897Y-117663690D01*
X78973897Y-117663690D02*
X79171531Y-117690790D01*
X79171531Y-117690790D02*
X79380539Y-117720690D01*
X79380539Y-117720690D02*
X79589744Y-117750590D01*
X79589744Y-117750590D02*
X79798551Y-117780390D01*
X79798551Y-117780390D02*
X80007276Y-117811290D01*
X80007276Y-117811290D02*
X80216198Y-117842190D01*
X80216198Y-117842190D02*
X80424723Y-117872990D01*
X80424723Y-117872990D02*
X80633448Y-117905090D01*
X80633448Y-117905090D02*
X80842370Y-117937290D01*
X80842370Y-117937290D02*
X81050895Y-117969390D01*
X81050895Y-117969390D02*
X81258201Y-118005490D01*
X81258201Y-118005490D02*
X81465706Y-118041590D01*
X81465706Y-118041590D02*
X81672816Y-118077690D01*
X81672816Y-118077690D02*
X81747076Y-118272190D01*
X81747076Y-118272190D02*
X81821516Y-118467150D01*
X81821516Y-118467150D02*
X81895836Y-118661800D01*
X81895836Y-118661800D02*
X81968686Y-118856870D01*
X81968686Y-118856870D02*
X82041706Y-119052400D01*
X82041706Y-119052400D02*
X82114606Y-119247610D01*
X82114606Y-119247610D02*
X82187036Y-119442400D01*
X82187036Y-119442400D02*
X82259636Y-119637650D01*
X82259636Y-119637650D02*
X82332116Y-119832580D01*
X82332116Y-119832580D02*
X82393126Y-119996820D01*
X82393126Y-119996820D02*
X82454216Y-120161280D01*
X82454216Y-120161280D02*
X82515356Y-120325880D01*
X82515356Y-120325880D02*
X82576386Y-120490180D01*
X82576386Y-120490180D02*
X82637716Y-120654110D01*
X82637716Y-120654110D02*
X82699116Y-120818250D01*
X82699116Y-120818250D02*
X82760576Y-120982530D01*
X82760576Y-120982530D02*
X82821926Y-121146520D01*
X82821926Y-121146520D02*
X82884106Y-121310230D01*
X82884106Y-121310230D02*
X82946356Y-121474150D01*
X82946356Y-121474150D02*
X83008666Y-121638220D01*
X83008666Y-121638220D02*
X83070866Y-121802000D01*
X83070866Y-121802000D02*
X83135056Y-121964870D01*
X83135056Y-121964870D02*
X83199326Y-122127940D01*
X83199326Y-122127940D02*
X83263656Y-122291160D01*
X83263656Y-122291160D02*
X83327866Y-122454080D01*
X83327866Y-122454080D02*
X83406036Y-122637810D01*
X83406036Y-122637810D02*
X83484206Y-122821550D01*
X83484206Y-122821550D02*
X83549196Y-122957480D01*
X83549196Y-122957480D02*
X83614196Y-123093420D01*
X83614196Y-123093420D02*
X83671756Y-123193890D01*
X83671756Y-123193890D02*
X83729316Y-123294360D01*
X83729316Y-123294360D02*
X83835943Y-123435400D01*
X83835943Y-123435400D02*
X83942571Y-123538200D01*
X83942571Y-123538200D02*
X84059818Y-123623600D01*
X84059818Y-123623600D02*
X84196608Y-123705600D01*
X84196608Y-123705600D02*
X84343166Y-123773600D01*
X84343166Y-123773600D02*
X84506293Y-123828400D01*
X84506293Y-123828400D02*
X84693211Y-123871300D01*
X84693211Y-123871300D02*
X84845505Y-123891700D01*
X84845505Y-123891700D02*
X84997800Y-123912100D01*
X84997800Y-123912100D02*
X85186841Y-123923800D01*
X85186841Y-123923800D02*
X85375882Y-123935500D01*
X85375882Y-123935500D02*
X85547130Y-123937500D01*
X85547130Y-123937500D02*
X85718592Y-123939500D01*
X85718592Y-123939500D02*
X85890213Y-123941500D01*
X85890213Y-123941500D02*
X86061525Y-123943500D01*
X86061525Y-123943500D02*
X86256751Y-123937500D01*
X86256751Y-123937500D02*
X86452226Y-123931500D01*
X86452226Y-123931500D02*
X86647879Y-123925500D01*
X86647879Y-123925500D02*
X86843177Y-123919500D01*
X86843177Y-123919500D02*
X87037875Y-123907800D01*
X87037875Y-123907800D02*
X87232816Y-123896100D01*
X87232816Y-123896100D02*
X87427936Y-123884400D01*
X87427936Y-123884400D02*
X87622705Y-123872700D01*
X87622705Y-123872700D02*
X87817084Y-123856800D01*
X87817084Y-123856800D02*
X88011707Y-123840900D01*
X88011707Y-123840900D02*
X88206508Y-123825000D01*
X88206508Y-123825000D02*
X88400957Y-123809100D01*
X88400957Y-123809100D02*
X88595018Y-123790100D01*
X88595018Y-123790100D02*
X88789322Y-123771100D01*
X88789322Y-123771100D02*
X88983805Y-123752100D01*
X88983805Y-123752100D02*
X89177937Y-123733100D01*
X89177937Y-123733100D02*
X89371784Y-123711500D01*
X89371784Y-123711500D02*
X89565878Y-123689800D01*
X89565878Y-123689800D02*
X89760147Y-123668100D01*
X89760147Y-123668100D02*
X89954066Y-123646400D01*
X89954066Y-123646400D02*
X90147809Y-123622300D01*
X90147809Y-123622300D02*
X90341794Y-123598200D01*
X90341794Y-123598200D02*
X90535959Y-123574100D01*
X90535959Y-123574100D02*
X90729771Y-123550000D01*
X90729771Y-123550000D02*
X90923195Y-123523700D01*
X90923195Y-123523700D02*
X91116861Y-123497400D01*
X91116861Y-123497400D02*
X91310705Y-123471000D01*
X91310705Y-123471000D02*
X91504200Y-123444700D01*
X91504200Y-123444700D02*
X91697412Y-123415900D01*
X91697412Y-123415900D02*
X91890866Y-123387100D01*
X91890866Y-123387100D02*
X92084498Y-123358300D01*
X92084498Y-123358300D02*
X92277780Y-123329500D01*
X92277780Y-123329500D02*
X92470568Y-123298500D01*
X92470568Y-123298500D02*
X92663597Y-123267500D01*
X92663597Y-123267500D02*
X92856803Y-123236400D01*
X92856803Y-123236400D02*
X93049661Y-123205400D01*
X93049661Y-123205400D02*
X93241599Y-123171700D01*
X93241599Y-123171700D02*
X93433778Y-123137900D01*
X93433778Y-123137900D02*
X93626133Y-123104100D01*
X93626133Y-123104100D02*
X93818143Y-123070400D01*
X93818143Y-123070400D02*
X94009656Y-123033400D01*
X94009656Y-123033400D02*
X94201411Y-122996300D01*
X94201411Y-122996300D02*
X94393343Y-122959200D01*
X94393343Y-122959200D02*
X94584920Y-122922200D01*
X94584920Y-122922200D02*
X94775910Y-122880800D01*
X94775910Y-122880800D02*
X94967130Y-122839400D01*
X94967130Y-122839400D02*
X95158530Y-122797900D01*
X95158530Y-122797900D02*
X95349590Y-122756500D01*
X95349590Y-122756500D02*
X95527940Y-122712200D01*
X95527940Y-122712200D02*
X95706520Y-122667800D01*
X95706520Y-122667800D02*
X95885270Y-122623400D01*
X95885270Y-122623400D02*
X96063690Y-122579000D01*
X96063690Y-122579000D02*
X96261230Y-122518700D01*
X96261230Y-122518700D02*
X96458770Y-122458400D01*
X96458770Y-122458400D02*
X96608940Y-122397700D01*
X96608940Y-122397700D02*
X96759110Y-122337000D01*
X96759110Y-122337000D02*
X96936680Y-122238400D01*
X96936680Y-122238400D02*
X97081540Y-122129650D01*
X97081540Y-122129650D02*
X97203030Y-122006030D01*
X97203030Y-122006030D02*
X97310510Y-121864150D01*
X97310510Y-121864150D02*
X97374610Y-121754540D01*
X97374610Y-121754540D02*
X97429810Y-121629230D01*
X97429810Y-121629230D02*
X97471010Y-121487550D01*
X97471010Y-121487550D02*
X97512210Y-121345880D01*
X97512210Y-121345880D02*
X97530710Y-121203780D01*
X97530710Y-121203780D02*
X97549210Y-121061680D01*
X97549210Y-121061680D02*
X97551210Y-120922770D01*
X97551210Y-120922770D02*
X97541010Y-120790230D01*
X97541010Y-120790230D02*
X97514710Y-120640270D01*
X97514710Y-120640270D02*
X97488410Y-120490310D01*
X97488410Y-120490310D02*
X97442710Y-120290220D01*
X97442710Y-120290220D02*
X97397010Y-120090140D01*
X97397010Y-120090140D02*
X97351610Y-119917510D01*
X97351610Y-119917510D02*
X97306110Y-119744660D01*
X97306110Y-119744660D02*
X97260610Y-119571660D01*
X97260610Y-119571660D02*
X97215210Y-119398970D01*
X97215210Y-119398970D02*
X97165910Y-119227300D01*
X97165910Y-119227300D02*
X97116510Y-119055410D01*
X97116510Y-119055410D02*
X97067110Y-118883360D01*
X97067110Y-118883360D02*
X97017710Y-118711620D01*
X97017710Y-118711620D02*
X96965910Y-118540700D01*
X96965910Y-118540700D02*
X96914010Y-118369550D01*
X96914010Y-118369550D02*
X96862110Y-118198250D01*
X96862110Y-118198250D02*
X96810310Y-118027260D01*
X96810310Y-118027260D02*
X96756610Y-117856750D01*
X96756610Y-117856750D02*
X96702810Y-117686030D01*
X96702810Y-117686030D02*
X96649010Y-117515150D01*
X96649010Y-117515150D02*
X96595310Y-117344590D01*
X96595310Y-117344590D02*
X96540010Y-117174610D01*
X96540010Y-117174610D02*
X96484610Y-117004420D01*
X96484610Y-117004420D02*
X96429210Y-116834080D01*
X96429210Y-116834080D02*
X96373910Y-116664040D01*
X96373910Y-116664040D02*
X96317310Y-116494700D01*
X96317310Y-116494700D02*
X96260710Y-116325150D01*
X96260710Y-116325150D02*
X96204010Y-116155440D01*
X96204010Y-116155440D02*
X96147410Y-115986040D01*
X96147410Y-115986040D02*
X96083010Y-115797280D01*
X96083010Y-115797280D02*
X96018510Y-115608290D01*
X96018510Y-115608290D02*
X95954010Y-115419130D01*
X95954010Y-115419130D02*
X95889610Y-115230300D01*
X95889610Y-115230300D02*
X95824410Y-115041970D01*
X95824410Y-115041970D02*
X95759210Y-114853410D01*
X95759210Y-114853410D02*
X95693910Y-114664670D01*
X95693910Y-114664670D02*
X95628710Y-114476260D01*
X95628710Y-114476260D02*
X95562910Y-114287930D01*
X95562910Y-114287930D02*
X95497010Y-114099370D01*
X95497010Y-114099370D02*
X95431110Y-113910630D01*
X95431110Y-113910630D02*
X95365310Y-113722220D01*
X95365310Y-113722220D02*
X95299110Y-113534420D01*
X95299110Y-113534420D02*
X95232810Y-113346390D01*
X95232810Y-113346390D02*
X95166410Y-113158180D01*
X95166410Y-113158180D02*
X95100210Y-112970310D01*
X95100210Y-112970310D02*
X95033510Y-112782400D01*
X95033510Y-112782400D02*
X94966710Y-112594260D01*
X94966710Y-112594260D02*
X94899810Y-112405950D01*
X94899810Y-112405950D02*
X94833010Y-112217970D01*
X94833010Y-112217970D02*
X94765910Y-112030380D01*
X94765910Y-112030380D02*
X94698810Y-111842560D01*
X94698810Y-111842560D02*
X94631610Y-111654560D01*
X94631610Y-111654560D02*
X94564510Y-111466900D01*
X94564510Y-111466900D02*
X94497110Y-111279100D01*
X94497110Y-111279100D02*
X94429650Y-111091070D01*
X94429650Y-111091070D02*
X94362130Y-110902860D01*
X94362130Y-110902860D02*
X94294730Y-110714990D01*
X94294730Y-110714990D02*
X94226930Y-110527300D01*
X94226930Y-110527300D02*
X94159040Y-110339360D01*
X94159040Y-110339360D02*
X94091100Y-110151260D01*
X94091100Y-110151260D02*
X94023280Y-109963500D01*
X94023280Y-109963500D02*
X93955370Y-109776120D01*
X93955370Y-109776120D02*
X93887380Y-109588510D01*
X93887380Y-109588510D02*
X93819330Y-109400730D01*
X93819330Y-109400730D02*
X93751400Y-109213280D01*
X93751400Y-109213280D02*
X93683180Y-109026120D01*
X93683180Y-109026120D02*
X93614870Y-108838720D01*
X93614870Y-108838720D02*
X93546500Y-108651150D01*
X93546500Y-108651150D02*
X93478250Y-108463920D01*
X93478250Y-108463920D02*
X93409820Y-108276755D01*
X93409820Y-108276755D02*
X93341300Y-108089357D01*
X93341300Y-108089357D02*
X93272720Y-107901786D01*
X93272720Y-107901786D02*
X93204260Y-107714553D01*
X93204260Y-107714553D02*
X93135720Y-107527496D01*
X93135720Y-107527496D02*
X93067090Y-107340202D01*
X93067090Y-107340202D02*
X92998400Y-107152739D01*
X92998400Y-107152739D02*
X92929830Y-106965612D01*
X92929830Y-106965612D02*
X92860970Y-106778659D01*
X92860970Y-106778659D02*
X92792020Y-106591474D01*
X92792020Y-106591474D02*
X92723010Y-106404115D01*
X92723010Y-106404115D02*
X92654120Y-106217095D01*
X92654120Y-106217095D02*
X92585150Y-106030249D01*
X92585150Y-106030249D02*
X92516100Y-105843170D01*
X92516100Y-105843170D02*
X92446980Y-105655917D01*
X92446980Y-105655917D02*
X92377990Y-105469004D01*
X92377990Y-105469004D02*
X92308710Y-105281947D01*
X92308710Y-105281947D02*
X92239340Y-105094653D01*
X92239340Y-105094653D02*
X92169900Y-104907189D01*
X92169900Y-104907189D02*
X92100590Y-104720063D01*
X92100590Y-104720063D02*
X92031090Y-104533006D01*
X92031090Y-104533006D02*
X91961500Y-104345712D01*
X91961500Y-104345712D02*
X91891850Y-104158248D01*
X91891850Y-104158248D02*
X91822330Y-103971121D01*
X91822330Y-103971121D02*
X91752730Y-103784489D01*
X91752730Y-103784489D02*
X91683040Y-103597621D01*
X91683040Y-103597621D02*
X91613290Y-103410581D01*
X91613290Y-103410581D02*
X91543660Y-103223879D01*
X91543660Y-103223879D02*
X91473850Y-103036928D01*
X91473850Y-103036928D02*
X91403950Y-102849741D01*
X91403950Y-102849741D02*
X91333980Y-102662384D01*
X91333980Y-102662384D02*
X91264140Y-102475364D01*
X91264140Y-102475364D02*
X91194220Y-102288731D01*
X91194220Y-102288731D02*
X91124210Y-102101863D01*
X91124210Y-102101863D02*
X91054140Y-101914824D01*
X91054140Y-101914824D02*
X90984190Y-101728121D01*
X90984190Y-101728121D02*
X90913950Y-101541275D01*
X90913950Y-101541275D02*
X90843620Y-101354196D01*
X90843620Y-101354196D02*
X90773230Y-101166944D01*
X90773230Y-101166944D02*
X90702970Y-100980030D01*
X90702970Y-100980030D02*
X90632730Y-100793502D01*
X90632730Y-100793502D02*
X90562400Y-100606741D01*
X90562400Y-100606741D02*
X90492010Y-100419808D01*
X90492010Y-100419808D02*
X90421750Y-100233212D01*
X90421750Y-100233212D02*
X90351300Y-100046686D01*
X90351300Y-100046686D02*
X90280760Y-99859924D01*
X90280760Y-99859924D02*
X90210150Y-99672991D01*
X90210150Y-99672991D02*
X90139670Y-99486396D01*
X90139670Y-99486396D02*
X90069010Y-99299974D01*
X90069010Y-99299974D02*
X89998260Y-99113319D01*
X89998260Y-99113319D02*
X89927440Y-98926493D01*
X89927440Y-98926493D02*
X89856750Y-98740003D01*
X89856750Y-98740003D02*
X89786080Y-98553795D01*
X89786080Y-98553795D02*
X89715330Y-98367351D01*
X89715330Y-98367351D02*
X89644510Y-98180738D01*
X89644510Y-98180738D02*
X89573820Y-97994460D01*
X89573820Y-97994460D02*
X89502840Y-97808144D01*
X89502840Y-97808144D02*
X89431770Y-97621596D01*
X89431770Y-97621596D02*
X89360630Y-97434876D01*
X89360630Y-97434876D02*
X89289620Y-97248494D01*
X89289620Y-97248494D02*
X89218420Y-97062072D01*
X89218420Y-97062072D02*
X89147130Y-96875417D01*
X89147130Y-96875417D02*
X89075780Y-96688591D01*
X89075780Y-96688591D02*
X89004560Y-96502101D01*
X89004560Y-96502101D02*
X88933370Y-96316106D01*
X88933370Y-96316106D02*
X88862090Y-96129873D01*
X88862090Y-96129873D02*
X88790740Y-95943473D01*
X88790740Y-95943473D02*
X88719520Y-95757408D01*
X88719520Y-95757408D02*
X88648010Y-95571199D01*
X88648010Y-95571199D02*
X88576410Y-95384756D01*
X88576410Y-95384756D02*
X88504740Y-95198142D01*
X88504740Y-95198142D02*
X88433200Y-95011864D01*
X88433200Y-95011864D02*
X88364740Y-94833773D01*
X88364740Y-94833773D02*
X88296110Y-94655255D01*
X88296110Y-94655255D02*
X88227590Y-94477028D01*
X88227590Y-94477028D02*
X88158980Y-94298511D01*
X88158980Y-94298511D02*
X88090210Y-94119569D01*
X88090210Y-94119569D02*
X88021550Y-93940918D01*
X88021550Y-93940918D02*
X87952950Y-93762683D01*
X87952950Y-93762683D02*
X87884180Y-93584024D01*
X87884180Y-93584024D02*
X87815520Y-93405656D01*
X87815520Y-93405656D02*
X87815666Y-93255714D01*
X87815666Y-93255714D02*
X87815809Y-93105413D01*
X87815809Y-93105413D02*
X87815955Y-92955358D01*
X87815955Y-92955358D02*
X87821655Y-92809646D01*
X87821655Y-92809646D02*
X87827355Y-92663936D01*
X87827355Y-92663936D02*
X87846885Y-92529909D01*
X87846885Y-92529909D02*
X87866435Y-92395881D01*
X87866435Y-92395881D02*
X87901055Y-92267800D01*
X87901055Y-92267800D02*
X87935675Y-92139721D01*
X87935675Y-92139721D02*
X87989415Y-92001019D01*
X87989415Y-92001019D02*
X88043155Y-91862320D01*
X88043155Y-91862320D02*
X88125345Y-91693705D01*
X88125345Y-91693705D02*
X88207725Y-91524686D01*
X88207725Y-91524686D02*
X88289975Y-91355945D01*
X88289975Y-91355945D02*
X88387895Y-91183684D01*
X88387895Y-91183684D02*
X88485815Y-91011424D01*
X88485815Y-91011424D02*
X88574605Y-90891626D01*
X88574605Y-90891626D02*
X88667645Y-90797746D01*
X88667645Y-90797746D02*
X88779794Y-90720006D01*
X88779794Y-90720006D02*
X88914459Y-90656706D01*
X88914459Y-90656706D02*
X89081834Y-90600626D01*
X89081834Y-90600626D02*
X89290841Y-90543706D01*
X89290841Y-90543706D02*
X89466288Y-90504626D01*
X89466288Y-90504626D02*
X89641734Y-90465546D01*
X89641734Y-90465546D02*
X89850316Y-90434106D01*
X89850316Y-90434106D02*
X90058899Y-90402666D01*
X90058899Y-90402666D02*
X90253597Y-90385266D01*
X90253597Y-90385266D02*
X90448538Y-90367846D01*
X90448538Y-90367846D02*
X90643658Y-90350406D01*
X90643658Y-90350406D02*
X90838428Y-90333006D01*
X90838428Y-90333006D02*
X91033550Y-90321976D01*
X91033550Y-90321976D02*
X91228915Y-90310926D01*
X91228915Y-90310926D02*
X91424459Y-90299876D01*
X91424459Y-90299876D02*
X91619653Y-90288846D01*
X91619653Y-90288846D02*
X91814668Y-90280246D01*
X91814668Y-90280246D02*
X92009929Y-90271646D01*
X92009929Y-90271646D02*
X92205369Y-90263046D01*
X92205369Y-90263046D02*
X92400456Y-90254446D01*
X92400456Y-90254446D02*
X92595578Y-90247046D01*
X92595578Y-90247046D02*
X92790944Y-90239646D01*
X92790944Y-90239646D02*
X92986488Y-90232246D01*
X92986488Y-90232246D02*
X93181681Y-90224846D01*
X93181681Y-90224846D02*
X93376697Y-90217946D01*
X93376697Y-90217946D02*
X93571958Y-90211046D01*
X93571958Y-90211046D02*
X93767398Y-90204146D01*
X93767398Y-90204146D02*
X93962485Y-90197246D01*
X93962485Y-90197246D02*
X94157711Y-90190646D01*
X94157711Y-90190646D02*
X94353185Y-90184046D01*
X94353185Y-90184046D02*
X94548839Y-90177446D01*
X94548839Y-90177446D02*
X94744139Y-90170846D01*
X94744139Y-90170846D02*
X94918569Y-90163946D01*
X94918569Y-90163946D02*
X95093219Y-90157046D01*
X95093219Y-90157046D02*
X95268029Y-90150146D01*
X95268029Y-90150146D02*
X95442529Y-90143246D01*
X95442529Y-90143246D02*
X95616529Y-90131996D01*
X95616529Y-90131996D02*
X95790759Y-90120726D01*
X95790759Y-90120726D02*
X95965139Y-90109456D01*
X95965139Y-90109456D02*
X96139219Y-90098206D01*
X96139219Y-90098206D02*
X96322309Y-90079526D01*
X96322309Y-90079526D02*
X96505399Y-90060846D01*
X96505399Y-90060846D02*
X96668739Y-90037486D01*
X96668739Y-90037486D02*
X96832079Y-90014126D01*
X96832079Y-90014126D02*
X97002859Y-89981206D01*
X97002859Y-89981206D02*
X97173629Y-89948286D01*
X97173629Y-89948286D02*
X97343769Y-89906866D01*
X97343769Y-89906866D02*
X97513899Y-89865446D01*
X97513899Y-89865446D02*
X97680849Y-89811916D01*
X97680849Y-89811916D02*
X97847809Y-89758396D01*
X97847809Y-89758396D02*
X97988199Y-89692126D01*
X97988199Y-89692126D02*
X98128599Y-89625856D01*
X98128599Y-89625856D02*
X98268789Y-89536216D01*
X98268789Y-89536216D02*
X98397089Y-89435536D01*
X98397089Y-89435536D02*
X98515179Y-89322112D01*
X98515179Y-89322112D02*
X98624779Y-89195519D01*
X98624779Y-89195519D02*
X98710979Y-89070198D01*
X98710979Y-89070198D02*
X98784079Y-88928736D01*
X98784079Y-88928736D02*
X98843579Y-88766884D01*
X98843579Y-88766884D02*
X98889479Y-88581667D01*
X98889479Y-88581667D02*
X98910679Y-88429584D01*
X98910679Y-88429584D02*
X98931979Y-88277502D01*
X98931979Y-88277502D02*
X98940979Y-88094410D01*
X98940979Y-88094410D02*
X98949979Y-87911316D01*
X98949979Y-87911316D02*
X98945979Y-87742931D01*
X98945979Y-87742931D02*
X98941979Y-87574336D01*
X98941979Y-87574336D02*
X98937979Y-87405586D01*
X98937979Y-87405586D02*
X98933979Y-87237141D01*
X98933979Y-87237141D02*
X98921579Y-87068970D01*
X98921579Y-87068970D02*
X98909179Y-86900588D01*
X98909179Y-86900588D02*
X98896779Y-86732049D01*
X98896779Y-86732049D02*
X98884379Y-86563817D01*
X98884379Y-86563817D02*
X98867879Y-86396070D01*
X98867879Y-86396070D02*
X98851279Y-86228112D01*
X98851279Y-86228112D02*
X98834679Y-86059999D01*
X98834679Y-86059999D02*
X98818079Y-85892191D01*
X98818079Y-85892191D02*
X98795179Y-85690279D01*
X98795179Y-85690279D02*
X98772279Y-85488114D01*
X98772279Y-85488114D02*
X98749279Y-85285762D01*
X98749279Y-85285762D02*
X98726379Y-85083776D01*
X98726379Y-85083776D02*
X98700679Y-84881864D01*
X98700679Y-84881864D02*
X98674979Y-84679699D01*
X98674979Y-84679699D02*
X98649279Y-84477347D01*
X98649279Y-84477347D02*
X98623579Y-84275361D01*
X98623579Y-84275361D02*
X98595179Y-84073768D01*
X98595179Y-84073768D02*
X98566679Y-83871919D01*
X98566679Y-83871919D02*
X98538179Y-83669889D01*
X98538179Y-83669889D02*
X98509779Y-83468220D01*
X98509779Y-83468220D02*
X98478779Y-83267265D01*
X98478779Y-83267265D02*
X98447779Y-83066055D01*
X98447779Y-83066055D02*
X98416679Y-82864660D01*
X98416679Y-82864660D02*
X98385679Y-82663631D01*
X98385679Y-82663631D02*
X98352079Y-82462993D01*
X98352079Y-82462993D02*
X98318379Y-82262100D01*
X98318379Y-82262100D02*
X98284679Y-82061025D01*
X98284679Y-82061025D02*
X98251079Y-81860313D01*
X98251079Y-81860313D02*
X98214879Y-81659993D01*
X98214879Y-81659993D02*
X98178679Y-81459421D01*
X98178679Y-81459421D02*
X98142379Y-81258665D01*
X98142379Y-81258665D02*
X98106179Y-81058271D01*
X98106179Y-81058271D02*
X98067479Y-80858692D01*
X98067479Y-80858692D02*
X98028679Y-80658864D01*
X98028679Y-80658864D02*
X97989879Y-80458852D01*
X97989879Y-80458852D02*
X97951179Y-80259202D01*
X97951179Y-80259202D02*
X97909679Y-80059943D01*
X97909679Y-80059943D02*
X97868179Y-79860432D01*
X97868179Y-79860432D02*
X97826579Y-79660740D01*
X97826579Y-79660740D02*
X97785079Y-79461407D01*
X97785079Y-79461407D02*
X97740979Y-79262786D01*
X97740979Y-79262786D02*
X97696779Y-79063912D01*
X97696779Y-79063912D02*
X97652579Y-78864857D01*
X97652579Y-78864857D02*
X97608379Y-78666162D01*
X97608379Y-78666162D02*
X97561279Y-78468282D01*
X97561279Y-78468282D02*
X97514079Y-78270152D01*
X97514079Y-78270152D02*
X97466879Y-78071843D01*
X97466879Y-78071843D02*
X97419779Y-77873889D01*
X97419779Y-77873889D02*
X97369679Y-77676647D01*
X97369679Y-77676647D02*
X97319579Y-77479154D01*
X97319579Y-77479154D02*
X97269379Y-77281483D01*
X97269379Y-77281483D02*
X97219279Y-77084166D01*
X97219279Y-77084166D02*
X97165779Y-76887772D01*
X97165779Y-76887772D02*
X97112179Y-76691130D01*
X97112179Y-76691130D02*
X97058579Y-76494309D01*
X97058579Y-76494309D02*
X97005079Y-76297843D01*
X97005079Y-76297843D02*
X96947879Y-76102616D01*
X96947879Y-76102616D02*
X96890579Y-75907142D01*
X96890579Y-75907142D02*
X96833279Y-75711489D01*
X96833279Y-75711489D02*
X96776079Y-75516191D01*
X96776079Y-75516191D02*
X96714879Y-75322131D01*
X96714879Y-75322131D02*
X96653579Y-75127826D01*
X96653579Y-75127826D02*
X96592179Y-74933344D01*
X96592179Y-74933344D02*
X96530979Y-74739211D01*
X96530979Y-74739211D02*
X96464979Y-74546743D01*
X96464979Y-74546743D02*
X96398879Y-74354031D01*
X96398879Y-74354031D02*
X96332779Y-74161145D01*
X96332779Y-74161145D02*
X96266779Y-73968605D01*
X96266779Y-73968605D02*
X96202679Y-73792475D01*
X96202679Y-73792475D02*
X96138479Y-73616126D01*
X96138479Y-73616126D02*
X96074279Y-73439613D01*
X96074279Y-73439613D02*
X96010179Y-73263421D01*
X96010179Y-73263421D02*
X95943979Y-73088139D01*
X95943979Y-73088139D02*
X95877679Y-72912638D01*
X95877679Y-72912638D02*
X95811379Y-72736976D01*
X95811379Y-72736976D02*
X95745179Y-72561632D01*
X95745179Y-72561632D02*
X95676379Y-72387308D01*
X95676379Y-72387308D02*
X95607579Y-72212761D01*
X95607579Y-72212761D02*
X95538679Y-72038059D01*
X95538679Y-72038059D02*
X95469879Y-71863669D01*
X95469879Y-71863669D02*
X95398379Y-71690617D01*
X95398379Y-71690617D02*
X95326779Y-71517348D01*
X95326779Y-71517348D02*
X95255079Y-71343917D01*
X95255079Y-71343917D02*
X95183579Y-71170802D01*
X95183579Y-71170802D02*
X95108979Y-70999129D01*
X95108979Y-70999129D02*
X95034279Y-70827241D01*
X95034279Y-70827241D02*
X94959479Y-70655196D01*
X94959479Y-70655196D02*
X94884879Y-70483460D01*
X94884879Y-70483460D02*
X94807079Y-70313486D01*
X94807079Y-70313486D02*
X94729179Y-70143296D01*
X94729179Y-70143296D02*
X94651279Y-69972950D01*
X94651279Y-69972950D02*
X94573479Y-69802912D01*
X94573479Y-69802912D02*
X94492879Y-69634104D01*
X94492879Y-69634104D02*
X94412139Y-69465084D01*
X94412139Y-69465084D02*
X94331329Y-69295908D01*
X94331329Y-69295908D02*
X94250659Y-69127039D01*
X94250659Y-69127039D02*
X94168009Y-68961732D01*
X94168009Y-68961732D02*
X94085249Y-68796217D01*
X94085249Y-68796217D02*
X94002419Y-68630551D01*
X94002419Y-68630551D02*
X93919739Y-68465184D01*
X93919739Y-68465184D02*
X93833689Y-68301893D01*
X93833689Y-68301893D02*
X93747529Y-68138396D01*
X93747529Y-68138396D02*
X93661289Y-67974751D01*
X93661289Y-67974751D02*
X93575209Y-67811400D01*
X93575209Y-67811400D02*
X93484919Y-67650230D01*
X93484919Y-67650230D02*
X93394509Y-67488860D01*
X93394509Y-67488860D02*
X93304019Y-67327341D01*
X93304019Y-67327341D02*
X93213689Y-67166112D01*
X93213689Y-67166112D02*
X93117989Y-67008127D01*
X93117989Y-67008127D02*
X93022169Y-66849943D01*
X93022169Y-66849943D02*
X92926259Y-66691614D01*
X92926259Y-66691614D02*
X92830519Y-66533570D01*
X92830519Y-66533570D02*
X92728025Y-66380358D01*
X92728025Y-66380358D02*
X92625401Y-66226956D01*
X92625401Y-66226956D02*
X92522685Y-66073412D01*
X92522685Y-66073412D02*
X92420152Y-65920144D01*
X92420152Y-65920144D02*
X92306515Y-65766149D01*
X92306515Y-65766149D02*
X92192878Y-65612155D01*
X92192878Y-65612155D02*
X92081578Y-65473242D01*
X92081578Y-65473242D02*
X91970277Y-65334330D01*
X91970277Y-65334330D02*
X91841985Y-65189468D01*
X91841985Y-65189468D02*
X91713693Y-65044609D01*
X91713693Y-65044609D02*
X91588587Y-64920989D01*
X91588587Y-64920989D02*
X91463480Y-64797369D01*
X91463480Y-64797369D02*
X91311821Y-64672474D01*
X91311821Y-64672474D02*
X91160163Y-64547580D01*
X91160163Y-64547580D02*
X91012755Y-64447324D01*
X91012755Y-64447324D02*
X90867469Y-64363634D01*
X90867469Y-64363634D02*
X90720909Y-64297364D01*
X90720909Y-64297364D02*
X90574349Y-64231094D01*
X90574349Y-64231094D02*
X90401238Y-64171194D01*
X90401238Y-64171194D02*
X90228130Y-64111294D01*
X90228130Y-64111294D02*
X90067125Y-64067324D01*
X90067125Y-64067324D02*
X89906123Y-64023354D01*
X89906123Y-64023354D02*
X89733012Y-63984904D01*
X89733012Y-63984904D02*
X89559902Y-63946464D01*
X89559902Y-63946464D02*
X89392527Y-63916934D01*
X89392527Y-63916934D02*
X89225152Y-63887414D01*
X89225152Y-63887414D02*
X89052041Y-63863834D01*
X89052041Y-63863834D02*
X88878930Y-63840264D01*
X88878930Y-63840264D02*
X88708155Y-63823694D01*
X88708155Y-63823694D02*
X88537383Y-63807124D01*
X88537383Y-63807124D02*
X88365336Y-63796724D01*
X88365336Y-63796724D02*
X88193287Y-63786304D01*
X88193287Y-63786304D02*
X88022144Y-63779504D01*
X88022144Y-63779504D02*
X87850787Y-63772704D01*
X87850787Y-63772704D02*
X87679273Y-63765904D01*
X87679273Y-63765904D02*
X87508067Y-63759104D01*
X87508067Y-63759104D02*
X87471747Y-63628687D01*
X87471747Y-63628687D02*
X87435427Y-63498270D01*
X87435427Y-63498270D02*
X87384927Y-63333708D01*
X87384927Y-63333708D02*
X87334357Y-63168936D01*
X87334357Y-63168936D02*
X87283747Y-63004014D01*
X87283747Y-63004014D02*
X87233227Y-62839391D01*
X87233227Y-62839391D02*
X87177947Y-62676100D01*
X87177947Y-62676100D02*
X87122597Y-62512603D01*
X87122597Y-62512603D02*
X87067197Y-62348958D01*
X87067197Y-62348958D02*
X87011897Y-62185607D01*
X87011897Y-62185607D02*
X86952377Y-62024013D01*
X86952377Y-62024013D02*
X86892777Y-61862217D01*
X86892777Y-61862217D02*
X86833127Y-61700273D01*
X86833127Y-61700273D02*
X86773577Y-61538620D01*
X86773577Y-61538620D02*
X86695907Y-61350926D01*
X86695907Y-61350926D02*
X86618137Y-61162995D01*
X86618137Y-61162995D02*
X86540297Y-60974894D01*
X86540297Y-60974894D02*
X86462607Y-60787130D01*
X86462607Y-60787130D02*
X86379427Y-60601665D01*
X86379427Y-60601665D02*
X86296137Y-60415965D01*
X86296137Y-60415965D02*
X86212767Y-60230096D01*
X86212767Y-60230096D02*
X86129557Y-60044561D01*
X86129557Y-60044561D02*
X86042447Y-59861004D01*
X86042447Y-59861004D02*
X85955227Y-59677218D01*
X85955227Y-59677218D02*
X85867927Y-59493263D01*
X85867927Y-59493263D02*
X85780787Y-59309638D01*
X85780787Y-59309638D02*
X85690387Y-59127568D01*
X85690387Y-59127568D02*
X85599877Y-58945268D01*
X85599877Y-58945268D02*
X85509277Y-58762801D01*
X85509277Y-58762801D02*
X85418847Y-58580664D01*
X85418847Y-58580664D02*
X85325797Y-58400184D01*
X85325797Y-58400184D02*
X85232627Y-58219478D01*
X85232627Y-58219478D02*
X85139377Y-58038605D01*
X85139377Y-58038605D02*
X85046287Y-57858060D01*
X85046287Y-57858060D02*
X84950687Y-57678748D01*
X84950687Y-57678748D02*
X84854967Y-57499210D01*
X84854967Y-57499210D02*
X84759157Y-57319507D01*
X84759157Y-57319507D02*
X84663527Y-57140130D01*
X84663527Y-57140130D02*
X84565487Y-56962091D01*
X84565487Y-56962091D02*
X84467327Y-56783830D01*
X84467327Y-56783830D02*
X84369077Y-56605403D01*
X84369077Y-56605403D02*
X84271007Y-56427299D01*
X84271007Y-56427299D02*
X84170953Y-56250745D01*
X84170953Y-56250745D02*
X84070773Y-56073969D01*
X84070773Y-56073969D02*
X83970500Y-55897033D01*
X83970500Y-55897033D02*
X83870410Y-55720414D01*
X83870410Y-55720414D02*
X83767915Y-55545028D01*
X83767915Y-55545028D02*
X83665290Y-55369420D01*
X83665290Y-55369420D02*
X83562574Y-55193652D01*
X83562574Y-55193652D02*
X83460041Y-55018201D01*
X83460041Y-55018201D02*
X83355320Y-54844300D01*
X83355320Y-54844300D02*
X83250464Y-54670181D01*
X83250464Y-54670181D02*
X83145514Y-54495902D01*
X83145514Y-54495902D02*
X83040754Y-54321936D01*
X83040754Y-54321936D02*
X82933379Y-54149522D01*
X82933379Y-54149522D02*
X82825868Y-53976887D01*
X82825868Y-53976887D02*
X82718260Y-53804099D01*
X82718260Y-53804099D02*
X82610844Y-53631619D01*
X82610844Y-53631619D02*
X82499774Y-53465580D01*
X82499774Y-53465580D02*
X82389395Y-53294542D01*
X82389395Y-53294542D02*
X82278917Y-53123348D01*
X82278917Y-53123348D02*
X82168636Y-52952460D01*
X82168636Y-52952460D02*
X82055106Y-52784076D01*
X82055106Y-52784076D02*
X81941435Y-52615480D01*
X81941435Y-52615480D02*
X81827659Y-52446730D01*
X81827659Y-52446730D02*
X81714088Y-52278285D01*
X81714088Y-52278285D02*
X81603424Y-52121998D01*
X81603424Y-52121998D02*
X81492619Y-51965514D01*
X81492619Y-51965514D02*
X81381715Y-51808885D01*
X81381715Y-51808885D02*
X81271010Y-51652540D01*
X81271010Y-51652540D02*
X81156421Y-51498904D01*
X81156421Y-51498904D02*
X81041686Y-51345075D01*
X81041686Y-51345075D02*
X80926848Y-51191105D01*
X80926848Y-51191105D02*
X80812215Y-51037413D01*
X80812215Y-51037413D02*
X80693700Y-50886855D01*
X80693700Y-50886855D02*
X80575035Y-50736106D01*
X80575035Y-50736106D02*
X80456261Y-50585222D01*
X80456261Y-50585222D02*
X80337702Y-50434608D01*
X80337702Y-50434608D02*
X80214837Y-50287338D01*
X80214837Y-50287338D02*
X80091815Y-50139882D01*
X80091815Y-50139882D02*
X79968682Y-49992293D01*
X79968682Y-49992293D02*
X79845771Y-49844970D01*
X79845771Y-49844970D02*
X79718662Y-49701309D01*
X79718662Y-49701309D02*
X79591390Y-49557466D01*
X79591390Y-49557466D02*
X79464005Y-49413492D01*
X79464005Y-49413492D02*
X79336849Y-49269777D01*
X79336849Y-49269777D02*
X79205388Y-49130253D01*
X79205388Y-49130253D02*
X79073761Y-48990553D01*
X79073761Y-48990553D02*
X78942016Y-48850726D01*
X78942016Y-48850726D02*
X78810507Y-48711150D01*
X78810507Y-48711150D02*
X78674485Y-48575870D01*
X78674485Y-48575870D02*
X78538291Y-48440420D01*
X78538291Y-48440420D02*
X78401973Y-48304846D01*
X78401973Y-48304846D02*
X78265901Y-48169516D01*
X78265901Y-48169516D02*
X78125209Y-48038905D01*
X78125209Y-48038905D02*
X77984341Y-47908129D01*
X77984341Y-47908129D02*
X77843345Y-47777234D01*
X77843345Y-47777234D02*
X77702601Y-47646575D01*
X77702601Y-47646575D02*
X77557454Y-47521163D01*
X77557454Y-47521163D02*
X77412123Y-47395592D01*
X77412123Y-47395592D02*
X77266661Y-47269906D01*
X77266661Y-47269906D02*
X77121461Y-47144448D01*
X77121461Y-47144448D02*
X76971964Y-47024447D01*
X76971964Y-47024447D02*
X76822279Y-46904294D01*
X76822279Y-46904294D02*
X76672456Y-46784032D01*
X76672456Y-46784032D02*
X76522903Y-46663988D01*
X76522903Y-46663988D02*
X76368844Y-46549609D01*
X76368844Y-46549609D02*
X76214588Y-46435088D01*
X76214588Y-46435088D02*
X76060194Y-46320461D01*
X76060194Y-46320461D02*
X75906078Y-46206042D01*
X75906078Y-46206042D02*
X75748092Y-46097712D01*
X75748092Y-46097712D02*
X75589909Y-45989246D01*
X75589909Y-45989246D02*
X75431579Y-45880679D01*
X75431579Y-45880679D02*
X75273535Y-45772310D01*
X75273535Y-45772310D02*
X75111517Y-45670134D01*
X75111517Y-45670134D02*
X74949295Y-45567829D01*
X74949295Y-45567829D02*
X74786924Y-45465431D01*
X74786924Y-45465431D02*
X74624848Y-45363217D01*
X74624848Y-45363217D02*
X74458693Y-45267197D01*
X74458693Y-45267197D02*
X74292329Y-45171057D01*
X74292329Y-45171057D02*
X74125811Y-45074827D01*
X74125811Y-45074827D02*
X73959595Y-44978767D01*
X73959595Y-44978767D02*
X73790256Y-44889217D01*
X73790256Y-44889217D02*
X73620703Y-44799557D01*
X73620703Y-44799557D02*
X73450997Y-44709817D01*
X73450997Y-44709817D02*
X73281597Y-44620237D01*
X73281597Y-44620237D02*
X73118413Y-44541717D01*
X73118413Y-44541717D02*
X72955022Y-44463107D01*
X72955022Y-44463107D02*
X72791484Y-44384417D01*
X72791484Y-44384417D02*
X72628239Y-44305877D01*
X72628239Y-44305877D02*
X72462189Y-44233727D01*
X72462189Y-44233727D02*
X72295929Y-44161487D01*
X72295929Y-44161487D02*
X72129520Y-44089177D01*
X72129520Y-44089177D02*
X71963408Y-44016997D01*
X71963408Y-44016997D02*
X71794496Y-43951317D01*
X71794496Y-43951317D02*
X71625367Y-43885557D01*
X71625367Y-43885557D02*
X71456087Y-43819737D01*
X71456087Y-43819737D02*
X71287111Y-43754037D01*
X71287111Y-43754037D02*
X71116182Y-43694617D01*
X71116182Y-43694617D02*
X70945035Y-43635127D01*
X70945035Y-43635127D02*
X70773734Y-43575577D01*
X70773734Y-43575577D02*
X70602742Y-43516137D01*
X70602742Y-43516137D02*
X70429797Y-43462667D01*
X70429797Y-43462667D02*
X70256632Y-43409127D01*
X70256632Y-43409127D02*
X70083310Y-43355537D01*
X70083310Y-43355537D02*
X69910299Y-43302047D01*
X69910299Y-43302047D02*
X69735655Y-43253877D01*
X69735655Y-43253877D02*
X69560794Y-43205647D01*
X69560794Y-43205647D02*
X69385769Y-43157367D01*
X69385769Y-43157367D02*
X69211062Y-43109177D01*
X69211062Y-43109177D02*
X69035463Y-43065997D01*
X69035463Y-43065997D02*
X68859644Y-43022757D01*
X68859644Y-43022757D02*
X68683663Y-42979477D01*
X68683663Y-42979477D02*
X68508001Y-42936277D01*
X68508001Y-42936277D02*
X68331129Y-42897227D01*
X68331129Y-42897227D02*
X68154034Y-42858137D01*
X68154034Y-42858137D02*
X67976778Y-42819007D01*
X67976778Y-42819007D02*
X67799841Y-42779947D01*
X67799841Y-42779947D02*
X67633206Y-42745147D01*
X67633206Y-42745147D02*
X67466174Y-42710267D01*
X67466174Y-42710267D02*
X67299415Y-42675447D01*
X67299415Y-42675447D02*
X67299415Y-42483433D01*
X67299415Y-42483433D02*
X67308215Y-42295101D01*
X67308215Y-42295101D02*
X67317015Y-42106535D01*
X67317015Y-42106535D02*
X67325815Y-41917795D01*
X67325815Y-41917795D02*
X67334615Y-41729393D01*
X67334615Y-41729393D02*
X67344115Y-41541063D01*
X67344115Y-41541063D02*
X67353715Y-41352495D01*
X67353715Y-41352495D02*
X67363315Y-41163755D01*
X67363315Y-41163755D02*
X67372815Y-40975355D01*
X67372815Y-40975355D02*
X67382615Y-40787130D01*
X67382615Y-40787130D02*
X67392415Y-40598668D01*
X67392415Y-40598668D02*
X67402215Y-40410034D01*
X67402215Y-40410034D02*
X67412015Y-40221740D01*
X67412015Y-40221740D02*
X67422015Y-40033516D01*
X67422015Y-40033516D02*
X67432015Y-39845054D01*
X67432015Y-39845054D02*
X67442025Y-39656420D01*
X67442025Y-39656420D02*
X67452025Y-39468126D01*
X67452025Y-39468126D02*
X67462025Y-39280008D01*
X67462025Y-39280008D02*
X67472025Y-39091652D01*
X67472025Y-39091652D02*
X67482035Y-38903125D01*
X67482035Y-38903125D02*
X67492035Y-38714937D01*
X67492035Y-38714937D02*
X67502105Y-38526925D01*
X67502105Y-38526925D02*
X67512195Y-38338676D01*
X67512195Y-38338676D02*
X67522285Y-38150254D01*
X67522285Y-38150254D02*
X67532375Y-37962173D01*
X67532375Y-37962173D02*
X67543095Y-37760791D01*
X67543095Y-37760791D02*
X67553815Y-37559157D01*
X67553815Y-37559157D02*
X67564555Y-37357337D01*
X67564555Y-37357337D02*
X67575275Y-37155882D01*
X67575275Y-37155882D02*
X67586105Y-36954076D01*
X67586105Y-36954076D02*
X67596935Y-36752016D01*
X67596935Y-36752016D02*
X67607785Y-36549772D01*
X67607785Y-36549772D02*
X67618615Y-36347892D01*
X67618615Y-36347892D02*
X67629335Y-36146511D01*
X67629335Y-36146511D02*
X67640055Y-35944876D01*
X67640055Y-35944876D02*
X67650805Y-35743057D01*
X67650805Y-35743057D02*
X67661525Y-35541602D01*
X67661525Y-35541602D02*
X67672135Y-35340220D01*
X67672135Y-35340220D02*
X67682745Y-35138585D01*
X67682745Y-35138585D02*
X67693385Y-34936766D01*
X67693385Y-34936766D02*
X67703995Y-34735311D01*
X67703995Y-34735311D02*
X67714505Y-34533611D01*
X67714505Y-34533611D02*
X67725035Y-34331658D01*
X67725035Y-34331658D02*
X67735565Y-34129520D01*
X67735565Y-34129520D02*
X67746075Y-33927746D01*
X67746075Y-33927746D02*
X67756475Y-33726046D01*
X67756475Y-33726046D02*
X67766895Y-33524093D01*
X67766895Y-33524093D02*
X67777315Y-33321955D01*
X67777315Y-33321955D02*
X67787715Y-33120181D01*
X67787715Y-33120181D02*
X67797785Y-32918694D01*
X67797785Y-32918694D02*
X67807875Y-32716953D01*
X67807875Y-32716953D02*
X67817965Y-32515027D01*
X67817965Y-32515027D02*
X67828055Y-32313465D01*
X67828055Y-32313465D02*
X67838055Y-32112084D01*
X67838055Y-32112084D02*
X67848055Y-31910449D01*
X67848055Y-31910449D02*
X67858065Y-31708630D01*
X67858065Y-31708630D02*
X67868065Y-31507175D01*
X67868065Y-31507175D02*
X67877565Y-31305688D01*
X67877565Y-31305688D02*
X67887165Y-31103946D01*
X67887165Y-31103946D02*
X67896765Y-30902021D01*
X67896765Y-30902021D02*
X67906265Y-30700460D01*
X67906265Y-30700460D02*
X67915365Y-30498654D01*
X67915365Y-30498654D02*
X67924465Y-30296594D01*
X67924465Y-30296594D02*
X67933565Y-30094350D01*
X67933565Y-30094350D02*
X67942665Y-29892470D01*
X67942665Y-29892470D02*
X67951065Y-29690876D01*
X67951065Y-29690876D02*
X67959465Y-29489029D01*
X67959465Y-29489029D02*
X67967865Y-29286997D01*
X67967865Y-29286997D02*
X67976265Y-29085330D01*
X67976265Y-29085330D02*
X67983565Y-28883418D01*
X67983565Y-28883418D02*
X67990865Y-28681252D01*
X67990865Y-28681252D02*
X67998165Y-28478901D01*
X67998165Y-28478901D02*
X68005465Y-28276915D01*
X68005465Y-28276915D02*
X68010965Y-28075215D01*
X68010965Y-28075215D02*
X68016465Y-27873262D01*
X68016465Y-27873262D02*
X68021965Y-27671124D01*
X68021965Y-27671124D02*
X68027465Y-27469350D01*
X68027465Y-27469350D02*
X68029965Y-27267544D01*
X68029965Y-27267544D02*
X68032465Y-27065484D01*
X68032465Y-27065484D02*
X68034965Y-26863240D01*
X68034965Y-26863240D02*
X68037465Y-26661360D01*
X68037465Y-26661360D02*
X68035465Y-26459554D01*
X68035465Y-26459554D02*
X68033465Y-26257494D01*
X68033465Y-26257494D02*
X68031465Y-26055250D01*
X68031465Y-26055250D02*
X68029465Y-25853370D01*
X68029465Y-25853370D02*
X68023765Y-25662705D01*
X68023765Y-25662705D02*
X68018065Y-25471800D01*
X68018065Y-25471800D02*
X68012365Y-25280721D01*
X68012365Y-25280721D02*
X68006665Y-25089985D01*
X68006665Y-25089985D02*
X67994925Y-24941457D01*
X67994925Y-24941457D02*
X67983155Y-24792574D01*
X67983155Y-24792574D02*
X67971405Y-24643934D01*
X67971405Y-24643934D02*
X67941665Y-24489091D01*
X67941665Y-24489091D02*
X67911925Y-24334247D01*
X67911925Y-24334247D02*
X67851605Y-24139259D01*
X67851605Y-24139259D02*
X67774285Y-23956166D01*
X67774285Y-23956166D02*
X67679125Y-23784118D01*
X67679125Y-23784118D02*
X67565278Y-23622265D01*
X67565278Y-23622265D02*
X67442082Y-23480378D01*
X67442082Y-23480378D02*
X67301468Y-23346987D01*
X67301468Y-23346987D02*
X67143015Y-23221243D01*
X67143015Y-23221243D02*
X66965870Y-23103146D01*
X66965870Y-23103146D02*
X66799556Y-23013726D01*
X66799556Y-23013726D02*
X66633242Y-22924306D01*
X66633242Y-22924306D02*
X66439741Y-22843376D01*
X66439741Y-22843376D02*
X66246239Y-22762446D01*
X66246239Y-22762446D02*
X66065481Y-22701696D01*
X66065481Y-22701696D02*
X65884725Y-22640946D01*
X65884725Y-22640946D02*
X65684002Y-22585086D01*
X65684002Y-22585086D02*
X65483280Y-22529226D01*
X65483280Y-22529226D02*
X65298557Y-22486576D01*
X65298557Y-22486576D02*
X65113601Y-22443866D01*
X65113601Y-22443866D02*
X64928475Y-22401116D01*
X64928475Y-22401116D02*
X64743685Y-22358446D01*
X64743685Y-22358446D02*
X64556732Y-22324816D01*
X64556732Y-22324816D02*
X64369547Y-22291136D01*
X64369547Y-22291136D02*
X64182187Y-22257426D01*
X64182187Y-22257426D02*
X63995167Y-22223776D01*
X63995167Y-22223776D02*
X63807156Y-22198946D01*
X63807156Y-22198946D02*
X63618907Y-22174086D01*
X63618907Y-22174086D02*
X63430486Y-22149206D01*
X63430486Y-22149206D02*
X63242405Y-22124366D01*
X63242405Y-22124366D02*
X63053542Y-22106756D01*
X63053542Y-22106756D02*
X62864443Y-22089116D01*
X62864443Y-22089116D02*
X62675172Y-22071466D01*
X62675172Y-22071466D02*
X62486240Y-22053846D01*
X62486240Y-22053846D02*
X62296847Y-22041436D01*
X62296847Y-22041436D02*
X62107217Y-22029006D01*
X62107217Y-22029006D02*
X61917415Y-22016566D01*
X61917415Y-22016566D02*
X61727953Y-22004146D01*
X61727953Y-22004146D02*
X61538455Y-21995346D01*
X61538455Y-21995346D02*
X61348719Y-21986546D01*
X61348719Y-21986546D02*
X61158808Y-21977746D01*
X61158808Y-21977746D02*
X60969241Y-21968946D01*
X60969241Y-21968946D02*
X60759172Y-21962146D01*
X60759172Y-21962146D02*
X60549103Y-21955346D01*
X60549103Y-21955346D02*
X60338162Y-21951046D01*
X60338162Y-21951046D02*
X60127224Y-21946746D01*
X60127224Y-21946746D02*
X59929722Y-21946746D01*
X59929722Y-21946746D02*
X59732470Y-21946746D01*
X59732470Y-21946746D02*
X59534725Y-21946746D01*
X59534725Y-21946746D02*
X59337137Y-21946746D01*
X59337137Y-21946746D02*
X59139368Y-21946746D01*
X59139368Y-21946746D02*
X58941521Y-21946746D01*
X58941521Y-21946746D02*
X58743980Y-21946746D01*
X58743980Y-21946746D02*
X58533061Y-21950946D01*
X58533061Y-21950946D02*
X58322144Y-21955146D01*
X58322144Y-21955146D02*
X58112075Y-21961946D01*
X58112075Y-21961946D02*
X57902006Y-21968746D01*
X57902006Y-21968746D02*
X57712509Y-21977546D01*
X57712509Y-21977546D02*
X57522772Y-21986346D01*
X57522772Y-21986346D02*
X57332862Y-21995146D01*
X57332862Y-21995146D02*
X57143295Y-22003946D01*
X57143295Y-22003946D02*
X56953902Y-22016356D01*
X56953902Y-22016356D02*
X56764272Y-22028786D01*
X56764272Y-22028786D02*
X56574470Y-22041226D01*
X56574470Y-22041226D02*
X56385007Y-22053646D01*
X56385007Y-22053646D02*
X56196147Y-22071256D01*
X56196147Y-22071256D02*
X56007048Y-22088896D01*
X56007048Y-22088896D02*
X55817774Y-22106546D01*
X55817774Y-22106546D02*
X55628845Y-22124166D01*
X55628845Y-22124166D02*
X55440833Y-22148996D01*
X55440833Y-22148996D02*
X55252582Y-22173856D01*
X55252582Y-22173856D02*
X55064161Y-22198736D01*
X55064161Y-22198736D02*
X54876080Y-22223576D01*
X54876080Y-22223576D02*
X54689127Y-22257216D01*
X54689127Y-22257216D02*
X54501942Y-22290896D01*
X54501942Y-22290896D02*
X54314583Y-22324606D01*
X54314583Y-22324606D02*
X54127563Y-22358256D01*
X54127563Y-22358256D02*
X53942839Y-22400906D01*
X53942839Y-22400906D02*
X53757884Y-22443616D01*
X53757884Y-22443616D02*
X53572758Y-22486366D01*
X53572758Y-22486366D02*
X53387967Y-22529036D01*
X53387967Y-22529036D02*
X53187245Y-22584896D01*
X53187245Y-22584896D02*
X52986522Y-22640756D01*
X52986522Y-22640756D02*
X52805764Y-22701506D01*
X52805764Y-22701506D02*
X52625008Y-22762256D01*
X52625008Y-22762256D02*
X52431506Y-22843186D01*
X52431506Y-22843186D02*
X52238005Y-22924116D01*
X52238005Y-22924116D02*
X52071691Y-23013536D01*
X52071691Y-23013536D02*
X51905380Y-23102956D01*
X51905380Y-23102956D02*
X51728232Y-23221053D01*
X51728232Y-23221053D02*
X51569779Y-23346797D01*
X51569779Y-23346797D02*
X51429165Y-23480188D01*
X51429165Y-23480188D02*
X51305972Y-23622075D01*
X51305972Y-23622075D02*
X51192122Y-23783928D01*
X51192122Y-23783928D02*
X51096962Y-23955976D01*
X51096962Y-23955976D02*
X51019652Y-24139069D01*
X51019652Y-24139069D02*
X50959332Y-24334057D01*
X50959332Y-24334057D02*
X50929592Y-24488901D01*
X50929592Y-24488901D02*
X50899852Y-24643745D01*
X50899852Y-24643745D02*
X50888102Y-24792273D01*
X50888102Y-24792273D02*
X50876332Y-24941156D01*
X50876332Y-24941156D02*
X50864592Y-25089795D01*
X50864592Y-25089795D02*
X50858892Y-25280460D01*
X50858892Y-25280460D02*
X50853192Y-25471365D01*
X50853192Y-25471365D02*
X50847492Y-25662445D01*
X50847492Y-25662445D02*
X50841792Y-25853180D01*
X50841792Y-25853180D02*
X50839792Y-26054986D01*
X50839792Y-26054986D02*
X50837792Y-26257046D01*
X50837792Y-26257046D02*
X50835792Y-26459290D01*
X50835792Y-26459290D02*
X50833792Y-26661170D01*
X50833792Y-26661170D02*
X50836292Y-26862976D01*
X50836292Y-26862976D02*
X50838792Y-27065035D01*
X50838792Y-27065035D02*
X50841292Y-27267280D01*
X50841292Y-27267280D02*
X50843792Y-27469160D01*
X50843792Y-27469160D02*
X50849292Y-27670860D01*
X50849292Y-27670860D02*
X50854792Y-27872813D01*
X50854792Y-27872813D02*
X50860292Y-28074951D01*
X50860292Y-28074951D02*
X50865792Y-28276725D01*
X50865792Y-28276725D02*
X50873092Y-28478637D01*
X50873092Y-28478637D02*
X50880392Y-28680803D01*
X50880392Y-28680803D02*
X50887692Y-28883153D01*
X50887692Y-28883153D02*
X50894992Y-29085140D01*
X50894992Y-29085140D02*
X50903392Y-29286733D01*
X50903392Y-29286733D02*
X50911792Y-29488581D01*
X50911792Y-29488581D02*
X50920192Y-29690612D01*
X50920192Y-29690612D02*
X50928592Y-29892280D01*
X50928592Y-29892280D02*
X50937692Y-30094086D01*
X50937692Y-30094086D02*
X50946792Y-30296146D01*
X50946792Y-30296146D02*
X50955892Y-30498390D01*
X50955892Y-30498390D02*
X50964992Y-30700270D01*
X50964992Y-30700270D02*
X50974492Y-30901757D01*
X50974492Y-30901757D02*
X50984092Y-31103498D01*
X50984092Y-31103498D02*
X50993692Y-31305424D01*
X50993692Y-31305424D02*
X51003192Y-31506985D01*
X51003192Y-31506985D02*
X51013192Y-31708367D01*
X51013192Y-31708367D02*
X51023192Y-31910001D01*
X51023192Y-31910001D02*
X51033202Y-32111820D01*
X51033202Y-32111820D02*
X51043202Y-32313276D01*
X51043202Y-32313276D02*
X51053272Y-32514763D01*
X51053272Y-32514763D02*
X51063362Y-32716504D01*
X51063362Y-32716504D02*
X51073452Y-32918429D01*
X51073452Y-32918429D02*
X51083542Y-33119991D01*
X51083542Y-33119991D02*
X51093942Y-33321691D01*
X51093942Y-33321691D02*
X51104362Y-33523644D01*
X51104362Y-33523644D02*
X51114782Y-33725782D01*
X51114782Y-33725782D02*
X51125182Y-33927556D01*
X51125182Y-33927556D02*
X51135692Y-34129256D01*
X51135692Y-34129256D02*
X51146222Y-34331209D01*
X51146222Y-34331209D02*
X51156752Y-34533348D01*
X51156752Y-34533348D02*
X51167262Y-34735122D01*
X51167262Y-34735122D02*
X51177872Y-34936503D01*
X51177872Y-34936503D02*
X51188482Y-35138137D01*
X51188482Y-35138137D02*
X51199122Y-35339957D01*
X51199122Y-35339957D02*
X51209732Y-35541412D01*
X51209732Y-35541412D02*
X51220452Y-35742793D01*
X51220452Y-35742793D02*
X51231172Y-35944428D01*
X51231172Y-35944428D02*
X51241922Y-36146247D01*
X51241922Y-36146247D02*
X51252642Y-36347703D01*
X51252642Y-36347703D02*
X51263472Y-36549508D01*
X51263472Y-36549508D02*
X51274302Y-36751568D01*
X51274302Y-36751568D02*
X51285152Y-36953812D01*
X51285152Y-36953812D02*
X51295982Y-37155693D01*
X51295982Y-37155693D02*
X51306702Y-37357074D01*
X51306702Y-37357074D02*
X51317422Y-37558708D01*
X51317422Y-37558708D02*
X51328162Y-37760528D01*
X51328162Y-37760528D02*
X51338882Y-37961983D01*
X51338882Y-37961983D02*
X51348952Y-38149996D01*
X51348952Y-38149996D02*
X51359042Y-38338244D01*
X51359042Y-38338244D02*
X51369132Y-38526666D01*
X51369132Y-38526666D02*
X51379222Y-38714747D01*
X51379222Y-38714747D02*
X51389222Y-38902866D01*
X51389222Y-38902866D02*
X51399222Y-39091221D01*
X51399222Y-39091221D02*
X51409222Y-39279749D01*
X51409222Y-39279749D02*
X51419222Y-39467937D01*
X51419222Y-39467937D02*
X51429222Y-39656161D01*
X51429222Y-39656161D02*
X51439222Y-39844623D01*
X51439222Y-39844623D02*
X51449222Y-40033256D01*
X51449222Y-40033256D02*
X51459222Y-40221550D01*
X51459222Y-40221550D02*
X51469022Y-40409775D01*
X51469022Y-40409775D02*
X51478822Y-40598237D01*
X51478822Y-40598237D02*
X51488622Y-40786871D01*
X51488622Y-40786871D02*
X51498422Y-40975165D01*
X51498422Y-40975165D02*
X51507922Y-41163496D01*
X51507922Y-41163496D02*
X51517522Y-41352063D01*
X51517522Y-41352063D02*
X51527122Y-41540804D01*
X51527122Y-41540804D02*
X51536622Y-41729203D01*
X51536622Y-41729203D02*
X51545422Y-41917535D01*
X51545422Y-41917535D02*
X51554222Y-42106101D01*
X51554222Y-42106101D02*
X51563022Y-42294842D01*
X51563022Y-42294842D02*
X51571822Y-42483243D01*
X51571822Y-42483243D02*
X51571822Y-42675257D01*
X51571822Y-42675257D02*
X51405187Y-42710057D01*
X51405187Y-42710057D02*
X51238155Y-42744937D01*
X51238155Y-42744937D02*
X51071396Y-42779757D01*
X51071396Y-42779757D02*
X50894524Y-42818807D01*
X50894524Y-42818807D02*
X50717429Y-42857897D01*
X50717429Y-42857897D02*
X50540173Y-42897027D01*
X50540173Y-42897027D02*
X50363236Y-42936087D01*
X50363236Y-42936087D02*
X50187637Y-42979267D01*
X50187637Y-42979267D02*
X50011819Y-43022507D01*
X50011819Y-43022507D02*
X49835837Y-43065787D01*
X49835837Y-43065787D02*
X49660175Y-43108987D01*
X49660175Y-43108987D02*
X49485531Y-43157157D01*
X49485531Y-43157157D02*
X49310669Y-43205387D01*
X49310669Y-43205387D02*
X49135645Y-43253657D01*
X49135645Y-43253657D02*
X48960938Y-43301847D01*
X48960938Y-43301847D02*
X48787992Y-43355327D01*
X48787992Y-43355327D02*
X48614827Y-43408867D01*
X48614827Y-43408867D02*
X48441505Y-43462457D01*
X48441505Y-43462457D02*
X48268495Y-43515957D01*
X48268495Y-43515957D02*
X48097566Y-43575377D01*
X48097566Y-43575377D02*
X47926419Y-43634867D01*
X47926419Y-43634867D02*
X47755118Y-43694417D01*
X47755118Y-43694417D02*
X47584126Y-43753857D01*
X47584126Y-43753857D02*
X47415213Y-43819537D01*
X47415213Y-43819537D02*
X47246085Y-43885297D01*
X47246085Y-43885297D02*
X47076804Y-43951117D01*
X47076804Y-43951117D02*
X46907828Y-44016817D01*
X46907828Y-44016817D02*
X46741778Y-44088967D01*
X46741778Y-44088967D02*
X46575519Y-44161207D01*
X46575519Y-44161207D02*
X46409109Y-44233517D01*
X46409109Y-44233517D02*
X46242998Y-44305697D01*
X46242998Y-44305697D02*
X46079814Y-44384217D01*
X46079814Y-44384217D02*
X45916423Y-44462827D01*
X45916423Y-44462827D02*
X45752885Y-44541517D01*
X45752885Y-44541517D02*
X45589640Y-44620057D01*
X45589640Y-44620057D02*
X45420301Y-44709607D01*
X45420301Y-44709607D02*
X45250749Y-44799267D01*
X45250749Y-44799267D02*
X45081042Y-44889007D01*
X45081042Y-44889007D02*
X44911642Y-44978587D01*
X44911642Y-44978587D02*
X44745487Y-45074607D01*
X44745487Y-45074607D02*
X44579123Y-45170747D01*
X44579123Y-45170747D02*
X44412605Y-45266977D01*
X44412605Y-45266977D02*
X44246389Y-45363037D01*
X44246389Y-45363037D02*
X44084371Y-45465214D01*
X44084371Y-45465214D02*
X43922151Y-45567518D01*
X43922151Y-45567518D02*
X43759781Y-45669917D01*
X43759781Y-45669917D02*
X43597704Y-45772130D01*
X43597704Y-45772130D02*
X43439718Y-45880460D01*
X43439718Y-45880460D02*
X43281533Y-45988926D01*
X43281533Y-45988926D02*
X43123204Y-46097493D01*
X43123204Y-46097493D02*
X42965159Y-46205861D01*
X42965159Y-46205861D02*
X42811100Y-46320240D01*
X42811100Y-46320240D02*
X42656847Y-46434762D01*
X42656847Y-46434762D02*
X42502452Y-46549388D01*
X42502452Y-46549388D02*
X42348336Y-46663808D01*
X42348336Y-46663808D02*
X42198837Y-46783808D01*
X42198837Y-46783808D02*
X42049152Y-46903961D01*
X42049152Y-46903961D02*
X41899329Y-47024223D01*
X41899329Y-47024223D02*
X41749776Y-47144267D01*
X41749776Y-47144267D02*
X41604630Y-47269680D01*
X41604630Y-47269680D02*
X41459299Y-47395251D01*
X41459299Y-47395251D02*
X41313837Y-47520937D01*
X41313837Y-47520937D02*
X41168636Y-47646395D01*
X41168636Y-47646395D02*
X41027944Y-47777006D01*
X41027944Y-47777006D02*
X40887076Y-47907781D01*
X40887076Y-47907781D02*
X40746080Y-48038677D01*
X40746080Y-48038677D02*
X40605336Y-48169335D01*
X40605336Y-48169335D02*
X40469314Y-48304616D01*
X40469314Y-48304616D02*
X40333120Y-48440066D01*
X40333120Y-48440066D02*
X40196802Y-48575640D01*
X40196802Y-48575640D02*
X40060730Y-48710970D01*
X40060730Y-48710970D02*
X39929269Y-48850494D01*
X39929269Y-48850494D02*
X39797645Y-48990194D01*
X39797645Y-48990194D02*
X39665899Y-49130020D01*
X39665899Y-49130020D02*
X39534390Y-49269596D01*
X39534390Y-49269596D02*
X39407279Y-49413257D01*
X39407279Y-49413257D02*
X39280010Y-49557101D01*
X39280010Y-49557101D02*
X39152622Y-49701075D01*
X39152622Y-49701075D02*
X39025466Y-49844790D01*
X39025466Y-49844790D02*
X38902600Y-49992059D01*
X38902600Y-49992059D02*
X38779579Y-50139515D01*
X38779579Y-50139515D02*
X38656446Y-50287104D01*
X38656446Y-50287104D02*
X38533535Y-50434427D01*
X38533535Y-50434427D02*
X38415019Y-50584985D01*
X38415019Y-50584985D02*
X38296354Y-50735734D01*
X38296354Y-50735734D02*
X38177580Y-50886618D01*
X38177580Y-50886618D02*
X38059021Y-51037233D01*
X38059021Y-51037233D02*
X37944432Y-51190868D01*
X37944432Y-51190868D02*
X37829697Y-51344697D01*
X37829697Y-51344697D02*
X37714860Y-51498668D01*
X37714860Y-51498668D02*
X37600227Y-51652360D01*
X37600227Y-51652360D02*
X37489564Y-51808646D01*
X37489564Y-51808646D02*
X37378759Y-51965131D01*
X37378759Y-51965131D02*
X37267854Y-52121760D01*
X37267854Y-52121760D02*
X37157149Y-52278105D01*
X37157149Y-52278105D02*
X37043619Y-52446489D01*
X37043619Y-52446489D02*
X36929948Y-52615085D01*
X36929948Y-52615085D02*
X36816172Y-52783834D01*
X36816172Y-52783834D02*
X36702601Y-52952280D01*
X36702601Y-52952280D02*
X36592361Y-53123104D01*
X36592361Y-53123104D02*
X36481983Y-53294142D01*
X36481983Y-53294142D02*
X36371504Y-53465337D01*
X36371504Y-53465337D02*
X36261224Y-53636225D01*
X36261224Y-53636225D02*
X36153849Y-53808639D01*
X36153849Y-53808639D02*
X36046337Y-53981274D01*
X36046337Y-53981274D02*
X35938730Y-54154062D01*
X35938730Y-54154062D02*
X35831314Y-54326542D01*
X35831314Y-54326542D02*
X35726593Y-54500442D01*
X35726593Y-54500442D02*
X35621737Y-54674562D01*
X35621737Y-54674562D02*
X35516787Y-54848841D01*
X35516787Y-54848841D02*
X35412027Y-55022806D01*
X35412027Y-55022806D02*
X35309533Y-55198192D01*
X35309533Y-55198192D02*
X35206908Y-55373800D01*
X35206908Y-55373800D02*
X35104192Y-55549568D01*
X35104192Y-55549568D02*
X35001659Y-55725019D01*
X35001659Y-55725019D02*
X34901606Y-55901573D01*
X34901606Y-55901573D02*
X34801426Y-56078349D01*
X34801426Y-56078349D02*
X34701153Y-56255285D01*
X34701153Y-56255285D02*
X34601062Y-56431904D01*
X34601062Y-56431904D02*
X34503022Y-56609944D01*
X34503022Y-56609944D02*
X34404862Y-56788205D01*
X34404862Y-56788205D02*
X34306612Y-56966631D01*
X34306612Y-56966631D02*
X34208542Y-57144736D01*
X34208542Y-57144736D02*
X34112942Y-57324047D01*
X34112942Y-57324047D02*
X34017222Y-57503585D01*
X34017222Y-57503585D02*
X33921412Y-57683289D01*
X33921412Y-57683289D02*
X33825782Y-57862665D01*
X33825782Y-57862665D02*
X33732732Y-58043145D01*
X33732732Y-58043145D02*
X33639562Y-58223851D01*
X33639562Y-58223851D02*
X33546312Y-58404724D01*
X33546312Y-58404724D02*
X33453232Y-58585269D01*
X33453232Y-58585269D02*
X33362832Y-58767339D01*
X33362832Y-58767339D02*
X33272322Y-58949639D01*
X33272322Y-58949639D02*
X33181722Y-59132107D01*
X33181722Y-59132107D02*
X33091292Y-59314244D01*
X33091292Y-59314244D02*
X33004182Y-59497801D01*
X33004182Y-59497801D02*
X32916962Y-59681587D01*
X32916962Y-59681587D02*
X32829662Y-59865542D01*
X32829662Y-59865542D02*
X32742522Y-60049167D01*
X32742522Y-60049167D02*
X32659342Y-60234632D01*
X32659342Y-60234632D02*
X32576052Y-60420332D01*
X32576052Y-60420332D02*
X32492682Y-60606201D01*
X32492682Y-60606201D02*
X32409472Y-60791735D01*
X32409472Y-60791735D02*
X32331802Y-60979430D01*
X32331802Y-60979430D02*
X32254042Y-61167361D01*
X32254042Y-61167361D02*
X32176202Y-61355462D01*
X32176202Y-61355462D02*
X32098512Y-61543226D01*
X32098512Y-61543226D02*
X32038992Y-61704820D01*
X32038992Y-61704820D02*
X31979392Y-61866616D01*
X31979392Y-61866616D02*
X31919742Y-62028560D01*
X31919742Y-62028560D02*
X31860192Y-62190213D01*
X31860192Y-62190213D02*
X31804912Y-62353503D01*
X31804912Y-62353503D02*
X31749562Y-62517000D01*
X31749562Y-62517000D02*
X31694162Y-62680645D01*
X31694162Y-62680645D02*
X31638862Y-62843996D01*
X31638862Y-62843996D02*
X31588362Y-63008559D01*
X31588362Y-63008559D02*
X31537792Y-63173331D01*
X31537792Y-63173331D02*
X31487182Y-63338252D01*
X31487182Y-63338252D02*
X31436662Y-63502876D01*
X31436662Y-63502876D02*
X31400342Y-63633293D01*
X31400342Y-63633293D02*
X31364022Y-63763710D01*
X31364022Y-63763710D02*
X31192879Y-63770510D01*
X31192879Y-63770510D02*
X31021522Y-63777310D01*
X31021522Y-63777310D02*
X30850008Y-63784110D01*
X30850008Y-63784110D02*
X30678802Y-63790910D01*
X30678802Y-63790910D02*
X30506753Y-63801330D01*
X30506753Y-63801330D02*
X30334706Y-63811750D01*
X30334706Y-63811750D02*
X30163933Y-63828320D01*
X30163933Y-63828320D02*
X29993159Y-63844890D01*
X29993159Y-63844890D02*
X29820048Y-63868470D01*
X29820048Y-63868470D02*
X29646937Y-63892050D01*
X29646937Y-63892050D02*
X29479562Y-63921570D01*
X29479562Y-63921570D02*
X29312187Y-63951100D01*
X29312187Y-63951100D02*
X29139076Y-63989540D01*
X29139076Y-63989540D02*
X28965966Y-64027990D01*
X28965966Y-64027990D02*
X28804961Y-64071960D01*
X28804961Y-64071960D02*
X28643959Y-64115930D01*
X28643959Y-64115930D02*
X28470848Y-64175830D01*
X28470848Y-64175830D02*
X28297740Y-64235730D01*
X28297740Y-64235730D02*
X28151180Y-64302000D01*
X28151180Y-64302000D02*
X28004620Y-64368270D01*
X28004620Y-64368270D02*
X27859334Y-64451960D01*
X27859334Y-64451960D02*
X27711925Y-64552215D01*
X27711925Y-64552215D02*
X27560267Y-64677110D01*
X27560267Y-64677110D02*
X27408610Y-64802005D01*
X27408610Y-64802005D02*
X27283503Y-64925625D01*
X27283503Y-64925625D02*
X27158397Y-65049245D01*
X27158397Y-65049245D02*
X27030104Y-65194104D01*
X27030104Y-65194104D02*
X26901811Y-65338965D01*
X26901811Y-65338965D02*
X26790511Y-65477878D01*
X26790511Y-65477878D02*
X26679210Y-65616791D01*
X26679210Y-65616791D02*
X26565573Y-65770785D01*
X26565573Y-65770785D02*
X26451937Y-65924779D01*
X26451937Y-65924779D02*
X26349442Y-66077991D01*
X26349442Y-66077991D02*
X26246819Y-66231393D01*
X26246819Y-66231393D02*
X26144102Y-66384937D01*
X26144102Y-66384937D02*
X26041570Y-66538205D01*
X26041570Y-66538205D02*
X25945870Y-66696191D01*
X25945870Y-66696191D02*
X25850040Y-66854374D01*
X25850040Y-66854374D02*
X25754130Y-67012703D01*
X25754130Y-67012703D02*
X25658390Y-67170748D01*
X25658390Y-67170748D02*
X25568100Y-67331917D01*
X25568100Y-67331917D02*
X25477690Y-67493287D01*
X25477690Y-67493287D02*
X25387200Y-67654807D01*
X25387200Y-67654807D02*
X25296870Y-67816036D01*
X25296870Y-67816036D02*
X25210820Y-67979326D01*
X25210820Y-67979326D02*
X25124660Y-68142823D01*
X25124660Y-68142823D02*
X25038420Y-68306468D01*
X25038420Y-68306468D02*
X24952340Y-68469819D01*
X24952340Y-68469819D02*
X24869690Y-68635126D01*
X24869690Y-68635126D02*
X24786930Y-68800642D01*
X24786930Y-68800642D02*
X24704100Y-68966307D01*
X24704100Y-68966307D02*
X24621420Y-69131675D01*
X24621420Y-69131675D02*
X24540780Y-69300483D01*
X24540780Y-69300483D02*
X24460040Y-69469503D01*
X24460040Y-69469503D02*
X24379230Y-69638679D01*
X24379230Y-69638679D02*
X24298560Y-69807548D01*
X24298560Y-69807548D02*
X24220790Y-69977522D01*
X24220790Y-69977522D02*
X24142920Y-70147712D01*
X24142920Y-70147712D02*
X24064980Y-70318058D01*
X24064980Y-70318058D02*
X23987180Y-70488095D01*
X23987180Y-70488095D02*
X23912590Y-70659768D01*
X23912590Y-70659768D02*
X23837910Y-70831657D01*
X23837910Y-70831657D02*
X23763160Y-71003702D01*
X23763160Y-71003702D02*
X23688540Y-71175438D01*
X23688540Y-71175438D02*
X23617030Y-71348490D01*
X23617030Y-71348490D02*
X23545430Y-71521759D01*
X23545430Y-71521759D02*
X23473760Y-71695189D01*
X23473760Y-71695189D02*
X23402220Y-71868304D01*
X23402220Y-71868304D02*
X23333470Y-72042629D01*
X23333470Y-72042629D02*
X23264630Y-72217175D01*
X23264630Y-72217175D02*
X23195730Y-72391878D01*
X23195730Y-72391878D02*
X23126950Y-72566267D01*
X23126950Y-72566267D02*
X23060740Y-72741549D01*
X23060740Y-72741549D02*
X22994450Y-72917050D01*
X22994450Y-72917050D02*
X22928100Y-73092712D01*
X22928100Y-73092712D02*
X22861870Y-73268056D01*
X22861870Y-73268056D02*
X22797780Y-73444186D01*
X22797780Y-73444186D02*
X22733610Y-73620535D01*
X22733610Y-73620535D02*
X22669380Y-73797048D01*
X22669380Y-73797048D02*
X22605270Y-73973240D01*
X22605270Y-73973240D02*
X22539270Y-74165709D01*
X22539270Y-74165709D02*
X22473190Y-74358421D01*
X22473190Y-74358421D02*
X22407050Y-74551307D01*
X22407050Y-74551307D02*
X22341030Y-74743847D01*
X22341030Y-74743847D02*
X22279810Y-74937908D01*
X22279810Y-74937908D02*
X22218510Y-75132212D01*
X22218510Y-75132212D02*
X22157160Y-75326694D01*
X22157160Y-75326694D02*
X22095920Y-75520827D01*
X22095920Y-75520827D02*
X22038730Y-75716053D01*
X22038730Y-75716053D02*
X21981470Y-75911527D01*
X21981470Y-75911527D02*
X21924160Y-76107180D01*
X21924160Y-76107180D02*
X21866950Y-76302478D01*
X21866950Y-76302478D02*
X21813470Y-76498873D01*
X21813470Y-76498873D02*
X21759930Y-76695515D01*
X21759930Y-76695515D02*
X21706340Y-76892336D01*
X21706340Y-76892336D02*
X21652840Y-77088802D01*
X21652840Y-77088802D02*
X21602760Y-77286044D01*
X21602760Y-77286044D02*
X21552620Y-77483537D01*
X21552620Y-77483537D02*
X21502430Y-77681208D01*
X21502430Y-77681208D02*
X21452330Y-77878525D01*
X21452330Y-77878525D02*
X21405220Y-78076405D01*
X21405220Y-78076405D02*
X21358050Y-78274535D01*
X21358050Y-78274535D02*
X21310840Y-78472843D01*
X21310840Y-78472843D02*
X21263710Y-78670797D01*
X21263710Y-78670797D02*
X21219570Y-78869419D01*
X21219570Y-78869419D02*
X21175380Y-79068293D01*
X21175380Y-79068293D02*
X21131150Y-79267347D01*
X21131150Y-79267347D02*
X21087000Y-79466043D01*
X21087000Y-79466043D02*
X21045510Y-79665302D01*
X21045510Y-79665302D02*
X21003970Y-79864813D01*
X21003970Y-79864813D02*
X20962390Y-80064504D01*
X20962390Y-80064504D02*
X20920890Y-80263837D01*
X20920890Y-80263837D02*
X20882160Y-80463416D01*
X20882160Y-80463416D02*
X20843380Y-80663245D01*
X20843380Y-80663245D02*
X20804570Y-80863256D01*
X20804570Y-80863256D02*
X20765830Y-81062907D01*
X20765830Y-81062907D02*
X20729650Y-81263227D01*
X20729650Y-81263227D02*
X20693420Y-81463799D01*
X20693420Y-81463799D02*
X20657160Y-81664555D01*
X20657160Y-81664555D02*
X20620970Y-81864949D01*
X20620970Y-81864949D02*
X20587340Y-82065587D01*
X20587340Y-82065587D02*
X20553660Y-82266479D01*
X20553660Y-82266479D02*
X20519950Y-82467554D01*
X20519950Y-82467554D02*
X20486300Y-82668266D01*
X20486300Y-82668266D02*
X20455320Y-82869221D01*
X20455320Y-82869221D02*
X20424300Y-83070431D01*
X20424300Y-83070431D02*
X20393250Y-83271826D01*
X20393250Y-83271826D02*
X20362260Y-83472856D01*
X20362260Y-83472856D02*
X20333830Y-83674448D01*
X20333830Y-83674448D02*
X20305360Y-83876298D01*
X20305360Y-83876298D02*
X20276860Y-84078327D01*
X20276860Y-84078327D02*
X20248410Y-84279996D01*
X20248410Y-84279996D02*
X20222730Y-84481909D01*
X20222730Y-84481909D02*
X20197020Y-84684073D01*
X20197020Y-84684073D02*
X20171290Y-84886425D01*
X20171290Y-84886425D02*
X20145600Y-85088412D01*
X20145600Y-85088412D02*
X20122680Y-85290324D01*
X20122680Y-85290324D02*
X20099730Y-85492489D01*
X20099730Y-85492489D02*
X20076760Y-85694841D01*
X20076760Y-85694841D02*
X20053830Y-85896827D01*
X20053830Y-85896827D02*
X20037280Y-86064574D01*
X20037280Y-86064574D02*
X20020710Y-86232532D01*
X20020710Y-86232532D02*
X20004120Y-86400644D01*
X20004120Y-86400644D02*
X19987560Y-86568452D01*
X19987560Y-86568452D02*
X19975150Y-86736624D01*
X19975150Y-86736624D02*
X19962720Y-86905006D01*
X19962720Y-86905006D02*
X19950280Y-87073545D01*
X19950280Y-87073545D02*
X19937860Y-87241777D01*
X19937860Y-87241777D02*
X19933660Y-87410161D01*
X19933660Y-87410161D02*
X19929360Y-87578756D01*
X19929360Y-87578756D02*
X19925060Y-87747506D01*
X19925060Y-87747506D02*
X19920860Y-87915951D01*
X19920860Y-87915951D02*
X19929960Y-88099043D01*
X19929960Y-88099043D02*
X19939060Y-88282137D01*
X19939060Y-88282137D02*
X19960300Y-88434220D01*
X19960300Y-88434220D02*
X19981540Y-88586302D01*
X19981540Y-88586302D02*
X20027420Y-88771519D01*
X20027420Y-88771519D02*
X20086890Y-88933372D01*
X20086890Y-88933372D02*
X20159960Y-89074834D01*
X20159960Y-89074834D02*
X20246200Y-89200154D01*
X20246200Y-89200154D02*
X20355801Y-89326748D01*
X20355801Y-89326748D02*
X20473898Y-89440171D01*
X20473898Y-89440171D02*
X20602191Y-89540851D01*
X20602191Y-89540851D02*
X20742379Y-89630491D01*
X20742379Y-89630491D02*
X20882779Y-89696761D01*
X20882779Y-89696761D02*
X21023179Y-89763031D01*
X21023179Y-89763031D02*
X21190129Y-89816561D01*
X21190129Y-89816561D02*
X21357080Y-89870081D01*
X21357080Y-89870081D02*
X21527216Y-89911501D01*
X21527216Y-89911501D02*
X21697353Y-89952921D01*
X21697353Y-89952921D02*
X21868127Y-89985841D01*
X21868127Y-89985841D02*
X22038901Y-90018761D01*
X22038901Y-90018761D02*
X22202240Y-90042121D01*
X22202240Y-90042121D02*
X22365580Y-90065481D01*
X22365580Y-90065481D02*
X22548674Y-90084161D01*
X22548674Y-90084161D02*
X22731767Y-90102841D01*
X22731767Y-90102841D02*
X22905774Y-90114081D01*
X22905774Y-90114081D02*
X23080000Y-90125351D01*
X23080000Y-90125351D02*
X23254386Y-90136621D01*
X23254386Y-90136621D02*
X23428457Y-90147871D01*
X23428457Y-90147871D02*
X23602888Y-90154771D01*
X23602888Y-90154771D02*
X23777539Y-90161671D01*
X23777539Y-90161671D02*
X23952350Y-90168571D01*
X23952350Y-90168571D02*
X24126845Y-90175471D01*
X24126845Y-90175471D02*
X24322073Y-90182071D01*
X24322073Y-90182071D02*
X24517546Y-90188671D01*
X24517546Y-90188671D02*
X24713197Y-90195271D01*
X24713197Y-90195271D02*
X24908497Y-90201871D01*
X24908497Y-90201871D02*
X25103512Y-90208771D01*
X25103512Y-90208771D02*
X25298773Y-90215671D01*
X25298773Y-90215671D02*
X25494212Y-90222571D01*
X25494212Y-90222571D02*
X25689299Y-90229471D01*
X25689299Y-90229471D02*
X25884420Y-90236871D01*
X25884420Y-90236871D02*
X26079787Y-90244271D01*
X26079787Y-90244271D02*
X26275332Y-90251671D01*
X26275332Y-90251671D02*
X26470526Y-90259071D01*
X26470526Y-90259071D02*
X26665541Y-90267671D01*
X26665541Y-90267671D02*
X26860801Y-90276271D01*
X26860801Y-90276271D02*
X27056241Y-90284871D01*
X27056241Y-90284871D02*
X27251328Y-90293471D01*
X27251328Y-90293471D02*
X27446449Y-90304501D01*
X27446449Y-90304501D02*
X27641816Y-90315551D01*
X27641816Y-90315551D02*
X27837361Y-90326601D01*
X27837361Y-90326601D02*
X28032555Y-90337631D01*
X28032555Y-90337631D02*
X28227251Y-90355031D01*
X28227251Y-90355031D02*
X28422194Y-90372451D01*
X28422194Y-90372451D02*
X28617314Y-90389891D01*
X28617314Y-90389891D02*
X28812082Y-90407291D01*
X28812082Y-90407291D02*
X29020665Y-90438731D01*
X29020665Y-90438731D02*
X29229246Y-90470171D01*
X29229246Y-90470171D02*
X29404693Y-90509251D01*
X29404693Y-90509251D02*
X29580139Y-90548331D01*
X29580139Y-90548331D02*
X29789147Y-90605251D01*
X29789147Y-90605251D02*
X29956522Y-90661331D01*
X29956522Y-90661331D02*
X30091187Y-90724631D01*
X30091187Y-90724631D02*
X30203335Y-90802371D01*
X30203335Y-90802371D02*
X30296375Y-90896251D01*
X30296375Y-90896251D02*
X30385155Y-91016049D01*
X30385155Y-91016049D02*
X30483075Y-91188310D01*
X30483075Y-91188310D02*
X30580995Y-91360570D01*
X30580995Y-91360570D02*
X30663185Y-91529185D01*
X30663185Y-91529185D02*
X30745565Y-91698204D01*
X30745565Y-91698204D02*
X30827815Y-91866945D01*
X30827815Y-91866945D02*
X30881555Y-92005645D01*
X30881555Y-92005645D02*
X30935295Y-92144346D01*
X30935295Y-92144346D02*
X30969915Y-92272425D01*
X30969915Y-92272425D02*
X31004535Y-92400506D01*
X31004535Y-92400506D02*
X31024065Y-92534534D01*
X31024065Y-92534534D02*
X31043595Y-92668561D01*
X31043595Y-92668561D02*
X31049295Y-92814273D01*
X31049295Y-92814273D02*
X31054995Y-92959983D01*
X31054995Y-92959983D02*
X31055140Y-93109925D01*
X31055140Y-93109925D02*
X31055284Y-93260226D01*
X31055284Y-93260226D02*
X31055430Y-93410282D01*
X31055430Y-93410282D02*
X30986830Y-93588517D01*
X30986830Y-93588517D02*
X30918060Y-93767176D01*
X30918060Y-93767176D02*
X30849400Y-93945544D01*
X30849400Y-93945544D02*
X30780790Y-94124061D01*
X30780790Y-94124061D02*
X30712020Y-94303003D01*
X30712020Y-94303003D02*
X30643360Y-94481654D01*
X30643360Y-94481654D02*
X30574900Y-94659745D01*
X30574900Y-94659745D02*
X30506270Y-94838263D01*
X30506270Y-94838263D02*
X30437760Y-95016489D01*
X30437760Y-95016489D02*
X30366250Y-95202698D01*
X30366250Y-95202698D02*
X30294650Y-95389142D01*
X30294650Y-95389142D02*
X30222980Y-95575755D01*
X30222980Y-95575755D02*
X30151440Y-95762033D01*
X30151440Y-95762033D02*
X30080250Y-95948029D01*
X30080250Y-95948029D02*
X30008970Y-96134262D01*
X30008970Y-96134262D02*
X29937620Y-96320662D01*
X29937620Y-96320662D02*
X29866400Y-96506727D01*
X29866400Y-96506727D02*
X29795200Y-96693149D01*
X29795200Y-96693149D02*
X29723920Y-96879803D01*
X29723920Y-96879803D02*
X29652570Y-97066630D01*
X29652570Y-97066630D02*
X29581350Y-97253119D01*
X29581350Y-97253119D02*
X29510370Y-97439434D01*
X29510370Y-97439434D02*
X29439300Y-97625982D01*
X29439300Y-97625982D02*
X29368160Y-97812702D01*
X29368160Y-97812702D02*
X29297150Y-97999085D01*
X29297150Y-97999085D02*
X29226490Y-98185294D01*
X29226490Y-98185294D02*
X29155740Y-98371737D01*
X29155740Y-98371737D02*
X29084920Y-98558350D01*
X29084920Y-98558350D02*
X29014230Y-98744629D01*
X29014230Y-98744629D02*
X28943570Y-98931051D01*
X28943570Y-98931051D02*
X28872820Y-99117705D01*
X28872820Y-99117705D02*
X28802000Y-99304532D01*
X28802000Y-99304532D02*
X28731310Y-99491021D01*
X28731310Y-99491021D02*
X28660860Y-99677547D01*
X28660860Y-99677547D02*
X28590320Y-99864308D01*
X28590320Y-99864308D02*
X28519710Y-100051241D01*
X28519710Y-100051241D02*
X28449230Y-100237837D01*
X28449230Y-100237837D02*
X28378990Y-100424366D01*
X28378990Y-100424366D02*
X28308660Y-100611127D01*
X28308660Y-100611127D02*
X28238270Y-100798060D01*
X28238270Y-100798060D02*
X28168010Y-100984656D01*
X28168010Y-100984656D02*
X28097770Y-101171502D01*
X28097770Y-101171502D02*
X28027440Y-101358580D01*
X28027440Y-101358580D02*
X27957050Y-101545833D01*
X27957050Y-101545833D02*
X27886790Y-101732746D01*
X27886790Y-101732746D02*
X27816870Y-101919379D01*
X27816870Y-101919379D02*
X27746860Y-102106247D01*
X27746860Y-102106247D02*
X27676790Y-102293287D01*
X27676790Y-102293287D02*
X27606840Y-102479989D01*
X27606840Y-102479989D02*
X27537030Y-102666939D01*
X27537030Y-102666939D02*
X27467130Y-102854127D01*
X27467130Y-102854127D02*
X27397160Y-103041484D01*
X27397160Y-103041484D02*
X27327320Y-103228504D01*
X27327320Y-103228504D02*
X27257720Y-103415137D01*
X27257720Y-103415137D02*
X27188030Y-103602005D01*
X27188030Y-103602005D02*
X27118280Y-103789044D01*
X27118280Y-103789044D02*
X27048650Y-103975747D01*
X27048650Y-103975747D02*
X26979150Y-104162804D01*
X26979150Y-104162804D02*
X26909570Y-104350098D01*
X26909570Y-104350098D02*
X26839920Y-104537561D01*
X26839920Y-104537561D02*
X26770400Y-104724688D01*
X26770400Y-104724688D02*
X26701110Y-104911745D01*
X26701110Y-104911745D02*
X26631740Y-105099039D01*
X26631740Y-105099039D02*
X26562300Y-105286503D01*
X26562300Y-105286503D02*
X26492990Y-105473629D01*
X26492990Y-105473629D02*
X26424020Y-105660475D01*
X26424020Y-105660475D02*
X26354970Y-105847554D01*
X26354970Y-105847554D02*
X26285850Y-106034807D01*
X26285850Y-106034807D02*
X26216860Y-106221720D01*
X26216860Y-106221720D02*
X26148000Y-106408673D01*
X26148000Y-106408673D02*
X26079050Y-106595858D01*
X26079050Y-106595858D02*
X26010040Y-106783217D01*
X26010040Y-106783217D02*
X25941150Y-106970237D01*
X25941150Y-106970237D02*
X25872610Y-107157294D01*
X25872610Y-107157294D02*
X25803980Y-107344588D01*
X25803980Y-107344588D02*
X25735290Y-107532052D01*
X25735290Y-107532052D02*
X25666720Y-107719179D01*
X25666720Y-107719179D02*
X25598280Y-107906342D01*
X25598280Y-107906342D02*
X25529760Y-108093741D01*
X25529760Y-108093741D02*
X25461180Y-108281311D01*
X25461180Y-108281311D02*
X25392720Y-108468550D01*
X25392720Y-108468550D02*
X25324500Y-108655710D01*
X25324500Y-108655710D02*
X25256190Y-108843110D01*
X25256190Y-108843110D02*
X25187820Y-109030680D01*
X25187820Y-109030680D02*
X25119570Y-109217910D01*
X25119570Y-109217910D02*
X25051660Y-109405290D01*
X25051660Y-109405290D02*
X24983670Y-109592900D01*
X24983670Y-109592900D02*
X24915620Y-109780680D01*
X24915620Y-109780680D02*
X24847690Y-109968130D01*
X24847690Y-109968130D02*
X24779890Y-110155820D01*
X24779890Y-110155820D02*
X24712010Y-110343750D01*
X24712010Y-110343750D02*
X24644060Y-110531850D01*
X24644060Y-110531850D02*
X24576240Y-110719620D01*
X24576240Y-110719620D02*
X24508860Y-110907420D01*
X24508860Y-110907420D02*
X24441400Y-111095450D01*
X24441400Y-111095450D02*
X24373880Y-111283660D01*
X24373880Y-111283660D02*
X24306480Y-111471530D01*
X24306480Y-111471530D02*
X24239420Y-111659120D01*
X24239420Y-111659120D02*
X24172280Y-111846940D01*
X24172280Y-111846940D02*
X24105080Y-112034940D01*
X24105080Y-112034940D02*
X24038000Y-112222600D01*
X24038000Y-112222600D02*
X23971260Y-112410500D01*
X23971260Y-112410500D02*
X23904440Y-112598650D01*
X23904440Y-112598650D02*
X23837560Y-112786960D01*
X23837560Y-112786960D02*
X23770800Y-112974940D01*
X23770800Y-112974940D02*
X23704590Y-113162740D01*
X23704590Y-113162740D02*
X23638300Y-113350770D01*
X23638300Y-113350770D02*
X23571950Y-113538980D01*
X23571950Y-113538980D02*
X23505720Y-113726850D01*
X23505720Y-113726850D02*
X23439940Y-113915180D01*
X23439940Y-113915180D02*
X23374070Y-114103750D01*
X23374070Y-114103750D02*
X23308140Y-114292490D01*
X23308140Y-114292490D02*
X23242330Y-114480890D01*
X23242330Y-114480890D02*
X23177180Y-114669220D01*
X23177180Y-114669220D02*
X23111950Y-114857790D01*
X23111950Y-114857790D02*
X23046660Y-115046530D01*
X23046660Y-115046530D02*
X22981490Y-115234930D01*
X22981490Y-115234930D02*
X22917090Y-115423690D01*
X22917090Y-115423690D02*
X22852600Y-115612680D01*
X22852600Y-115612680D02*
X22788060Y-115801840D01*
X22788060Y-115801840D02*
X22723630Y-115990670D01*
X22723630Y-115990670D02*
X22667080Y-116160010D01*
X22667080Y-116160010D02*
X22610460Y-116329560D01*
X22610460Y-116329560D02*
X22553780Y-116499270D01*
X22553780Y-116499270D02*
X22497210Y-116668670D01*
X22497210Y-116668670D02*
X22441930Y-116838640D01*
X22441930Y-116838640D02*
X22386580Y-117008830D01*
X22386580Y-117008830D02*
X22331180Y-117179180D01*
X22331180Y-117179180D02*
X22275880Y-117349210D01*
X22275880Y-117349210D02*
X22222190Y-117519720D01*
X22222190Y-117519720D02*
X22168440Y-117690440D01*
X22168440Y-117690440D02*
X22114630Y-117861320D01*
X22114630Y-117861320D02*
X22060920Y-118031880D01*
X22060920Y-118031880D02*
X22009140Y-118202810D01*
X22009140Y-118202810D02*
X21957300Y-118373960D01*
X21957300Y-118373960D02*
X21905410Y-118545260D01*
X21905410Y-118545260D02*
X21853610Y-118716250D01*
X21853610Y-118716250D02*
X21804270Y-118887930D01*
X21804270Y-118887930D02*
X21754870Y-119059810D01*
X21754870Y-119059810D02*
X21705430Y-119231860D01*
X21705430Y-119231860D02*
X21656070Y-119403600D01*
X21656070Y-119403600D02*
X21610660Y-119576220D01*
X21610660Y-119576220D02*
X21565190Y-119749070D01*
X21565190Y-119749070D02*
X21519680Y-119922070D01*
X21519680Y-119922070D02*
X21474250Y-120094760D01*
X21474250Y-120094760D02*
X21428580Y-120294850D01*
X21428580Y-120294850D02*
X21382910Y-120494940D01*
X21382910Y-120494940D02*
X21356570Y-120644890D01*
X21356570Y-120644890D02*
X21330230Y-120794850D01*
X21330230Y-120794850D02*
X21320040Y-120927390D01*
X21320040Y-120927390D02*
X21321740Y-121066310D01*
X21321740Y-121066310D02*
X21340220Y-121208400D01*
X21340220Y-121208400D02*
X21358700Y-121350500D01*
X21358700Y-121350500D02*
X21399910Y-121492180D01*
X21399910Y-121492180D02*
X21441120Y-121633850D01*
X21441120Y-121633850D02*
X21496350Y-121759170D01*
X21496350Y-121759170D02*
X21560500Y-121868770D01*
X21560500Y-121868770D02*
X21667977Y-122010660D01*
X21667977Y-122010660D02*
X21789473Y-122134280D01*
X21789473Y-122134280D02*
X21934333Y-122243030D01*
X21934333Y-122243030D02*
X22111904Y-122341630D01*
X22111904Y-122341630D02*
X22262074Y-122402330D01*
X22262074Y-122402330D02*
X22412245Y-122463030D01*
X22412245Y-122463030D02*
X22609782Y-122523330D01*
X22609782Y-122523330D02*
X22807319Y-122583630D01*
X22807319Y-122583630D02*
X22985676Y-122627930D01*
X22985676Y-122627930D02*
X23164258Y-122672330D01*
X23164258Y-122672330D02*
X23343003Y-122716730D01*
X23343003Y-122716730D02*
X23521426Y-122761130D01*
X23521426Y-122761130D02*
X23712409Y-122802530D01*
X23712409Y-122802530D02*
X23903633Y-122843930D01*
X23903633Y-122843930D02*
X24095031Y-122885430D01*
X24095031Y-122885430D02*
X24286085Y-122926830D01*
X24286085Y-122926830D02*
X24477599Y-122963830D01*
X24477599Y-122963830D02*
X24669354Y-123000930D01*
X24669354Y-123000930D02*
X24861284Y-123038030D01*
X24861284Y-123038030D02*
X25052868Y-123075030D01*
X25052868Y-123075030D02*
X25244806Y-123108730D01*
X25244806Y-123108730D02*
X25436986Y-123142530D01*
X25436986Y-123142530D02*
X25629342Y-123176330D01*
X25629342Y-123176330D02*
X25821350Y-123210030D01*
X25821350Y-123210030D02*
X26014138Y-123241030D01*
X26014138Y-123241030D02*
X26207167Y-123272030D01*
X26207167Y-123272030D02*
X26400373Y-123303130D01*
X26400373Y-123303130D02*
X26593231Y-123334130D01*
X26593231Y-123334130D02*
X26786443Y-123362830D01*
X26786443Y-123362830D02*
X26979898Y-123391630D01*
X26979898Y-123391630D02*
X27173529Y-123420430D01*
X27173529Y-123420430D02*
X27366812Y-123449230D01*
X27366812Y-123449230D02*
X27560235Y-123475530D01*
X27560235Y-123475530D02*
X27753904Y-123501830D01*
X27753904Y-123501830D02*
X27947747Y-123528230D01*
X27947747Y-123528230D02*
X28141242Y-123554530D01*
X28141242Y-123554530D02*
X28334983Y-123578630D01*
X28334983Y-123578630D02*
X28528970Y-123602730D01*
X28528970Y-123602730D02*
X28723132Y-123626830D01*
X28723132Y-123626830D02*
X28916945Y-123650930D01*
X28916945Y-123650930D02*
X29110792Y-123672530D01*
X29110792Y-123672530D02*
X29304886Y-123694230D01*
X29304886Y-123694230D02*
X29499155Y-123715930D01*
X29499155Y-123715930D02*
X29693074Y-123737630D01*
X29693074Y-123737630D02*
X29887135Y-123756630D01*
X29887135Y-123756630D02*
X30081439Y-123775630D01*
X30081439Y-123775630D02*
X30275921Y-123794630D01*
X30275921Y-123794630D02*
X30470054Y-123813630D01*
X30470054Y-123813630D02*
X30664432Y-123829530D01*
X30664432Y-123829530D02*
X30859056Y-123845430D01*
X30859056Y-123845430D02*
X31053856Y-123861330D01*
X31053856Y-123861330D02*
X31248306Y-123877230D01*
X31248306Y-123877230D02*
X31443004Y-123888930D01*
X31443004Y-123888930D02*
X31637945Y-123900630D01*
X31637945Y-123900630D02*
X31833065Y-123912330D01*
X31833065Y-123912330D02*
X32027835Y-123924030D01*
X32027835Y-123924030D02*
X32223061Y-123930030D01*
X32223061Y-123930030D02*
X32418535Y-123936030D01*
X32418535Y-123936030D02*
X32614188Y-123942030D01*
X32614188Y-123942030D02*
X32809486Y-123948030D01*
X32809486Y-123948030D02*
X32980735Y-123946030D01*
X32980735Y-123946030D02*
X33152197Y-123944030D01*
X33152197Y-123944030D02*
X33323818Y-123942030D01*
X33323818Y-123942030D02*
X33495130Y-123940030D01*
X33495130Y-123940030D02*
X33684170Y-123928330D01*
X33684170Y-123928330D02*
X33873211Y-123916630D01*
X33873211Y-123916630D02*
X34025504Y-123896230D01*
X34025504Y-123896230D02*
X34177800Y-123875830D01*
X34177800Y-123875830D02*
X34364718Y-123832930D01*
X34364718Y-123832930D02*
X34527845Y-123778130D01*
X34527845Y-123778130D02*
X34674403Y-123710130D01*
X34674403Y-123710130D02*
X34811193Y-123628130D01*
X34811193Y-123628130D02*
X34928440Y-123542730D01*
X34928440Y-123542730D02*
X35035069Y-123439920D01*
X35035069Y-123439920D02*
X35141695Y-123298890D01*
X35141695Y-123298890D02*
X35199255Y-123198420D01*
X35199255Y-123198420D02*
X35256815Y-123097950D01*
X35256815Y-123097950D02*
X35321815Y-122962010D01*
X35321815Y-122962010D02*
X35386815Y-122826070D01*
X35386815Y-122826070D02*
X35464975Y-122642340D01*
X35464975Y-122642340D02*
X35543145Y-122458610D01*
X35543145Y-122458610D02*
X35607335Y-122295750D01*
X35607335Y-122295750D02*
X35671605Y-122132670D01*
X35671605Y-122132670D02*
X35735935Y-121969450D01*
X35735935Y-121969450D02*
X35800155Y-121806530D01*
X35800155Y-121806530D02*
X35862335Y-121642810D01*
X35862335Y-121642810D02*
X35924585Y-121478890D01*
X35924585Y-121478890D02*
X35986895Y-121314820D01*
X35986895Y-121314820D02*
X36049095Y-121151040D01*
X36049095Y-121151040D02*
X36110425Y-120987120D01*
X36110425Y-120987120D02*
X36171825Y-120822980D01*
X36171825Y-120822980D02*
X36233285Y-120658700D01*
X36233285Y-120658700D02*
X36294635Y-120494710D01*
X36294635Y-120494710D02*
X36355645Y-120330470D01*
X36355645Y-120330470D02*
X36416725Y-120166010D01*
X36416725Y-120166010D02*
X36477865Y-120001410D01*
X36477865Y-120001410D02*
X36538895Y-119837110D01*
X36538895Y-119837110D02*
X36611325Y-119642320D01*
X36611325Y-119642320D02*
X36683925Y-119447070D01*
X36683925Y-119447070D02*
X36756405Y-119252140D01*
X36756405Y-119252140D02*
X36829255Y-119057070D01*
X36829255Y-119057070D02*
X36902275Y-118861540D01*
X36902275Y-118861540D02*
X36975175Y-118666330D01*
X36975175Y-118666330D02*
X37049435Y-118471820D01*
X37049435Y-118471820D02*
X37123875Y-118276860D01*
X37123875Y-118276860D02*
X37198195Y-118082210D01*
X37198195Y-118082210D02*
X37405504Y-118046110D01*
X37405504Y-118046110D02*
X37613008Y-118010010D01*
X37613008Y-118010010D02*
X37820119Y-117973910D01*
X37820119Y-117973910D02*
X38028841Y-117941710D01*
X38028841Y-117941710D02*
X38237764Y-117909510D01*
X38237764Y-117909510D02*
X38446288Y-117877410D01*
X38446288Y-117877410D02*
X38655013Y-117846510D01*
X38655013Y-117846510D02*
X38863935Y-117815610D01*
X38863935Y-117815610D02*
X39072460Y-117784810D01*
X39072460Y-117784810D02*
X39281467Y-117754910D01*
X39281467Y-117754910D02*
X39490673Y-117725010D01*
X39490673Y-117725010D02*
X39699480Y-117695210D01*
X39699480Y-117695210D02*
X39897042Y-117668110D01*
X39897042Y-117668110D02*
X40094853Y-117641010D01*
X40094853Y-117641010D02*
X40292843Y-117613910D01*
X40292843Y-117613910D02*
X40490478Y-117586810D01*
X40490478Y-117586810D02*
X40688358Y-117560910D01*
X40688358Y-117560910D02*
X40886488Y-117535010D01*
X40886488Y-117535010D02*
X41084796Y-117509110D01*
X41084796Y-117509110D02*
X41282750Y-117483210D01*
X41282750Y-117483210D02*
X41480312Y-117458410D01*
X41480312Y-117458410D02*
X41678123Y-117433510D01*
X41678123Y-117433510D02*
X41876113Y-117408610D01*
X41876113Y-117408610D02*
X42073748Y-117383810D01*
X42073748Y-117383810D02*
X42271521Y-117360110D01*
X42271521Y-117360110D02*
X42469544Y-117336410D01*
X42469544Y-117336410D02*
X42667746Y-117312710D01*
X42667746Y-117312710D02*
X42865593Y-117289010D01*
X42865593Y-117289010D02*
X43063473Y-117266410D01*
X43063473Y-117266410D02*
X43261603Y-117243810D01*
X43261603Y-117243810D02*
X43459912Y-117221210D01*
X43459912Y-117221210D02*
X43657866Y-117198610D01*
X43657866Y-117198610D02*
X43855957Y-117177210D01*
X43855957Y-117177210D02*
X44054300Y-117155710D01*
X44054300Y-117155710D02*
X44252821Y-117134210D01*
X44252821Y-117134210D02*
X44450986Y-117112810D01*
X44450986Y-117112810D02*
X44649079Y-117092510D01*
X44649079Y-117092510D02*
X44847420Y-117072210D01*
X44847420Y-117072210D02*
X45045944Y-117051910D01*
X45045944Y-117051910D02*
X45244109Y-117031610D01*
X45244109Y-117031610D02*
X45442413Y-117012410D01*
X45442413Y-117012410D02*
X45640967Y-116993210D01*
X45640967Y-116993210D02*
X45839702Y-116973910D01*
X45839702Y-116973910D02*
X46038080Y-116954710D01*
X46038080Y-116954710D02*
X46236384Y-116936610D01*
X46236384Y-116936610D02*
X46434938Y-116918410D01*
X46434938Y-116918410D02*
X46633673Y-116900210D01*
X46633673Y-116900210D02*
X46832051Y-116882010D01*
X46832051Y-116882010D02*
X47030779Y-116865110D01*
X47030779Y-116865110D02*
X47229757Y-116848210D01*
X47229757Y-116848210D02*
X47428918Y-116831310D01*
X47428918Y-116831310D02*
X47627721Y-116814410D01*
X47627721Y-116814410D02*
X47826449Y-116798710D01*
X47826449Y-116798710D02*
X48025429Y-116783010D01*
X48025429Y-116783010D02*
X48224590Y-116767310D01*
X48224590Y-116767310D02*
X48423392Y-116751610D01*
X48423392Y-116751610D02*
X48622121Y-116737210D01*
X48622121Y-116737210D02*
X48821099Y-116722810D01*
X48821099Y-116722810D02*
X49020260Y-116708310D01*
X49020260Y-116708310D02*
X49219062Y-116693910D01*
X49219062Y-116693910D02*
X49417684Y-116680610D01*
X49417684Y-116680610D02*
X49616557Y-116667310D01*
X49616557Y-116667310D02*
X49815612Y-116654010D01*
X49815612Y-116654010D02*
X50014307Y-116640710D01*
X50014307Y-116640710D02*
X50213355Y-116628710D01*
X50213355Y-116628710D02*
X50412651Y-116616710D01*
X50412651Y-116616710D02*
X50612132Y-116604710D01*
X50612132Y-116604710D02*
X50811252Y-116592710D01*
X50811252Y-116592710D02*
X51010193Y-116582010D01*
X51010193Y-116582010D02*
X51209385Y-116571310D01*
X51209385Y-116571310D02*
X51408759Y-116560610D01*
X51408759Y-116560610D02*
X51607772Y-116549910D01*
X51607772Y-116549910D02*
X51806607Y-116540910D01*
X51806607Y-116540910D02*
X52005691Y-116531910D01*
X52005691Y-116531910D02*
X52204959Y-116522910D01*
X52204959Y-116522910D02*
X52403868Y-116513910D01*
X52403868Y-116513910D02*
X52603020Y-116505910D01*
X52603020Y-116505910D02*
X52802425Y-116497910D01*
X52802425Y-116497910D02*
X53002010Y-116489910D01*
X53002010Y-116489910D02*
X53201236Y-116481910D01*
X53201236Y-116481910D02*
X53400708Y-116475910D01*
X53400708Y-116475910D02*
X53600430Y-116469910D01*
X53600430Y-116469910D02*
X53800335Y-116463910D01*
X53800335Y-116463910D02*
X53999881Y-116457910D01*
X53999881Y-116457910D02*
X54199564Y-116453910D01*
X54199564Y-116453910D02*
X54399500Y-116449910D01*
X54399500Y-116449910D02*
X54599618Y-116445910D01*
X54599618Y-116445910D02*
X54799375Y-116441910D01*
X54799375Y-116441910D02*
X54998847Y-116439910D01*
X54998847Y-116439910D02*
X55198569Y-116437910D01*
X55198569Y-116437910D02*
X55398474Y-116435910D01*
X55398474Y-116435910D02*
X55598017Y-116433910D01*
X55598017Y-116433910D02*
X55797383Y-116433260D01*
X55797383Y-116433260D02*
X55997001Y-116432600D01*
X55997001Y-116432600D02*
X56196799Y-116431950D01*
X56196799Y-116431950D02*
X56396238Y-116431300D01*
X56396238Y-116431300D02*
X56595710Y-116431950D01*
X56595710Y-116431950D02*
X56795433Y-116432600D01*
X56795433Y-116432600D02*
X56995338Y-116433260D01*
X56995338Y-116433260D02*
X57194881Y-116433910D01*
X57194881Y-116433910D02*
X57394460Y-116435910D01*
X57394460Y-116435910D02*
X57594289Y-116437910D01*
X57594289Y-116437910D02*
X57794300Y-116439910D01*
X57794300Y-116439910D02*
X57993951Y-116441910D01*
X57993951Y-116441910D02*
X58193316Y-116444910D01*
X58193316Y-116444910D02*
X58392932Y-116447910D01*
X58392932Y-116447910D02*
X58592730Y-116450910D01*
X58592730Y-116450910D02*
X58792169Y-116453910D01*
X58792169Y-116453910D02*
X59006416Y-116457910D01*
X59006416Y-116457910D02*
X59220866Y-116461910D01*
X59220866Y-116461910D02*
X59434908Y-116465910D01*
X59434908Y-116465910D02*
X59649297Y-116461910D01*
X59649297Y-116461910D02*
X59863890Y-116457910D01*
X59863890Y-116457910D02*
X60078076Y-116453910D01*
X60078076Y-116453910D02*
X60078842Y-116449490D01*
M02*
