G04 #@! TF.GenerationSoftware,KiCad,Pcbnew,5.1.2*
G04 #@! TF.CreationDate,2019-06-28T19:34:58-07:00*
G04 #@! TF.ProjectId,DC27-Cylon,44433237-2d43-4796-9c6f-6e2e6b696361,rev?*
G04 #@! TF.SameCoordinates,Original*
G04 #@! TF.FileFunction,Legend,Bot*
G04 #@! TF.FilePolarity,Positive*
%FSLAX46Y46*%
G04 Gerber Fmt 4.6, Leading zero omitted, Abs format (unit mm)*
G04 Created by KiCad (PCBNEW 5.1.2) date 2019-06-28 19:34:58*
%MOMM*%
%LPD*%
G04 APERTURE LIST*
%ADD10C,0.150000*%
%ADD11C,0.120000*%
%ADD12C,0.066040*%
%ADD13C,0.203200*%
%ADD14C,0.100000*%
%ADD15C,0.127000*%
G04 APERTURE END LIST*
D10*
X69088000Y-89154000D02*
G75*
G03X69088000Y-89154000I-254000J0D01*
G01*
X54356000Y-89154000D02*
G75*
G03X54356000Y-89154000I-254000J0D01*
G01*
X40132000Y-89154000D02*
G75*
G03X40132000Y-89154000I-254000J0D01*
G01*
X70717210Y-103124000D02*
G75*
G03X70717210Y-103124000I-359210J0D01*
G01*
D11*
X35131000Y-115821000D02*
X35131000Y-56111000D01*
X35131000Y-56111000D02*
X83421000Y-56111000D01*
X83421000Y-56111000D02*
X83425000Y-115821000D01*
X83421000Y-115821000D02*
X35131000Y-115821000D01*
D12*
X38885280Y-80524356D02*
X39484720Y-80524356D01*
X39484720Y-80524356D02*
X39484720Y-80128116D01*
X38885280Y-80128116D02*
X39484720Y-80128116D01*
X38885280Y-80524356D02*
X38885280Y-80128116D01*
X40660280Y-80524356D02*
X41259720Y-80524356D01*
X41259720Y-80524356D02*
X41259720Y-80128116D01*
X40660280Y-80128116D02*
X41259720Y-80128116D01*
X40660280Y-80524356D02*
X40660280Y-80128116D01*
X42435280Y-80524356D02*
X43034720Y-80524356D01*
X43034720Y-80524356D02*
X43034720Y-80128116D01*
X42435280Y-80128116D02*
X43034720Y-80128116D01*
X42435280Y-80524356D02*
X42435280Y-80128116D01*
X44210280Y-80524356D02*
X44809720Y-80524356D01*
X44809720Y-80524356D02*
X44809720Y-80128116D01*
X44210280Y-80128116D02*
X44809720Y-80128116D01*
X44210280Y-80524356D02*
X44210280Y-80128116D01*
X45985280Y-80524356D02*
X46584720Y-80524356D01*
X46584720Y-80524356D02*
X46584720Y-80128116D01*
X45985280Y-80128116D02*
X46584720Y-80128116D01*
X45985280Y-80524356D02*
X45985280Y-80128116D01*
X47760280Y-80524356D02*
X48359720Y-80524356D01*
X48359720Y-80524356D02*
X48359720Y-80128116D01*
X47760280Y-80128116D02*
X48359720Y-80128116D01*
X47760280Y-80524356D02*
X47760280Y-80128116D01*
X49535280Y-80524356D02*
X50134720Y-80524356D01*
X50134720Y-80524356D02*
X50134720Y-80128116D01*
X49535280Y-80128116D02*
X50134720Y-80128116D01*
X49535280Y-80524356D02*
X49535280Y-80128116D01*
X51310280Y-80524356D02*
X51909720Y-80524356D01*
X51909720Y-80524356D02*
X51909720Y-80128116D01*
X51310280Y-80128116D02*
X51909720Y-80128116D01*
X51310280Y-80524356D02*
X51310280Y-80128116D01*
X53085280Y-80524356D02*
X53684720Y-80524356D01*
X53684720Y-80524356D02*
X53684720Y-80128116D01*
X53085280Y-80128116D02*
X53684720Y-80128116D01*
X53085280Y-80524356D02*
X53085280Y-80128116D01*
X54860280Y-80524356D02*
X55459720Y-80524356D01*
X55459720Y-80524356D02*
X55459720Y-80128116D01*
X54860280Y-80128116D02*
X55459720Y-80128116D01*
X54860280Y-80524356D02*
X54860280Y-80128116D01*
X56635280Y-80524356D02*
X57234720Y-80524356D01*
X57234720Y-80524356D02*
X57234720Y-80128116D01*
X56635280Y-80128116D02*
X57234720Y-80128116D01*
X56635280Y-80524356D02*
X56635280Y-80128116D01*
X58410280Y-80524356D02*
X59009720Y-80524356D01*
X59009720Y-80524356D02*
X59009720Y-80128116D01*
X58410280Y-80128116D02*
X59009720Y-80128116D01*
X58410280Y-80524356D02*
X58410280Y-80128116D01*
X60185280Y-80524356D02*
X60784720Y-80524356D01*
X60784720Y-80524356D02*
X60784720Y-80128116D01*
X60185280Y-80128116D02*
X60784720Y-80128116D01*
X60185280Y-80524356D02*
X60185280Y-80128116D01*
X61960280Y-80524356D02*
X62559720Y-80524356D01*
X62559720Y-80524356D02*
X62559720Y-80128116D01*
X61960280Y-80128116D02*
X62559720Y-80128116D01*
X61960280Y-80524356D02*
X61960280Y-80128116D01*
X63735280Y-80524356D02*
X64334720Y-80524356D01*
X64334720Y-80524356D02*
X64334720Y-80128116D01*
X63735280Y-80128116D02*
X64334720Y-80128116D01*
X63735280Y-80524356D02*
X63735280Y-80128116D01*
X65510280Y-80524356D02*
X66109720Y-80524356D01*
X66109720Y-80524356D02*
X66109720Y-80128116D01*
X65510280Y-80128116D02*
X66109720Y-80128116D01*
X65510280Y-80524356D02*
X65510280Y-80128116D01*
X67285280Y-80524356D02*
X67884720Y-80524356D01*
X67884720Y-80524356D02*
X67884720Y-80128116D01*
X67285280Y-80128116D02*
X67884720Y-80128116D01*
X67285280Y-80524356D02*
X67285280Y-80128116D01*
X69060280Y-80524356D02*
X69659720Y-80524356D01*
X69659720Y-80524356D02*
X69659720Y-80128116D01*
X69060280Y-80128116D02*
X69659720Y-80128116D01*
X69060280Y-80524356D02*
X69060280Y-80128116D01*
X70835280Y-80524356D02*
X71434720Y-80524356D01*
X71434720Y-80524356D02*
X71434720Y-80128116D01*
X70835280Y-80128116D02*
X71434720Y-80128116D01*
X70835280Y-80524356D02*
X70835280Y-80128116D01*
X72610280Y-80524356D02*
X73209720Y-80524356D01*
X73209720Y-80524356D02*
X73209720Y-80128116D01*
X72610280Y-80128116D02*
X73209720Y-80128116D01*
X72610280Y-80524356D02*
X72610280Y-80128116D01*
X74385280Y-80524356D02*
X74984720Y-80524356D01*
X74984720Y-80524356D02*
X74984720Y-80128116D01*
X74385280Y-80128116D02*
X74984720Y-80128116D01*
X74385280Y-80524356D02*
X74385280Y-80128116D01*
X76160280Y-80524356D02*
X76759720Y-80524356D01*
X76759720Y-80524356D02*
X76759720Y-80128116D01*
X76160280Y-80128116D02*
X76759720Y-80128116D01*
X76160280Y-80524356D02*
X76160280Y-80128116D01*
X77935280Y-80524356D02*
X78534720Y-80524356D01*
X78534720Y-80524356D02*
X78534720Y-80128116D01*
X77935280Y-80128116D02*
X78534720Y-80128116D01*
X77935280Y-80524356D02*
X77935280Y-80128116D01*
D13*
X33098740Y-111125000D02*
X33098740Y-109855000D01*
X33098740Y-109855000D02*
X33098740Y-111125000D01*
D12*
X65486280Y-99639120D02*
X65486280Y-99242880D01*
X65486280Y-99242880D02*
X66085720Y-99242880D01*
X66085720Y-99639120D02*
X66085720Y-99242880D01*
X65486280Y-99639120D02*
X66085720Y-99639120D01*
X69651880Y-54056280D02*
X69651880Y-54655720D01*
X69651880Y-54655720D02*
X70048120Y-54655720D01*
X70048120Y-54056280D02*
X70048120Y-54655720D01*
X69651880Y-54056280D02*
X70048120Y-54056280D01*
X71328280Y-99588120D02*
X71927720Y-99588120D01*
X71927720Y-99588120D02*
X71927720Y-99191880D01*
X71328280Y-99191880D02*
X71927720Y-99191880D01*
X71328280Y-99588120D02*
X71328280Y-99191880D01*
X80218280Y-92146120D02*
X80817720Y-92146120D01*
X80817720Y-92146120D02*
X80817720Y-91749880D01*
X80218280Y-91749880D02*
X80817720Y-91749880D01*
X80218280Y-92146120D02*
X80218280Y-91749880D01*
X68534280Y-51252120D02*
X68534280Y-50855880D01*
X68534280Y-50855880D02*
X69133720Y-50855880D01*
X69133720Y-51252120D02*
X69133720Y-50855880D01*
X68534280Y-51252120D02*
X69133720Y-51252120D01*
X80472280Y-110942120D02*
X80472280Y-110545880D01*
X80472280Y-110545880D02*
X81071720Y-110545880D01*
X81071720Y-110942120D02*
X81071720Y-110545880D01*
X80472280Y-110942120D02*
X81071720Y-110942120D01*
X65486280Y-92146120D02*
X65486280Y-91749880D01*
X65486280Y-91749880D02*
X66085720Y-91749880D01*
X66085720Y-92146120D02*
X66085720Y-91749880D01*
X65486280Y-92146120D02*
X66085720Y-92146120D01*
X51262280Y-92146120D02*
X51861720Y-92146120D01*
X51861720Y-92146120D02*
X51861720Y-91749880D01*
X51262280Y-91749880D02*
X51861720Y-91749880D01*
X51262280Y-92146120D02*
X51262280Y-91749880D01*
D13*
X94053125Y-79973692D02*
X94381825Y-81200418D01*
X94381825Y-81200418D02*
X95159538Y-81649431D01*
X96386264Y-81320731D02*
X96835277Y-80543018D01*
X93844738Y-76742527D02*
X93395725Y-77520240D01*
X93395725Y-77520240D02*
X93724425Y-78746966D01*
X93724425Y-78746966D02*
X94502138Y-79195979D01*
X95728864Y-78867279D02*
X96177877Y-78089566D01*
X96177877Y-78089566D02*
X95849176Y-76862840D01*
X95849176Y-76862840D02*
X95071463Y-76413827D01*
X94053125Y-79973692D02*
X94502138Y-79195979D01*
X95728864Y-78867279D02*
X96506577Y-79316292D01*
X96835277Y-80543018D02*
X96506577Y-79316292D01*
X92080924Y-72613337D02*
X92409624Y-73840063D01*
X92409624Y-73840063D02*
X93187337Y-74289076D01*
X94414063Y-73960376D02*
X94863076Y-73182663D01*
X93187337Y-74289076D02*
X92738324Y-75066789D01*
X92738324Y-75066789D02*
X93067025Y-76293515D01*
X93067025Y-76293515D02*
X93844738Y-76742527D01*
X95071463Y-76413827D02*
X95520476Y-75636114D01*
X95520476Y-75636114D02*
X95191776Y-74409389D01*
X95191776Y-74409389D02*
X94414063Y-73960376D01*
X92529937Y-71835624D02*
X93756663Y-71506924D01*
X92080924Y-72613337D02*
X92529937Y-71835624D01*
X93756663Y-71506924D02*
X94534376Y-71955937D01*
X94863076Y-73182663D02*
X94534376Y-71955937D01*
X95159538Y-81649431D02*
X96386264Y-81320731D01*
X26148577Y-75369708D02*
X26477277Y-74142982D01*
X26477277Y-74142982D02*
X26028264Y-73365269D01*
X24801538Y-73036569D02*
X24023825Y-73485582D01*
X26028264Y-73365269D02*
X26805977Y-72916257D01*
X26805977Y-72916257D02*
X27134677Y-71689531D01*
X27134677Y-71689531D02*
X26685665Y-70911818D01*
X25458939Y-70583118D02*
X24681226Y-71032131D01*
X24681226Y-71032131D02*
X24352526Y-72258856D01*
X24352526Y-72258856D02*
X24801538Y-73036569D01*
X24713463Y-78272173D02*
X25491176Y-77823160D01*
X25491176Y-77823160D02*
X25819877Y-76596434D01*
X25819877Y-76596434D02*
X25370864Y-75818721D01*
X24144138Y-75490021D02*
X23366425Y-75939034D01*
X23366425Y-75939034D02*
X23037725Y-77165760D01*
X23037725Y-77165760D02*
X23486738Y-77943473D01*
X26148577Y-75369708D02*
X25370864Y-75818721D01*
X24144138Y-75490021D02*
X23695125Y-74712308D01*
X24023825Y-73485582D02*
X23695125Y-74712308D01*
X24176376Y-82730063D02*
X24505076Y-81503337D01*
X24505076Y-81503337D02*
X24056063Y-80725624D01*
X22829337Y-80396924D02*
X22051624Y-80845937D01*
X24056063Y-80725624D02*
X24833776Y-80276611D01*
X24833776Y-80276611D02*
X25162476Y-79049886D01*
X25162476Y-79049886D02*
X24713463Y-78272173D01*
X23486738Y-77943473D02*
X22709025Y-78392485D01*
X22709025Y-78392485D02*
X22380324Y-79619211D01*
X22380324Y-79619211D02*
X22829337Y-80396924D01*
X23398663Y-83179076D02*
X22171937Y-82850376D01*
X24176376Y-82730063D02*
X23398663Y-83179076D01*
X22171937Y-82850376D02*
X21722924Y-82072663D01*
X22051624Y-80845937D02*
X21722924Y-82072663D01*
X26685665Y-70911818D02*
X25458939Y-70583118D01*
D12*
X79710280Y-80524356D02*
X79710280Y-80128116D01*
X79710280Y-80128116D02*
X80309720Y-80128116D01*
X80309720Y-80524356D02*
X80309720Y-80128116D01*
X79710280Y-80524356D02*
X80309720Y-80524356D01*
D14*
X71222000Y-102538000D02*
X71222000Y-103588000D01*
X71222000Y-103588000D02*
X70822000Y-103988000D01*
X78022000Y-103988000D02*
X78022000Y-103588000D01*
X78022000Y-103588000D02*
X77622000Y-103588000D01*
X71222000Y-110788000D02*
X70822000Y-110788000D01*
X70822000Y-110788000D02*
X70822000Y-110388000D01*
X77622000Y-110788000D02*
X78022000Y-110788000D01*
X78022000Y-110788000D02*
X78022000Y-110388000D01*
D11*
X61184000Y-55480000D02*
X61184000Y-54220000D01*
X61184000Y-48660000D02*
X61184000Y-49920000D01*
X64944000Y-55480000D02*
X61184000Y-55480000D01*
X67194000Y-48660000D02*
X61184000Y-48660000D01*
D14*
X79622000Y-94148000D02*
X79622000Y-93848000D01*
X79622000Y-94148000D02*
X79322000Y-94148000D01*
X69222000Y-94148000D02*
X69222000Y-93848000D01*
X79322000Y-89748000D02*
X79622000Y-89748000D01*
X79622000Y-89748000D02*
X79622000Y-90048000D01*
X69222000Y-90148000D02*
X69222000Y-89748000D01*
X69222000Y-89748000D02*
X69522000Y-89748000D01*
X69522000Y-89748000D02*
X69522000Y-89148000D01*
X69522000Y-94148000D02*
X69222000Y-94148000D01*
X54790000Y-94148000D02*
X54490000Y-94148000D01*
X54790000Y-89748000D02*
X54790000Y-89148000D01*
X54490000Y-89748000D02*
X54790000Y-89748000D01*
X54490000Y-90148000D02*
X54490000Y-89748000D01*
X64890000Y-89748000D02*
X64890000Y-90048000D01*
X64590000Y-89748000D02*
X64890000Y-89748000D01*
X54490000Y-94148000D02*
X54490000Y-93848000D01*
X64890000Y-94148000D02*
X64590000Y-94148000D01*
X64890000Y-94148000D02*
X64890000Y-93848000D01*
X50666000Y-94148000D02*
X50666000Y-93848000D01*
X50666000Y-94148000D02*
X50366000Y-94148000D01*
X40266000Y-94148000D02*
X40266000Y-93848000D01*
X50366000Y-89748000D02*
X50666000Y-89748000D01*
X50666000Y-89748000D02*
X50666000Y-90048000D01*
X40266000Y-90148000D02*
X40266000Y-89748000D01*
X40266000Y-89748000D02*
X40566000Y-89748000D01*
X40566000Y-89748000D02*
X40566000Y-89148000D01*
X40566000Y-94148000D02*
X40266000Y-94148000D01*
D11*
X66707000Y-101091000D02*
X66707000Y-97791000D01*
X66707000Y-97791000D02*
X70707000Y-97791000D01*
D10*
X37996714Y-55173571D02*
X37853857Y-55221190D01*
X37806238Y-55268809D01*
X37758619Y-55364047D01*
X37758619Y-55506904D01*
X37806238Y-55602142D01*
X37853857Y-55649761D01*
X37949095Y-55697380D01*
X38330047Y-55697380D01*
X38330047Y-54697380D01*
X37996714Y-54697380D01*
X37901476Y-54745000D01*
X37853857Y-54792619D01*
X37806238Y-54887857D01*
X37806238Y-54983095D01*
X37853857Y-55078333D01*
X37901476Y-55125952D01*
X37996714Y-55173571D01*
X38330047Y-55173571D01*
X37472904Y-54697380D02*
X36901476Y-54697380D01*
X37187190Y-55697380D02*
X37187190Y-54697380D01*
X36044333Y-55697380D02*
X36615761Y-55697380D01*
X36330047Y-55697380D02*
X36330047Y-54697380D01*
X36425285Y-54840238D01*
X36520523Y-54935476D01*
X36615761Y-54983095D01*
X57003142Y-54419571D02*
X57003142Y-55562428D01*
X44303142Y-54419571D02*
X44303142Y-55562428D01*
X44874571Y-54991000D02*
X43731714Y-54991000D01*
D15*
X34057771Y-109894914D02*
X33448171Y-109894914D01*
X34028742Y-110156171D02*
X34057771Y-110243257D01*
X34057771Y-110388400D01*
X34028742Y-110446457D01*
X33999714Y-110475485D01*
X33941657Y-110504514D01*
X33883600Y-110504514D01*
X33825542Y-110475485D01*
X33796514Y-110446457D01*
X33767485Y-110388400D01*
X33738457Y-110272285D01*
X33709428Y-110214228D01*
X33680400Y-110185200D01*
X33622342Y-110156171D01*
X33564285Y-110156171D01*
X33506228Y-110185200D01*
X33477200Y-110214228D01*
X33448171Y-110272285D01*
X33448171Y-110417428D01*
X33477200Y-110504514D01*
X34057771Y-110765771D02*
X33448171Y-110765771D01*
X33448171Y-110998000D01*
X33477200Y-111056057D01*
X33506228Y-111085085D01*
X33564285Y-111114114D01*
X33651371Y-111114114D01*
X33709428Y-111085085D01*
X33738457Y-111056057D01*
X33767485Y-110998000D01*
X33767485Y-110765771D01*
X67273714Y-99339400D02*
X67302742Y-99310371D01*
X67331771Y-99223285D01*
X67331771Y-99165228D01*
X67302742Y-99078142D01*
X67244685Y-99020085D01*
X67186628Y-98991057D01*
X67070514Y-98962028D01*
X66983428Y-98962028D01*
X66867314Y-98991057D01*
X66809257Y-99020085D01*
X66751200Y-99078142D01*
X66722171Y-99165228D01*
X66722171Y-99223285D01*
X66751200Y-99310371D01*
X66780228Y-99339400D01*
X67331771Y-99919971D02*
X67331771Y-99571628D01*
X67331771Y-99745800D02*
X66722171Y-99745800D01*
X66809257Y-99687742D01*
X66867314Y-99629685D01*
X66896342Y-99571628D01*
X69951600Y-55843714D02*
X69980628Y-55872742D01*
X70067714Y-55901771D01*
X70125771Y-55901771D01*
X70212857Y-55872742D01*
X70270914Y-55814685D01*
X70299942Y-55756628D01*
X70328971Y-55640514D01*
X70328971Y-55553428D01*
X70299942Y-55437314D01*
X70270914Y-55379257D01*
X70212857Y-55321200D01*
X70125771Y-55292171D01*
X70067714Y-55292171D01*
X69980628Y-55321200D01*
X69951600Y-55350228D01*
X69719371Y-55350228D02*
X69690342Y-55321200D01*
X69632285Y-55292171D01*
X69487142Y-55292171D01*
X69429085Y-55321200D01*
X69400057Y-55350228D01*
X69371028Y-55408285D01*
X69371028Y-55466342D01*
X69400057Y-55553428D01*
X69748400Y-55901771D01*
X69371028Y-55901771D01*
X73115714Y-99288400D02*
X73144742Y-99259371D01*
X73173771Y-99172285D01*
X73173771Y-99114228D01*
X73144742Y-99027142D01*
X73086685Y-98969085D01*
X73028628Y-98940057D01*
X72912514Y-98911028D01*
X72825428Y-98911028D01*
X72709314Y-98940057D01*
X72651257Y-98969085D01*
X72593200Y-99027142D01*
X72564171Y-99114228D01*
X72564171Y-99172285D01*
X72593200Y-99259371D01*
X72622228Y-99288400D01*
X72564171Y-99491600D02*
X72564171Y-99868971D01*
X72796400Y-99665771D01*
X72796400Y-99752857D01*
X72825428Y-99810914D01*
X72854457Y-99839942D01*
X72912514Y-99868971D01*
X73057657Y-99868971D01*
X73115714Y-99839942D01*
X73144742Y-99810914D01*
X73173771Y-99752857D01*
X73173771Y-99578685D01*
X73144742Y-99520628D01*
X73115714Y-99491600D01*
X82005714Y-91846400D02*
X82034742Y-91817371D01*
X82063771Y-91730285D01*
X82063771Y-91672228D01*
X82034742Y-91585142D01*
X81976685Y-91527085D01*
X81918628Y-91498057D01*
X81802514Y-91469028D01*
X81715428Y-91469028D01*
X81599314Y-91498057D01*
X81541257Y-91527085D01*
X81483200Y-91585142D01*
X81454171Y-91672228D01*
X81454171Y-91730285D01*
X81483200Y-91817371D01*
X81512228Y-91846400D01*
X81657371Y-92368914D02*
X82063771Y-92368914D01*
X81425142Y-92223771D02*
X81860571Y-92078628D01*
X81860571Y-92456000D01*
X70321714Y-50952400D02*
X70350742Y-50923371D01*
X70379771Y-50836285D01*
X70379771Y-50778228D01*
X70350742Y-50691142D01*
X70292685Y-50633085D01*
X70234628Y-50604057D01*
X70118514Y-50575028D01*
X70031428Y-50575028D01*
X69915314Y-50604057D01*
X69857257Y-50633085D01*
X69799200Y-50691142D01*
X69770171Y-50778228D01*
X69770171Y-50836285D01*
X69799200Y-50923371D01*
X69828228Y-50952400D01*
X69770171Y-51503942D02*
X69770171Y-51213657D01*
X70060457Y-51184628D01*
X70031428Y-51213657D01*
X70002400Y-51271714D01*
X70002400Y-51416857D01*
X70031428Y-51474914D01*
X70060457Y-51503942D01*
X70118514Y-51532971D01*
X70263657Y-51532971D01*
X70321714Y-51503942D01*
X70350742Y-51474914D01*
X70379771Y-51416857D01*
X70379771Y-51271714D01*
X70350742Y-51213657D01*
X70321714Y-51184628D01*
X82259714Y-110642400D02*
X82288742Y-110613371D01*
X82317771Y-110526285D01*
X82317771Y-110468228D01*
X82288742Y-110381142D01*
X82230685Y-110323085D01*
X82172628Y-110294057D01*
X82056514Y-110265028D01*
X81969428Y-110265028D01*
X81853314Y-110294057D01*
X81795257Y-110323085D01*
X81737200Y-110381142D01*
X81708171Y-110468228D01*
X81708171Y-110526285D01*
X81737200Y-110613371D01*
X81766228Y-110642400D01*
X81708171Y-111164914D02*
X81708171Y-111048800D01*
X81737200Y-110990742D01*
X81766228Y-110961714D01*
X81853314Y-110903657D01*
X81969428Y-110874628D01*
X82201657Y-110874628D01*
X82259714Y-110903657D01*
X82288742Y-110932685D01*
X82317771Y-110990742D01*
X82317771Y-111106857D01*
X82288742Y-111164914D01*
X82259714Y-111193942D01*
X82201657Y-111222971D01*
X82056514Y-111222971D01*
X81998457Y-111193942D01*
X81969428Y-111164914D01*
X81940400Y-111106857D01*
X81940400Y-110990742D01*
X81969428Y-110932685D01*
X81998457Y-110903657D01*
X82056514Y-110874628D01*
X67273714Y-91846400D02*
X67302742Y-91817371D01*
X67331771Y-91730285D01*
X67331771Y-91672228D01*
X67302742Y-91585142D01*
X67244685Y-91527085D01*
X67186628Y-91498057D01*
X67070514Y-91469028D01*
X66983428Y-91469028D01*
X66867314Y-91498057D01*
X66809257Y-91527085D01*
X66751200Y-91585142D01*
X66722171Y-91672228D01*
X66722171Y-91730285D01*
X66751200Y-91817371D01*
X66780228Y-91846400D01*
X66722171Y-92049600D02*
X66722171Y-92456000D01*
X67331771Y-92194742D01*
X53049714Y-91846400D02*
X53078742Y-91817371D01*
X53107771Y-91730285D01*
X53107771Y-91672228D01*
X53078742Y-91585142D01*
X53020685Y-91527085D01*
X52962628Y-91498057D01*
X52846514Y-91469028D01*
X52759428Y-91469028D01*
X52643314Y-91498057D01*
X52585257Y-91527085D01*
X52527200Y-91585142D01*
X52498171Y-91672228D01*
X52498171Y-91730285D01*
X52527200Y-91817371D01*
X52556228Y-91846400D01*
X52759428Y-92194742D02*
X52730400Y-92136685D01*
X52701371Y-92107657D01*
X52643314Y-92078628D01*
X52614285Y-92078628D01*
X52556228Y-92107657D01*
X52527200Y-92136685D01*
X52498171Y-92194742D01*
X52498171Y-92310857D01*
X52527200Y-92368914D01*
X52556228Y-92397942D01*
X52614285Y-92426971D01*
X52643314Y-92426971D01*
X52701371Y-92397942D01*
X52730400Y-92368914D01*
X52759428Y-92310857D01*
X52759428Y-92194742D01*
X52788457Y-92136685D01*
X52817485Y-92107657D01*
X52875542Y-92078628D01*
X52991657Y-92078628D01*
X53049714Y-92107657D01*
X53078742Y-92136685D01*
X53107771Y-92194742D01*
X53107771Y-92310857D01*
X53078742Y-92368914D01*
X53049714Y-92397942D01*
X52991657Y-92426971D01*
X52875542Y-92426971D01*
X52817485Y-92397942D01*
X52788457Y-92368914D01*
X52759428Y-92310857D01*
X92006956Y-73500924D02*
X91586364Y-73613622D01*
X91509759Y-73664201D01*
X91468707Y-73735306D01*
X91463207Y-73826937D01*
X91478233Y-73883016D01*
X91260352Y-73069872D02*
X91350509Y-73406346D01*
X91305431Y-73238109D02*
X91894259Y-73080333D01*
X91825167Y-73158951D01*
X91784114Y-73230056D01*
X91771101Y-73293648D01*
X27416138Y-72107321D02*
X27836730Y-72220018D01*
X27928361Y-72214518D01*
X27999466Y-72173466D01*
X28050045Y-72096861D01*
X28065071Y-72040782D01*
X27404598Y-72374702D02*
X27369046Y-72395229D01*
X27325980Y-72443795D01*
X27288414Y-72583992D01*
X27301428Y-72647584D01*
X27321954Y-72683136D01*
X27370520Y-72726202D01*
X27426598Y-72741228D01*
X27518230Y-72735728D01*
X27944861Y-72489413D01*
X27847190Y-72853926D01*
D10*
X75183904Y-113390380D02*
X75183904Y-114199904D01*
X75136285Y-114295142D01*
X75088666Y-114342761D01*
X74993428Y-114390380D01*
X74802952Y-114390380D01*
X74707714Y-114342761D01*
X74660095Y-114295142D01*
X74612476Y-114199904D01*
X74612476Y-113390380D01*
X73612476Y-114390380D02*
X74183904Y-114390380D01*
X73898190Y-114390380D02*
X73898190Y-113390380D01*
X73993428Y-113533238D01*
X74088666Y-113628476D01*
X74183904Y-113676095D01*
X63855904Y-47022380D02*
X63855904Y-47831904D01*
X63808285Y-47927142D01*
X63760666Y-47974761D01*
X63665428Y-48022380D01*
X63474952Y-48022380D01*
X63379714Y-47974761D01*
X63332095Y-47927142D01*
X63284476Y-47831904D01*
X63284476Y-47022380D01*
X62855904Y-47117619D02*
X62808285Y-47070000D01*
X62713047Y-47022380D01*
X62474952Y-47022380D01*
X62379714Y-47070000D01*
X62332095Y-47117619D01*
X62284476Y-47212857D01*
X62284476Y-47308095D01*
X62332095Y-47450952D01*
X62903523Y-48022380D01*
X62284476Y-48022380D01*
X75183904Y-86828380D02*
X75183904Y-87637904D01*
X75136285Y-87733142D01*
X75088666Y-87780761D01*
X74993428Y-87828380D01*
X74802952Y-87828380D01*
X74707714Y-87780761D01*
X74660095Y-87733142D01*
X74612476Y-87637904D01*
X74612476Y-86828380D01*
X74231523Y-86828380D02*
X73612476Y-86828380D01*
X73945809Y-87209333D01*
X73802952Y-87209333D01*
X73707714Y-87256952D01*
X73660095Y-87304571D01*
X73612476Y-87399809D01*
X73612476Y-87637904D01*
X73660095Y-87733142D01*
X73707714Y-87780761D01*
X73802952Y-87828380D01*
X74088666Y-87828380D01*
X74183904Y-87780761D01*
X74231523Y-87733142D01*
X60451904Y-86828380D02*
X60451904Y-87637904D01*
X60404285Y-87733142D01*
X60356666Y-87780761D01*
X60261428Y-87828380D01*
X60070952Y-87828380D01*
X59975714Y-87780761D01*
X59928095Y-87733142D01*
X59880476Y-87637904D01*
X59880476Y-86828380D01*
X58975714Y-87161714D02*
X58975714Y-87828380D01*
X59213809Y-86780761D02*
X59451904Y-87495047D01*
X58832857Y-87495047D01*
X46227904Y-86574380D02*
X46227904Y-87383904D01*
X46180285Y-87479142D01*
X46132666Y-87526761D01*
X46037428Y-87574380D01*
X45846952Y-87574380D01*
X45751714Y-87526761D01*
X45704095Y-87479142D01*
X45656476Y-87383904D01*
X45656476Y-86574380D01*
X44704095Y-86574380D02*
X45180285Y-86574380D01*
X45227904Y-87050571D01*
X45180285Y-87002952D01*
X45085047Y-86955333D01*
X44846952Y-86955333D01*
X44751714Y-87002952D01*
X44704095Y-87050571D01*
X44656476Y-87145809D01*
X44656476Y-87383904D01*
X44704095Y-87479142D01*
X44751714Y-87526761D01*
X44846952Y-87574380D01*
X45085047Y-87574380D01*
X45180285Y-87526761D01*
X45227904Y-87479142D01*
X69183190Y-101867190D02*
X69183190Y-102343380D01*
X69516523Y-101343380D02*
X69183190Y-101867190D01*
X68849857Y-101343380D01*
X67992714Y-102343380D02*
X68564142Y-102343380D01*
X68278428Y-102343380D02*
X68278428Y-101343380D01*
X68373666Y-101486238D01*
X68468904Y-101581476D01*
X68564142Y-101629095D01*
M02*
