G04 #@! TF.GenerationSoftware,KiCad,Pcbnew,5.1.2*
G04 #@! TF.CreationDate,2019-06-25T12:21:07-07:00*
G04 #@! TF.ProjectId,DC27-Cylon,44433237-2d43-4796-9c6f-6e2e6b696361,rev?*
G04 #@! TF.SameCoordinates,Original*
G04 #@! TF.FileFunction,Paste,Top*
G04 #@! TF.FilePolarity,Positive*
%FSLAX46Y46*%
G04 Gerber Fmt 4.6, Leading zero omitted, Abs format (unit mm)*
G04 Created by KiCad (PCBNEW 5.1.2) date 2019-06-25 12:21:07*
%MOMM*%
%LPD*%
G04 APERTURE LIST*
%ADD10R,0.998220X1.099820*%
%ADD11R,1.099820X0.998220*%
%ADD12R,0.998220X0.998220*%
%ADD13R,1.200000X0.500000*%
%ADD14R,0.500000X1.200000*%
%ADD15R,2.000000X3.800000*%
%ADD16R,2.000000X1.500000*%
%ADD17R,1.400000X1.200000*%
G04 APERTURE END LIST*
D10*
X30480000Y-69001640D03*
X30480000Y-70698360D03*
X53340000Y-57998360D03*
X53340000Y-56301640D03*
X37284660Y-70698360D03*
X37284660Y-69001640D03*
D11*
X42758360Y-54610000D03*
X41061640Y-54610000D03*
X61381640Y-52070000D03*
X63078360Y-52070000D03*
D12*
X64770000Y-79616300D03*
X64770000Y-77863700D03*
X62230000Y-77863700D03*
X62230000Y-79616300D03*
X59690000Y-77863700D03*
X59690000Y-79616300D03*
X57150000Y-79616300D03*
X57150000Y-77863700D03*
X54610000Y-77863700D03*
X54610000Y-79616300D03*
X52070000Y-79616300D03*
X52070000Y-77863700D03*
X49530000Y-77863700D03*
X49530000Y-79616300D03*
X46990000Y-79616300D03*
X46990000Y-77863700D03*
X44450000Y-77863700D03*
X44450000Y-79616300D03*
X41910000Y-79616300D03*
X41910000Y-77863700D03*
D10*
X64770000Y-74081640D03*
X64770000Y-75778360D03*
X62230000Y-75778360D03*
X62230000Y-74081640D03*
X59690000Y-74081640D03*
X59690000Y-75778360D03*
X57150000Y-75778360D03*
X57150000Y-74081640D03*
X54610000Y-74081640D03*
X54610000Y-75778360D03*
X52070000Y-75778360D03*
X52070000Y-74081640D03*
X49530000Y-75778360D03*
X49530000Y-74081640D03*
X46990000Y-74081640D03*
X46990000Y-75778360D03*
X44450000Y-75778360D03*
X44450000Y-74081640D03*
X41910000Y-74081640D03*
X41910000Y-75778360D03*
D13*
X33780000Y-58600000D03*
D14*
X40830000Y-57150000D03*
D13*
X42280000Y-64200000D03*
D14*
X35230000Y-65650000D03*
X36030000Y-65650000D03*
X36830000Y-65650000D03*
X37630000Y-65650000D03*
X38430000Y-65650000D03*
X39230000Y-65650000D03*
X40030000Y-65650000D03*
X40830000Y-65650000D03*
D13*
X42280000Y-63400000D03*
X42280000Y-62600000D03*
X42280000Y-61800000D03*
X42280000Y-61000000D03*
X42280000Y-60200000D03*
X42280000Y-59400000D03*
X42280000Y-58600000D03*
D14*
X40030000Y-57150000D03*
X39230000Y-57150000D03*
X38430000Y-57150000D03*
X37630000Y-57150000D03*
X36830000Y-57150000D03*
X36030000Y-57150000D03*
X35230000Y-57150000D03*
D13*
X33780000Y-59400000D03*
X33780000Y-60200000D03*
X33780000Y-61000000D03*
X33780000Y-61800000D03*
X33780000Y-62600000D03*
X33780000Y-63400000D03*
X33780000Y-64200000D03*
D15*
X62840000Y-57150000D03*
D16*
X56540000Y-57150000D03*
X56540000Y-59450000D03*
X56540000Y-54850000D03*
D17*
X33190000Y-70700000D03*
X35390000Y-70700000D03*
X35390000Y-69000000D03*
X33190000Y-69000000D03*
M02*
