G04 #@! TF.GenerationSoftware,KiCad,Pcbnew,5.1.2*
G04 #@! TF.CreationDate,2019-06-28T19:34:58-07:00*
G04 #@! TF.ProjectId,DC27-Cylon,44433237-2d43-4796-9c6f-6e2e6b696361,rev?*
G04 #@! TF.SameCoordinates,Original*
G04 #@! TF.FileFunction,Legend,Top*
G04 #@! TF.FilePolarity,Positive*
%FSLAX46Y46*%
G04 Gerber Fmt 4.6, Leading zero omitted, Abs format (unit mm)*
G04 Created by KiCad (PCBNEW 5.1.2) date 2019-06-28 19:34:58*
%MOMM*%
%LPD*%
G04 APERTURE LIST*
%ADD10C,0.127000*%
%ADD11C,0.010000*%
G04 APERTURE END LIST*
D10*
X38710020Y-74612500D02*
X39659980Y-74612500D01*
X40485020Y-74612500D02*
X41434980Y-74612500D01*
X42260020Y-74612500D02*
X43209980Y-74612500D01*
X44035020Y-74612500D02*
X44984980Y-74612500D01*
X45810020Y-74612500D02*
X46759980Y-74612500D01*
X47585020Y-74612500D02*
X48534980Y-74612500D01*
X49360020Y-74612500D02*
X50309980Y-74612500D01*
X51135020Y-74612500D02*
X52084980Y-74612500D01*
X52910020Y-74612500D02*
X53859980Y-74612500D01*
X54685020Y-74612500D02*
X55634980Y-74612500D01*
X56460020Y-74612500D02*
X57409980Y-74612500D01*
X58235020Y-74612500D02*
X59184980Y-74612500D01*
X60010020Y-74612500D02*
X60959980Y-74612500D01*
X61785020Y-74612500D02*
X62734980Y-74612500D01*
X63560020Y-74612500D02*
X64509980Y-74612500D01*
X65335020Y-74612500D02*
X66284980Y-74612500D01*
X67110020Y-74612500D02*
X68059980Y-74612500D01*
X68885020Y-74612500D02*
X69834980Y-74612500D01*
X70660020Y-74612500D02*
X71609980Y-74612500D01*
X72435020Y-74612500D02*
X73384980Y-74612500D01*
X74210020Y-74612500D02*
X75159980Y-74612500D01*
X75985020Y-74612500D02*
X76934980Y-74612500D01*
X77760020Y-74612500D02*
X78709980Y-74612500D01*
D11*
G36*
X59857569Y-23162859D02*
G01*
X60153077Y-23165882D01*
X60412346Y-23169044D01*
X60641470Y-23172554D01*
X60846544Y-23176619D01*
X61033663Y-23181447D01*
X61208920Y-23187245D01*
X61378409Y-23194222D01*
X61548227Y-23202584D01*
X61724466Y-23212541D01*
X61913220Y-23224299D01*
X62120586Y-23238066D01*
X62177083Y-23241917D01*
X62716570Y-23284065D01*
X63227821Y-23334599D01*
X63709559Y-23393230D01*
X64160504Y-23459670D01*
X64579379Y-23533632D01*
X64964905Y-23614827D01*
X65315802Y-23702967D01*
X65630794Y-23797764D01*
X65908601Y-23898930D01*
X66147945Y-24006177D01*
X66347547Y-24119217D01*
X66473084Y-24209804D01*
X66538793Y-24266086D01*
X66595781Y-24322761D01*
X66644661Y-24383158D01*
X66686046Y-24450608D01*
X66720549Y-24528441D01*
X66748782Y-24619988D01*
X66771358Y-24728578D01*
X66788890Y-24857541D01*
X66801990Y-25010208D01*
X66811271Y-25189910D01*
X66817346Y-25399975D01*
X66820828Y-25643734D01*
X66822329Y-25924518D01*
X66822534Y-26109083D01*
X66822450Y-26297562D01*
X66822142Y-26480483D01*
X66821551Y-26659229D01*
X66820617Y-26835182D01*
X66819283Y-27009726D01*
X66817487Y-27184242D01*
X66815172Y-27360115D01*
X66812277Y-27538726D01*
X66808744Y-27721459D01*
X66804513Y-27909696D01*
X66799525Y-28104820D01*
X66793721Y-28308215D01*
X66787042Y-28521262D01*
X66779428Y-28745345D01*
X66770821Y-28981846D01*
X66761160Y-29232148D01*
X66750387Y-29497634D01*
X66738443Y-29779687D01*
X66725268Y-30079690D01*
X66710803Y-30399025D01*
X66694989Y-30739075D01*
X66677766Y-31101223D01*
X66659076Y-31486852D01*
X66638859Y-31897345D01*
X66617056Y-32334084D01*
X66593608Y-32798452D01*
X66568455Y-33291833D01*
X66541539Y-33815608D01*
X66512799Y-34371161D01*
X66482178Y-34959874D01*
X66449615Y-35583131D01*
X66415051Y-36242314D01*
X66378427Y-36938805D01*
X66339685Y-37673988D01*
X66298764Y-38449246D01*
X66273601Y-38925500D01*
X66240960Y-39543377D01*
X66210451Y-40121710D01*
X66181950Y-40663224D01*
X66155335Y-41170649D01*
X66130485Y-41646711D01*
X66107275Y-42094140D01*
X66085584Y-42515662D01*
X66065290Y-42914005D01*
X66046269Y-43291898D01*
X66028400Y-43652068D01*
X66011559Y-43997242D01*
X65995625Y-44330150D01*
X65980475Y-44653518D01*
X65965986Y-44970074D01*
X65952035Y-45282546D01*
X65938502Y-45593663D01*
X65925262Y-45906151D01*
X65912193Y-46222739D01*
X65899173Y-46546154D01*
X65886080Y-46879125D01*
X65872790Y-47224379D01*
X65859182Y-47584643D01*
X65845133Y-47962647D01*
X65830520Y-48361117D01*
X65815221Y-48782781D01*
X65799114Y-49230367D01*
X65782075Y-49706604D01*
X65763983Y-50214218D01*
X65753685Y-50503667D01*
X65738826Y-50920658D01*
X65723253Y-51356214D01*
X65707144Y-51805381D01*
X65690680Y-52263205D01*
X65674040Y-52724733D01*
X65657403Y-53185012D01*
X65640950Y-53639087D01*
X65624858Y-54082005D01*
X65609310Y-54508813D01*
X65594482Y-54914558D01*
X65580557Y-55294285D01*
X65567712Y-55643041D01*
X65556127Y-55955873D01*
X65553044Y-56038750D01*
X65534795Y-56533220D01*
X65518329Y-56989982D01*
X65503558Y-57413621D01*
X65490393Y-57808718D01*
X65478744Y-58179860D01*
X65468522Y-58531629D01*
X65459637Y-58868609D01*
X65452002Y-59195384D01*
X65445525Y-59516538D01*
X65440118Y-59836655D01*
X65435693Y-60160318D01*
X65432159Y-60492112D01*
X65429427Y-60836620D01*
X65427408Y-61198427D01*
X65426013Y-61582115D01*
X65425152Y-61992270D01*
X65424737Y-62433474D01*
X65424674Y-62632167D01*
X65424794Y-63072436D01*
X65425359Y-63472753D01*
X65426446Y-63835499D01*
X65428133Y-64163051D01*
X65430495Y-64457792D01*
X65433611Y-64722099D01*
X65437557Y-64958353D01*
X65442410Y-65168934D01*
X65448248Y-65356222D01*
X65455148Y-65522595D01*
X65463187Y-65670435D01*
X65472441Y-65802120D01*
X65482988Y-65920031D01*
X65494906Y-66026548D01*
X65508271Y-66124049D01*
X65523159Y-66214915D01*
X65539650Y-66301526D01*
X65544282Y-66323992D01*
X65581289Y-66459576D01*
X65633083Y-66593608D01*
X65693508Y-66712032D01*
X65749783Y-66793179D01*
X65841070Y-66873276D01*
X65969759Y-66944313D01*
X66131601Y-67004809D01*
X66322348Y-67053283D01*
X66537753Y-67088253D01*
X66622083Y-67097400D01*
X66790499Y-67109142D01*
X66994808Y-67116368D01*
X67228831Y-67119265D01*
X67486392Y-67118025D01*
X67761312Y-67112836D01*
X68047412Y-67103887D01*
X68338516Y-67091370D01*
X68628445Y-67075472D01*
X68911021Y-67056384D01*
X69180067Y-67034295D01*
X69405500Y-67012009D01*
X69523085Y-66998714D01*
X69681245Y-66979912D01*
X69878607Y-66955785D01*
X70113795Y-66926509D01*
X70385436Y-66892266D01*
X70692156Y-66853232D01*
X71032579Y-66809587D01*
X71405331Y-66761511D01*
X71809039Y-66709181D01*
X72242328Y-66652778D01*
X72703823Y-66592480D01*
X73192150Y-66528465D01*
X73705935Y-66460913D01*
X74243804Y-66390003D01*
X74804381Y-66315913D01*
X75386293Y-66238823D01*
X75988166Y-66158912D01*
X76608625Y-66076357D01*
X77246295Y-65991340D01*
X77290083Y-65985495D01*
X77927709Y-65900530D01*
X78525326Y-65821210D01*
X79084851Y-65747306D01*
X79608199Y-65678588D01*
X80097286Y-65614827D01*
X80554027Y-65555794D01*
X80980338Y-65501261D01*
X81378135Y-65450997D01*
X81749334Y-65404775D01*
X82095849Y-65362365D01*
X82419598Y-65323537D01*
X82722495Y-65288063D01*
X83006456Y-65255714D01*
X83273396Y-65226260D01*
X83525233Y-65199473D01*
X83763880Y-65175123D01*
X83991254Y-65152982D01*
X84209271Y-65132820D01*
X84419845Y-65114408D01*
X84624894Y-65097517D01*
X84826332Y-65081917D01*
X84878333Y-65078046D01*
X85351597Y-65046527D01*
X85821444Y-65021912D01*
X86284154Y-65004168D01*
X86736005Y-64993260D01*
X87173277Y-64989156D01*
X87592249Y-64991821D01*
X87989201Y-65001222D01*
X88360412Y-65017326D01*
X88702162Y-65040098D01*
X89010729Y-65069506D01*
X89282393Y-65105515D01*
X89361447Y-65118518D01*
X89679102Y-65186658D01*
X89964258Y-65274966D01*
X90214847Y-65382710D01*
X90384963Y-65479763D01*
X90558012Y-65608093D01*
X90742025Y-65775742D01*
X90936187Y-65981367D01*
X91139684Y-66223624D01*
X91351702Y-66501171D01*
X91571426Y-66812664D01*
X91798043Y-67156760D01*
X92030736Y-67532117D01*
X92268694Y-67937392D01*
X92511100Y-68371240D01*
X92757141Y-68832319D01*
X93006002Y-69319287D01*
X93256869Y-69830799D01*
X93508927Y-70365513D01*
X93761363Y-70922086D01*
X93961163Y-71377844D01*
X94050487Y-71587655D01*
X94151197Y-71829410D01*
X94260178Y-72095282D01*
X94374314Y-72377443D01*
X94490491Y-72668066D01*
X94605591Y-72959324D01*
X94716501Y-73243388D01*
X94820104Y-73512432D01*
X94913284Y-73758627D01*
X94974828Y-73924583D01*
X95241241Y-74671694D01*
X95490751Y-75414863D01*
X95724615Y-76158991D01*
X95944091Y-76908973D01*
X96150436Y-77669707D01*
X96344908Y-78446093D01*
X96528766Y-79243026D01*
X96703265Y-80065405D01*
X96869664Y-80918128D01*
X97029221Y-81806093D01*
X97089097Y-82158417D01*
X97173050Y-82670520D01*
X97251945Y-83172923D01*
X97325620Y-83663846D01*
X97393912Y-84141504D01*
X97456659Y-84604117D01*
X97513699Y-85049902D01*
X97564870Y-85477078D01*
X97610010Y-85883862D01*
X97648956Y-86268472D01*
X97681547Y-86629127D01*
X97707619Y-86964044D01*
X97727012Y-87271442D01*
X97739563Y-87549538D01*
X97745109Y-87796551D01*
X97743489Y-88010697D01*
X97734540Y-88190197D01*
X97718100Y-88333266D01*
X97694008Y-88438125D01*
X97666021Y-88497833D01*
X97613384Y-88548316D01*
X97529100Y-88602612D01*
X97422921Y-88655682D01*
X97304597Y-88702489D01*
X97218062Y-88729292D01*
X97102511Y-88758200D01*
X96976504Y-88784759D01*
X96837373Y-88809192D01*
X96682450Y-88831721D01*
X96509067Y-88852571D01*
X96314556Y-88871963D01*
X96096250Y-88890121D01*
X95851481Y-88907268D01*
X95577580Y-88923626D01*
X95271881Y-88939418D01*
X94931714Y-88954868D01*
X94554413Y-88970198D01*
X94159917Y-88984827D01*
X93672729Y-89002370D01*
X93225532Y-89018866D01*
X92816000Y-89034475D01*
X92441806Y-89049357D01*
X92100626Y-89063672D01*
X91790134Y-89077582D01*
X91508004Y-89091245D01*
X91251909Y-89104822D01*
X91019525Y-89118473D01*
X90808526Y-89132359D01*
X90616586Y-89146639D01*
X90441379Y-89161474D01*
X90280580Y-89177025D01*
X90131863Y-89193450D01*
X89992903Y-89210911D01*
X89861372Y-89229568D01*
X89734947Y-89249581D01*
X89611301Y-89271110D01*
X89488108Y-89294316D01*
X89393260Y-89313191D01*
X89079526Y-89381788D01*
X88803914Y-89453056D01*
X88562225Y-89528698D01*
X88350260Y-89610418D01*
X88163819Y-89699919D01*
X87998703Y-89798905D01*
X87850711Y-89909079D01*
X87785982Y-89965113D01*
X87685391Y-90070573D01*
X87575835Y-90210960D01*
X87460575Y-90380671D01*
X87342871Y-90574102D01*
X87225985Y-90785652D01*
X87113176Y-91009717D01*
X87007706Y-91240695D01*
X86921470Y-91450583D01*
X86797427Y-91811150D01*
X86704449Y-92171202D01*
X86642957Y-92526345D01*
X86613369Y-92872186D01*
X86616106Y-93204334D01*
X86651588Y-93518394D01*
X86702042Y-93747167D01*
X86715323Y-93793374D01*
X86732614Y-93849117D01*
X86754582Y-93916194D01*
X86781895Y-93996403D01*
X86815221Y-94091542D01*
X86855229Y-94203409D01*
X86902586Y-94333802D01*
X86957962Y-94484519D01*
X87022022Y-94657359D01*
X87095437Y-94854119D01*
X87178873Y-95076598D01*
X87273000Y-95326593D01*
X87378484Y-95605903D01*
X87495995Y-95916326D01*
X87626200Y-96259659D01*
X87769767Y-96637702D01*
X87927364Y-97052251D01*
X88042950Y-97356083D01*
X88545843Y-98679611D01*
X89033546Y-99967032D01*
X89506017Y-101218229D01*
X89963214Y-102433087D01*
X90405095Y-103611488D01*
X90831619Y-104753316D01*
X91242744Y-105858455D01*
X91638428Y-106926787D01*
X92018629Y-107958196D01*
X92383306Y-108952566D01*
X92732416Y-109909779D01*
X93065919Y-110829720D01*
X93383772Y-111712272D01*
X93685933Y-112557318D01*
X93972361Y-113364741D01*
X94243014Y-114134425D01*
X94497850Y-114866254D01*
X94736828Y-115560110D01*
X94959905Y-116215877D01*
X95167040Y-116833439D01*
X95358192Y-117412678D01*
X95533318Y-117953479D01*
X95692376Y-118455725D01*
X95835326Y-118919298D01*
X95962124Y-119344083D01*
X96072730Y-119729963D01*
X96127579Y-119929011D01*
X96201073Y-120208952D01*
X96259405Y-120451201D01*
X96302820Y-120657497D01*
X96331562Y-120829578D01*
X96345878Y-120969182D01*
X96346012Y-121078048D01*
X96332211Y-121157914D01*
X96307865Y-121206704D01*
X96252183Y-121253101D01*
X96156513Y-121303147D01*
X96023011Y-121356493D01*
X95853833Y-121412789D01*
X95651134Y-121471685D01*
X95417071Y-121532832D01*
X95153800Y-121595880D01*
X94863475Y-121660478D01*
X94548255Y-121726279D01*
X94210293Y-121792932D01*
X93851747Y-121860086D01*
X93474772Y-121927394D01*
X93081524Y-121994505D01*
X92674159Y-122061069D01*
X92254833Y-122126737D01*
X91825701Y-122191159D01*
X91388921Y-122253985D01*
X90946647Y-122314866D01*
X90501036Y-122373453D01*
X90054243Y-122429394D01*
X89608425Y-122482342D01*
X89165738Y-122531946D01*
X88728337Y-122577857D01*
X88298377Y-122619724D01*
X87878017Y-122657199D01*
X87469410Y-122689931D01*
X87074713Y-122717571D01*
X86939983Y-122725994D01*
X86822847Y-122731513D01*
X86679450Y-122735746D01*
X86515155Y-122738743D01*
X86335326Y-122740557D01*
X86145326Y-122741236D01*
X85950520Y-122740834D01*
X85756271Y-122739399D01*
X85567942Y-122736983D01*
X85390899Y-122733638D01*
X85230503Y-122729413D01*
X85092119Y-122724361D01*
X84981112Y-122718531D01*
X84902843Y-122711975D01*
X84867750Y-122706331D01*
X84783182Y-122668030D01*
X84707712Y-122597744D01*
X84638201Y-122491816D01*
X84582827Y-122374310D01*
X84544197Y-122280236D01*
X84497557Y-122163777D01*
X84442511Y-122023883D01*
X84378665Y-121859504D01*
X84305623Y-121669588D01*
X84222992Y-121453084D01*
X84130376Y-121208942D01*
X84027380Y-120936111D01*
X83913611Y-120633539D01*
X83788672Y-120300176D01*
X83652169Y-119934971D01*
X83503708Y-119536873D01*
X83342893Y-119104831D01*
X83169330Y-118637795D01*
X82982624Y-118134712D01*
X82782381Y-117594534D01*
X82568205Y-117016207D01*
X82448155Y-116691833D01*
X82014029Y-115519493D01*
X81593683Y-114386236D01*
X81186786Y-113291231D01*
X80793010Y-112233648D01*
X80412027Y-111212656D01*
X80043508Y-110227424D01*
X79687124Y-109277122D01*
X79342547Y-108360919D01*
X79009448Y-107477984D01*
X78687499Y-106627486D01*
X78376370Y-105808595D01*
X78075734Y-105020481D01*
X77785262Y-104262312D01*
X77504625Y-103533258D01*
X77233495Y-102832488D01*
X76971542Y-102159171D01*
X76718438Y-101512477D01*
X76473856Y-100891576D01*
X76237465Y-100295635D01*
X76008938Y-99723826D01*
X75787945Y-99175316D01*
X75574159Y-98649276D01*
X75367251Y-98144875D01*
X75166891Y-97661281D01*
X74972752Y-97197665D01*
X74784505Y-96753196D01*
X74601821Y-96327042D01*
X74424372Y-95918374D01*
X74251828Y-95526360D01*
X74083862Y-95150171D01*
X73920144Y-94788974D01*
X73760347Y-94441940D01*
X73604141Y-94108238D01*
X73451199Y-93787037D01*
X73301190Y-93477507D01*
X73153787Y-93178816D01*
X73119247Y-93109620D01*
X72942612Y-92759640D01*
X72780950Y-92446387D01*
X72632685Y-92167626D01*
X72496242Y-91921118D01*
X72370047Y-91704627D01*
X72252525Y-91515916D01*
X72142100Y-91352748D01*
X72037198Y-91212884D01*
X71936245Y-91094089D01*
X71837664Y-90994124D01*
X71739883Y-90910753D01*
X71641324Y-90841738D01*
X71540415Y-90784843D01*
X71455300Y-90745867D01*
X71255378Y-90671802D01*
X71022130Y-90602350D01*
X70754684Y-90537393D01*
X70452168Y-90476811D01*
X70113712Y-90420484D01*
X69738443Y-90368294D01*
X69325491Y-90320121D01*
X68873984Y-90275846D01*
X68383050Y-90235349D01*
X67851819Y-90198512D01*
X67279419Y-90165214D01*
X67172417Y-90159611D01*
X66989419Y-90150417D01*
X66810396Y-90141954D01*
X66632591Y-90134165D01*
X66453246Y-90126993D01*
X66269603Y-90120384D01*
X66078905Y-90114279D01*
X65878395Y-90108624D01*
X65665316Y-90103360D01*
X65436909Y-90098433D01*
X65190417Y-90093786D01*
X64923083Y-90089361D01*
X64632150Y-90085104D01*
X64314860Y-90080957D01*
X63968455Y-90076865D01*
X63590179Y-90072770D01*
X63177273Y-90068617D01*
X62726981Y-90064349D01*
X62341125Y-90060842D01*
X61804228Y-90056261D01*
X61302814Y-90052486D01*
X60830042Y-90049516D01*
X60379067Y-90047352D01*
X59943049Y-90045994D01*
X59515144Y-90045442D01*
X59088510Y-90045695D01*
X58656305Y-90046754D01*
X58211686Y-90048618D01*
X57747810Y-90051289D01*
X57257837Y-90054764D01*
X56734921Y-90059046D01*
X56530875Y-90060842D01*
X56049956Y-90065233D01*
X55608580Y-90069467D01*
X55203956Y-90073601D01*
X54833297Y-90077691D01*
X54493810Y-90081796D01*
X54182707Y-90085971D01*
X53897198Y-90090275D01*
X53634493Y-90094764D01*
X53391802Y-90099496D01*
X53166335Y-90104528D01*
X52955302Y-90109916D01*
X52755914Y-90115718D01*
X52565381Y-90121991D01*
X52380912Y-90128792D01*
X52199718Y-90136178D01*
X52019010Y-90144207D01*
X51835996Y-90152935D01*
X51699583Y-90159769D01*
X51098799Y-90193590D01*
X50539892Y-90231675D01*
X50022618Y-90274059D01*
X49546730Y-90320777D01*
X49111985Y-90371866D01*
X48718139Y-90427360D01*
X48364945Y-90487295D01*
X48052160Y-90551706D01*
X47779538Y-90620629D01*
X47546836Y-90694099D01*
X47353808Y-90772152D01*
X47303922Y-90796304D01*
X47210611Y-90849742D01*
X47118161Y-90916139D01*
X47025145Y-90997635D01*
X46930140Y-91096370D01*
X46831719Y-91214484D01*
X46728459Y-91354118D01*
X46618933Y-91517410D01*
X46501717Y-91706502D01*
X46375386Y-91923533D01*
X46238514Y-92170644D01*
X46089677Y-92449974D01*
X45927449Y-92763664D01*
X45750406Y-93113853D01*
X45719483Y-93175667D01*
X45568890Y-93480210D01*
X45414880Y-93797917D01*
X45257139Y-94129582D01*
X45095351Y-94476001D01*
X44929204Y-94837969D01*
X44758381Y-95216282D01*
X44582569Y-95611734D01*
X44401452Y-96025121D01*
X44214717Y-96457239D01*
X44022048Y-96908883D01*
X43823131Y-97380849D01*
X43617652Y-97873930D01*
X43405295Y-98388924D01*
X43185746Y-98926625D01*
X42958692Y-99487828D01*
X42723816Y-100073330D01*
X42480805Y-100683924D01*
X42229343Y-101320408D01*
X41969117Y-101983575D01*
X41699812Y-102674222D01*
X41421112Y-103393143D01*
X41132704Y-104141135D01*
X40834274Y-104918991D01*
X40525505Y-105727509D01*
X40206084Y-106567483D01*
X39875697Y-107439708D01*
X39534028Y-108344980D01*
X39180763Y-109284094D01*
X38815587Y-110257845D01*
X38438187Y-111267029D01*
X38048246Y-112312442D01*
X37645452Y-113394878D01*
X37229488Y-114515133D01*
X36800041Y-115674002D01*
X36501755Y-116480167D01*
X36279794Y-117080207D01*
X36071952Y-117641653D01*
X35877791Y-118165661D01*
X35696873Y-118653388D01*
X35528759Y-119105991D01*
X35373010Y-119524626D01*
X35229188Y-119910451D01*
X35096856Y-120264623D01*
X34975574Y-120588298D01*
X34864903Y-120882633D01*
X34764407Y-121148785D01*
X34673645Y-121387911D01*
X34592180Y-121601167D01*
X34519574Y-121789711D01*
X34455387Y-121954699D01*
X34399182Y-122097289D01*
X34350520Y-122218636D01*
X34308963Y-122319899D01*
X34274072Y-122402233D01*
X34245409Y-122466796D01*
X34222535Y-122514745D01*
X34205013Y-122547235D01*
X34198780Y-122557088D01*
X34151437Y-122618547D01*
X34101207Y-122661437D01*
X34038220Y-122690281D01*
X33952609Y-122709602D01*
X33834917Y-122723885D01*
X33771676Y-122727851D01*
X33672462Y-122731365D01*
X33543633Y-122734400D01*
X33391546Y-122736929D01*
X33222558Y-122738925D01*
X33043028Y-122740360D01*
X32859313Y-122741208D01*
X32677770Y-122741441D01*
X32504759Y-122741032D01*
X32346636Y-122739954D01*
X32209759Y-122738180D01*
X32100487Y-122735681D01*
X32025175Y-122732432D01*
X32014583Y-122731677D01*
X31964168Y-122727954D01*
X31881127Y-122722125D01*
X31775079Y-122714850D01*
X31655641Y-122706794D01*
X31591250Y-122702503D01*
X31194177Y-122673729D01*
X30778398Y-122639014D01*
X30346758Y-122598798D01*
X29902101Y-122553522D01*
X29447271Y-122503624D01*
X28985113Y-122449546D01*
X28518472Y-122391726D01*
X28050191Y-122330604D01*
X27583115Y-122266621D01*
X27120089Y-122200217D01*
X26663957Y-122131830D01*
X26217564Y-122061901D01*
X25783753Y-121990870D01*
X25365369Y-121919177D01*
X24965258Y-121847261D01*
X24586262Y-121775562D01*
X24231227Y-121704521D01*
X23902997Y-121634576D01*
X23604416Y-121566169D01*
X23338329Y-121499738D01*
X23107581Y-121435724D01*
X22915015Y-121374566D01*
X22847920Y-121350479D01*
X22724489Y-121301701D01*
X22636213Y-121258678D01*
X22577430Y-121215939D01*
X22542475Y-121168015D01*
X22525687Y-121109435D01*
X22521401Y-121035111D01*
X22529409Y-120910062D01*
X22553228Y-120746164D01*
X22592729Y-120543786D01*
X22647783Y-120303298D01*
X22718260Y-120025069D01*
X22804031Y-119709466D01*
X22904966Y-119356861D01*
X23020937Y-118967620D01*
X23151812Y-118542114D01*
X23297465Y-118080711D01*
X23457764Y-117583780D01*
X23632580Y-117051691D01*
X23821785Y-116484811D01*
X24025248Y-115883511D01*
X24242841Y-115248158D01*
X24474434Y-114579123D01*
X24719897Y-113876774D01*
X24979102Y-113141479D01*
X25251918Y-112373608D01*
X25538217Y-111573531D01*
X25837869Y-110741615D01*
X26150744Y-109878229D01*
X26476714Y-108983744D01*
X26815649Y-108058527D01*
X27167419Y-107102948D01*
X27531895Y-106117376D01*
X27908948Y-105102179D01*
X28298449Y-104057726D01*
X28700267Y-102984387D01*
X29114274Y-101882531D01*
X29540341Y-100752525D01*
X29978337Y-99594741D01*
X30428134Y-98409545D01*
X30776658Y-97493667D01*
X30946314Y-97048227D01*
X31101514Y-96640468D01*
X31242940Y-96268534D01*
X31371274Y-95930571D01*
X31487199Y-95624725D01*
X31591394Y-95349141D01*
X31684543Y-95101964D01*
X31767328Y-94881340D01*
X31840428Y-94685414D01*
X31904528Y-94512333D01*
X31960307Y-94360241D01*
X32008449Y-94227283D01*
X32049634Y-94111606D01*
X32084544Y-94011355D01*
X32113862Y-93924676D01*
X32138269Y-93849713D01*
X32158446Y-93784613D01*
X32175076Y-93727520D01*
X32188839Y-93676581D01*
X32200419Y-93629941D01*
X32206269Y-93604718D01*
X32222802Y-93505918D01*
X32236176Y-93375573D01*
X32246058Y-93224378D01*
X32252115Y-93063026D01*
X32254016Y-92902213D01*
X32251428Y-92752632D01*
X32244018Y-92624977D01*
X32238362Y-92572417D01*
X32175625Y-92202827D01*
X32085095Y-91843370D01*
X31964049Y-91485429D01*
X31809761Y-91120388D01*
X31720124Y-90934163D01*
X31606717Y-90717441D01*
X31489384Y-90512242D01*
X31373050Y-90326592D01*
X31262639Y-90168514D01*
X31205277Y-90095082D01*
X31082420Y-89962805D01*
X30940435Y-89843350D01*
X30776174Y-89735329D01*
X30586488Y-89637352D01*
X30368229Y-89548031D01*
X30118248Y-89465976D01*
X29833397Y-89389798D01*
X29510527Y-89318108D01*
X29389917Y-89294198D01*
X29261071Y-89270291D01*
X29129845Y-89248015D01*
X28993912Y-89227217D01*
X28850946Y-89207742D01*
X28698619Y-89189436D01*
X28534606Y-89172144D01*
X28356579Y-89155713D01*
X28162213Y-89139987D01*
X27949181Y-89124813D01*
X27715155Y-89110036D01*
X27457811Y-89095501D01*
X27174820Y-89081056D01*
X26863857Y-89066544D01*
X26522596Y-89051813D01*
X26148709Y-89036707D01*
X25739869Y-89021073D01*
X25293752Y-89004756D01*
X24808029Y-88987601D01*
X24722667Y-88984636D01*
X24370230Y-88972109D01*
X24056202Y-88960223D01*
X23776666Y-88948740D01*
X23527707Y-88937423D01*
X23305407Y-88926036D01*
X23105851Y-88914342D01*
X22925123Y-88902103D01*
X22759307Y-88889082D01*
X22604486Y-88875043D01*
X22456746Y-88859748D01*
X22312168Y-88842960D01*
X22246167Y-88834737D01*
X21990729Y-88796549D01*
X21765866Y-88751064D01*
X21573809Y-88699008D01*
X21416792Y-88641107D01*
X21297049Y-88578085D01*
X21216812Y-88510669D01*
X21205713Y-88496737D01*
X21175264Y-88429418D01*
X21152395Y-88322159D01*
X21136982Y-88176645D01*
X21128899Y-87994562D01*
X21128022Y-87777595D01*
X21134227Y-87527431D01*
X21147389Y-87245756D01*
X21167383Y-86934254D01*
X21194085Y-86594611D01*
X21227371Y-86228515D01*
X21267115Y-85837649D01*
X21313194Y-85423700D01*
X21365482Y-84988354D01*
X21423855Y-84533296D01*
X21488189Y-84060213D01*
X21558359Y-83570789D01*
X21581005Y-83417833D01*
X21734458Y-82433173D01*
X21895658Y-81486570D01*
X21920811Y-81351483D01*
X28176801Y-81351483D01*
X28179568Y-81708380D01*
X28187511Y-82041645D01*
X28200448Y-82349154D01*
X28218196Y-82628777D01*
X28240573Y-82878389D01*
X28267397Y-83095862D01*
X28298487Y-83279069D01*
X28333659Y-83425882D01*
X28372733Y-83534176D01*
X28403227Y-83587167D01*
X28421322Y-83609199D01*
X28442025Y-83623980D01*
X28473364Y-83632848D01*
X28523368Y-83637144D01*
X28600066Y-83638206D01*
X28704637Y-83637442D01*
X28818037Y-83633560D01*
X28953675Y-83623834D01*
X29112889Y-83608042D01*
X29297019Y-83585958D01*
X29507405Y-83557358D01*
X29745386Y-83522019D01*
X30012300Y-83479714D01*
X30309488Y-83430220D01*
X30638290Y-83373313D01*
X31000043Y-83308769D01*
X31396088Y-83236362D01*
X31827764Y-83155869D01*
X32296411Y-83067065D01*
X32803368Y-82969726D01*
X33349974Y-82863627D01*
X33506833Y-82832999D01*
X34470510Y-82642268D01*
X35470954Y-82439711D01*
X36504522Y-82226110D01*
X37567569Y-82002248D01*
X38656451Y-81768908D01*
X39767524Y-81526872D01*
X40897143Y-81276922D01*
X42041665Y-81019842D01*
X43197445Y-80756413D01*
X43497500Y-80687403D01*
X43921809Y-80589810D01*
X44307353Y-80501533D01*
X44656546Y-80422065D01*
X44971801Y-80350900D01*
X45255530Y-80287532D01*
X45510148Y-80231456D01*
X45738068Y-80182165D01*
X45941704Y-80139153D01*
X46123467Y-80101915D01*
X46285773Y-80069943D01*
X46431033Y-80042733D01*
X46561663Y-80019777D01*
X46680074Y-80000571D01*
X46788681Y-79984608D01*
X46889896Y-79971381D01*
X46941133Y-79965335D01*
X47040249Y-79956181D01*
X47131182Y-79951529D01*
X47200811Y-79951878D01*
X47226024Y-79954521D01*
X47298482Y-79982696D01*
X47395322Y-80044304D01*
X47516718Y-80139485D01*
X47662846Y-80268381D01*
X47833878Y-80431131D01*
X47910979Y-80507417D01*
X48111529Y-80710774D01*
X48301712Y-80910270D01*
X48484680Y-81109831D01*
X48663589Y-81313380D01*
X48841593Y-81524843D01*
X49021846Y-81748145D01*
X49207502Y-81987210D01*
X49401716Y-82245963D01*
X49607641Y-82528329D01*
X49828432Y-82838234D01*
X50067243Y-83179601D01*
X50122353Y-83259083D01*
X50286603Y-83495155D01*
X50428518Y-83696625D01*
X50548782Y-83864422D01*
X50648077Y-83999476D01*
X50727083Y-84102714D01*
X50786484Y-84175067D01*
X50824299Y-84215055D01*
X50887876Y-84254394D01*
X50989538Y-84292147D01*
X51125036Y-84326933D01*
X51233917Y-84348117D01*
X51354469Y-84365470D01*
X51513077Y-84382555D01*
X51705463Y-84399143D01*
X51927350Y-84415004D01*
X52174460Y-84429910D01*
X52442516Y-84443630D01*
X52727240Y-84455936D01*
X53024355Y-84466599D01*
X53329583Y-84475388D01*
X53638646Y-84482075D01*
X53773917Y-84484280D01*
X53921741Y-84485840D01*
X54107402Y-84486815D01*
X54326403Y-84487235D01*
X54574253Y-84487132D01*
X54846457Y-84486536D01*
X55138522Y-84485478D01*
X55445954Y-84483989D01*
X55764259Y-84482100D01*
X56088944Y-84479842D01*
X56415516Y-84477246D01*
X56739480Y-84474342D01*
X57056343Y-84471162D01*
X57361611Y-84467737D01*
X57650791Y-84464097D01*
X57919389Y-84460273D01*
X58162912Y-84456297D01*
X58345917Y-84452839D01*
X58743658Y-84445966D01*
X59119767Y-84442197D01*
X59487752Y-84441549D01*
X59861121Y-84444040D01*
X60253383Y-84449687D01*
X60557833Y-84455779D01*
X60809770Y-84460749D01*
X61087872Y-84465195D01*
X61388377Y-84469114D01*
X61707522Y-84472505D01*
X62041547Y-84475367D01*
X62386689Y-84477697D01*
X62739185Y-84479495D01*
X63095273Y-84480760D01*
X63451192Y-84481489D01*
X63803179Y-84481681D01*
X64147473Y-84481335D01*
X64480310Y-84480449D01*
X64797929Y-84479023D01*
X65096568Y-84477053D01*
X65372465Y-84474539D01*
X65621857Y-84471480D01*
X65840983Y-84467874D01*
X66026080Y-84463719D01*
X66173386Y-84459014D01*
X66198750Y-84457974D01*
X66548808Y-84441333D01*
X66858182Y-84423159D01*
X67128504Y-84403239D01*
X67361402Y-84381358D01*
X67558506Y-84357302D01*
X67721446Y-84330857D01*
X67851852Y-84301809D01*
X67951353Y-84269944D01*
X68021580Y-84235048D01*
X68047700Y-84215055D01*
X68089726Y-84170203D01*
X68150732Y-84095316D01*
X68231401Y-83989466D01*
X68332413Y-83851724D01*
X68454453Y-83681161D01*
X68598200Y-83476847D01*
X68749647Y-83259083D01*
X68962202Y-82953629D01*
X69154587Y-82680528D01*
X69329302Y-82436383D01*
X69488849Y-82217799D01*
X69635729Y-82021377D01*
X69772442Y-81843720D01*
X69901491Y-81681433D01*
X69996424Y-81565750D01*
X70177286Y-81352259D01*
X70359412Y-81144474D01*
X70540135Y-80945011D01*
X70716787Y-80756483D01*
X70886701Y-80581506D01*
X71047211Y-80422692D01*
X71195647Y-80282658D01*
X71329344Y-80164016D01*
X71445634Y-80069382D01*
X71541850Y-80001370D01*
X71615324Y-79962593D01*
X71639192Y-79955572D01*
X71699721Y-79949686D01*
X71782914Y-79950830D01*
X71890119Y-79959267D01*
X72022683Y-79975260D01*
X72181954Y-79999073D01*
X72369278Y-80030968D01*
X72586005Y-80071209D01*
X72833481Y-80120059D01*
X73113053Y-80177781D01*
X73426070Y-80244638D01*
X73773878Y-80320892D01*
X74157826Y-80406809D01*
X74579260Y-80502649D01*
X75039528Y-80608677D01*
X75332167Y-80676658D01*
X76533618Y-80953541D01*
X77765024Y-81231525D01*
X79016216Y-81508423D01*
X80277029Y-81782048D01*
X81537295Y-82050213D01*
X82786848Y-82310728D01*
X84015521Y-82561408D01*
X85068833Y-82771625D01*
X85261775Y-82809723D01*
X85442887Y-82845512D01*
X85607732Y-82878115D01*
X85751876Y-82906652D01*
X85870884Y-82930245D01*
X85960321Y-82948017D01*
X86015751Y-82959088D01*
X86031917Y-82962374D01*
X86073259Y-82970678D01*
X86150155Y-82985648D01*
X86256553Y-83006136D01*
X86386404Y-83030993D01*
X86533654Y-83059067D01*
X86692254Y-83089211D01*
X86856150Y-83120273D01*
X87019294Y-83151105D01*
X87175632Y-83180556D01*
X87319114Y-83207478D01*
X87443688Y-83230719D01*
X87471250Y-83235835D01*
X87656067Y-83269567D01*
X87863497Y-83306514D01*
X88086751Y-83345536D01*
X88319045Y-83385497D01*
X88553591Y-83425257D01*
X88783604Y-83463679D01*
X89002295Y-83499624D01*
X89202880Y-83531955D01*
X89378571Y-83559533D01*
X89522583Y-83581220D01*
X89577333Y-83589046D01*
X89718707Y-83606303D01*
X89872332Y-83621002D01*
X90021212Y-83631748D01*
X90148353Y-83637148D01*
X90167363Y-83637442D01*
X90276758Y-83638209D01*
X90351853Y-83637010D01*
X90400677Y-83632508D01*
X90431257Y-83623362D01*
X90451623Y-83608233D01*
X90468773Y-83587167D01*
X90508658Y-83510785D01*
X90544957Y-83395646D01*
X90577600Y-83245177D01*
X90606522Y-83062807D01*
X90631655Y-82851964D01*
X90652933Y-82616078D01*
X90670289Y-82358576D01*
X90683654Y-82082887D01*
X90692964Y-81792439D01*
X90698150Y-81490662D01*
X90699147Y-81180983D01*
X90695885Y-80866831D01*
X90688300Y-80551635D01*
X90676324Y-80238824D01*
X90659889Y-79931825D01*
X90638930Y-79634067D01*
X90613378Y-79348980D01*
X90583168Y-79079990D01*
X90560120Y-78909333D01*
X90511857Y-78614691D01*
X90449205Y-78290766D01*
X90374557Y-77947138D01*
X90290307Y-77593387D01*
X90198850Y-77239096D01*
X90102579Y-76893843D01*
X90003888Y-76567211D01*
X89905171Y-76268779D01*
X89888426Y-76221167D01*
X89774967Y-75915405D01*
X89666360Y-75650995D01*
X89562250Y-75427277D01*
X89462278Y-75243591D01*
X89366087Y-75099278D01*
X89273321Y-74993678D01*
X89188880Y-74929098D01*
X89080841Y-74876104D01*
X88932091Y-74817869D01*
X88743891Y-74754659D01*
X88517503Y-74686742D01*
X88254188Y-74614384D01*
X87955209Y-74537853D01*
X87621827Y-74457417D01*
X87255304Y-74373341D01*
X86856902Y-74285893D01*
X86427883Y-74195341D01*
X85969507Y-74101951D01*
X85483038Y-74005991D01*
X84969736Y-73907727D01*
X84430864Y-73807427D01*
X83867683Y-73705358D01*
X83281456Y-73601786D01*
X82673443Y-73496980D01*
X82044907Y-73391207D01*
X81502250Y-73301845D01*
X80472763Y-73136663D01*
X79440204Y-72976288D01*
X78407253Y-72821038D01*
X77376587Y-72671234D01*
X76350887Y-72527192D01*
X75332831Y-72389233D01*
X74325099Y-72257675D01*
X73330370Y-72132837D01*
X72351323Y-72015038D01*
X71390637Y-71904597D01*
X70450991Y-71801832D01*
X69535065Y-71707063D01*
X68645537Y-71620608D01*
X67785088Y-71542786D01*
X66956395Y-71473917D01*
X66162138Y-71414318D01*
X65404997Y-71364309D01*
X65045167Y-71343223D01*
X64543612Y-71317818D01*
X64024672Y-71296866D01*
X63485144Y-71280320D01*
X62921827Y-71268134D01*
X62331519Y-71260262D01*
X61711017Y-71256657D01*
X61057119Y-71257274D01*
X60366624Y-71262066D01*
X59838167Y-71268167D01*
X59658364Y-71269882D01*
X59443966Y-71270784D01*
X59202702Y-71270902D01*
X58942302Y-71270269D01*
X58670494Y-71268914D01*
X58395008Y-71266869D01*
X58123574Y-71264163D01*
X57863921Y-71260829D01*
X57816750Y-71260129D01*
X57262802Y-71254480D01*
X56706752Y-71254444D01*
X56145930Y-71260190D01*
X55577662Y-71271884D01*
X54999276Y-71289695D01*
X54408101Y-71313790D01*
X53801463Y-71344339D01*
X53176691Y-71381508D01*
X52531113Y-71425466D01*
X51862056Y-71476380D01*
X51166849Y-71534419D01*
X50442818Y-71599750D01*
X49687292Y-71672541D01*
X48897598Y-71752961D01*
X48071065Y-71841176D01*
X47413333Y-71913906D01*
X46710161Y-71994261D01*
X45998569Y-72078539D01*
X45280342Y-72166442D01*
X44557263Y-72257678D01*
X43831117Y-72351951D01*
X43103688Y-72448966D01*
X42376759Y-72548429D01*
X41652115Y-72650045D01*
X40931539Y-72753519D01*
X40216816Y-72858556D01*
X39509729Y-72964862D01*
X38812064Y-73072142D01*
X38125602Y-73180100D01*
X37452130Y-73288443D01*
X36793429Y-73396876D01*
X36151286Y-73505103D01*
X35527483Y-73612830D01*
X34923805Y-73719763D01*
X34342035Y-73825605D01*
X33783957Y-73930064D01*
X33251357Y-74032843D01*
X32746017Y-74133649D01*
X32269721Y-74232186D01*
X31824254Y-74328159D01*
X31411400Y-74421275D01*
X31032942Y-74511237D01*
X30690664Y-74597752D01*
X30386351Y-74680524D01*
X30121787Y-74759259D01*
X30046083Y-74783465D01*
X29891667Y-74836481D01*
X29771326Y-74885189D01*
X29677739Y-74934137D01*
X29603583Y-74987874D01*
X29541538Y-75050946D01*
X29484281Y-75127900D01*
X29479175Y-75135568D01*
X29367947Y-75322237D01*
X29254577Y-75548005D01*
X29140162Y-75809762D01*
X29025799Y-76104398D01*
X28912586Y-76428802D01*
X28801620Y-76779866D01*
X28693997Y-77154478D01*
X28590817Y-77549528D01*
X28513593Y-77872167D01*
X28445227Y-78181007D01*
X28386502Y-78473579D01*
X28336712Y-78756458D01*
X28295146Y-79036218D01*
X28261098Y-79319433D01*
X28233857Y-79612678D01*
X28212716Y-79922525D01*
X28196966Y-80255551D01*
X28185899Y-80618328D01*
X28179392Y-80973083D01*
X28176801Y-81351483D01*
X21920811Y-81351483D01*
X22065523Y-80574300D01*
X22244968Y-79692641D01*
X22434912Y-78837871D01*
X22636272Y-78006268D01*
X22849964Y-77194108D01*
X23076906Y-76397670D01*
X23318015Y-75613230D01*
X23574209Y-74837067D01*
X23846403Y-74065458D01*
X23963370Y-73748131D01*
X24215143Y-73086399D01*
X24470442Y-72440692D01*
X24728444Y-71812578D01*
X24988323Y-71203629D01*
X25249256Y-70615414D01*
X25510417Y-70049503D01*
X25770982Y-69507465D01*
X26030127Y-68990872D01*
X26287026Y-68501291D01*
X26540856Y-68040295D01*
X26790792Y-67609452D01*
X27036008Y-67210332D01*
X27275682Y-66844506D01*
X27508987Y-66513543D01*
X27735100Y-66219013D01*
X27953196Y-65962486D01*
X28162450Y-65745531D01*
X28170814Y-65737517D01*
X28309506Y-65614327D01*
X28454293Y-65505336D01*
X28608506Y-65409642D01*
X28775477Y-65326344D01*
X28958535Y-65254541D01*
X29161012Y-65193330D01*
X29386238Y-65141810D01*
X29637545Y-65099080D01*
X29918262Y-65064239D01*
X30231722Y-65036385D01*
X30581253Y-65014617D01*
X30892750Y-65000839D01*
X31337256Y-64989732D01*
X31816431Y-64988302D01*
X32323774Y-64996373D01*
X32852785Y-65013768D01*
X33396961Y-65040307D01*
X33949803Y-65075815D01*
X34131250Y-65089333D01*
X34318730Y-65104097D01*
X34505793Y-65119519D01*
X34694350Y-65135830D01*
X34886309Y-65153260D01*
X35083581Y-65172039D01*
X35288075Y-65192399D01*
X35501700Y-65214568D01*
X35726366Y-65238778D01*
X35963982Y-65265260D01*
X36216459Y-65294242D01*
X36485705Y-65325957D01*
X36773631Y-65360634D01*
X37082145Y-65398503D01*
X37413158Y-65439796D01*
X37768578Y-65484742D01*
X38150316Y-65533572D01*
X38560281Y-65586516D01*
X39000382Y-65643805D01*
X39472530Y-65705669D01*
X39978633Y-65772338D01*
X40520602Y-65844044D01*
X41100345Y-65921015D01*
X41719772Y-66003484D01*
X41835917Y-66018968D01*
X42554288Y-66114689D01*
X43231786Y-66204824D01*
X43869483Y-66289509D01*
X44468448Y-66368881D01*
X45029755Y-66443078D01*
X45554474Y-66512238D01*
X46043677Y-66576498D01*
X46498434Y-66635995D01*
X46919818Y-66690868D01*
X47308899Y-66741252D01*
X47666749Y-66787286D01*
X47994439Y-66829108D01*
X48293041Y-66866854D01*
X48563626Y-66900663D01*
X48807265Y-66930671D01*
X49025029Y-66957016D01*
X49217991Y-66979835D01*
X49387220Y-66999266D01*
X49533789Y-67015447D01*
X49658769Y-67028515D01*
X49763232Y-67038606D01*
X49826333Y-67044106D01*
X50129180Y-67066761D01*
X50436704Y-67085574D01*
X50743129Y-67100417D01*
X51042684Y-67111164D01*
X51329593Y-67117686D01*
X51598083Y-67119856D01*
X51842381Y-67117547D01*
X52056712Y-67110630D01*
X52235303Y-67098979D01*
X52249917Y-67097648D01*
X52461194Y-67069754D01*
X52654557Y-67028235D01*
X52824749Y-66974915D01*
X52966515Y-66911621D01*
X53074598Y-66840177D01*
X53120010Y-66795454D01*
X53203977Y-66668800D01*
X53273623Y-66507235D01*
X53318400Y-66352058D01*
X53336221Y-66271624D01*
X53352351Y-66187732D01*
X53366870Y-66098042D01*
X53379858Y-66000217D01*
X53391396Y-65891918D01*
X53401564Y-65770806D01*
X53410444Y-65634543D01*
X53418116Y-65480790D01*
X53424659Y-65307209D01*
X53430156Y-65111462D01*
X53434686Y-64891210D01*
X53438330Y-64644114D01*
X53441168Y-64367836D01*
X53443282Y-64060037D01*
X53444751Y-63718379D01*
X53445656Y-63340523D01*
X53446078Y-62924132D01*
X53446132Y-62644139D01*
X53445926Y-62182846D01*
X53445309Y-61755217D01*
X53444189Y-61356613D01*
X53442478Y-60982393D01*
X53440087Y-60627916D01*
X53436926Y-60288541D01*
X53432906Y-59959627D01*
X53427937Y-59636534D01*
X53421929Y-59314622D01*
X53414795Y-58989249D01*
X53406443Y-58655774D01*
X53396785Y-58309558D01*
X53385730Y-57945958D01*
X53373191Y-57560335D01*
X53359077Y-57148048D01*
X53343299Y-56704456D01*
X53325768Y-56224918D01*
X53318868Y-56038750D01*
X53307693Y-55737204D01*
X53295202Y-55398305D01*
X53281573Y-55027006D01*
X53266987Y-54628261D01*
X53251622Y-54207023D01*
X53235659Y-53768245D01*
X53219278Y-53316882D01*
X53202657Y-52857886D01*
X53185978Y-52396211D01*
X53169419Y-51936811D01*
X53153160Y-51484638D01*
X53137381Y-51044647D01*
X53122262Y-50621792D01*
X53118048Y-50503667D01*
X53102171Y-50058279D01*
X53087212Y-49638720D01*
X53073079Y-49242995D01*
X53059681Y-48869107D01*
X53046925Y-48515058D01*
X53034721Y-48178854D01*
X53022975Y-47858496D01*
X53011597Y-47551989D01*
X53000496Y-47257336D01*
X52989578Y-46972541D01*
X52978753Y-46695607D01*
X52967928Y-46424538D01*
X52957013Y-46157336D01*
X52945915Y-45892006D01*
X52934543Y-45626551D01*
X52922804Y-45358975D01*
X52910608Y-45087281D01*
X52897863Y-44809472D01*
X52884476Y-44523553D01*
X52870357Y-44227525D01*
X52855412Y-43919394D01*
X52839552Y-43597163D01*
X52822684Y-43258834D01*
X52804715Y-42902412D01*
X52785556Y-42525900D01*
X52765113Y-42127301D01*
X52743296Y-41704619D01*
X52720012Y-41255858D01*
X52695170Y-40779020D01*
X52668678Y-40272110D01*
X52640444Y-39733131D01*
X52610377Y-39160087D01*
X52578385Y-38550980D01*
X52544376Y-37903815D01*
X52508259Y-37216594D01*
X52504072Y-37136917D01*
X52466842Y-36428319D01*
X52431776Y-35760419D01*
X52398810Y-35131636D01*
X52367877Y-34540395D01*
X52338913Y-33985116D01*
X52311851Y-33464222D01*
X52286627Y-32976134D01*
X52263176Y-32519275D01*
X52241431Y-32092067D01*
X52221329Y-31692931D01*
X52202802Y-31320290D01*
X52185787Y-30972566D01*
X52170217Y-30648181D01*
X52156028Y-30345556D01*
X52143154Y-30063114D01*
X52131529Y-29799277D01*
X52121089Y-29552466D01*
X52111768Y-29321104D01*
X52103501Y-29103613D01*
X52096222Y-28898415D01*
X52089866Y-28703932D01*
X52084368Y-28518585D01*
X52079662Y-28340797D01*
X52075683Y-28168990D01*
X52072366Y-28001586D01*
X52069646Y-27837007D01*
X52067457Y-27673674D01*
X52065733Y-27510011D01*
X52064410Y-27344438D01*
X52063422Y-27175378D01*
X52062703Y-27001253D01*
X52062189Y-26820486D01*
X52061815Y-26631497D01*
X52061535Y-26447750D01*
X52061210Y-26141601D01*
X52061254Y-25874537D01*
X52061811Y-25643312D01*
X52063027Y-25444677D01*
X52065045Y-25275386D01*
X52068012Y-25132191D01*
X52072071Y-25011845D01*
X52077369Y-24911101D01*
X52084049Y-24826711D01*
X52092256Y-24755428D01*
X52102136Y-24694005D01*
X52113833Y-24639194D01*
X52127493Y-24587749D01*
X52143260Y-24536421D01*
X52147379Y-24523741D01*
X52205345Y-24409329D01*
X52302940Y-24294842D01*
X52437496Y-24181919D01*
X52606343Y-24072198D01*
X52806813Y-23967318D01*
X53036236Y-23868918D01*
X53291943Y-23778636D01*
X53428520Y-23737138D01*
X53851757Y-23626706D01*
X54315341Y-23527911D01*
X54818906Y-23440786D01*
X55362089Y-23365364D01*
X55944523Y-23301678D01*
X56565844Y-23249760D01*
X57225687Y-23209642D01*
X57923687Y-23181358D01*
X58659480Y-23164939D01*
X59432700Y-23160419D01*
X59857569Y-23162859D01*
X59857569Y-23162859D01*
G37*
X59857569Y-23162859D02*
X60153077Y-23165882D01*
X60412346Y-23169044D01*
X60641470Y-23172554D01*
X60846544Y-23176619D01*
X61033663Y-23181447D01*
X61208920Y-23187245D01*
X61378409Y-23194222D01*
X61548227Y-23202584D01*
X61724466Y-23212541D01*
X61913220Y-23224299D01*
X62120586Y-23238066D01*
X62177083Y-23241917D01*
X62716570Y-23284065D01*
X63227821Y-23334599D01*
X63709559Y-23393230D01*
X64160504Y-23459670D01*
X64579379Y-23533632D01*
X64964905Y-23614827D01*
X65315802Y-23702967D01*
X65630794Y-23797764D01*
X65908601Y-23898930D01*
X66147945Y-24006177D01*
X66347547Y-24119217D01*
X66473084Y-24209804D01*
X66538793Y-24266086D01*
X66595781Y-24322761D01*
X66644661Y-24383158D01*
X66686046Y-24450608D01*
X66720549Y-24528441D01*
X66748782Y-24619988D01*
X66771358Y-24728578D01*
X66788890Y-24857541D01*
X66801990Y-25010208D01*
X66811271Y-25189910D01*
X66817346Y-25399975D01*
X66820828Y-25643734D01*
X66822329Y-25924518D01*
X66822534Y-26109083D01*
X66822450Y-26297562D01*
X66822142Y-26480483D01*
X66821551Y-26659229D01*
X66820617Y-26835182D01*
X66819283Y-27009726D01*
X66817487Y-27184242D01*
X66815172Y-27360115D01*
X66812277Y-27538726D01*
X66808744Y-27721459D01*
X66804513Y-27909696D01*
X66799525Y-28104820D01*
X66793721Y-28308215D01*
X66787042Y-28521262D01*
X66779428Y-28745345D01*
X66770821Y-28981846D01*
X66761160Y-29232148D01*
X66750387Y-29497634D01*
X66738443Y-29779687D01*
X66725268Y-30079690D01*
X66710803Y-30399025D01*
X66694989Y-30739075D01*
X66677766Y-31101223D01*
X66659076Y-31486852D01*
X66638859Y-31897345D01*
X66617056Y-32334084D01*
X66593608Y-32798452D01*
X66568455Y-33291833D01*
X66541539Y-33815608D01*
X66512799Y-34371161D01*
X66482178Y-34959874D01*
X66449615Y-35583131D01*
X66415051Y-36242314D01*
X66378427Y-36938805D01*
X66339685Y-37673988D01*
X66298764Y-38449246D01*
X66273601Y-38925500D01*
X66240960Y-39543377D01*
X66210451Y-40121710D01*
X66181950Y-40663224D01*
X66155335Y-41170649D01*
X66130485Y-41646711D01*
X66107275Y-42094140D01*
X66085584Y-42515662D01*
X66065290Y-42914005D01*
X66046269Y-43291898D01*
X66028400Y-43652068D01*
X66011559Y-43997242D01*
X65995625Y-44330150D01*
X65980475Y-44653518D01*
X65965986Y-44970074D01*
X65952035Y-45282546D01*
X65938502Y-45593663D01*
X65925262Y-45906151D01*
X65912193Y-46222739D01*
X65899173Y-46546154D01*
X65886080Y-46879125D01*
X65872790Y-47224379D01*
X65859182Y-47584643D01*
X65845133Y-47962647D01*
X65830520Y-48361117D01*
X65815221Y-48782781D01*
X65799114Y-49230367D01*
X65782075Y-49706604D01*
X65763983Y-50214218D01*
X65753685Y-50503667D01*
X65738826Y-50920658D01*
X65723253Y-51356214D01*
X65707144Y-51805381D01*
X65690680Y-52263205D01*
X65674040Y-52724733D01*
X65657403Y-53185012D01*
X65640950Y-53639087D01*
X65624858Y-54082005D01*
X65609310Y-54508813D01*
X65594482Y-54914558D01*
X65580557Y-55294285D01*
X65567712Y-55643041D01*
X65556127Y-55955873D01*
X65553044Y-56038750D01*
X65534795Y-56533220D01*
X65518329Y-56989982D01*
X65503558Y-57413621D01*
X65490393Y-57808718D01*
X65478744Y-58179860D01*
X65468522Y-58531629D01*
X65459637Y-58868609D01*
X65452002Y-59195384D01*
X65445525Y-59516538D01*
X65440118Y-59836655D01*
X65435693Y-60160318D01*
X65432159Y-60492112D01*
X65429427Y-60836620D01*
X65427408Y-61198427D01*
X65426013Y-61582115D01*
X65425152Y-61992270D01*
X65424737Y-62433474D01*
X65424674Y-62632167D01*
X65424794Y-63072436D01*
X65425359Y-63472753D01*
X65426446Y-63835499D01*
X65428133Y-64163051D01*
X65430495Y-64457792D01*
X65433611Y-64722099D01*
X65437557Y-64958353D01*
X65442410Y-65168934D01*
X65448248Y-65356222D01*
X65455148Y-65522595D01*
X65463187Y-65670435D01*
X65472441Y-65802120D01*
X65482988Y-65920031D01*
X65494906Y-66026548D01*
X65508271Y-66124049D01*
X65523159Y-66214915D01*
X65539650Y-66301526D01*
X65544282Y-66323992D01*
X65581289Y-66459576D01*
X65633083Y-66593608D01*
X65693508Y-66712032D01*
X65749783Y-66793179D01*
X65841070Y-66873276D01*
X65969759Y-66944313D01*
X66131601Y-67004809D01*
X66322348Y-67053283D01*
X66537753Y-67088253D01*
X66622083Y-67097400D01*
X66790499Y-67109142D01*
X66994808Y-67116368D01*
X67228831Y-67119265D01*
X67486392Y-67118025D01*
X67761312Y-67112836D01*
X68047412Y-67103887D01*
X68338516Y-67091370D01*
X68628445Y-67075472D01*
X68911021Y-67056384D01*
X69180067Y-67034295D01*
X69405500Y-67012009D01*
X69523085Y-66998714D01*
X69681245Y-66979912D01*
X69878607Y-66955785D01*
X70113795Y-66926509D01*
X70385436Y-66892266D01*
X70692156Y-66853232D01*
X71032579Y-66809587D01*
X71405331Y-66761511D01*
X71809039Y-66709181D01*
X72242328Y-66652778D01*
X72703823Y-66592480D01*
X73192150Y-66528465D01*
X73705935Y-66460913D01*
X74243804Y-66390003D01*
X74804381Y-66315913D01*
X75386293Y-66238823D01*
X75988166Y-66158912D01*
X76608625Y-66076357D01*
X77246295Y-65991340D01*
X77290083Y-65985495D01*
X77927709Y-65900530D01*
X78525326Y-65821210D01*
X79084851Y-65747306D01*
X79608199Y-65678588D01*
X80097286Y-65614827D01*
X80554027Y-65555794D01*
X80980338Y-65501261D01*
X81378135Y-65450997D01*
X81749334Y-65404775D01*
X82095849Y-65362365D01*
X82419598Y-65323537D01*
X82722495Y-65288063D01*
X83006456Y-65255714D01*
X83273396Y-65226260D01*
X83525233Y-65199473D01*
X83763880Y-65175123D01*
X83991254Y-65152982D01*
X84209271Y-65132820D01*
X84419845Y-65114408D01*
X84624894Y-65097517D01*
X84826332Y-65081917D01*
X84878333Y-65078046D01*
X85351597Y-65046527D01*
X85821444Y-65021912D01*
X86284154Y-65004168D01*
X86736005Y-64993260D01*
X87173277Y-64989156D01*
X87592249Y-64991821D01*
X87989201Y-65001222D01*
X88360412Y-65017326D01*
X88702162Y-65040098D01*
X89010729Y-65069506D01*
X89282393Y-65105515D01*
X89361447Y-65118518D01*
X89679102Y-65186658D01*
X89964258Y-65274966D01*
X90214847Y-65382710D01*
X90384963Y-65479763D01*
X90558012Y-65608093D01*
X90742025Y-65775742D01*
X90936187Y-65981367D01*
X91139684Y-66223624D01*
X91351702Y-66501171D01*
X91571426Y-66812664D01*
X91798043Y-67156760D01*
X92030736Y-67532117D01*
X92268694Y-67937392D01*
X92511100Y-68371240D01*
X92757141Y-68832319D01*
X93006002Y-69319287D01*
X93256869Y-69830799D01*
X93508927Y-70365513D01*
X93761363Y-70922086D01*
X93961163Y-71377844D01*
X94050487Y-71587655D01*
X94151197Y-71829410D01*
X94260178Y-72095282D01*
X94374314Y-72377443D01*
X94490491Y-72668066D01*
X94605591Y-72959324D01*
X94716501Y-73243388D01*
X94820104Y-73512432D01*
X94913284Y-73758627D01*
X94974828Y-73924583D01*
X95241241Y-74671694D01*
X95490751Y-75414863D01*
X95724615Y-76158991D01*
X95944091Y-76908973D01*
X96150436Y-77669707D01*
X96344908Y-78446093D01*
X96528766Y-79243026D01*
X96703265Y-80065405D01*
X96869664Y-80918128D01*
X97029221Y-81806093D01*
X97089097Y-82158417D01*
X97173050Y-82670520D01*
X97251945Y-83172923D01*
X97325620Y-83663846D01*
X97393912Y-84141504D01*
X97456659Y-84604117D01*
X97513699Y-85049902D01*
X97564870Y-85477078D01*
X97610010Y-85883862D01*
X97648956Y-86268472D01*
X97681547Y-86629127D01*
X97707619Y-86964044D01*
X97727012Y-87271442D01*
X97739563Y-87549538D01*
X97745109Y-87796551D01*
X97743489Y-88010697D01*
X97734540Y-88190197D01*
X97718100Y-88333266D01*
X97694008Y-88438125D01*
X97666021Y-88497833D01*
X97613384Y-88548316D01*
X97529100Y-88602612D01*
X97422921Y-88655682D01*
X97304597Y-88702489D01*
X97218062Y-88729292D01*
X97102511Y-88758200D01*
X96976504Y-88784759D01*
X96837373Y-88809192D01*
X96682450Y-88831721D01*
X96509067Y-88852571D01*
X96314556Y-88871963D01*
X96096250Y-88890121D01*
X95851481Y-88907268D01*
X95577580Y-88923626D01*
X95271881Y-88939418D01*
X94931714Y-88954868D01*
X94554413Y-88970198D01*
X94159917Y-88984827D01*
X93672729Y-89002370D01*
X93225532Y-89018866D01*
X92816000Y-89034475D01*
X92441806Y-89049357D01*
X92100626Y-89063672D01*
X91790134Y-89077582D01*
X91508004Y-89091245D01*
X91251909Y-89104822D01*
X91019525Y-89118473D01*
X90808526Y-89132359D01*
X90616586Y-89146639D01*
X90441379Y-89161474D01*
X90280580Y-89177025D01*
X90131863Y-89193450D01*
X89992903Y-89210911D01*
X89861372Y-89229568D01*
X89734947Y-89249581D01*
X89611301Y-89271110D01*
X89488108Y-89294316D01*
X89393260Y-89313191D01*
X89079526Y-89381788D01*
X88803914Y-89453056D01*
X88562225Y-89528698D01*
X88350260Y-89610418D01*
X88163819Y-89699919D01*
X87998703Y-89798905D01*
X87850711Y-89909079D01*
X87785982Y-89965113D01*
X87685391Y-90070573D01*
X87575835Y-90210960D01*
X87460575Y-90380671D01*
X87342871Y-90574102D01*
X87225985Y-90785652D01*
X87113176Y-91009717D01*
X87007706Y-91240695D01*
X86921470Y-91450583D01*
X86797427Y-91811150D01*
X86704449Y-92171202D01*
X86642957Y-92526345D01*
X86613369Y-92872186D01*
X86616106Y-93204334D01*
X86651588Y-93518394D01*
X86702042Y-93747167D01*
X86715323Y-93793374D01*
X86732614Y-93849117D01*
X86754582Y-93916194D01*
X86781895Y-93996403D01*
X86815221Y-94091542D01*
X86855229Y-94203409D01*
X86902586Y-94333802D01*
X86957962Y-94484519D01*
X87022022Y-94657359D01*
X87095437Y-94854119D01*
X87178873Y-95076598D01*
X87273000Y-95326593D01*
X87378484Y-95605903D01*
X87495995Y-95916326D01*
X87626200Y-96259659D01*
X87769767Y-96637702D01*
X87927364Y-97052251D01*
X88042950Y-97356083D01*
X88545843Y-98679611D01*
X89033546Y-99967032D01*
X89506017Y-101218229D01*
X89963214Y-102433087D01*
X90405095Y-103611488D01*
X90831619Y-104753316D01*
X91242744Y-105858455D01*
X91638428Y-106926787D01*
X92018629Y-107958196D01*
X92383306Y-108952566D01*
X92732416Y-109909779D01*
X93065919Y-110829720D01*
X93383772Y-111712272D01*
X93685933Y-112557318D01*
X93972361Y-113364741D01*
X94243014Y-114134425D01*
X94497850Y-114866254D01*
X94736828Y-115560110D01*
X94959905Y-116215877D01*
X95167040Y-116833439D01*
X95358192Y-117412678D01*
X95533318Y-117953479D01*
X95692376Y-118455725D01*
X95835326Y-118919298D01*
X95962124Y-119344083D01*
X96072730Y-119729963D01*
X96127579Y-119929011D01*
X96201073Y-120208952D01*
X96259405Y-120451201D01*
X96302820Y-120657497D01*
X96331562Y-120829578D01*
X96345878Y-120969182D01*
X96346012Y-121078048D01*
X96332211Y-121157914D01*
X96307865Y-121206704D01*
X96252183Y-121253101D01*
X96156513Y-121303147D01*
X96023011Y-121356493D01*
X95853833Y-121412789D01*
X95651134Y-121471685D01*
X95417071Y-121532832D01*
X95153800Y-121595880D01*
X94863475Y-121660478D01*
X94548255Y-121726279D01*
X94210293Y-121792932D01*
X93851747Y-121860086D01*
X93474772Y-121927394D01*
X93081524Y-121994505D01*
X92674159Y-122061069D01*
X92254833Y-122126737D01*
X91825701Y-122191159D01*
X91388921Y-122253985D01*
X90946647Y-122314866D01*
X90501036Y-122373453D01*
X90054243Y-122429394D01*
X89608425Y-122482342D01*
X89165738Y-122531946D01*
X88728337Y-122577857D01*
X88298377Y-122619724D01*
X87878017Y-122657199D01*
X87469410Y-122689931D01*
X87074713Y-122717571D01*
X86939983Y-122725994D01*
X86822847Y-122731513D01*
X86679450Y-122735746D01*
X86515155Y-122738743D01*
X86335326Y-122740557D01*
X86145326Y-122741236D01*
X85950520Y-122740834D01*
X85756271Y-122739399D01*
X85567942Y-122736983D01*
X85390899Y-122733638D01*
X85230503Y-122729413D01*
X85092119Y-122724361D01*
X84981112Y-122718531D01*
X84902843Y-122711975D01*
X84867750Y-122706331D01*
X84783182Y-122668030D01*
X84707712Y-122597744D01*
X84638201Y-122491816D01*
X84582827Y-122374310D01*
X84544197Y-122280236D01*
X84497557Y-122163777D01*
X84442511Y-122023883D01*
X84378665Y-121859504D01*
X84305623Y-121669588D01*
X84222992Y-121453084D01*
X84130376Y-121208942D01*
X84027380Y-120936111D01*
X83913611Y-120633539D01*
X83788672Y-120300176D01*
X83652169Y-119934971D01*
X83503708Y-119536873D01*
X83342893Y-119104831D01*
X83169330Y-118637795D01*
X82982624Y-118134712D01*
X82782381Y-117594534D01*
X82568205Y-117016207D01*
X82448155Y-116691833D01*
X82014029Y-115519493D01*
X81593683Y-114386236D01*
X81186786Y-113291231D01*
X80793010Y-112233648D01*
X80412027Y-111212656D01*
X80043508Y-110227424D01*
X79687124Y-109277122D01*
X79342547Y-108360919D01*
X79009448Y-107477984D01*
X78687499Y-106627486D01*
X78376370Y-105808595D01*
X78075734Y-105020481D01*
X77785262Y-104262312D01*
X77504625Y-103533258D01*
X77233495Y-102832488D01*
X76971542Y-102159171D01*
X76718438Y-101512477D01*
X76473856Y-100891576D01*
X76237465Y-100295635D01*
X76008938Y-99723826D01*
X75787945Y-99175316D01*
X75574159Y-98649276D01*
X75367251Y-98144875D01*
X75166891Y-97661281D01*
X74972752Y-97197665D01*
X74784505Y-96753196D01*
X74601821Y-96327042D01*
X74424372Y-95918374D01*
X74251828Y-95526360D01*
X74083862Y-95150171D01*
X73920144Y-94788974D01*
X73760347Y-94441940D01*
X73604141Y-94108238D01*
X73451199Y-93787037D01*
X73301190Y-93477507D01*
X73153787Y-93178816D01*
X73119247Y-93109620D01*
X72942612Y-92759640D01*
X72780950Y-92446387D01*
X72632685Y-92167626D01*
X72496242Y-91921118D01*
X72370047Y-91704627D01*
X72252525Y-91515916D01*
X72142100Y-91352748D01*
X72037198Y-91212884D01*
X71936245Y-91094089D01*
X71837664Y-90994124D01*
X71739883Y-90910753D01*
X71641324Y-90841738D01*
X71540415Y-90784843D01*
X71455300Y-90745867D01*
X71255378Y-90671802D01*
X71022130Y-90602350D01*
X70754684Y-90537393D01*
X70452168Y-90476811D01*
X70113712Y-90420484D01*
X69738443Y-90368294D01*
X69325491Y-90320121D01*
X68873984Y-90275846D01*
X68383050Y-90235349D01*
X67851819Y-90198512D01*
X67279419Y-90165214D01*
X67172417Y-90159611D01*
X66989419Y-90150417D01*
X66810396Y-90141954D01*
X66632591Y-90134165D01*
X66453246Y-90126993D01*
X66269603Y-90120384D01*
X66078905Y-90114279D01*
X65878395Y-90108624D01*
X65665316Y-90103360D01*
X65436909Y-90098433D01*
X65190417Y-90093786D01*
X64923083Y-90089361D01*
X64632150Y-90085104D01*
X64314860Y-90080957D01*
X63968455Y-90076865D01*
X63590179Y-90072770D01*
X63177273Y-90068617D01*
X62726981Y-90064349D01*
X62341125Y-90060842D01*
X61804228Y-90056261D01*
X61302814Y-90052486D01*
X60830042Y-90049516D01*
X60379067Y-90047352D01*
X59943049Y-90045994D01*
X59515144Y-90045442D01*
X59088510Y-90045695D01*
X58656305Y-90046754D01*
X58211686Y-90048618D01*
X57747810Y-90051289D01*
X57257837Y-90054764D01*
X56734921Y-90059046D01*
X56530875Y-90060842D01*
X56049956Y-90065233D01*
X55608580Y-90069467D01*
X55203956Y-90073601D01*
X54833297Y-90077691D01*
X54493810Y-90081796D01*
X54182707Y-90085971D01*
X53897198Y-90090275D01*
X53634493Y-90094764D01*
X53391802Y-90099496D01*
X53166335Y-90104528D01*
X52955302Y-90109916D01*
X52755914Y-90115718D01*
X52565381Y-90121991D01*
X52380912Y-90128792D01*
X52199718Y-90136178D01*
X52019010Y-90144207D01*
X51835996Y-90152935D01*
X51699583Y-90159769D01*
X51098799Y-90193590D01*
X50539892Y-90231675D01*
X50022618Y-90274059D01*
X49546730Y-90320777D01*
X49111985Y-90371866D01*
X48718139Y-90427360D01*
X48364945Y-90487295D01*
X48052160Y-90551706D01*
X47779538Y-90620629D01*
X47546836Y-90694099D01*
X47353808Y-90772152D01*
X47303922Y-90796304D01*
X47210611Y-90849742D01*
X47118161Y-90916139D01*
X47025145Y-90997635D01*
X46930140Y-91096370D01*
X46831719Y-91214484D01*
X46728459Y-91354118D01*
X46618933Y-91517410D01*
X46501717Y-91706502D01*
X46375386Y-91923533D01*
X46238514Y-92170644D01*
X46089677Y-92449974D01*
X45927449Y-92763664D01*
X45750406Y-93113853D01*
X45719483Y-93175667D01*
X45568890Y-93480210D01*
X45414880Y-93797917D01*
X45257139Y-94129582D01*
X45095351Y-94476001D01*
X44929204Y-94837969D01*
X44758381Y-95216282D01*
X44582569Y-95611734D01*
X44401452Y-96025121D01*
X44214717Y-96457239D01*
X44022048Y-96908883D01*
X43823131Y-97380849D01*
X43617652Y-97873930D01*
X43405295Y-98388924D01*
X43185746Y-98926625D01*
X42958692Y-99487828D01*
X42723816Y-100073330D01*
X42480805Y-100683924D01*
X42229343Y-101320408D01*
X41969117Y-101983575D01*
X41699812Y-102674222D01*
X41421112Y-103393143D01*
X41132704Y-104141135D01*
X40834274Y-104918991D01*
X40525505Y-105727509D01*
X40206084Y-106567483D01*
X39875697Y-107439708D01*
X39534028Y-108344980D01*
X39180763Y-109284094D01*
X38815587Y-110257845D01*
X38438187Y-111267029D01*
X38048246Y-112312442D01*
X37645452Y-113394878D01*
X37229488Y-114515133D01*
X36800041Y-115674002D01*
X36501755Y-116480167D01*
X36279794Y-117080207D01*
X36071952Y-117641653D01*
X35877791Y-118165661D01*
X35696873Y-118653388D01*
X35528759Y-119105991D01*
X35373010Y-119524626D01*
X35229188Y-119910451D01*
X35096856Y-120264623D01*
X34975574Y-120588298D01*
X34864903Y-120882633D01*
X34764407Y-121148785D01*
X34673645Y-121387911D01*
X34592180Y-121601167D01*
X34519574Y-121789711D01*
X34455387Y-121954699D01*
X34399182Y-122097289D01*
X34350520Y-122218636D01*
X34308963Y-122319899D01*
X34274072Y-122402233D01*
X34245409Y-122466796D01*
X34222535Y-122514745D01*
X34205013Y-122547235D01*
X34198780Y-122557088D01*
X34151437Y-122618547D01*
X34101207Y-122661437D01*
X34038220Y-122690281D01*
X33952609Y-122709602D01*
X33834917Y-122723885D01*
X33771676Y-122727851D01*
X33672462Y-122731365D01*
X33543633Y-122734400D01*
X33391546Y-122736929D01*
X33222558Y-122738925D01*
X33043028Y-122740360D01*
X32859313Y-122741208D01*
X32677770Y-122741441D01*
X32504759Y-122741032D01*
X32346636Y-122739954D01*
X32209759Y-122738180D01*
X32100487Y-122735681D01*
X32025175Y-122732432D01*
X32014583Y-122731677D01*
X31964168Y-122727954D01*
X31881127Y-122722125D01*
X31775079Y-122714850D01*
X31655641Y-122706794D01*
X31591250Y-122702503D01*
X31194177Y-122673729D01*
X30778398Y-122639014D01*
X30346758Y-122598798D01*
X29902101Y-122553522D01*
X29447271Y-122503624D01*
X28985113Y-122449546D01*
X28518472Y-122391726D01*
X28050191Y-122330604D01*
X27583115Y-122266621D01*
X27120089Y-122200217D01*
X26663957Y-122131830D01*
X26217564Y-122061901D01*
X25783753Y-121990870D01*
X25365369Y-121919177D01*
X24965258Y-121847261D01*
X24586262Y-121775562D01*
X24231227Y-121704521D01*
X23902997Y-121634576D01*
X23604416Y-121566169D01*
X23338329Y-121499738D01*
X23107581Y-121435724D01*
X22915015Y-121374566D01*
X22847920Y-121350479D01*
X22724489Y-121301701D01*
X22636213Y-121258678D01*
X22577430Y-121215939D01*
X22542475Y-121168015D01*
X22525687Y-121109435D01*
X22521401Y-121035111D01*
X22529409Y-120910062D01*
X22553228Y-120746164D01*
X22592729Y-120543786D01*
X22647783Y-120303298D01*
X22718260Y-120025069D01*
X22804031Y-119709466D01*
X22904966Y-119356861D01*
X23020937Y-118967620D01*
X23151812Y-118542114D01*
X23297465Y-118080711D01*
X23457764Y-117583780D01*
X23632580Y-117051691D01*
X23821785Y-116484811D01*
X24025248Y-115883511D01*
X24242841Y-115248158D01*
X24474434Y-114579123D01*
X24719897Y-113876774D01*
X24979102Y-113141479D01*
X25251918Y-112373608D01*
X25538217Y-111573531D01*
X25837869Y-110741615D01*
X26150744Y-109878229D01*
X26476714Y-108983744D01*
X26815649Y-108058527D01*
X27167419Y-107102948D01*
X27531895Y-106117376D01*
X27908948Y-105102179D01*
X28298449Y-104057726D01*
X28700267Y-102984387D01*
X29114274Y-101882531D01*
X29540341Y-100752525D01*
X29978337Y-99594741D01*
X30428134Y-98409545D01*
X30776658Y-97493667D01*
X30946314Y-97048227D01*
X31101514Y-96640468D01*
X31242940Y-96268534D01*
X31371274Y-95930571D01*
X31487199Y-95624725D01*
X31591394Y-95349141D01*
X31684543Y-95101964D01*
X31767328Y-94881340D01*
X31840428Y-94685414D01*
X31904528Y-94512333D01*
X31960307Y-94360241D01*
X32008449Y-94227283D01*
X32049634Y-94111606D01*
X32084544Y-94011355D01*
X32113862Y-93924676D01*
X32138269Y-93849713D01*
X32158446Y-93784613D01*
X32175076Y-93727520D01*
X32188839Y-93676581D01*
X32200419Y-93629941D01*
X32206269Y-93604718D01*
X32222802Y-93505918D01*
X32236176Y-93375573D01*
X32246058Y-93224378D01*
X32252115Y-93063026D01*
X32254016Y-92902213D01*
X32251428Y-92752632D01*
X32244018Y-92624977D01*
X32238362Y-92572417D01*
X32175625Y-92202827D01*
X32085095Y-91843370D01*
X31964049Y-91485429D01*
X31809761Y-91120388D01*
X31720124Y-90934163D01*
X31606717Y-90717441D01*
X31489384Y-90512242D01*
X31373050Y-90326592D01*
X31262639Y-90168514D01*
X31205277Y-90095082D01*
X31082420Y-89962805D01*
X30940435Y-89843350D01*
X30776174Y-89735329D01*
X30586488Y-89637352D01*
X30368229Y-89548031D01*
X30118248Y-89465976D01*
X29833397Y-89389798D01*
X29510527Y-89318108D01*
X29389917Y-89294198D01*
X29261071Y-89270291D01*
X29129845Y-89248015D01*
X28993912Y-89227217D01*
X28850946Y-89207742D01*
X28698619Y-89189436D01*
X28534606Y-89172144D01*
X28356579Y-89155713D01*
X28162213Y-89139987D01*
X27949181Y-89124813D01*
X27715155Y-89110036D01*
X27457811Y-89095501D01*
X27174820Y-89081056D01*
X26863857Y-89066544D01*
X26522596Y-89051813D01*
X26148709Y-89036707D01*
X25739869Y-89021073D01*
X25293752Y-89004756D01*
X24808029Y-88987601D01*
X24722667Y-88984636D01*
X24370230Y-88972109D01*
X24056202Y-88960223D01*
X23776666Y-88948740D01*
X23527707Y-88937423D01*
X23305407Y-88926036D01*
X23105851Y-88914342D01*
X22925123Y-88902103D01*
X22759307Y-88889082D01*
X22604486Y-88875043D01*
X22456746Y-88859748D01*
X22312168Y-88842960D01*
X22246167Y-88834737D01*
X21990729Y-88796549D01*
X21765866Y-88751064D01*
X21573809Y-88699008D01*
X21416792Y-88641107D01*
X21297049Y-88578085D01*
X21216812Y-88510669D01*
X21205713Y-88496737D01*
X21175264Y-88429418D01*
X21152395Y-88322159D01*
X21136982Y-88176645D01*
X21128899Y-87994562D01*
X21128022Y-87777595D01*
X21134227Y-87527431D01*
X21147389Y-87245756D01*
X21167383Y-86934254D01*
X21194085Y-86594611D01*
X21227371Y-86228515D01*
X21267115Y-85837649D01*
X21313194Y-85423700D01*
X21365482Y-84988354D01*
X21423855Y-84533296D01*
X21488189Y-84060213D01*
X21558359Y-83570789D01*
X21581005Y-83417833D01*
X21734458Y-82433173D01*
X21895658Y-81486570D01*
X21920811Y-81351483D01*
X28176801Y-81351483D01*
X28179568Y-81708380D01*
X28187511Y-82041645D01*
X28200448Y-82349154D01*
X28218196Y-82628777D01*
X28240573Y-82878389D01*
X28267397Y-83095862D01*
X28298487Y-83279069D01*
X28333659Y-83425882D01*
X28372733Y-83534176D01*
X28403227Y-83587167D01*
X28421322Y-83609199D01*
X28442025Y-83623980D01*
X28473364Y-83632848D01*
X28523368Y-83637144D01*
X28600066Y-83638206D01*
X28704637Y-83637442D01*
X28818037Y-83633560D01*
X28953675Y-83623834D01*
X29112889Y-83608042D01*
X29297019Y-83585958D01*
X29507405Y-83557358D01*
X29745386Y-83522019D01*
X30012300Y-83479714D01*
X30309488Y-83430220D01*
X30638290Y-83373313D01*
X31000043Y-83308769D01*
X31396088Y-83236362D01*
X31827764Y-83155869D01*
X32296411Y-83067065D01*
X32803368Y-82969726D01*
X33349974Y-82863627D01*
X33506833Y-82832999D01*
X34470510Y-82642268D01*
X35470954Y-82439711D01*
X36504522Y-82226110D01*
X37567569Y-82002248D01*
X38656451Y-81768908D01*
X39767524Y-81526872D01*
X40897143Y-81276922D01*
X42041665Y-81019842D01*
X43197445Y-80756413D01*
X43497500Y-80687403D01*
X43921809Y-80589810D01*
X44307353Y-80501533D01*
X44656546Y-80422065D01*
X44971801Y-80350900D01*
X45255530Y-80287532D01*
X45510148Y-80231456D01*
X45738068Y-80182165D01*
X45941704Y-80139153D01*
X46123467Y-80101915D01*
X46285773Y-80069943D01*
X46431033Y-80042733D01*
X46561663Y-80019777D01*
X46680074Y-80000571D01*
X46788681Y-79984608D01*
X46889896Y-79971381D01*
X46941133Y-79965335D01*
X47040249Y-79956181D01*
X47131182Y-79951529D01*
X47200811Y-79951878D01*
X47226024Y-79954521D01*
X47298482Y-79982696D01*
X47395322Y-80044304D01*
X47516718Y-80139485D01*
X47662846Y-80268381D01*
X47833878Y-80431131D01*
X47910979Y-80507417D01*
X48111529Y-80710774D01*
X48301712Y-80910270D01*
X48484680Y-81109831D01*
X48663589Y-81313380D01*
X48841593Y-81524843D01*
X49021846Y-81748145D01*
X49207502Y-81987210D01*
X49401716Y-82245963D01*
X49607641Y-82528329D01*
X49828432Y-82838234D01*
X50067243Y-83179601D01*
X50122353Y-83259083D01*
X50286603Y-83495155D01*
X50428518Y-83696625D01*
X50548782Y-83864422D01*
X50648077Y-83999476D01*
X50727083Y-84102714D01*
X50786484Y-84175067D01*
X50824299Y-84215055D01*
X50887876Y-84254394D01*
X50989538Y-84292147D01*
X51125036Y-84326933D01*
X51233917Y-84348117D01*
X51354469Y-84365470D01*
X51513077Y-84382555D01*
X51705463Y-84399143D01*
X51927350Y-84415004D01*
X52174460Y-84429910D01*
X52442516Y-84443630D01*
X52727240Y-84455936D01*
X53024355Y-84466599D01*
X53329583Y-84475388D01*
X53638646Y-84482075D01*
X53773917Y-84484280D01*
X53921741Y-84485840D01*
X54107402Y-84486815D01*
X54326403Y-84487235D01*
X54574253Y-84487132D01*
X54846457Y-84486536D01*
X55138522Y-84485478D01*
X55445954Y-84483989D01*
X55764259Y-84482100D01*
X56088944Y-84479842D01*
X56415516Y-84477246D01*
X56739480Y-84474342D01*
X57056343Y-84471162D01*
X57361611Y-84467737D01*
X57650791Y-84464097D01*
X57919389Y-84460273D01*
X58162912Y-84456297D01*
X58345917Y-84452839D01*
X58743658Y-84445966D01*
X59119767Y-84442197D01*
X59487752Y-84441549D01*
X59861121Y-84444040D01*
X60253383Y-84449687D01*
X60557833Y-84455779D01*
X60809770Y-84460749D01*
X61087872Y-84465195D01*
X61388377Y-84469114D01*
X61707522Y-84472505D01*
X62041547Y-84475367D01*
X62386689Y-84477697D01*
X62739185Y-84479495D01*
X63095273Y-84480760D01*
X63451192Y-84481489D01*
X63803179Y-84481681D01*
X64147473Y-84481335D01*
X64480310Y-84480449D01*
X64797929Y-84479023D01*
X65096568Y-84477053D01*
X65372465Y-84474539D01*
X65621857Y-84471480D01*
X65840983Y-84467874D01*
X66026080Y-84463719D01*
X66173386Y-84459014D01*
X66198750Y-84457974D01*
X66548808Y-84441333D01*
X66858182Y-84423159D01*
X67128504Y-84403239D01*
X67361402Y-84381358D01*
X67558506Y-84357302D01*
X67721446Y-84330857D01*
X67851852Y-84301809D01*
X67951353Y-84269944D01*
X68021580Y-84235048D01*
X68047700Y-84215055D01*
X68089726Y-84170203D01*
X68150732Y-84095316D01*
X68231401Y-83989466D01*
X68332413Y-83851724D01*
X68454453Y-83681161D01*
X68598200Y-83476847D01*
X68749647Y-83259083D01*
X68962202Y-82953629D01*
X69154587Y-82680528D01*
X69329302Y-82436383D01*
X69488849Y-82217799D01*
X69635729Y-82021377D01*
X69772442Y-81843720D01*
X69901491Y-81681433D01*
X69996424Y-81565750D01*
X70177286Y-81352259D01*
X70359412Y-81144474D01*
X70540135Y-80945011D01*
X70716787Y-80756483D01*
X70886701Y-80581506D01*
X71047211Y-80422692D01*
X71195647Y-80282658D01*
X71329344Y-80164016D01*
X71445634Y-80069382D01*
X71541850Y-80001370D01*
X71615324Y-79962593D01*
X71639192Y-79955572D01*
X71699721Y-79949686D01*
X71782914Y-79950830D01*
X71890119Y-79959267D01*
X72022683Y-79975260D01*
X72181954Y-79999073D01*
X72369278Y-80030968D01*
X72586005Y-80071209D01*
X72833481Y-80120059D01*
X73113053Y-80177781D01*
X73426070Y-80244638D01*
X73773878Y-80320892D01*
X74157826Y-80406809D01*
X74579260Y-80502649D01*
X75039528Y-80608677D01*
X75332167Y-80676658D01*
X76533618Y-80953541D01*
X77765024Y-81231525D01*
X79016216Y-81508423D01*
X80277029Y-81782048D01*
X81537295Y-82050213D01*
X82786848Y-82310728D01*
X84015521Y-82561408D01*
X85068833Y-82771625D01*
X85261775Y-82809723D01*
X85442887Y-82845512D01*
X85607732Y-82878115D01*
X85751876Y-82906652D01*
X85870884Y-82930245D01*
X85960321Y-82948017D01*
X86015751Y-82959088D01*
X86031917Y-82962374D01*
X86073259Y-82970678D01*
X86150155Y-82985648D01*
X86256553Y-83006136D01*
X86386404Y-83030993D01*
X86533654Y-83059067D01*
X86692254Y-83089211D01*
X86856150Y-83120273D01*
X87019294Y-83151105D01*
X87175632Y-83180556D01*
X87319114Y-83207478D01*
X87443688Y-83230719D01*
X87471250Y-83235835D01*
X87656067Y-83269567D01*
X87863497Y-83306514D01*
X88086751Y-83345536D01*
X88319045Y-83385497D01*
X88553591Y-83425257D01*
X88783604Y-83463679D01*
X89002295Y-83499624D01*
X89202880Y-83531955D01*
X89378571Y-83559533D01*
X89522583Y-83581220D01*
X89577333Y-83589046D01*
X89718707Y-83606303D01*
X89872332Y-83621002D01*
X90021212Y-83631748D01*
X90148353Y-83637148D01*
X90167363Y-83637442D01*
X90276758Y-83638209D01*
X90351853Y-83637010D01*
X90400677Y-83632508D01*
X90431257Y-83623362D01*
X90451623Y-83608233D01*
X90468773Y-83587167D01*
X90508658Y-83510785D01*
X90544957Y-83395646D01*
X90577600Y-83245177D01*
X90606522Y-83062807D01*
X90631655Y-82851964D01*
X90652933Y-82616078D01*
X90670289Y-82358576D01*
X90683654Y-82082887D01*
X90692964Y-81792439D01*
X90698150Y-81490662D01*
X90699147Y-81180983D01*
X90695885Y-80866831D01*
X90688300Y-80551635D01*
X90676324Y-80238824D01*
X90659889Y-79931825D01*
X90638930Y-79634067D01*
X90613378Y-79348980D01*
X90583168Y-79079990D01*
X90560120Y-78909333D01*
X90511857Y-78614691D01*
X90449205Y-78290766D01*
X90374557Y-77947138D01*
X90290307Y-77593387D01*
X90198850Y-77239096D01*
X90102579Y-76893843D01*
X90003888Y-76567211D01*
X89905171Y-76268779D01*
X89888426Y-76221167D01*
X89774967Y-75915405D01*
X89666360Y-75650995D01*
X89562250Y-75427277D01*
X89462278Y-75243591D01*
X89366087Y-75099278D01*
X89273321Y-74993678D01*
X89188880Y-74929098D01*
X89080841Y-74876104D01*
X88932091Y-74817869D01*
X88743891Y-74754659D01*
X88517503Y-74686742D01*
X88254188Y-74614384D01*
X87955209Y-74537853D01*
X87621827Y-74457417D01*
X87255304Y-74373341D01*
X86856902Y-74285893D01*
X86427883Y-74195341D01*
X85969507Y-74101951D01*
X85483038Y-74005991D01*
X84969736Y-73907727D01*
X84430864Y-73807427D01*
X83867683Y-73705358D01*
X83281456Y-73601786D01*
X82673443Y-73496980D01*
X82044907Y-73391207D01*
X81502250Y-73301845D01*
X80472763Y-73136663D01*
X79440204Y-72976288D01*
X78407253Y-72821038D01*
X77376587Y-72671234D01*
X76350887Y-72527192D01*
X75332831Y-72389233D01*
X74325099Y-72257675D01*
X73330370Y-72132837D01*
X72351323Y-72015038D01*
X71390637Y-71904597D01*
X70450991Y-71801832D01*
X69535065Y-71707063D01*
X68645537Y-71620608D01*
X67785088Y-71542786D01*
X66956395Y-71473917D01*
X66162138Y-71414318D01*
X65404997Y-71364309D01*
X65045167Y-71343223D01*
X64543612Y-71317818D01*
X64024672Y-71296866D01*
X63485144Y-71280320D01*
X62921827Y-71268134D01*
X62331519Y-71260262D01*
X61711017Y-71256657D01*
X61057119Y-71257274D01*
X60366624Y-71262066D01*
X59838167Y-71268167D01*
X59658364Y-71269882D01*
X59443966Y-71270784D01*
X59202702Y-71270902D01*
X58942302Y-71270269D01*
X58670494Y-71268914D01*
X58395008Y-71266869D01*
X58123574Y-71264163D01*
X57863921Y-71260829D01*
X57816750Y-71260129D01*
X57262802Y-71254480D01*
X56706752Y-71254444D01*
X56145930Y-71260190D01*
X55577662Y-71271884D01*
X54999276Y-71289695D01*
X54408101Y-71313790D01*
X53801463Y-71344339D01*
X53176691Y-71381508D01*
X52531113Y-71425466D01*
X51862056Y-71476380D01*
X51166849Y-71534419D01*
X50442818Y-71599750D01*
X49687292Y-71672541D01*
X48897598Y-71752961D01*
X48071065Y-71841176D01*
X47413333Y-71913906D01*
X46710161Y-71994261D01*
X45998569Y-72078539D01*
X45280342Y-72166442D01*
X44557263Y-72257678D01*
X43831117Y-72351951D01*
X43103688Y-72448966D01*
X42376759Y-72548429D01*
X41652115Y-72650045D01*
X40931539Y-72753519D01*
X40216816Y-72858556D01*
X39509729Y-72964862D01*
X38812064Y-73072142D01*
X38125602Y-73180100D01*
X37452130Y-73288443D01*
X36793429Y-73396876D01*
X36151286Y-73505103D01*
X35527483Y-73612830D01*
X34923805Y-73719763D01*
X34342035Y-73825605D01*
X33783957Y-73930064D01*
X33251357Y-74032843D01*
X32746017Y-74133649D01*
X32269721Y-74232186D01*
X31824254Y-74328159D01*
X31411400Y-74421275D01*
X31032942Y-74511237D01*
X30690664Y-74597752D01*
X30386351Y-74680524D01*
X30121787Y-74759259D01*
X30046083Y-74783465D01*
X29891667Y-74836481D01*
X29771326Y-74885189D01*
X29677739Y-74934137D01*
X29603583Y-74987874D01*
X29541538Y-75050946D01*
X29484281Y-75127900D01*
X29479175Y-75135568D01*
X29367947Y-75322237D01*
X29254577Y-75548005D01*
X29140162Y-75809762D01*
X29025799Y-76104398D01*
X28912586Y-76428802D01*
X28801620Y-76779866D01*
X28693997Y-77154478D01*
X28590817Y-77549528D01*
X28513593Y-77872167D01*
X28445227Y-78181007D01*
X28386502Y-78473579D01*
X28336712Y-78756458D01*
X28295146Y-79036218D01*
X28261098Y-79319433D01*
X28233857Y-79612678D01*
X28212716Y-79922525D01*
X28196966Y-80255551D01*
X28185899Y-80618328D01*
X28179392Y-80973083D01*
X28176801Y-81351483D01*
X21920811Y-81351483D01*
X22065523Y-80574300D01*
X22244968Y-79692641D01*
X22434912Y-78837871D01*
X22636272Y-78006268D01*
X22849964Y-77194108D01*
X23076906Y-76397670D01*
X23318015Y-75613230D01*
X23574209Y-74837067D01*
X23846403Y-74065458D01*
X23963370Y-73748131D01*
X24215143Y-73086399D01*
X24470442Y-72440692D01*
X24728444Y-71812578D01*
X24988323Y-71203629D01*
X25249256Y-70615414D01*
X25510417Y-70049503D01*
X25770982Y-69507465D01*
X26030127Y-68990872D01*
X26287026Y-68501291D01*
X26540856Y-68040295D01*
X26790792Y-67609452D01*
X27036008Y-67210332D01*
X27275682Y-66844506D01*
X27508987Y-66513543D01*
X27735100Y-66219013D01*
X27953196Y-65962486D01*
X28162450Y-65745531D01*
X28170814Y-65737517D01*
X28309506Y-65614327D01*
X28454293Y-65505336D01*
X28608506Y-65409642D01*
X28775477Y-65326344D01*
X28958535Y-65254541D01*
X29161012Y-65193330D01*
X29386238Y-65141810D01*
X29637545Y-65099080D01*
X29918262Y-65064239D01*
X30231722Y-65036385D01*
X30581253Y-65014617D01*
X30892750Y-65000839D01*
X31337256Y-64989732D01*
X31816431Y-64988302D01*
X32323774Y-64996373D01*
X32852785Y-65013768D01*
X33396961Y-65040307D01*
X33949803Y-65075815D01*
X34131250Y-65089333D01*
X34318730Y-65104097D01*
X34505793Y-65119519D01*
X34694350Y-65135830D01*
X34886309Y-65153260D01*
X35083581Y-65172039D01*
X35288075Y-65192399D01*
X35501700Y-65214568D01*
X35726366Y-65238778D01*
X35963982Y-65265260D01*
X36216459Y-65294242D01*
X36485705Y-65325957D01*
X36773631Y-65360634D01*
X37082145Y-65398503D01*
X37413158Y-65439796D01*
X37768578Y-65484742D01*
X38150316Y-65533572D01*
X38560281Y-65586516D01*
X39000382Y-65643805D01*
X39472530Y-65705669D01*
X39978633Y-65772338D01*
X40520602Y-65844044D01*
X41100345Y-65921015D01*
X41719772Y-66003484D01*
X41835917Y-66018968D01*
X42554288Y-66114689D01*
X43231786Y-66204824D01*
X43869483Y-66289509D01*
X44468448Y-66368881D01*
X45029755Y-66443078D01*
X45554474Y-66512238D01*
X46043677Y-66576498D01*
X46498434Y-66635995D01*
X46919818Y-66690868D01*
X47308899Y-66741252D01*
X47666749Y-66787286D01*
X47994439Y-66829108D01*
X48293041Y-66866854D01*
X48563626Y-66900663D01*
X48807265Y-66930671D01*
X49025029Y-66957016D01*
X49217991Y-66979835D01*
X49387220Y-66999266D01*
X49533789Y-67015447D01*
X49658769Y-67028515D01*
X49763232Y-67038606D01*
X49826333Y-67044106D01*
X50129180Y-67066761D01*
X50436704Y-67085574D01*
X50743129Y-67100417D01*
X51042684Y-67111164D01*
X51329593Y-67117686D01*
X51598083Y-67119856D01*
X51842381Y-67117547D01*
X52056712Y-67110630D01*
X52235303Y-67098979D01*
X52249917Y-67097648D01*
X52461194Y-67069754D01*
X52654557Y-67028235D01*
X52824749Y-66974915D01*
X52966515Y-66911621D01*
X53074598Y-66840177D01*
X53120010Y-66795454D01*
X53203977Y-66668800D01*
X53273623Y-66507235D01*
X53318400Y-66352058D01*
X53336221Y-66271624D01*
X53352351Y-66187732D01*
X53366870Y-66098042D01*
X53379858Y-66000217D01*
X53391396Y-65891918D01*
X53401564Y-65770806D01*
X53410444Y-65634543D01*
X53418116Y-65480790D01*
X53424659Y-65307209D01*
X53430156Y-65111462D01*
X53434686Y-64891210D01*
X53438330Y-64644114D01*
X53441168Y-64367836D01*
X53443282Y-64060037D01*
X53444751Y-63718379D01*
X53445656Y-63340523D01*
X53446078Y-62924132D01*
X53446132Y-62644139D01*
X53445926Y-62182846D01*
X53445309Y-61755217D01*
X53444189Y-61356613D01*
X53442478Y-60982393D01*
X53440087Y-60627916D01*
X53436926Y-60288541D01*
X53432906Y-59959627D01*
X53427937Y-59636534D01*
X53421929Y-59314622D01*
X53414795Y-58989249D01*
X53406443Y-58655774D01*
X53396785Y-58309558D01*
X53385730Y-57945958D01*
X53373191Y-57560335D01*
X53359077Y-57148048D01*
X53343299Y-56704456D01*
X53325768Y-56224918D01*
X53318868Y-56038750D01*
X53307693Y-55737204D01*
X53295202Y-55398305D01*
X53281573Y-55027006D01*
X53266987Y-54628261D01*
X53251622Y-54207023D01*
X53235659Y-53768245D01*
X53219278Y-53316882D01*
X53202657Y-52857886D01*
X53185978Y-52396211D01*
X53169419Y-51936811D01*
X53153160Y-51484638D01*
X53137381Y-51044647D01*
X53122262Y-50621792D01*
X53118048Y-50503667D01*
X53102171Y-50058279D01*
X53087212Y-49638720D01*
X53073079Y-49242995D01*
X53059681Y-48869107D01*
X53046925Y-48515058D01*
X53034721Y-48178854D01*
X53022975Y-47858496D01*
X53011597Y-47551989D01*
X53000496Y-47257336D01*
X52989578Y-46972541D01*
X52978753Y-46695607D01*
X52967928Y-46424538D01*
X52957013Y-46157336D01*
X52945915Y-45892006D01*
X52934543Y-45626551D01*
X52922804Y-45358975D01*
X52910608Y-45087281D01*
X52897863Y-44809472D01*
X52884476Y-44523553D01*
X52870357Y-44227525D01*
X52855412Y-43919394D01*
X52839552Y-43597163D01*
X52822684Y-43258834D01*
X52804715Y-42902412D01*
X52785556Y-42525900D01*
X52765113Y-42127301D01*
X52743296Y-41704619D01*
X52720012Y-41255858D01*
X52695170Y-40779020D01*
X52668678Y-40272110D01*
X52640444Y-39733131D01*
X52610377Y-39160087D01*
X52578385Y-38550980D01*
X52544376Y-37903815D01*
X52508259Y-37216594D01*
X52504072Y-37136917D01*
X52466842Y-36428319D01*
X52431776Y-35760419D01*
X52398810Y-35131636D01*
X52367877Y-34540395D01*
X52338913Y-33985116D01*
X52311851Y-33464222D01*
X52286627Y-32976134D01*
X52263176Y-32519275D01*
X52241431Y-32092067D01*
X52221329Y-31692931D01*
X52202802Y-31320290D01*
X52185787Y-30972566D01*
X52170217Y-30648181D01*
X52156028Y-30345556D01*
X52143154Y-30063114D01*
X52131529Y-29799277D01*
X52121089Y-29552466D01*
X52111768Y-29321104D01*
X52103501Y-29103613D01*
X52096222Y-28898415D01*
X52089866Y-28703932D01*
X52084368Y-28518585D01*
X52079662Y-28340797D01*
X52075683Y-28168990D01*
X52072366Y-28001586D01*
X52069646Y-27837007D01*
X52067457Y-27673674D01*
X52065733Y-27510011D01*
X52064410Y-27344438D01*
X52063422Y-27175378D01*
X52062703Y-27001253D01*
X52062189Y-26820486D01*
X52061815Y-26631497D01*
X52061535Y-26447750D01*
X52061210Y-26141601D01*
X52061254Y-25874537D01*
X52061811Y-25643312D01*
X52063027Y-25444677D01*
X52065045Y-25275386D01*
X52068012Y-25132191D01*
X52072071Y-25011845D01*
X52077369Y-24911101D01*
X52084049Y-24826711D01*
X52092256Y-24755428D01*
X52102136Y-24694005D01*
X52113833Y-24639194D01*
X52127493Y-24587749D01*
X52143260Y-24536421D01*
X52147379Y-24523741D01*
X52205345Y-24409329D01*
X52302940Y-24294842D01*
X52437496Y-24181919D01*
X52606343Y-24072198D01*
X52806813Y-23967318D01*
X53036236Y-23868918D01*
X53291943Y-23778636D01*
X53428520Y-23737138D01*
X53851757Y-23626706D01*
X54315341Y-23527911D01*
X54818906Y-23440786D01*
X55362089Y-23365364D01*
X55944523Y-23301678D01*
X56565844Y-23249760D01*
X57225687Y-23209642D01*
X57923687Y-23181358D01*
X58659480Y-23164939D01*
X59432700Y-23160419D01*
X59857569Y-23162859D01*
G36*
X60054071Y-112967461D02*
G01*
X60621225Y-112967936D01*
X61150045Y-112968779D01*
X61642530Y-112970012D01*
X62100678Y-112971659D01*
X62526489Y-112973742D01*
X62921962Y-112976284D01*
X63289095Y-112979310D01*
X63629887Y-112982840D01*
X63946338Y-112986900D01*
X64240447Y-112991511D01*
X64514211Y-112996698D01*
X64769631Y-113002482D01*
X65008705Y-113008887D01*
X65233432Y-113015936D01*
X65445811Y-113023652D01*
X65647842Y-113032058D01*
X65838917Y-113041047D01*
X67414030Y-113128618D01*
X68977558Y-113234117D01*
X70537170Y-113358259D01*
X72100533Y-113501755D01*
X73675318Y-113665320D01*
X75269192Y-113849667D01*
X76889825Y-114055509D01*
X77216000Y-114099072D01*
X77517776Y-114139973D01*
X77820570Y-114181538D01*
X78121428Y-114223329D01*
X78417400Y-114264911D01*
X78705534Y-114305846D01*
X78982879Y-114345699D01*
X79246483Y-114384031D01*
X79493394Y-114420408D01*
X79720662Y-114454392D01*
X79925333Y-114485547D01*
X80104457Y-114513437D01*
X80255083Y-114537624D01*
X80374258Y-114557672D01*
X80459032Y-114573145D01*
X80506452Y-114583606D01*
X80515576Y-114587098D01*
X80525659Y-114609300D01*
X80548282Y-114666393D01*
X80581627Y-114753439D01*
X80623880Y-114865505D01*
X80673224Y-114997654D01*
X80727844Y-115144950D01*
X80785923Y-115302460D01*
X80845646Y-115465246D01*
X80905197Y-115628373D01*
X80962761Y-115786907D01*
X81016520Y-115935911D01*
X81064659Y-116070450D01*
X81105363Y-116185589D01*
X81133052Y-116265372D01*
X81173387Y-116385755D01*
X81208358Y-116495104D01*
X81235735Y-116586029D01*
X81253285Y-116651144D01*
X81258833Y-116681732D01*
X81257600Y-116703186D01*
X81251933Y-116720934D01*
X81238877Y-116734774D01*
X81215481Y-116744501D01*
X81178790Y-116749911D01*
X81125852Y-116750800D01*
X81053714Y-116746965D01*
X80959423Y-116738201D01*
X80840025Y-116724305D01*
X80692567Y-116705073D01*
X80514096Y-116680301D01*
X80301660Y-116649784D01*
X80052304Y-116613319D01*
X79861833Y-116585271D01*
X78659473Y-116413330D01*
X77467651Y-116253848D01*
X76281416Y-116106364D01*
X75095819Y-115970420D01*
X73905908Y-115845557D01*
X72706734Y-115731317D01*
X71493345Y-115627240D01*
X70260792Y-115532868D01*
X69004123Y-115447742D01*
X67718389Y-115371404D01*
X66398639Y-115303393D01*
X65669583Y-115269947D01*
X65581759Y-115267077D01*
X65453859Y-115264365D01*
X65288139Y-115261810D01*
X65086855Y-115259412D01*
X64852265Y-115257171D01*
X64586625Y-115255087D01*
X64292192Y-115253160D01*
X63971221Y-115251390D01*
X63625971Y-115249777D01*
X63258697Y-115248321D01*
X62871655Y-115247022D01*
X62467104Y-115245881D01*
X62047298Y-115244896D01*
X61614495Y-115244069D01*
X61170952Y-115243399D01*
X60718925Y-115242886D01*
X60260670Y-115242530D01*
X59798444Y-115242331D01*
X59334504Y-115242290D01*
X58871107Y-115242406D01*
X58410509Y-115242678D01*
X57954966Y-115243109D01*
X57506735Y-115243696D01*
X57068073Y-115244440D01*
X56641236Y-115245342D01*
X56228482Y-115246401D01*
X55832066Y-115247617D01*
X55454245Y-115248991D01*
X55097276Y-115250522D01*
X54763415Y-115252210D01*
X54454920Y-115254055D01*
X54174046Y-115256058D01*
X53923050Y-115258218D01*
X53704189Y-115260535D01*
X53519719Y-115263010D01*
X53371898Y-115265642D01*
X53262981Y-115268431D01*
X53223583Y-115269895D01*
X52085183Y-115322812D01*
X50982684Y-115381022D01*
X49909932Y-115444993D01*
X48860769Y-115515191D01*
X47829042Y-115592083D01*
X46808593Y-115676138D01*
X45793267Y-115767822D01*
X44776908Y-115867601D01*
X43753362Y-115975944D01*
X43391667Y-116016043D01*
X43004001Y-116059887D01*
X42637706Y-116102150D01*
X42287324Y-116143550D01*
X41947401Y-116184805D01*
X41612478Y-116226630D01*
X41277101Y-116269744D01*
X40935811Y-116314864D01*
X40583154Y-116362706D01*
X40213672Y-116413988D01*
X39821909Y-116469428D01*
X39402408Y-116529742D01*
X38949714Y-116595648D01*
X38671500Y-116636467D01*
X38414007Y-116673474D01*
X38196422Y-116702836D01*
X38017049Y-116724729D01*
X37874191Y-116739328D01*
X37766151Y-116746808D01*
X37691233Y-116747344D01*
X37650208Y-116741885D01*
X37620125Y-116713883D01*
X37613167Y-116682711D01*
X37620566Y-116643015D01*
X37642027Y-116566939D01*
X37676446Y-116457625D01*
X37722718Y-116318216D01*
X37779740Y-116151856D01*
X37846407Y-115961686D01*
X37921614Y-115750851D01*
X38004257Y-115522492D01*
X38093232Y-115279752D01*
X38187435Y-115025775D01*
X38285761Y-114763703D01*
X38309932Y-114699735D01*
X38354901Y-114580886D01*
X38761909Y-114515116D01*
X39077150Y-114465361D01*
X39429674Y-114411860D01*
X39814661Y-114355252D01*
X40227287Y-114296175D01*
X40662731Y-114235267D01*
X41116170Y-114173166D01*
X41582784Y-114110511D01*
X42057749Y-114047941D01*
X42536245Y-113986093D01*
X43013448Y-113925605D01*
X43484538Y-113867117D01*
X43944691Y-113811266D01*
X44389086Y-113758691D01*
X44812902Y-113710030D01*
X45010917Y-113687884D01*
X45854853Y-113596590D01*
X46670506Y-113512977D01*
X47467075Y-113436272D01*
X48253758Y-113365701D01*
X49039755Y-113300491D01*
X49834263Y-113239870D01*
X50646482Y-113183062D01*
X51485609Y-113129296D01*
X52070000Y-113094442D01*
X52316119Y-113080378D01*
X52552244Y-113067376D01*
X52780745Y-113055394D01*
X53003991Y-113044394D01*
X53224353Y-113034332D01*
X53444200Y-113025170D01*
X53665903Y-113016865D01*
X53891831Y-113009377D01*
X54124355Y-113002666D01*
X54365844Y-112996690D01*
X54618669Y-112991408D01*
X54885199Y-112986780D01*
X55167805Y-112982765D01*
X55468857Y-112979322D01*
X55790724Y-112976410D01*
X56135776Y-112973988D01*
X56506384Y-112972015D01*
X56904917Y-112970452D01*
X57333746Y-112969256D01*
X57795241Y-112968387D01*
X58291771Y-112967804D01*
X58825706Y-112967466D01*
X59399417Y-112967333D01*
X59446583Y-112967330D01*
X60054071Y-112967461D01*
X60054071Y-112967461D01*
G37*
X60054071Y-112967461D02*
X60621225Y-112967936D01*
X61150045Y-112968779D01*
X61642530Y-112970012D01*
X62100678Y-112971659D01*
X62526489Y-112973742D01*
X62921962Y-112976284D01*
X63289095Y-112979310D01*
X63629887Y-112982840D01*
X63946338Y-112986900D01*
X64240447Y-112991511D01*
X64514211Y-112996698D01*
X64769631Y-113002482D01*
X65008705Y-113008887D01*
X65233432Y-113015936D01*
X65445811Y-113023652D01*
X65647842Y-113032058D01*
X65838917Y-113041047D01*
X67414030Y-113128618D01*
X68977558Y-113234117D01*
X70537170Y-113358259D01*
X72100533Y-113501755D01*
X73675318Y-113665320D01*
X75269192Y-113849667D01*
X76889825Y-114055509D01*
X77216000Y-114099072D01*
X77517776Y-114139973D01*
X77820570Y-114181538D01*
X78121428Y-114223329D01*
X78417400Y-114264911D01*
X78705534Y-114305846D01*
X78982879Y-114345699D01*
X79246483Y-114384031D01*
X79493394Y-114420408D01*
X79720662Y-114454392D01*
X79925333Y-114485547D01*
X80104457Y-114513437D01*
X80255083Y-114537624D01*
X80374258Y-114557672D01*
X80459032Y-114573145D01*
X80506452Y-114583606D01*
X80515576Y-114587098D01*
X80525659Y-114609300D01*
X80548282Y-114666393D01*
X80581627Y-114753439D01*
X80623880Y-114865505D01*
X80673224Y-114997654D01*
X80727844Y-115144950D01*
X80785923Y-115302460D01*
X80845646Y-115465246D01*
X80905197Y-115628373D01*
X80962761Y-115786907D01*
X81016520Y-115935911D01*
X81064659Y-116070450D01*
X81105363Y-116185589D01*
X81133052Y-116265372D01*
X81173387Y-116385755D01*
X81208358Y-116495104D01*
X81235735Y-116586029D01*
X81253285Y-116651144D01*
X81258833Y-116681732D01*
X81257600Y-116703186D01*
X81251933Y-116720934D01*
X81238877Y-116734774D01*
X81215481Y-116744501D01*
X81178790Y-116749911D01*
X81125852Y-116750800D01*
X81053714Y-116746965D01*
X80959423Y-116738201D01*
X80840025Y-116724305D01*
X80692567Y-116705073D01*
X80514096Y-116680301D01*
X80301660Y-116649784D01*
X80052304Y-116613319D01*
X79861833Y-116585271D01*
X78659473Y-116413330D01*
X77467651Y-116253848D01*
X76281416Y-116106364D01*
X75095819Y-115970420D01*
X73905908Y-115845557D01*
X72706734Y-115731317D01*
X71493345Y-115627240D01*
X70260792Y-115532868D01*
X69004123Y-115447742D01*
X67718389Y-115371404D01*
X66398639Y-115303393D01*
X65669583Y-115269947D01*
X65581759Y-115267077D01*
X65453859Y-115264365D01*
X65288139Y-115261810D01*
X65086855Y-115259412D01*
X64852265Y-115257171D01*
X64586625Y-115255087D01*
X64292192Y-115253160D01*
X63971221Y-115251390D01*
X63625971Y-115249777D01*
X63258697Y-115248321D01*
X62871655Y-115247022D01*
X62467104Y-115245881D01*
X62047298Y-115244896D01*
X61614495Y-115244069D01*
X61170952Y-115243399D01*
X60718925Y-115242886D01*
X60260670Y-115242530D01*
X59798444Y-115242331D01*
X59334504Y-115242290D01*
X58871107Y-115242406D01*
X58410509Y-115242678D01*
X57954966Y-115243109D01*
X57506735Y-115243696D01*
X57068073Y-115244440D01*
X56641236Y-115245342D01*
X56228482Y-115246401D01*
X55832066Y-115247617D01*
X55454245Y-115248991D01*
X55097276Y-115250522D01*
X54763415Y-115252210D01*
X54454920Y-115254055D01*
X54174046Y-115256058D01*
X53923050Y-115258218D01*
X53704189Y-115260535D01*
X53519719Y-115263010D01*
X53371898Y-115265642D01*
X53262981Y-115268431D01*
X53223583Y-115269895D01*
X52085183Y-115322812D01*
X50982684Y-115381022D01*
X49909932Y-115444993D01*
X48860769Y-115515191D01*
X47829042Y-115592083D01*
X46808593Y-115676138D01*
X45793267Y-115767822D01*
X44776908Y-115867601D01*
X43753362Y-115975944D01*
X43391667Y-116016043D01*
X43004001Y-116059887D01*
X42637706Y-116102150D01*
X42287324Y-116143550D01*
X41947401Y-116184805D01*
X41612478Y-116226630D01*
X41277101Y-116269744D01*
X40935811Y-116314864D01*
X40583154Y-116362706D01*
X40213672Y-116413988D01*
X39821909Y-116469428D01*
X39402408Y-116529742D01*
X38949714Y-116595648D01*
X38671500Y-116636467D01*
X38414007Y-116673474D01*
X38196422Y-116702836D01*
X38017049Y-116724729D01*
X37874191Y-116739328D01*
X37766151Y-116746808D01*
X37691233Y-116747344D01*
X37650208Y-116741885D01*
X37620125Y-116713883D01*
X37613167Y-116682711D01*
X37620566Y-116643015D01*
X37642027Y-116566939D01*
X37676446Y-116457625D01*
X37722718Y-116318216D01*
X37779740Y-116151856D01*
X37846407Y-115961686D01*
X37921614Y-115750851D01*
X38004257Y-115522492D01*
X38093232Y-115279752D01*
X38187435Y-115025775D01*
X38285761Y-114763703D01*
X38309932Y-114699735D01*
X38354901Y-114580886D01*
X38761909Y-114515116D01*
X39077150Y-114465361D01*
X39429674Y-114411860D01*
X39814661Y-114355252D01*
X40227287Y-114296175D01*
X40662731Y-114235267D01*
X41116170Y-114173166D01*
X41582784Y-114110511D01*
X42057749Y-114047941D01*
X42536245Y-113986093D01*
X43013448Y-113925605D01*
X43484538Y-113867117D01*
X43944691Y-113811266D01*
X44389086Y-113758691D01*
X44812902Y-113710030D01*
X45010917Y-113687884D01*
X45854853Y-113596590D01*
X46670506Y-113512977D01*
X47467075Y-113436272D01*
X48253758Y-113365701D01*
X49039755Y-113300491D01*
X49834263Y-113239870D01*
X50646482Y-113183062D01*
X51485609Y-113129296D01*
X52070000Y-113094442D01*
X52316119Y-113080378D01*
X52552244Y-113067376D01*
X52780745Y-113055394D01*
X53003991Y-113044394D01*
X53224353Y-113034332D01*
X53444200Y-113025170D01*
X53665903Y-113016865D01*
X53891831Y-113009377D01*
X54124355Y-113002666D01*
X54365844Y-112996690D01*
X54618669Y-112991408D01*
X54885199Y-112986780D01*
X55167805Y-112982765D01*
X55468857Y-112979322D01*
X55790724Y-112976410D01*
X56135776Y-112973988D01*
X56506384Y-112972015D01*
X56904917Y-112970452D01*
X57333746Y-112969256D01*
X57795241Y-112968387D01*
X58291771Y-112967804D01*
X58825706Y-112967466D01*
X59399417Y-112967333D01*
X59446583Y-112967330D01*
X60054071Y-112967461D01*
G36*
X60144576Y-109180079D02*
G01*
X60744040Y-109182207D01*
X61332944Y-109185804D01*
X61906884Y-109190873D01*
X62461458Y-109197420D01*
X62992264Y-109205450D01*
X63494900Y-109214966D01*
X63964962Y-109225973D01*
X64398049Y-109238477D01*
X64484250Y-109241306D01*
X65656867Y-109286438D01*
X66825285Y-109343143D01*
X67994307Y-109411828D01*
X69168731Y-109492900D01*
X70353358Y-109586765D01*
X71552989Y-109693831D01*
X72772424Y-109814505D01*
X74016463Y-109949193D01*
X75289907Y-110098302D01*
X76597557Y-110262240D01*
X76729167Y-110279306D01*
X77107858Y-110328702D01*
X77445952Y-110373117D01*
X77744868Y-110412746D01*
X78006024Y-110447783D01*
X78230839Y-110478422D01*
X78420731Y-110504857D01*
X78577120Y-110527284D01*
X78701423Y-110545896D01*
X78795060Y-110560887D01*
X78831307Y-110567173D01*
X79017865Y-110600727D01*
X79070613Y-110719988D01*
X79103043Y-110796981D01*
X79147814Y-110908674D01*
X79203008Y-111049910D01*
X79266702Y-111215532D01*
X79336977Y-111400381D01*
X79411911Y-111599300D01*
X79489586Y-111807132D01*
X79568078Y-112018718D01*
X79645470Y-112228902D01*
X79719839Y-112432524D01*
X79789265Y-112624429D01*
X79851828Y-112799457D01*
X79905607Y-112952452D01*
X79948095Y-113076509D01*
X79982655Y-113184714D01*
X79998976Y-113259517D01*
X79993938Y-113307057D01*
X79964425Y-113333473D01*
X79907317Y-113344905D01*
X79819495Y-113347491D01*
X79810434Y-113347500D01*
X79753083Y-113344413D01*
X79660047Y-113335648D01*
X79537482Y-113321952D01*
X79391546Y-113304070D01*
X79228398Y-113282748D01*
X79054193Y-113258733D01*
X78929318Y-113240769D01*
X77889843Y-113091763D01*
X76880808Y-112953736D01*
X75892107Y-112825493D01*
X74913636Y-112705841D01*
X73935287Y-112593586D01*
X72946956Y-112487535D01*
X71938536Y-112386494D01*
X70899923Y-112289269D01*
X70791917Y-112279522D01*
X69925421Y-112204255D01*
X69091366Y-112137452D01*
X68280820Y-112078609D01*
X67484851Y-112027225D01*
X66694526Y-111982799D01*
X65900914Y-111944831D01*
X65095080Y-111912817D01*
X64268095Y-111886257D01*
X63411024Y-111864650D01*
X63394167Y-111864280D01*
X63195093Y-111860562D01*
X62959932Y-111857301D01*
X62691705Y-111854485D01*
X62393433Y-111852106D01*
X62068139Y-111850153D01*
X61718844Y-111848616D01*
X61348570Y-111847485D01*
X60960338Y-111846751D01*
X60557170Y-111846403D01*
X60142088Y-111846431D01*
X59718114Y-111846826D01*
X59288268Y-111847577D01*
X58855574Y-111848675D01*
X58423052Y-111850109D01*
X57993724Y-111851870D01*
X57570612Y-111853947D01*
X57156737Y-111856331D01*
X56755122Y-111859011D01*
X56368787Y-111861978D01*
X56000756Y-111865222D01*
X55654048Y-111868733D01*
X55331687Y-111872501D01*
X55036693Y-111876515D01*
X54772088Y-111880766D01*
X54540894Y-111885244D01*
X54346133Y-111889939D01*
X54197250Y-111894605D01*
X53324350Y-111929436D01*
X52466899Y-111969473D01*
X51630107Y-112014413D01*
X50819183Y-112063956D01*
X50039337Y-112117800D01*
X49295779Y-112175644D01*
X49201917Y-112183453D01*
X47987851Y-112289527D01*
X46789593Y-112402755D01*
X45612048Y-112522611D01*
X44460119Y-112648572D01*
X43338709Y-112780113D01*
X42252723Y-112916710D01*
X41867667Y-112967518D01*
X41752754Y-112982916D01*
X41645372Y-112997411D01*
X41541134Y-113011628D01*
X41435650Y-113026189D01*
X41324531Y-113041721D01*
X41203388Y-113058846D01*
X41067831Y-113078190D01*
X40913472Y-113100376D01*
X40735923Y-113126029D01*
X40530793Y-113155773D01*
X40293694Y-113190232D01*
X40020237Y-113230031D01*
X39942682Y-113241325D01*
X39698090Y-113276187D01*
X39492142Y-113303753D01*
X39321820Y-113324232D01*
X39184104Y-113337832D01*
X39075977Y-113344764D01*
X38994420Y-113345237D01*
X38936414Y-113339460D01*
X38898941Y-113327642D01*
X38882424Y-113314856D01*
X38871745Y-113292716D01*
X38871722Y-113258314D01*
X38883712Y-113203442D01*
X38909069Y-113119893D01*
X38920299Y-113085547D01*
X38958392Y-112972980D01*
X39006980Y-112833743D01*
X39064353Y-112672414D01*
X39128805Y-112493569D01*
X39198627Y-112301783D01*
X39272110Y-112101634D01*
X39347547Y-111897697D01*
X39423230Y-111694549D01*
X39497449Y-111496766D01*
X39568498Y-111308925D01*
X39634668Y-111135602D01*
X39694251Y-110981372D01*
X39745539Y-110850813D01*
X39786824Y-110748501D01*
X39816397Y-110679012D01*
X39826772Y-110656988D01*
X39838101Y-110637930D01*
X39853850Y-110621751D01*
X39878445Y-110607444D01*
X39916312Y-110594001D01*
X39971878Y-110580415D01*
X40049568Y-110565675D01*
X40153809Y-110548776D01*
X40289027Y-110528709D01*
X40459649Y-110504465D01*
X40555333Y-110491061D01*
X42172162Y-110273000D01*
X43755070Y-110075640D01*
X45306917Y-109898719D01*
X46830561Y-109741975D01*
X48328861Y-109605148D01*
X49804677Y-109487975D01*
X51260867Y-109390197D01*
X52700290Y-109311551D01*
X54112583Y-109252247D01*
X54537650Y-109238531D01*
X55000583Y-109226231D01*
X55496980Y-109215354D01*
X56022440Y-109205903D01*
X56572558Y-109197884D01*
X57142934Y-109191300D01*
X57729164Y-109186156D01*
X58326845Y-109182458D01*
X58931576Y-109180209D01*
X59538954Y-109179415D01*
X60144576Y-109180079D01*
X60144576Y-109180079D01*
G37*
X60144576Y-109180079D02*
X60744040Y-109182207D01*
X61332944Y-109185804D01*
X61906884Y-109190873D01*
X62461458Y-109197420D01*
X62992264Y-109205450D01*
X63494900Y-109214966D01*
X63964962Y-109225973D01*
X64398049Y-109238477D01*
X64484250Y-109241306D01*
X65656867Y-109286438D01*
X66825285Y-109343143D01*
X67994307Y-109411828D01*
X69168731Y-109492900D01*
X70353358Y-109586765D01*
X71552989Y-109693831D01*
X72772424Y-109814505D01*
X74016463Y-109949193D01*
X75289907Y-110098302D01*
X76597557Y-110262240D01*
X76729167Y-110279306D01*
X77107858Y-110328702D01*
X77445952Y-110373117D01*
X77744868Y-110412746D01*
X78006024Y-110447783D01*
X78230839Y-110478422D01*
X78420731Y-110504857D01*
X78577120Y-110527284D01*
X78701423Y-110545896D01*
X78795060Y-110560887D01*
X78831307Y-110567173D01*
X79017865Y-110600727D01*
X79070613Y-110719988D01*
X79103043Y-110796981D01*
X79147814Y-110908674D01*
X79203008Y-111049910D01*
X79266702Y-111215532D01*
X79336977Y-111400381D01*
X79411911Y-111599300D01*
X79489586Y-111807132D01*
X79568078Y-112018718D01*
X79645470Y-112228902D01*
X79719839Y-112432524D01*
X79789265Y-112624429D01*
X79851828Y-112799457D01*
X79905607Y-112952452D01*
X79948095Y-113076509D01*
X79982655Y-113184714D01*
X79998976Y-113259517D01*
X79993938Y-113307057D01*
X79964425Y-113333473D01*
X79907317Y-113344905D01*
X79819495Y-113347491D01*
X79810434Y-113347500D01*
X79753083Y-113344413D01*
X79660047Y-113335648D01*
X79537482Y-113321952D01*
X79391546Y-113304070D01*
X79228398Y-113282748D01*
X79054193Y-113258733D01*
X78929318Y-113240769D01*
X77889843Y-113091763D01*
X76880808Y-112953736D01*
X75892107Y-112825493D01*
X74913636Y-112705841D01*
X73935287Y-112593586D01*
X72946956Y-112487535D01*
X71938536Y-112386494D01*
X70899923Y-112289269D01*
X70791917Y-112279522D01*
X69925421Y-112204255D01*
X69091366Y-112137452D01*
X68280820Y-112078609D01*
X67484851Y-112027225D01*
X66694526Y-111982799D01*
X65900914Y-111944831D01*
X65095080Y-111912817D01*
X64268095Y-111886257D01*
X63411024Y-111864650D01*
X63394167Y-111864280D01*
X63195093Y-111860562D01*
X62959932Y-111857301D01*
X62691705Y-111854485D01*
X62393433Y-111852106D01*
X62068139Y-111850153D01*
X61718844Y-111848616D01*
X61348570Y-111847485D01*
X60960338Y-111846751D01*
X60557170Y-111846403D01*
X60142088Y-111846431D01*
X59718114Y-111846826D01*
X59288268Y-111847577D01*
X58855574Y-111848675D01*
X58423052Y-111850109D01*
X57993724Y-111851870D01*
X57570612Y-111853947D01*
X57156737Y-111856331D01*
X56755122Y-111859011D01*
X56368787Y-111861978D01*
X56000756Y-111865222D01*
X55654048Y-111868733D01*
X55331687Y-111872501D01*
X55036693Y-111876515D01*
X54772088Y-111880766D01*
X54540894Y-111885244D01*
X54346133Y-111889939D01*
X54197250Y-111894605D01*
X53324350Y-111929436D01*
X52466899Y-111969473D01*
X51630107Y-112014413D01*
X50819183Y-112063956D01*
X50039337Y-112117800D01*
X49295779Y-112175644D01*
X49201917Y-112183453D01*
X47987851Y-112289527D01*
X46789593Y-112402755D01*
X45612048Y-112522611D01*
X44460119Y-112648572D01*
X43338709Y-112780113D01*
X42252723Y-112916710D01*
X41867667Y-112967518D01*
X41752754Y-112982916D01*
X41645372Y-112997411D01*
X41541134Y-113011628D01*
X41435650Y-113026189D01*
X41324531Y-113041721D01*
X41203388Y-113058846D01*
X41067831Y-113078190D01*
X40913472Y-113100376D01*
X40735923Y-113126029D01*
X40530793Y-113155773D01*
X40293694Y-113190232D01*
X40020237Y-113230031D01*
X39942682Y-113241325D01*
X39698090Y-113276187D01*
X39492142Y-113303753D01*
X39321820Y-113324232D01*
X39184104Y-113337832D01*
X39075977Y-113344764D01*
X38994420Y-113345237D01*
X38936414Y-113339460D01*
X38898941Y-113327642D01*
X38882424Y-113314856D01*
X38871745Y-113292716D01*
X38871722Y-113258314D01*
X38883712Y-113203442D01*
X38909069Y-113119893D01*
X38920299Y-113085547D01*
X38958392Y-112972980D01*
X39006980Y-112833743D01*
X39064353Y-112672414D01*
X39128805Y-112493569D01*
X39198627Y-112301783D01*
X39272110Y-112101634D01*
X39347547Y-111897697D01*
X39423230Y-111694549D01*
X39497449Y-111496766D01*
X39568498Y-111308925D01*
X39634668Y-111135602D01*
X39694251Y-110981372D01*
X39745539Y-110850813D01*
X39786824Y-110748501D01*
X39816397Y-110679012D01*
X39826772Y-110656988D01*
X39838101Y-110637930D01*
X39853850Y-110621751D01*
X39878445Y-110607444D01*
X39916312Y-110594001D01*
X39971878Y-110580415D01*
X40049568Y-110565675D01*
X40153809Y-110548776D01*
X40289027Y-110528709D01*
X40459649Y-110504465D01*
X40555333Y-110491061D01*
X42172162Y-110273000D01*
X43755070Y-110075640D01*
X45306917Y-109898719D01*
X46830561Y-109741975D01*
X48328861Y-109605148D01*
X49804677Y-109487975D01*
X51260867Y-109390197D01*
X52700290Y-109311551D01*
X54112583Y-109252247D01*
X54537650Y-109238531D01*
X55000583Y-109226231D01*
X55496980Y-109215354D01*
X56022440Y-109205903D01*
X56572558Y-109197884D01*
X57142934Y-109191300D01*
X57729164Y-109186156D01*
X58326845Y-109182458D01*
X58931576Y-109180209D01*
X59538954Y-109179415D01*
X60144576Y-109180079D01*
G36*
X59995661Y-105453335D02*
G01*
X60525788Y-105453661D01*
X61018011Y-105454253D01*
X61474546Y-105455135D01*
X61897606Y-105456333D01*
X62289408Y-105457874D01*
X62652165Y-105459784D01*
X62988093Y-105462088D01*
X63299406Y-105464813D01*
X63588319Y-105467984D01*
X63857046Y-105471627D01*
X64107802Y-105475769D01*
X64342803Y-105480434D01*
X64564262Y-105485650D01*
X64774395Y-105491442D01*
X64975416Y-105497837D01*
X65169541Y-105504859D01*
X65358982Y-105512535D01*
X65545957Y-105520891D01*
X65659000Y-105526297D01*
X66469969Y-105567888D01*
X67257553Y-105612288D01*
X68026959Y-105659961D01*
X68783395Y-105711368D01*
X69532069Y-105766973D01*
X70278187Y-105827236D01*
X71026958Y-105892622D01*
X71783590Y-105963592D01*
X72553289Y-106040608D01*
X73341263Y-106124134D01*
X74152721Y-106214631D01*
X74992869Y-106312562D01*
X75866916Y-106418389D01*
X76274083Y-106468886D01*
X76533028Y-106501261D01*
X76753186Y-106528917D01*
X76937784Y-106552318D01*
X77090050Y-106571933D01*
X77213210Y-106588230D01*
X77310493Y-106601674D01*
X77385124Y-106612733D01*
X77440332Y-106621874D01*
X77479344Y-106629565D01*
X77505386Y-106636273D01*
X77521687Y-106642464D01*
X77531473Y-106648606D01*
X77534464Y-106651330D01*
X77546682Y-106675610D01*
X77572110Y-106735561D01*
X77609227Y-106827171D01*
X77656508Y-106946424D01*
X77712430Y-107089308D01*
X77775470Y-107251806D01*
X77844105Y-107429906D01*
X77916813Y-107619593D01*
X77992069Y-107816853D01*
X78068350Y-108017671D01*
X78144135Y-108218034D01*
X78217898Y-108413927D01*
X78288118Y-108601336D01*
X78353271Y-108776246D01*
X78411834Y-108934644D01*
X78462283Y-109072515D01*
X78503096Y-109185845D01*
X78532750Y-109270620D01*
X78549721Y-109322826D01*
X78553024Y-109335741D01*
X78551017Y-109361201D01*
X78528237Y-109377878D01*
X78475594Y-109390958D01*
X78447843Y-109395741D01*
X78378980Y-109402581D01*
X78301989Y-109400046D01*
X78205149Y-109387232D01*
X78109176Y-109369696D01*
X78008882Y-109351869D01*
X77869662Y-109329920D01*
X77694681Y-109304234D01*
X77487107Y-109275193D01*
X77250107Y-109243180D01*
X76986846Y-109208579D01*
X76700491Y-109171773D01*
X76394209Y-109133146D01*
X76071166Y-109093080D01*
X75734529Y-109051959D01*
X75387464Y-109010167D01*
X75033139Y-108968086D01*
X74674718Y-108926100D01*
X74315370Y-108884592D01*
X73958260Y-108843946D01*
X73606555Y-108804544D01*
X73263422Y-108766770D01*
X72932027Y-108731008D01*
X72615536Y-108697640D01*
X72317116Y-108667050D01*
X72241833Y-108659495D01*
X71345911Y-108572921D01*
X70469731Y-108494302D01*
X69605863Y-108423148D01*
X68746876Y-108358973D01*
X67885339Y-108301288D01*
X67013823Y-108249604D01*
X66124896Y-108203435D01*
X65211129Y-108162291D01*
X64265090Y-108125685D01*
X63944500Y-108114516D01*
X63807121Y-108110695D01*
X63630411Y-108107153D01*
X63417349Y-108103890D01*
X63170909Y-108100907D01*
X62894068Y-108098202D01*
X62589803Y-108095776D01*
X62261091Y-108093629D01*
X61910908Y-108091761D01*
X61542230Y-108090172D01*
X61158035Y-108088862D01*
X60761298Y-108087831D01*
X60354995Y-108087078D01*
X59942105Y-108086604D01*
X59525602Y-108086409D01*
X59108464Y-108086492D01*
X58693667Y-108086854D01*
X58284188Y-108087495D01*
X57883003Y-108088414D01*
X57493089Y-108089612D01*
X57117421Y-108091088D01*
X56758978Y-108092842D01*
X56420734Y-108094876D01*
X56105667Y-108097187D01*
X55816754Y-108099777D01*
X55556970Y-108102645D01*
X55329292Y-108105791D01*
X55136697Y-108109216D01*
X54982162Y-108112919D01*
X54927500Y-108114619D01*
X54051656Y-108146599D01*
X53210844Y-108181827D01*
X52397854Y-108220765D01*
X51605474Y-108263873D01*
X50826496Y-108311613D01*
X50053709Y-108364447D01*
X49279903Y-108422836D01*
X48497868Y-108487240D01*
X47700394Y-108558123D01*
X47073126Y-108617229D01*
X46778216Y-108646198D01*
X46465418Y-108677924D01*
X46137492Y-108712074D01*
X45797197Y-108748316D01*
X45447291Y-108786318D01*
X45090535Y-108825747D01*
X44729687Y-108866272D01*
X44367508Y-108907559D01*
X44006755Y-108949277D01*
X43650189Y-108991093D01*
X43300568Y-109032675D01*
X42960653Y-109073690D01*
X42633201Y-109113807D01*
X42320973Y-109152692D01*
X42026728Y-109190014D01*
X41753225Y-109225441D01*
X41503222Y-109258640D01*
X41279481Y-109289278D01*
X41084759Y-109317024D01*
X40921816Y-109341545D01*
X40793411Y-109362509D01*
X40702304Y-109379583D01*
X40660544Y-109389512D01*
X40564576Y-109406032D01*
X40454145Y-109401928D01*
X40386000Y-109391670D01*
X40335746Y-109377506D01*
X40318221Y-109354711D01*
X40318949Y-109336248D01*
X40327806Y-109307506D01*
X40350128Y-109243345D01*
X40384364Y-109147929D01*
X40428961Y-109025420D01*
X40482370Y-108879981D01*
X40543040Y-108715774D01*
X40609419Y-108536963D01*
X40679956Y-108347710D01*
X40753101Y-108152178D01*
X40827303Y-107954530D01*
X40901010Y-107758928D01*
X40972673Y-107569535D01*
X41040738Y-107390514D01*
X41103657Y-107226028D01*
X41149693Y-107106541D01*
X41211358Y-106949409D01*
X41260930Y-106828606D01*
X41300123Y-106740446D01*
X41330653Y-106681241D01*
X41354235Y-106647303D01*
X41368536Y-106636152D01*
X41398573Y-106629739D01*
X41467422Y-106618799D01*
X41571848Y-106603734D01*
X41708618Y-106584945D01*
X41874499Y-106562836D01*
X42066255Y-106537807D01*
X42280654Y-106510262D01*
X42514462Y-106480602D01*
X42764444Y-106449229D01*
X43027368Y-106416545D01*
X43299998Y-106382952D01*
X43579102Y-106348853D01*
X43861446Y-106314649D01*
X44143795Y-106280743D01*
X44422916Y-106247536D01*
X44695575Y-106215431D01*
X44958538Y-106184830D01*
X45208572Y-106156134D01*
X45434250Y-106130662D01*
X45887925Y-106081563D01*
X46377466Y-106031569D01*
X46896428Y-105981216D01*
X47438369Y-105931046D01*
X47996844Y-105881597D01*
X48565410Y-105833407D01*
X49137623Y-105787017D01*
X49707039Y-105742966D01*
X50267216Y-105701792D01*
X50811709Y-105664035D01*
X51334074Y-105630234D01*
X51625500Y-105612588D01*
X51925590Y-105595045D01*
X52208452Y-105578833D01*
X52476639Y-105563899D01*
X52732706Y-105550192D01*
X52979208Y-105537660D01*
X53218699Y-105526249D01*
X53453733Y-105515909D01*
X53686865Y-105506586D01*
X53920650Y-105498229D01*
X54157642Y-105490785D01*
X54400396Y-105484203D01*
X54651466Y-105478430D01*
X54913406Y-105473413D01*
X55188772Y-105469101D01*
X55480117Y-105465442D01*
X55789996Y-105462383D01*
X56120964Y-105459872D01*
X56475576Y-105457857D01*
X56856385Y-105456286D01*
X57265946Y-105455106D01*
X57706814Y-105454266D01*
X58181543Y-105453713D01*
X58692688Y-105453395D01*
X59242803Y-105453260D01*
X59425417Y-105453247D01*
X59995661Y-105453335D01*
X59995661Y-105453335D01*
G37*
X59995661Y-105453335D02*
X60525788Y-105453661D01*
X61018011Y-105454253D01*
X61474546Y-105455135D01*
X61897606Y-105456333D01*
X62289408Y-105457874D01*
X62652165Y-105459784D01*
X62988093Y-105462088D01*
X63299406Y-105464813D01*
X63588319Y-105467984D01*
X63857046Y-105471627D01*
X64107802Y-105475769D01*
X64342803Y-105480434D01*
X64564262Y-105485650D01*
X64774395Y-105491442D01*
X64975416Y-105497837D01*
X65169541Y-105504859D01*
X65358982Y-105512535D01*
X65545957Y-105520891D01*
X65659000Y-105526297D01*
X66469969Y-105567888D01*
X67257553Y-105612288D01*
X68026959Y-105659961D01*
X68783395Y-105711368D01*
X69532069Y-105766973D01*
X70278187Y-105827236D01*
X71026958Y-105892622D01*
X71783590Y-105963592D01*
X72553289Y-106040608D01*
X73341263Y-106124134D01*
X74152721Y-106214631D01*
X74992869Y-106312562D01*
X75866916Y-106418389D01*
X76274083Y-106468886D01*
X76533028Y-106501261D01*
X76753186Y-106528917D01*
X76937784Y-106552318D01*
X77090050Y-106571933D01*
X77213210Y-106588230D01*
X77310493Y-106601674D01*
X77385124Y-106612733D01*
X77440332Y-106621874D01*
X77479344Y-106629565D01*
X77505386Y-106636273D01*
X77521687Y-106642464D01*
X77531473Y-106648606D01*
X77534464Y-106651330D01*
X77546682Y-106675610D01*
X77572110Y-106735561D01*
X77609227Y-106827171D01*
X77656508Y-106946424D01*
X77712430Y-107089308D01*
X77775470Y-107251806D01*
X77844105Y-107429906D01*
X77916813Y-107619593D01*
X77992069Y-107816853D01*
X78068350Y-108017671D01*
X78144135Y-108218034D01*
X78217898Y-108413927D01*
X78288118Y-108601336D01*
X78353271Y-108776246D01*
X78411834Y-108934644D01*
X78462283Y-109072515D01*
X78503096Y-109185845D01*
X78532750Y-109270620D01*
X78549721Y-109322826D01*
X78553024Y-109335741D01*
X78551017Y-109361201D01*
X78528237Y-109377878D01*
X78475594Y-109390958D01*
X78447843Y-109395741D01*
X78378980Y-109402581D01*
X78301989Y-109400046D01*
X78205149Y-109387232D01*
X78109176Y-109369696D01*
X78008882Y-109351869D01*
X77869662Y-109329920D01*
X77694681Y-109304234D01*
X77487107Y-109275193D01*
X77250107Y-109243180D01*
X76986846Y-109208579D01*
X76700491Y-109171773D01*
X76394209Y-109133146D01*
X76071166Y-109093080D01*
X75734529Y-109051959D01*
X75387464Y-109010167D01*
X75033139Y-108968086D01*
X74674718Y-108926100D01*
X74315370Y-108884592D01*
X73958260Y-108843946D01*
X73606555Y-108804544D01*
X73263422Y-108766770D01*
X72932027Y-108731008D01*
X72615536Y-108697640D01*
X72317116Y-108667050D01*
X72241833Y-108659495D01*
X71345911Y-108572921D01*
X70469731Y-108494302D01*
X69605863Y-108423148D01*
X68746876Y-108358973D01*
X67885339Y-108301288D01*
X67013823Y-108249604D01*
X66124896Y-108203435D01*
X65211129Y-108162291D01*
X64265090Y-108125685D01*
X63944500Y-108114516D01*
X63807121Y-108110695D01*
X63630411Y-108107153D01*
X63417349Y-108103890D01*
X63170909Y-108100907D01*
X62894068Y-108098202D01*
X62589803Y-108095776D01*
X62261091Y-108093629D01*
X61910908Y-108091761D01*
X61542230Y-108090172D01*
X61158035Y-108088862D01*
X60761298Y-108087831D01*
X60354995Y-108087078D01*
X59942105Y-108086604D01*
X59525602Y-108086409D01*
X59108464Y-108086492D01*
X58693667Y-108086854D01*
X58284188Y-108087495D01*
X57883003Y-108088414D01*
X57493089Y-108089612D01*
X57117421Y-108091088D01*
X56758978Y-108092842D01*
X56420734Y-108094876D01*
X56105667Y-108097187D01*
X55816754Y-108099777D01*
X55556970Y-108102645D01*
X55329292Y-108105791D01*
X55136697Y-108109216D01*
X54982162Y-108112919D01*
X54927500Y-108114619D01*
X54051656Y-108146599D01*
X53210844Y-108181827D01*
X52397854Y-108220765D01*
X51605474Y-108263873D01*
X50826496Y-108311613D01*
X50053709Y-108364447D01*
X49279903Y-108422836D01*
X48497868Y-108487240D01*
X47700394Y-108558123D01*
X47073126Y-108617229D01*
X46778216Y-108646198D01*
X46465418Y-108677924D01*
X46137492Y-108712074D01*
X45797197Y-108748316D01*
X45447291Y-108786318D01*
X45090535Y-108825747D01*
X44729687Y-108866272D01*
X44367508Y-108907559D01*
X44006755Y-108949277D01*
X43650189Y-108991093D01*
X43300568Y-109032675D01*
X42960653Y-109073690D01*
X42633201Y-109113807D01*
X42320973Y-109152692D01*
X42026728Y-109190014D01*
X41753225Y-109225441D01*
X41503222Y-109258640D01*
X41279481Y-109289278D01*
X41084759Y-109317024D01*
X40921816Y-109341545D01*
X40793411Y-109362509D01*
X40702304Y-109379583D01*
X40660544Y-109389512D01*
X40564576Y-109406032D01*
X40454145Y-109401928D01*
X40386000Y-109391670D01*
X40335746Y-109377506D01*
X40318221Y-109354711D01*
X40318949Y-109336248D01*
X40327806Y-109307506D01*
X40350128Y-109243345D01*
X40384364Y-109147929D01*
X40428961Y-109025420D01*
X40482370Y-108879981D01*
X40543040Y-108715774D01*
X40609419Y-108536963D01*
X40679956Y-108347710D01*
X40753101Y-108152178D01*
X40827303Y-107954530D01*
X40901010Y-107758928D01*
X40972673Y-107569535D01*
X41040738Y-107390514D01*
X41103657Y-107226028D01*
X41149693Y-107106541D01*
X41211358Y-106949409D01*
X41260930Y-106828606D01*
X41300123Y-106740446D01*
X41330653Y-106681241D01*
X41354235Y-106647303D01*
X41368536Y-106636152D01*
X41398573Y-106629739D01*
X41467422Y-106618799D01*
X41571848Y-106603734D01*
X41708618Y-106584945D01*
X41874499Y-106562836D01*
X42066255Y-106537807D01*
X42280654Y-106510262D01*
X42514462Y-106480602D01*
X42764444Y-106449229D01*
X43027368Y-106416545D01*
X43299998Y-106382952D01*
X43579102Y-106348853D01*
X43861446Y-106314649D01*
X44143795Y-106280743D01*
X44422916Y-106247536D01*
X44695575Y-106215431D01*
X44958538Y-106184830D01*
X45208572Y-106156134D01*
X45434250Y-106130662D01*
X45887925Y-106081563D01*
X46377466Y-106031569D01*
X46896428Y-105981216D01*
X47438369Y-105931046D01*
X47996844Y-105881597D01*
X48565410Y-105833407D01*
X49137623Y-105787017D01*
X49707039Y-105742966D01*
X50267216Y-105701792D01*
X50811709Y-105664035D01*
X51334074Y-105630234D01*
X51625500Y-105612588D01*
X51925590Y-105595045D01*
X52208452Y-105578833D01*
X52476639Y-105563899D01*
X52732706Y-105550192D01*
X52979208Y-105537660D01*
X53218699Y-105526249D01*
X53453733Y-105515909D01*
X53686865Y-105506586D01*
X53920650Y-105498229D01*
X54157642Y-105490785D01*
X54400396Y-105484203D01*
X54651466Y-105478430D01*
X54913406Y-105473413D01*
X55188772Y-105469101D01*
X55480117Y-105465442D01*
X55789996Y-105462383D01*
X56120964Y-105459872D01*
X56475576Y-105457857D01*
X56856385Y-105456286D01*
X57265946Y-105455106D01*
X57706814Y-105454266D01*
X58181543Y-105453713D01*
X58692688Y-105453395D01*
X59242803Y-105453260D01*
X59425417Y-105453247D01*
X59995661Y-105453335D01*
G36*
X61481604Y-101709797D02*
G01*
X61978967Y-101710813D01*
X62442872Y-101712389D01*
X62874799Y-101714537D01*
X63276226Y-101717272D01*
X63648632Y-101720606D01*
X63993496Y-101724553D01*
X64312297Y-101729126D01*
X64606513Y-101734339D01*
X64877623Y-101740204D01*
X65127107Y-101746736D01*
X65356443Y-101753947D01*
X65567111Y-101761850D01*
X65760588Y-101770460D01*
X65938353Y-101779788D01*
X65944750Y-101780153D01*
X66846441Y-101833440D01*
X67710377Y-101888028D01*
X68541127Y-101944305D01*
X69343260Y-102002661D01*
X70121345Y-102063484D01*
X70879951Y-102127160D01*
X71623646Y-102194079D01*
X72356999Y-102264629D01*
X73084580Y-102339198D01*
X73810956Y-102418173D01*
X74540697Y-102501944D01*
X74792417Y-102531830D01*
X75045652Y-102562236D01*
X75260188Y-102588278D01*
X75439375Y-102610485D01*
X75586562Y-102629384D01*
X75705100Y-102645504D01*
X75798340Y-102659374D01*
X75869630Y-102671522D01*
X75922321Y-102682477D01*
X75959764Y-102692767D01*
X75985308Y-102702920D01*
X76002304Y-102713465D01*
X76013714Y-102724479D01*
X76031041Y-102755497D01*
X76061540Y-102822163D01*
X76103641Y-102920442D01*
X76155772Y-103046300D01*
X76216360Y-103195702D01*
X76283832Y-103364614D01*
X76356619Y-103549000D01*
X76433146Y-103744827D01*
X76511842Y-103948060D01*
X76591136Y-104154664D01*
X76669454Y-104360605D01*
X76745226Y-104561849D01*
X76816878Y-104754360D01*
X76882840Y-104934104D01*
X76941538Y-105097047D01*
X76973878Y-105188676D01*
X77007869Y-105290743D01*
X77022753Y-105360177D01*
X77014012Y-105402691D01*
X76977125Y-105424000D01*
X76907573Y-105429816D01*
X76800836Y-105425853D01*
X76786882Y-105425080D01*
X76708106Y-105418876D01*
X76595357Y-105407504D01*
X76456555Y-105391890D01*
X76299618Y-105372961D01*
X76132468Y-105351641D01*
X75963022Y-105328859D01*
X75956583Y-105327968D01*
X75423487Y-105256885D01*
X74851224Y-105185745D01*
X74242959Y-105114838D01*
X73601857Y-105044457D01*
X72931084Y-104974891D01*
X72233803Y-104906430D01*
X71513181Y-104839367D01*
X70772382Y-104773991D01*
X70014571Y-104710594D01*
X69242913Y-104649465D01*
X68460574Y-104590897D01*
X67670718Y-104535178D01*
X66876510Y-104482601D01*
X66484500Y-104457935D01*
X66283366Y-104445799D01*
X66089628Y-104434800D01*
X65900041Y-104424860D01*
X65711359Y-104415904D01*
X65520338Y-104407854D01*
X65323733Y-104400633D01*
X65118300Y-104394165D01*
X64900793Y-104388372D01*
X64667968Y-104383178D01*
X64416580Y-104378506D01*
X64143384Y-104374278D01*
X63845135Y-104370419D01*
X63518588Y-104366850D01*
X63160499Y-104363495D01*
X62767623Y-104360278D01*
X62336715Y-104357121D01*
X62187667Y-104356093D01*
X61801450Y-104353451D01*
X61453714Y-104351063D01*
X61140605Y-104348929D01*
X60858271Y-104347048D01*
X60602858Y-104345421D01*
X60370515Y-104344046D01*
X60157388Y-104342925D01*
X59959625Y-104342056D01*
X59773374Y-104341440D01*
X59594781Y-104341076D01*
X59419994Y-104340964D01*
X59245161Y-104341105D01*
X59066428Y-104341497D01*
X58879943Y-104342141D01*
X58681854Y-104343037D01*
X58468307Y-104344185D01*
X58235450Y-104345583D01*
X57979431Y-104347233D01*
X57696396Y-104349134D01*
X57382493Y-104351286D01*
X57033870Y-104353689D01*
X56716083Y-104355868D01*
X56262062Y-104359087D01*
X55846635Y-104362347D01*
X55466065Y-104365770D01*
X55116611Y-104369481D01*
X54794536Y-104373605D01*
X54496101Y-104378264D01*
X54217567Y-104383585D01*
X53955196Y-104389690D01*
X53705248Y-104396704D01*
X53463986Y-104404750D01*
X53227670Y-104413954D01*
X52992562Y-104424438D01*
X52754924Y-104436328D01*
X52511015Y-104449747D01*
X52257099Y-104464820D01*
X51989436Y-104481670D01*
X51704287Y-104500422D01*
X51397914Y-104521200D01*
X51085750Y-104542792D01*
X49977672Y-104623046D01*
X48903943Y-104707075D01*
X47865618Y-104794777D01*
X46863750Y-104886051D01*
X45899393Y-104980796D01*
X44973600Y-105078909D01*
X44087426Y-105180290D01*
X43241924Y-105284837D01*
X42855484Y-105335494D01*
X42605061Y-105368143D01*
X42394424Y-105393793D01*
X42221633Y-105412605D01*
X42084750Y-105424736D01*
X41981835Y-105430345D01*
X41910951Y-105429592D01*
X41870157Y-105422635D01*
X41860611Y-105417055D01*
X41851520Y-105401874D01*
X41849255Y-105377258D01*
X41855135Y-105338410D01*
X41870481Y-105280531D01*
X41896615Y-105198825D01*
X41934855Y-105088493D01*
X41986522Y-104944737D01*
X42003308Y-104898577D01*
X42060182Y-104743678D01*
X42123948Y-104572166D01*
X42193011Y-104388157D01*
X42265778Y-104195766D01*
X42340654Y-103999109D01*
X42416046Y-103802303D01*
X42490358Y-103609463D01*
X42561996Y-103424705D01*
X42629368Y-103252145D01*
X42690877Y-103095899D01*
X42744930Y-102960082D01*
X42789933Y-102848811D01*
X42824292Y-102766202D01*
X42846412Y-102716371D01*
X42853558Y-102703408D01*
X42880980Y-102693911D01*
X42948879Y-102680448D01*
X43055607Y-102663223D01*
X43199512Y-102642440D01*
X43378946Y-102618302D01*
X43592259Y-102591015D01*
X43837801Y-102560781D01*
X44113922Y-102527806D01*
X44418973Y-102492293D01*
X44751304Y-102454446D01*
X45109265Y-102414469D01*
X45491206Y-102372567D01*
X45783500Y-102340957D01*
X46541543Y-102262444D01*
X47324931Y-102187230D01*
X48136192Y-102115112D01*
X48977855Y-102045888D01*
X49852450Y-101979355D01*
X50762505Y-101915312D01*
X51710550Y-101853556D01*
X52398083Y-101811582D01*
X52566721Y-101801629D01*
X52725892Y-101792453D01*
X52877832Y-101784017D01*
X53024780Y-101776284D01*
X53168975Y-101769218D01*
X53312653Y-101762781D01*
X53458054Y-101756937D01*
X53607414Y-101751650D01*
X53762972Y-101746883D01*
X53926966Y-101742599D01*
X54101634Y-101738762D01*
X54289213Y-101735335D01*
X54491943Y-101732281D01*
X54712060Y-101729564D01*
X54951802Y-101727147D01*
X55213409Y-101724993D01*
X55499116Y-101723067D01*
X55811164Y-101721330D01*
X56151788Y-101719747D01*
X56523229Y-101718281D01*
X56927722Y-101716894D01*
X57367507Y-101715552D01*
X57844822Y-101714217D01*
X58361903Y-101712851D01*
X58441167Y-101712647D01*
X59128000Y-101711064D01*
X59773981Y-101709974D01*
X60380590Y-101709391D01*
X60949304Y-101709328D01*
X61481604Y-101709797D01*
X61481604Y-101709797D01*
G37*
X61481604Y-101709797D02*
X61978967Y-101710813D01*
X62442872Y-101712389D01*
X62874799Y-101714537D01*
X63276226Y-101717272D01*
X63648632Y-101720606D01*
X63993496Y-101724553D01*
X64312297Y-101729126D01*
X64606513Y-101734339D01*
X64877623Y-101740204D01*
X65127107Y-101746736D01*
X65356443Y-101753947D01*
X65567111Y-101761850D01*
X65760588Y-101770460D01*
X65938353Y-101779788D01*
X65944750Y-101780153D01*
X66846441Y-101833440D01*
X67710377Y-101888028D01*
X68541127Y-101944305D01*
X69343260Y-102002661D01*
X70121345Y-102063484D01*
X70879951Y-102127160D01*
X71623646Y-102194079D01*
X72356999Y-102264629D01*
X73084580Y-102339198D01*
X73810956Y-102418173D01*
X74540697Y-102501944D01*
X74792417Y-102531830D01*
X75045652Y-102562236D01*
X75260188Y-102588278D01*
X75439375Y-102610485D01*
X75586562Y-102629384D01*
X75705100Y-102645504D01*
X75798340Y-102659374D01*
X75869630Y-102671522D01*
X75922321Y-102682477D01*
X75959764Y-102692767D01*
X75985308Y-102702920D01*
X76002304Y-102713465D01*
X76013714Y-102724479D01*
X76031041Y-102755497D01*
X76061540Y-102822163D01*
X76103641Y-102920442D01*
X76155772Y-103046300D01*
X76216360Y-103195702D01*
X76283832Y-103364614D01*
X76356619Y-103549000D01*
X76433146Y-103744827D01*
X76511842Y-103948060D01*
X76591136Y-104154664D01*
X76669454Y-104360605D01*
X76745226Y-104561849D01*
X76816878Y-104754360D01*
X76882840Y-104934104D01*
X76941538Y-105097047D01*
X76973878Y-105188676D01*
X77007869Y-105290743D01*
X77022753Y-105360177D01*
X77014012Y-105402691D01*
X76977125Y-105424000D01*
X76907573Y-105429816D01*
X76800836Y-105425853D01*
X76786882Y-105425080D01*
X76708106Y-105418876D01*
X76595357Y-105407504D01*
X76456555Y-105391890D01*
X76299618Y-105372961D01*
X76132468Y-105351641D01*
X75963022Y-105328859D01*
X75956583Y-105327968D01*
X75423487Y-105256885D01*
X74851224Y-105185745D01*
X74242959Y-105114838D01*
X73601857Y-105044457D01*
X72931084Y-104974891D01*
X72233803Y-104906430D01*
X71513181Y-104839367D01*
X70772382Y-104773991D01*
X70014571Y-104710594D01*
X69242913Y-104649465D01*
X68460574Y-104590897D01*
X67670718Y-104535178D01*
X66876510Y-104482601D01*
X66484500Y-104457935D01*
X66283366Y-104445799D01*
X66089628Y-104434800D01*
X65900041Y-104424860D01*
X65711359Y-104415904D01*
X65520338Y-104407854D01*
X65323733Y-104400633D01*
X65118300Y-104394165D01*
X64900793Y-104388372D01*
X64667968Y-104383178D01*
X64416580Y-104378506D01*
X64143384Y-104374278D01*
X63845135Y-104370419D01*
X63518588Y-104366850D01*
X63160499Y-104363495D01*
X62767623Y-104360278D01*
X62336715Y-104357121D01*
X62187667Y-104356093D01*
X61801450Y-104353451D01*
X61453714Y-104351063D01*
X61140605Y-104348929D01*
X60858271Y-104347048D01*
X60602858Y-104345421D01*
X60370515Y-104344046D01*
X60157388Y-104342925D01*
X59959625Y-104342056D01*
X59773374Y-104341440D01*
X59594781Y-104341076D01*
X59419994Y-104340964D01*
X59245161Y-104341105D01*
X59066428Y-104341497D01*
X58879943Y-104342141D01*
X58681854Y-104343037D01*
X58468307Y-104344185D01*
X58235450Y-104345583D01*
X57979431Y-104347233D01*
X57696396Y-104349134D01*
X57382493Y-104351286D01*
X57033870Y-104353689D01*
X56716083Y-104355868D01*
X56262062Y-104359087D01*
X55846635Y-104362347D01*
X55466065Y-104365770D01*
X55116611Y-104369481D01*
X54794536Y-104373605D01*
X54496101Y-104378264D01*
X54217567Y-104383585D01*
X53955196Y-104389690D01*
X53705248Y-104396704D01*
X53463986Y-104404750D01*
X53227670Y-104413954D01*
X52992562Y-104424438D01*
X52754924Y-104436328D01*
X52511015Y-104449747D01*
X52257099Y-104464820D01*
X51989436Y-104481670D01*
X51704287Y-104500422D01*
X51397914Y-104521200D01*
X51085750Y-104542792D01*
X49977672Y-104623046D01*
X48903943Y-104707075D01*
X47865618Y-104794777D01*
X46863750Y-104886051D01*
X45899393Y-104980796D01*
X44973600Y-105078909D01*
X44087426Y-105180290D01*
X43241924Y-105284837D01*
X42855484Y-105335494D01*
X42605061Y-105368143D01*
X42394424Y-105393793D01*
X42221633Y-105412605D01*
X42084750Y-105424736D01*
X41981835Y-105430345D01*
X41910951Y-105429592D01*
X41870157Y-105422635D01*
X41860611Y-105417055D01*
X41851520Y-105401874D01*
X41849255Y-105377258D01*
X41855135Y-105338410D01*
X41870481Y-105280531D01*
X41896615Y-105198825D01*
X41934855Y-105088493D01*
X41986522Y-104944737D01*
X42003308Y-104898577D01*
X42060182Y-104743678D01*
X42123948Y-104572166D01*
X42193011Y-104388157D01*
X42265778Y-104195766D01*
X42340654Y-103999109D01*
X42416046Y-103802303D01*
X42490358Y-103609463D01*
X42561996Y-103424705D01*
X42629368Y-103252145D01*
X42690877Y-103095899D01*
X42744930Y-102960082D01*
X42789933Y-102848811D01*
X42824292Y-102766202D01*
X42846412Y-102716371D01*
X42853558Y-102703408D01*
X42880980Y-102693911D01*
X42948879Y-102680448D01*
X43055607Y-102663223D01*
X43199512Y-102642440D01*
X43378946Y-102618302D01*
X43592259Y-102591015D01*
X43837801Y-102560781D01*
X44113922Y-102527806D01*
X44418973Y-102492293D01*
X44751304Y-102454446D01*
X45109265Y-102414469D01*
X45491206Y-102372567D01*
X45783500Y-102340957D01*
X46541543Y-102262444D01*
X47324931Y-102187230D01*
X48136192Y-102115112D01*
X48977855Y-102045888D01*
X49852450Y-101979355D01*
X50762505Y-101915312D01*
X51710550Y-101853556D01*
X52398083Y-101811582D01*
X52566721Y-101801629D01*
X52725892Y-101792453D01*
X52877832Y-101784017D01*
X53024780Y-101776284D01*
X53168975Y-101769218D01*
X53312653Y-101762781D01*
X53458054Y-101756937D01*
X53607414Y-101751650D01*
X53762972Y-101746883D01*
X53926966Y-101742599D01*
X54101634Y-101738762D01*
X54289213Y-101735335D01*
X54491943Y-101732281D01*
X54712060Y-101729564D01*
X54951802Y-101727147D01*
X55213409Y-101724993D01*
X55499116Y-101723067D01*
X55811164Y-101721330D01*
X56151788Y-101719747D01*
X56523229Y-101718281D01*
X56927722Y-101716894D01*
X57367507Y-101715552D01*
X57844822Y-101714217D01*
X58361903Y-101712851D01*
X58441167Y-101712647D01*
X59128000Y-101711064D01*
X59773981Y-101709974D01*
X60380590Y-101709391D01*
X60949304Y-101709328D01*
X61481604Y-101709797D01*
G36*
X58819574Y-97942407D02*
G01*
X59235788Y-97942707D01*
X59656079Y-97943219D01*
X60077857Y-97943937D01*
X60498531Y-97944854D01*
X60915509Y-97945967D01*
X61326201Y-97947268D01*
X61728014Y-97948753D01*
X62118359Y-97950415D01*
X62494644Y-97952250D01*
X62854278Y-97954252D01*
X63194669Y-97956414D01*
X63513227Y-97958732D01*
X63807361Y-97961199D01*
X64074479Y-97963811D01*
X64311990Y-97966561D01*
X64517303Y-97969445D01*
X64687828Y-97972456D01*
X64820972Y-97975588D01*
X64907583Y-97978545D01*
X65849844Y-98023491D01*
X66826522Y-98078047D01*
X67830926Y-98141710D01*
X68856367Y-98213974D01*
X69896154Y-98294336D01*
X70943598Y-98382289D01*
X71992007Y-98477330D01*
X73034693Y-98578954D01*
X73501250Y-98626802D01*
X73711979Y-98648900D01*
X73884730Y-98667488D01*
X74023653Y-98683230D01*
X74132896Y-98696790D01*
X74216609Y-98708834D01*
X74278941Y-98720026D01*
X74324040Y-98731031D01*
X74356058Y-98742513D01*
X74379141Y-98755137D01*
X74397440Y-98769567D01*
X74398507Y-98770533D01*
X74421798Y-98796729D01*
X74449117Y-98837649D01*
X74481657Y-98895977D01*
X74520612Y-98974400D01*
X74567177Y-99075603D01*
X74622546Y-99202272D01*
X74687912Y-99357092D01*
X74764469Y-99542750D01*
X74853412Y-99761930D01*
X74955935Y-100017319D01*
X74983606Y-100086583D01*
X75089923Y-100353479D01*
X75181141Y-100583816D01*
X75258202Y-100780209D01*
X75322049Y-100945276D01*
X75373624Y-101081633D01*
X75413870Y-101191896D01*
X75443730Y-101278683D01*
X75464146Y-101344608D01*
X75476060Y-101392290D01*
X75480417Y-101424344D01*
X75478158Y-101443387D01*
X75474519Y-101449180D01*
X75453926Y-101460451D01*
X75416640Y-101467704D01*
X75359759Y-101470747D01*
X75280380Y-101469387D01*
X75175601Y-101463430D01*
X75042518Y-101452682D01*
X74878231Y-101436952D01*
X74679835Y-101416045D01*
X74444429Y-101389769D01*
X74255751Y-101368040D01*
X72236951Y-101150481D01*
X70205338Y-100965544D01*
X68169656Y-100813872D01*
X66138652Y-100696105D01*
X64121070Y-100612885D01*
X63838667Y-100603982D01*
X63559790Y-100596574D01*
X63242299Y-100590007D01*
X62889901Y-100584272D01*
X62506307Y-100579360D01*
X62095226Y-100575262D01*
X61660367Y-100571970D01*
X61205439Y-100569473D01*
X60734153Y-100567765D01*
X60250217Y-100566835D01*
X59757342Y-100566675D01*
X59259235Y-100567276D01*
X58759608Y-100568630D01*
X58262169Y-100570726D01*
X57770627Y-100573557D01*
X57288692Y-100577114D01*
X56820074Y-100581387D01*
X56368482Y-100586368D01*
X55937625Y-100592048D01*
X55531213Y-100598418D01*
X55152955Y-100605469D01*
X54806560Y-100613193D01*
X54495739Y-100621580D01*
X54334833Y-100626691D01*
X53320585Y-100666553D01*
X52272581Y-100718447D01*
X51197500Y-100781857D01*
X50102015Y-100856266D01*
X48992805Y-100941159D01*
X47876544Y-101036019D01*
X46759910Y-101140331D01*
X45649577Y-101253578D01*
X44552223Y-101375243D01*
X44354750Y-101398213D01*
X44115681Y-101425370D01*
X43915815Y-101446107D01*
X43752535Y-101460563D01*
X43623223Y-101468878D01*
X43525259Y-101471191D01*
X43456026Y-101467641D01*
X43412904Y-101458365D01*
X43397328Y-101449028D01*
X43391585Y-101436713D01*
X43391357Y-101414319D01*
X43397617Y-101379140D01*
X43411337Y-101328472D01*
X43433490Y-101259611D01*
X43465048Y-101169853D01*
X43506984Y-101056494D01*
X43560271Y-100916828D01*
X43625881Y-100748152D01*
X43704788Y-100547761D01*
X43797963Y-100312952D01*
X43879741Y-100107750D01*
X43988596Y-99836030D01*
X44083545Y-99601443D01*
X44165668Y-99401531D01*
X44236044Y-99233837D01*
X44295753Y-99095901D01*
X44345874Y-98985264D01*
X44387489Y-98899470D01*
X44421676Y-98836059D01*
X44449516Y-98792572D01*
X44466464Y-98771983D01*
X44480533Y-98759070D01*
X44498476Y-98747696D01*
X44524072Y-98737284D01*
X44561101Y-98727259D01*
X44613341Y-98717046D01*
X44684572Y-98706069D01*
X44778572Y-98693751D01*
X44899121Y-98679518D01*
X45049997Y-98662794D01*
X45234980Y-98643003D01*
X45457848Y-98619570D01*
X45487167Y-98616502D01*
X46344649Y-98529343D01*
X47201733Y-98447249D01*
X48054750Y-98370471D01*
X48900031Y-98299260D01*
X49733907Y-98233869D01*
X50552710Y-98174550D01*
X51352770Y-98121554D01*
X52130419Y-98075134D01*
X52881987Y-98035541D01*
X53603807Y-98003028D01*
X54292208Y-97977846D01*
X54943523Y-97960248D01*
X55086250Y-97957327D01*
X55251422Y-97954654D01*
X55451766Y-97952260D01*
X55684689Y-97950139D01*
X55947602Y-97948285D01*
X56237913Y-97946693D01*
X56553030Y-97945357D01*
X56890363Y-97944271D01*
X57247321Y-97943431D01*
X57621312Y-97942830D01*
X58009745Y-97942462D01*
X58410030Y-97942323D01*
X58819574Y-97942407D01*
X58819574Y-97942407D01*
G37*
X58819574Y-97942407D02*
X59235788Y-97942707D01*
X59656079Y-97943219D01*
X60077857Y-97943937D01*
X60498531Y-97944854D01*
X60915509Y-97945967D01*
X61326201Y-97947268D01*
X61728014Y-97948753D01*
X62118359Y-97950415D01*
X62494644Y-97952250D01*
X62854278Y-97954252D01*
X63194669Y-97956414D01*
X63513227Y-97958732D01*
X63807361Y-97961199D01*
X64074479Y-97963811D01*
X64311990Y-97966561D01*
X64517303Y-97969445D01*
X64687828Y-97972456D01*
X64820972Y-97975588D01*
X64907583Y-97978545D01*
X65849844Y-98023491D01*
X66826522Y-98078047D01*
X67830926Y-98141710D01*
X68856367Y-98213974D01*
X69896154Y-98294336D01*
X70943598Y-98382289D01*
X71992007Y-98477330D01*
X73034693Y-98578954D01*
X73501250Y-98626802D01*
X73711979Y-98648900D01*
X73884730Y-98667488D01*
X74023653Y-98683230D01*
X74132896Y-98696790D01*
X74216609Y-98708834D01*
X74278941Y-98720026D01*
X74324040Y-98731031D01*
X74356058Y-98742513D01*
X74379141Y-98755137D01*
X74397440Y-98769567D01*
X74398507Y-98770533D01*
X74421798Y-98796729D01*
X74449117Y-98837649D01*
X74481657Y-98895977D01*
X74520612Y-98974400D01*
X74567177Y-99075603D01*
X74622546Y-99202272D01*
X74687912Y-99357092D01*
X74764469Y-99542750D01*
X74853412Y-99761930D01*
X74955935Y-100017319D01*
X74983606Y-100086583D01*
X75089923Y-100353479D01*
X75181141Y-100583816D01*
X75258202Y-100780209D01*
X75322049Y-100945276D01*
X75373624Y-101081633D01*
X75413870Y-101191896D01*
X75443730Y-101278683D01*
X75464146Y-101344608D01*
X75476060Y-101392290D01*
X75480417Y-101424344D01*
X75478158Y-101443387D01*
X75474519Y-101449180D01*
X75453926Y-101460451D01*
X75416640Y-101467704D01*
X75359759Y-101470747D01*
X75280380Y-101469387D01*
X75175601Y-101463430D01*
X75042518Y-101452682D01*
X74878231Y-101436952D01*
X74679835Y-101416045D01*
X74444429Y-101389769D01*
X74255751Y-101368040D01*
X72236951Y-101150481D01*
X70205338Y-100965544D01*
X68169656Y-100813872D01*
X66138652Y-100696105D01*
X64121070Y-100612885D01*
X63838667Y-100603982D01*
X63559790Y-100596574D01*
X63242299Y-100590007D01*
X62889901Y-100584272D01*
X62506307Y-100579360D01*
X62095226Y-100575262D01*
X61660367Y-100571970D01*
X61205439Y-100569473D01*
X60734153Y-100567765D01*
X60250217Y-100566835D01*
X59757342Y-100566675D01*
X59259235Y-100567276D01*
X58759608Y-100568630D01*
X58262169Y-100570726D01*
X57770627Y-100573557D01*
X57288692Y-100577114D01*
X56820074Y-100581387D01*
X56368482Y-100586368D01*
X55937625Y-100592048D01*
X55531213Y-100598418D01*
X55152955Y-100605469D01*
X54806560Y-100613193D01*
X54495739Y-100621580D01*
X54334833Y-100626691D01*
X53320585Y-100666553D01*
X52272581Y-100718447D01*
X51197500Y-100781857D01*
X50102015Y-100856266D01*
X48992805Y-100941159D01*
X47876544Y-101036019D01*
X46759910Y-101140331D01*
X45649577Y-101253578D01*
X44552223Y-101375243D01*
X44354750Y-101398213D01*
X44115681Y-101425370D01*
X43915815Y-101446107D01*
X43752535Y-101460563D01*
X43623223Y-101468878D01*
X43525259Y-101471191D01*
X43456026Y-101467641D01*
X43412904Y-101458365D01*
X43397328Y-101449028D01*
X43391585Y-101436713D01*
X43391357Y-101414319D01*
X43397617Y-101379140D01*
X43411337Y-101328472D01*
X43433490Y-101259611D01*
X43465048Y-101169853D01*
X43506984Y-101056494D01*
X43560271Y-100916828D01*
X43625881Y-100748152D01*
X43704788Y-100547761D01*
X43797963Y-100312952D01*
X43879741Y-100107750D01*
X43988596Y-99836030D01*
X44083545Y-99601443D01*
X44165668Y-99401531D01*
X44236044Y-99233837D01*
X44295753Y-99095901D01*
X44345874Y-98985264D01*
X44387489Y-98899470D01*
X44421676Y-98836059D01*
X44449516Y-98792572D01*
X44466464Y-98771983D01*
X44480533Y-98759070D01*
X44498476Y-98747696D01*
X44524072Y-98737284D01*
X44561101Y-98727259D01*
X44613341Y-98717046D01*
X44684572Y-98706069D01*
X44778572Y-98693751D01*
X44899121Y-98679518D01*
X45049997Y-98662794D01*
X45234980Y-98643003D01*
X45457848Y-98619570D01*
X45487167Y-98616502D01*
X46344649Y-98529343D01*
X47201733Y-98447249D01*
X48054750Y-98370471D01*
X48900031Y-98299260D01*
X49733907Y-98233869D01*
X50552710Y-98174550D01*
X51352770Y-98121554D01*
X52130419Y-98075134D01*
X52881987Y-98035541D01*
X53603807Y-98003028D01*
X54292208Y-97977846D01*
X54943523Y-97960248D01*
X55086250Y-97957327D01*
X55251422Y-97954654D01*
X55451766Y-97952260D01*
X55684689Y-97950139D01*
X55947602Y-97948285D01*
X56237913Y-97946693D01*
X56553030Y-97945357D01*
X56890363Y-97944271D01*
X57247321Y-97943431D01*
X57621312Y-97942830D01*
X58009745Y-97942462D01*
X58410030Y-97942323D01*
X58819574Y-97942407D01*
G36*
X60510265Y-94543060D02*
G01*
X61113540Y-94544964D01*
X61685064Y-94547967D01*
X62227482Y-94552137D01*
X62743437Y-94557539D01*
X63235572Y-94564239D01*
X63706532Y-94572303D01*
X64158959Y-94581797D01*
X64595498Y-94592788D01*
X65018791Y-94605340D01*
X65431484Y-94619519D01*
X65836219Y-94635393D01*
X66235639Y-94653026D01*
X66632390Y-94672485D01*
X67029114Y-94693836D01*
X67428455Y-94717144D01*
X67833057Y-94742475D01*
X68245563Y-94769896D01*
X68622333Y-94796171D01*
X68857697Y-94813090D01*
X69084800Y-94829805D01*
X69307633Y-94846658D01*
X69530183Y-94863988D01*
X69756440Y-94882136D01*
X69990394Y-94901443D01*
X70236034Y-94922250D01*
X70497348Y-94944895D01*
X70778327Y-94969721D01*
X71082959Y-94997068D01*
X71415234Y-95027275D01*
X71779140Y-95060684D01*
X72178668Y-95097635D01*
X72451679Y-95123000D01*
X72620559Y-95140004D01*
X72752627Y-95156107D01*
X72846319Y-95171079D01*
X72900070Y-95184688D01*
X72911565Y-95190994D01*
X72924963Y-95215173D01*
X72953064Y-95273998D01*
X72993990Y-95363165D01*
X73045867Y-95478368D01*
X73106815Y-95615302D01*
X73174960Y-95769663D01*
X73248423Y-95937144D01*
X73325329Y-96113441D01*
X73403799Y-96294249D01*
X73481959Y-96475262D01*
X73557930Y-96652176D01*
X73629836Y-96820686D01*
X73695800Y-96976486D01*
X73753945Y-97115271D01*
X73802395Y-97232736D01*
X73812588Y-97257811D01*
X73855867Y-97366845D01*
X73883707Y-97443590D01*
X73897826Y-97494456D01*
X73899941Y-97525856D01*
X73891769Y-97544202D01*
X73889808Y-97546182D01*
X73876167Y-97551629D01*
X73847524Y-97554416D01*
X73800778Y-97554302D01*
X73732828Y-97551046D01*
X73640573Y-97544406D01*
X73520910Y-97534141D01*
X73370740Y-97520009D01*
X73186959Y-97501770D01*
X72966468Y-97479180D01*
X72781583Y-97459914D01*
X71910676Y-97370856D01*
X71075227Y-97290004D01*
X70269244Y-97216953D01*
X69486737Y-97151296D01*
X68721714Y-97092628D01*
X67968185Y-97040545D01*
X67220158Y-96994640D01*
X66471643Y-96954509D01*
X65716649Y-96919746D01*
X64949185Y-96889945D01*
X64163260Y-96864702D01*
X63859833Y-96856255D01*
X63710190Y-96852931D01*
X63521506Y-96849858D01*
X63296851Y-96847035D01*
X63039292Y-96844464D01*
X62751899Y-96842143D01*
X62437742Y-96840073D01*
X62099889Y-96838254D01*
X61741409Y-96836686D01*
X61365372Y-96835369D01*
X60974846Y-96834302D01*
X60572900Y-96833486D01*
X60162604Y-96832921D01*
X59747027Y-96832607D01*
X59329238Y-96832543D01*
X58912305Y-96832731D01*
X58499298Y-96833169D01*
X58093286Y-96833857D01*
X57697339Y-96834797D01*
X57314524Y-96835987D01*
X56947911Y-96837428D01*
X56600569Y-96839119D01*
X56275568Y-96841062D01*
X55975975Y-96843255D01*
X55704861Y-96845698D01*
X55465295Y-96848393D01*
X55260345Y-96851338D01*
X55093081Y-96854534D01*
X55022750Y-96856274D01*
X54449400Y-96873374D01*
X53871619Y-96893326D01*
X53294800Y-96915862D01*
X52724331Y-96940714D01*
X52165604Y-96967614D01*
X51624009Y-96996294D01*
X51104937Y-97026486D01*
X50613778Y-97057921D01*
X50155923Y-97090332D01*
X49868667Y-97112606D01*
X49536581Y-97139454D01*
X49241055Y-97163527D01*
X48976444Y-97185325D01*
X48737099Y-97205344D01*
X48517375Y-97224083D01*
X48311626Y-97242040D01*
X48114204Y-97259713D01*
X47919464Y-97277599D01*
X47721758Y-97296196D01*
X47515441Y-97316003D01*
X47294866Y-97337517D01*
X47095833Y-97357135D01*
X46920549Y-97374565D01*
X46730866Y-97393588D01*
X46531584Y-97413710D01*
X46327505Y-97434436D01*
X46123428Y-97455271D01*
X45924154Y-97475719D01*
X45734485Y-97495286D01*
X45559219Y-97513477D01*
X45403159Y-97529797D01*
X45271104Y-97543751D01*
X45167855Y-97554844D01*
X45098213Y-97562581D01*
X45070436Y-97565951D01*
X45011559Y-97564195D01*
X44979794Y-97547339D01*
X44972852Y-97532622D01*
X44972228Y-97509120D01*
X44979311Y-97472974D01*
X44995490Y-97420324D01*
X45022154Y-97347308D01*
X45060693Y-97250067D01*
X45112496Y-97124741D01*
X45178953Y-96967469D01*
X45239861Y-96824797D01*
X45382062Y-96493176D01*
X45508205Y-96200199D01*
X45618486Y-95945423D01*
X45713100Y-95728401D01*
X45792245Y-95548692D01*
X45856115Y-95405849D01*
X45904908Y-95299429D01*
X45938818Y-95228987D01*
X45958043Y-95194079D01*
X45960658Y-95190771D01*
X45988162Y-95182366D01*
X46054991Y-95171078D01*
X46158255Y-95157161D01*
X46295060Y-95140871D01*
X46462517Y-95122463D01*
X46657733Y-95102193D01*
X46877817Y-95080315D01*
X47119878Y-95057085D01*
X47381023Y-95032758D01*
X47658363Y-95007590D01*
X47949004Y-94981835D01*
X48250056Y-94955750D01*
X48558627Y-94929589D01*
X48871826Y-94903607D01*
X49186761Y-94878060D01*
X49500541Y-94853203D01*
X49810275Y-94829292D01*
X50113070Y-94806581D01*
X50406036Y-94785326D01*
X50686280Y-94765782D01*
X50950912Y-94748205D01*
X51032833Y-94742974D01*
X51456727Y-94716834D01*
X51866091Y-94692978D01*
X52264571Y-94671309D01*
X52655813Y-94651730D01*
X53043461Y-94634142D01*
X53431161Y-94618447D01*
X53822558Y-94604549D01*
X54221297Y-94592349D01*
X54631024Y-94581750D01*
X55055383Y-94572654D01*
X55498020Y-94564963D01*
X55962581Y-94558579D01*
X56452709Y-94553406D01*
X56972051Y-94549345D01*
X57524252Y-94546298D01*
X58112957Y-94544168D01*
X58483500Y-94543293D01*
X59197888Y-94542291D01*
X59872595Y-94542191D01*
X60510265Y-94543060D01*
X60510265Y-94543060D01*
G37*
X60510265Y-94543060D02*
X61113540Y-94544964D01*
X61685064Y-94547967D01*
X62227482Y-94552137D01*
X62743437Y-94557539D01*
X63235572Y-94564239D01*
X63706532Y-94572303D01*
X64158959Y-94581797D01*
X64595498Y-94592788D01*
X65018791Y-94605340D01*
X65431484Y-94619519D01*
X65836219Y-94635393D01*
X66235639Y-94653026D01*
X66632390Y-94672485D01*
X67029114Y-94693836D01*
X67428455Y-94717144D01*
X67833057Y-94742475D01*
X68245563Y-94769896D01*
X68622333Y-94796171D01*
X68857697Y-94813090D01*
X69084800Y-94829805D01*
X69307633Y-94846658D01*
X69530183Y-94863988D01*
X69756440Y-94882136D01*
X69990394Y-94901443D01*
X70236034Y-94922250D01*
X70497348Y-94944895D01*
X70778327Y-94969721D01*
X71082959Y-94997068D01*
X71415234Y-95027275D01*
X71779140Y-95060684D01*
X72178668Y-95097635D01*
X72451679Y-95123000D01*
X72620559Y-95140004D01*
X72752627Y-95156107D01*
X72846319Y-95171079D01*
X72900070Y-95184688D01*
X72911565Y-95190994D01*
X72924963Y-95215173D01*
X72953064Y-95273998D01*
X72993990Y-95363165D01*
X73045867Y-95478368D01*
X73106815Y-95615302D01*
X73174960Y-95769663D01*
X73248423Y-95937144D01*
X73325329Y-96113441D01*
X73403799Y-96294249D01*
X73481959Y-96475262D01*
X73557930Y-96652176D01*
X73629836Y-96820686D01*
X73695800Y-96976486D01*
X73753945Y-97115271D01*
X73802395Y-97232736D01*
X73812588Y-97257811D01*
X73855867Y-97366845D01*
X73883707Y-97443590D01*
X73897826Y-97494456D01*
X73899941Y-97525856D01*
X73891769Y-97544202D01*
X73889808Y-97546182D01*
X73876167Y-97551629D01*
X73847524Y-97554416D01*
X73800778Y-97554302D01*
X73732828Y-97551046D01*
X73640573Y-97544406D01*
X73520910Y-97534141D01*
X73370740Y-97520009D01*
X73186959Y-97501770D01*
X72966468Y-97479180D01*
X72781583Y-97459914D01*
X71910676Y-97370856D01*
X71075227Y-97290004D01*
X70269244Y-97216953D01*
X69486737Y-97151296D01*
X68721714Y-97092628D01*
X67968185Y-97040545D01*
X67220158Y-96994640D01*
X66471643Y-96954509D01*
X65716649Y-96919746D01*
X64949185Y-96889945D01*
X64163260Y-96864702D01*
X63859833Y-96856255D01*
X63710190Y-96852931D01*
X63521506Y-96849858D01*
X63296851Y-96847035D01*
X63039292Y-96844464D01*
X62751899Y-96842143D01*
X62437742Y-96840073D01*
X62099889Y-96838254D01*
X61741409Y-96836686D01*
X61365372Y-96835369D01*
X60974846Y-96834302D01*
X60572900Y-96833486D01*
X60162604Y-96832921D01*
X59747027Y-96832607D01*
X59329238Y-96832543D01*
X58912305Y-96832731D01*
X58499298Y-96833169D01*
X58093286Y-96833857D01*
X57697339Y-96834797D01*
X57314524Y-96835987D01*
X56947911Y-96837428D01*
X56600569Y-96839119D01*
X56275568Y-96841062D01*
X55975975Y-96843255D01*
X55704861Y-96845698D01*
X55465295Y-96848393D01*
X55260345Y-96851338D01*
X55093081Y-96854534D01*
X55022750Y-96856274D01*
X54449400Y-96873374D01*
X53871619Y-96893326D01*
X53294800Y-96915862D01*
X52724331Y-96940714D01*
X52165604Y-96967614D01*
X51624009Y-96996294D01*
X51104937Y-97026486D01*
X50613778Y-97057921D01*
X50155923Y-97090332D01*
X49868667Y-97112606D01*
X49536581Y-97139454D01*
X49241055Y-97163527D01*
X48976444Y-97185325D01*
X48737099Y-97205344D01*
X48517375Y-97224083D01*
X48311626Y-97242040D01*
X48114204Y-97259713D01*
X47919464Y-97277599D01*
X47721758Y-97296196D01*
X47515441Y-97316003D01*
X47294866Y-97337517D01*
X47095833Y-97357135D01*
X46920549Y-97374565D01*
X46730866Y-97393588D01*
X46531584Y-97413710D01*
X46327505Y-97434436D01*
X46123428Y-97455271D01*
X45924154Y-97475719D01*
X45734485Y-97495286D01*
X45559219Y-97513477D01*
X45403159Y-97529797D01*
X45271104Y-97543751D01*
X45167855Y-97554844D01*
X45098213Y-97562581D01*
X45070436Y-97565951D01*
X45011559Y-97564195D01*
X44979794Y-97547339D01*
X44972852Y-97532622D01*
X44972228Y-97509120D01*
X44979311Y-97472974D01*
X44995490Y-97420324D01*
X45022154Y-97347308D01*
X45060693Y-97250067D01*
X45112496Y-97124741D01*
X45178953Y-96967469D01*
X45239861Y-96824797D01*
X45382062Y-96493176D01*
X45508205Y-96200199D01*
X45618486Y-95945423D01*
X45713100Y-95728401D01*
X45792245Y-95548692D01*
X45856115Y-95405849D01*
X45904908Y-95299429D01*
X45938818Y-95228987D01*
X45958043Y-95194079D01*
X45960658Y-95190771D01*
X45988162Y-95182366D01*
X46054991Y-95171078D01*
X46158255Y-95157161D01*
X46295060Y-95140871D01*
X46462517Y-95122463D01*
X46657733Y-95102193D01*
X46877817Y-95080315D01*
X47119878Y-95057085D01*
X47381023Y-95032758D01*
X47658363Y-95007590D01*
X47949004Y-94981835D01*
X48250056Y-94955750D01*
X48558627Y-94929589D01*
X48871826Y-94903607D01*
X49186761Y-94878060D01*
X49500541Y-94853203D01*
X49810275Y-94829292D01*
X50113070Y-94806581D01*
X50406036Y-94785326D01*
X50686280Y-94765782D01*
X50950912Y-94748205D01*
X51032833Y-94742974D01*
X51456727Y-94716834D01*
X51866091Y-94692978D01*
X52264571Y-94671309D01*
X52655813Y-94651730D01*
X53043461Y-94634142D01*
X53431161Y-94618447D01*
X53822558Y-94604549D01*
X54221297Y-94592349D01*
X54631024Y-94581750D01*
X55055383Y-94572654D01*
X55498020Y-94564963D01*
X55962581Y-94558579D01*
X56452709Y-94553406D01*
X56972051Y-94549345D01*
X57524252Y-94546298D01*
X58112957Y-94544168D01*
X58483500Y-94543293D01*
X59197888Y-94542291D01*
X59872595Y-94542191D01*
X60510265Y-94543060D01*
G36*
X61161283Y-91190177D02*
G01*
X61601330Y-91190349D01*
X62028629Y-91190683D01*
X62440974Y-91191183D01*
X62836164Y-91191851D01*
X63211994Y-91192692D01*
X63566262Y-91193709D01*
X63896764Y-91194906D01*
X64201296Y-91196285D01*
X64477657Y-91197851D01*
X64723641Y-91199606D01*
X64937046Y-91201555D01*
X65115668Y-91203701D01*
X65226789Y-91205465D01*
X65775263Y-91217435D01*
X66308354Y-91233012D01*
X66823910Y-91252031D01*
X67319780Y-91274328D01*
X67793815Y-91299739D01*
X68243863Y-91328099D01*
X68667774Y-91359245D01*
X69063397Y-91393012D01*
X69428581Y-91429235D01*
X69761176Y-91467751D01*
X70059031Y-91508395D01*
X70319996Y-91551003D01*
X70541919Y-91595410D01*
X70640719Y-91619041D01*
X70803343Y-91663639D01*
X70930766Y-91706028D01*
X71029800Y-91749186D01*
X71107258Y-91796089D01*
X71169954Y-91849714D01*
X71170945Y-91850714D01*
X71215627Y-91904216D01*
X71274598Y-91987485D01*
X71345566Y-92096324D01*
X71426239Y-92226535D01*
X71514325Y-92373921D01*
X71607532Y-92534284D01*
X71703567Y-92703428D01*
X71800140Y-92877154D01*
X71894957Y-93051265D01*
X71985728Y-93221565D01*
X72070160Y-93383855D01*
X72145960Y-93533939D01*
X72210838Y-93667618D01*
X72262501Y-93780696D01*
X72298657Y-93868976D01*
X72317015Y-93928259D01*
X72317796Y-93950983D01*
X72308127Y-93965248D01*
X72287561Y-93974418D01*
X72249196Y-93979029D01*
X72186131Y-93979623D01*
X72091467Y-93976738D01*
X72024331Y-93973903D01*
X71930458Y-93968587D01*
X71802708Y-93959655D01*
X71649321Y-93947773D01*
X71478536Y-93933607D01*
X71298593Y-93917826D01*
X71117731Y-93901096D01*
X71077667Y-93897261D01*
X70619681Y-93854459D01*
X70151037Y-93813353D01*
X69668400Y-93773716D01*
X69168435Y-93735320D01*
X68647808Y-93697937D01*
X68103184Y-93661339D01*
X67531228Y-93625298D01*
X66928606Y-93589587D01*
X66291983Y-93553978D01*
X65618024Y-93518243D01*
X65267417Y-93500329D01*
X65181377Y-93496222D01*
X65090785Y-93492415D01*
X64993767Y-93488893D01*
X64888444Y-93485639D01*
X64772942Y-93482638D01*
X64645382Y-93479876D01*
X64503890Y-93477335D01*
X64346589Y-93475002D01*
X64171603Y-93472860D01*
X63977054Y-93470893D01*
X63761067Y-93469088D01*
X63521766Y-93467427D01*
X63257274Y-93465895D01*
X62965715Y-93464478D01*
X62645213Y-93463159D01*
X62293891Y-93461922D01*
X61909872Y-93460754D01*
X61491282Y-93459637D01*
X61036242Y-93458557D01*
X60542877Y-93457498D01*
X60009311Y-93456444D01*
X59933417Y-93456300D01*
X59371043Y-93455280D01*
X58848845Y-93454438D01*
X58364667Y-93453796D01*
X57916351Y-93453375D01*
X57501741Y-93453199D01*
X57118681Y-93453288D01*
X56765013Y-93453665D01*
X56438580Y-93454352D01*
X56137226Y-93455370D01*
X55858794Y-93456742D01*
X55601127Y-93458491D01*
X55362069Y-93460637D01*
X55139462Y-93463202D01*
X54931151Y-93466210D01*
X54734977Y-93469682D01*
X54548784Y-93473639D01*
X54370416Y-93478105D01*
X54197716Y-93483100D01*
X54028527Y-93488647D01*
X53860691Y-93494768D01*
X53692053Y-93501485D01*
X53520456Y-93508820D01*
X53343742Y-93516794D01*
X53160083Y-93525416D01*
X51873074Y-93592886D01*
X50614283Y-93671494D01*
X49370849Y-93762146D01*
X48129911Y-93865748D01*
X47467788Y-93926314D01*
X47237892Y-93947233D01*
X47047005Y-93962862D01*
X46892144Y-93973266D01*
X46770325Y-93978509D01*
X46678564Y-93978658D01*
X46613877Y-93973776D01*
X46573281Y-93963928D01*
X46553792Y-93949180D01*
X46552369Y-93946203D01*
X46557157Y-93914419D01*
X46580912Y-93850143D01*
X46621434Y-93757541D01*
X46676522Y-93640783D01*
X46743976Y-93504035D01*
X46821594Y-93351466D01*
X46907176Y-93187245D01*
X46998522Y-93015538D01*
X47093431Y-92840515D01*
X47189702Y-92666342D01*
X47285136Y-92497189D01*
X47377530Y-92337222D01*
X47464685Y-92190611D01*
X47544400Y-92061523D01*
X47562084Y-92033761D01*
X47622864Y-91946603D01*
X47686167Y-91868349D01*
X47742152Y-91810827D01*
X47758882Y-91797281D01*
X47862641Y-91738665D01*
X48008636Y-91682538D01*
X48196842Y-91628903D01*
X48427235Y-91577762D01*
X48699791Y-91529118D01*
X49014484Y-91482975D01*
X49371290Y-91439335D01*
X49770185Y-91398202D01*
X50211144Y-91359578D01*
X50694143Y-91323466D01*
X51219158Y-91289869D01*
X51786163Y-91258790D01*
X52395134Y-91230233D01*
X52503917Y-91225583D01*
X52588958Y-91222913D01*
X52714129Y-91220321D01*
X52877227Y-91217811D01*
X53076048Y-91215386D01*
X53308389Y-91213050D01*
X53572047Y-91210806D01*
X53864818Y-91208658D01*
X54184500Y-91206609D01*
X54528888Y-91204664D01*
X54895780Y-91202824D01*
X55282972Y-91201094D01*
X55688261Y-91199477D01*
X56109444Y-91197977D01*
X56544316Y-91196598D01*
X56990676Y-91195342D01*
X57446320Y-91194213D01*
X57909043Y-91193214D01*
X58376644Y-91192350D01*
X58846919Y-91191623D01*
X59317664Y-91191038D01*
X59786676Y-91190597D01*
X60251752Y-91190304D01*
X60710689Y-91190163D01*
X61161283Y-91190177D01*
X61161283Y-91190177D01*
G37*
X61161283Y-91190177D02*
X61601330Y-91190349D01*
X62028629Y-91190683D01*
X62440974Y-91191183D01*
X62836164Y-91191851D01*
X63211994Y-91192692D01*
X63566262Y-91193709D01*
X63896764Y-91194906D01*
X64201296Y-91196285D01*
X64477657Y-91197851D01*
X64723641Y-91199606D01*
X64937046Y-91201555D01*
X65115668Y-91203701D01*
X65226789Y-91205465D01*
X65775263Y-91217435D01*
X66308354Y-91233012D01*
X66823910Y-91252031D01*
X67319780Y-91274328D01*
X67793815Y-91299739D01*
X68243863Y-91328099D01*
X68667774Y-91359245D01*
X69063397Y-91393012D01*
X69428581Y-91429235D01*
X69761176Y-91467751D01*
X70059031Y-91508395D01*
X70319996Y-91551003D01*
X70541919Y-91595410D01*
X70640719Y-91619041D01*
X70803343Y-91663639D01*
X70930766Y-91706028D01*
X71029800Y-91749186D01*
X71107258Y-91796089D01*
X71169954Y-91849714D01*
X71170945Y-91850714D01*
X71215627Y-91904216D01*
X71274598Y-91987485D01*
X71345566Y-92096324D01*
X71426239Y-92226535D01*
X71514325Y-92373921D01*
X71607532Y-92534284D01*
X71703567Y-92703428D01*
X71800140Y-92877154D01*
X71894957Y-93051265D01*
X71985728Y-93221565D01*
X72070160Y-93383855D01*
X72145960Y-93533939D01*
X72210838Y-93667618D01*
X72262501Y-93780696D01*
X72298657Y-93868976D01*
X72317015Y-93928259D01*
X72317796Y-93950983D01*
X72308127Y-93965248D01*
X72287561Y-93974418D01*
X72249196Y-93979029D01*
X72186131Y-93979623D01*
X72091467Y-93976738D01*
X72024331Y-93973903D01*
X71930458Y-93968587D01*
X71802708Y-93959655D01*
X71649321Y-93947773D01*
X71478536Y-93933607D01*
X71298593Y-93917826D01*
X71117731Y-93901096D01*
X71077667Y-93897261D01*
X70619681Y-93854459D01*
X70151037Y-93813353D01*
X69668400Y-93773716D01*
X69168435Y-93735320D01*
X68647808Y-93697937D01*
X68103184Y-93661339D01*
X67531228Y-93625298D01*
X66928606Y-93589587D01*
X66291983Y-93553978D01*
X65618024Y-93518243D01*
X65267417Y-93500329D01*
X65181377Y-93496222D01*
X65090785Y-93492415D01*
X64993767Y-93488893D01*
X64888444Y-93485639D01*
X64772942Y-93482638D01*
X64645382Y-93479876D01*
X64503890Y-93477335D01*
X64346589Y-93475002D01*
X64171603Y-93472860D01*
X63977054Y-93470893D01*
X63761067Y-93469088D01*
X63521766Y-93467427D01*
X63257274Y-93465895D01*
X62965715Y-93464478D01*
X62645213Y-93463159D01*
X62293891Y-93461922D01*
X61909872Y-93460754D01*
X61491282Y-93459637D01*
X61036242Y-93458557D01*
X60542877Y-93457498D01*
X60009311Y-93456444D01*
X59933417Y-93456300D01*
X59371043Y-93455280D01*
X58848845Y-93454438D01*
X58364667Y-93453796D01*
X57916351Y-93453375D01*
X57501741Y-93453199D01*
X57118681Y-93453288D01*
X56765013Y-93453665D01*
X56438580Y-93454352D01*
X56137226Y-93455370D01*
X55858794Y-93456742D01*
X55601127Y-93458491D01*
X55362069Y-93460637D01*
X55139462Y-93463202D01*
X54931151Y-93466210D01*
X54734977Y-93469682D01*
X54548784Y-93473639D01*
X54370416Y-93478105D01*
X54197716Y-93483100D01*
X54028527Y-93488647D01*
X53860691Y-93494768D01*
X53692053Y-93501485D01*
X53520456Y-93508820D01*
X53343742Y-93516794D01*
X53160083Y-93525416D01*
X51873074Y-93592886D01*
X50614283Y-93671494D01*
X49370849Y-93762146D01*
X48129911Y-93865748D01*
X47467788Y-93926314D01*
X47237892Y-93947233D01*
X47047005Y-93962862D01*
X46892144Y-93973266D01*
X46770325Y-93978509D01*
X46678564Y-93978658D01*
X46613877Y-93973776D01*
X46573281Y-93963928D01*
X46553792Y-93949180D01*
X46552369Y-93946203D01*
X46557157Y-93914419D01*
X46580912Y-93850143D01*
X46621434Y-93757541D01*
X46676522Y-93640783D01*
X46743976Y-93504035D01*
X46821594Y-93351466D01*
X46907176Y-93187245D01*
X46998522Y-93015538D01*
X47093431Y-92840515D01*
X47189702Y-92666342D01*
X47285136Y-92497189D01*
X47377530Y-92337222D01*
X47464685Y-92190611D01*
X47544400Y-92061523D01*
X47562084Y-92033761D01*
X47622864Y-91946603D01*
X47686167Y-91868349D01*
X47742152Y-91810827D01*
X47758882Y-91797281D01*
X47862641Y-91738665D01*
X48008636Y-91682538D01*
X48196842Y-91628903D01*
X48427235Y-91577762D01*
X48699791Y-91529118D01*
X49014484Y-91482975D01*
X49371290Y-91439335D01*
X49770185Y-91398202D01*
X50211144Y-91359578D01*
X50694143Y-91323466D01*
X51219158Y-91289869D01*
X51786163Y-91258790D01*
X52395134Y-91230233D01*
X52503917Y-91225583D01*
X52588958Y-91222913D01*
X52714129Y-91220321D01*
X52877227Y-91217811D01*
X53076048Y-91215386D01*
X53308389Y-91213050D01*
X53572047Y-91210806D01*
X53864818Y-91208658D01*
X54184500Y-91206609D01*
X54528888Y-91204664D01*
X54895780Y-91202824D01*
X55282972Y-91201094D01*
X55688261Y-91199477D01*
X56109444Y-91197977D01*
X56544316Y-91196598D01*
X56990676Y-91195342D01*
X57446320Y-91194213D01*
X57909043Y-91193214D01*
X58376644Y-91192350D01*
X58846919Y-91191623D01*
X59317664Y-91191038D01*
X59786676Y-91190597D01*
X60251752Y-91190304D01*
X60710689Y-91190163D01*
X61161283Y-91190177D01*
G36*
X51761010Y-44158958D02*
G01*
X51767615Y-44295714D01*
X51774086Y-44431293D01*
X51780473Y-44567030D01*
X51786826Y-44704263D01*
X51793194Y-44844327D01*
X51799629Y-44988558D01*
X51806181Y-45138292D01*
X51812899Y-45294864D01*
X51819833Y-45459612D01*
X51827035Y-45633872D01*
X51834554Y-45818978D01*
X51842440Y-46016267D01*
X51850743Y-46227076D01*
X51859515Y-46452740D01*
X51868804Y-46694595D01*
X51878661Y-46953977D01*
X51889136Y-47232222D01*
X51900280Y-47530667D01*
X51912142Y-47850647D01*
X51924773Y-48193498D01*
X51938223Y-48560557D01*
X51952542Y-48953159D01*
X51967781Y-49372641D01*
X51983989Y-49820337D01*
X52001216Y-50297586D01*
X52019514Y-50805721D01*
X52038931Y-51346080D01*
X52059518Y-51919999D01*
X52081326Y-52528813D01*
X52104405Y-53173859D01*
X52128804Y-53856472D01*
X52154574Y-54577989D01*
X52181765Y-55339745D01*
X52197267Y-55774167D01*
X52206901Y-56044050D01*
X52217682Y-56345786D01*
X52229236Y-56668918D01*
X52241188Y-57002994D01*
X52253164Y-57337558D01*
X52264790Y-57662156D01*
X52275693Y-57966333D01*
X52284373Y-58208333D01*
X52292715Y-58462170D01*
X52300416Y-58739307D01*
X52307477Y-59037245D01*
X52313898Y-59353482D01*
X52319680Y-59685517D01*
X52324823Y-60030849D01*
X52329326Y-60386978D01*
X52333191Y-60751403D01*
X52336418Y-61121622D01*
X52339007Y-61495135D01*
X52340957Y-61869441D01*
X52342270Y-62242040D01*
X52342946Y-62610429D01*
X52342985Y-62972109D01*
X52342387Y-63324579D01*
X52341152Y-63665337D01*
X52339281Y-63991883D01*
X52336774Y-64301716D01*
X52333631Y-64592334D01*
X52329853Y-64861238D01*
X52325440Y-65105926D01*
X52320392Y-65323898D01*
X52314709Y-65512652D01*
X52308392Y-65669687D01*
X52301440Y-65792503D01*
X52293855Y-65878599D01*
X52285636Y-65925475D01*
X52283547Y-65930653D01*
X52264514Y-65957279D01*
X52235947Y-65978492D01*
X52193195Y-65994957D01*
X52131606Y-66007343D01*
X52046527Y-66016317D01*
X51933306Y-66022544D01*
X51787291Y-66026692D01*
X51603829Y-66029428D01*
X51593750Y-66029538D01*
X51442481Y-66030819D01*
X51300183Y-66031376D01*
X51173965Y-66031230D01*
X51070935Y-66030404D01*
X50998203Y-66028922D01*
X50969333Y-66027523D01*
X50914440Y-66023327D01*
X50827541Y-66016977D01*
X50718866Y-66009206D01*
X50598642Y-66000750D01*
X50546000Y-65997091D01*
X50427295Y-65988647D01*
X50307749Y-65979642D01*
X50185856Y-65969889D01*
X50060113Y-65959203D01*
X49929014Y-65947397D01*
X49791055Y-65934284D01*
X49644730Y-65919680D01*
X49488534Y-65903397D01*
X49320963Y-65885249D01*
X49140512Y-65865051D01*
X48945676Y-65842615D01*
X48734950Y-65817756D01*
X48506829Y-65790287D01*
X48259808Y-65760023D01*
X47992382Y-65726777D01*
X47703047Y-65690362D01*
X47390298Y-65650593D01*
X47052629Y-65607284D01*
X46688536Y-65560248D01*
X46296514Y-65509298D01*
X45875058Y-65454250D01*
X45422664Y-65394916D01*
X44937825Y-65331110D01*
X44419038Y-65262647D01*
X43864797Y-65189339D01*
X43273598Y-65111001D01*
X42643936Y-65027447D01*
X41974305Y-64938490D01*
X41751250Y-64908841D01*
X41132587Y-64826653D01*
X40553863Y-64749912D01*
X40013064Y-64678381D01*
X39508180Y-64611824D01*
X39037197Y-64550005D01*
X38598103Y-64492688D01*
X38188887Y-64439638D01*
X37807536Y-64390619D01*
X37452038Y-64345393D01*
X37120382Y-64303727D01*
X36810553Y-64265384D01*
X36520542Y-64230127D01*
X36248335Y-64197721D01*
X35991920Y-64167930D01*
X35749286Y-64140519D01*
X35518419Y-64115250D01*
X35297308Y-64091889D01*
X35083941Y-64070199D01*
X34876306Y-64049945D01*
X34672389Y-64030891D01*
X34470180Y-64012800D01*
X34267667Y-63995436D01*
X34062836Y-63978565D01*
X33853675Y-63961950D01*
X33638174Y-63945354D01*
X33414319Y-63928543D01*
X33348083Y-63923633D01*
X33191660Y-63911821D01*
X33044567Y-63900254D01*
X32913469Y-63889490D01*
X32805031Y-63880091D01*
X32725919Y-63872616D01*
X32684358Y-63867861D01*
X32592133Y-63854347D01*
X32605491Y-63767132D01*
X32617057Y-63717552D01*
X32641131Y-63633725D01*
X32675836Y-63521219D01*
X32719300Y-63385600D01*
X32769645Y-63232437D01*
X32824997Y-63067298D01*
X32883481Y-62895749D01*
X32943221Y-62723359D01*
X33002342Y-62555695D01*
X33058969Y-62398326D01*
X33111227Y-62256818D01*
X33137465Y-62187667D01*
X33341729Y-61675340D01*
X33571673Y-61134446D01*
X33825404Y-60568543D01*
X34101030Y-59981186D01*
X34396657Y-59375931D01*
X34710394Y-58756335D01*
X35040348Y-58125955D01*
X35384627Y-57488347D01*
X35741336Y-56847066D01*
X36108585Y-56205670D01*
X36484481Y-55567715D01*
X36867130Y-54936757D01*
X37254641Y-54316352D01*
X37645121Y-53710058D01*
X37665679Y-53678667D01*
X38146091Y-52964172D01*
X38626173Y-52287523D01*
X39109205Y-51644388D01*
X39598469Y-51030434D01*
X40097244Y-50441329D01*
X40238010Y-50281417D01*
X40355944Y-50151699D01*
X40499378Y-49999058D01*
X40663058Y-49828713D01*
X40841733Y-49645885D01*
X41030148Y-49455796D01*
X41223051Y-49263664D01*
X41415190Y-49074712D01*
X41601311Y-48894160D01*
X41776163Y-48727228D01*
X41934492Y-48579138D01*
X42071045Y-48455109D01*
X42111083Y-48419782D01*
X42811567Y-47833317D01*
X43526109Y-47286582D01*
X44255784Y-46779013D01*
X45001664Y-46310047D01*
X45764822Y-45879121D01*
X46546333Y-45485673D01*
X47347270Y-45129138D01*
X48168706Y-44808955D01*
X49011714Y-44524559D01*
X49877368Y-44275387D01*
X50140084Y-44207810D01*
X50319213Y-44163719D01*
X50505967Y-44119112D01*
X50695135Y-44075118D01*
X50881503Y-44032866D01*
X51059860Y-43993483D01*
X51224993Y-43958099D01*
X51371689Y-43927842D01*
X51494737Y-43903840D01*
X51588924Y-43887222D01*
X51649037Y-43879117D01*
X51661143Y-43878500D01*
X51747394Y-43878500D01*
X51761010Y-44158958D01*
X51761010Y-44158958D01*
G37*
X51761010Y-44158958D02*
X51767615Y-44295714D01*
X51774086Y-44431293D01*
X51780473Y-44567030D01*
X51786826Y-44704263D01*
X51793194Y-44844327D01*
X51799629Y-44988558D01*
X51806181Y-45138292D01*
X51812899Y-45294864D01*
X51819833Y-45459612D01*
X51827035Y-45633872D01*
X51834554Y-45818978D01*
X51842440Y-46016267D01*
X51850743Y-46227076D01*
X51859515Y-46452740D01*
X51868804Y-46694595D01*
X51878661Y-46953977D01*
X51889136Y-47232222D01*
X51900280Y-47530667D01*
X51912142Y-47850647D01*
X51924773Y-48193498D01*
X51938223Y-48560557D01*
X51952542Y-48953159D01*
X51967781Y-49372641D01*
X51983989Y-49820337D01*
X52001216Y-50297586D01*
X52019514Y-50805721D01*
X52038931Y-51346080D01*
X52059518Y-51919999D01*
X52081326Y-52528813D01*
X52104405Y-53173859D01*
X52128804Y-53856472D01*
X52154574Y-54577989D01*
X52181765Y-55339745D01*
X52197267Y-55774167D01*
X52206901Y-56044050D01*
X52217682Y-56345786D01*
X52229236Y-56668918D01*
X52241188Y-57002994D01*
X52253164Y-57337558D01*
X52264790Y-57662156D01*
X52275693Y-57966333D01*
X52284373Y-58208333D01*
X52292715Y-58462170D01*
X52300416Y-58739307D01*
X52307477Y-59037245D01*
X52313898Y-59353482D01*
X52319680Y-59685517D01*
X52324823Y-60030849D01*
X52329326Y-60386978D01*
X52333191Y-60751403D01*
X52336418Y-61121622D01*
X52339007Y-61495135D01*
X52340957Y-61869441D01*
X52342270Y-62242040D01*
X52342946Y-62610429D01*
X52342985Y-62972109D01*
X52342387Y-63324579D01*
X52341152Y-63665337D01*
X52339281Y-63991883D01*
X52336774Y-64301716D01*
X52333631Y-64592334D01*
X52329853Y-64861238D01*
X52325440Y-65105926D01*
X52320392Y-65323898D01*
X52314709Y-65512652D01*
X52308392Y-65669687D01*
X52301440Y-65792503D01*
X52293855Y-65878599D01*
X52285636Y-65925475D01*
X52283547Y-65930653D01*
X52264514Y-65957279D01*
X52235947Y-65978492D01*
X52193195Y-65994957D01*
X52131606Y-66007343D01*
X52046527Y-66016317D01*
X51933306Y-66022544D01*
X51787291Y-66026692D01*
X51603829Y-66029428D01*
X51593750Y-66029538D01*
X51442481Y-66030819D01*
X51300183Y-66031376D01*
X51173965Y-66031230D01*
X51070935Y-66030404D01*
X50998203Y-66028922D01*
X50969333Y-66027523D01*
X50914440Y-66023327D01*
X50827541Y-66016977D01*
X50718866Y-66009206D01*
X50598642Y-66000750D01*
X50546000Y-65997091D01*
X50427295Y-65988647D01*
X50307749Y-65979642D01*
X50185856Y-65969889D01*
X50060113Y-65959203D01*
X49929014Y-65947397D01*
X49791055Y-65934284D01*
X49644730Y-65919680D01*
X49488534Y-65903397D01*
X49320963Y-65885249D01*
X49140512Y-65865051D01*
X48945676Y-65842615D01*
X48734950Y-65817756D01*
X48506829Y-65790287D01*
X48259808Y-65760023D01*
X47992382Y-65726777D01*
X47703047Y-65690362D01*
X47390298Y-65650593D01*
X47052629Y-65607284D01*
X46688536Y-65560248D01*
X46296514Y-65509298D01*
X45875058Y-65454250D01*
X45422664Y-65394916D01*
X44937825Y-65331110D01*
X44419038Y-65262647D01*
X43864797Y-65189339D01*
X43273598Y-65111001D01*
X42643936Y-65027447D01*
X41974305Y-64938490D01*
X41751250Y-64908841D01*
X41132587Y-64826653D01*
X40553863Y-64749912D01*
X40013064Y-64678381D01*
X39508180Y-64611824D01*
X39037197Y-64550005D01*
X38598103Y-64492688D01*
X38188887Y-64439638D01*
X37807536Y-64390619D01*
X37452038Y-64345393D01*
X37120382Y-64303727D01*
X36810553Y-64265384D01*
X36520542Y-64230127D01*
X36248335Y-64197721D01*
X35991920Y-64167930D01*
X35749286Y-64140519D01*
X35518419Y-64115250D01*
X35297308Y-64091889D01*
X35083941Y-64070199D01*
X34876306Y-64049945D01*
X34672389Y-64030891D01*
X34470180Y-64012800D01*
X34267667Y-63995436D01*
X34062836Y-63978565D01*
X33853675Y-63961950D01*
X33638174Y-63945354D01*
X33414319Y-63928543D01*
X33348083Y-63923633D01*
X33191660Y-63911821D01*
X33044567Y-63900254D01*
X32913469Y-63889490D01*
X32805031Y-63880091D01*
X32725919Y-63872616D01*
X32684358Y-63867861D01*
X32592133Y-63854347D01*
X32605491Y-63767132D01*
X32617057Y-63717552D01*
X32641131Y-63633725D01*
X32675836Y-63521219D01*
X32719300Y-63385600D01*
X32769645Y-63232437D01*
X32824997Y-63067298D01*
X32883481Y-62895749D01*
X32943221Y-62723359D01*
X33002342Y-62555695D01*
X33058969Y-62398326D01*
X33111227Y-62256818D01*
X33137465Y-62187667D01*
X33341729Y-61675340D01*
X33571673Y-61134446D01*
X33825404Y-60568543D01*
X34101030Y-59981186D01*
X34396657Y-59375931D01*
X34710394Y-58756335D01*
X35040348Y-58125955D01*
X35384627Y-57488347D01*
X35741336Y-56847066D01*
X36108585Y-56205670D01*
X36484481Y-55567715D01*
X36867130Y-54936757D01*
X37254641Y-54316352D01*
X37645121Y-53710058D01*
X37665679Y-53678667D01*
X38146091Y-52964172D01*
X38626173Y-52287523D01*
X39109205Y-51644388D01*
X39598469Y-51030434D01*
X40097244Y-50441329D01*
X40238010Y-50281417D01*
X40355944Y-50151699D01*
X40499378Y-49999058D01*
X40663058Y-49828713D01*
X40841733Y-49645885D01*
X41030148Y-49455796D01*
X41223051Y-49263664D01*
X41415190Y-49074712D01*
X41601311Y-48894160D01*
X41776163Y-48727228D01*
X41934492Y-48579138D01*
X42071045Y-48455109D01*
X42111083Y-48419782D01*
X42811567Y-47833317D01*
X43526109Y-47286582D01*
X44255784Y-46779013D01*
X45001664Y-46310047D01*
X45764822Y-45879121D01*
X46546333Y-45485673D01*
X47347270Y-45129138D01*
X48168706Y-44808955D01*
X49011714Y-44524559D01*
X49877368Y-44275387D01*
X50140084Y-44207810D01*
X50319213Y-44163719D01*
X50505967Y-44119112D01*
X50695135Y-44075118D01*
X50881503Y-44032866D01*
X51059860Y-43993483D01*
X51224993Y-43958099D01*
X51371689Y-43927842D01*
X51494737Y-43903840D01*
X51588924Y-43887222D01*
X51649037Y-43879117D01*
X51661143Y-43878500D01*
X51747394Y-43878500D01*
X51761010Y-44158958D01*
G36*
X67259829Y-43883465D02*
G01*
X67348114Y-43897677D01*
X67467875Y-43920108D01*
X67614315Y-43949732D01*
X67782639Y-43985520D01*
X67968050Y-44026447D01*
X68165752Y-44071484D01*
X68370949Y-44119605D01*
X68578846Y-44169783D01*
X68651155Y-44187591D01*
X69528357Y-44424652D01*
X70380514Y-44695486D01*
X71209031Y-45000814D01*
X72015315Y-45341354D01*
X72800772Y-45717829D01*
X73566809Y-46130959D01*
X74314831Y-46581464D01*
X75046244Y-47070066D01*
X75762456Y-47597485D01*
X76464872Y-48164441D01*
X76546791Y-48233879D01*
X76958109Y-48596285D01*
X77380198Y-48991043D01*
X77806882Y-49411716D01*
X78231987Y-49851864D01*
X78649337Y-50305046D01*
X79052757Y-50764824D01*
X79436071Y-51224757D01*
X79545572Y-51360989D01*
X79893160Y-51809199D01*
X80250949Y-52293421D01*
X80616780Y-52809867D01*
X80988493Y-53354748D01*
X81363927Y-53924275D01*
X81740923Y-54514660D01*
X82117320Y-55122114D01*
X82490959Y-55742849D01*
X82859678Y-56373077D01*
X83221319Y-57009008D01*
X83573722Y-57646854D01*
X83914725Y-58282827D01*
X84242170Y-58913138D01*
X84553896Y-59533999D01*
X84847743Y-60141621D01*
X85121551Y-60732215D01*
X85373160Y-61301994D01*
X85600410Y-61847168D01*
X85766820Y-62272550D01*
X85816389Y-62406059D01*
X85870813Y-62557021D01*
X85928192Y-62719758D01*
X85986631Y-62888592D01*
X86044230Y-63057845D01*
X86099092Y-63221839D01*
X86149319Y-63374897D01*
X86193012Y-63511340D01*
X86228275Y-63625490D01*
X86253209Y-63711671D01*
X86265917Y-63764203D01*
X86266403Y-63767132D01*
X86279866Y-63854347D01*
X86187641Y-63867532D01*
X86137927Y-63873213D01*
X86054269Y-63881200D01*
X85944949Y-63890771D01*
X85818248Y-63901202D01*
X85682449Y-63911769D01*
X85672083Y-63912551D01*
X85420401Y-63931645D01*
X85179196Y-63950347D01*
X84946344Y-63968904D01*
X84719721Y-63987562D01*
X84497202Y-64006571D01*
X84276664Y-64026176D01*
X84055982Y-64046625D01*
X83833032Y-64068165D01*
X83605690Y-64091044D01*
X83371832Y-64115509D01*
X83129333Y-64141808D01*
X82876070Y-64170187D01*
X82609919Y-64200894D01*
X82328754Y-64234177D01*
X82030453Y-64270282D01*
X81712890Y-64309457D01*
X81373942Y-64351949D01*
X81011485Y-64398006D01*
X80623394Y-64447874D01*
X80207546Y-64501802D01*
X79761815Y-64560037D01*
X79284079Y-64622825D01*
X78772212Y-64690414D01*
X78224091Y-64763052D01*
X77637591Y-64840986D01*
X77216000Y-64897101D01*
X76520472Y-64989665D01*
X75865392Y-65076708D01*
X75249264Y-65158417D01*
X74670589Y-65234980D01*
X74127869Y-65306584D01*
X73619607Y-65373416D01*
X73144304Y-65435664D01*
X72700463Y-65493514D01*
X72286586Y-65547154D01*
X71901174Y-65596772D01*
X71542731Y-65642554D01*
X71209759Y-65684688D01*
X70900758Y-65723361D01*
X70614233Y-65758760D01*
X70348684Y-65791073D01*
X70102614Y-65820487D01*
X69874525Y-65847189D01*
X69662919Y-65871367D01*
X69466298Y-65893207D01*
X69283165Y-65912898D01*
X69112022Y-65930626D01*
X68951370Y-65946578D01*
X68799712Y-65960943D01*
X68655551Y-65973907D01*
X68517387Y-65985657D01*
X68495333Y-65987470D01*
X68354287Y-65997465D01*
X68191147Y-66006446D01*
X68012439Y-66014284D01*
X67824690Y-66020847D01*
X67634428Y-66026006D01*
X67448179Y-66029630D01*
X67272469Y-66031587D01*
X67113826Y-66031748D01*
X66978776Y-66029983D01*
X66873846Y-66026160D01*
X66812583Y-66021116D01*
X66702882Y-66001241D01*
X66629871Y-65973092D01*
X66588332Y-65934370D01*
X66580641Y-65918880D01*
X66573018Y-65877794D01*
X66566014Y-65796920D01*
X66559626Y-65678799D01*
X66553853Y-65525971D01*
X66548690Y-65340978D01*
X66544137Y-65126360D01*
X66540191Y-64884658D01*
X66536849Y-64618412D01*
X66534109Y-64330165D01*
X66531968Y-64022455D01*
X66530425Y-63697825D01*
X66529475Y-63358814D01*
X66529118Y-63007965D01*
X66529351Y-62647816D01*
X66530171Y-62280910D01*
X66531576Y-61909787D01*
X66533564Y-61536988D01*
X66536131Y-61165054D01*
X66539276Y-60796525D01*
X66542996Y-60433942D01*
X66547289Y-60079846D01*
X66552153Y-59736777D01*
X66557584Y-59407278D01*
X66563581Y-59093888D01*
X66570141Y-58799148D01*
X66577261Y-58525598D01*
X66584940Y-58275781D01*
X66588019Y-58187167D01*
X66593718Y-58028707D01*
X66600815Y-57831067D01*
X66609199Y-57597371D01*
X66618758Y-57330746D01*
X66629379Y-57034317D01*
X66640952Y-56711210D01*
X66653363Y-56364550D01*
X66666501Y-55997463D01*
X66680255Y-55613074D01*
X66694513Y-55214509D01*
X66709162Y-54804893D01*
X66724090Y-54387353D01*
X66739187Y-53965014D01*
X66754339Y-53541001D01*
X66769436Y-53118440D01*
X66770595Y-53086000D01*
X66794301Y-52422591D01*
X66816570Y-51799908D01*
X66837462Y-51216368D01*
X66857036Y-50670392D01*
X66875351Y-50160397D01*
X66892466Y-49684801D01*
X66908440Y-49242025D01*
X66923332Y-48830485D01*
X66937202Y-48448602D01*
X66950109Y-48094792D01*
X66962111Y-47767476D01*
X66973268Y-47465071D01*
X66983639Y-47185996D01*
X66993283Y-46928671D01*
X67002259Y-46691512D01*
X67010627Y-46472940D01*
X67018445Y-46271372D01*
X67025773Y-46085228D01*
X67032670Y-45912925D01*
X67039195Y-45752883D01*
X67045406Y-45603520D01*
X67051364Y-45463255D01*
X67057127Y-45330506D01*
X67062754Y-45203691D01*
X67068305Y-45081231D01*
X67073839Y-44961542D01*
X67076484Y-44905083D01*
X67083827Y-44748661D01*
X67091644Y-44581637D01*
X67099279Y-44418040D01*
X67106077Y-44271900D01*
X67110328Y-44180125D01*
X67124260Y-43878500D01*
X67207816Y-43878500D01*
X67259829Y-43883465D01*
X67259829Y-43883465D01*
G37*
X67259829Y-43883465D02*
X67348114Y-43897677D01*
X67467875Y-43920108D01*
X67614315Y-43949732D01*
X67782639Y-43985520D01*
X67968050Y-44026447D01*
X68165752Y-44071484D01*
X68370949Y-44119605D01*
X68578846Y-44169783D01*
X68651155Y-44187591D01*
X69528357Y-44424652D01*
X70380514Y-44695486D01*
X71209031Y-45000814D01*
X72015315Y-45341354D01*
X72800772Y-45717829D01*
X73566809Y-46130959D01*
X74314831Y-46581464D01*
X75046244Y-47070066D01*
X75762456Y-47597485D01*
X76464872Y-48164441D01*
X76546791Y-48233879D01*
X76958109Y-48596285D01*
X77380198Y-48991043D01*
X77806882Y-49411716D01*
X78231987Y-49851864D01*
X78649337Y-50305046D01*
X79052757Y-50764824D01*
X79436071Y-51224757D01*
X79545572Y-51360989D01*
X79893160Y-51809199D01*
X80250949Y-52293421D01*
X80616780Y-52809867D01*
X80988493Y-53354748D01*
X81363927Y-53924275D01*
X81740923Y-54514660D01*
X82117320Y-55122114D01*
X82490959Y-55742849D01*
X82859678Y-56373077D01*
X83221319Y-57009008D01*
X83573722Y-57646854D01*
X83914725Y-58282827D01*
X84242170Y-58913138D01*
X84553896Y-59533999D01*
X84847743Y-60141621D01*
X85121551Y-60732215D01*
X85373160Y-61301994D01*
X85600410Y-61847168D01*
X85766820Y-62272550D01*
X85816389Y-62406059D01*
X85870813Y-62557021D01*
X85928192Y-62719758D01*
X85986631Y-62888592D01*
X86044230Y-63057845D01*
X86099092Y-63221839D01*
X86149319Y-63374897D01*
X86193012Y-63511340D01*
X86228275Y-63625490D01*
X86253209Y-63711671D01*
X86265917Y-63764203D01*
X86266403Y-63767132D01*
X86279866Y-63854347D01*
X86187641Y-63867532D01*
X86137927Y-63873213D01*
X86054269Y-63881200D01*
X85944949Y-63890771D01*
X85818248Y-63901202D01*
X85682449Y-63911769D01*
X85672083Y-63912551D01*
X85420401Y-63931645D01*
X85179196Y-63950347D01*
X84946344Y-63968904D01*
X84719721Y-63987562D01*
X84497202Y-64006571D01*
X84276664Y-64026176D01*
X84055982Y-64046625D01*
X83833032Y-64068165D01*
X83605690Y-64091044D01*
X83371832Y-64115509D01*
X83129333Y-64141808D01*
X82876070Y-64170187D01*
X82609919Y-64200894D01*
X82328754Y-64234177D01*
X82030453Y-64270282D01*
X81712890Y-64309457D01*
X81373942Y-64351949D01*
X81011485Y-64398006D01*
X80623394Y-64447874D01*
X80207546Y-64501802D01*
X79761815Y-64560037D01*
X79284079Y-64622825D01*
X78772212Y-64690414D01*
X78224091Y-64763052D01*
X77637591Y-64840986D01*
X77216000Y-64897101D01*
X76520472Y-64989665D01*
X75865392Y-65076708D01*
X75249264Y-65158417D01*
X74670589Y-65234980D01*
X74127869Y-65306584D01*
X73619607Y-65373416D01*
X73144304Y-65435664D01*
X72700463Y-65493514D01*
X72286586Y-65547154D01*
X71901174Y-65596772D01*
X71542731Y-65642554D01*
X71209759Y-65684688D01*
X70900758Y-65723361D01*
X70614233Y-65758760D01*
X70348684Y-65791073D01*
X70102614Y-65820487D01*
X69874525Y-65847189D01*
X69662919Y-65871367D01*
X69466298Y-65893207D01*
X69283165Y-65912898D01*
X69112022Y-65930626D01*
X68951370Y-65946578D01*
X68799712Y-65960943D01*
X68655551Y-65973907D01*
X68517387Y-65985657D01*
X68495333Y-65987470D01*
X68354287Y-65997465D01*
X68191147Y-66006446D01*
X68012439Y-66014284D01*
X67824690Y-66020847D01*
X67634428Y-66026006D01*
X67448179Y-66029630D01*
X67272469Y-66031587D01*
X67113826Y-66031748D01*
X66978776Y-66029983D01*
X66873846Y-66026160D01*
X66812583Y-66021116D01*
X66702882Y-66001241D01*
X66629871Y-65973092D01*
X66588332Y-65934370D01*
X66580641Y-65918880D01*
X66573018Y-65877794D01*
X66566014Y-65796920D01*
X66559626Y-65678799D01*
X66553853Y-65525971D01*
X66548690Y-65340978D01*
X66544137Y-65126360D01*
X66540191Y-64884658D01*
X66536849Y-64618412D01*
X66534109Y-64330165D01*
X66531968Y-64022455D01*
X66530425Y-63697825D01*
X66529475Y-63358814D01*
X66529118Y-63007965D01*
X66529351Y-62647816D01*
X66530171Y-62280910D01*
X66531576Y-61909787D01*
X66533564Y-61536988D01*
X66536131Y-61165054D01*
X66539276Y-60796525D01*
X66542996Y-60433942D01*
X66547289Y-60079846D01*
X66552153Y-59736777D01*
X66557584Y-59407278D01*
X66563581Y-59093888D01*
X66570141Y-58799148D01*
X66577261Y-58525598D01*
X66584940Y-58275781D01*
X66588019Y-58187167D01*
X66593718Y-58028707D01*
X66600815Y-57831067D01*
X66609199Y-57597371D01*
X66618758Y-57330746D01*
X66629379Y-57034317D01*
X66640952Y-56711210D01*
X66653363Y-56364550D01*
X66666501Y-55997463D01*
X66680255Y-55613074D01*
X66694513Y-55214509D01*
X66709162Y-54804893D01*
X66724090Y-54387353D01*
X66739187Y-53965014D01*
X66754339Y-53541001D01*
X66769436Y-53118440D01*
X66770595Y-53086000D01*
X66794301Y-52422591D01*
X66816570Y-51799908D01*
X66837462Y-51216368D01*
X66857036Y-50670392D01*
X66875351Y-50160397D01*
X66892466Y-49684801D01*
X66908440Y-49242025D01*
X66923332Y-48830485D01*
X66937202Y-48448602D01*
X66950109Y-48094792D01*
X66962111Y-47767476D01*
X66973268Y-47465071D01*
X66983639Y-47185996D01*
X66993283Y-46928671D01*
X67002259Y-46691512D01*
X67010627Y-46472940D01*
X67018445Y-46271372D01*
X67025773Y-46085228D01*
X67032670Y-45912925D01*
X67039195Y-45752883D01*
X67045406Y-45603520D01*
X67051364Y-45463255D01*
X67057127Y-45330506D01*
X67062754Y-45203691D01*
X67068305Y-45081231D01*
X67073839Y-44961542D01*
X67076484Y-44905083D01*
X67083827Y-44748661D01*
X67091644Y-44581637D01*
X67099279Y-44418040D01*
X67106077Y-44271900D01*
X67110328Y-44180125D01*
X67124260Y-43878500D01*
X67207816Y-43878500D01*
X67259829Y-43883465D01*
D10*
X79535020Y-74612500D02*
X80484980Y-74612500D01*
X36907386Y-54547545D02*
X36980150Y-54491581D01*
X37061312Y-54371252D01*
X37069712Y-54306888D01*
X37061879Y-54266589D01*
X37029980Y-54210058D01*
X36981848Y-54177593D01*
X36917484Y-54169194D01*
X36877186Y-54177027D01*
X36820655Y-54208926D01*
X36731659Y-54288956D01*
X36675128Y-54320855D01*
X36634829Y-54328689D01*
X36570465Y-54320289D01*
X36522334Y-54287824D01*
X36490435Y-54231293D01*
X36482601Y-54190995D01*
X36491001Y-54126631D01*
X36572164Y-54006302D01*
X36644927Y-53950337D01*
X37111709Y-53985067D02*
X37274034Y-53744409D01*
X37223638Y-54130594D02*
X36831885Y-53621249D01*
X37450894Y-53793673D01*
X37124071Y-53188065D02*
X37189001Y-53091802D01*
X37245532Y-53059903D01*
X37326129Y-53044237D01*
X37438625Y-53085102D01*
X37607085Y-53198730D01*
X37687116Y-53287726D01*
X37702782Y-53368322D01*
X37694383Y-53432686D01*
X37629452Y-53528949D01*
X37572921Y-53560848D01*
X37492325Y-53576515D01*
X37379829Y-53535650D01*
X37211369Y-53422022D01*
X37131338Y-53333026D01*
X37115672Y-53252430D01*
X37124071Y-53188065D01*
X38100197Y-52831042D02*
X37905406Y-53119831D01*
X38002802Y-52975437D02*
X37497420Y-52634553D01*
X37537152Y-52731382D01*
X37552819Y-52811979D01*
X37544419Y-52876343D01*
M02*
