G04 #@! TF.GenerationSoftware,KiCad,Pcbnew,5.1.2*
G04 #@! TF.CreationDate,2019-06-29T12:22:33-07:00*
G04 #@! TF.ProjectId,DC27-Cylon,44433237-2d43-4796-9c6f-6e2e6b696361,rev?*
G04 #@! TF.SameCoordinates,Original*
G04 #@! TF.FileFunction,Soldermask,Top*
G04 #@! TF.FilePolarity,Negative*
%FSLAX46Y46*%
G04 Gerber Fmt 4.6, Leading zero omitted, Abs format (unit mm)*
G04 Created by KiCad (PCBNEW 5.1.2) date 2019-06-29 12:22:33*
%MOMM*%
%LPD*%
G04 APERTURE LIST*
%ADD10C,0.010000*%
%ADD11C,2.082800*%
%ADD12C,0.100000*%
%ADD13C,1.500000*%
%ADD14C,2.400000*%
%ADD15R,2.400000X2.400000*%
%ADD16R,1.201420X1.201420*%
G04 APERTURE END LIST*
D10*
G36*
X57220181Y-71302247D02*
G01*
X57523402Y-71302282D01*
X57839530Y-71302308D01*
X58160098Y-71302327D01*
X58476642Y-71302336D01*
X58780694Y-71302336D01*
X59063789Y-71302327D01*
X59317461Y-71302308D01*
X59436000Y-71302294D01*
X59920524Y-71302249D01*
X60364906Y-71302265D01*
X60771336Y-71302359D01*
X61142004Y-71302547D01*
X61479101Y-71302847D01*
X61784817Y-71303276D01*
X62061343Y-71303852D01*
X62310870Y-71304591D01*
X62535588Y-71305511D01*
X62737687Y-71306630D01*
X62919359Y-71307964D01*
X63082793Y-71309531D01*
X63230181Y-71311347D01*
X63363712Y-71313431D01*
X63485578Y-71315799D01*
X63597969Y-71318468D01*
X63703076Y-71321457D01*
X63803088Y-71324781D01*
X63900197Y-71328459D01*
X63996593Y-71332508D01*
X64094467Y-71336944D01*
X64145583Y-71339358D01*
X64950136Y-71381528D01*
X65773298Y-71432191D01*
X66617110Y-71491546D01*
X67483612Y-71559794D01*
X68374844Y-71637133D01*
X69292848Y-71723763D01*
X70239662Y-71819885D01*
X71217327Y-71925697D01*
X72227885Y-72041399D01*
X73273374Y-72167191D01*
X74355837Y-72303272D01*
X75427417Y-72443210D01*
X76152706Y-72540962D01*
X76878537Y-72641543D01*
X77602924Y-72744607D01*
X78323884Y-72849806D01*
X79039434Y-72956792D01*
X79747591Y-73065218D01*
X80446370Y-73174735D01*
X81133789Y-73284997D01*
X81807865Y-73395655D01*
X82466612Y-73506361D01*
X83108049Y-73616769D01*
X83730191Y-73726530D01*
X84331056Y-73835296D01*
X84908659Y-73942721D01*
X85461018Y-74048456D01*
X85986148Y-74152153D01*
X86482067Y-74253465D01*
X86946790Y-74352044D01*
X87378335Y-74447543D01*
X87774717Y-74539613D01*
X88133954Y-74627908D01*
X88454062Y-74712079D01*
X88595158Y-74751463D01*
X88789240Y-74809253D01*
X88947898Y-74863846D01*
X89077269Y-74920095D01*
X89183489Y-74982851D01*
X89272696Y-75056968D01*
X89351027Y-75147296D01*
X89424619Y-75258689D01*
X89499608Y-75395999D01*
X89557160Y-75512083D01*
X89664082Y-75750725D01*
X89772420Y-76025573D01*
X89880634Y-76330605D01*
X89987186Y-76659797D01*
X90090538Y-77007125D01*
X90189151Y-77366566D01*
X90281486Y-77732098D01*
X90366006Y-78097696D01*
X90441171Y-78457336D01*
X90505443Y-78804997D01*
X90557284Y-79134653D01*
X90595154Y-79440283D01*
X90613219Y-79646559D01*
X90618376Y-79746457D01*
X90622830Y-79883233D01*
X90626578Y-80051436D01*
X90629619Y-80245614D01*
X90631954Y-80460319D01*
X90633581Y-80690098D01*
X90634499Y-80929503D01*
X90634708Y-81173082D01*
X90634206Y-81415385D01*
X90632994Y-81650962D01*
X90631069Y-81874362D01*
X90628432Y-82080134D01*
X90625082Y-82262829D01*
X90621017Y-82416996D01*
X90616237Y-82537185D01*
X90613652Y-82581750D01*
X90594921Y-82808691D01*
X90571079Y-83013473D01*
X90542838Y-83192770D01*
X90510911Y-83343251D01*
X90476011Y-83461591D01*
X90438850Y-83544460D01*
X90400141Y-83588531D01*
X90397785Y-83589868D01*
X90349957Y-83601182D01*
X90265512Y-83605547D01*
X90149544Y-83603272D01*
X90007143Y-83594665D01*
X89843402Y-83580033D01*
X89663410Y-83559686D01*
X89472260Y-83533929D01*
X89471500Y-83533819D01*
X89142150Y-83483914D01*
X88773687Y-83424419D01*
X88368130Y-83355745D01*
X87927501Y-83278304D01*
X87453819Y-83192510D01*
X86949105Y-83098775D01*
X86415381Y-82997510D01*
X85854665Y-82889128D01*
X85268980Y-82774042D01*
X84660345Y-82652664D01*
X84030781Y-82525407D01*
X83382309Y-82392681D01*
X82716949Y-82254901D01*
X82036721Y-82112479D01*
X81343647Y-81965825D01*
X80639746Y-81815354D01*
X79927040Y-81661478D01*
X79207549Y-81504608D01*
X78483293Y-81345157D01*
X77756293Y-81183537D01*
X77028570Y-81020162D01*
X76302144Y-80855442D01*
X75924833Y-80769222D01*
X75451452Y-80660886D01*
X75017343Y-80561848D01*
X74620565Y-80471722D01*
X74259180Y-80390122D01*
X73931247Y-80316664D01*
X73634828Y-80250960D01*
X73367981Y-80192627D01*
X73128769Y-80141279D01*
X72915250Y-80096530D01*
X72725486Y-80057994D01*
X72557537Y-80025288D01*
X72409464Y-79998024D01*
X72279326Y-79975818D01*
X72165183Y-79958283D01*
X72065098Y-79945036D01*
X71977129Y-79935690D01*
X71899337Y-79929860D01*
X71829783Y-79927160D01*
X71766526Y-79927205D01*
X71707628Y-79929610D01*
X71701492Y-79929992D01*
X71611172Y-79938463D01*
X71544773Y-79953878D01*
X71483892Y-79982114D01*
X71427264Y-80017572D01*
X71369301Y-80062037D01*
X71287409Y-80133335D01*
X71186103Y-80226946D01*
X71069899Y-80338351D01*
X70943310Y-80463030D01*
X70810854Y-80596464D01*
X70677046Y-80734132D01*
X70546399Y-80871515D01*
X70423431Y-81004093D01*
X70312657Y-81127347D01*
X70271786Y-81174167D01*
X70112772Y-81359985D01*
X69962371Y-81539819D01*
X69817351Y-81717989D01*
X69674483Y-81898811D01*
X69530534Y-82086606D01*
X69382274Y-82285693D01*
X69226471Y-82500389D01*
X69059895Y-82735014D01*
X68879315Y-82993886D01*
X68681499Y-83281324D01*
X68537795Y-83491917D01*
X68415799Y-83670902D01*
X68314889Y-83818019D01*
X68232542Y-83936539D01*
X68166234Y-84029732D01*
X68113441Y-84100868D01*
X68071641Y-84153218D01*
X68038308Y-84190051D01*
X68010920Y-84214637D01*
X67986952Y-84230248D01*
X67963881Y-84240153D01*
X67959138Y-84241742D01*
X67871289Y-84264346D01*
X67747238Y-84287715D01*
X67593088Y-84310957D01*
X67414937Y-84333182D01*
X67218887Y-84353501D01*
X67151250Y-84359640D01*
X67015267Y-84371040D01*
X66879031Y-84381306D01*
X66740013Y-84390477D01*
X66595684Y-84398588D01*
X66443516Y-84405675D01*
X66280981Y-84411774D01*
X66105550Y-84416922D01*
X65914694Y-84421155D01*
X65705884Y-84424509D01*
X65476593Y-84427020D01*
X65224292Y-84428725D01*
X64946451Y-84429660D01*
X64640544Y-84429860D01*
X64304040Y-84429362D01*
X63934412Y-84428203D01*
X63529131Y-84426419D01*
X63085668Y-84424045D01*
X62780333Y-84422231D01*
X62382111Y-84419786D01*
X62017881Y-84417555D01*
X61684307Y-84415535D01*
X61378053Y-84413724D01*
X61095781Y-84412120D01*
X60834155Y-84410720D01*
X60589837Y-84409524D01*
X60359491Y-84408528D01*
X60139780Y-84407731D01*
X59927367Y-84407131D01*
X59718916Y-84406725D01*
X59511089Y-84406512D01*
X59300549Y-84406489D01*
X59083960Y-84406654D01*
X58857985Y-84407005D01*
X58619287Y-84407541D01*
X58364529Y-84408258D01*
X58090374Y-84409156D01*
X57793486Y-84410231D01*
X57470528Y-84411482D01*
X57118162Y-84412907D01*
X56733052Y-84414503D01*
X56311861Y-84416269D01*
X55911750Y-84417949D01*
X55551740Y-84419317D01*
X55198381Y-84420386D01*
X54854509Y-84421161D01*
X54522957Y-84421646D01*
X54206559Y-84421846D01*
X53908150Y-84421765D01*
X53630565Y-84421408D01*
X53376638Y-84420780D01*
X53149203Y-84419885D01*
X52951094Y-84418727D01*
X52785146Y-84417312D01*
X52654194Y-84415643D01*
X52561071Y-84413726D01*
X52525083Y-84412483D01*
X52262147Y-84398921D01*
X52008032Y-84382326D01*
X51767391Y-84363190D01*
X51544874Y-84342005D01*
X51345132Y-84319265D01*
X51172817Y-84295462D01*
X51032580Y-84271090D01*
X50929071Y-84246640D01*
X50912861Y-84241680D01*
X50892038Y-84233849D01*
X50871228Y-84222308D01*
X50848167Y-84204075D01*
X50820589Y-84176168D01*
X50786229Y-84135608D01*
X50742824Y-84079411D01*
X50688107Y-84004597D01*
X50619814Y-83908184D01*
X50535680Y-83787192D01*
X50433441Y-83638638D01*
X50310831Y-83459542D01*
X50240640Y-83356820D01*
X50041743Y-83066804D01*
X49862265Y-82807845D01*
X49698766Y-82575366D01*
X49547807Y-82364791D01*
X49405950Y-82171543D01*
X49269756Y-81991046D01*
X49135787Y-81818725D01*
X49000603Y-81650002D01*
X48860766Y-81480301D01*
X48712837Y-81305047D01*
X48600518Y-81174167D01*
X48495830Y-81055718D01*
X48376822Y-80925876D01*
X48248111Y-80789265D01*
X48114317Y-80650510D01*
X47980056Y-80514234D01*
X47849948Y-80385061D01*
X47728609Y-80267615D01*
X47620659Y-80166520D01*
X47530716Y-80086401D01*
X47463397Y-80031881D01*
X47450553Y-80022731D01*
X47380702Y-79978142D01*
X47322184Y-79951799D01*
X47256839Y-79937674D01*
X47171355Y-79930046D01*
X47108902Y-79927415D01*
X47041070Y-79927548D01*
X46965786Y-79930852D01*
X46880977Y-79937730D01*
X46784572Y-79948588D01*
X46674499Y-79963828D01*
X46548685Y-79983857D01*
X46405058Y-80009078D01*
X46241547Y-80039896D01*
X46056079Y-80076715D01*
X45846583Y-80119940D01*
X45610985Y-80169976D01*
X45347214Y-80227227D01*
X45053199Y-80292097D01*
X44726866Y-80364991D01*
X44366144Y-80446313D01*
X43968961Y-80536468D01*
X43533244Y-80635860D01*
X43402250Y-80665814D01*
X42654914Y-80836074D01*
X41913681Y-81003552D01*
X41179754Y-81168011D01*
X40454333Y-81329215D01*
X39738620Y-81486927D01*
X39033816Y-81640910D01*
X38341123Y-81790928D01*
X37661743Y-81936744D01*
X36996876Y-82078121D01*
X36347725Y-82214824D01*
X35715490Y-82346615D01*
X35101373Y-82473257D01*
X34506577Y-82594515D01*
X33932301Y-82710151D01*
X33379748Y-82819929D01*
X32850119Y-82923613D01*
X32344615Y-83020965D01*
X31864438Y-83111749D01*
X31410790Y-83195729D01*
X30984872Y-83272668D01*
X30587885Y-83342329D01*
X30221030Y-83404475D01*
X29885511Y-83458871D01*
X29582526Y-83505279D01*
X29313279Y-83543463D01*
X29078971Y-83573186D01*
X28880803Y-83594212D01*
X28719976Y-83606303D01*
X28597693Y-83609224D01*
X28515154Y-83602738D01*
X28502544Y-83600050D01*
X28456138Y-83570793D01*
X28413917Y-83506429D01*
X28375377Y-83405422D01*
X28340014Y-83266239D01*
X28307324Y-83087345D01*
X28286278Y-82941583D01*
X28278594Y-82861287D01*
X28271437Y-82743395D01*
X28264851Y-82592645D01*
X28258880Y-82413771D01*
X28253566Y-82211509D01*
X28248954Y-81990595D01*
X28245087Y-81755765D01*
X28242009Y-81511754D01*
X28241129Y-81414370D01*
X29347342Y-81414370D01*
X29347613Y-81609033D01*
X29348639Y-81790599D01*
X29350439Y-81954093D01*
X29353035Y-82094543D01*
X29356449Y-82206974D01*
X29360700Y-82286415D01*
X29365133Y-82324995D01*
X29382203Y-82406906D01*
X29491893Y-82392860D01*
X29578657Y-82380596D01*
X29700955Y-82361657D01*
X29852702Y-82337093D01*
X30027810Y-82307954D01*
X30220192Y-82275293D01*
X30423760Y-82240159D01*
X30632428Y-82203604D01*
X30840109Y-82166678D01*
X31040715Y-82130432D01*
X31228160Y-82095916D01*
X31396356Y-82064182D01*
X31400750Y-82063340D01*
X31472480Y-82049617D01*
X31579182Y-82029250D01*
X31714239Y-82003500D01*
X31871034Y-81973626D01*
X32042950Y-81940890D01*
X32223370Y-81906554D01*
X32353250Y-81881847D01*
X33451454Y-81669979D01*
X34584602Y-81445539D01*
X35747564Y-81209612D01*
X36935215Y-80963282D01*
X38142426Y-80707633D01*
X39364069Y-80443750D01*
X40595018Y-80172717D01*
X41830145Y-79895618D01*
X42894250Y-79652721D01*
X43290851Y-79561502D01*
X43648940Y-79479231D01*
X43971249Y-79405301D01*
X44260505Y-79339103D01*
X44519439Y-79280026D01*
X44750780Y-79227464D01*
X44957257Y-79180806D01*
X45141599Y-79139443D01*
X45306537Y-79102768D01*
X45454799Y-79070170D01*
X45589114Y-79041042D01*
X45712213Y-79014773D01*
X45826825Y-78990756D01*
X45935678Y-78968380D01*
X46041503Y-78947038D01*
X46147028Y-78926121D01*
X46181276Y-78919398D01*
X46397054Y-78877896D01*
X46577236Y-78845218D01*
X46727492Y-78820743D01*
X46853493Y-78803850D01*
X46960908Y-78793916D01*
X47055408Y-78790320D01*
X47142663Y-78792442D01*
X47228343Y-78799658D01*
X47250365Y-78802208D01*
X47423389Y-78829671D01*
X47596265Y-78868828D01*
X47756093Y-78916200D01*
X47889974Y-78968310D01*
X47920017Y-78982749D01*
X48051776Y-79061134D01*
X48204600Y-79172733D01*
X48376291Y-79315389D01*
X48564654Y-79486946D01*
X48767490Y-79685248D01*
X48982604Y-79908138D01*
X49207799Y-80153461D01*
X49440878Y-80419059D01*
X49679644Y-80702777D01*
X49710471Y-80740250D01*
X49859124Y-80925140D01*
X50026213Y-81139564D01*
X50207246Y-81377468D01*
X50397730Y-81632798D01*
X50593172Y-81899503D01*
X50789080Y-82171529D01*
X50980960Y-82442822D01*
X51085093Y-82592333D01*
X51183408Y-82734184D01*
X51274318Y-82865060D01*
X51354958Y-82980862D01*
X51422467Y-83077490D01*
X51473981Y-83150846D01*
X51506638Y-83196829D01*
X51517332Y-83211231D01*
X51550332Y-83223628D01*
X51624942Y-83235149D01*
X51740450Y-83245782D01*
X51896141Y-83255514D01*
X52091302Y-83264336D01*
X52325220Y-83272236D01*
X52597180Y-83279202D01*
X52906470Y-83285223D01*
X53252375Y-83290287D01*
X53634183Y-83294384D01*
X54051178Y-83297501D01*
X54502649Y-83299628D01*
X54987881Y-83300753D01*
X55506160Y-83300865D01*
X56056773Y-83299952D01*
X56639007Y-83298003D01*
X56896000Y-83296858D01*
X57227347Y-83295386D01*
X57559505Y-83294119D01*
X57888483Y-83293063D01*
X58210293Y-83292220D01*
X58520945Y-83291597D01*
X58816449Y-83291196D01*
X59092817Y-83291023D01*
X59346058Y-83291081D01*
X59572183Y-83291374D01*
X59767203Y-83291908D01*
X59927129Y-83292686D01*
X60028667Y-83293503D01*
X60343210Y-83296325D01*
X60675062Y-83298558D01*
X61021708Y-83300220D01*
X61380633Y-83301332D01*
X61749319Y-83301914D01*
X62125252Y-83301986D01*
X62505915Y-83301570D01*
X62888793Y-83300684D01*
X63271370Y-83299349D01*
X63651130Y-83297585D01*
X64025557Y-83295413D01*
X64392136Y-83292852D01*
X64748351Y-83289924D01*
X65091685Y-83286647D01*
X65419624Y-83283043D01*
X65729652Y-83279132D01*
X66019251Y-83274933D01*
X66285908Y-83270467D01*
X66527106Y-83265755D01*
X66740329Y-83260816D01*
X66923061Y-83255670D01*
X67072787Y-83250339D01*
X67186991Y-83244841D01*
X67263156Y-83239198D01*
X67292691Y-83235130D01*
X67312699Y-83225605D01*
X67339591Y-83202404D01*
X67375775Y-83162407D01*
X67423659Y-83102491D01*
X67485652Y-83019536D01*
X67564162Y-82910421D01*
X67661598Y-82772025D01*
X67767429Y-82619899D01*
X68110926Y-82131769D01*
X68444013Y-81673481D01*
X68765846Y-81246050D01*
X69075584Y-80850492D01*
X69372385Y-80487824D01*
X69655407Y-80159060D01*
X69923808Y-79865218D01*
X70176745Y-79607313D01*
X70413377Y-79386361D01*
X70531363Y-79285027D01*
X70702115Y-79149954D01*
X70857288Y-79043852D01*
X71006983Y-78962039D01*
X71161301Y-78899828D01*
X71330344Y-78852537D01*
X71524211Y-78815482D01*
X71553917Y-78810843D01*
X71615804Y-78802336D01*
X71678442Y-78796078D01*
X71743985Y-78792464D01*
X71814587Y-78791888D01*
X71892404Y-78794744D01*
X71979591Y-78801427D01*
X72078301Y-78812331D01*
X72190689Y-78827851D01*
X72318910Y-78848380D01*
X72465119Y-78874313D01*
X72631470Y-78906044D01*
X72820119Y-78943968D01*
X73033218Y-78988479D01*
X73272924Y-79039971D01*
X73541391Y-79098838D01*
X73840774Y-79165476D01*
X74173226Y-79240278D01*
X74540904Y-79323638D01*
X74945961Y-79415952D01*
X75289833Y-79494561D01*
X75669436Y-79581420D01*
X76010760Y-79659510D01*
X76316792Y-79729510D01*
X76590519Y-79792095D01*
X76834927Y-79847943D01*
X77053005Y-79897730D01*
X77247738Y-79942133D01*
X77422114Y-79981830D01*
X77579121Y-80017496D01*
X77721745Y-80049810D01*
X77852973Y-80079447D01*
X77975792Y-80107085D01*
X78093189Y-80133401D01*
X78208152Y-80159071D01*
X78323667Y-80184772D01*
X78442721Y-80211182D01*
X78568302Y-80238976D01*
X78703396Y-80268833D01*
X78831805Y-80297192D01*
X79235720Y-80385888D01*
X79653776Y-80476745D01*
X80084094Y-80569393D01*
X80524797Y-80663464D01*
X80974004Y-80758586D01*
X81429840Y-80854392D01*
X81890424Y-80950510D01*
X82353880Y-81046572D01*
X82818329Y-81142207D01*
X83281892Y-81237046D01*
X83742691Y-81330719D01*
X84198849Y-81422857D01*
X84648486Y-81513090D01*
X85089725Y-81601048D01*
X85520687Y-81686361D01*
X85939495Y-81768660D01*
X86344269Y-81847576D01*
X86733133Y-81922738D01*
X87104206Y-81993776D01*
X87455612Y-82060322D01*
X87785472Y-82122005D01*
X88091907Y-82178456D01*
X88373040Y-82229306D01*
X88626992Y-82274183D01*
X88851886Y-82312720D01*
X89045842Y-82344545D01*
X89206982Y-82369290D01*
X89333429Y-82386584D01*
X89423305Y-82396059D01*
X89474729Y-82397344D01*
X89486183Y-82394205D01*
X89496476Y-82362782D01*
X89505367Y-82293412D01*
X89512861Y-82190457D01*
X89518963Y-82058279D01*
X89523678Y-81901243D01*
X89527011Y-81723709D01*
X89528966Y-81530041D01*
X89529549Y-81324601D01*
X89528764Y-81111752D01*
X89526617Y-80895857D01*
X89523111Y-80681278D01*
X89518253Y-80472378D01*
X89512047Y-80273519D01*
X89504497Y-80089063D01*
X89495610Y-79923375D01*
X89485388Y-79780816D01*
X89483233Y-79756000D01*
X89438099Y-79314610D01*
X89383881Y-78903769D01*
X89318315Y-78512673D01*
X89239135Y-78130514D01*
X89144076Y-77746488D01*
X89030873Y-77349788D01*
X88897262Y-76929609D01*
X88879829Y-76877333D01*
X88804684Y-76653642D01*
X88740140Y-76466211D01*
X88683222Y-76311207D01*
X88630955Y-76184791D01*
X88580361Y-76083130D01*
X88528466Y-76002387D01*
X88472293Y-75938726D01*
X88408867Y-75888313D01*
X88335212Y-75847310D01*
X88248352Y-75811882D01*
X88145311Y-75778193D01*
X88023114Y-75742409D01*
X87992537Y-75733636D01*
X87752960Y-75668331D01*
X87473360Y-75598254D01*
X87155735Y-75523751D01*
X86802084Y-75445167D01*
X86414407Y-75362846D01*
X85994703Y-75277132D01*
X85544971Y-75188371D01*
X85067210Y-75096908D01*
X84563419Y-75003086D01*
X84035598Y-74907251D01*
X83485746Y-74809746D01*
X82915861Y-74710918D01*
X82327944Y-74611111D01*
X81723993Y-74510668D01*
X81106007Y-74409936D01*
X80475986Y-74309258D01*
X79835929Y-74208980D01*
X79187835Y-74109445D01*
X78533703Y-74011000D01*
X77875532Y-73913987D01*
X77215322Y-73818753D01*
X76555072Y-73725642D01*
X75896781Y-73634997D01*
X75543833Y-73587333D01*
X75006376Y-73516202D01*
X74457358Y-73445352D01*
X73899897Y-73375120D01*
X73337109Y-73305840D01*
X72772112Y-73237851D01*
X72208022Y-73171488D01*
X71647956Y-73107089D01*
X71095031Y-73044989D01*
X70552365Y-72985524D01*
X70023074Y-72929033D01*
X69510274Y-72875850D01*
X69017084Y-72826313D01*
X68546619Y-72780757D01*
X68101996Y-72739521D01*
X67686334Y-72702939D01*
X67302748Y-72671348D01*
X66954355Y-72645086D01*
X66644273Y-72624488D01*
X66600917Y-72621887D01*
X66458674Y-72614716D01*
X66313529Y-72610084D01*
X66160667Y-72608091D01*
X65995273Y-72608835D01*
X65812532Y-72612417D01*
X65607630Y-72618937D01*
X65375751Y-72628493D01*
X65112081Y-72641186D01*
X64811805Y-72657115D01*
X64759417Y-72660006D01*
X64489279Y-72672570D01*
X64182731Y-72682584D01*
X63845613Y-72690092D01*
X63483769Y-72695142D01*
X63103041Y-72697782D01*
X62709271Y-72698057D01*
X62308302Y-72696015D01*
X61905975Y-72691703D01*
X61508134Y-72685167D01*
X61120620Y-72676455D01*
X60749275Y-72665613D01*
X60399943Y-72652688D01*
X60078466Y-72637727D01*
X59790685Y-72620777D01*
X59779958Y-72620058D01*
X59542853Y-72608792D01*
X59318909Y-72609053D01*
X59092042Y-72620058D01*
X58797808Y-72637588D01*
X58470786Y-72652988D01*
X58116751Y-72666217D01*
X57741475Y-72677232D01*
X57350732Y-72685993D01*
X56950295Y-72692455D01*
X56545938Y-72696579D01*
X56143434Y-72698320D01*
X55748556Y-72697639D01*
X55367077Y-72694492D01*
X55004773Y-72688837D01*
X54667414Y-72680633D01*
X54360776Y-72669837D01*
X54091417Y-72656454D01*
X53802264Y-72641464D01*
X53506417Y-72629977D01*
X53210598Y-72622042D01*
X52921531Y-72617706D01*
X52645937Y-72617020D01*
X52390540Y-72620030D01*
X52162062Y-72626786D01*
X51967228Y-72637336D01*
X51921833Y-72640795D01*
X50863349Y-72732064D01*
X49768434Y-72835428D01*
X48641071Y-72950377D01*
X47485245Y-73076400D01*
X46304937Y-73212988D01*
X45104131Y-73359631D01*
X43886811Y-73515820D01*
X42656958Y-73681044D01*
X41418557Y-73854793D01*
X40175590Y-74036559D01*
X38932041Y-74225831D01*
X37691892Y-74422099D01*
X36586583Y-74603528D01*
X36060071Y-74692432D01*
X35546425Y-74781113D01*
X35047350Y-74869214D01*
X34564547Y-74956380D01*
X34099722Y-75042257D01*
X33654577Y-75126487D01*
X33230816Y-75208718D01*
X32830141Y-75288592D01*
X32454257Y-75365754D01*
X32104867Y-75439849D01*
X31783673Y-75510522D01*
X31492381Y-75577418D01*
X31232692Y-75640180D01*
X31006310Y-75698454D01*
X30814939Y-75751883D01*
X30660281Y-75800114D01*
X30544042Y-75842790D01*
X30467923Y-75879556D01*
X30466577Y-75880379D01*
X30420034Y-75914021D01*
X30376031Y-75957764D01*
X30332922Y-76015166D01*
X30289061Y-76089789D01*
X30242802Y-76185191D01*
X30192500Y-76304933D01*
X30136509Y-76452575D01*
X30073184Y-76631676D01*
X30000878Y-76845798D01*
X29952635Y-76992149D01*
X29813190Y-77441266D01*
X29695275Y-77873836D01*
X29596802Y-78300359D01*
X29515681Y-78731333D01*
X29449824Y-79177256D01*
X29397142Y-79648627D01*
X29375380Y-79893583D01*
X29369807Y-79982330D01*
X29364799Y-80102739D01*
X29360379Y-80249836D01*
X29356565Y-80418648D01*
X29353380Y-80604202D01*
X29350844Y-80801525D01*
X29348979Y-81005642D01*
X29347804Y-81211582D01*
X29347342Y-81414370D01*
X28241129Y-81414370D01*
X28239763Y-81263299D01*
X28238393Y-81015134D01*
X28237942Y-80771996D01*
X28238454Y-80538620D01*
X28239972Y-80319742D01*
X28242541Y-80120098D01*
X28246202Y-79944424D01*
X28251001Y-79797454D01*
X28256403Y-79692500D01*
X28279508Y-79425466D01*
X28314398Y-79140254D01*
X28360032Y-78840446D01*
X28415368Y-78529626D01*
X28479365Y-78211375D01*
X28550979Y-77889277D01*
X28629171Y-77566915D01*
X28712897Y-77247870D01*
X28801116Y-76935727D01*
X28892787Y-76634067D01*
X28986868Y-76346474D01*
X29082317Y-76076529D01*
X29178091Y-75827817D01*
X29273150Y-75603919D01*
X29366452Y-75408419D01*
X29456955Y-75244899D01*
X29543617Y-75116942D01*
X29608056Y-75043955D01*
X29674287Y-74993254D01*
X29770794Y-74940031D01*
X29898681Y-74883972D01*
X30059054Y-74824765D01*
X30253020Y-74762095D01*
X30481684Y-74695649D01*
X30746153Y-74625114D01*
X31047531Y-74550177D01*
X31386926Y-74470523D01*
X31765442Y-74385840D01*
X32184186Y-74295814D01*
X32427333Y-74244886D01*
X33155640Y-74097209D01*
X33922682Y-73948522D01*
X34724889Y-73799316D01*
X35558690Y-73650082D01*
X36420512Y-73501311D01*
X37306785Y-73353494D01*
X38213938Y-73207122D01*
X39138400Y-73062685D01*
X40076599Y-72920674D01*
X41024965Y-72781580D01*
X41979926Y-72645894D01*
X42937911Y-72514107D01*
X43895349Y-72386710D01*
X44848669Y-72264193D01*
X45794300Y-72147047D01*
X46728670Y-72035763D01*
X47648208Y-71930832D01*
X48549343Y-71832745D01*
X49428505Y-71741992D01*
X50282121Y-71659065D01*
X51106621Y-71584453D01*
X51898434Y-71518649D01*
X52653988Y-71462143D01*
X52694417Y-71459315D01*
X52820895Y-71450476D01*
X52946289Y-71441670D01*
X53057999Y-71433785D01*
X53143423Y-71427707D01*
X53160083Y-71426511D01*
X53715625Y-71389705D01*
X54268999Y-71359726D01*
X54828255Y-71336310D01*
X55401444Y-71319191D01*
X55996617Y-71308104D01*
X56621824Y-71302786D01*
X56938333Y-71302204D01*
X57220181Y-71302247D01*
X57220181Y-71302247D01*
G37*
X57220181Y-71302247D02*
X57523402Y-71302282D01*
X57839530Y-71302308D01*
X58160098Y-71302327D01*
X58476642Y-71302336D01*
X58780694Y-71302336D01*
X59063789Y-71302327D01*
X59317461Y-71302308D01*
X59436000Y-71302294D01*
X59920524Y-71302249D01*
X60364906Y-71302265D01*
X60771336Y-71302359D01*
X61142004Y-71302547D01*
X61479101Y-71302847D01*
X61784817Y-71303276D01*
X62061343Y-71303852D01*
X62310870Y-71304591D01*
X62535588Y-71305511D01*
X62737687Y-71306630D01*
X62919359Y-71307964D01*
X63082793Y-71309531D01*
X63230181Y-71311347D01*
X63363712Y-71313431D01*
X63485578Y-71315799D01*
X63597969Y-71318468D01*
X63703076Y-71321457D01*
X63803088Y-71324781D01*
X63900197Y-71328459D01*
X63996593Y-71332508D01*
X64094467Y-71336944D01*
X64145583Y-71339358D01*
X64950136Y-71381528D01*
X65773298Y-71432191D01*
X66617110Y-71491546D01*
X67483612Y-71559794D01*
X68374844Y-71637133D01*
X69292848Y-71723763D01*
X70239662Y-71819885D01*
X71217327Y-71925697D01*
X72227885Y-72041399D01*
X73273374Y-72167191D01*
X74355837Y-72303272D01*
X75427417Y-72443210D01*
X76152706Y-72540962D01*
X76878537Y-72641543D01*
X77602924Y-72744607D01*
X78323884Y-72849806D01*
X79039434Y-72956792D01*
X79747591Y-73065218D01*
X80446370Y-73174735D01*
X81133789Y-73284997D01*
X81807865Y-73395655D01*
X82466612Y-73506361D01*
X83108049Y-73616769D01*
X83730191Y-73726530D01*
X84331056Y-73835296D01*
X84908659Y-73942721D01*
X85461018Y-74048456D01*
X85986148Y-74152153D01*
X86482067Y-74253465D01*
X86946790Y-74352044D01*
X87378335Y-74447543D01*
X87774717Y-74539613D01*
X88133954Y-74627908D01*
X88454062Y-74712079D01*
X88595158Y-74751463D01*
X88789240Y-74809253D01*
X88947898Y-74863846D01*
X89077269Y-74920095D01*
X89183489Y-74982851D01*
X89272696Y-75056968D01*
X89351027Y-75147296D01*
X89424619Y-75258689D01*
X89499608Y-75395999D01*
X89557160Y-75512083D01*
X89664082Y-75750725D01*
X89772420Y-76025573D01*
X89880634Y-76330605D01*
X89987186Y-76659797D01*
X90090538Y-77007125D01*
X90189151Y-77366566D01*
X90281486Y-77732098D01*
X90366006Y-78097696D01*
X90441171Y-78457336D01*
X90505443Y-78804997D01*
X90557284Y-79134653D01*
X90595154Y-79440283D01*
X90613219Y-79646559D01*
X90618376Y-79746457D01*
X90622830Y-79883233D01*
X90626578Y-80051436D01*
X90629619Y-80245614D01*
X90631954Y-80460319D01*
X90633581Y-80690098D01*
X90634499Y-80929503D01*
X90634708Y-81173082D01*
X90634206Y-81415385D01*
X90632994Y-81650962D01*
X90631069Y-81874362D01*
X90628432Y-82080134D01*
X90625082Y-82262829D01*
X90621017Y-82416996D01*
X90616237Y-82537185D01*
X90613652Y-82581750D01*
X90594921Y-82808691D01*
X90571079Y-83013473D01*
X90542838Y-83192770D01*
X90510911Y-83343251D01*
X90476011Y-83461591D01*
X90438850Y-83544460D01*
X90400141Y-83588531D01*
X90397785Y-83589868D01*
X90349957Y-83601182D01*
X90265512Y-83605547D01*
X90149544Y-83603272D01*
X90007143Y-83594665D01*
X89843402Y-83580033D01*
X89663410Y-83559686D01*
X89472260Y-83533929D01*
X89471500Y-83533819D01*
X89142150Y-83483914D01*
X88773687Y-83424419D01*
X88368130Y-83355745D01*
X87927501Y-83278304D01*
X87453819Y-83192510D01*
X86949105Y-83098775D01*
X86415381Y-82997510D01*
X85854665Y-82889128D01*
X85268980Y-82774042D01*
X84660345Y-82652664D01*
X84030781Y-82525407D01*
X83382309Y-82392681D01*
X82716949Y-82254901D01*
X82036721Y-82112479D01*
X81343647Y-81965825D01*
X80639746Y-81815354D01*
X79927040Y-81661478D01*
X79207549Y-81504608D01*
X78483293Y-81345157D01*
X77756293Y-81183537D01*
X77028570Y-81020162D01*
X76302144Y-80855442D01*
X75924833Y-80769222D01*
X75451452Y-80660886D01*
X75017343Y-80561848D01*
X74620565Y-80471722D01*
X74259180Y-80390122D01*
X73931247Y-80316664D01*
X73634828Y-80250960D01*
X73367981Y-80192627D01*
X73128769Y-80141279D01*
X72915250Y-80096530D01*
X72725486Y-80057994D01*
X72557537Y-80025288D01*
X72409464Y-79998024D01*
X72279326Y-79975818D01*
X72165183Y-79958283D01*
X72065098Y-79945036D01*
X71977129Y-79935690D01*
X71899337Y-79929860D01*
X71829783Y-79927160D01*
X71766526Y-79927205D01*
X71707628Y-79929610D01*
X71701492Y-79929992D01*
X71611172Y-79938463D01*
X71544773Y-79953878D01*
X71483892Y-79982114D01*
X71427264Y-80017572D01*
X71369301Y-80062037D01*
X71287409Y-80133335D01*
X71186103Y-80226946D01*
X71069899Y-80338351D01*
X70943310Y-80463030D01*
X70810854Y-80596464D01*
X70677046Y-80734132D01*
X70546399Y-80871515D01*
X70423431Y-81004093D01*
X70312657Y-81127347D01*
X70271786Y-81174167D01*
X70112772Y-81359985D01*
X69962371Y-81539819D01*
X69817351Y-81717989D01*
X69674483Y-81898811D01*
X69530534Y-82086606D01*
X69382274Y-82285693D01*
X69226471Y-82500389D01*
X69059895Y-82735014D01*
X68879315Y-82993886D01*
X68681499Y-83281324D01*
X68537795Y-83491917D01*
X68415799Y-83670902D01*
X68314889Y-83818019D01*
X68232542Y-83936539D01*
X68166234Y-84029732D01*
X68113441Y-84100868D01*
X68071641Y-84153218D01*
X68038308Y-84190051D01*
X68010920Y-84214637D01*
X67986952Y-84230248D01*
X67963881Y-84240153D01*
X67959138Y-84241742D01*
X67871289Y-84264346D01*
X67747238Y-84287715D01*
X67593088Y-84310957D01*
X67414937Y-84333182D01*
X67218887Y-84353501D01*
X67151250Y-84359640D01*
X67015267Y-84371040D01*
X66879031Y-84381306D01*
X66740013Y-84390477D01*
X66595684Y-84398588D01*
X66443516Y-84405675D01*
X66280981Y-84411774D01*
X66105550Y-84416922D01*
X65914694Y-84421155D01*
X65705884Y-84424509D01*
X65476593Y-84427020D01*
X65224292Y-84428725D01*
X64946451Y-84429660D01*
X64640544Y-84429860D01*
X64304040Y-84429362D01*
X63934412Y-84428203D01*
X63529131Y-84426419D01*
X63085668Y-84424045D01*
X62780333Y-84422231D01*
X62382111Y-84419786D01*
X62017881Y-84417555D01*
X61684307Y-84415535D01*
X61378053Y-84413724D01*
X61095781Y-84412120D01*
X60834155Y-84410720D01*
X60589837Y-84409524D01*
X60359491Y-84408528D01*
X60139780Y-84407731D01*
X59927367Y-84407131D01*
X59718916Y-84406725D01*
X59511089Y-84406512D01*
X59300549Y-84406489D01*
X59083960Y-84406654D01*
X58857985Y-84407005D01*
X58619287Y-84407541D01*
X58364529Y-84408258D01*
X58090374Y-84409156D01*
X57793486Y-84410231D01*
X57470528Y-84411482D01*
X57118162Y-84412907D01*
X56733052Y-84414503D01*
X56311861Y-84416269D01*
X55911750Y-84417949D01*
X55551740Y-84419317D01*
X55198381Y-84420386D01*
X54854509Y-84421161D01*
X54522957Y-84421646D01*
X54206559Y-84421846D01*
X53908150Y-84421765D01*
X53630565Y-84421408D01*
X53376638Y-84420780D01*
X53149203Y-84419885D01*
X52951094Y-84418727D01*
X52785146Y-84417312D01*
X52654194Y-84415643D01*
X52561071Y-84413726D01*
X52525083Y-84412483D01*
X52262147Y-84398921D01*
X52008032Y-84382326D01*
X51767391Y-84363190D01*
X51544874Y-84342005D01*
X51345132Y-84319265D01*
X51172817Y-84295462D01*
X51032580Y-84271090D01*
X50929071Y-84246640D01*
X50912861Y-84241680D01*
X50892038Y-84233849D01*
X50871228Y-84222308D01*
X50848167Y-84204075D01*
X50820589Y-84176168D01*
X50786229Y-84135608D01*
X50742824Y-84079411D01*
X50688107Y-84004597D01*
X50619814Y-83908184D01*
X50535680Y-83787192D01*
X50433441Y-83638638D01*
X50310831Y-83459542D01*
X50240640Y-83356820D01*
X50041743Y-83066804D01*
X49862265Y-82807845D01*
X49698766Y-82575366D01*
X49547807Y-82364791D01*
X49405950Y-82171543D01*
X49269756Y-81991046D01*
X49135787Y-81818725D01*
X49000603Y-81650002D01*
X48860766Y-81480301D01*
X48712837Y-81305047D01*
X48600518Y-81174167D01*
X48495830Y-81055718D01*
X48376822Y-80925876D01*
X48248111Y-80789265D01*
X48114317Y-80650510D01*
X47980056Y-80514234D01*
X47849948Y-80385061D01*
X47728609Y-80267615D01*
X47620659Y-80166520D01*
X47530716Y-80086401D01*
X47463397Y-80031881D01*
X47450553Y-80022731D01*
X47380702Y-79978142D01*
X47322184Y-79951799D01*
X47256839Y-79937674D01*
X47171355Y-79930046D01*
X47108902Y-79927415D01*
X47041070Y-79927548D01*
X46965786Y-79930852D01*
X46880977Y-79937730D01*
X46784572Y-79948588D01*
X46674499Y-79963828D01*
X46548685Y-79983857D01*
X46405058Y-80009078D01*
X46241547Y-80039896D01*
X46056079Y-80076715D01*
X45846583Y-80119940D01*
X45610985Y-80169976D01*
X45347214Y-80227227D01*
X45053199Y-80292097D01*
X44726866Y-80364991D01*
X44366144Y-80446313D01*
X43968961Y-80536468D01*
X43533244Y-80635860D01*
X43402250Y-80665814D01*
X42654914Y-80836074D01*
X41913681Y-81003552D01*
X41179754Y-81168011D01*
X40454333Y-81329215D01*
X39738620Y-81486927D01*
X39033816Y-81640910D01*
X38341123Y-81790928D01*
X37661743Y-81936744D01*
X36996876Y-82078121D01*
X36347725Y-82214824D01*
X35715490Y-82346615D01*
X35101373Y-82473257D01*
X34506577Y-82594515D01*
X33932301Y-82710151D01*
X33379748Y-82819929D01*
X32850119Y-82923613D01*
X32344615Y-83020965D01*
X31864438Y-83111749D01*
X31410790Y-83195729D01*
X30984872Y-83272668D01*
X30587885Y-83342329D01*
X30221030Y-83404475D01*
X29885511Y-83458871D01*
X29582526Y-83505279D01*
X29313279Y-83543463D01*
X29078971Y-83573186D01*
X28880803Y-83594212D01*
X28719976Y-83606303D01*
X28597693Y-83609224D01*
X28515154Y-83602738D01*
X28502544Y-83600050D01*
X28456138Y-83570793D01*
X28413917Y-83506429D01*
X28375377Y-83405422D01*
X28340014Y-83266239D01*
X28307324Y-83087345D01*
X28286278Y-82941583D01*
X28278594Y-82861287D01*
X28271437Y-82743395D01*
X28264851Y-82592645D01*
X28258880Y-82413771D01*
X28253566Y-82211509D01*
X28248954Y-81990595D01*
X28245087Y-81755765D01*
X28242009Y-81511754D01*
X28241129Y-81414370D01*
X29347342Y-81414370D01*
X29347613Y-81609033D01*
X29348639Y-81790599D01*
X29350439Y-81954093D01*
X29353035Y-82094543D01*
X29356449Y-82206974D01*
X29360700Y-82286415D01*
X29365133Y-82324995D01*
X29382203Y-82406906D01*
X29491893Y-82392860D01*
X29578657Y-82380596D01*
X29700955Y-82361657D01*
X29852702Y-82337093D01*
X30027810Y-82307954D01*
X30220192Y-82275293D01*
X30423760Y-82240159D01*
X30632428Y-82203604D01*
X30840109Y-82166678D01*
X31040715Y-82130432D01*
X31228160Y-82095916D01*
X31396356Y-82064182D01*
X31400750Y-82063340D01*
X31472480Y-82049617D01*
X31579182Y-82029250D01*
X31714239Y-82003500D01*
X31871034Y-81973626D01*
X32042950Y-81940890D01*
X32223370Y-81906554D01*
X32353250Y-81881847D01*
X33451454Y-81669979D01*
X34584602Y-81445539D01*
X35747564Y-81209612D01*
X36935215Y-80963282D01*
X38142426Y-80707633D01*
X39364069Y-80443750D01*
X40595018Y-80172717D01*
X41830145Y-79895618D01*
X42894250Y-79652721D01*
X43290851Y-79561502D01*
X43648940Y-79479231D01*
X43971249Y-79405301D01*
X44260505Y-79339103D01*
X44519439Y-79280026D01*
X44750780Y-79227464D01*
X44957257Y-79180806D01*
X45141599Y-79139443D01*
X45306537Y-79102768D01*
X45454799Y-79070170D01*
X45589114Y-79041042D01*
X45712213Y-79014773D01*
X45826825Y-78990756D01*
X45935678Y-78968380D01*
X46041503Y-78947038D01*
X46147028Y-78926121D01*
X46181276Y-78919398D01*
X46397054Y-78877896D01*
X46577236Y-78845218D01*
X46727492Y-78820743D01*
X46853493Y-78803850D01*
X46960908Y-78793916D01*
X47055408Y-78790320D01*
X47142663Y-78792442D01*
X47228343Y-78799658D01*
X47250365Y-78802208D01*
X47423389Y-78829671D01*
X47596265Y-78868828D01*
X47756093Y-78916200D01*
X47889974Y-78968310D01*
X47920017Y-78982749D01*
X48051776Y-79061134D01*
X48204600Y-79172733D01*
X48376291Y-79315389D01*
X48564654Y-79486946D01*
X48767490Y-79685248D01*
X48982604Y-79908138D01*
X49207799Y-80153461D01*
X49440878Y-80419059D01*
X49679644Y-80702777D01*
X49710471Y-80740250D01*
X49859124Y-80925140D01*
X50026213Y-81139564D01*
X50207246Y-81377468D01*
X50397730Y-81632798D01*
X50593172Y-81899503D01*
X50789080Y-82171529D01*
X50980960Y-82442822D01*
X51085093Y-82592333D01*
X51183408Y-82734184D01*
X51274318Y-82865060D01*
X51354958Y-82980862D01*
X51422467Y-83077490D01*
X51473981Y-83150846D01*
X51506638Y-83196829D01*
X51517332Y-83211231D01*
X51550332Y-83223628D01*
X51624942Y-83235149D01*
X51740450Y-83245782D01*
X51896141Y-83255514D01*
X52091302Y-83264336D01*
X52325220Y-83272236D01*
X52597180Y-83279202D01*
X52906470Y-83285223D01*
X53252375Y-83290287D01*
X53634183Y-83294384D01*
X54051178Y-83297501D01*
X54502649Y-83299628D01*
X54987881Y-83300753D01*
X55506160Y-83300865D01*
X56056773Y-83299952D01*
X56639007Y-83298003D01*
X56896000Y-83296858D01*
X57227347Y-83295386D01*
X57559505Y-83294119D01*
X57888483Y-83293063D01*
X58210293Y-83292220D01*
X58520945Y-83291597D01*
X58816449Y-83291196D01*
X59092817Y-83291023D01*
X59346058Y-83291081D01*
X59572183Y-83291374D01*
X59767203Y-83291908D01*
X59927129Y-83292686D01*
X60028667Y-83293503D01*
X60343210Y-83296325D01*
X60675062Y-83298558D01*
X61021708Y-83300220D01*
X61380633Y-83301332D01*
X61749319Y-83301914D01*
X62125252Y-83301986D01*
X62505915Y-83301570D01*
X62888793Y-83300684D01*
X63271370Y-83299349D01*
X63651130Y-83297585D01*
X64025557Y-83295413D01*
X64392136Y-83292852D01*
X64748351Y-83289924D01*
X65091685Y-83286647D01*
X65419624Y-83283043D01*
X65729652Y-83279132D01*
X66019251Y-83274933D01*
X66285908Y-83270467D01*
X66527106Y-83265755D01*
X66740329Y-83260816D01*
X66923061Y-83255670D01*
X67072787Y-83250339D01*
X67186991Y-83244841D01*
X67263156Y-83239198D01*
X67292691Y-83235130D01*
X67312699Y-83225605D01*
X67339591Y-83202404D01*
X67375775Y-83162407D01*
X67423659Y-83102491D01*
X67485652Y-83019536D01*
X67564162Y-82910421D01*
X67661598Y-82772025D01*
X67767429Y-82619899D01*
X68110926Y-82131769D01*
X68444013Y-81673481D01*
X68765846Y-81246050D01*
X69075584Y-80850492D01*
X69372385Y-80487824D01*
X69655407Y-80159060D01*
X69923808Y-79865218D01*
X70176745Y-79607313D01*
X70413377Y-79386361D01*
X70531363Y-79285027D01*
X70702115Y-79149954D01*
X70857288Y-79043852D01*
X71006983Y-78962039D01*
X71161301Y-78899828D01*
X71330344Y-78852537D01*
X71524211Y-78815482D01*
X71553917Y-78810843D01*
X71615804Y-78802336D01*
X71678442Y-78796078D01*
X71743985Y-78792464D01*
X71814587Y-78791888D01*
X71892404Y-78794744D01*
X71979591Y-78801427D01*
X72078301Y-78812331D01*
X72190689Y-78827851D01*
X72318910Y-78848380D01*
X72465119Y-78874313D01*
X72631470Y-78906044D01*
X72820119Y-78943968D01*
X73033218Y-78988479D01*
X73272924Y-79039971D01*
X73541391Y-79098838D01*
X73840774Y-79165476D01*
X74173226Y-79240278D01*
X74540904Y-79323638D01*
X74945961Y-79415952D01*
X75289833Y-79494561D01*
X75669436Y-79581420D01*
X76010760Y-79659510D01*
X76316792Y-79729510D01*
X76590519Y-79792095D01*
X76834927Y-79847943D01*
X77053005Y-79897730D01*
X77247738Y-79942133D01*
X77422114Y-79981830D01*
X77579121Y-80017496D01*
X77721745Y-80049810D01*
X77852973Y-80079447D01*
X77975792Y-80107085D01*
X78093189Y-80133401D01*
X78208152Y-80159071D01*
X78323667Y-80184772D01*
X78442721Y-80211182D01*
X78568302Y-80238976D01*
X78703396Y-80268833D01*
X78831805Y-80297192D01*
X79235720Y-80385888D01*
X79653776Y-80476745D01*
X80084094Y-80569393D01*
X80524797Y-80663464D01*
X80974004Y-80758586D01*
X81429840Y-80854392D01*
X81890424Y-80950510D01*
X82353880Y-81046572D01*
X82818329Y-81142207D01*
X83281892Y-81237046D01*
X83742691Y-81330719D01*
X84198849Y-81422857D01*
X84648486Y-81513090D01*
X85089725Y-81601048D01*
X85520687Y-81686361D01*
X85939495Y-81768660D01*
X86344269Y-81847576D01*
X86733133Y-81922738D01*
X87104206Y-81993776D01*
X87455612Y-82060322D01*
X87785472Y-82122005D01*
X88091907Y-82178456D01*
X88373040Y-82229306D01*
X88626992Y-82274183D01*
X88851886Y-82312720D01*
X89045842Y-82344545D01*
X89206982Y-82369290D01*
X89333429Y-82386584D01*
X89423305Y-82396059D01*
X89474729Y-82397344D01*
X89486183Y-82394205D01*
X89496476Y-82362782D01*
X89505367Y-82293412D01*
X89512861Y-82190457D01*
X89518963Y-82058279D01*
X89523678Y-81901243D01*
X89527011Y-81723709D01*
X89528966Y-81530041D01*
X89529549Y-81324601D01*
X89528764Y-81111752D01*
X89526617Y-80895857D01*
X89523111Y-80681278D01*
X89518253Y-80472378D01*
X89512047Y-80273519D01*
X89504497Y-80089063D01*
X89495610Y-79923375D01*
X89485388Y-79780816D01*
X89483233Y-79756000D01*
X89438099Y-79314610D01*
X89383881Y-78903769D01*
X89318315Y-78512673D01*
X89239135Y-78130514D01*
X89144076Y-77746488D01*
X89030873Y-77349788D01*
X88897262Y-76929609D01*
X88879829Y-76877333D01*
X88804684Y-76653642D01*
X88740140Y-76466211D01*
X88683222Y-76311207D01*
X88630955Y-76184791D01*
X88580361Y-76083130D01*
X88528466Y-76002387D01*
X88472293Y-75938726D01*
X88408867Y-75888313D01*
X88335212Y-75847310D01*
X88248352Y-75811882D01*
X88145311Y-75778193D01*
X88023114Y-75742409D01*
X87992537Y-75733636D01*
X87752960Y-75668331D01*
X87473360Y-75598254D01*
X87155735Y-75523751D01*
X86802084Y-75445167D01*
X86414407Y-75362846D01*
X85994703Y-75277132D01*
X85544971Y-75188371D01*
X85067210Y-75096908D01*
X84563419Y-75003086D01*
X84035598Y-74907251D01*
X83485746Y-74809746D01*
X82915861Y-74710918D01*
X82327944Y-74611111D01*
X81723993Y-74510668D01*
X81106007Y-74409936D01*
X80475986Y-74309258D01*
X79835929Y-74208980D01*
X79187835Y-74109445D01*
X78533703Y-74011000D01*
X77875532Y-73913987D01*
X77215322Y-73818753D01*
X76555072Y-73725642D01*
X75896781Y-73634997D01*
X75543833Y-73587333D01*
X75006376Y-73516202D01*
X74457358Y-73445352D01*
X73899897Y-73375120D01*
X73337109Y-73305840D01*
X72772112Y-73237851D01*
X72208022Y-73171488D01*
X71647956Y-73107089D01*
X71095031Y-73044989D01*
X70552365Y-72985524D01*
X70023074Y-72929033D01*
X69510274Y-72875850D01*
X69017084Y-72826313D01*
X68546619Y-72780757D01*
X68101996Y-72739521D01*
X67686334Y-72702939D01*
X67302748Y-72671348D01*
X66954355Y-72645086D01*
X66644273Y-72624488D01*
X66600917Y-72621887D01*
X66458674Y-72614716D01*
X66313529Y-72610084D01*
X66160667Y-72608091D01*
X65995273Y-72608835D01*
X65812532Y-72612417D01*
X65607630Y-72618937D01*
X65375751Y-72628493D01*
X65112081Y-72641186D01*
X64811805Y-72657115D01*
X64759417Y-72660006D01*
X64489279Y-72672570D01*
X64182731Y-72682584D01*
X63845613Y-72690092D01*
X63483769Y-72695142D01*
X63103041Y-72697782D01*
X62709271Y-72698057D01*
X62308302Y-72696015D01*
X61905975Y-72691703D01*
X61508134Y-72685167D01*
X61120620Y-72676455D01*
X60749275Y-72665613D01*
X60399943Y-72652688D01*
X60078466Y-72637727D01*
X59790685Y-72620777D01*
X59779958Y-72620058D01*
X59542853Y-72608792D01*
X59318909Y-72609053D01*
X59092042Y-72620058D01*
X58797808Y-72637588D01*
X58470786Y-72652988D01*
X58116751Y-72666217D01*
X57741475Y-72677232D01*
X57350732Y-72685993D01*
X56950295Y-72692455D01*
X56545938Y-72696579D01*
X56143434Y-72698320D01*
X55748556Y-72697639D01*
X55367077Y-72694492D01*
X55004773Y-72688837D01*
X54667414Y-72680633D01*
X54360776Y-72669837D01*
X54091417Y-72656454D01*
X53802264Y-72641464D01*
X53506417Y-72629977D01*
X53210598Y-72622042D01*
X52921531Y-72617706D01*
X52645937Y-72617020D01*
X52390540Y-72620030D01*
X52162062Y-72626786D01*
X51967228Y-72637336D01*
X51921833Y-72640795D01*
X50863349Y-72732064D01*
X49768434Y-72835428D01*
X48641071Y-72950377D01*
X47485245Y-73076400D01*
X46304937Y-73212988D01*
X45104131Y-73359631D01*
X43886811Y-73515820D01*
X42656958Y-73681044D01*
X41418557Y-73854793D01*
X40175590Y-74036559D01*
X38932041Y-74225831D01*
X37691892Y-74422099D01*
X36586583Y-74603528D01*
X36060071Y-74692432D01*
X35546425Y-74781113D01*
X35047350Y-74869214D01*
X34564547Y-74956380D01*
X34099722Y-75042257D01*
X33654577Y-75126487D01*
X33230816Y-75208718D01*
X32830141Y-75288592D01*
X32454257Y-75365754D01*
X32104867Y-75439849D01*
X31783673Y-75510522D01*
X31492381Y-75577418D01*
X31232692Y-75640180D01*
X31006310Y-75698454D01*
X30814939Y-75751883D01*
X30660281Y-75800114D01*
X30544042Y-75842790D01*
X30467923Y-75879556D01*
X30466577Y-75880379D01*
X30420034Y-75914021D01*
X30376031Y-75957764D01*
X30332922Y-76015166D01*
X30289061Y-76089789D01*
X30242802Y-76185191D01*
X30192500Y-76304933D01*
X30136509Y-76452575D01*
X30073184Y-76631676D01*
X30000878Y-76845798D01*
X29952635Y-76992149D01*
X29813190Y-77441266D01*
X29695275Y-77873836D01*
X29596802Y-78300359D01*
X29515681Y-78731333D01*
X29449824Y-79177256D01*
X29397142Y-79648627D01*
X29375380Y-79893583D01*
X29369807Y-79982330D01*
X29364799Y-80102739D01*
X29360379Y-80249836D01*
X29356565Y-80418648D01*
X29353380Y-80604202D01*
X29350844Y-80801525D01*
X29348979Y-81005642D01*
X29347804Y-81211582D01*
X29347342Y-81414370D01*
X28241129Y-81414370D01*
X28239763Y-81263299D01*
X28238393Y-81015134D01*
X28237942Y-80771996D01*
X28238454Y-80538620D01*
X28239972Y-80319742D01*
X28242541Y-80120098D01*
X28246202Y-79944424D01*
X28251001Y-79797454D01*
X28256403Y-79692500D01*
X28279508Y-79425466D01*
X28314398Y-79140254D01*
X28360032Y-78840446D01*
X28415368Y-78529626D01*
X28479365Y-78211375D01*
X28550979Y-77889277D01*
X28629171Y-77566915D01*
X28712897Y-77247870D01*
X28801116Y-76935727D01*
X28892787Y-76634067D01*
X28986868Y-76346474D01*
X29082317Y-76076529D01*
X29178091Y-75827817D01*
X29273150Y-75603919D01*
X29366452Y-75408419D01*
X29456955Y-75244899D01*
X29543617Y-75116942D01*
X29608056Y-75043955D01*
X29674287Y-74993254D01*
X29770794Y-74940031D01*
X29898681Y-74883972D01*
X30059054Y-74824765D01*
X30253020Y-74762095D01*
X30481684Y-74695649D01*
X30746153Y-74625114D01*
X31047531Y-74550177D01*
X31386926Y-74470523D01*
X31765442Y-74385840D01*
X32184186Y-74295814D01*
X32427333Y-74244886D01*
X33155640Y-74097209D01*
X33922682Y-73948522D01*
X34724889Y-73799316D01*
X35558690Y-73650082D01*
X36420512Y-73501311D01*
X37306785Y-73353494D01*
X38213938Y-73207122D01*
X39138400Y-73062685D01*
X40076599Y-72920674D01*
X41024965Y-72781580D01*
X41979926Y-72645894D01*
X42937911Y-72514107D01*
X43895349Y-72386710D01*
X44848669Y-72264193D01*
X45794300Y-72147047D01*
X46728670Y-72035763D01*
X47648208Y-71930832D01*
X48549343Y-71832745D01*
X49428505Y-71741992D01*
X50282121Y-71659065D01*
X51106621Y-71584453D01*
X51898434Y-71518649D01*
X52653988Y-71462143D01*
X52694417Y-71459315D01*
X52820895Y-71450476D01*
X52946289Y-71441670D01*
X53057999Y-71433785D01*
X53143423Y-71427707D01*
X53160083Y-71426511D01*
X53715625Y-71389705D01*
X54268999Y-71359726D01*
X54828255Y-71336310D01*
X55401444Y-71319191D01*
X55996617Y-71308104D01*
X56621824Y-71302786D01*
X56938333Y-71302204D01*
X57220181Y-71302247D01*
D11*
X43274251Y-48891646D03*
X45070302Y-50687698D03*
X41478200Y-50687698D03*
X43274251Y-52483749D03*
X39682149Y-52483749D03*
X41478200Y-54279800D03*
D12*
G36*
X41478200Y-55752562D02*
G01*
X40005438Y-54279800D01*
X41478200Y-52807038D01*
X42950962Y-54279800D01*
X41478200Y-55752562D01*
X41478200Y-55752562D01*
G37*
D13*
X37338000Y-75692000D03*
X81788000Y-75692000D03*
D14*
X56896000Y-58801000D03*
D15*
X44196000Y-58801000D03*
D16*
X39185000Y-77076300D03*
X39185000Y-75323700D03*
X40960000Y-77076300D03*
X40960000Y-75323700D03*
X42735000Y-77076300D03*
X42735000Y-75323700D03*
X44510000Y-77076300D03*
X44510000Y-75323700D03*
X46285000Y-77076300D03*
X46285000Y-75323700D03*
X48060000Y-77076300D03*
X48060000Y-75323700D03*
X49835000Y-77076300D03*
X49835000Y-75323700D03*
X51610000Y-77076300D03*
X51610000Y-75323700D03*
X53385000Y-77076300D03*
X53385000Y-75323700D03*
X55160000Y-77076300D03*
X55160000Y-75323700D03*
X56935000Y-77076300D03*
X56935000Y-75323700D03*
X58710000Y-77076300D03*
X58710000Y-75323700D03*
X60485000Y-77076300D03*
X60485000Y-75323700D03*
X62260000Y-77076300D03*
X62260000Y-75323700D03*
X64035000Y-77076300D03*
X64035000Y-75323700D03*
X65810000Y-77076300D03*
X65810000Y-75323700D03*
X67585000Y-77076300D03*
X67585000Y-75323700D03*
X69360000Y-77076300D03*
X69360000Y-75323700D03*
X71135000Y-77076300D03*
X71135000Y-75323700D03*
X72910000Y-77076300D03*
X72910000Y-75323700D03*
X74685000Y-77076300D03*
X74685000Y-75323700D03*
X76460000Y-77076300D03*
X76460000Y-75323700D03*
X78235000Y-77076300D03*
X78235000Y-75323700D03*
X80010000Y-75323700D03*
X80010000Y-77076300D03*
D11*
X93349327Y-72930870D03*
X94252073Y-75318582D03*
X94664128Y-77837773D03*
X95566874Y-80225485D03*
X23236673Y-81820870D03*
X23648728Y-79301678D03*
X24551473Y-76913967D03*
X24963529Y-74394775D03*
X25866274Y-72007064D03*
M02*
