G04 #@! TF.GenerationSoftware,KiCad,Pcbnew,5.1.2*
G04 #@! TF.CreationDate,2019-06-27T16:32:15-07:00*
G04 #@! TF.ProjectId,DC27-Cylon,44433237-2d43-4796-9c6f-6e2e6b696361,rev?*
G04 #@! TF.SameCoordinates,Original*
G04 #@! TF.FileFunction,Soldermask,Bot*
G04 #@! TF.FilePolarity,Negative*
%FSLAX46Y46*%
G04 Gerber Fmt 4.6, Leading zero omitted, Abs format (unit mm)*
G04 Created by KiCad (PCBNEW 5.1.2) date 2019-06-27 16:32:15*
%MOMM*%
%LPD*%
G04 APERTURE LIST*
%ADD10R,1.201420X1.303020*%
%ADD11C,2.082800*%
%ADD12C,2.400000*%
%ADD13R,2.400000X2.400000*%
%ADD14R,1.303020X1.201420*%
%ADD15R,1.600000X0.900000*%
%ADD16R,0.900000X1.600000*%
%ADD17R,2.400000X4.200000*%
%ADD18R,2.400000X1.900000*%
%ADD19R,0.740000X1.690000*%
%ADD20R,1.800000X1.600000*%
G04 APERTURE END LIST*
D10*
X39185000Y-78588876D03*
X39185000Y-80285596D03*
X40960000Y-78588876D03*
X40960000Y-80285596D03*
X42735000Y-78588876D03*
X42735000Y-80285596D03*
X44510000Y-78588876D03*
X44510000Y-80285596D03*
X46285000Y-78588876D03*
X46285000Y-80285596D03*
X48060000Y-78588876D03*
X48060000Y-80285596D03*
X49835000Y-78588876D03*
X49835000Y-80285596D03*
X51610000Y-78588876D03*
X51610000Y-80285596D03*
X53385000Y-78588876D03*
X53385000Y-80285596D03*
X55160000Y-78588876D03*
X55160000Y-80285596D03*
X56935000Y-78588876D03*
X56935000Y-80285596D03*
X58710000Y-78588876D03*
X58710000Y-80285596D03*
X60485000Y-78588876D03*
X60485000Y-80285596D03*
X62260000Y-78588876D03*
X62260000Y-80285596D03*
X64035000Y-78588876D03*
X64035000Y-80285596D03*
X65810000Y-78588876D03*
X65810000Y-80285596D03*
X67585000Y-78588876D03*
X67585000Y-80285596D03*
X69360000Y-78588876D03*
X69360000Y-80285596D03*
X71135000Y-78588876D03*
X71135000Y-80285596D03*
X72910000Y-78588876D03*
X72910000Y-80285596D03*
X74685000Y-78588876D03*
X74685000Y-80285596D03*
X76460000Y-78588876D03*
X76460000Y-80285596D03*
X78235000Y-78588876D03*
X78235000Y-80285596D03*
D11*
X31496000Y-110490000D03*
X28956000Y-110490000D03*
X31496000Y-113030000D03*
X28956000Y-113030000D03*
X31496000Y-115570000D03*
X28956000Y-115570000D03*
D12*
X56896000Y-58801000D03*
D13*
X44196000Y-58801000D03*
D10*
X60706000Y-100416360D03*
X60706000Y-98719640D03*
X53340000Y-46141640D03*
X53340000Y-47838360D03*
X69088000Y-98973640D03*
X69088000Y-100670360D03*
X80518000Y-91099640D03*
X80518000Y-92796360D03*
D14*
X60873640Y-43180000D03*
X62570360Y-43180000D03*
D10*
X80772000Y-111592360D03*
X80772000Y-109895640D03*
X65786000Y-92796360D03*
X65786000Y-91099640D03*
X51562000Y-91099640D03*
X51562000Y-92796360D03*
D11*
X93349327Y-72930870D03*
X94252073Y-75318582D03*
X94664128Y-77837773D03*
X95566874Y-80225485D03*
X23236673Y-81820870D03*
X23648728Y-79301678D03*
X24551473Y-76913967D03*
X24963529Y-74394775D03*
X25866274Y-72007064D03*
D10*
X80010000Y-80285596D03*
X80010000Y-78588876D03*
D15*
X70172000Y-109988000D03*
D16*
X77222000Y-111438000D03*
D15*
X78672000Y-104388000D03*
D16*
X71622000Y-102938000D03*
X72422000Y-102938000D03*
X73222000Y-102938000D03*
X74022000Y-102938000D03*
X74822000Y-102938000D03*
X75622000Y-102938000D03*
X76422000Y-102938000D03*
X77222000Y-102938000D03*
D15*
X78672000Y-105188000D03*
X78672000Y-105988000D03*
X78672000Y-106788000D03*
X78672000Y-107588000D03*
X78672000Y-108388000D03*
X78672000Y-109188000D03*
X78672000Y-109988000D03*
D16*
X76422000Y-111438000D03*
X75622000Y-111438000D03*
X74822000Y-111438000D03*
X74022000Y-111438000D03*
X73222000Y-111438000D03*
X72422000Y-111438000D03*
X71622000Y-111438000D03*
D15*
X70172000Y-109188000D03*
X70172000Y-108388000D03*
X70172000Y-107588000D03*
X70172000Y-106788000D03*
X70172000Y-105988000D03*
X70172000Y-105188000D03*
X70172000Y-104388000D03*
D17*
X62586000Y-48260000D03*
D18*
X56286000Y-48260000D03*
X56286000Y-45960000D03*
X56286000Y-50560000D03*
D19*
X69977000Y-89248000D03*
X71247000Y-89248000D03*
X72517000Y-89248000D03*
X73787000Y-89248000D03*
X75057000Y-89248000D03*
X76327000Y-89248000D03*
X77597000Y-89248000D03*
X78867000Y-89248000D03*
X78867000Y-94648000D03*
X77597000Y-94648000D03*
X76327000Y-94648000D03*
X75057000Y-94648000D03*
X73787000Y-94648000D03*
X72517000Y-94648000D03*
X71247000Y-94648000D03*
X69977000Y-94648000D03*
X55245000Y-94648000D03*
X56515000Y-94648000D03*
X57785000Y-94648000D03*
X59055000Y-94648000D03*
X60325000Y-94648000D03*
X61595000Y-94648000D03*
X62865000Y-94648000D03*
X64135000Y-94648000D03*
X64135000Y-89248000D03*
X62865000Y-89248000D03*
X61595000Y-89248000D03*
X60325000Y-89248000D03*
X59055000Y-89248000D03*
X57785000Y-89248000D03*
X56515000Y-89248000D03*
X55245000Y-89248000D03*
X41021000Y-89248000D03*
X42291000Y-89248000D03*
X43561000Y-89248000D03*
X44831000Y-89248000D03*
X46101000Y-89248000D03*
X47371000Y-89248000D03*
X48641000Y-89248000D03*
X49911000Y-89248000D03*
X49911000Y-94648000D03*
X48641000Y-94648000D03*
X47371000Y-94648000D03*
X46101000Y-94648000D03*
X44831000Y-94648000D03*
X43561000Y-94648000D03*
X42291000Y-94648000D03*
X41021000Y-94648000D03*
D20*
X63416000Y-99226000D03*
X65616000Y-99226000D03*
X65616000Y-100926000D03*
X63416000Y-100926000D03*
M02*
