G04 #@! TF.GenerationSoftware,KiCad,Pcbnew,5.1.2*
G04 #@! TF.CreationDate,2019-06-29T12:22:33-07:00*
G04 #@! TF.ProjectId,DC27-Cylon,44433237-2d43-4796-9c6f-6e2e6b696361,rev?*
G04 #@! TF.SameCoordinates,Original*
G04 #@! TF.FileFunction,Other,Fab,Bot*
%FSLAX46Y46*%
G04 Gerber Fmt 4.6, Leading zero omitted, Abs format (unit mm)*
G04 Created by KiCad (PCBNEW 5.1.2) date 2019-06-29 12:22:33*
%MOMM*%
%LPD*%
G04 APERTURE LIST*
%ADD10C,0.100000*%
%ADD11C,0.050000*%
%ADD12C,0.150000*%
%ADD13C,0.120000*%
%ADD14C,0.105000*%
G04 APERTURE END LIST*
D10*
X58281000Y-52070000D02*
G75*
G03X58281000Y-52070000I-750000J0D01*
G01*
X69330000Y-113157000D02*
G75*
G03X69330000Y-113157000I-750000J0D01*
G01*
X82284000Y-87503000D02*
G75*
G03X82284000Y-87503000I-750000J0D01*
G01*
X46724000Y-97282000D02*
G75*
G03X46724000Y-97282000I-750000J0D01*
G01*
X71372000Y-103738000D02*
X77872000Y-103738000D01*
X70972000Y-104138000D02*
X70972000Y-110638000D01*
X70972000Y-104138000D02*
X71372000Y-103738000D01*
X70972000Y-110638000D02*
X77872000Y-110638000D01*
X77872000Y-103738000D02*
X77872000Y-110638000D01*
X64944000Y-49720000D02*
X63944000Y-48720000D01*
X64944000Y-49720000D02*
X64944000Y-55420000D01*
X63944000Y-48720000D02*
X61244000Y-48720000D01*
X64944000Y-55420000D02*
X61244000Y-55420000D01*
X61244000Y-48720000D02*
X61244000Y-55420000D01*
X79372000Y-89998000D02*
X69472000Y-89998000D01*
X69472000Y-93898000D02*
X79372000Y-93898000D01*
X79372000Y-93898000D02*
X79372000Y-89998000D01*
X69472000Y-93898000D02*
X69472000Y-89998000D01*
X54740000Y-93898000D02*
X54740000Y-89998000D01*
X64640000Y-93898000D02*
X64640000Y-89998000D01*
X54740000Y-93898000D02*
X64640000Y-93898000D01*
X64640000Y-89998000D02*
X54740000Y-89998000D01*
X50416000Y-89998000D02*
X40516000Y-89998000D01*
X40516000Y-93898000D02*
X50416000Y-93898000D01*
X50416000Y-93898000D02*
X50416000Y-89998000D01*
X40516000Y-93898000D02*
X40516000Y-89998000D01*
X67107000Y-100691000D02*
X67107000Y-98191000D01*
X67107000Y-98191000D02*
X70307000Y-98191000D01*
X70307000Y-98191000D02*
X70307000Y-100691000D01*
X70307000Y-100691000D02*
X67107000Y-100691000D01*
X67107000Y-99191000D02*
X68107000Y-98191000D01*
D11*
X57931000Y-52205714D02*
X58031000Y-52062857D01*
X58102428Y-52205714D02*
X58102428Y-51905714D01*
X57988142Y-51905714D01*
X57959571Y-51920000D01*
X57945285Y-51934285D01*
X57931000Y-51962857D01*
X57931000Y-52005714D01*
X57945285Y-52034285D01*
X57959571Y-52048571D01*
X57988142Y-52062857D01*
X58102428Y-52062857D01*
X57802428Y-52048571D02*
X57702428Y-52048571D01*
X57659571Y-52205714D02*
X57802428Y-52205714D01*
X57802428Y-51905714D01*
X57659571Y-51905714D01*
X57431000Y-52048571D02*
X57531000Y-52048571D01*
X57531000Y-52205714D02*
X57531000Y-51905714D01*
X57388142Y-51905714D01*
X57231000Y-51905714D02*
X57231000Y-51977142D01*
X57302428Y-51948571D02*
X57231000Y-51977142D01*
X57159571Y-51948571D01*
X57273857Y-52034285D02*
X57231000Y-51977142D01*
X57188142Y-52034285D01*
X57002428Y-51905714D02*
X57002428Y-51977142D01*
X57073857Y-51948571D02*
X57002428Y-51977142D01*
X56931000Y-51948571D01*
X57045285Y-52034285D02*
X57002428Y-51977142D01*
X56959571Y-52034285D01*
X68980000Y-113292714D02*
X69080000Y-113149857D01*
X69151428Y-113292714D02*
X69151428Y-112992714D01*
X69037142Y-112992714D01*
X69008571Y-113007000D01*
X68994285Y-113021285D01*
X68980000Y-113049857D01*
X68980000Y-113092714D01*
X68994285Y-113121285D01*
X69008571Y-113135571D01*
X69037142Y-113149857D01*
X69151428Y-113149857D01*
X68851428Y-113135571D02*
X68751428Y-113135571D01*
X68708571Y-113292714D02*
X68851428Y-113292714D01*
X68851428Y-112992714D01*
X68708571Y-112992714D01*
X68480000Y-113135571D02*
X68580000Y-113135571D01*
X68580000Y-113292714D02*
X68580000Y-112992714D01*
X68437142Y-112992714D01*
X68280000Y-112992714D02*
X68280000Y-113064142D01*
X68351428Y-113035571D02*
X68280000Y-113064142D01*
X68208571Y-113035571D01*
X68322857Y-113121285D02*
X68280000Y-113064142D01*
X68237142Y-113121285D01*
X68051428Y-112992714D02*
X68051428Y-113064142D01*
X68122857Y-113035571D02*
X68051428Y-113064142D01*
X67980000Y-113035571D01*
X68094285Y-113121285D02*
X68051428Y-113064142D01*
X68008571Y-113121285D01*
X81934000Y-87638714D02*
X82034000Y-87495857D01*
X82105428Y-87638714D02*
X82105428Y-87338714D01*
X81991142Y-87338714D01*
X81962571Y-87353000D01*
X81948285Y-87367285D01*
X81934000Y-87395857D01*
X81934000Y-87438714D01*
X81948285Y-87467285D01*
X81962571Y-87481571D01*
X81991142Y-87495857D01*
X82105428Y-87495857D01*
X81805428Y-87481571D02*
X81705428Y-87481571D01*
X81662571Y-87638714D02*
X81805428Y-87638714D01*
X81805428Y-87338714D01*
X81662571Y-87338714D01*
X81434000Y-87481571D02*
X81534000Y-87481571D01*
X81534000Y-87638714D02*
X81534000Y-87338714D01*
X81391142Y-87338714D01*
X81234000Y-87338714D02*
X81234000Y-87410142D01*
X81305428Y-87381571D02*
X81234000Y-87410142D01*
X81162571Y-87381571D01*
X81276857Y-87467285D02*
X81234000Y-87410142D01*
X81191142Y-87467285D01*
X81005428Y-87338714D02*
X81005428Y-87410142D01*
X81076857Y-87381571D02*
X81005428Y-87410142D01*
X80934000Y-87381571D01*
X81048285Y-87467285D02*
X81005428Y-87410142D01*
X80962571Y-87467285D01*
X46374000Y-97417714D02*
X46474000Y-97274857D01*
X46545428Y-97417714D02*
X46545428Y-97117714D01*
X46431142Y-97117714D01*
X46402571Y-97132000D01*
X46388285Y-97146285D01*
X46374000Y-97174857D01*
X46374000Y-97217714D01*
X46388285Y-97246285D01*
X46402571Y-97260571D01*
X46431142Y-97274857D01*
X46545428Y-97274857D01*
X46245428Y-97260571D02*
X46145428Y-97260571D01*
X46102571Y-97417714D02*
X46245428Y-97417714D01*
X46245428Y-97117714D01*
X46102571Y-97117714D01*
X45874000Y-97260571D02*
X45974000Y-97260571D01*
X45974000Y-97417714D02*
X45974000Y-97117714D01*
X45831142Y-97117714D01*
X45674000Y-97117714D02*
X45674000Y-97189142D01*
X45745428Y-97160571D02*
X45674000Y-97189142D01*
X45602571Y-97160571D01*
X45716857Y-97246285D02*
X45674000Y-97189142D01*
X45631142Y-97246285D01*
X45445428Y-97117714D02*
X45445428Y-97189142D01*
X45516857Y-97160571D02*
X45445428Y-97189142D01*
X45374000Y-97160571D01*
X45488285Y-97246285D02*
X45445428Y-97189142D01*
X45402571Y-97246285D01*
D12*
X33405771Y-100315971D02*
X33453390Y-100458828D01*
X33501009Y-100506447D01*
X33596247Y-100554066D01*
X33739104Y-100554066D01*
X33834342Y-100506447D01*
X33881961Y-100458828D01*
X33929580Y-100363590D01*
X33929580Y-99982638D01*
X32929580Y-99982638D01*
X32929580Y-100315971D01*
X32977200Y-100411209D01*
X33024819Y-100458828D01*
X33120057Y-100506447D01*
X33215295Y-100506447D01*
X33310533Y-100458828D01*
X33358152Y-100411209D01*
X33405771Y-100315971D01*
X33405771Y-99982638D01*
X33929580Y-101411209D02*
X33405771Y-101411209D01*
X33310533Y-101363590D01*
X33262914Y-101268352D01*
X33262914Y-101077876D01*
X33310533Y-100982638D01*
X33881961Y-101411209D02*
X33929580Y-101315971D01*
X33929580Y-101077876D01*
X33881961Y-100982638D01*
X33786723Y-100935019D01*
X33691485Y-100935019D01*
X33596247Y-100982638D01*
X33548628Y-101077876D01*
X33548628Y-101315971D01*
X33501009Y-101411209D01*
X33262914Y-101744542D02*
X33262914Y-102125495D01*
X32929580Y-101887400D02*
X33786723Y-101887400D01*
X33881961Y-101935019D01*
X33929580Y-102030257D01*
X33929580Y-102125495D01*
X33262914Y-102315971D02*
X33262914Y-102696923D01*
X32929580Y-102458828D02*
X33786723Y-102458828D01*
X33881961Y-102506447D01*
X33929580Y-102601685D01*
X33929580Y-102696923D01*
X33881961Y-103411209D02*
X33929580Y-103315971D01*
X33929580Y-103125495D01*
X33881961Y-103030257D01*
X33786723Y-102982638D01*
X33405771Y-102982638D01*
X33310533Y-103030257D01*
X33262914Y-103125495D01*
X33262914Y-103315971D01*
X33310533Y-103411209D01*
X33405771Y-103458828D01*
X33501009Y-103458828D01*
X33596247Y-102982638D01*
X33929580Y-103887400D02*
X33262914Y-103887400D01*
X33453390Y-103887400D02*
X33358152Y-103935019D01*
X33310533Y-103982638D01*
X33262914Y-104077876D01*
X33262914Y-104173114D01*
X33262914Y-104411209D02*
X33929580Y-104649304D01*
X33262914Y-104887400D02*
X33929580Y-104649304D01*
X34167676Y-104554066D01*
X34215295Y-104506447D01*
X34262914Y-104411209D01*
X33964571Y-58015285D02*
X34012190Y-58158142D01*
X34059809Y-58205761D01*
X34155047Y-58253380D01*
X34297904Y-58253380D01*
X34393142Y-58205761D01*
X34440761Y-58158142D01*
X34488380Y-58062904D01*
X34488380Y-57681952D01*
X33488380Y-57681952D01*
X33488380Y-58015285D01*
X33536000Y-58110523D01*
X33583619Y-58158142D01*
X33678857Y-58205761D01*
X33774095Y-58205761D01*
X33869333Y-58158142D01*
X33916952Y-58110523D01*
X33964571Y-58015285D01*
X33964571Y-57681952D01*
X33488380Y-58539095D02*
X33488380Y-59110523D01*
X34488380Y-58824809D02*
X33488380Y-58824809D01*
X34488380Y-59967666D02*
X34488380Y-59396238D01*
X34488380Y-59681952D02*
X33488380Y-59681952D01*
X33631238Y-59586714D01*
X33726476Y-59491476D01*
X33774095Y-59396238D01*
X69087904Y-103846380D02*
X69087904Y-104655904D01*
X69040285Y-104751142D01*
X68992666Y-104798761D01*
X68897428Y-104846380D01*
X68706952Y-104846380D01*
X68611714Y-104798761D01*
X68564095Y-104751142D01*
X68516476Y-104655904D01*
X68516476Y-103846380D01*
X67516476Y-104846380D02*
X68087904Y-104846380D01*
X67802190Y-104846380D02*
X67802190Y-103846380D01*
X67897428Y-103989238D01*
X67992666Y-104084476D01*
X68087904Y-104132095D01*
D13*
X62655904Y-51460476D02*
X63303523Y-51460476D01*
X63379714Y-51498571D01*
X63417809Y-51536666D01*
X63455904Y-51612857D01*
X63455904Y-51765238D01*
X63417809Y-51841428D01*
X63379714Y-51879523D01*
X63303523Y-51917619D01*
X62655904Y-51917619D01*
X62732095Y-52260476D02*
X62694000Y-52298571D01*
X62655904Y-52374761D01*
X62655904Y-52565238D01*
X62694000Y-52641428D01*
X62732095Y-52679523D01*
X62808285Y-52717619D01*
X62884476Y-52717619D01*
X62998761Y-52679523D01*
X63455904Y-52222380D01*
X63455904Y-52717619D01*
D12*
X75183904Y-91273380D02*
X75183904Y-92082904D01*
X75136285Y-92178142D01*
X75088666Y-92225761D01*
X74993428Y-92273380D01*
X74802952Y-92273380D01*
X74707714Y-92225761D01*
X74660095Y-92178142D01*
X74612476Y-92082904D01*
X74612476Y-91273380D01*
X74231523Y-91273380D02*
X73612476Y-91273380D01*
X73945809Y-91654333D01*
X73802952Y-91654333D01*
X73707714Y-91701952D01*
X73660095Y-91749571D01*
X73612476Y-91844809D01*
X73612476Y-92082904D01*
X73660095Y-92178142D01*
X73707714Y-92225761D01*
X73802952Y-92273380D01*
X74088666Y-92273380D01*
X74183904Y-92225761D01*
X74231523Y-92178142D01*
X60451904Y-91400380D02*
X60451904Y-92209904D01*
X60404285Y-92305142D01*
X60356666Y-92352761D01*
X60261428Y-92400380D01*
X60070952Y-92400380D01*
X59975714Y-92352761D01*
X59928095Y-92305142D01*
X59880476Y-92209904D01*
X59880476Y-91400380D01*
X58975714Y-91733714D02*
X58975714Y-92400380D01*
X59213809Y-91352761D02*
X59451904Y-92067047D01*
X58832857Y-92067047D01*
X46227904Y-91273380D02*
X46227904Y-92082904D01*
X46180285Y-92178142D01*
X46132666Y-92225761D01*
X46037428Y-92273380D01*
X45846952Y-92273380D01*
X45751714Y-92225761D01*
X45704095Y-92178142D01*
X45656476Y-92082904D01*
X45656476Y-91273380D01*
X44704095Y-91273380D02*
X45180285Y-91273380D01*
X45227904Y-91749571D01*
X45180285Y-91701952D01*
X45085047Y-91654333D01*
X44846952Y-91654333D01*
X44751714Y-91701952D01*
X44704095Y-91749571D01*
X44656476Y-91844809D01*
X44656476Y-92082904D01*
X44704095Y-92178142D01*
X44751714Y-92225761D01*
X44846952Y-92273380D01*
X45085047Y-92273380D01*
X45180285Y-92225761D01*
X45227904Y-92178142D01*
D14*
X69040333Y-97392333D02*
X69040333Y-97725666D01*
X69273666Y-97025666D02*
X69040333Y-97392333D01*
X68807000Y-97025666D01*
X68207000Y-97725666D02*
X68607000Y-97725666D01*
X68407000Y-97725666D02*
X68407000Y-97025666D01*
X68473666Y-97125666D01*
X68540333Y-97192333D01*
X68607000Y-97225666D01*
M02*
