G04 #@! TF.GenerationSoftware,KiCad,Pcbnew,5.1.2*
G04 #@! TF.CreationDate,2019-06-25T12:21:07-07:00*
G04 #@! TF.ProjectId,DC27-Cylon,44433237-2d43-4796-9c6f-6e2e6b696361,rev?*
G04 #@! TF.SameCoordinates,Original*
G04 #@! TF.FileFunction,Copper,L1,Top*
G04 #@! TF.FilePolarity,Positive*
%FSLAX46Y46*%
G04 Gerber Fmt 4.6, Leading zero omitted, Abs format (unit mm)*
G04 Created by KiCad (PCBNEW 5.1.2) date 2019-06-25 12:21:07*
%MOMM*%
%LPD*%
G04 APERTURE LIST*
%ADD10C,1.879600*%
%ADD11R,0.998220X1.099820*%
%ADD12R,1.099820X0.998220*%
%ADD13R,0.998220X0.998220*%
%ADD14R,1.200000X0.500000*%
%ADD15R,0.500000X1.200000*%
%ADD16R,2.000000X3.800000*%
%ADD17R,2.000000X1.500000*%
%ADD18R,1.400000X1.200000*%
%ADD19C,0.800000*%
%ADD20C,0.250000*%
%ADD21C,0.500000*%
%ADD22C,0.254000*%
G04 APERTURE END LIST*
D10*
X60960000Y-63500000D03*
X58420000Y-63500000D03*
D11*
X30480000Y-69001640D03*
X30480000Y-70698360D03*
X53340000Y-57998360D03*
X53340000Y-56301640D03*
X37284660Y-70698360D03*
X37284660Y-69001640D03*
D12*
X42758360Y-54610000D03*
X41061640Y-54610000D03*
X61381640Y-52070000D03*
X63078360Y-52070000D03*
D13*
X64770000Y-79616300D03*
X64770000Y-77863700D03*
X62230000Y-77863700D03*
X62230000Y-79616300D03*
X59690000Y-77863700D03*
X59690000Y-79616300D03*
X57150000Y-79616300D03*
X57150000Y-77863700D03*
X54610000Y-77863700D03*
X54610000Y-79616300D03*
X52070000Y-79616300D03*
X52070000Y-77863700D03*
X49530000Y-77863700D03*
X49530000Y-79616300D03*
X46990000Y-79616300D03*
X46990000Y-77863700D03*
X44450000Y-77863700D03*
X44450000Y-79616300D03*
X41910000Y-79616300D03*
X41910000Y-77863700D03*
D10*
X30480000Y-58420000D03*
X27940000Y-58420000D03*
X30480000Y-55880000D03*
X27940000Y-55880000D03*
X30480000Y-53340000D03*
X27940000Y-53340000D03*
D11*
X64770000Y-74081640D03*
X64770000Y-75778360D03*
X62230000Y-75778360D03*
X62230000Y-74081640D03*
X59690000Y-74081640D03*
X59690000Y-75778360D03*
X57150000Y-75778360D03*
X57150000Y-74081640D03*
X54610000Y-74081640D03*
X54610000Y-75778360D03*
X52070000Y-75778360D03*
X52070000Y-74081640D03*
X49530000Y-75778360D03*
X49530000Y-74081640D03*
X46990000Y-74081640D03*
X46990000Y-75778360D03*
X44450000Y-75778360D03*
X44450000Y-74081640D03*
X41910000Y-74081640D03*
X41910000Y-75778360D03*
D14*
X33780000Y-58600000D03*
D15*
X40830000Y-57150000D03*
D14*
X42280000Y-64200000D03*
D15*
X35230000Y-65650000D03*
X36030000Y-65650000D03*
X36830000Y-65650000D03*
X37630000Y-65650000D03*
X38430000Y-65650000D03*
X39230000Y-65650000D03*
X40030000Y-65650000D03*
X40830000Y-65650000D03*
D14*
X42280000Y-63400000D03*
X42280000Y-62600000D03*
X42280000Y-61800000D03*
X42280000Y-61000000D03*
X42280000Y-60200000D03*
X42280000Y-59400000D03*
X42280000Y-58600000D03*
D15*
X40030000Y-57150000D03*
X39230000Y-57150000D03*
X38430000Y-57150000D03*
X37630000Y-57150000D03*
X36830000Y-57150000D03*
X36030000Y-57150000D03*
X35230000Y-57150000D03*
D14*
X33780000Y-59400000D03*
X33780000Y-60200000D03*
X33780000Y-61000000D03*
X33780000Y-61800000D03*
X33780000Y-62600000D03*
X33780000Y-63400000D03*
X33780000Y-64200000D03*
D16*
X62840000Y-57150000D03*
D17*
X56540000Y-57150000D03*
X56540000Y-59450000D03*
X56540000Y-54850000D03*
D18*
X33190000Y-70700000D03*
X35390000Y-70700000D03*
X35390000Y-69000000D03*
X33190000Y-69000000D03*
D19*
X62840000Y-57150000D03*
X56540000Y-57150000D03*
X39370000Y-62230000D03*
X35560000Y-63500000D03*
X36830000Y-62230000D03*
D20*
X38100000Y-69001640D02*
X38100000Y-69052440D01*
D21*
X56540000Y-54850000D02*
X56540000Y-52730000D01*
X56540000Y-54850000D02*
X54624000Y-54850000D01*
D20*
X33190000Y-70700000D02*
X33190000Y-69000000D01*
X33188360Y-70698360D02*
X33190000Y-70700000D01*
X30480000Y-70698360D02*
X33188360Y-70698360D01*
X36030000Y-66500000D02*
X36030000Y-65650000D01*
X33530000Y-69000000D02*
X36030000Y-66500000D01*
X33190000Y-69000000D02*
X33530000Y-69000000D01*
X55290000Y-59450000D02*
X56540000Y-59450000D01*
X54740840Y-59450000D02*
X55290000Y-59450000D01*
X53340000Y-58049160D02*
X54740840Y-59450000D01*
X53340000Y-57998360D02*
X53340000Y-58049160D01*
D21*
X56540000Y-61620000D02*
X58420000Y-63500000D01*
X56540000Y-59450000D02*
X56540000Y-61620000D01*
D20*
X35390000Y-70700000D02*
X35390000Y-69000000D01*
X36830000Y-66500000D02*
X36830000Y-65650000D01*
X36830000Y-67660000D02*
X36830000Y-66500000D01*
X35490000Y-69000000D02*
X36830000Y-67660000D01*
X35390000Y-69000000D02*
X35490000Y-69000000D01*
X35391640Y-70698360D02*
X35390000Y-70700000D01*
X37284660Y-70698360D02*
X35391640Y-70698360D01*
X63078360Y-56911640D02*
X62840000Y-57150000D01*
X63078360Y-52070000D02*
X63078360Y-56911640D01*
X41061640Y-56918360D02*
X40830000Y-57150000D01*
X41061640Y-54610000D02*
X41061640Y-56918360D01*
X38430000Y-65650000D02*
X38430000Y-63170000D01*
X38430000Y-63170000D02*
X39370000Y-62230000D01*
X35230000Y-65650000D02*
X35230000Y-63830000D01*
X35230000Y-63830000D02*
X35560000Y-63500000D01*
X40830000Y-60770000D02*
X39370000Y-62230000D01*
X40830000Y-57150000D02*
X40830000Y-60770000D01*
X31750000Y-57150000D02*
X30480000Y-58420000D01*
X35230000Y-57150000D02*
X31750000Y-57150000D01*
X29215199Y-57144801D02*
X29540201Y-56819799D01*
X29215199Y-60128789D02*
X29215199Y-57144801D01*
X32486410Y-63400000D02*
X29215199Y-60128789D01*
X29540201Y-56819799D02*
X30480000Y-55880000D01*
X33780000Y-63400000D02*
X32486410Y-63400000D01*
X37630000Y-65650000D02*
X37630000Y-63030000D01*
X37630000Y-63030000D02*
X36830000Y-62230000D01*
X36030000Y-56300000D02*
X34340000Y-54610000D01*
X36030000Y-57150000D02*
X36030000Y-56300000D01*
X34340000Y-54610000D02*
X34290000Y-54610000D01*
X34290000Y-54610000D02*
X33020000Y-53340000D01*
X33020000Y-53340000D02*
X30480000Y-53340000D01*
X64770000Y-75778360D02*
X64770000Y-77863700D01*
X62230000Y-75778360D02*
X62230000Y-77863700D01*
X59690000Y-75778360D02*
X59690000Y-77863700D01*
X57150000Y-75778360D02*
X57150000Y-77863700D01*
X54610000Y-75778360D02*
X54610000Y-77863700D01*
X52070000Y-75778360D02*
X52070000Y-77863700D01*
X49530000Y-75778360D02*
X49530000Y-77863700D01*
X46990000Y-75778360D02*
X46990000Y-77863700D01*
X44450000Y-75778360D02*
X44450000Y-77863700D01*
X41910000Y-75778360D02*
X41910000Y-77863700D01*
X50139160Y-59400000D02*
X64770000Y-74030840D01*
X42280000Y-59400000D02*
X50139160Y-59400000D01*
X62230000Y-74030840D02*
X62230000Y-74081640D01*
X48399160Y-60200000D02*
X62230000Y-74030840D01*
X42280000Y-60200000D02*
X48399160Y-60200000D01*
X59690000Y-74030840D02*
X59690000Y-74081640D01*
X46659160Y-61000000D02*
X59690000Y-74030840D01*
X42280000Y-61000000D02*
X46659160Y-61000000D01*
X44919160Y-61800000D02*
X57150000Y-74030840D01*
X57150000Y-74030840D02*
X57150000Y-74081640D01*
X42280000Y-61800000D02*
X44919160Y-61800000D01*
X43130000Y-62600000D02*
X54610000Y-74080000D01*
X54610000Y-74080000D02*
X54610000Y-74081640D01*
X42280000Y-62600000D02*
X43130000Y-62600000D01*
X52070000Y-72340000D02*
X52070000Y-73281730D01*
X43130000Y-63400000D02*
X52070000Y-72340000D01*
X52070000Y-73281730D02*
X52070000Y-74081640D01*
X42280000Y-63400000D02*
X43130000Y-63400000D01*
X49530000Y-73281730D02*
X49530000Y-74081640D01*
X49530000Y-70600000D02*
X49530000Y-73281730D01*
X43130000Y-64200000D02*
X49530000Y-70600000D01*
X42280000Y-64200000D02*
X43130000Y-64200000D01*
X46990000Y-74030840D02*
X46990000Y-74081640D01*
X40830000Y-67870840D02*
X46990000Y-74030840D01*
X40830000Y-65650000D02*
X40830000Y-67870840D01*
X40030000Y-65650000D02*
X40030000Y-67970000D01*
X40030000Y-67970000D02*
X44450000Y-72390000D01*
X44450000Y-72390000D02*
X44450000Y-74081640D01*
X39230000Y-65650000D02*
X39230000Y-68440000D01*
X41910000Y-71120000D02*
X41910000Y-74081640D01*
X39230000Y-68440000D02*
X41910000Y-71120000D01*
D22*
G36*
X60193658Y-51570890D02*
G01*
X60196730Y-51784250D01*
X60355480Y-51943000D01*
X61254640Y-51943000D01*
X61254640Y-51923000D01*
X61508640Y-51923000D01*
X61508640Y-51943000D01*
X61528640Y-51943000D01*
X61528640Y-52197000D01*
X61508640Y-52197000D01*
X61508640Y-53045360D01*
X61667390Y-53204110D01*
X61931550Y-53207182D01*
X62056032Y-53194922D01*
X62175730Y-53158612D01*
X62230000Y-53129604D01*
X62284270Y-53158612D01*
X62318360Y-53168953D01*
X62318361Y-54611928D01*
X61840000Y-54611928D01*
X61715518Y-54624188D01*
X61595820Y-54660498D01*
X61485506Y-54719463D01*
X61388815Y-54798815D01*
X61309463Y-54895506D01*
X61250498Y-55005820D01*
X61214188Y-55125518D01*
X61201928Y-55250000D01*
X61201928Y-59050000D01*
X61214188Y-59174482D01*
X61250498Y-59294180D01*
X61309463Y-59404494D01*
X61388815Y-59501185D01*
X61485506Y-59580537D01*
X61595820Y-59639502D01*
X61715518Y-59675812D01*
X61840000Y-59688072D01*
X63840000Y-59688072D01*
X63964482Y-59675812D01*
X64084180Y-59639502D01*
X64194494Y-59580537D01*
X64291185Y-59501185D01*
X64370537Y-59404494D01*
X64429502Y-59294180D01*
X64465812Y-59174482D01*
X64478072Y-59050000D01*
X64478072Y-55250000D01*
X64465812Y-55125518D01*
X64429502Y-55005820D01*
X64370537Y-54895506D01*
X64291185Y-54798815D01*
X64194494Y-54719463D01*
X64084180Y-54660498D01*
X63964482Y-54624188D01*
X63840000Y-54611928D01*
X63838360Y-54611928D01*
X63838360Y-53168953D01*
X63872450Y-53158612D01*
X63982764Y-53099647D01*
X64079455Y-53020295D01*
X64158807Y-52923604D01*
X64217772Y-52813290D01*
X64254082Y-52693592D01*
X64266342Y-52569110D01*
X64266342Y-51570890D01*
X64257883Y-51485000D01*
X66625000Y-51485000D01*
X66625001Y-81357000D01*
X26085000Y-81357000D01*
X26085000Y-80115410D01*
X40772818Y-80115410D01*
X40785078Y-80239892D01*
X40821388Y-80359590D01*
X40880353Y-80469904D01*
X40959705Y-80566595D01*
X41056396Y-80645947D01*
X41166710Y-80704912D01*
X41286408Y-80741222D01*
X41410890Y-80753482D01*
X41624250Y-80750410D01*
X41783000Y-80591660D01*
X41783000Y-79743300D01*
X42037000Y-79743300D01*
X42037000Y-80591660D01*
X42195750Y-80750410D01*
X42409110Y-80753482D01*
X42533592Y-80741222D01*
X42653290Y-80704912D01*
X42763604Y-80645947D01*
X42860295Y-80566595D01*
X42939647Y-80469904D01*
X42998612Y-80359590D01*
X43034922Y-80239892D01*
X43047182Y-80115410D01*
X43312818Y-80115410D01*
X43325078Y-80239892D01*
X43361388Y-80359590D01*
X43420353Y-80469904D01*
X43499705Y-80566595D01*
X43596396Y-80645947D01*
X43706710Y-80704912D01*
X43826408Y-80741222D01*
X43950890Y-80753482D01*
X44164250Y-80750410D01*
X44323000Y-80591660D01*
X44323000Y-79743300D01*
X44577000Y-79743300D01*
X44577000Y-80591660D01*
X44735750Y-80750410D01*
X44949110Y-80753482D01*
X45073592Y-80741222D01*
X45193290Y-80704912D01*
X45303604Y-80645947D01*
X45400295Y-80566595D01*
X45479647Y-80469904D01*
X45538612Y-80359590D01*
X45574922Y-80239892D01*
X45587182Y-80115410D01*
X45852818Y-80115410D01*
X45865078Y-80239892D01*
X45901388Y-80359590D01*
X45960353Y-80469904D01*
X46039705Y-80566595D01*
X46136396Y-80645947D01*
X46246710Y-80704912D01*
X46366408Y-80741222D01*
X46490890Y-80753482D01*
X46704250Y-80750410D01*
X46863000Y-80591660D01*
X46863000Y-79743300D01*
X47117000Y-79743300D01*
X47117000Y-80591660D01*
X47275750Y-80750410D01*
X47489110Y-80753482D01*
X47613592Y-80741222D01*
X47733290Y-80704912D01*
X47843604Y-80645947D01*
X47940295Y-80566595D01*
X48019647Y-80469904D01*
X48078612Y-80359590D01*
X48114922Y-80239892D01*
X48127182Y-80115410D01*
X48392818Y-80115410D01*
X48405078Y-80239892D01*
X48441388Y-80359590D01*
X48500353Y-80469904D01*
X48579705Y-80566595D01*
X48676396Y-80645947D01*
X48786710Y-80704912D01*
X48906408Y-80741222D01*
X49030890Y-80753482D01*
X49244250Y-80750410D01*
X49403000Y-80591660D01*
X49403000Y-79743300D01*
X49657000Y-79743300D01*
X49657000Y-80591660D01*
X49815750Y-80750410D01*
X50029110Y-80753482D01*
X50153592Y-80741222D01*
X50273290Y-80704912D01*
X50383604Y-80645947D01*
X50480295Y-80566595D01*
X50559647Y-80469904D01*
X50618612Y-80359590D01*
X50654922Y-80239892D01*
X50667182Y-80115410D01*
X50932818Y-80115410D01*
X50945078Y-80239892D01*
X50981388Y-80359590D01*
X51040353Y-80469904D01*
X51119705Y-80566595D01*
X51216396Y-80645947D01*
X51326710Y-80704912D01*
X51446408Y-80741222D01*
X51570890Y-80753482D01*
X51784250Y-80750410D01*
X51943000Y-80591660D01*
X51943000Y-79743300D01*
X52197000Y-79743300D01*
X52197000Y-80591660D01*
X52355750Y-80750410D01*
X52569110Y-80753482D01*
X52693592Y-80741222D01*
X52813290Y-80704912D01*
X52923604Y-80645947D01*
X53020295Y-80566595D01*
X53099647Y-80469904D01*
X53158612Y-80359590D01*
X53194922Y-80239892D01*
X53207182Y-80115410D01*
X53472818Y-80115410D01*
X53485078Y-80239892D01*
X53521388Y-80359590D01*
X53580353Y-80469904D01*
X53659705Y-80566595D01*
X53756396Y-80645947D01*
X53866710Y-80704912D01*
X53986408Y-80741222D01*
X54110890Y-80753482D01*
X54324250Y-80750410D01*
X54483000Y-80591660D01*
X54483000Y-79743300D01*
X54737000Y-79743300D01*
X54737000Y-80591660D01*
X54895750Y-80750410D01*
X55109110Y-80753482D01*
X55233592Y-80741222D01*
X55353290Y-80704912D01*
X55463604Y-80645947D01*
X55560295Y-80566595D01*
X55639647Y-80469904D01*
X55698612Y-80359590D01*
X55734922Y-80239892D01*
X55747182Y-80115410D01*
X56012818Y-80115410D01*
X56025078Y-80239892D01*
X56061388Y-80359590D01*
X56120353Y-80469904D01*
X56199705Y-80566595D01*
X56296396Y-80645947D01*
X56406710Y-80704912D01*
X56526408Y-80741222D01*
X56650890Y-80753482D01*
X56864250Y-80750410D01*
X57023000Y-80591660D01*
X57023000Y-79743300D01*
X57277000Y-79743300D01*
X57277000Y-80591660D01*
X57435750Y-80750410D01*
X57649110Y-80753482D01*
X57773592Y-80741222D01*
X57893290Y-80704912D01*
X58003604Y-80645947D01*
X58100295Y-80566595D01*
X58179647Y-80469904D01*
X58238612Y-80359590D01*
X58274922Y-80239892D01*
X58287182Y-80115410D01*
X58552818Y-80115410D01*
X58565078Y-80239892D01*
X58601388Y-80359590D01*
X58660353Y-80469904D01*
X58739705Y-80566595D01*
X58836396Y-80645947D01*
X58946710Y-80704912D01*
X59066408Y-80741222D01*
X59190890Y-80753482D01*
X59404250Y-80750410D01*
X59563000Y-80591660D01*
X59563000Y-79743300D01*
X59817000Y-79743300D01*
X59817000Y-80591660D01*
X59975750Y-80750410D01*
X60189110Y-80753482D01*
X60313592Y-80741222D01*
X60433290Y-80704912D01*
X60543604Y-80645947D01*
X60640295Y-80566595D01*
X60719647Y-80469904D01*
X60778612Y-80359590D01*
X60814922Y-80239892D01*
X60827182Y-80115410D01*
X61092818Y-80115410D01*
X61105078Y-80239892D01*
X61141388Y-80359590D01*
X61200353Y-80469904D01*
X61279705Y-80566595D01*
X61376396Y-80645947D01*
X61486710Y-80704912D01*
X61606408Y-80741222D01*
X61730890Y-80753482D01*
X61944250Y-80750410D01*
X62103000Y-80591660D01*
X62103000Y-79743300D01*
X62357000Y-79743300D01*
X62357000Y-80591660D01*
X62515750Y-80750410D01*
X62729110Y-80753482D01*
X62853592Y-80741222D01*
X62973290Y-80704912D01*
X63083604Y-80645947D01*
X63180295Y-80566595D01*
X63259647Y-80469904D01*
X63318612Y-80359590D01*
X63354922Y-80239892D01*
X63367182Y-80115410D01*
X63632818Y-80115410D01*
X63645078Y-80239892D01*
X63681388Y-80359590D01*
X63740353Y-80469904D01*
X63819705Y-80566595D01*
X63916396Y-80645947D01*
X64026710Y-80704912D01*
X64146408Y-80741222D01*
X64270890Y-80753482D01*
X64484250Y-80750410D01*
X64643000Y-80591660D01*
X64643000Y-79743300D01*
X64897000Y-79743300D01*
X64897000Y-80591660D01*
X65055750Y-80750410D01*
X65269110Y-80753482D01*
X65393592Y-80741222D01*
X65513290Y-80704912D01*
X65623604Y-80645947D01*
X65720295Y-80566595D01*
X65799647Y-80469904D01*
X65858612Y-80359590D01*
X65894922Y-80239892D01*
X65907182Y-80115410D01*
X65904110Y-79902050D01*
X65745360Y-79743300D01*
X64897000Y-79743300D01*
X64643000Y-79743300D01*
X63794640Y-79743300D01*
X63635890Y-79902050D01*
X63632818Y-80115410D01*
X63367182Y-80115410D01*
X63364110Y-79902050D01*
X63205360Y-79743300D01*
X62357000Y-79743300D01*
X62103000Y-79743300D01*
X61254640Y-79743300D01*
X61095890Y-79902050D01*
X61092818Y-80115410D01*
X60827182Y-80115410D01*
X60824110Y-79902050D01*
X60665360Y-79743300D01*
X59817000Y-79743300D01*
X59563000Y-79743300D01*
X58714640Y-79743300D01*
X58555890Y-79902050D01*
X58552818Y-80115410D01*
X58287182Y-80115410D01*
X58284110Y-79902050D01*
X58125360Y-79743300D01*
X57277000Y-79743300D01*
X57023000Y-79743300D01*
X56174640Y-79743300D01*
X56015890Y-79902050D01*
X56012818Y-80115410D01*
X55747182Y-80115410D01*
X55744110Y-79902050D01*
X55585360Y-79743300D01*
X54737000Y-79743300D01*
X54483000Y-79743300D01*
X53634640Y-79743300D01*
X53475890Y-79902050D01*
X53472818Y-80115410D01*
X53207182Y-80115410D01*
X53204110Y-79902050D01*
X53045360Y-79743300D01*
X52197000Y-79743300D01*
X51943000Y-79743300D01*
X51094640Y-79743300D01*
X50935890Y-79902050D01*
X50932818Y-80115410D01*
X50667182Y-80115410D01*
X50664110Y-79902050D01*
X50505360Y-79743300D01*
X49657000Y-79743300D01*
X49403000Y-79743300D01*
X48554640Y-79743300D01*
X48395890Y-79902050D01*
X48392818Y-80115410D01*
X48127182Y-80115410D01*
X48124110Y-79902050D01*
X47965360Y-79743300D01*
X47117000Y-79743300D01*
X46863000Y-79743300D01*
X46014640Y-79743300D01*
X45855890Y-79902050D01*
X45852818Y-80115410D01*
X45587182Y-80115410D01*
X45584110Y-79902050D01*
X45425360Y-79743300D01*
X44577000Y-79743300D01*
X44323000Y-79743300D01*
X43474640Y-79743300D01*
X43315890Y-79902050D01*
X43312818Y-80115410D01*
X43047182Y-80115410D01*
X43044110Y-79902050D01*
X42885360Y-79743300D01*
X42037000Y-79743300D01*
X41783000Y-79743300D01*
X40934640Y-79743300D01*
X40775890Y-79902050D01*
X40772818Y-80115410D01*
X26085000Y-80115410D01*
X26085000Y-68451730D01*
X29342818Y-68451730D01*
X29345890Y-68715890D01*
X29504640Y-68874640D01*
X30353000Y-68874640D01*
X30353000Y-67975480D01*
X30607000Y-67975480D01*
X30607000Y-68874640D01*
X31455360Y-68874640D01*
X31614110Y-68715890D01*
X31617182Y-68451730D01*
X31604922Y-68327248D01*
X31568612Y-68207550D01*
X31509647Y-68097236D01*
X31430295Y-68000545D01*
X31333604Y-67921193D01*
X31223290Y-67862228D01*
X31103592Y-67825918D01*
X30979110Y-67813658D01*
X30765750Y-67816730D01*
X30607000Y-67975480D01*
X30353000Y-67975480D01*
X30194250Y-67816730D01*
X29980890Y-67813658D01*
X29856408Y-67825918D01*
X29736710Y-67862228D01*
X29626396Y-67921193D01*
X29529705Y-68000545D01*
X29450353Y-68097236D01*
X29391388Y-68207550D01*
X29355078Y-68327248D01*
X29342818Y-68451730D01*
X26085000Y-68451730D01*
X26085000Y-64481750D01*
X32545000Y-64481750D01*
X32556436Y-64585289D01*
X32594811Y-64704341D01*
X32655675Y-64813619D01*
X32736688Y-64908923D01*
X32834737Y-64986591D01*
X32946055Y-65043638D01*
X33066363Y-65077871D01*
X33191039Y-65087977D01*
X33494250Y-65085000D01*
X33653000Y-64926250D01*
X33653000Y-64323000D01*
X32703750Y-64323000D01*
X32545000Y-64481750D01*
X26085000Y-64481750D01*
X26085000Y-55724896D01*
X26365200Y-55724896D01*
X26365200Y-56035104D01*
X26425718Y-56339352D01*
X26544430Y-56625948D01*
X26716773Y-56883877D01*
X26936123Y-57103227D01*
X27006124Y-57150000D01*
X26936123Y-57196773D01*
X26716773Y-57416123D01*
X26544430Y-57674052D01*
X26425718Y-57960648D01*
X26365200Y-58264896D01*
X26365200Y-58575104D01*
X26425718Y-58879352D01*
X26544430Y-59165948D01*
X26716773Y-59423877D01*
X26936123Y-59643227D01*
X27194052Y-59815570D01*
X27480648Y-59934282D01*
X27784896Y-59994800D01*
X28095104Y-59994800D01*
X28399352Y-59934282D01*
X28455199Y-59911149D01*
X28455199Y-60091466D01*
X28451523Y-60128789D01*
X28455199Y-60166111D01*
X28455199Y-60166121D01*
X28466196Y-60277774D01*
X28501909Y-60395506D01*
X28509653Y-60421035D01*
X28580225Y-60553065D01*
X28597802Y-60574482D01*
X28675198Y-60668790D01*
X28704202Y-60692593D01*
X31922610Y-63911002D01*
X31946409Y-63940001D01*
X31975407Y-63963799D01*
X32062133Y-64034974D01*
X32140758Y-64077000D01*
X32194163Y-64105546D01*
X32337424Y-64149003D01*
X32449077Y-64160000D01*
X32449087Y-64160000D01*
X32486410Y-64163676D01*
X32523733Y-64160000D01*
X32800482Y-64160000D01*
X32825506Y-64180537D01*
X32935820Y-64239502D01*
X33055518Y-64275812D01*
X33180000Y-64288072D01*
X33927000Y-64288072D01*
X33927000Y-64323000D01*
X33907000Y-64323000D01*
X33907000Y-64926250D01*
X34065750Y-65085000D01*
X34341928Y-65087712D01*
X34341928Y-66250000D01*
X34354188Y-66374482D01*
X34390498Y-66494180D01*
X34449463Y-66604494D01*
X34528815Y-66701185D01*
X34625506Y-66780537D01*
X34657539Y-66797659D01*
X33693271Y-67761928D01*
X32490000Y-67761928D01*
X32365518Y-67774188D01*
X32245820Y-67810498D01*
X32135506Y-67869463D01*
X32038815Y-67948815D01*
X31959463Y-68045506D01*
X31900498Y-68155820D01*
X31864188Y-68275518D01*
X31851928Y-68400000D01*
X31851928Y-69600000D01*
X31864188Y-69724482D01*
X31900498Y-69844180D01*
X31903609Y-69850000D01*
X31900498Y-69855820D01*
X31875460Y-69938360D01*
X31578953Y-69938360D01*
X31568612Y-69904270D01*
X31539604Y-69850000D01*
X31568612Y-69795730D01*
X31604922Y-69676032D01*
X31617182Y-69551550D01*
X31614110Y-69287390D01*
X31455360Y-69128640D01*
X30607000Y-69128640D01*
X30607000Y-69148640D01*
X30353000Y-69148640D01*
X30353000Y-69128640D01*
X29504640Y-69128640D01*
X29345890Y-69287390D01*
X29342818Y-69551550D01*
X29355078Y-69676032D01*
X29391388Y-69795730D01*
X29420396Y-69850000D01*
X29391388Y-69904270D01*
X29355078Y-70023968D01*
X29342818Y-70148450D01*
X29342818Y-71248270D01*
X29355078Y-71372752D01*
X29391388Y-71492450D01*
X29450353Y-71602764D01*
X29529705Y-71699455D01*
X29626396Y-71778807D01*
X29736710Y-71837772D01*
X29856408Y-71874082D01*
X29980890Y-71886342D01*
X30979110Y-71886342D01*
X31103592Y-71874082D01*
X31223290Y-71837772D01*
X31333604Y-71778807D01*
X31430295Y-71699455D01*
X31509647Y-71602764D01*
X31568612Y-71492450D01*
X31578953Y-71458360D01*
X31874465Y-71458360D01*
X31900498Y-71544180D01*
X31959463Y-71654494D01*
X32038815Y-71751185D01*
X32135506Y-71830537D01*
X32245820Y-71889502D01*
X32365518Y-71925812D01*
X32490000Y-71938072D01*
X33890000Y-71938072D01*
X34014482Y-71925812D01*
X34134180Y-71889502D01*
X34244494Y-71830537D01*
X34290000Y-71793191D01*
X34335506Y-71830537D01*
X34445820Y-71889502D01*
X34565518Y-71925812D01*
X34690000Y-71938072D01*
X36090000Y-71938072D01*
X36214482Y-71925812D01*
X36334180Y-71889502D01*
X36444494Y-71830537D01*
X36477365Y-71803560D01*
X36541370Y-71837772D01*
X36661068Y-71874082D01*
X36785550Y-71886342D01*
X37783770Y-71886342D01*
X37908252Y-71874082D01*
X38027950Y-71837772D01*
X38138264Y-71778807D01*
X38234955Y-71699455D01*
X38314307Y-71602764D01*
X38373272Y-71492450D01*
X38409582Y-71372752D01*
X38421842Y-71248270D01*
X38421842Y-70148450D01*
X38409582Y-70023968D01*
X38373272Y-69904270D01*
X38344264Y-69850000D01*
X38373272Y-69795730D01*
X38409582Y-69676032D01*
X38421842Y-69551550D01*
X38418770Y-69287390D01*
X38260020Y-69128640D01*
X37411660Y-69128640D01*
X37411660Y-69148640D01*
X37157660Y-69148640D01*
X37157660Y-69128640D01*
X37137660Y-69128640D01*
X37137660Y-68874640D01*
X37157660Y-68874640D01*
X37157660Y-68854640D01*
X37411660Y-68854640D01*
X37411660Y-68874640D01*
X38260020Y-68874640D01*
X38418770Y-68715890D01*
X38421842Y-68451730D01*
X38409582Y-68327248D01*
X38373272Y-68207550D01*
X38314307Y-68097236D01*
X38234955Y-68000545D01*
X38138264Y-67921193D01*
X38027950Y-67862228D01*
X37908252Y-67825918D01*
X37783770Y-67813658D01*
X37576681Y-67816640D01*
X37579003Y-67808986D01*
X37590000Y-67697333D01*
X37590000Y-67697324D01*
X37593676Y-67660001D01*
X37590000Y-67622678D01*
X37590000Y-66888072D01*
X37880000Y-66888072D01*
X38004482Y-66875812D01*
X38030000Y-66868071D01*
X38055518Y-66875812D01*
X38180000Y-66888072D01*
X38470000Y-66888072D01*
X38470001Y-68402668D01*
X38466324Y-68440000D01*
X38480998Y-68588985D01*
X38524454Y-68732246D01*
X38595026Y-68864276D01*
X38666201Y-68951002D01*
X38690000Y-68980001D01*
X38718998Y-69003799D01*
X41150000Y-71434802D01*
X41150001Y-72951159D01*
X41056396Y-73001193D01*
X40959705Y-73080545D01*
X40880353Y-73177236D01*
X40821388Y-73287550D01*
X40785078Y-73407248D01*
X40772818Y-73531730D01*
X40772818Y-74631550D01*
X40785078Y-74756032D01*
X40821388Y-74875730D01*
X40850396Y-74930000D01*
X40821388Y-74984270D01*
X40785078Y-75103968D01*
X40772818Y-75228450D01*
X40772818Y-76328270D01*
X40785078Y-76452752D01*
X40821388Y-76572450D01*
X40880353Y-76682764D01*
X40959705Y-76779455D01*
X41041315Y-76846430D01*
X40959705Y-76913405D01*
X40880353Y-77010096D01*
X40821388Y-77120410D01*
X40785078Y-77240108D01*
X40772818Y-77364590D01*
X40772818Y-78362810D01*
X40785078Y-78487292D01*
X40821388Y-78606990D01*
X40880353Y-78717304D01*
X40898979Y-78740000D01*
X40880353Y-78762696D01*
X40821388Y-78873010D01*
X40785078Y-78992708D01*
X40772818Y-79117190D01*
X40775890Y-79330550D01*
X40934640Y-79489300D01*
X41783000Y-79489300D01*
X41783000Y-79469300D01*
X42037000Y-79469300D01*
X42037000Y-79489300D01*
X42885360Y-79489300D01*
X43044110Y-79330550D01*
X43047182Y-79117190D01*
X43034922Y-78992708D01*
X42998612Y-78873010D01*
X42939647Y-78762696D01*
X42921021Y-78740000D01*
X42939647Y-78717304D01*
X42998612Y-78606990D01*
X43034922Y-78487292D01*
X43047182Y-78362810D01*
X43047182Y-77364590D01*
X43034922Y-77240108D01*
X42998612Y-77120410D01*
X42939647Y-77010096D01*
X42860295Y-76913405D01*
X42778685Y-76846430D01*
X42860295Y-76779455D01*
X42939647Y-76682764D01*
X42998612Y-76572450D01*
X43034922Y-76452752D01*
X43047182Y-76328270D01*
X43047182Y-75228450D01*
X43034922Y-75103968D01*
X42998612Y-74984270D01*
X42969604Y-74930000D01*
X42998612Y-74875730D01*
X43034922Y-74756032D01*
X43047182Y-74631550D01*
X43047182Y-73531730D01*
X43034922Y-73407248D01*
X42998612Y-73287550D01*
X42939647Y-73177236D01*
X42860295Y-73080545D01*
X42763604Y-73001193D01*
X42670000Y-72951160D01*
X42670000Y-71684802D01*
X43690000Y-72704802D01*
X43690000Y-72951160D01*
X43596396Y-73001193D01*
X43499705Y-73080545D01*
X43420353Y-73177236D01*
X43361388Y-73287550D01*
X43325078Y-73407248D01*
X43312818Y-73531730D01*
X43312818Y-74631550D01*
X43325078Y-74756032D01*
X43361388Y-74875730D01*
X43390396Y-74930000D01*
X43361388Y-74984270D01*
X43325078Y-75103968D01*
X43312818Y-75228450D01*
X43312818Y-76328270D01*
X43325078Y-76452752D01*
X43361388Y-76572450D01*
X43420353Y-76682764D01*
X43499705Y-76779455D01*
X43581315Y-76846430D01*
X43499705Y-76913405D01*
X43420353Y-77010096D01*
X43361388Y-77120410D01*
X43325078Y-77240108D01*
X43312818Y-77364590D01*
X43312818Y-78362810D01*
X43325078Y-78487292D01*
X43361388Y-78606990D01*
X43420353Y-78717304D01*
X43438979Y-78740000D01*
X43420353Y-78762696D01*
X43361388Y-78873010D01*
X43325078Y-78992708D01*
X43312818Y-79117190D01*
X43315890Y-79330550D01*
X43474640Y-79489300D01*
X44323000Y-79489300D01*
X44323000Y-79469300D01*
X44577000Y-79469300D01*
X44577000Y-79489300D01*
X45425360Y-79489300D01*
X45584110Y-79330550D01*
X45587182Y-79117190D01*
X45574922Y-78992708D01*
X45538612Y-78873010D01*
X45479647Y-78762696D01*
X45461021Y-78740000D01*
X45479647Y-78717304D01*
X45538612Y-78606990D01*
X45574922Y-78487292D01*
X45587182Y-78362810D01*
X45587182Y-77364590D01*
X45574922Y-77240108D01*
X45538612Y-77120410D01*
X45479647Y-77010096D01*
X45400295Y-76913405D01*
X45318685Y-76846430D01*
X45400295Y-76779455D01*
X45479647Y-76682764D01*
X45538612Y-76572450D01*
X45574922Y-76452752D01*
X45587182Y-76328270D01*
X45587182Y-75228450D01*
X45574922Y-75103968D01*
X45538612Y-74984270D01*
X45509604Y-74930000D01*
X45538612Y-74875730D01*
X45574922Y-74756032D01*
X45587182Y-74631550D01*
X45587182Y-73702824D01*
X45852818Y-73968460D01*
X45852818Y-74631550D01*
X45865078Y-74756032D01*
X45901388Y-74875730D01*
X45930396Y-74930000D01*
X45901388Y-74984270D01*
X45865078Y-75103968D01*
X45852818Y-75228450D01*
X45852818Y-76328270D01*
X45865078Y-76452752D01*
X45901388Y-76572450D01*
X45960353Y-76682764D01*
X46039705Y-76779455D01*
X46121315Y-76846430D01*
X46039705Y-76913405D01*
X45960353Y-77010096D01*
X45901388Y-77120410D01*
X45865078Y-77240108D01*
X45852818Y-77364590D01*
X45852818Y-78362810D01*
X45865078Y-78487292D01*
X45901388Y-78606990D01*
X45960353Y-78717304D01*
X45978979Y-78740000D01*
X45960353Y-78762696D01*
X45901388Y-78873010D01*
X45865078Y-78992708D01*
X45852818Y-79117190D01*
X45855890Y-79330550D01*
X46014640Y-79489300D01*
X46863000Y-79489300D01*
X46863000Y-79469300D01*
X47117000Y-79469300D01*
X47117000Y-79489300D01*
X47965360Y-79489300D01*
X48124110Y-79330550D01*
X48127182Y-79117190D01*
X48114922Y-78992708D01*
X48078612Y-78873010D01*
X48019647Y-78762696D01*
X48001021Y-78740000D01*
X48019647Y-78717304D01*
X48078612Y-78606990D01*
X48114922Y-78487292D01*
X48127182Y-78362810D01*
X48127182Y-77364590D01*
X48114922Y-77240108D01*
X48078612Y-77120410D01*
X48019647Y-77010096D01*
X47940295Y-76913405D01*
X47858685Y-76846430D01*
X47940295Y-76779455D01*
X48019647Y-76682764D01*
X48078612Y-76572450D01*
X48114922Y-76452752D01*
X48127182Y-76328270D01*
X48127182Y-75228450D01*
X48114922Y-75103968D01*
X48078612Y-74984270D01*
X48049604Y-74930000D01*
X48078612Y-74875730D01*
X48114922Y-74756032D01*
X48127182Y-74631550D01*
X48127182Y-73531730D01*
X48114922Y-73407248D01*
X48078612Y-73287550D01*
X48019647Y-73177236D01*
X47940295Y-73080545D01*
X47843604Y-73001193D01*
X47733290Y-72942228D01*
X47613592Y-72905918D01*
X47489110Y-72893658D01*
X46927620Y-72893658D01*
X41590000Y-67556039D01*
X41590000Y-66629518D01*
X41610537Y-66604494D01*
X41669502Y-66494180D01*
X41705812Y-66374482D01*
X41718072Y-66250000D01*
X41718072Y-65088072D01*
X42880000Y-65088072D01*
X42937598Y-65082399D01*
X48770000Y-70914802D01*
X48770001Y-72951159D01*
X48676396Y-73001193D01*
X48579705Y-73080545D01*
X48500353Y-73177236D01*
X48441388Y-73287550D01*
X48405078Y-73407248D01*
X48392818Y-73531730D01*
X48392818Y-74631550D01*
X48405078Y-74756032D01*
X48441388Y-74875730D01*
X48470396Y-74930000D01*
X48441388Y-74984270D01*
X48405078Y-75103968D01*
X48392818Y-75228450D01*
X48392818Y-76328270D01*
X48405078Y-76452752D01*
X48441388Y-76572450D01*
X48500353Y-76682764D01*
X48579705Y-76779455D01*
X48661315Y-76846430D01*
X48579705Y-76913405D01*
X48500353Y-77010096D01*
X48441388Y-77120410D01*
X48405078Y-77240108D01*
X48392818Y-77364590D01*
X48392818Y-78362810D01*
X48405078Y-78487292D01*
X48441388Y-78606990D01*
X48500353Y-78717304D01*
X48518979Y-78740000D01*
X48500353Y-78762696D01*
X48441388Y-78873010D01*
X48405078Y-78992708D01*
X48392818Y-79117190D01*
X48395890Y-79330550D01*
X48554640Y-79489300D01*
X49403000Y-79489300D01*
X49403000Y-79469300D01*
X49657000Y-79469300D01*
X49657000Y-79489300D01*
X50505360Y-79489300D01*
X50664110Y-79330550D01*
X50667182Y-79117190D01*
X50654922Y-78992708D01*
X50618612Y-78873010D01*
X50559647Y-78762696D01*
X50541021Y-78740000D01*
X50559647Y-78717304D01*
X50618612Y-78606990D01*
X50654922Y-78487292D01*
X50667182Y-78362810D01*
X50667182Y-77364590D01*
X50654922Y-77240108D01*
X50618612Y-77120410D01*
X50559647Y-77010096D01*
X50480295Y-76913405D01*
X50398685Y-76846430D01*
X50480295Y-76779455D01*
X50559647Y-76682764D01*
X50618612Y-76572450D01*
X50654922Y-76452752D01*
X50667182Y-76328270D01*
X50667182Y-75228450D01*
X50654922Y-75103968D01*
X50618612Y-74984270D01*
X50589604Y-74930000D01*
X50618612Y-74875730D01*
X50654922Y-74756032D01*
X50667182Y-74631550D01*
X50667182Y-73531730D01*
X50654922Y-73407248D01*
X50618612Y-73287550D01*
X50559647Y-73177236D01*
X50480295Y-73080545D01*
X50383604Y-73001193D01*
X50290000Y-72951160D01*
X50290000Y-71634802D01*
X51310000Y-72654802D01*
X51310001Y-72951159D01*
X51216396Y-73001193D01*
X51119705Y-73080545D01*
X51040353Y-73177236D01*
X50981388Y-73287550D01*
X50945078Y-73407248D01*
X50932818Y-73531730D01*
X50932818Y-74631550D01*
X50945078Y-74756032D01*
X50981388Y-74875730D01*
X51010396Y-74930000D01*
X50981388Y-74984270D01*
X50945078Y-75103968D01*
X50932818Y-75228450D01*
X50932818Y-76328270D01*
X50945078Y-76452752D01*
X50981388Y-76572450D01*
X51040353Y-76682764D01*
X51119705Y-76779455D01*
X51201315Y-76846430D01*
X51119705Y-76913405D01*
X51040353Y-77010096D01*
X50981388Y-77120410D01*
X50945078Y-77240108D01*
X50932818Y-77364590D01*
X50932818Y-78362810D01*
X50945078Y-78487292D01*
X50981388Y-78606990D01*
X51040353Y-78717304D01*
X51058979Y-78740000D01*
X51040353Y-78762696D01*
X50981388Y-78873010D01*
X50945078Y-78992708D01*
X50932818Y-79117190D01*
X50935890Y-79330550D01*
X51094640Y-79489300D01*
X51943000Y-79489300D01*
X51943000Y-79469300D01*
X52197000Y-79469300D01*
X52197000Y-79489300D01*
X53045360Y-79489300D01*
X53204110Y-79330550D01*
X53207182Y-79117190D01*
X53194922Y-78992708D01*
X53158612Y-78873010D01*
X53099647Y-78762696D01*
X53081021Y-78740000D01*
X53099647Y-78717304D01*
X53158612Y-78606990D01*
X53194922Y-78487292D01*
X53207182Y-78362810D01*
X53207182Y-77364590D01*
X53194922Y-77240108D01*
X53158612Y-77120410D01*
X53099647Y-77010096D01*
X53020295Y-76913405D01*
X52938685Y-76846430D01*
X53020295Y-76779455D01*
X53099647Y-76682764D01*
X53158612Y-76572450D01*
X53194922Y-76452752D01*
X53207182Y-76328270D01*
X53207182Y-75228450D01*
X53194922Y-75103968D01*
X53158612Y-74984270D01*
X53129604Y-74930000D01*
X53158612Y-74875730D01*
X53194922Y-74756032D01*
X53207182Y-74631550D01*
X53207182Y-73751984D01*
X53472818Y-74017620D01*
X53472818Y-74631550D01*
X53485078Y-74756032D01*
X53521388Y-74875730D01*
X53550396Y-74930000D01*
X53521388Y-74984270D01*
X53485078Y-75103968D01*
X53472818Y-75228450D01*
X53472818Y-76328270D01*
X53485078Y-76452752D01*
X53521388Y-76572450D01*
X53580353Y-76682764D01*
X53659705Y-76779455D01*
X53741315Y-76846430D01*
X53659705Y-76913405D01*
X53580353Y-77010096D01*
X53521388Y-77120410D01*
X53485078Y-77240108D01*
X53472818Y-77364590D01*
X53472818Y-78362810D01*
X53485078Y-78487292D01*
X53521388Y-78606990D01*
X53580353Y-78717304D01*
X53598979Y-78740000D01*
X53580353Y-78762696D01*
X53521388Y-78873010D01*
X53485078Y-78992708D01*
X53472818Y-79117190D01*
X53475890Y-79330550D01*
X53634640Y-79489300D01*
X54483000Y-79489300D01*
X54483000Y-79469300D01*
X54737000Y-79469300D01*
X54737000Y-79489300D01*
X55585360Y-79489300D01*
X55744110Y-79330550D01*
X55747182Y-79117190D01*
X55734922Y-78992708D01*
X55698612Y-78873010D01*
X55639647Y-78762696D01*
X55621021Y-78740000D01*
X55639647Y-78717304D01*
X55698612Y-78606990D01*
X55734922Y-78487292D01*
X55747182Y-78362810D01*
X55747182Y-77364590D01*
X55734922Y-77240108D01*
X55698612Y-77120410D01*
X55639647Y-77010096D01*
X55560295Y-76913405D01*
X55478685Y-76846430D01*
X55560295Y-76779455D01*
X55639647Y-76682764D01*
X55698612Y-76572450D01*
X55734922Y-76452752D01*
X55747182Y-76328270D01*
X55747182Y-75228450D01*
X55734922Y-75103968D01*
X55698612Y-74984270D01*
X55669604Y-74930000D01*
X55698612Y-74875730D01*
X55734922Y-74756032D01*
X55747182Y-74631550D01*
X55747182Y-73702824D01*
X56012818Y-73968460D01*
X56012818Y-74631550D01*
X56025078Y-74756032D01*
X56061388Y-74875730D01*
X56090396Y-74930000D01*
X56061388Y-74984270D01*
X56025078Y-75103968D01*
X56012818Y-75228450D01*
X56012818Y-76328270D01*
X56025078Y-76452752D01*
X56061388Y-76572450D01*
X56120353Y-76682764D01*
X56199705Y-76779455D01*
X56281315Y-76846430D01*
X56199705Y-76913405D01*
X56120353Y-77010096D01*
X56061388Y-77120410D01*
X56025078Y-77240108D01*
X56012818Y-77364590D01*
X56012818Y-78362810D01*
X56025078Y-78487292D01*
X56061388Y-78606990D01*
X56120353Y-78717304D01*
X56138979Y-78740000D01*
X56120353Y-78762696D01*
X56061388Y-78873010D01*
X56025078Y-78992708D01*
X56012818Y-79117190D01*
X56015890Y-79330550D01*
X56174640Y-79489300D01*
X57023000Y-79489300D01*
X57023000Y-79469300D01*
X57277000Y-79469300D01*
X57277000Y-79489300D01*
X58125360Y-79489300D01*
X58284110Y-79330550D01*
X58287182Y-79117190D01*
X58274922Y-78992708D01*
X58238612Y-78873010D01*
X58179647Y-78762696D01*
X58161021Y-78740000D01*
X58179647Y-78717304D01*
X58238612Y-78606990D01*
X58274922Y-78487292D01*
X58287182Y-78362810D01*
X58287182Y-77364590D01*
X58274922Y-77240108D01*
X58238612Y-77120410D01*
X58179647Y-77010096D01*
X58100295Y-76913405D01*
X58018685Y-76846430D01*
X58100295Y-76779455D01*
X58179647Y-76682764D01*
X58238612Y-76572450D01*
X58274922Y-76452752D01*
X58287182Y-76328270D01*
X58287182Y-75228450D01*
X58274922Y-75103968D01*
X58238612Y-74984270D01*
X58209604Y-74930000D01*
X58238612Y-74875730D01*
X58274922Y-74756032D01*
X58287182Y-74631550D01*
X58287182Y-73702824D01*
X58552818Y-73968460D01*
X58552818Y-74631550D01*
X58565078Y-74756032D01*
X58601388Y-74875730D01*
X58630396Y-74930000D01*
X58601388Y-74984270D01*
X58565078Y-75103968D01*
X58552818Y-75228450D01*
X58552818Y-76328270D01*
X58565078Y-76452752D01*
X58601388Y-76572450D01*
X58660353Y-76682764D01*
X58739705Y-76779455D01*
X58821315Y-76846430D01*
X58739705Y-76913405D01*
X58660353Y-77010096D01*
X58601388Y-77120410D01*
X58565078Y-77240108D01*
X58552818Y-77364590D01*
X58552818Y-78362810D01*
X58565078Y-78487292D01*
X58601388Y-78606990D01*
X58660353Y-78717304D01*
X58678979Y-78740000D01*
X58660353Y-78762696D01*
X58601388Y-78873010D01*
X58565078Y-78992708D01*
X58552818Y-79117190D01*
X58555890Y-79330550D01*
X58714640Y-79489300D01*
X59563000Y-79489300D01*
X59563000Y-79469300D01*
X59817000Y-79469300D01*
X59817000Y-79489300D01*
X60665360Y-79489300D01*
X60824110Y-79330550D01*
X60827182Y-79117190D01*
X60814922Y-78992708D01*
X60778612Y-78873010D01*
X60719647Y-78762696D01*
X60701021Y-78740000D01*
X60719647Y-78717304D01*
X60778612Y-78606990D01*
X60814922Y-78487292D01*
X60827182Y-78362810D01*
X60827182Y-77364590D01*
X60814922Y-77240108D01*
X60778612Y-77120410D01*
X60719647Y-77010096D01*
X60640295Y-76913405D01*
X60558685Y-76846430D01*
X60640295Y-76779455D01*
X60719647Y-76682764D01*
X60778612Y-76572450D01*
X60814922Y-76452752D01*
X60827182Y-76328270D01*
X60827182Y-75228450D01*
X60814922Y-75103968D01*
X60778612Y-74984270D01*
X60749604Y-74930000D01*
X60778612Y-74875730D01*
X60814922Y-74756032D01*
X60827182Y-74631550D01*
X60827182Y-73702824D01*
X61092818Y-73968460D01*
X61092818Y-74631550D01*
X61105078Y-74756032D01*
X61141388Y-74875730D01*
X61170396Y-74930000D01*
X61141388Y-74984270D01*
X61105078Y-75103968D01*
X61092818Y-75228450D01*
X61092818Y-76328270D01*
X61105078Y-76452752D01*
X61141388Y-76572450D01*
X61200353Y-76682764D01*
X61279705Y-76779455D01*
X61361315Y-76846430D01*
X61279705Y-76913405D01*
X61200353Y-77010096D01*
X61141388Y-77120410D01*
X61105078Y-77240108D01*
X61092818Y-77364590D01*
X61092818Y-78362810D01*
X61105078Y-78487292D01*
X61141388Y-78606990D01*
X61200353Y-78717304D01*
X61218979Y-78740000D01*
X61200353Y-78762696D01*
X61141388Y-78873010D01*
X61105078Y-78992708D01*
X61092818Y-79117190D01*
X61095890Y-79330550D01*
X61254640Y-79489300D01*
X62103000Y-79489300D01*
X62103000Y-79469300D01*
X62357000Y-79469300D01*
X62357000Y-79489300D01*
X63205360Y-79489300D01*
X63364110Y-79330550D01*
X63367182Y-79117190D01*
X63354922Y-78992708D01*
X63318612Y-78873010D01*
X63259647Y-78762696D01*
X63241021Y-78740000D01*
X63259647Y-78717304D01*
X63318612Y-78606990D01*
X63354922Y-78487292D01*
X63367182Y-78362810D01*
X63367182Y-77364590D01*
X63354922Y-77240108D01*
X63318612Y-77120410D01*
X63259647Y-77010096D01*
X63180295Y-76913405D01*
X63098685Y-76846430D01*
X63180295Y-76779455D01*
X63259647Y-76682764D01*
X63318612Y-76572450D01*
X63354922Y-76452752D01*
X63367182Y-76328270D01*
X63367182Y-75228450D01*
X63354922Y-75103968D01*
X63318612Y-74984270D01*
X63289604Y-74930000D01*
X63318612Y-74875730D01*
X63354922Y-74756032D01*
X63367182Y-74631550D01*
X63367182Y-73702824D01*
X63632818Y-73968460D01*
X63632818Y-74631550D01*
X63645078Y-74756032D01*
X63681388Y-74875730D01*
X63710396Y-74930000D01*
X63681388Y-74984270D01*
X63645078Y-75103968D01*
X63632818Y-75228450D01*
X63632818Y-76328270D01*
X63645078Y-76452752D01*
X63681388Y-76572450D01*
X63740353Y-76682764D01*
X63819705Y-76779455D01*
X63901315Y-76846430D01*
X63819705Y-76913405D01*
X63740353Y-77010096D01*
X63681388Y-77120410D01*
X63645078Y-77240108D01*
X63632818Y-77364590D01*
X63632818Y-78362810D01*
X63645078Y-78487292D01*
X63681388Y-78606990D01*
X63740353Y-78717304D01*
X63758979Y-78740000D01*
X63740353Y-78762696D01*
X63681388Y-78873010D01*
X63645078Y-78992708D01*
X63632818Y-79117190D01*
X63635890Y-79330550D01*
X63794640Y-79489300D01*
X64643000Y-79489300D01*
X64643000Y-79469300D01*
X64897000Y-79469300D01*
X64897000Y-79489300D01*
X65745360Y-79489300D01*
X65904110Y-79330550D01*
X65907182Y-79117190D01*
X65894922Y-78992708D01*
X65858612Y-78873010D01*
X65799647Y-78762696D01*
X65781021Y-78740000D01*
X65799647Y-78717304D01*
X65858612Y-78606990D01*
X65894922Y-78487292D01*
X65907182Y-78362810D01*
X65907182Y-77364590D01*
X65894922Y-77240108D01*
X65858612Y-77120410D01*
X65799647Y-77010096D01*
X65720295Y-76913405D01*
X65638685Y-76846430D01*
X65720295Y-76779455D01*
X65799647Y-76682764D01*
X65858612Y-76572450D01*
X65894922Y-76452752D01*
X65907182Y-76328270D01*
X65907182Y-75228450D01*
X65894922Y-75103968D01*
X65858612Y-74984270D01*
X65829604Y-74930000D01*
X65858612Y-74875730D01*
X65894922Y-74756032D01*
X65907182Y-74631550D01*
X65907182Y-73531730D01*
X65894922Y-73407248D01*
X65858612Y-73287550D01*
X65799647Y-73177236D01*
X65720295Y-73080545D01*
X65623604Y-73001193D01*
X65513290Y-72942228D01*
X65393592Y-72905918D01*
X65269110Y-72893658D01*
X64707620Y-72893658D01*
X50702964Y-58889003D01*
X50679161Y-58859999D01*
X50563436Y-58765026D01*
X50431407Y-58694454D01*
X50288146Y-58650997D01*
X50176493Y-58640000D01*
X50176482Y-58640000D01*
X50139160Y-58636324D01*
X50101838Y-58640000D01*
X43259518Y-58640000D01*
X43234494Y-58619463D01*
X43124180Y-58560498D01*
X43004482Y-58524188D01*
X42880000Y-58511928D01*
X42133000Y-58511928D01*
X42133000Y-58477000D01*
X42153000Y-58477000D01*
X42153000Y-57873750D01*
X42407000Y-57873750D01*
X42407000Y-58477000D01*
X43356250Y-58477000D01*
X43515000Y-58318250D01*
X43503564Y-58214711D01*
X43465189Y-58095659D01*
X43404325Y-57986381D01*
X43323312Y-57891077D01*
X43225263Y-57813409D01*
X43113945Y-57756362D01*
X42993637Y-57722129D01*
X42868961Y-57712023D01*
X42565750Y-57715000D01*
X42407000Y-57873750D01*
X42153000Y-57873750D01*
X41994250Y-57715000D01*
X41718072Y-57712288D01*
X41718072Y-57302491D01*
X41767186Y-57210607D01*
X41810643Y-57067346D01*
X41821640Y-56955693D01*
X41821640Y-56955684D01*
X41825316Y-56918361D01*
X41821640Y-56881038D01*
X41821640Y-56851550D01*
X52202818Y-56851550D01*
X52215078Y-56976032D01*
X52251388Y-57095730D01*
X52280396Y-57150000D01*
X52251388Y-57204270D01*
X52215078Y-57323968D01*
X52202818Y-57448450D01*
X52202818Y-58548270D01*
X52215078Y-58672752D01*
X52251388Y-58792450D01*
X52310353Y-58902764D01*
X52389705Y-58999455D01*
X52486396Y-59078807D01*
X52596710Y-59137772D01*
X52716408Y-59174082D01*
X52840890Y-59186342D01*
X53402381Y-59186342D01*
X54177041Y-59961003D01*
X54200839Y-59990001D01*
X54229837Y-60013799D01*
X54316563Y-60084974D01*
X54389927Y-60124188D01*
X54448593Y-60155546D01*
X54591854Y-60199003D01*
X54703507Y-60210000D01*
X54703517Y-60210000D01*
X54740840Y-60213676D01*
X54778163Y-60210000D01*
X54902913Y-60210000D01*
X54914188Y-60324482D01*
X54950498Y-60444180D01*
X55009463Y-60554494D01*
X55088815Y-60651185D01*
X55185506Y-60730537D01*
X55295820Y-60789502D01*
X55415518Y-60825812D01*
X55540000Y-60838072D01*
X55655001Y-60838072D01*
X55655001Y-61576521D01*
X55650719Y-61620000D01*
X55667805Y-61793490D01*
X55718412Y-61960313D01*
X55800590Y-62114059D01*
X55883468Y-62215046D01*
X55883471Y-62215049D01*
X55911184Y-62248817D01*
X55944951Y-62276529D01*
X56873092Y-63204671D01*
X56845200Y-63344896D01*
X56845200Y-63655104D01*
X56905718Y-63959352D01*
X57024430Y-64245948D01*
X57196773Y-64503877D01*
X57416123Y-64723227D01*
X57674052Y-64895570D01*
X57960648Y-65014282D01*
X58264896Y-65074800D01*
X58575104Y-65074800D01*
X58879352Y-65014282D01*
X59165948Y-64895570D01*
X59423877Y-64723227D01*
X59554628Y-64592476D01*
X60047129Y-64592476D01*
X60135623Y-64850723D01*
X60414976Y-64985597D01*
X60715275Y-65063381D01*
X61024977Y-65081084D01*
X61332184Y-65038027D01*
X61625086Y-64935865D01*
X61784377Y-64850723D01*
X61872871Y-64592476D01*
X60960000Y-63679605D01*
X60047129Y-64592476D01*
X59554628Y-64592476D01*
X59643227Y-64503877D01*
X59734495Y-64367286D01*
X59867524Y-64412871D01*
X60780395Y-63500000D01*
X61139605Y-63500000D01*
X62052476Y-64412871D01*
X62310723Y-64324377D01*
X62445597Y-64045024D01*
X62523381Y-63744725D01*
X62541084Y-63435023D01*
X62498027Y-63127816D01*
X62395865Y-62834914D01*
X62310723Y-62675623D01*
X62052476Y-62587129D01*
X61139605Y-63500000D01*
X60780395Y-63500000D01*
X59867524Y-62587129D01*
X59734495Y-62632714D01*
X59643227Y-62496123D01*
X59554628Y-62407524D01*
X60047129Y-62407524D01*
X60960000Y-63320395D01*
X61872871Y-62407524D01*
X61784377Y-62149277D01*
X61505024Y-62014403D01*
X61204725Y-61936619D01*
X60895023Y-61918916D01*
X60587816Y-61961973D01*
X60294914Y-62064135D01*
X60135623Y-62149277D01*
X60047129Y-62407524D01*
X59554628Y-62407524D01*
X59423877Y-62276773D01*
X59165948Y-62104430D01*
X58879352Y-61985718D01*
X58575104Y-61925200D01*
X58264896Y-61925200D01*
X58124671Y-61953092D01*
X57425000Y-61253422D01*
X57425000Y-60838072D01*
X57540000Y-60838072D01*
X57664482Y-60825812D01*
X57784180Y-60789502D01*
X57894494Y-60730537D01*
X57991185Y-60651185D01*
X58070537Y-60554494D01*
X58129502Y-60444180D01*
X58165812Y-60324482D01*
X58178072Y-60200000D01*
X58178072Y-58700000D01*
X58165812Y-58575518D01*
X58129502Y-58455820D01*
X58070537Y-58345506D01*
X58033191Y-58300000D01*
X58070537Y-58254494D01*
X58129502Y-58144180D01*
X58165812Y-58024482D01*
X58178072Y-57900000D01*
X58178072Y-56400000D01*
X58165812Y-56275518D01*
X58129502Y-56155820D01*
X58070537Y-56045506D01*
X58033191Y-56000000D01*
X58070537Y-55954494D01*
X58129502Y-55844180D01*
X58165812Y-55724482D01*
X58178072Y-55600000D01*
X58175000Y-55135750D01*
X58016250Y-54977000D01*
X56667000Y-54977000D01*
X56667000Y-54997000D01*
X56413000Y-54997000D01*
X56413000Y-54977000D01*
X55063750Y-54977000D01*
X54905000Y-55135750D01*
X54901928Y-55600000D01*
X54914188Y-55724482D01*
X54950498Y-55844180D01*
X55009463Y-55954494D01*
X55046809Y-56000000D01*
X55009463Y-56045506D01*
X54950498Y-56155820D01*
X54914188Y-56275518D01*
X54901928Y-56400000D01*
X54901928Y-57900000D01*
X54914188Y-58024482D01*
X54950498Y-58144180D01*
X55009463Y-58254494D01*
X55046809Y-58300000D01*
X55009463Y-58345506D01*
X54950498Y-58455820D01*
X54920466Y-58554824D01*
X54477182Y-58111541D01*
X54477182Y-57448450D01*
X54464922Y-57323968D01*
X54428612Y-57204270D01*
X54399604Y-57150000D01*
X54428612Y-57095730D01*
X54464922Y-56976032D01*
X54477182Y-56851550D01*
X54474110Y-56587390D01*
X54315360Y-56428640D01*
X53467000Y-56428640D01*
X53467000Y-56448640D01*
X53213000Y-56448640D01*
X53213000Y-56428640D01*
X52364640Y-56428640D01*
X52205890Y-56587390D01*
X52202818Y-56851550D01*
X41821640Y-56851550D01*
X41821640Y-55751730D01*
X52202818Y-55751730D01*
X52205890Y-56015890D01*
X52364640Y-56174640D01*
X53213000Y-56174640D01*
X53213000Y-55275480D01*
X53467000Y-55275480D01*
X53467000Y-56174640D01*
X54315360Y-56174640D01*
X54474110Y-56015890D01*
X54477182Y-55751730D01*
X54464922Y-55627248D01*
X54428612Y-55507550D01*
X54369647Y-55397236D01*
X54290295Y-55300545D01*
X54193604Y-55221193D01*
X54083290Y-55162228D01*
X53963592Y-55125918D01*
X53839110Y-55113658D01*
X53625750Y-55116730D01*
X53467000Y-55275480D01*
X53213000Y-55275480D01*
X53054250Y-55116730D01*
X52840890Y-55113658D01*
X52716408Y-55125918D01*
X52596710Y-55162228D01*
X52486396Y-55221193D01*
X52389705Y-55300545D01*
X52310353Y-55397236D01*
X52251388Y-55507550D01*
X52215078Y-55627248D01*
X52202818Y-55751730D01*
X41821640Y-55751730D01*
X41821640Y-55708953D01*
X41855730Y-55698612D01*
X41910000Y-55669604D01*
X41964270Y-55698612D01*
X42083968Y-55734922D01*
X42208450Y-55747182D01*
X42472610Y-55744110D01*
X42631360Y-55585360D01*
X42631360Y-54737000D01*
X42885360Y-54737000D01*
X42885360Y-55585360D01*
X43044110Y-55744110D01*
X43308270Y-55747182D01*
X43432752Y-55734922D01*
X43552450Y-55698612D01*
X43662764Y-55639647D01*
X43759455Y-55560295D01*
X43838807Y-55463604D01*
X43897772Y-55353290D01*
X43934082Y-55233592D01*
X43946342Y-55109110D01*
X43943270Y-54895750D01*
X43784520Y-54737000D01*
X42885360Y-54737000D01*
X42631360Y-54737000D01*
X42611360Y-54737000D01*
X42611360Y-54483000D01*
X42631360Y-54483000D01*
X42631360Y-53634640D01*
X42885360Y-53634640D01*
X42885360Y-54483000D01*
X43784520Y-54483000D01*
X43943270Y-54324250D01*
X43946342Y-54110890D01*
X43945270Y-54100000D01*
X54901928Y-54100000D01*
X54905000Y-54564250D01*
X55063750Y-54723000D01*
X56413000Y-54723000D01*
X56413000Y-53623750D01*
X56667000Y-53623750D01*
X56667000Y-54723000D01*
X58016250Y-54723000D01*
X58175000Y-54564250D01*
X58178072Y-54100000D01*
X58165812Y-53975518D01*
X58129502Y-53855820D01*
X58070537Y-53745506D01*
X57991185Y-53648815D01*
X57894494Y-53569463D01*
X57784180Y-53510498D01*
X57664482Y-53474188D01*
X57540000Y-53461928D01*
X56825750Y-53465000D01*
X56667000Y-53623750D01*
X56413000Y-53623750D01*
X56254250Y-53465000D01*
X55540000Y-53461928D01*
X55415518Y-53474188D01*
X55295820Y-53510498D01*
X55185506Y-53569463D01*
X55088815Y-53648815D01*
X55009463Y-53745506D01*
X54950498Y-53855820D01*
X54914188Y-53975518D01*
X54901928Y-54100000D01*
X43945270Y-54100000D01*
X43934082Y-53986408D01*
X43897772Y-53866710D01*
X43838807Y-53756396D01*
X43759455Y-53659705D01*
X43662764Y-53580353D01*
X43552450Y-53521388D01*
X43432752Y-53485078D01*
X43308270Y-53472818D01*
X43044110Y-53475890D01*
X42885360Y-53634640D01*
X42631360Y-53634640D01*
X42472610Y-53475890D01*
X42208450Y-53472818D01*
X42083968Y-53485078D01*
X41964270Y-53521388D01*
X41910000Y-53550396D01*
X41855730Y-53521388D01*
X41736032Y-53485078D01*
X41611550Y-53472818D01*
X40511730Y-53472818D01*
X40387248Y-53485078D01*
X40267550Y-53521388D01*
X40157236Y-53580353D01*
X40060545Y-53659705D01*
X39981193Y-53756396D01*
X39922228Y-53866710D01*
X39885918Y-53986408D01*
X39873658Y-54110890D01*
X39873658Y-55109110D01*
X39885918Y-55233592D01*
X39922228Y-55353290D01*
X39981193Y-55463604D01*
X40060545Y-55560295D01*
X40157236Y-55639647D01*
X40267550Y-55698612D01*
X40301640Y-55708953D01*
X40301641Y-55914059D01*
X40280000Y-55911928D01*
X39780000Y-55911928D01*
X39655518Y-55924188D01*
X39630000Y-55931929D01*
X39604482Y-55924188D01*
X39480000Y-55911928D01*
X38980000Y-55911928D01*
X38855518Y-55924188D01*
X38830000Y-55931929D01*
X38804482Y-55924188D01*
X38680000Y-55911928D01*
X38180000Y-55911928D01*
X38055518Y-55924188D01*
X38030000Y-55931929D01*
X38004482Y-55924188D01*
X37880000Y-55911928D01*
X37380000Y-55911928D01*
X37255518Y-55924188D01*
X37230000Y-55931929D01*
X37204482Y-55924188D01*
X37080000Y-55911928D01*
X36684326Y-55911928D01*
X36664974Y-55875723D01*
X36593799Y-55788997D01*
X36570001Y-55759999D01*
X36541003Y-55736201D01*
X34903804Y-54099003D01*
X34880001Y-54069999D01*
X34764276Y-53975026D01*
X34690271Y-53935469D01*
X33583804Y-52829003D01*
X33560001Y-52799999D01*
X33444276Y-52705026D01*
X33312247Y-52634454D01*
X33168986Y-52590997D01*
X33057333Y-52580000D01*
X33057322Y-52580000D01*
X33020000Y-52576324D01*
X32982678Y-52580000D01*
X31866181Y-52580000D01*
X31858905Y-52569110D01*
X60193658Y-52569110D01*
X60205918Y-52693592D01*
X60242228Y-52813290D01*
X60301193Y-52923604D01*
X60380545Y-53020295D01*
X60477236Y-53099647D01*
X60587550Y-53158612D01*
X60707248Y-53194922D01*
X60831730Y-53207182D01*
X61095890Y-53204110D01*
X61254640Y-53045360D01*
X61254640Y-52197000D01*
X60355480Y-52197000D01*
X60196730Y-52355750D01*
X60193658Y-52569110D01*
X31858905Y-52569110D01*
X31703227Y-52336123D01*
X31483877Y-52116773D01*
X31225948Y-51944430D01*
X30939352Y-51825718D01*
X30635104Y-51765200D01*
X30324896Y-51765200D01*
X30020648Y-51825718D01*
X29734052Y-51944430D01*
X29476123Y-52116773D01*
X29256773Y-52336123D01*
X29165505Y-52472714D01*
X29032476Y-52427129D01*
X28119605Y-53340000D01*
X29032476Y-54252871D01*
X29165505Y-54207286D01*
X29256773Y-54343877D01*
X29476123Y-54563227D01*
X29546124Y-54610000D01*
X29476123Y-54656773D01*
X29256773Y-54876123D01*
X29210000Y-54946124D01*
X29163227Y-54876123D01*
X28943877Y-54656773D01*
X28807286Y-54565505D01*
X28852871Y-54432476D01*
X27940000Y-53519605D01*
X27027129Y-54432476D01*
X27072714Y-54565505D01*
X26936123Y-54656773D01*
X26716773Y-54876123D01*
X26544430Y-55134052D01*
X26425718Y-55420648D01*
X26365200Y-55724896D01*
X26085000Y-55724896D01*
X26085000Y-53404977D01*
X26358916Y-53404977D01*
X26401973Y-53712184D01*
X26504135Y-54005086D01*
X26589277Y-54164377D01*
X26847524Y-54252871D01*
X27760395Y-53340000D01*
X26847524Y-52427129D01*
X26589277Y-52515623D01*
X26454403Y-52794976D01*
X26376619Y-53095275D01*
X26358916Y-53404977D01*
X26085000Y-53404977D01*
X26085000Y-52247524D01*
X27027129Y-52247524D01*
X27940000Y-53160395D01*
X28852871Y-52247524D01*
X28764377Y-51989277D01*
X28485024Y-51854403D01*
X28184725Y-51776619D01*
X27875023Y-51758916D01*
X27567816Y-51801973D01*
X27274914Y-51904135D01*
X27115623Y-51989277D01*
X27027129Y-52247524D01*
X26085000Y-52247524D01*
X26085000Y-51485000D01*
X60202117Y-51485000D01*
X60193658Y-51570890D01*
X60193658Y-51570890D01*
G37*
X60193658Y-51570890D02*
X60196730Y-51784250D01*
X60355480Y-51943000D01*
X61254640Y-51943000D01*
X61254640Y-51923000D01*
X61508640Y-51923000D01*
X61508640Y-51943000D01*
X61528640Y-51943000D01*
X61528640Y-52197000D01*
X61508640Y-52197000D01*
X61508640Y-53045360D01*
X61667390Y-53204110D01*
X61931550Y-53207182D01*
X62056032Y-53194922D01*
X62175730Y-53158612D01*
X62230000Y-53129604D01*
X62284270Y-53158612D01*
X62318360Y-53168953D01*
X62318361Y-54611928D01*
X61840000Y-54611928D01*
X61715518Y-54624188D01*
X61595820Y-54660498D01*
X61485506Y-54719463D01*
X61388815Y-54798815D01*
X61309463Y-54895506D01*
X61250498Y-55005820D01*
X61214188Y-55125518D01*
X61201928Y-55250000D01*
X61201928Y-59050000D01*
X61214188Y-59174482D01*
X61250498Y-59294180D01*
X61309463Y-59404494D01*
X61388815Y-59501185D01*
X61485506Y-59580537D01*
X61595820Y-59639502D01*
X61715518Y-59675812D01*
X61840000Y-59688072D01*
X63840000Y-59688072D01*
X63964482Y-59675812D01*
X64084180Y-59639502D01*
X64194494Y-59580537D01*
X64291185Y-59501185D01*
X64370537Y-59404494D01*
X64429502Y-59294180D01*
X64465812Y-59174482D01*
X64478072Y-59050000D01*
X64478072Y-55250000D01*
X64465812Y-55125518D01*
X64429502Y-55005820D01*
X64370537Y-54895506D01*
X64291185Y-54798815D01*
X64194494Y-54719463D01*
X64084180Y-54660498D01*
X63964482Y-54624188D01*
X63840000Y-54611928D01*
X63838360Y-54611928D01*
X63838360Y-53168953D01*
X63872450Y-53158612D01*
X63982764Y-53099647D01*
X64079455Y-53020295D01*
X64158807Y-52923604D01*
X64217772Y-52813290D01*
X64254082Y-52693592D01*
X64266342Y-52569110D01*
X64266342Y-51570890D01*
X64257883Y-51485000D01*
X66625000Y-51485000D01*
X66625001Y-81357000D01*
X26085000Y-81357000D01*
X26085000Y-80115410D01*
X40772818Y-80115410D01*
X40785078Y-80239892D01*
X40821388Y-80359590D01*
X40880353Y-80469904D01*
X40959705Y-80566595D01*
X41056396Y-80645947D01*
X41166710Y-80704912D01*
X41286408Y-80741222D01*
X41410890Y-80753482D01*
X41624250Y-80750410D01*
X41783000Y-80591660D01*
X41783000Y-79743300D01*
X42037000Y-79743300D01*
X42037000Y-80591660D01*
X42195750Y-80750410D01*
X42409110Y-80753482D01*
X42533592Y-80741222D01*
X42653290Y-80704912D01*
X42763604Y-80645947D01*
X42860295Y-80566595D01*
X42939647Y-80469904D01*
X42998612Y-80359590D01*
X43034922Y-80239892D01*
X43047182Y-80115410D01*
X43312818Y-80115410D01*
X43325078Y-80239892D01*
X43361388Y-80359590D01*
X43420353Y-80469904D01*
X43499705Y-80566595D01*
X43596396Y-80645947D01*
X43706710Y-80704912D01*
X43826408Y-80741222D01*
X43950890Y-80753482D01*
X44164250Y-80750410D01*
X44323000Y-80591660D01*
X44323000Y-79743300D01*
X44577000Y-79743300D01*
X44577000Y-80591660D01*
X44735750Y-80750410D01*
X44949110Y-80753482D01*
X45073592Y-80741222D01*
X45193290Y-80704912D01*
X45303604Y-80645947D01*
X45400295Y-80566595D01*
X45479647Y-80469904D01*
X45538612Y-80359590D01*
X45574922Y-80239892D01*
X45587182Y-80115410D01*
X45852818Y-80115410D01*
X45865078Y-80239892D01*
X45901388Y-80359590D01*
X45960353Y-80469904D01*
X46039705Y-80566595D01*
X46136396Y-80645947D01*
X46246710Y-80704912D01*
X46366408Y-80741222D01*
X46490890Y-80753482D01*
X46704250Y-80750410D01*
X46863000Y-80591660D01*
X46863000Y-79743300D01*
X47117000Y-79743300D01*
X47117000Y-80591660D01*
X47275750Y-80750410D01*
X47489110Y-80753482D01*
X47613592Y-80741222D01*
X47733290Y-80704912D01*
X47843604Y-80645947D01*
X47940295Y-80566595D01*
X48019647Y-80469904D01*
X48078612Y-80359590D01*
X48114922Y-80239892D01*
X48127182Y-80115410D01*
X48392818Y-80115410D01*
X48405078Y-80239892D01*
X48441388Y-80359590D01*
X48500353Y-80469904D01*
X48579705Y-80566595D01*
X48676396Y-80645947D01*
X48786710Y-80704912D01*
X48906408Y-80741222D01*
X49030890Y-80753482D01*
X49244250Y-80750410D01*
X49403000Y-80591660D01*
X49403000Y-79743300D01*
X49657000Y-79743300D01*
X49657000Y-80591660D01*
X49815750Y-80750410D01*
X50029110Y-80753482D01*
X50153592Y-80741222D01*
X50273290Y-80704912D01*
X50383604Y-80645947D01*
X50480295Y-80566595D01*
X50559647Y-80469904D01*
X50618612Y-80359590D01*
X50654922Y-80239892D01*
X50667182Y-80115410D01*
X50932818Y-80115410D01*
X50945078Y-80239892D01*
X50981388Y-80359590D01*
X51040353Y-80469904D01*
X51119705Y-80566595D01*
X51216396Y-80645947D01*
X51326710Y-80704912D01*
X51446408Y-80741222D01*
X51570890Y-80753482D01*
X51784250Y-80750410D01*
X51943000Y-80591660D01*
X51943000Y-79743300D01*
X52197000Y-79743300D01*
X52197000Y-80591660D01*
X52355750Y-80750410D01*
X52569110Y-80753482D01*
X52693592Y-80741222D01*
X52813290Y-80704912D01*
X52923604Y-80645947D01*
X53020295Y-80566595D01*
X53099647Y-80469904D01*
X53158612Y-80359590D01*
X53194922Y-80239892D01*
X53207182Y-80115410D01*
X53472818Y-80115410D01*
X53485078Y-80239892D01*
X53521388Y-80359590D01*
X53580353Y-80469904D01*
X53659705Y-80566595D01*
X53756396Y-80645947D01*
X53866710Y-80704912D01*
X53986408Y-80741222D01*
X54110890Y-80753482D01*
X54324250Y-80750410D01*
X54483000Y-80591660D01*
X54483000Y-79743300D01*
X54737000Y-79743300D01*
X54737000Y-80591660D01*
X54895750Y-80750410D01*
X55109110Y-80753482D01*
X55233592Y-80741222D01*
X55353290Y-80704912D01*
X55463604Y-80645947D01*
X55560295Y-80566595D01*
X55639647Y-80469904D01*
X55698612Y-80359590D01*
X55734922Y-80239892D01*
X55747182Y-80115410D01*
X56012818Y-80115410D01*
X56025078Y-80239892D01*
X56061388Y-80359590D01*
X56120353Y-80469904D01*
X56199705Y-80566595D01*
X56296396Y-80645947D01*
X56406710Y-80704912D01*
X56526408Y-80741222D01*
X56650890Y-80753482D01*
X56864250Y-80750410D01*
X57023000Y-80591660D01*
X57023000Y-79743300D01*
X57277000Y-79743300D01*
X57277000Y-80591660D01*
X57435750Y-80750410D01*
X57649110Y-80753482D01*
X57773592Y-80741222D01*
X57893290Y-80704912D01*
X58003604Y-80645947D01*
X58100295Y-80566595D01*
X58179647Y-80469904D01*
X58238612Y-80359590D01*
X58274922Y-80239892D01*
X58287182Y-80115410D01*
X58552818Y-80115410D01*
X58565078Y-80239892D01*
X58601388Y-80359590D01*
X58660353Y-80469904D01*
X58739705Y-80566595D01*
X58836396Y-80645947D01*
X58946710Y-80704912D01*
X59066408Y-80741222D01*
X59190890Y-80753482D01*
X59404250Y-80750410D01*
X59563000Y-80591660D01*
X59563000Y-79743300D01*
X59817000Y-79743300D01*
X59817000Y-80591660D01*
X59975750Y-80750410D01*
X60189110Y-80753482D01*
X60313592Y-80741222D01*
X60433290Y-80704912D01*
X60543604Y-80645947D01*
X60640295Y-80566595D01*
X60719647Y-80469904D01*
X60778612Y-80359590D01*
X60814922Y-80239892D01*
X60827182Y-80115410D01*
X61092818Y-80115410D01*
X61105078Y-80239892D01*
X61141388Y-80359590D01*
X61200353Y-80469904D01*
X61279705Y-80566595D01*
X61376396Y-80645947D01*
X61486710Y-80704912D01*
X61606408Y-80741222D01*
X61730890Y-80753482D01*
X61944250Y-80750410D01*
X62103000Y-80591660D01*
X62103000Y-79743300D01*
X62357000Y-79743300D01*
X62357000Y-80591660D01*
X62515750Y-80750410D01*
X62729110Y-80753482D01*
X62853592Y-80741222D01*
X62973290Y-80704912D01*
X63083604Y-80645947D01*
X63180295Y-80566595D01*
X63259647Y-80469904D01*
X63318612Y-80359590D01*
X63354922Y-80239892D01*
X63367182Y-80115410D01*
X63632818Y-80115410D01*
X63645078Y-80239892D01*
X63681388Y-80359590D01*
X63740353Y-80469904D01*
X63819705Y-80566595D01*
X63916396Y-80645947D01*
X64026710Y-80704912D01*
X64146408Y-80741222D01*
X64270890Y-80753482D01*
X64484250Y-80750410D01*
X64643000Y-80591660D01*
X64643000Y-79743300D01*
X64897000Y-79743300D01*
X64897000Y-80591660D01*
X65055750Y-80750410D01*
X65269110Y-80753482D01*
X65393592Y-80741222D01*
X65513290Y-80704912D01*
X65623604Y-80645947D01*
X65720295Y-80566595D01*
X65799647Y-80469904D01*
X65858612Y-80359590D01*
X65894922Y-80239892D01*
X65907182Y-80115410D01*
X65904110Y-79902050D01*
X65745360Y-79743300D01*
X64897000Y-79743300D01*
X64643000Y-79743300D01*
X63794640Y-79743300D01*
X63635890Y-79902050D01*
X63632818Y-80115410D01*
X63367182Y-80115410D01*
X63364110Y-79902050D01*
X63205360Y-79743300D01*
X62357000Y-79743300D01*
X62103000Y-79743300D01*
X61254640Y-79743300D01*
X61095890Y-79902050D01*
X61092818Y-80115410D01*
X60827182Y-80115410D01*
X60824110Y-79902050D01*
X60665360Y-79743300D01*
X59817000Y-79743300D01*
X59563000Y-79743300D01*
X58714640Y-79743300D01*
X58555890Y-79902050D01*
X58552818Y-80115410D01*
X58287182Y-80115410D01*
X58284110Y-79902050D01*
X58125360Y-79743300D01*
X57277000Y-79743300D01*
X57023000Y-79743300D01*
X56174640Y-79743300D01*
X56015890Y-79902050D01*
X56012818Y-80115410D01*
X55747182Y-80115410D01*
X55744110Y-79902050D01*
X55585360Y-79743300D01*
X54737000Y-79743300D01*
X54483000Y-79743300D01*
X53634640Y-79743300D01*
X53475890Y-79902050D01*
X53472818Y-80115410D01*
X53207182Y-80115410D01*
X53204110Y-79902050D01*
X53045360Y-79743300D01*
X52197000Y-79743300D01*
X51943000Y-79743300D01*
X51094640Y-79743300D01*
X50935890Y-79902050D01*
X50932818Y-80115410D01*
X50667182Y-80115410D01*
X50664110Y-79902050D01*
X50505360Y-79743300D01*
X49657000Y-79743300D01*
X49403000Y-79743300D01*
X48554640Y-79743300D01*
X48395890Y-79902050D01*
X48392818Y-80115410D01*
X48127182Y-80115410D01*
X48124110Y-79902050D01*
X47965360Y-79743300D01*
X47117000Y-79743300D01*
X46863000Y-79743300D01*
X46014640Y-79743300D01*
X45855890Y-79902050D01*
X45852818Y-80115410D01*
X45587182Y-80115410D01*
X45584110Y-79902050D01*
X45425360Y-79743300D01*
X44577000Y-79743300D01*
X44323000Y-79743300D01*
X43474640Y-79743300D01*
X43315890Y-79902050D01*
X43312818Y-80115410D01*
X43047182Y-80115410D01*
X43044110Y-79902050D01*
X42885360Y-79743300D01*
X42037000Y-79743300D01*
X41783000Y-79743300D01*
X40934640Y-79743300D01*
X40775890Y-79902050D01*
X40772818Y-80115410D01*
X26085000Y-80115410D01*
X26085000Y-68451730D01*
X29342818Y-68451730D01*
X29345890Y-68715890D01*
X29504640Y-68874640D01*
X30353000Y-68874640D01*
X30353000Y-67975480D01*
X30607000Y-67975480D01*
X30607000Y-68874640D01*
X31455360Y-68874640D01*
X31614110Y-68715890D01*
X31617182Y-68451730D01*
X31604922Y-68327248D01*
X31568612Y-68207550D01*
X31509647Y-68097236D01*
X31430295Y-68000545D01*
X31333604Y-67921193D01*
X31223290Y-67862228D01*
X31103592Y-67825918D01*
X30979110Y-67813658D01*
X30765750Y-67816730D01*
X30607000Y-67975480D01*
X30353000Y-67975480D01*
X30194250Y-67816730D01*
X29980890Y-67813658D01*
X29856408Y-67825918D01*
X29736710Y-67862228D01*
X29626396Y-67921193D01*
X29529705Y-68000545D01*
X29450353Y-68097236D01*
X29391388Y-68207550D01*
X29355078Y-68327248D01*
X29342818Y-68451730D01*
X26085000Y-68451730D01*
X26085000Y-64481750D01*
X32545000Y-64481750D01*
X32556436Y-64585289D01*
X32594811Y-64704341D01*
X32655675Y-64813619D01*
X32736688Y-64908923D01*
X32834737Y-64986591D01*
X32946055Y-65043638D01*
X33066363Y-65077871D01*
X33191039Y-65087977D01*
X33494250Y-65085000D01*
X33653000Y-64926250D01*
X33653000Y-64323000D01*
X32703750Y-64323000D01*
X32545000Y-64481750D01*
X26085000Y-64481750D01*
X26085000Y-55724896D01*
X26365200Y-55724896D01*
X26365200Y-56035104D01*
X26425718Y-56339352D01*
X26544430Y-56625948D01*
X26716773Y-56883877D01*
X26936123Y-57103227D01*
X27006124Y-57150000D01*
X26936123Y-57196773D01*
X26716773Y-57416123D01*
X26544430Y-57674052D01*
X26425718Y-57960648D01*
X26365200Y-58264896D01*
X26365200Y-58575104D01*
X26425718Y-58879352D01*
X26544430Y-59165948D01*
X26716773Y-59423877D01*
X26936123Y-59643227D01*
X27194052Y-59815570D01*
X27480648Y-59934282D01*
X27784896Y-59994800D01*
X28095104Y-59994800D01*
X28399352Y-59934282D01*
X28455199Y-59911149D01*
X28455199Y-60091466D01*
X28451523Y-60128789D01*
X28455199Y-60166111D01*
X28455199Y-60166121D01*
X28466196Y-60277774D01*
X28501909Y-60395506D01*
X28509653Y-60421035D01*
X28580225Y-60553065D01*
X28597802Y-60574482D01*
X28675198Y-60668790D01*
X28704202Y-60692593D01*
X31922610Y-63911002D01*
X31946409Y-63940001D01*
X31975407Y-63963799D01*
X32062133Y-64034974D01*
X32140758Y-64077000D01*
X32194163Y-64105546D01*
X32337424Y-64149003D01*
X32449077Y-64160000D01*
X32449087Y-64160000D01*
X32486410Y-64163676D01*
X32523733Y-64160000D01*
X32800482Y-64160000D01*
X32825506Y-64180537D01*
X32935820Y-64239502D01*
X33055518Y-64275812D01*
X33180000Y-64288072D01*
X33927000Y-64288072D01*
X33927000Y-64323000D01*
X33907000Y-64323000D01*
X33907000Y-64926250D01*
X34065750Y-65085000D01*
X34341928Y-65087712D01*
X34341928Y-66250000D01*
X34354188Y-66374482D01*
X34390498Y-66494180D01*
X34449463Y-66604494D01*
X34528815Y-66701185D01*
X34625506Y-66780537D01*
X34657539Y-66797659D01*
X33693271Y-67761928D01*
X32490000Y-67761928D01*
X32365518Y-67774188D01*
X32245820Y-67810498D01*
X32135506Y-67869463D01*
X32038815Y-67948815D01*
X31959463Y-68045506D01*
X31900498Y-68155820D01*
X31864188Y-68275518D01*
X31851928Y-68400000D01*
X31851928Y-69600000D01*
X31864188Y-69724482D01*
X31900498Y-69844180D01*
X31903609Y-69850000D01*
X31900498Y-69855820D01*
X31875460Y-69938360D01*
X31578953Y-69938360D01*
X31568612Y-69904270D01*
X31539604Y-69850000D01*
X31568612Y-69795730D01*
X31604922Y-69676032D01*
X31617182Y-69551550D01*
X31614110Y-69287390D01*
X31455360Y-69128640D01*
X30607000Y-69128640D01*
X30607000Y-69148640D01*
X30353000Y-69148640D01*
X30353000Y-69128640D01*
X29504640Y-69128640D01*
X29345890Y-69287390D01*
X29342818Y-69551550D01*
X29355078Y-69676032D01*
X29391388Y-69795730D01*
X29420396Y-69850000D01*
X29391388Y-69904270D01*
X29355078Y-70023968D01*
X29342818Y-70148450D01*
X29342818Y-71248270D01*
X29355078Y-71372752D01*
X29391388Y-71492450D01*
X29450353Y-71602764D01*
X29529705Y-71699455D01*
X29626396Y-71778807D01*
X29736710Y-71837772D01*
X29856408Y-71874082D01*
X29980890Y-71886342D01*
X30979110Y-71886342D01*
X31103592Y-71874082D01*
X31223290Y-71837772D01*
X31333604Y-71778807D01*
X31430295Y-71699455D01*
X31509647Y-71602764D01*
X31568612Y-71492450D01*
X31578953Y-71458360D01*
X31874465Y-71458360D01*
X31900498Y-71544180D01*
X31959463Y-71654494D01*
X32038815Y-71751185D01*
X32135506Y-71830537D01*
X32245820Y-71889502D01*
X32365518Y-71925812D01*
X32490000Y-71938072D01*
X33890000Y-71938072D01*
X34014482Y-71925812D01*
X34134180Y-71889502D01*
X34244494Y-71830537D01*
X34290000Y-71793191D01*
X34335506Y-71830537D01*
X34445820Y-71889502D01*
X34565518Y-71925812D01*
X34690000Y-71938072D01*
X36090000Y-71938072D01*
X36214482Y-71925812D01*
X36334180Y-71889502D01*
X36444494Y-71830537D01*
X36477365Y-71803560D01*
X36541370Y-71837772D01*
X36661068Y-71874082D01*
X36785550Y-71886342D01*
X37783770Y-71886342D01*
X37908252Y-71874082D01*
X38027950Y-71837772D01*
X38138264Y-71778807D01*
X38234955Y-71699455D01*
X38314307Y-71602764D01*
X38373272Y-71492450D01*
X38409582Y-71372752D01*
X38421842Y-71248270D01*
X38421842Y-70148450D01*
X38409582Y-70023968D01*
X38373272Y-69904270D01*
X38344264Y-69850000D01*
X38373272Y-69795730D01*
X38409582Y-69676032D01*
X38421842Y-69551550D01*
X38418770Y-69287390D01*
X38260020Y-69128640D01*
X37411660Y-69128640D01*
X37411660Y-69148640D01*
X37157660Y-69148640D01*
X37157660Y-69128640D01*
X37137660Y-69128640D01*
X37137660Y-68874640D01*
X37157660Y-68874640D01*
X37157660Y-68854640D01*
X37411660Y-68854640D01*
X37411660Y-68874640D01*
X38260020Y-68874640D01*
X38418770Y-68715890D01*
X38421842Y-68451730D01*
X38409582Y-68327248D01*
X38373272Y-68207550D01*
X38314307Y-68097236D01*
X38234955Y-68000545D01*
X38138264Y-67921193D01*
X38027950Y-67862228D01*
X37908252Y-67825918D01*
X37783770Y-67813658D01*
X37576681Y-67816640D01*
X37579003Y-67808986D01*
X37590000Y-67697333D01*
X37590000Y-67697324D01*
X37593676Y-67660001D01*
X37590000Y-67622678D01*
X37590000Y-66888072D01*
X37880000Y-66888072D01*
X38004482Y-66875812D01*
X38030000Y-66868071D01*
X38055518Y-66875812D01*
X38180000Y-66888072D01*
X38470000Y-66888072D01*
X38470001Y-68402668D01*
X38466324Y-68440000D01*
X38480998Y-68588985D01*
X38524454Y-68732246D01*
X38595026Y-68864276D01*
X38666201Y-68951002D01*
X38690000Y-68980001D01*
X38718998Y-69003799D01*
X41150000Y-71434802D01*
X41150001Y-72951159D01*
X41056396Y-73001193D01*
X40959705Y-73080545D01*
X40880353Y-73177236D01*
X40821388Y-73287550D01*
X40785078Y-73407248D01*
X40772818Y-73531730D01*
X40772818Y-74631550D01*
X40785078Y-74756032D01*
X40821388Y-74875730D01*
X40850396Y-74930000D01*
X40821388Y-74984270D01*
X40785078Y-75103968D01*
X40772818Y-75228450D01*
X40772818Y-76328270D01*
X40785078Y-76452752D01*
X40821388Y-76572450D01*
X40880353Y-76682764D01*
X40959705Y-76779455D01*
X41041315Y-76846430D01*
X40959705Y-76913405D01*
X40880353Y-77010096D01*
X40821388Y-77120410D01*
X40785078Y-77240108D01*
X40772818Y-77364590D01*
X40772818Y-78362810D01*
X40785078Y-78487292D01*
X40821388Y-78606990D01*
X40880353Y-78717304D01*
X40898979Y-78740000D01*
X40880353Y-78762696D01*
X40821388Y-78873010D01*
X40785078Y-78992708D01*
X40772818Y-79117190D01*
X40775890Y-79330550D01*
X40934640Y-79489300D01*
X41783000Y-79489300D01*
X41783000Y-79469300D01*
X42037000Y-79469300D01*
X42037000Y-79489300D01*
X42885360Y-79489300D01*
X43044110Y-79330550D01*
X43047182Y-79117190D01*
X43034922Y-78992708D01*
X42998612Y-78873010D01*
X42939647Y-78762696D01*
X42921021Y-78740000D01*
X42939647Y-78717304D01*
X42998612Y-78606990D01*
X43034922Y-78487292D01*
X43047182Y-78362810D01*
X43047182Y-77364590D01*
X43034922Y-77240108D01*
X42998612Y-77120410D01*
X42939647Y-77010096D01*
X42860295Y-76913405D01*
X42778685Y-76846430D01*
X42860295Y-76779455D01*
X42939647Y-76682764D01*
X42998612Y-76572450D01*
X43034922Y-76452752D01*
X43047182Y-76328270D01*
X43047182Y-75228450D01*
X43034922Y-75103968D01*
X42998612Y-74984270D01*
X42969604Y-74930000D01*
X42998612Y-74875730D01*
X43034922Y-74756032D01*
X43047182Y-74631550D01*
X43047182Y-73531730D01*
X43034922Y-73407248D01*
X42998612Y-73287550D01*
X42939647Y-73177236D01*
X42860295Y-73080545D01*
X42763604Y-73001193D01*
X42670000Y-72951160D01*
X42670000Y-71684802D01*
X43690000Y-72704802D01*
X43690000Y-72951160D01*
X43596396Y-73001193D01*
X43499705Y-73080545D01*
X43420353Y-73177236D01*
X43361388Y-73287550D01*
X43325078Y-73407248D01*
X43312818Y-73531730D01*
X43312818Y-74631550D01*
X43325078Y-74756032D01*
X43361388Y-74875730D01*
X43390396Y-74930000D01*
X43361388Y-74984270D01*
X43325078Y-75103968D01*
X43312818Y-75228450D01*
X43312818Y-76328270D01*
X43325078Y-76452752D01*
X43361388Y-76572450D01*
X43420353Y-76682764D01*
X43499705Y-76779455D01*
X43581315Y-76846430D01*
X43499705Y-76913405D01*
X43420353Y-77010096D01*
X43361388Y-77120410D01*
X43325078Y-77240108D01*
X43312818Y-77364590D01*
X43312818Y-78362810D01*
X43325078Y-78487292D01*
X43361388Y-78606990D01*
X43420353Y-78717304D01*
X43438979Y-78740000D01*
X43420353Y-78762696D01*
X43361388Y-78873010D01*
X43325078Y-78992708D01*
X43312818Y-79117190D01*
X43315890Y-79330550D01*
X43474640Y-79489300D01*
X44323000Y-79489300D01*
X44323000Y-79469300D01*
X44577000Y-79469300D01*
X44577000Y-79489300D01*
X45425360Y-79489300D01*
X45584110Y-79330550D01*
X45587182Y-79117190D01*
X45574922Y-78992708D01*
X45538612Y-78873010D01*
X45479647Y-78762696D01*
X45461021Y-78740000D01*
X45479647Y-78717304D01*
X45538612Y-78606990D01*
X45574922Y-78487292D01*
X45587182Y-78362810D01*
X45587182Y-77364590D01*
X45574922Y-77240108D01*
X45538612Y-77120410D01*
X45479647Y-77010096D01*
X45400295Y-76913405D01*
X45318685Y-76846430D01*
X45400295Y-76779455D01*
X45479647Y-76682764D01*
X45538612Y-76572450D01*
X45574922Y-76452752D01*
X45587182Y-76328270D01*
X45587182Y-75228450D01*
X45574922Y-75103968D01*
X45538612Y-74984270D01*
X45509604Y-74930000D01*
X45538612Y-74875730D01*
X45574922Y-74756032D01*
X45587182Y-74631550D01*
X45587182Y-73702824D01*
X45852818Y-73968460D01*
X45852818Y-74631550D01*
X45865078Y-74756032D01*
X45901388Y-74875730D01*
X45930396Y-74930000D01*
X45901388Y-74984270D01*
X45865078Y-75103968D01*
X45852818Y-75228450D01*
X45852818Y-76328270D01*
X45865078Y-76452752D01*
X45901388Y-76572450D01*
X45960353Y-76682764D01*
X46039705Y-76779455D01*
X46121315Y-76846430D01*
X46039705Y-76913405D01*
X45960353Y-77010096D01*
X45901388Y-77120410D01*
X45865078Y-77240108D01*
X45852818Y-77364590D01*
X45852818Y-78362810D01*
X45865078Y-78487292D01*
X45901388Y-78606990D01*
X45960353Y-78717304D01*
X45978979Y-78740000D01*
X45960353Y-78762696D01*
X45901388Y-78873010D01*
X45865078Y-78992708D01*
X45852818Y-79117190D01*
X45855890Y-79330550D01*
X46014640Y-79489300D01*
X46863000Y-79489300D01*
X46863000Y-79469300D01*
X47117000Y-79469300D01*
X47117000Y-79489300D01*
X47965360Y-79489300D01*
X48124110Y-79330550D01*
X48127182Y-79117190D01*
X48114922Y-78992708D01*
X48078612Y-78873010D01*
X48019647Y-78762696D01*
X48001021Y-78740000D01*
X48019647Y-78717304D01*
X48078612Y-78606990D01*
X48114922Y-78487292D01*
X48127182Y-78362810D01*
X48127182Y-77364590D01*
X48114922Y-77240108D01*
X48078612Y-77120410D01*
X48019647Y-77010096D01*
X47940295Y-76913405D01*
X47858685Y-76846430D01*
X47940295Y-76779455D01*
X48019647Y-76682764D01*
X48078612Y-76572450D01*
X48114922Y-76452752D01*
X48127182Y-76328270D01*
X48127182Y-75228450D01*
X48114922Y-75103968D01*
X48078612Y-74984270D01*
X48049604Y-74930000D01*
X48078612Y-74875730D01*
X48114922Y-74756032D01*
X48127182Y-74631550D01*
X48127182Y-73531730D01*
X48114922Y-73407248D01*
X48078612Y-73287550D01*
X48019647Y-73177236D01*
X47940295Y-73080545D01*
X47843604Y-73001193D01*
X47733290Y-72942228D01*
X47613592Y-72905918D01*
X47489110Y-72893658D01*
X46927620Y-72893658D01*
X41590000Y-67556039D01*
X41590000Y-66629518D01*
X41610537Y-66604494D01*
X41669502Y-66494180D01*
X41705812Y-66374482D01*
X41718072Y-66250000D01*
X41718072Y-65088072D01*
X42880000Y-65088072D01*
X42937598Y-65082399D01*
X48770000Y-70914802D01*
X48770001Y-72951159D01*
X48676396Y-73001193D01*
X48579705Y-73080545D01*
X48500353Y-73177236D01*
X48441388Y-73287550D01*
X48405078Y-73407248D01*
X48392818Y-73531730D01*
X48392818Y-74631550D01*
X48405078Y-74756032D01*
X48441388Y-74875730D01*
X48470396Y-74930000D01*
X48441388Y-74984270D01*
X48405078Y-75103968D01*
X48392818Y-75228450D01*
X48392818Y-76328270D01*
X48405078Y-76452752D01*
X48441388Y-76572450D01*
X48500353Y-76682764D01*
X48579705Y-76779455D01*
X48661315Y-76846430D01*
X48579705Y-76913405D01*
X48500353Y-77010096D01*
X48441388Y-77120410D01*
X48405078Y-77240108D01*
X48392818Y-77364590D01*
X48392818Y-78362810D01*
X48405078Y-78487292D01*
X48441388Y-78606990D01*
X48500353Y-78717304D01*
X48518979Y-78740000D01*
X48500353Y-78762696D01*
X48441388Y-78873010D01*
X48405078Y-78992708D01*
X48392818Y-79117190D01*
X48395890Y-79330550D01*
X48554640Y-79489300D01*
X49403000Y-79489300D01*
X49403000Y-79469300D01*
X49657000Y-79469300D01*
X49657000Y-79489300D01*
X50505360Y-79489300D01*
X50664110Y-79330550D01*
X50667182Y-79117190D01*
X50654922Y-78992708D01*
X50618612Y-78873010D01*
X50559647Y-78762696D01*
X50541021Y-78740000D01*
X50559647Y-78717304D01*
X50618612Y-78606990D01*
X50654922Y-78487292D01*
X50667182Y-78362810D01*
X50667182Y-77364590D01*
X50654922Y-77240108D01*
X50618612Y-77120410D01*
X50559647Y-77010096D01*
X50480295Y-76913405D01*
X50398685Y-76846430D01*
X50480295Y-76779455D01*
X50559647Y-76682764D01*
X50618612Y-76572450D01*
X50654922Y-76452752D01*
X50667182Y-76328270D01*
X50667182Y-75228450D01*
X50654922Y-75103968D01*
X50618612Y-74984270D01*
X50589604Y-74930000D01*
X50618612Y-74875730D01*
X50654922Y-74756032D01*
X50667182Y-74631550D01*
X50667182Y-73531730D01*
X50654922Y-73407248D01*
X50618612Y-73287550D01*
X50559647Y-73177236D01*
X50480295Y-73080545D01*
X50383604Y-73001193D01*
X50290000Y-72951160D01*
X50290000Y-71634802D01*
X51310000Y-72654802D01*
X51310001Y-72951159D01*
X51216396Y-73001193D01*
X51119705Y-73080545D01*
X51040353Y-73177236D01*
X50981388Y-73287550D01*
X50945078Y-73407248D01*
X50932818Y-73531730D01*
X50932818Y-74631550D01*
X50945078Y-74756032D01*
X50981388Y-74875730D01*
X51010396Y-74930000D01*
X50981388Y-74984270D01*
X50945078Y-75103968D01*
X50932818Y-75228450D01*
X50932818Y-76328270D01*
X50945078Y-76452752D01*
X50981388Y-76572450D01*
X51040353Y-76682764D01*
X51119705Y-76779455D01*
X51201315Y-76846430D01*
X51119705Y-76913405D01*
X51040353Y-77010096D01*
X50981388Y-77120410D01*
X50945078Y-77240108D01*
X50932818Y-77364590D01*
X50932818Y-78362810D01*
X50945078Y-78487292D01*
X50981388Y-78606990D01*
X51040353Y-78717304D01*
X51058979Y-78740000D01*
X51040353Y-78762696D01*
X50981388Y-78873010D01*
X50945078Y-78992708D01*
X50932818Y-79117190D01*
X50935890Y-79330550D01*
X51094640Y-79489300D01*
X51943000Y-79489300D01*
X51943000Y-79469300D01*
X52197000Y-79469300D01*
X52197000Y-79489300D01*
X53045360Y-79489300D01*
X53204110Y-79330550D01*
X53207182Y-79117190D01*
X53194922Y-78992708D01*
X53158612Y-78873010D01*
X53099647Y-78762696D01*
X53081021Y-78740000D01*
X53099647Y-78717304D01*
X53158612Y-78606990D01*
X53194922Y-78487292D01*
X53207182Y-78362810D01*
X53207182Y-77364590D01*
X53194922Y-77240108D01*
X53158612Y-77120410D01*
X53099647Y-77010096D01*
X53020295Y-76913405D01*
X52938685Y-76846430D01*
X53020295Y-76779455D01*
X53099647Y-76682764D01*
X53158612Y-76572450D01*
X53194922Y-76452752D01*
X53207182Y-76328270D01*
X53207182Y-75228450D01*
X53194922Y-75103968D01*
X53158612Y-74984270D01*
X53129604Y-74930000D01*
X53158612Y-74875730D01*
X53194922Y-74756032D01*
X53207182Y-74631550D01*
X53207182Y-73751984D01*
X53472818Y-74017620D01*
X53472818Y-74631550D01*
X53485078Y-74756032D01*
X53521388Y-74875730D01*
X53550396Y-74930000D01*
X53521388Y-74984270D01*
X53485078Y-75103968D01*
X53472818Y-75228450D01*
X53472818Y-76328270D01*
X53485078Y-76452752D01*
X53521388Y-76572450D01*
X53580353Y-76682764D01*
X53659705Y-76779455D01*
X53741315Y-76846430D01*
X53659705Y-76913405D01*
X53580353Y-77010096D01*
X53521388Y-77120410D01*
X53485078Y-77240108D01*
X53472818Y-77364590D01*
X53472818Y-78362810D01*
X53485078Y-78487292D01*
X53521388Y-78606990D01*
X53580353Y-78717304D01*
X53598979Y-78740000D01*
X53580353Y-78762696D01*
X53521388Y-78873010D01*
X53485078Y-78992708D01*
X53472818Y-79117190D01*
X53475890Y-79330550D01*
X53634640Y-79489300D01*
X54483000Y-79489300D01*
X54483000Y-79469300D01*
X54737000Y-79469300D01*
X54737000Y-79489300D01*
X55585360Y-79489300D01*
X55744110Y-79330550D01*
X55747182Y-79117190D01*
X55734922Y-78992708D01*
X55698612Y-78873010D01*
X55639647Y-78762696D01*
X55621021Y-78740000D01*
X55639647Y-78717304D01*
X55698612Y-78606990D01*
X55734922Y-78487292D01*
X55747182Y-78362810D01*
X55747182Y-77364590D01*
X55734922Y-77240108D01*
X55698612Y-77120410D01*
X55639647Y-77010096D01*
X55560295Y-76913405D01*
X55478685Y-76846430D01*
X55560295Y-76779455D01*
X55639647Y-76682764D01*
X55698612Y-76572450D01*
X55734922Y-76452752D01*
X55747182Y-76328270D01*
X55747182Y-75228450D01*
X55734922Y-75103968D01*
X55698612Y-74984270D01*
X55669604Y-74930000D01*
X55698612Y-74875730D01*
X55734922Y-74756032D01*
X55747182Y-74631550D01*
X55747182Y-73702824D01*
X56012818Y-73968460D01*
X56012818Y-74631550D01*
X56025078Y-74756032D01*
X56061388Y-74875730D01*
X56090396Y-74930000D01*
X56061388Y-74984270D01*
X56025078Y-75103968D01*
X56012818Y-75228450D01*
X56012818Y-76328270D01*
X56025078Y-76452752D01*
X56061388Y-76572450D01*
X56120353Y-76682764D01*
X56199705Y-76779455D01*
X56281315Y-76846430D01*
X56199705Y-76913405D01*
X56120353Y-77010096D01*
X56061388Y-77120410D01*
X56025078Y-77240108D01*
X56012818Y-77364590D01*
X56012818Y-78362810D01*
X56025078Y-78487292D01*
X56061388Y-78606990D01*
X56120353Y-78717304D01*
X56138979Y-78740000D01*
X56120353Y-78762696D01*
X56061388Y-78873010D01*
X56025078Y-78992708D01*
X56012818Y-79117190D01*
X56015890Y-79330550D01*
X56174640Y-79489300D01*
X57023000Y-79489300D01*
X57023000Y-79469300D01*
X57277000Y-79469300D01*
X57277000Y-79489300D01*
X58125360Y-79489300D01*
X58284110Y-79330550D01*
X58287182Y-79117190D01*
X58274922Y-78992708D01*
X58238612Y-78873010D01*
X58179647Y-78762696D01*
X58161021Y-78740000D01*
X58179647Y-78717304D01*
X58238612Y-78606990D01*
X58274922Y-78487292D01*
X58287182Y-78362810D01*
X58287182Y-77364590D01*
X58274922Y-77240108D01*
X58238612Y-77120410D01*
X58179647Y-77010096D01*
X58100295Y-76913405D01*
X58018685Y-76846430D01*
X58100295Y-76779455D01*
X58179647Y-76682764D01*
X58238612Y-76572450D01*
X58274922Y-76452752D01*
X58287182Y-76328270D01*
X58287182Y-75228450D01*
X58274922Y-75103968D01*
X58238612Y-74984270D01*
X58209604Y-74930000D01*
X58238612Y-74875730D01*
X58274922Y-74756032D01*
X58287182Y-74631550D01*
X58287182Y-73702824D01*
X58552818Y-73968460D01*
X58552818Y-74631550D01*
X58565078Y-74756032D01*
X58601388Y-74875730D01*
X58630396Y-74930000D01*
X58601388Y-74984270D01*
X58565078Y-75103968D01*
X58552818Y-75228450D01*
X58552818Y-76328270D01*
X58565078Y-76452752D01*
X58601388Y-76572450D01*
X58660353Y-76682764D01*
X58739705Y-76779455D01*
X58821315Y-76846430D01*
X58739705Y-76913405D01*
X58660353Y-77010096D01*
X58601388Y-77120410D01*
X58565078Y-77240108D01*
X58552818Y-77364590D01*
X58552818Y-78362810D01*
X58565078Y-78487292D01*
X58601388Y-78606990D01*
X58660353Y-78717304D01*
X58678979Y-78740000D01*
X58660353Y-78762696D01*
X58601388Y-78873010D01*
X58565078Y-78992708D01*
X58552818Y-79117190D01*
X58555890Y-79330550D01*
X58714640Y-79489300D01*
X59563000Y-79489300D01*
X59563000Y-79469300D01*
X59817000Y-79469300D01*
X59817000Y-79489300D01*
X60665360Y-79489300D01*
X60824110Y-79330550D01*
X60827182Y-79117190D01*
X60814922Y-78992708D01*
X60778612Y-78873010D01*
X60719647Y-78762696D01*
X60701021Y-78740000D01*
X60719647Y-78717304D01*
X60778612Y-78606990D01*
X60814922Y-78487292D01*
X60827182Y-78362810D01*
X60827182Y-77364590D01*
X60814922Y-77240108D01*
X60778612Y-77120410D01*
X60719647Y-77010096D01*
X60640295Y-76913405D01*
X60558685Y-76846430D01*
X60640295Y-76779455D01*
X60719647Y-76682764D01*
X60778612Y-76572450D01*
X60814922Y-76452752D01*
X60827182Y-76328270D01*
X60827182Y-75228450D01*
X60814922Y-75103968D01*
X60778612Y-74984270D01*
X60749604Y-74930000D01*
X60778612Y-74875730D01*
X60814922Y-74756032D01*
X60827182Y-74631550D01*
X60827182Y-73702824D01*
X61092818Y-73968460D01*
X61092818Y-74631550D01*
X61105078Y-74756032D01*
X61141388Y-74875730D01*
X61170396Y-74930000D01*
X61141388Y-74984270D01*
X61105078Y-75103968D01*
X61092818Y-75228450D01*
X61092818Y-76328270D01*
X61105078Y-76452752D01*
X61141388Y-76572450D01*
X61200353Y-76682764D01*
X61279705Y-76779455D01*
X61361315Y-76846430D01*
X61279705Y-76913405D01*
X61200353Y-77010096D01*
X61141388Y-77120410D01*
X61105078Y-77240108D01*
X61092818Y-77364590D01*
X61092818Y-78362810D01*
X61105078Y-78487292D01*
X61141388Y-78606990D01*
X61200353Y-78717304D01*
X61218979Y-78740000D01*
X61200353Y-78762696D01*
X61141388Y-78873010D01*
X61105078Y-78992708D01*
X61092818Y-79117190D01*
X61095890Y-79330550D01*
X61254640Y-79489300D01*
X62103000Y-79489300D01*
X62103000Y-79469300D01*
X62357000Y-79469300D01*
X62357000Y-79489300D01*
X63205360Y-79489300D01*
X63364110Y-79330550D01*
X63367182Y-79117190D01*
X63354922Y-78992708D01*
X63318612Y-78873010D01*
X63259647Y-78762696D01*
X63241021Y-78740000D01*
X63259647Y-78717304D01*
X63318612Y-78606990D01*
X63354922Y-78487292D01*
X63367182Y-78362810D01*
X63367182Y-77364590D01*
X63354922Y-77240108D01*
X63318612Y-77120410D01*
X63259647Y-77010096D01*
X63180295Y-76913405D01*
X63098685Y-76846430D01*
X63180295Y-76779455D01*
X63259647Y-76682764D01*
X63318612Y-76572450D01*
X63354922Y-76452752D01*
X63367182Y-76328270D01*
X63367182Y-75228450D01*
X63354922Y-75103968D01*
X63318612Y-74984270D01*
X63289604Y-74930000D01*
X63318612Y-74875730D01*
X63354922Y-74756032D01*
X63367182Y-74631550D01*
X63367182Y-73702824D01*
X63632818Y-73968460D01*
X63632818Y-74631550D01*
X63645078Y-74756032D01*
X63681388Y-74875730D01*
X63710396Y-74930000D01*
X63681388Y-74984270D01*
X63645078Y-75103968D01*
X63632818Y-75228450D01*
X63632818Y-76328270D01*
X63645078Y-76452752D01*
X63681388Y-76572450D01*
X63740353Y-76682764D01*
X63819705Y-76779455D01*
X63901315Y-76846430D01*
X63819705Y-76913405D01*
X63740353Y-77010096D01*
X63681388Y-77120410D01*
X63645078Y-77240108D01*
X63632818Y-77364590D01*
X63632818Y-78362810D01*
X63645078Y-78487292D01*
X63681388Y-78606990D01*
X63740353Y-78717304D01*
X63758979Y-78740000D01*
X63740353Y-78762696D01*
X63681388Y-78873010D01*
X63645078Y-78992708D01*
X63632818Y-79117190D01*
X63635890Y-79330550D01*
X63794640Y-79489300D01*
X64643000Y-79489300D01*
X64643000Y-79469300D01*
X64897000Y-79469300D01*
X64897000Y-79489300D01*
X65745360Y-79489300D01*
X65904110Y-79330550D01*
X65907182Y-79117190D01*
X65894922Y-78992708D01*
X65858612Y-78873010D01*
X65799647Y-78762696D01*
X65781021Y-78740000D01*
X65799647Y-78717304D01*
X65858612Y-78606990D01*
X65894922Y-78487292D01*
X65907182Y-78362810D01*
X65907182Y-77364590D01*
X65894922Y-77240108D01*
X65858612Y-77120410D01*
X65799647Y-77010096D01*
X65720295Y-76913405D01*
X65638685Y-76846430D01*
X65720295Y-76779455D01*
X65799647Y-76682764D01*
X65858612Y-76572450D01*
X65894922Y-76452752D01*
X65907182Y-76328270D01*
X65907182Y-75228450D01*
X65894922Y-75103968D01*
X65858612Y-74984270D01*
X65829604Y-74930000D01*
X65858612Y-74875730D01*
X65894922Y-74756032D01*
X65907182Y-74631550D01*
X65907182Y-73531730D01*
X65894922Y-73407248D01*
X65858612Y-73287550D01*
X65799647Y-73177236D01*
X65720295Y-73080545D01*
X65623604Y-73001193D01*
X65513290Y-72942228D01*
X65393592Y-72905918D01*
X65269110Y-72893658D01*
X64707620Y-72893658D01*
X50702964Y-58889003D01*
X50679161Y-58859999D01*
X50563436Y-58765026D01*
X50431407Y-58694454D01*
X50288146Y-58650997D01*
X50176493Y-58640000D01*
X50176482Y-58640000D01*
X50139160Y-58636324D01*
X50101838Y-58640000D01*
X43259518Y-58640000D01*
X43234494Y-58619463D01*
X43124180Y-58560498D01*
X43004482Y-58524188D01*
X42880000Y-58511928D01*
X42133000Y-58511928D01*
X42133000Y-58477000D01*
X42153000Y-58477000D01*
X42153000Y-57873750D01*
X42407000Y-57873750D01*
X42407000Y-58477000D01*
X43356250Y-58477000D01*
X43515000Y-58318250D01*
X43503564Y-58214711D01*
X43465189Y-58095659D01*
X43404325Y-57986381D01*
X43323312Y-57891077D01*
X43225263Y-57813409D01*
X43113945Y-57756362D01*
X42993637Y-57722129D01*
X42868961Y-57712023D01*
X42565750Y-57715000D01*
X42407000Y-57873750D01*
X42153000Y-57873750D01*
X41994250Y-57715000D01*
X41718072Y-57712288D01*
X41718072Y-57302491D01*
X41767186Y-57210607D01*
X41810643Y-57067346D01*
X41821640Y-56955693D01*
X41821640Y-56955684D01*
X41825316Y-56918361D01*
X41821640Y-56881038D01*
X41821640Y-56851550D01*
X52202818Y-56851550D01*
X52215078Y-56976032D01*
X52251388Y-57095730D01*
X52280396Y-57150000D01*
X52251388Y-57204270D01*
X52215078Y-57323968D01*
X52202818Y-57448450D01*
X52202818Y-58548270D01*
X52215078Y-58672752D01*
X52251388Y-58792450D01*
X52310353Y-58902764D01*
X52389705Y-58999455D01*
X52486396Y-59078807D01*
X52596710Y-59137772D01*
X52716408Y-59174082D01*
X52840890Y-59186342D01*
X53402381Y-59186342D01*
X54177041Y-59961003D01*
X54200839Y-59990001D01*
X54229837Y-60013799D01*
X54316563Y-60084974D01*
X54389927Y-60124188D01*
X54448593Y-60155546D01*
X54591854Y-60199003D01*
X54703507Y-60210000D01*
X54703517Y-60210000D01*
X54740840Y-60213676D01*
X54778163Y-60210000D01*
X54902913Y-60210000D01*
X54914188Y-60324482D01*
X54950498Y-60444180D01*
X55009463Y-60554494D01*
X55088815Y-60651185D01*
X55185506Y-60730537D01*
X55295820Y-60789502D01*
X55415518Y-60825812D01*
X55540000Y-60838072D01*
X55655001Y-60838072D01*
X55655001Y-61576521D01*
X55650719Y-61620000D01*
X55667805Y-61793490D01*
X55718412Y-61960313D01*
X55800590Y-62114059D01*
X55883468Y-62215046D01*
X55883471Y-62215049D01*
X55911184Y-62248817D01*
X55944951Y-62276529D01*
X56873092Y-63204671D01*
X56845200Y-63344896D01*
X56845200Y-63655104D01*
X56905718Y-63959352D01*
X57024430Y-64245948D01*
X57196773Y-64503877D01*
X57416123Y-64723227D01*
X57674052Y-64895570D01*
X57960648Y-65014282D01*
X58264896Y-65074800D01*
X58575104Y-65074800D01*
X58879352Y-65014282D01*
X59165948Y-64895570D01*
X59423877Y-64723227D01*
X59554628Y-64592476D01*
X60047129Y-64592476D01*
X60135623Y-64850723D01*
X60414976Y-64985597D01*
X60715275Y-65063381D01*
X61024977Y-65081084D01*
X61332184Y-65038027D01*
X61625086Y-64935865D01*
X61784377Y-64850723D01*
X61872871Y-64592476D01*
X60960000Y-63679605D01*
X60047129Y-64592476D01*
X59554628Y-64592476D01*
X59643227Y-64503877D01*
X59734495Y-64367286D01*
X59867524Y-64412871D01*
X60780395Y-63500000D01*
X61139605Y-63500000D01*
X62052476Y-64412871D01*
X62310723Y-64324377D01*
X62445597Y-64045024D01*
X62523381Y-63744725D01*
X62541084Y-63435023D01*
X62498027Y-63127816D01*
X62395865Y-62834914D01*
X62310723Y-62675623D01*
X62052476Y-62587129D01*
X61139605Y-63500000D01*
X60780395Y-63500000D01*
X59867524Y-62587129D01*
X59734495Y-62632714D01*
X59643227Y-62496123D01*
X59554628Y-62407524D01*
X60047129Y-62407524D01*
X60960000Y-63320395D01*
X61872871Y-62407524D01*
X61784377Y-62149277D01*
X61505024Y-62014403D01*
X61204725Y-61936619D01*
X60895023Y-61918916D01*
X60587816Y-61961973D01*
X60294914Y-62064135D01*
X60135623Y-62149277D01*
X60047129Y-62407524D01*
X59554628Y-62407524D01*
X59423877Y-62276773D01*
X59165948Y-62104430D01*
X58879352Y-61985718D01*
X58575104Y-61925200D01*
X58264896Y-61925200D01*
X58124671Y-61953092D01*
X57425000Y-61253422D01*
X57425000Y-60838072D01*
X57540000Y-60838072D01*
X57664482Y-60825812D01*
X57784180Y-60789502D01*
X57894494Y-60730537D01*
X57991185Y-60651185D01*
X58070537Y-60554494D01*
X58129502Y-60444180D01*
X58165812Y-60324482D01*
X58178072Y-60200000D01*
X58178072Y-58700000D01*
X58165812Y-58575518D01*
X58129502Y-58455820D01*
X58070537Y-58345506D01*
X58033191Y-58300000D01*
X58070537Y-58254494D01*
X58129502Y-58144180D01*
X58165812Y-58024482D01*
X58178072Y-57900000D01*
X58178072Y-56400000D01*
X58165812Y-56275518D01*
X58129502Y-56155820D01*
X58070537Y-56045506D01*
X58033191Y-56000000D01*
X58070537Y-55954494D01*
X58129502Y-55844180D01*
X58165812Y-55724482D01*
X58178072Y-55600000D01*
X58175000Y-55135750D01*
X58016250Y-54977000D01*
X56667000Y-54977000D01*
X56667000Y-54997000D01*
X56413000Y-54997000D01*
X56413000Y-54977000D01*
X55063750Y-54977000D01*
X54905000Y-55135750D01*
X54901928Y-55600000D01*
X54914188Y-55724482D01*
X54950498Y-55844180D01*
X55009463Y-55954494D01*
X55046809Y-56000000D01*
X55009463Y-56045506D01*
X54950498Y-56155820D01*
X54914188Y-56275518D01*
X54901928Y-56400000D01*
X54901928Y-57900000D01*
X54914188Y-58024482D01*
X54950498Y-58144180D01*
X55009463Y-58254494D01*
X55046809Y-58300000D01*
X55009463Y-58345506D01*
X54950498Y-58455820D01*
X54920466Y-58554824D01*
X54477182Y-58111541D01*
X54477182Y-57448450D01*
X54464922Y-57323968D01*
X54428612Y-57204270D01*
X54399604Y-57150000D01*
X54428612Y-57095730D01*
X54464922Y-56976032D01*
X54477182Y-56851550D01*
X54474110Y-56587390D01*
X54315360Y-56428640D01*
X53467000Y-56428640D01*
X53467000Y-56448640D01*
X53213000Y-56448640D01*
X53213000Y-56428640D01*
X52364640Y-56428640D01*
X52205890Y-56587390D01*
X52202818Y-56851550D01*
X41821640Y-56851550D01*
X41821640Y-55751730D01*
X52202818Y-55751730D01*
X52205890Y-56015890D01*
X52364640Y-56174640D01*
X53213000Y-56174640D01*
X53213000Y-55275480D01*
X53467000Y-55275480D01*
X53467000Y-56174640D01*
X54315360Y-56174640D01*
X54474110Y-56015890D01*
X54477182Y-55751730D01*
X54464922Y-55627248D01*
X54428612Y-55507550D01*
X54369647Y-55397236D01*
X54290295Y-55300545D01*
X54193604Y-55221193D01*
X54083290Y-55162228D01*
X53963592Y-55125918D01*
X53839110Y-55113658D01*
X53625750Y-55116730D01*
X53467000Y-55275480D01*
X53213000Y-55275480D01*
X53054250Y-55116730D01*
X52840890Y-55113658D01*
X52716408Y-55125918D01*
X52596710Y-55162228D01*
X52486396Y-55221193D01*
X52389705Y-55300545D01*
X52310353Y-55397236D01*
X52251388Y-55507550D01*
X52215078Y-55627248D01*
X52202818Y-55751730D01*
X41821640Y-55751730D01*
X41821640Y-55708953D01*
X41855730Y-55698612D01*
X41910000Y-55669604D01*
X41964270Y-55698612D01*
X42083968Y-55734922D01*
X42208450Y-55747182D01*
X42472610Y-55744110D01*
X42631360Y-55585360D01*
X42631360Y-54737000D01*
X42885360Y-54737000D01*
X42885360Y-55585360D01*
X43044110Y-55744110D01*
X43308270Y-55747182D01*
X43432752Y-55734922D01*
X43552450Y-55698612D01*
X43662764Y-55639647D01*
X43759455Y-55560295D01*
X43838807Y-55463604D01*
X43897772Y-55353290D01*
X43934082Y-55233592D01*
X43946342Y-55109110D01*
X43943270Y-54895750D01*
X43784520Y-54737000D01*
X42885360Y-54737000D01*
X42631360Y-54737000D01*
X42611360Y-54737000D01*
X42611360Y-54483000D01*
X42631360Y-54483000D01*
X42631360Y-53634640D01*
X42885360Y-53634640D01*
X42885360Y-54483000D01*
X43784520Y-54483000D01*
X43943270Y-54324250D01*
X43946342Y-54110890D01*
X43945270Y-54100000D01*
X54901928Y-54100000D01*
X54905000Y-54564250D01*
X55063750Y-54723000D01*
X56413000Y-54723000D01*
X56413000Y-53623750D01*
X56667000Y-53623750D01*
X56667000Y-54723000D01*
X58016250Y-54723000D01*
X58175000Y-54564250D01*
X58178072Y-54100000D01*
X58165812Y-53975518D01*
X58129502Y-53855820D01*
X58070537Y-53745506D01*
X57991185Y-53648815D01*
X57894494Y-53569463D01*
X57784180Y-53510498D01*
X57664482Y-53474188D01*
X57540000Y-53461928D01*
X56825750Y-53465000D01*
X56667000Y-53623750D01*
X56413000Y-53623750D01*
X56254250Y-53465000D01*
X55540000Y-53461928D01*
X55415518Y-53474188D01*
X55295820Y-53510498D01*
X55185506Y-53569463D01*
X55088815Y-53648815D01*
X55009463Y-53745506D01*
X54950498Y-53855820D01*
X54914188Y-53975518D01*
X54901928Y-54100000D01*
X43945270Y-54100000D01*
X43934082Y-53986408D01*
X43897772Y-53866710D01*
X43838807Y-53756396D01*
X43759455Y-53659705D01*
X43662764Y-53580353D01*
X43552450Y-53521388D01*
X43432752Y-53485078D01*
X43308270Y-53472818D01*
X43044110Y-53475890D01*
X42885360Y-53634640D01*
X42631360Y-53634640D01*
X42472610Y-53475890D01*
X42208450Y-53472818D01*
X42083968Y-53485078D01*
X41964270Y-53521388D01*
X41910000Y-53550396D01*
X41855730Y-53521388D01*
X41736032Y-53485078D01*
X41611550Y-53472818D01*
X40511730Y-53472818D01*
X40387248Y-53485078D01*
X40267550Y-53521388D01*
X40157236Y-53580353D01*
X40060545Y-53659705D01*
X39981193Y-53756396D01*
X39922228Y-53866710D01*
X39885918Y-53986408D01*
X39873658Y-54110890D01*
X39873658Y-55109110D01*
X39885918Y-55233592D01*
X39922228Y-55353290D01*
X39981193Y-55463604D01*
X40060545Y-55560295D01*
X40157236Y-55639647D01*
X40267550Y-55698612D01*
X40301640Y-55708953D01*
X40301641Y-55914059D01*
X40280000Y-55911928D01*
X39780000Y-55911928D01*
X39655518Y-55924188D01*
X39630000Y-55931929D01*
X39604482Y-55924188D01*
X39480000Y-55911928D01*
X38980000Y-55911928D01*
X38855518Y-55924188D01*
X38830000Y-55931929D01*
X38804482Y-55924188D01*
X38680000Y-55911928D01*
X38180000Y-55911928D01*
X38055518Y-55924188D01*
X38030000Y-55931929D01*
X38004482Y-55924188D01*
X37880000Y-55911928D01*
X37380000Y-55911928D01*
X37255518Y-55924188D01*
X37230000Y-55931929D01*
X37204482Y-55924188D01*
X37080000Y-55911928D01*
X36684326Y-55911928D01*
X36664974Y-55875723D01*
X36593799Y-55788997D01*
X36570001Y-55759999D01*
X36541003Y-55736201D01*
X34903804Y-54099003D01*
X34880001Y-54069999D01*
X34764276Y-53975026D01*
X34690271Y-53935469D01*
X33583804Y-52829003D01*
X33560001Y-52799999D01*
X33444276Y-52705026D01*
X33312247Y-52634454D01*
X33168986Y-52590997D01*
X33057333Y-52580000D01*
X33057322Y-52580000D01*
X33020000Y-52576324D01*
X32982678Y-52580000D01*
X31866181Y-52580000D01*
X31858905Y-52569110D01*
X60193658Y-52569110D01*
X60205918Y-52693592D01*
X60242228Y-52813290D01*
X60301193Y-52923604D01*
X60380545Y-53020295D01*
X60477236Y-53099647D01*
X60587550Y-53158612D01*
X60707248Y-53194922D01*
X60831730Y-53207182D01*
X61095890Y-53204110D01*
X61254640Y-53045360D01*
X61254640Y-52197000D01*
X60355480Y-52197000D01*
X60196730Y-52355750D01*
X60193658Y-52569110D01*
X31858905Y-52569110D01*
X31703227Y-52336123D01*
X31483877Y-52116773D01*
X31225948Y-51944430D01*
X30939352Y-51825718D01*
X30635104Y-51765200D01*
X30324896Y-51765200D01*
X30020648Y-51825718D01*
X29734052Y-51944430D01*
X29476123Y-52116773D01*
X29256773Y-52336123D01*
X29165505Y-52472714D01*
X29032476Y-52427129D01*
X28119605Y-53340000D01*
X29032476Y-54252871D01*
X29165505Y-54207286D01*
X29256773Y-54343877D01*
X29476123Y-54563227D01*
X29546124Y-54610000D01*
X29476123Y-54656773D01*
X29256773Y-54876123D01*
X29210000Y-54946124D01*
X29163227Y-54876123D01*
X28943877Y-54656773D01*
X28807286Y-54565505D01*
X28852871Y-54432476D01*
X27940000Y-53519605D01*
X27027129Y-54432476D01*
X27072714Y-54565505D01*
X26936123Y-54656773D01*
X26716773Y-54876123D01*
X26544430Y-55134052D01*
X26425718Y-55420648D01*
X26365200Y-55724896D01*
X26085000Y-55724896D01*
X26085000Y-53404977D01*
X26358916Y-53404977D01*
X26401973Y-53712184D01*
X26504135Y-54005086D01*
X26589277Y-54164377D01*
X26847524Y-54252871D01*
X27760395Y-53340000D01*
X26847524Y-52427129D01*
X26589277Y-52515623D01*
X26454403Y-52794976D01*
X26376619Y-53095275D01*
X26358916Y-53404977D01*
X26085000Y-53404977D01*
X26085000Y-52247524D01*
X27027129Y-52247524D01*
X27940000Y-53160395D01*
X28852871Y-52247524D01*
X28764377Y-51989277D01*
X28485024Y-51854403D01*
X28184725Y-51776619D01*
X27875023Y-51758916D01*
X27567816Y-51801973D01*
X27274914Y-51904135D01*
X27115623Y-51989277D01*
X27027129Y-52247524D01*
X26085000Y-52247524D01*
X26085000Y-51485000D01*
X60202117Y-51485000D01*
X60193658Y-51570890D01*
M02*
