G04 #@! TF.GenerationSoftware,KiCad,Pcbnew,5.1.2*
G04 #@! TF.CreationDate,2019-06-27T16:32:15-07:00*
G04 #@! TF.ProjectId,DC27-Cylon,44433237-2d43-4796-9c6f-6e2e6b696361,rev?*
G04 #@! TF.SameCoordinates,Original*
G04 #@! TF.FileFunction,Paste,Bot*
G04 #@! TF.FilePolarity,Positive*
%FSLAX46Y46*%
G04 Gerber Fmt 4.6, Leading zero omitted, Abs format (unit mm)*
G04 Created by KiCad (PCBNEW 5.1.2) date 2019-06-27 16:32:15*
%MOMM*%
%LPD*%
G04 APERTURE LIST*
%ADD10R,0.998220X1.099820*%
%ADD11R,1.099820X0.998220*%
%ADD12R,1.200000X0.500000*%
%ADD13R,0.500000X1.200000*%
%ADD14R,2.000000X3.800000*%
%ADD15R,2.000000X1.500000*%
%ADD16R,0.600000X1.550000*%
%ADD17R,1.400000X1.200000*%
G04 APERTURE END LIST*
D10*
X39185000Y-78588876D03*
X39185000Y-80285596D03*
X40960000Y-78588876D03*
X40960000Y-80285596D03*
X42735000Y-78588876D03*
X42735000Y-80285596D03*
X44510000Y-78588876D03*
X44510000Y-80285596D03*
X46285000Y-78588876D03*
X46285000Y-80285596D03*
X48060000Y-78588876D03*
X48060000Y-80285596D03*
X49835000Y-78588876D03*
X49835000Y-80285596D03*
X51610000Y-78588876D03*
X51610000Y-80285596D03*
X53385000Y-78588876D03*
X53385000Y-80285596D03*
X55160000Y-78588876D03*
X55160000Y-80285596D03*
X56935000Y-78588876D03*
X56935000Y-80285596D03*
X58710000Y-78588876D03*
X58710000Y-80285596D03*
X60485000Y-78588876D03*
X60485000Y-80285596D03*
X62260000Y-78588876D03*
X62260000Y-80285596D03*
X64035000Y-78588876D03*
X64035000Y-80285596D03*
X65810000Y-78588876D03*
X65810000Y-80285596D03*
X67585000Y-78588876D03*
X67585000Y-80285596D03*
X69360000Y-78588876D03*
X69360000Y-80285596D03*
X71135000Y-78588876D03*
X71135000Y-80285596D03*
X72910000Y-78588876D03*
X72910000Y-80285596D03*
X74685000Y-78588876D03*
X74685000Y-80285596D03*
X76460000Y-78588876D03*
X76460000Y-80285596D03*
X78235000Y-78588876D03*
X78235000Y-80285596D03*
X60706000Y-100416360D03*
X60706000Y-98719640D03*
X53340000Y-46141640D03*
X53340000Y-47838360D03*
X69088000Y-98973640D03*
X69088000Y-100670360D03*
X80518000Y-91099640D03*
X80518000Y-92796360D03*
D11*
X60873640Y-43180000D03*
X62570360Y-43180000D03*
D10*
X80772000Y-111592360D03*
X80772000Y-109895640D03*
X65786000Y-92796360D03*
X65786000Y-91099640D03*
X51562000Y-91099640D03*
X51562000Y-92796360D03*
X80010000Y-80285596D03*
X80010000Y-78588876D03*
D12*
X70172000Y-109988000D03*
D13*
X77222000Y-111438000D03*
D12*
X78672000Y-104388000D03*
D13*
X71622000Y-102938000D03*
X72422000Y-102938000D03*
X73222000Y-102938000D03*
X74022000Y-102938000D03*
X74822000Y-102938000D03*
X75622000Y-102938000D03*
X76422000Y-102938000D03*
X77222000Y-102938000D03*
D12*
X78672000Y-105188000D03*
X78672000Y-105988000D03*
X78672000Y-106788000D03*
X78672000Y-107588000D03*
X78672000Y-108388000D03*
X78672000Y-109188000D03*
X78672000Y-109988000D03*
D13*
X76422000Y-111438000D03*
X75622000Y-111438000D03*
X74822000Y-111438000D03*
X74022000Y-111438000D03*
X73222000Y-111438000D03*
X72422000Y-111438000D03*
X71622000Y-111438000D03*
D12*
X70172000Y-109188000D03*
X70172000Y-108388000D03*
X70172000Y-107588000D03*
X70172000Y-106788000D03*
X70172000Y-105988000D03*
X70172000Y-105188000D03*
X70172000Y-104388000D03*
D14*
X62586000Y-48260000D03*
D15*
X56286000Y-48260000D03*
X56286000Y-45960000D03*
X56286000Y-50560000D03*
D16*
X69977000Y-89248000D03*
X71247000Y-89248000D03*
X72517000Y-89248000D03*
X73787000Y-89248000D03*
X75057000Y-89248000D03*
X76327000Y-89248000D03*
X77597000Y-89248000D03*
X78867000Y-89248000D03*
X78867000Y-94648000D03*
X77597000Y-94648000D03*
X76327000Y-94648000D03*
X75057000Y-94648000D03*
X73787000Y-94648000D03*
X72517000Y-94648000D03*
X71247000Y-94648000D03*
X69977000Y-94648000D03*
X55245000Y-94648000D03*
X56515000Y-94648000D03*
X57785000Y-94648000D03*
X59055000Y-94648000D03*
X60325000Y-94648000D03*
X61595000Y-94648000D03*
X62865000Y-94648000D03*
X64135000Y-94648000D03*
X64135000Y-89248000D03*
X62865000Y-89248000D03*
X61595000Y-89248000D03*
X60325000Y-89248000D03*
X59055000Y-89248000D03*
X57785000Y-89248000D03*
X56515000Y-89248000D03*
X55245000Y-89248000D03*
X41021000Y-89248000D03*
X42291000Y-89248000D03*
X43561000Y-89248000D03*
X44831000Y-89248000D03*
X46101000Y-89248000D03*
X47371000Y-89248000D03*
X48641000Y-89248000D03*
X49911000Y-89248000D03*
X49911000Y-94648000D03*
X48641000Y-94648000D03*
X47371000Y-94648000D03*
X46101000Y-94648000D03*
X44831000Y-94648000D03*
X43561000Y-94648000D03*
X42291000Y-94648000D03*
X41021000Y-94648000D03*
D17*
X63416000Y-99226000D03*
X65616000Y-99226000D03*
X65616000Y-100926000D03*
X63416000Y-100926000D03*
M02*
