G04 #@! TF.GenerationSoftware,KiCad,Pcbnew,5.1.2*
G04 #@! TF.CreationDate,2019-06-28T01:18:53-07:00*
G04 #@! TF.ProjectId,DC27-Cylon,44433237-2d43-4796-9c6f-6e2e6b696361,rev?*
G04 #@! TF.SameCoordinates,Original*
G04 #@! TF.FileFunction,Soldermask,Bot*
G04 #@! TF.FilePolarity,Negative*
%FSLAX46Y46*%
G04 Gerber Fmt 4.6, Leading zero omitted, Abs format (unit mm)*
G04 Created by KiCad (PCBNEW 5.1.2) date 2019-06-28 01:18:53*
%MOMM*%
%LPD*%
G04 APERTURE LIST*
%ADD10C,0.010000*%
%ADD11C,2.082800*%
%ADD12C,0.100000*%
%ADD13C,1.500000*%
%ADD14C,2.400000*%
%ADD15R,2.400000X2.400000*%
%ADD16R,1.201420X1.303020*%
%ADD17R,1.303020X1.201420*%
%ADD18R,1.600000X0.900000*%
%ADD19R,0.900000X1.600000*%
%ADD20R,2.400000X4.200000*%
%ADD21R,2.400000X1.900000*%
%ADD22R,0.740000X1.690000*%
%ADD23R,1.800000X1.600000*%
G04 APERTURE END LIST*
D10*
G36*
X90352234Y-110132294D02*
G01*
X90569185Y-110375860D01*
X90873949Y-110514079D01*
X90913472Y-110520668D01*
X91245991Y-110511734D01*
X91479903Y-110381041D01*
X91662201Y-110264814D01*
X91734222Y-110288773D01*
X91850947Y-110379211D01*
X92075863Y-110459043D01*
X92326451Y-110487792D01*
X92527417Y-110397606D01*
X92641637Y-110302219D01*
X92883537Y-109999725D01*
X93035484Y-109644770D01*
X93066093Y-109319496D01*
X93047215Y-109240808D01*
X92891884Y-109094470D01*
X92547978Y-109018514D01*
X92489605Y-109013624D01*
X92038422Y-109010796D01*
X91854218Y-109026565D01*
X91998143Y-109432996D01*
X92255166Y-109359637D01*
X92427863Y-109373263D01*
X92644167Y-109450708D01*
X92675173Y-109604771D01*
X92554836Y-109823212D01*
X92334209Y-110051936D01*
X92130534Y-110126841D01*
X91985860Y-110035932D01*
X91965685Y-109991254D01*
X91900942Y-109644479D01*
X91998143Y-109432996D01*
X91854218Y-109026565D01*
X91537089Y-109053712D01*
X91294916Y-109092862D01*
X91404640Y-109402712D01*
X91553911Y-109370700D01*
X91598524Y-109428567D01*
X91588028Y-109545750D01*
X91485782Y-109821980D01*
X91381245Y-109973464D01*
X91160960Y-110111264D01*
X90906955Y-110139313D01*
X90698190Y-110062570D01*
X90616216Y-109925411D01*
X90647172Y-109790968D01*
X90810546Y-109661745D01*
X91106243Y-109522454D01*
X91404640Y-109402712D01*
X91294916Y-109092862D01*
X91054182Y-109131780D01*
X90658278Y-109234410D01*
X90447211Y-109329096D01*
X90269350Y-109552954D01*
X90244989Y-109839340D01*
X90352234Y-110132294D01*
X90352234Y-110132294D01*
G37*
X90352234Y-110132294D02*
X90569185Y-110375860D01*
X90873949Y-110514079D01*
X90913472Y-110520668D01*
X91245991Y-110511734D01*
X91479903Y-110381041D01*
X91662201Y-110264814D01*
X91734222Y-110288773D01*
X91850947Y-110379211D01*
X92075863Y-110459043D01*
X92326451Y-110487792D01*
X92527417Y-110397606D01*
X92641637Y-110302219D01*
X92883537Y-109999725D01*
X93035484Y-109644770D01*
X93066093Y-109319496D01*
X93047215Y-109240808D01*
X92891884Y-109094470D01*
X92547978Y-109018514D01*
X92489605Y-109013624D01*
X92038422Y-109010796D01*
X91854218Y-109026565D01*
X91998143Y-109432996D01*
X92255166Y-109359637D01*
X92427863Y-109373263D01*
X92644167Y-109450708D01*
X92675173Y-109604771D01*
X92554836Y-109823212D01*
X92334209Y-110051936D01*
X92130534Y-110126841D01*
X91985860Y-110035932D01*
X91965685Y-109991254D01*
X91900942Y-109644479D01*
X91998143Y-109432996D01*
X91854218Y-109026565D01*
X91537089Y-109053712D01*
X91294916Y-109092862D01*
X91404640Y-109402712D01*
X91553911Y-109370700D01*
X91598524Y-109428567D01*
X91588028Y-109545750D01*
X91485782Y-109821980D01*
X91381245Y-109973464D01*
X91160960Y-110111264D01*
X90906955Y-110139313D01*
X90698190Y-110062570D01*
X90616216Y-109925411D01*
X90647172Y-109790968D01*
X90810546Y-109661745D01*
X91106243Y-109522454D01*
X91404640Y-109402712D01*
X91294916Y-109092862D01*
X91054182Y-109131780D01*
X90658278Y-109234410D01*
X90447211Y-109329096D01*
X90269350Y-109552954D01*
X90244989Y-109839340D01*
X90352234Y-110132294D01*
G36*
X93533614Y-118350001D02*
G01*
X93751057Y-118322819D01*
X93990924Y-118246749D01*
X94279395Y-118156834D01*
X94469840Y-118120683D01*
X94511134Y-118130531D01*
X94491035Y-118259349D01*
X94414420Y-118503508D01*
X94388085Y-118575675D01*
X94303220Y-118890172D01*
X94302034Y-119121033D01*
X94381371Y-119220160D01*
X94430011Y-119213992D01*
X94523476Y-119109621D01*
X94669025Y-118875674D01*
X94766804Y-118694752D01*
X94925206Y-118430080D01*
X95061428Y-118277303D01*
X95119280Y-118261182D01*
X95239942Y-118372263D01*
X95431049Y-118591480D01*
X95536615Y-118723645D01*
X95852459Y-119130823D01*
X95718327Y-119228916D01*
X95852700Y-119608377D01*
X96107178Y-119538533D01*
X96272701Y-119529249D01*
X96279839Y-119531967D01*
X96411850Y-119699704D01*
X96419976Y-119970706D01*
X96375706Y-120116037D01*
X96230322Y-120293927D01*
X95985325Y-120453600D01*
X95703422Y-120571074D01*
X95447317Y-120622364D01*
X95279718Y-120583488D01*
X95253903Y-120545094D01*
X95259078Y-120281128D01*
X95402538Y-119985679D01*
X95638079Y-119731029D01*
X95852700Y-119608377D01*
X95718327Y-119228916D01*
X95494123Y-119392881D01*
X95154071Y-119722428D01*
X94954793Y-120085833D01*
X94901695Y-120441769D01*
X95000183Y-120748908D01*
X95255667Y-120965924D01*
X95286535Y-120979618D01*
X95490989Y-121005532D01*
X95819055Y-120988249D01*
X96209420Y-120938180D01*
X96600773Y-120865737D01*
X96931807Y-120781332D01*
X97141208Y-120695379D01*
X97179855Y-120658085D01*
X97125118Y-120564266D01*
X96946164Y-120476555D01*
X96751234Y-120389157D01*
X96714260Y-120262292D01*
X96744848Y-120141108D01*
X96766711Y-119808891D01*
X96663539Y-119483044D01*
X96468825Y-119243069D01*
X96338958Y-119177603D01*
X96148223Y-119066450D01*
X96091393Y-118945154D01*
X96031115Y-118768339D01*
X95874415Y-118514902D01*
X95793706Y-118408848D01*
X95491779Y-118035119D01*
X95802207Y-117996385D01*
X96065845Y-117920216D01*
X96134873Y-117811339D01*
X96011963Y-117713747D01*
X95782620Y-117673653D01*
X95506627Y-117680649D01*
X95121353Y-117718308D01*
X94681042Y-117777799D01*
X94239944Y-117850288D01*
X93852303Y-117926942D01*
X93572368Y-117998930D01*
X93457494Y-118052246D01*
X93426565Y-118215803D01*
X93441202Y-118279631D01*
X93533614Y-118350001D01*
X93533614Y-118350001D01*
G37*
X93533614Y-118350001D02*
X93751057Y-118322819D01*
X93990924Y-118246749D01*
X94279395Y-118156834D01*
X94469840Y-118120683D01*
X94511134Y-118130531D01*
X94491035Y-118259349D01*
X94414420Y-118503508D01*
X94388085Y-118575675D01*
X94303220Y-118890172D01*
X94302034Y-119121033D01*
X94381371Y-119220160D01*
X94430011Y-119213992D01*
X94523476Y-119109621D01*
X94669025Y-118875674D01*
X94766804Y-118694752D01*
X94925206Y-118430080D01*
X95061428Y-118277303D01*
X95119280Y-118261182D01*
X95239942Y-118372263D01*
X95431049Y-118591480D01*
X95536615Y-118723645D01*
X95852459Y-119130823D01*
X95718327Y-119228916D01*
X95852700Y-119608377D01*
X96107178Y-119538533D01*
X96272701Y-119529249D01*
X96279839Y-119531967D01*
X96411850Y-119699704D01*
X96419976Y-119970706D01*
X96375706Y-120116037D01*
X96230322Y-120293927D01*
X95985325Y-120453600D01*
X95703422Y-120571074D01*
X95447317Y-120622364D01*
X95279718Y-120583488D01*
X95253903Y-120545094D01*
X95259078Y-120281128D01*
X95402538Y-119985679D01*
X95638079Y-119731029D01*
X95852700Y-119608377D01*
X95718327Y-119228916D01*
X95494123Y-119392881D01*
X95154071Y-119722428D01*
X94954793Y-120085833D01*
X94901695Y-120441769D01*
X95000183Y-120748908D01*
X95255667Y-120965924D01*
X95286535Y-120979618D01*
X95490989Y-121005532D01*
X95819055Y-120988249D01*
X96209420Y-120938180D01*
X96600773Y-120865737D01*
X96931807Y-120781332D01*
X97141208Y-120695379D01*
X97179855Y-120658085D01*
X97125118Y-120564266D01*
X96946164Y-120476555D01*
X96751234Y-120389157D01*
X96714260Y-120262292D01*
X96744848Y-120141108D01*
X96766711Y-119808891D01*
X96663539Y-119483044D01*
X96468825Y-119243069D01*
X96338958Y-119177603D01*
X96148223Y-119066450D01*
X96091393Y-118945154D01*
X96031115Y-118768339D01*
X95874415Y-118514902D01*
X95793706Y-118408848D01*
X95491779Y-118035119D01*
X95802207Y-117996385D01*
X96065845Y-117920216D01*
X96134873Y-117811339D01*
X96011963Y-117713747D01*
X95782620Y-117673653D01*
X95506627Y-117680649D01*
X95121353Y-117718308D01*
X94681042Y-117777799D01*
X94239944Y-117850288D01*
X93852303Y-117926942D01*
X93572368Y-117998930D01*
X93457494Y-118052246D01*
X93426565Y-118215803D01*
X93441202Y-118279631D01*
X93533614Y-118350001D01*
G36*
X94432254Y-117310291D02*
G01*
X94722437Y-117422426D01*
X95043426Y-117395665D01*
X95188989Y-117325099D01*
X95479717Y-117022849D01*
X95629052Y-116634566D01*
X95613693Y-116233328D01*
X95573078Y-116120448D01*
X95423531Y-115878625D01*
X95208804Y-115762201D01*
X95006885Y-115725894D01*
X94781463Y-115684802D01*
X94750544Y-115667359D01*
X94912287Y-116124107D01*
X95165831Y-116101145D01*
X95297153Y-116243167D01*
X95296368Y-116535759D01*
X95270215Y-116646016D01*
X95154773Y-116837266D01*
X94961133Y-116994589D01*
X94754694Y-117083052D01*
X94600852Y-117067723D01*
X94567461Y-117021392D01*
X94565550Y-116804370D01*
X94645336Y-116521759D01*
X94771720Y-116264892D01*
X94909604Y-116125099D01*
X94912287Y-116124107D01*
X94750544Y-115667359D01*
X94706075Y-115642272D01*
X94725359Y-115629110D01*
X94850671Y-115508190D01*
X94988163Y-115272124D01*
X95005937Y-115232500D01*
X95088682Y-114849044D01*
X95022627Y-114497541D01*
X94827383Y-114237364D01*
X94647411Y-114147217D01*
X94392549Y-114105464D01*
X94238292Y-114117318D01*
X94208897Y-114137797D01*
X94347040Y-114527901D01*
X94600584Y-114504939D01*
X94731907Y-114646961D01*
X94731122Y-114939553D01*
X94704968Y-115049809D01*
X94589526Y-115241060D01*
X94395887Y-115398383D01*
X94189447Y-115486845D01*
X94035605Y-115471516D01*
X94002214Y-115425185D01*
X94000304Y-115208164D01*
X94080090Y-114925554D01*
X94206474Y-114668686D01*
X94344357Y-114528892D01*
X94347040Y-114527901D01*
X94208897Y-114137797D01*
X93975381Y-114300492D01*
X93753490Y-114603961D01*
X93635472Y-114937480D01*
X93630279Y-114990311D01*
X93672947Y-115413110D01*
X93859077Y-115684367D01*
X94196873Y-115815358D01*
X94234641Y-115820609D01*
X94478803Y-115859133D01*
X94542581Y-115908264D01*
X94456554Y-115995924D01*
X94440242Y-116008373D01*
X94281404Y-116240497D01*
X94201650Y-116584835D01*
X94216812Y-116951606D01*
X94251318Y-117079780D01*
X94432254Y-117310291D01*
X94432254Y-117310291D01*
G37*
X94432254Y-117310291D02*
X94722437Y-117422426D01*
X95043426Y-117395665D01*
X95188989Y-117325099D01*
X95479717Y-117022849D01*
X95629052Y-116634566D01*
X95613693Y-116233328D01*
X95573078Y-116120448D01*
X95423531Y-115878625D01*
X95208804Y-115762201D01*
X95006885Y-115725894D01*
X94781463Y-115684802D01*
X94750544Y-115667359D01*
X94912287Y-116124107D01*
X95165831Y-116101145D01*
X95297153Y-116243167D01*
X95296368Y-116535759D01*
X95270215Y-116646016D01*
X95154773Y-116837266D01*
X94961133Y-116994589D01*
X94754694Y-117083052D01*
X94600852Y-117067723D01*
X94567461Y-117021392D01*
X94565550Y-116804370D01*
X94645336Y-116521759D01*
X94771720Y-116264892D01*
X94909604Y-116125099D01*
X94912287Y-116124107D01*
X94750544Y-115667359D01*
X94706075Y-115642272D01*
X94725359Y-115629110D01*
X94850671Y-115508190D01*
X94988163Y-115272124D01*
X95005937Y-115232500D01*
X95088682Y-114849044D01*
X95022627Y-114497541D01*
X94827383Y-114237364D01*
X94647411Y-114147217D01*
X94392549Y-114105464D01*
X94238292Y-114117318D01*
X94208897Y-114137797D01*
X94347040Y-114527901D01*
X94600584Y-114504939D01*
X94731907Y-114646961D01*
X94731122Y-114939553D01*
X94704968Y-115049809D01*
X94589526Y-115241060D01*
X94395887Y-115398383D01*
X94189447Y-115486845D01*
X94035605Y-115471516D01*
X94002214Y-115425185D01*
X94000304Y-115208164D01*
X94080090Y-114925554D01*
X94206474Y-114668686D01*
X94344357Y-114528892D01*
X94347040Y-114527901D01*
X94208897Y-114137797D01*
X93975381Y-114300492D01*
X93753490Y-114603961D01*
X93635472Y-114937480D01*
X93630279Y-114990311D01*
X93672947Y-115413110D01*
X93859077Y-115684367D01*
X94196873Y-115815358D01*
X94234641Y-115820609D01*
X94478803Y-115859133D01*
X94542581Y-115908264D01*
X94456554Y-115995924D01*
X94440242Y-116008373D01*
X94281404Y-116240497D01*
X94201650Y-116584835D01*
X94216812Y-116951606D01*
X94251318Y-117079780D01*
X94432254Y-117310291D01*
G36*
X92420172Y-113379364D02*
G01*
X92463927Y-113471603D01*
X92637310Y-113810755D01*
X92790984Y-114067842D01*
X92891724Y-114187285D01*
X92891826Y-114187336D01*
X93088446Y-114174991D01*
X93339300Y-113994746D01*
X93613036Y-113672297D01*
X93724612Y-113504935D01*
X94005062Y-113055354D01*
X94197878Y-113503216D01*
X94355264Y-113803850D01*
X94477416Y-113919071D01*
X94557813Y-113873178D01*
X94589935Y-113690467D01*
X94567261Y-113395235D01*
X94483270Y-113011782D01*
X94400406Y-112748538D01*
X94311045Y-112538936D01*
X94209147Y-112505519D01*
X94032754Y-112613790D01*
X93631848Y-112956349D01*
X93325052Y-113326222D01*
X93283128Y-113394549D01*
X93114244Y-113626665D01*
X92971048Y-113661889D01*
X92834851Y-113495326D01*
X92731472Y-113250011D01*
X92605316Y-112947453D01*
X92492458Y-112806647D01*
X92356882Y-112783497D01*
X92351068Y-112784307D01*
X92252730Y-112814515D01*
X92226755Y-112895065D01*
X92280213Y-113069000D01*
X92420172Y-113379364D01*
X92420172Y-113379364D01*
G37*
X92420172Y-113379364D02*
X92463927Y-113471603D01*
X92637310Y-113810755D01*
X92790984Y-114067842D01*
X92891724Y-114187285D01*
X92891826Y-114187336D01*
X93088446Y-114174991D01*
X93339300Y-113994746D01*
X93613036Y-113672297D01*
X93724612Y-113504935D01*
X94005062Y-113055354D01*
X94197878Y-113503216D01*
X94355264Y-113803850D01*
X94477416Y-113919071D01*
X94557813Y-113873178D01*
X94589935Y-113690467D01*
X94567261Y-113395235D01*
X94483270Y-113011782D01*
X94400406Y-112748538D01*
X94311045Y-112538936D01*
X94209147Y-112505519D01*
X94032754Y-112613790D01*
X93631848Y-112956349D01*
X93325052Y-113326222D01*
X93283128Y-113394549D01*
X93114244Y-113626665D01*
X92971048Y-113661889D01*
X92834851Y-113495326D01*
X92731472Y-113250011D01*
X92605316Y-112947453D01*
X92492458Y-112806647D01*
X92356882Y-112783497D01*
X92351068Y-112784307D01*
X92252730Y-112814515D01*
X92226755Y-112895065D01*
X92280213Y-113069000D01*
X92420172Y-113379364D01*
G36*
X92169857Y-112280872D02*
G01*
X92209896Y-112298949D01*
X92435518Y-112328494D01*
X92797963Y-112310308D01*
X93229979Y-112252854D01*
X93664320Y-112164595D01*
X93967615Y-112077722D01*
X94103685Y-111977594D01*
X94055136Y-111866982D01*
X93841868Y-111789964D01*
X93837401Y-111789271D01*
X93672500Y-111743916D01*
X93637496Y-111630268D01*
X93671976Y-111458891D01*
X93678788Y-111083457D01*
X93538803Y-110751891D01*
X93287123Y-110528105D01*
X93132723Y-110476999D01*
X92895132Y-110464176D01*
X92678036Y-110541183D01*
X92648732Y-110560650D01*
X92779174Y-110929005D01*
X93033651Y-110859162D01*
X93199174Y-110849877D01*
X93206312Y-110852596D01*
X93338324Y-111020332D01*
X93346449Y-111291334D01*
X93302179Y-111436665D01*
X93156795Y-111614556D01*
X92911798Y-111774229D01*
X92629895Y-111891702D01*
X92373791Y-111942993D01*
X92206191Y-111904117D01*
X92180376Y-111865723D01*
X92185551Y-111601756D01*
X92329011Y-111306308D01*
X92564553Y-111051657D01*
X92779174Y-110929005D01*
X92648732Y-110560650D01*
X92439909Y-110699385D01*
X92092303Y-111032767D01*
X91885756Y-111397522D01*
X91826005Y-111753736D01*
X91918792Y-112061491D01*
X92169857Y-112280872D01*
X92169857Y-112280872D01*
G37*
X92169857Y-112280872D02*
X92209896Y-112298949D01*
X92435518Y-112328494D01*
X92797963Y-112310308D01*
X93229979Y-112252854D01*
X93664320Y-112164595D01*
X93967615Y-112077722D01*
X94103685Y-111977594D01*
X94055136Y-111866982D01*
X93841868Y-111789964D01*
X93837401Y-111789271D01*
X93672500Y-111743916D01*
X93637496Y-111630268D01*
X93671976Y-111458891D01*
X93678788Y-111083457D01*
X93538803Y-110751891D01*
X93287123Y-110528105D01*
X93132723Y-110476999D01*
X92895132Y-110464176D01*
X92678036Y-110541183D01*
X92648732Y-110560650D01*
X92779174Y-110929005D01*
X93033651Y-110859162D01*
X93199174Y-110849877D01*
X93206312Y-110852596D01*
X93338324Y-111020332D01*
X93346449Y-111291334D01*
X93302179Y-111436665D01*
X93156795Y-111614556D01*
X92911798Y-111774229D01*
X92629895Y-111891702D01*
X92373791Y-111942993D01*
X92206191Y-111904117D01*
X92180376Y-111865723D01*
X92185551Y-111601756D01*
X92329011Y-111306308D01*
X92564553Y-111051657D01*
X92779174Y-110929005D01*
X92648732Y-110560650D01*
X92439909Y-110699385D01*
X92092303Y-111032767D01*
X91885756Y-111397522D01*
X91826005Y-111753736D01*
X91918792Y-112061491D01*
X92169857Y-112280872D01*
G36*
X90597634Y-106331432D02*
G01*
X90868269Y-106352012D01*
X90963020Y-106348567D01*
X91395848Y-106321262D01*
X91112238Y-106550782D01*
X90921395Y-106806413D01*
X90921321Y-107067145D01*
X91100758Y-107277767D01*
X91275882Y-107353366D01*
X91546828Y-107428549D01*
X91354215Y-107733097D01*
X91224853Y-108060370D01*
X91287467Y-108312888D01*
X91536715Y-108474078D01*
X91598751Y-108491571D01*
X91914335Y-108522602D01*
X92255036Y-108489206D01*
X92550111Y-108406536D01*
X92728809Y-108289746D01*
X92750504Y-108244880D01*
X92699373Y-108100582D01*
X92461828Y-108051420D01*
X92053955Y-108093952D01*
X91752507Y-108105092D01*
X91626019Y-108017228D01*
X91675604Y-107852098D01*
X91902370Y-107631438D01*
X92025858Y-107543745D01*
X92216624Y-107351278D01*
X92215747Y-107183396D01*
X92043175Y-107070133D01*
X91718863Y-107041522D01*
X91693382Y-107043278D01*
X91403212Y-107036034D01*
X91308473Y-106960213D01*
X91407698Y-106824927D01*
X91699427Y-106639293D01*
X91763641Y-106605644D01*
X92038944Y-106412471D01*
X92109366Y-106234482D01*
X91981678Y-106089618D01*
X91662644Y-105995820D01*
X91527637Y-105980062D01*
X91168832Y-105977803D01*
X90834434Y-106022766D01*
X90575077Y-106101223D01*
X90441394Y-106199447D01*
X90449524Y-106272379D01*
X90597634Y-106331432D01*
X90597634Y-106331432D01*
G37*
X90597634Y-106331432D02*
X90868269Y-106352012D01*
X90963020Y-106348567D01*
X91395848Y-106321262D01*
X91112238Y-106550782D01*
X90921395Y-106806413D01*
X90921321Y-107067145D01*
X91100758Y-107277767D01*
X91275882Y-107353366D01*
X91546828Y-107428549D01*
X91354215Y-107733097D01*
X91224853Y-108060370D01*
X91287467Y-108312888D01*
X91536715Y-108474078D01*
X91598751Y-108491571D01*
X91914335Y-108522602D01*
X92255036Y-108489206D01*
X92550111Y-108406536D01*
X92728809Y-108289746D01*
X92750504Y-108244880D01*
X92699373Y-108100582D01*
X92461828Y-108051420D01*
X92053955Y-108093952D01*
X91752507Y-108105092D01*
X91626019Y-108017228D01*
X91675604Y-107852098D01*
X91902370Y-107631438D01*
X92025858Y-107543745D01*
X92216624Y-107351278D01*
X92215747Y-107183396D01*
X92043175Y-107070133D01*
X91718863Y-107041522D01*
X91693382Y-107043278D01*
X91403212Y-107036034D01*
X91308473Y-106960213D01*
X91407698Y-106824927D01*
X91699427Y-106639293D01*
X91763641Y-106605644D01*
X92038944Y-106412471D01*
X92109366Y-106234482D01*
X91981678Y-106089618D01*
X91662644Y-105995820D01*
X91527637Y-105980062D01*
X91168832Y-105977803D01*
X90834434Y-106022766D01*
X90575077Y-106101223D01*
X90441394Y-106199447D01*
X90449524Y-106272379D01*
X90597634Y-106331432D01*
G36*
X89873544Y-105796284D02*
G01*
X89913583Y-105814360D01*
X90139205Y-105843906D01*
X90501650Y-105825720D01*
X90933666Y-105768266D01*
X91368007Y-105680008D01*
X91671302Y-105593135D01*
X91807372Y-105493005D01*
X91758823Y-105382394D01*
X91545555Y-105305375D01*
X91541088Y-105304684D01*
X91376187Y-105259327D01*
X91341183Y-105145679D01*
X91375663Y-104974303D01*
X91382475Y-104598868D01*
X91242490Y-104267303D01*
X90990810Y-104043517D01*
X90836411Y-103992412D01*
X90598819Y-103979588D01*
X90381723Y-104056594D01*
X90352419Y-104076062D01*
X90482861Y-104444417D01*
X90737338Y-104374574D01*
X90902861Y-104365289D01*
X90909999Y-104368008D01*
X91042010Y-104535744D01*
X91050136Y-104806747D01*
X91005866Y-104952078D01*
X90860482Y-105129967D01*
X90615485Y-105289641D01*
X90333582Y-105407115D01*
X90077478Y-105458405D01*
X89909878Y-105419529D01*
X89884063Y-105381134D01*
X89889238Y-105117168D01*
X90032699Y-104821721D01*
X90268239Y-104567069D01*
X90482861Y-104444417D01*
X90352419Y-104076062D01*
X90143596Y-104214797D01*
X89795990Y-104548179D01*
X89589443Y-104912934D01*
X89529692Y-105269147D01*
X89622479Y-105576903D01*
X89873544Y-105796284D01*
X89873544Y-105796284D01*
G37*
X89873544Y-105796284D02*
X89913583Y-105814360D01*
X90139205Y-105843906D01*
X90501650Y-105825720D01*
X90933666Y-105768266D01*
X91368007Y-105680008D01*
X91671302Y-105593135D01*
X91807372Y-105493005D01*
X91758823Y-105382394D01*
X91545555Y-105305375D01*
X91541088Y-105304684D01*
X91376187Y-105259327D01*
X91341183Y-105145679D01*
X91375663Y-104974303D01*
X91382475Y-104598868D01*
X91242490Y-104267303D01*
X90990810Y-104043517D01*
X90836411Y-103992412D01*
X90598819Y-103979588D01*
X90381723Y-104056594D01*
X90352419Y-104076062D01*
X90482861Y-104444417D01*
X90737338Y-104374574D01*
X90902861Y-104365289D01*
X90909999Y-104368008D01*
X91042010Y-104535744D01*
X91050136Y-104806747D01*
X91005866Y-104952078D01*
X90860482Y-105129967D01*
X90615485Y-105289641D01*
X90333582Y-105407115D01*
X90077478Y-105458405D01*
X89909878Y-105419529D01*
X89884063Y-105381134D01*
X89889238Y-105117168D01*
X90032699Y-104821721D01*
X90268239Y-104567069D01*
X90482861Y-104444417D01*
X90352419Y-104076062D01*
X90143596Y-104214797D01*
X89795990Y-104548179D01*
X89589443Y-104912934D01*
X89529692Y-105269147D01*
X89622479Y-105576903D01*
X89873544Y-105796284D01*
G36*
X89122319Y-103831861D02*
G01*
X89412155Y-103888629D01*
X89671099Y-103833691D01*
X89968265Y-103653105D01*
X90207292Y-103378129D01*
X90330662Y-103082722D01*
X90335183Y-102979758D01*
X90343047Y-102766218D01*
X90407612Y-102723929D01*
X90503085Y-102829211D01*
X90603673Y-103058387D01*
X90663617Y-103281274D01*
X90735898Y-103584189D01*
X90801377Y-103719354D01*
X90887170Y-103727954D01*
X90940114Y-103701222D01*
X91030525Y-103590532D01*
X91029947Y-103383187D01*
X90959069Y-103092086D01*
X90844244Y-102762444D01*
X90711978Y-102572915D01*
X90513481Y-102454280D01*
X90507807Y-102451862D01*
X90051994Y-102341261D01*
X89614758Y-102423877D01*
X89547298Y-102457296D01*
X89676238Y-102821413D01*
X89843584Y-102839520D01*
X89928957Y-102987971D01*
X89910835Y-103194259D01*
X89827626Y-103331439D01*
X89631993Y-103463754D01*
X89404445Y-103520140D01*
X89231989Y-103485740D01*
X89196398Y-103439227D01*
X89231884Y-103280060D01*
X89373837Y-103069919D01*
X89561280Y-102887317D01*
X89676238Y-102821413D01*
X89547298Y-102457296D01*
X89395210Y-102532638D01*
X89081962Y-102790823D01*
X88906767Y-103090951D01*
X88860907Y-103391909D01*
X88935663Y-103652584D01*
X89122319Y-103831861D01*
X89122319Y-103831861D01*
G37*
X89122319Y-103831861D02*
X89412155Y-103888629D01*
X89671099Y-103833691D01*
X89968265Y-103653105D01*
X90207292Y-103378129D01*
X90330662Y-103082722D01*
X90335183Y-102979758D01*
X90343047Y-102766218D01*
X90407612Y-102723929D01*
X90503085Y-102829211D01*
X90603673Y-103058387D01*
X90663617Y-103281274D01*
X90735898Y-103584189D01*
X90801377Y-103719354D01*
X90887170Y-103727954D01*
X90940114Y-103701222D01*
X91030525Y-103590532D01*
X91029947Y-103383187D01*
X90959069Y-103092086D01*
X90844244Y-102762444D01*
X90711978Y-102572915D01*
X90513481Y-102454280D01*
X90507807Y-102451862D01*
X90051994Y-102341261D01*
X89614758Y-102423877D01*
X89547298Y-102457296D01*
X89676238Y-102821413D01*
X89843584Y-102839520D01*
X89928957Y-102987971D01*
X89910835Y-103194259D01*
X89827626Y-103331439D01*
X89631993Y-103463754D01*
X89404445Y-103520140D01*
X89231989Y-103485740D01*
X89196398Y-103439227D01*
X89231884Y-103280060D01*
X89373837Y-103069919D01*
X89561280Y-102887317D01*
X89676238Y-102821413D01*
X89547298Y-102457296D01*
X89395210Y-102532638D01*
X89081962Y-102790823D01*
X88906767Y-103090951D01*
X88860907Y-103391909D01*
X88935663Y-103652584D01*
X89122319Y-103831861D01*
G36*
X88273255Y-102717835D02*
G01*
X88331760Y-102791489D01*
X88382750Y-102771132D01*
X88418247Y-102719846D01*
X88471223Y-102480143D01*
X88432789Y-102234012D01*
X88390483Y-102009886D01*
X88466678Y-101850420D01*
X88687575Y-101738608D01*
X89079377Y-101657446D01*
X89379703Y-101619432D01*
X89774188Y-101571507D01*
X90091434Y-101525448D01*
X90267490Y-101490622D01*
X90273903Y-101488476D01*
X90361946Y-101383601D01*
X90304514Y-101242025D01*
X90139281Y-101133149D01*
X90072179Y-101116904D01*
X89830290Y-101117144D01*
X89498084Y-101159075D01*
X89392581Y-101179338D01*
X88904315Y-101283140D01*
X88580601Y-101341211D01*
X88377339Y-101343418D01*
X88250429Y-101279622D01*
X88155769Y-101139691D01*
X88049259Y-100913488D01*
X88026653Y-100865412D01*
X87835645Y-100493137D01*
X87700962Y-100306835D01*
X87610736Y-100292101D01*
X87585133Y-100329542D01*
X87600419Y-100453501D01*
X87667587Y-100738238D01*
X87776021Y-101142298D01*
X87915112Y-101624229D01*
X87925538Y-101659194D01*
X88082855Y-102179051D01*
X88194525Y-102522811D01*
X88273255Y-102717835D01*
X88273255Y-102717835D01*
G37*
X88273255Y-102717835D02*
X88331760Y-102791489D01*
X88382750Y-102771132D01*
X88418247Y-102719846D01*
X88471223Y-102480143D01*
X88432789Y-102234012D01*
X88390483Y-102009886D01*
X88466678Y-101850420D01*
X88687575Y-101738608D01*
X89079377Y-101657446D01*
X89379703Y-101619432D01*
X89774188Y-101571507D01*
X90091434Y-101525448D01*
X90267490Y-101490622D01*
X90273903Y-101488476D01*
X90361946Y-101383601D01*
X90304514Y-101242025D01*
X90139281Y-101133149D01*
X90072179Y-101116904D01*
X89830290Y-101117144D01*
X89498084Y-101159075D01*
X89392581Y-101179338D01*
X88904315Y-101283140D01*
X88580601Y-101341211D01*
X88377339Y-101343418D01*
X88250429Y-101279622D01*
X88155769Y-101139691D01*
X88049259Y-100913488D01*
X88026653Y-100865412D01*
X87835645Y-100493137D01*
X87700962Y-100306835D01*
X87610736Y-100292101D01*
X87585133Y-100329542D01*
X87600419Y-100453501D01*
X87667587Y-100738238D01*
X87776021Y-101142298D01*
X87915112Y-101624229D01*
X87925538Y-101659194D01*
X88082855Y-102179051D01*
X88194525Y-102522811D01*
X88273255Y-102717835D01*
G36*
X89544393Y-116585205D02*
G01*
X89567810Y-116648401D01*
X89587126Y-116696537D01*
X89603524Y-116731715D01*
X89618189Y-116756036D01*
X89632307Y-116771600D01*
X89647061Y-116780510D01*
X89663636Y-116784865D01*
X89674267Y-116786107D01*
X89696344Y-116783521D01*
X89735973Y-116773348D01*
X89793494Y-116755487D01*
X89869246Y-116729837D01*
X89904103Y-116717596D01*
X90104774Y-116646534D01*
X90170855Y-116833144D01*
X90236936Y-117019753D01*
X90179307Y-117033624D01*
X90145445Y-117042859D01*
X90124858Y-117052785D01*
X90110810Y-117067600D01*
X90102041Y-117081753D01*
X90082406Y-117116012D01*
X90150994Y-117319020D01*
X90219584Y-117522027D01*
X90105929Y-117562274D01*
X90057299Y-117579752D01*
X90024044Y-117592835D01*
X90002307Y-117603690D01*
X89988228Y-117614483D01*
X89977953Y-117627382D01*
X89971588Y-117637750D01*
X89959206Y-117664475D01*
X89958403Y-117689061D01*
X89966016Y-117715660D01*
X89981515Y-117748204D01*
X90002796Y-117768061D01*
X90012963Y-117773525D01*
X90027198Y-117779484D01*
X90041247Y-117781947D01*
X90059104Y-117780191D01*
X90084762Y-117773502D01*
X90122211Y-117761158D01*
X90164946Y-117746161D01*
X90285097Y-117703614D01*
X90486433Y-118272167D01*
X90528431Y-118390722D01*
X90564239Y-118491599D01*
X90594438Y-118576279D01*
X90619608Y-118646247D01*
X90640329Y-118702982D01*
X90657181Y-118747966D01*
X90670744Y-118782682D01*
X90681600Y-118808611D01*
X90690327Y-118827234D01*
X90697508Y-118840032D01*
X90703721Y-118848489D01*
X90709547Y-118854085D01*
X90715567Y-118858302D01*
X90716148Y-118858671D01*
X90747810Y-118870163D01*
X90779090Y-118871222D01*
X90813654Y-118865825D01*
X90885089Y-119057735D01*
X90911776Y-119128611D01*
X90933194Y-119182650D01*
X90950791Y-119222194D01*
X90966016Y-119249584D01*
X90980321Y-119267158D01*
X90995154Y-119277259D01*
X91011965Y-119282226D01*
X91025151Y-119283855D01*
X91050405Y-119281843D01*
X91083880Y-119274108D01*
X91098736Y-119269344D01*
X91126118Y-119260295D01*
X91143802Y-119255692D01*
X91147296Y-119255721D01*
X91149085Y-119266072D01*
X91153792Y-119294564D01*
X91161104Y-119339276D01*
X91170709Y-119398287D01*
X91182296Y-119469679D01*
X91195552Y-119551528D01*
X91210165Y-119641915D01*
X91225823Y-119738919D01*
X91228847Y-119757669D01*
X91229521Y-119761849D01*
X91639919Y-120920777D01*
X92741301Y-120530757D01*
X92767467Y-120604646D01*
X92710777Y-120631645D01*
X92690149Y-120640305D01*
X92652427Y-120654931D01*
X92599685Y-120674762D01*
X92534004Y-120699034D01*
X92457461Y-120726987D01*
X92372132Y-120757858D01*
X92280098Y-120790884D01*
X92183433Y-120825306D01*
X92162264Y-120832808D01*
X91670442Y-121006972D01*
X91639919Y-120920777D01*
X91229521Y-119761849D01*
X91256717Y-119930503D01*
X91281571Y-120084529D01*
X91303637Y-120221002D01*
X91323141Y-120341174D01*
X91340310Y-120446299D01*
X91355371Y-120537629D01*
X91368553Y-120616418D01*
X91380079Y-120683918D01*
X91390180Y-120741384D01*
X91399080Y-120790066D01*
X91407007Y-120831220D01*
X91414187Y-120866097D01*
X91420849Y-120895952D01*
X91427219Y-120922035D01*
X91433522Y-120945602D01*
X91439988Y-120967904D01*
X91446842Y-120990196D01*
X91454312Y-121013729D01*
X91458969Y-121028294D01*
X91481968Y-121097594D01*
X91501561Y-121149576D01*
X91519140Y-121186669D01*
X91536099Y-121211300D01*
X91553828Y-121225898D01*
X91573722Y-121232888D01*
X91576577Y-121233371D01*
X91589771Y-121231241D01*
X91618915Y-121223136D01*
X91664404Y-121208921D01*
X91726635Y-121188462D01*
X91806005Y-121161626D01*
X91902910Y-121128277D01*
X92017747Y-121088284D01*
X92150912Y-121041511D01*
X92280587Y-120995693D01*
X92961636Y-120754521D01*
X92976820Y-120722689D01*
X92985500Y-120684144D01*
X92980024Y-120654190D01*
X92964289Y-120605721D01*
X92950630Y-120563526D01*
X92938290Y-120526108D01*
X92926515Y-120491967D01*
X92914548Y-120459607D01*
X92901635Y-120427526D01*
X92887020Y-120394227D01*
X92869946Y-120358210D01*
X92849659Y-120317977D01*
X92825405Y-120272030D01*
X92796425Y-120218869D01*
X92761966Y-120156994D01*
X92721272Y-120084910D01*
X92673587Y-120001114D01*
X92618155Y-119904108D01*
X92554222Y-119792396D01*
X92481992Y-119666155D01*
X92418712Y-119555411D01*
X92358288Y-119449489D01*
X92301490Y-119349754D01*
X92249090Y-119257566D01*
X92201859Y-119174289D01*
X92160568Y-119101286D01*
X92125990Y-119039919D01*
X92098896Y-118991550D01*
X92080056Y-118957545D01*
X92070244Y-118939263D01*
X92069021Y-118936665D01*
X92067282Y-118925097D01*
X92074450Y-118916014D01*
X92094408Y-118906352D01*
X92118806Y-118897340D01*
X92151566Y-118884614D01*
X92170817Y-118872548D01*
X92182582Y-118856195D01*
X92189778Y-118839045D01*
X92204138Y-118800798D01*
X92065608Y-118409601D01*
X92094775Y-118399273D01*
X92124539Y-118378912D01*
X92143171Y-118346594D01*
X92147524Y-118309049D01*
X92144325Y-118293295D01*
X92138227Y-118274699D01*
X92126596Y-118240066D01*
X92110511Y-118192572D01*
X92091048Y-118135395D01*
X92069285Y-118071714D01*
X92056861Y-118035461D01*
X92034806Y-117971006D01*
X92014950Y-117912651D01*
X91998252Y-117863247D01*
X91985674Y-117825646D01*
X91978177Y-117802698D01*
X91976518Y-117797151D01*
X91979625Y-117793271D01*
X91990966Y-117786858D01*
X92011671Y-117777486D01*
X92042868Y-117764729D01*
X92085688Y-117748165D01*
X92141259Y-117727368D01*
X92210714Y-117701914D01*
X92295179Y-117671380D01*
X92395785Y-117635339D01*
X92513661Y-117593369D01*
X92608097Y-117559865D01*
X92740917Y-117512708D01*
X92855671Y-117471759D01*
X92953498Y-117436588D01*
X93035539Y-117406770D01*
X93102934Y-117381876D01*
X93156821Y-117361478D01*
X93198343Y-117345150D01*
X93228638Y-117332463D01*
X93248845Y-117322989D01*
X93260107Y-117316301D01*
X93262204Y-117314480D01*
X93276100Y-117289620D01*
X93281044Y-117261152D01*
X93277589Y-117245743D01*
X93268181Y-117214007D01*
X93253780Y-117168726D01*
X93235342Y-117112683D01*
X93213825Y-117048660D01*
X93190186Y-116979440D01*
X93165384Y-116907804D01*
X93140375Y-116836535D01*
X93116118Y-116768416D01*
X93093571Y-116706227D01*
X93073691Y-116652753D01*
X93057436Y-116610774D01*
X93055586Y-116606176D01*
X93040771Y-116587343D01*
X93016166Y-116569989D01*
X93012891Y-116568347D01*
X92978951Y-116552159D01*
X92847956Y-116600045D01*
X92913025Y-116783794D01*
X93055393Y-117202232D01*
X92900694Y-117259974D01*
X92745996Y-117317717D01*
X92707416Y-117208771D01*
X92689826Y-117162047D01*
X92672137Y-117120066D01*
X92656651Y-117088038D01*
X92647437Y-117073132D01*
X92616552Y-117049294D01*
X92578375Y-117040509D01*
X92539018Y-117046552D01*
X92504589Y-117067200D01*
X92494130Y-117078746D01*
X92482780Y-117101565D01*
X92479555Y-117131652D01*
X92484783Y-117171794D01*
X92498790Y-117224782D01*
X92518026Y-117282518D01*
X92554580Y-117385912D01*
X92413718Y-117429461D01*
X92363686Y-117303395D01*
X92343300Y-117252426D01*
X92328317Y-117217050D01*
X92316714Y-117193948D01*
X92306467Y-117179796D01*
X92295553Y-117171277D01*
X92281948Y-117165067D01*
X92278610Y-117163765D01*
X92235623Y-117156879D01*
X92196293Y-117168741D01*
X92165017Y-117197795D01*
X92159966Y-117205790D01*
X92152674Y-117219431D01*
X92148750Y-117232213D01*
X92148754Y-117247920D01*
X92153248Y-117270338D01*
X92162789Y-117303249D01*
X92177940Y-117350437D01*
X92184222Y-117369652D01*
X92227173Y-117500909D01*
X91907572Y-117614085D01*
X91757896Y-117192846D01*
X92913025Y-116783794D01*
X92847956Y-116600045D01*
X92340695Y-116785480D01*
X92232176Y-116825030D01*
X92129360Y-116862268D01*
X92033820Y-116896638D01*
X91947126Y-116927587D01*
X91870852Y-116954560D01*
X91806569Y-116977004D01*
X91755851Y-116994363D01*
X91720267Y-117006083D01*
X91701391Y-117011610D01*
X91698709Y-117011876D01*
X91694218Y-117000621D01*
X91683873Y-116973283D01*
X91668794Y-116932869D01*
X91650103Y-116882382D01*
X91628919Y-116824827D01*
X91625309Y-116814989D01*
X91555638Y-116625027D01*
X91515615Y-116608629D01*
X91487568Y-116599780D01*
X91461640Y-116599822D01*
X91428364Y-116608981D01*
X91423070Y-116610830D01*
X91370547Y-116629430D01*
X91290194Y-116402521D01*
X91429266Y-116346304D01*
X91460385Y-116334139D01*
X91508900Y-116315727D01*
X91573087Y-116291703D01*
X91651221Y-116262700D01*
X91741582Y-116229354D01*
X91842442Y-116192296D01*
X91952080Y-116152162D01*
X92068770Y-116109586D01*
X92190789Y-116065201D01*
X92316414Y-116019642D01*
X92380505Y-115996452D01*
X92504091Y-115951712D01*
X92622629Y-115908687D01*
X92734664Y-115867911D01*
X92838740Y-115829921D01*
X92933401Y-115795250D01*
X93017193Y-115764433D01*
X93088660Y-115738005D01*
X93146346Y-115716502D01*
X93188796Y-115700457D01*
X93214555Y-115690406D01*
X93221738Y-115687299D01*
X93247791Y-115664474D01*
X93261565Y-115639973D01*
X93264194Y-115630794D01*
X93265328Y-115620650D01*
X93264358Y-115607477D01*
X93260679Y-115589210D01*
X93253680Y-115563788D01*
X93242757Y-115529144D01*
X93227300Y-115483217D01*
X93206703Y-115423940D01*
X93180356Y-115349252D01*
X93154637Y-115276749D01*
X93120588Y-115181775D01*
X93090739Y-115100371D01*
X93065518Y-115033653D01*
X93045358Y-114982733D01*
X93030689Y-114948723D01*
X93021941Y-114932736D01*
X93021252Y-114932032D01*
X93013131Y-114925313D01*
X93004951Y-114919896D01*
X92995355Y-114916168D01*
X92982989Y-114914520D01*
X92966494Y-114915338D01*
X92944516Y-114919011D01*
X92915698Y-114925928D01*
X92878686Y-114936477D01*
X92832122Y-114951048D01*
X92774651Y-114970027D01*
X92704917Y-114993805D01*
X92621563Y-115022769D01*
X92523234Y-115057307D01*
X92408575Y-115097809D01*
X92276228Y-115144662D01*
X92264149Y-115148940D01*
X91588479Y-115388208D01*
X91482023Y-115087585D01*
X91451991Y-115003035D01*
X91427768Y-114935633D01*
X91408504Y-114883326D01*
X91393351Y-114844065D01*
X91381458Y-114815796D01*
X91371976Y-114796471D01*
X91364057Y-114784037D01*
X91356851Y-114776443D01*
X91351716Y-114772873D01*
X91333940Y-114768459D01*
X91296674Y-114764407D01*
X91240744Y-114760761D01*
X91166976Y-114757565D01*
X91076197Y-114754864D01*
X90978738Y-114752862D01*
X90883633Y-114751354D01*
X90806452Y-114750451D01*
X90744804Y-114750247D01*
X90715525Y-114750603D01*
X90787505Y-114953870D01*
X90793593Y-114952074D01*
X90795435Y-114952099D01*
X90812023Y-114952570D01*
X90844798Y-114953371D01*
X90889631Y-114954406D01*
X90942393Y-114955577D01*
X90966609Y-114956101D01*
X91044640Y-114957841D01*
X91104820Y-114959381D01*
X91149614Y-114960862D01*
X91181490Y-114962425D01*
X91202911Y-114964210D01*
X91216346Y-114966360D01*
X91224260Y-114969012D01*
X91227504Y-114970993D01*
X91233573Y-114982399D01*
X91245122Y-115010367D01*
X91261137Y-115052203D01*
X91280607Y-115105212D01*
X91302519Y-115166702D01*
X91320705Y-115218965D01*
X91403419Y-115459130D01*
X91007796Y-115605054D01*
X91070988Y-115783501D01*
X91808278Y-115529521D01*
X91930899Y-115487259D01*
X92051852Y-115445530D01*
X92169166Y-115405016D01*
X92280872Y-115366399D01*
X92384998Y-115330363D01*
X92479577Y-115297588D01*
X92562636Y-115268757D01*
X92632206Y-115244553D01*
X92686317Y-115225657D01*
X92720365Y-115213685D01*
X92895164Y-115151829D01*
X93041271Y-115564424D01*
X92961274Y-115589622D01*
X92881277Y-115614821D01*
X92831246Y-115488755D01*
X92810860Y-115437786D01*
X92795877Y-115402411D01*
X92784273Y-115379308D01*
X92774027Y-115365157D01*
X92763113Y-115356637D01*
X92749508Y-115350427D01*
X92746169Y-115349125D01*
X92705159Y-115341693D01*
X92667816Y-115353615D01*
X92644148Y-115372155D01*
X92628250Y-115391976D01*
X92620218Y-115415467D01*
X92620241Y-115445932D01*
X92628505Y-115486683D01*
X92645199Y-115541023D01*
X92655350Y-115570341D01*
X92696217Y-115685744D01*
X92552558Y-115736616D01*
X92509104Y-115614581D01*
X92489860Y-115561868D01*
X92475063Y-115525159D01*
X92463052Y-115501080D01*
X92452164Y-115486254D01*
X92441868Y-115477979D01*
X92400523Y-115462351D01*
X92359772Y-115463576D01*
X92324375Y-115480212D01*
X92299094Y-115510813D01*
X92294086Y-115522819D01*
X92290270Y-115538037D01*
X92290001Y-115554903D01*
X92294116Y-115577356D01*
X92303451Y-115609336D01*
X92318838Y-115654778D01*
X92326959Y-115677841D01*
X92370591Y-115801054D01*
X92309121Y-115822821D01*
X92274892Y-115835923D01*
X92247528Y-115848163D01*
X92234562Y-115855766D01*
X92228519Y-115858354D01*
X92222058Y-115853627D01*
X92213850Y-115838931D01*
X92202559Y-115811612D01*
X92186854Y-115769016D01*
X92176759Y-115740678D01*
X92132046Y-115614412D01*
X92094137Y-115596331D01*
X92051168Y-115585696D01*
X92010063Y-115595152D01*
X91978621Y-115617699D01*
X91965175Y-115635082D01*
X91958883Y-115656698D01*
X91960030Y-115685769D01*
X91968902Y-115725524D01*
X91985785Y-115779187D01*
X91995368Y-115806745D01*
X92036425Y-115922687D01*
X91629671Y-116060001D01*
X91543167Y-116089196D01*
X91462827Y-116116300D01*
X91390651Y-116140637D01*
X91328637Y-116161535D01*
X91278784Y-116178320D01*
X91243090Y-116190319D01*
X91223554Y-116196858D01*
X91220423Y-116197883D01*
X91216463Y-116188929D01*
X91206780Y-116163552D01*
X91192380Y-116124500D01*
X91174273Y-116074522D01*
X91153470Y-116016365D01*
X91144459Y-115990978D01*
X91070988Y-115783501D01*
X91007796Y-115605054D01*
X90943221Y-115422698D01*
X91058884Y-115381739D01*
X91107601Y-115364328D01*
X91140842Y-115351504D01*
X91162292Y-115341090D01*
X91175640Y-115330913D01*
X91184570Y-115318800D01*
X91192629Y-115302872D01*
X91203265Y-115259903D01*
X91193808Y-115218798D01*
X91171261Y-115187355D01*
X91153320Y-115173655D01*
X91130852Y-115167472D01*
X91100576Y-115169065D01*
X91059211Y-115178698D01*
X91003472Y-115196631D01*
X90988470Y-115201888D01*
X90878783Y-115240730D01*
X90827547Y-115096046D01*
X90808073Y-115040574D01*
X90794951Y-115001403D01*
X90787564Y-114975751D01*
X90785289Y-114960835D01*
X90787505Y-114953870D01*
X90715525Y-114750603D01*
X90696302Y-114750836D01*
X90658555Y-114752314D01*
X90629174Y-114754774D01*
X90605768Y-114758311D01*
X90585951Y-114763021D01*
X90567330Y-114768997D01*
X90504098Y-114791389D01*
X90434404Y-114594579D01*
X90408906Y-114523526D01*
X90388606Y-114469389D01*
X90372474Y-114429748D01*
X90359475Y-114402177D01*
X90348578Y-114384257D01*
X90340997Y-114375537D01*
X90308725Y-114358216D01*
X90266483Y-114354091D01*
X90221559Y-114363308D01*
X90194257Y-114372976D01*
X90090141Y-114078960D01*
X90111166Y-113975585D01*
X90136642Y-113800707D01*
X90142400Y-113626281D01*
X90128982Y-113453809D01*
X90096928Y-113284790D01*
X90046781Y-113120726D01*
X89979082Y-112963117D01*
X89894373Y-112813462D01*
X89793195Y-112673265D01*
X89676089Y-112544024D01*
X89555971Y-112437067D01*
X89489955Y-112384092D01*
X89426542Y-112205014D01*
X89399432Y-112130320D01*
X89376794Y-112072886D01*
X89357346Y-112030484D01*
X89339811Y-112000885D01*
X89322908Y-111981860D01*
X89305358Y-111971180D01*
X89290040Y-111967153D01*
X89271460Y-111969314D01*
X89236428Y-111978223D01*
X89187391Y-111993163D01*
X89126796Y-112013420D01*
X89100940Y-112022472D01*
X89064727Y-112035512D01*
X89132489Y-112226864D01*
X89209107Y-112199732D01*
X89242739Y-112294706D01*
X89259873Y-112346700D01*
X89268038Y-112380617D01*
X89267268Y-112396595D01*
X89266572Y-112397318D01*
X89249954Y-112404809D01*
X89228161Y-112410595D01*
X89199548Y-112416234D01*
X89132489Y-112226864D01*
X89064727Y-112035512D01*
X89034025Y-112046569D01*
X89019607Y-112052192D01*
X89222807Y-112626010D01*
X89390655Y-112566572D01*
X89436023Y-112601778D01*
X89486558Y-112644872D01*
X89542912Y-112699255D01*
X89599697Y-112759269D01*
X89651520Y-112819255D01*
X89687408Y-112865669D01*
X89768524Y-112993356D01*
X89836872Y-113131785D01*
X89890118Y-113275572D01*
X89924579Y-113412209D01*
X89945988Y-113575969D01*
X89947960Y-113740757D01*
X89930513Y-113903500D01*
X89921196Y-113952902D01*
X89906769Y-114022096D01*
X89860253Y-114038513D01*
X89926225Y-114224812D01*
X90002713Y-114440806D01*
X89926095Y-114467938D01*
X89852194Y-114259250D01*
X89889210Y-114242031D01*
X89926225Y-114224812D01*
X89860253Y-114038513D01*
X89750073Y-114077396D01*
X89695272Y-114034922D01*
X89576696Y-113930310D01*
X89554319Y-113905062D01*
X89840688Y-114713746D01*
X90217111Y-114580448D01*
X90247004Y-114684710D01*
X90260890Y-114732318D01*
X90274210Y-114776570D01*
X90285098Y-114811332D01*
X90289938Y-114825790D01*
X90302976Y-114862610D01*
X89939041Y-114991486D01*
X89840688Y-114713746D01*
X89554319Y-113905062D01*
X89469333Y-113809175D01*
X89374024Y-113672472D01*
X89372252Y-113669596D01*
X89335394Y-113602207D01*
X89298528Y-113521638D01*
X89263857Y-113433896D01*
X89233584Y-113344987D01*
X89209910Y-113260915D01*
X89195041Y-113187686D01*
X89194742Y-113185638D01*
X89184603Y-113086289D01*
X89181084Y-112980352D01*
X89183982Y-112874054D01*
X89193090Y-112773631D01*
X89208206Y-112685311D01*
X89211634Y-112670835D01*
X89222807Y-112626010D01*
X89019607Y-112052192D01*
X88984055Y-112066061D01*
X88948662Y-112082673D01*
X88925481Y-112098132D01*
X88912147Y-112114159D01*
X88906293Y-112132482D01*
X88905554Y-112154825D01*
X88906109Y-112164535D01*
X88910360Y-112186846D01*
X88920444Y-112224226D01*
X88935156Y-112272684D01*
X88953297Y-112328227D01*
X88969540Y-112375277D01*
X89030249Y-112546882D01*
X89011446Y-112632157D01*
X88985143Y-112796820D01*
X88977118Y-112967342D01*
X88987392Y-113140666D01*
X89007536Y-113272840D01*
X89024364Y-113342589D01*
X89049329Y-113423731D01*
X89080162Y-113510208D01*
X89114590Y-113595959D01*
X89150340Y-113674928D01*
X89179038Y-113730346D01*
X89250189Y-113844507D01*
X89333281Y-113955576D01*
X89424214Y-114058727D01*
X89518894Y-114149134D01*
X89569780Y-114190683D01*
X89628191Y-114235419D01*
X89734550Y-114535767D01*
X89707247Y-114545436D01*
X89679394Y-114559014D01*
X89652604Y-114577022D01*
X89637571Y-114591333D01*
X89627846Y-114607752D01*
X89623749Y-114628791D01*
X89625595Y-114656968D01*
X89633706Y-114694792D01*
X89648399Y-114744779D01*
X89669993Y-114809440D01*
X89688927Y-114863485D01*
X89756658Y-115054750D01*
X89738435Y-115064164D01*
X89805749Y-115254252D01*
X90571928Y-114982934D01*
X91175611Y-116687682D01*
X90812700Y-116816195D01*
X90877139Y-116998163D01*
X91422016Y-116805211D01*
X91937521Y-118260951D01*
X91391619Y-118454266D01*
X91291256Y-118489668D01*
X91196730Y-118522745D01*
X91109751Y-118552915D01*
X91032030Y-118579600D01*
X90965280Y-118602216D01*
X90930723Y-118613701D01*
X90999741Y-118808601D01*
X91892929Y-118492307D01*
X91899712Y-118530323D01*
X91906218Y-118557299D01*
X91917710Y-118596382D01*
X91932101Y-118640632D01*
X91937758Y-118656967D01*
X91969025Y-118745594D01*
X91452212Y-118928607D01*
X91520651Y-119121871D01*
X91599361Y-119094589D01*
X91870689Y-119001370D01*
X91920061Y-119086279D01*
X91934282Y-119110841D01*
X91957531Y-119151122D01*
X91988712Y-119205222D01*
X92026734Y-119271240D01*
X92070500Y-119347276D01*
X92118917Y-119431428D01*
X92170890Y-119521796D01*
X92225327Y-119616480D01*
X92265365Y-119686142D01*
X92320319Y-119781724D01*
X92373153Y-119873536D01*
X92422839Y-119959794D01*
X92468345Y-120038717D01*
X92508644Y-120108520D01*
X92542708Y-120167423D01*
X92569507Y-120213643D01*
X92588011Y-120245395D01*
X92595965Y-120258876D01*
X92614964Y-120291212D01*
X92630176Y-120318318D01*
X92637687Y-120333022D01*
X92638321Y-120336859D01*
X92635970Y-120341127D01*
X92629177Y-120346393D01*
X92616489Y-120353224D01*
X92596448Y-120362188D01*
X92567602Y-120373852D01*
X92528494Y-120388785D01*
X92477670Y-120407553D01*
X92413673Y-120430725D01*
X92335050Y-120458868D01*
X92240345Y-120492549D01*
X92128104Y-120532336D01*
X92113203Y-120537613D01*
X92014248Y-120572500D01*
X91921178Y-120605012D01*
X91835725Y-120634562D01*
X91759617Y-120660572D01*
X91694588Y-120682453D01*
X91642363Y-120699623D01*
X91604676Y-120711497D01*
X91583256Y-120717493D01*
X91578873Y-120717951D01*
X91576321Y-120705281D01*
X91570852Y-120673944D01*
X91562693Y-120625345D01*
X91552076Y-120560893D01*
X91539230Y-120481993D01*
X91524385Y-120390055D01*
X91507770Y-120286484D01*
X91489614Y-120172687D01*
X91482064Y-120125196D01*
X91458665Y-119978083D01*
X91436656Y-119840136D01*
X91416223Y-119712494D01*
X91397549Y-119596295D01*
X91380820Y-119492677D01*
X91366220Y-119402778D01*
X91353934Y-119327738D01*
X91344146Y-119268694D01*
X91337041Y-119226784D01*
X91332804Y-119203147D01*
X91331732Y-119198255D01*
X91337634Y-119192429D01*
X91358588Y-119182222D01*
X91395482Y-119167289D01*
X91449207Y-119147287D01*
X91520651Y-119121871D01*
X91452212Y-118928607D01*
X91087919Y-119057610D01*
X90999741Y-118808601D01*
X90930723Y-118613701D01*
X90911213Y-118620183D01*
X90871539Y-118632921D01*
X90847970Y-118639848D01*
X90841874Y-118640857D01*
X90837094Y-118628949D01*
X90826265Y-118599835D01*
X90810033Y-118555338D01*
X90789048Y-118497283D01*
X90763955Y-118427496D01*
X90735402Y-118347800D01*
X90704037Y-118260023D01*
X90670509Y-118165988D01*
X90635463Y-118067519D01*
X90599548Y-117966444D01*
X90563411Y-117864588D01*
X90527700Y-117763773D01*
X90493063Y-117665827D01*
X90460147Y-117572573D01*
X90429599Y-117485838D01*
X90402066Y-117407445D01*
X90378198Y-117339221D01*
X90358640Y-117282990D01*
X90344041Y-117240578D01*
X90335047Y-117213809D01*
X90332282Y-117204579D01*
X90336126Y-117200227D01*
X90348480Y-117193308D01*
X90370554Y-117183361D01*
X90403558Y-117169928D01*
X90448706Y-117152551D01*
X90507207Y-117130770D01*
X90580274Y-117104126D01*
X90669118Y-117072161D01*
X90774949Y-117034415D01*
X90877139Y-116998163D01*
X90812700Y-116816195D01*
X90409432Y-116959000D01*
X89805749Y-115254252D01*
X89738435Y-115064164D01*
X89713379Y-115077110D01*
X89660755Y-115106426D01*
X89624884Y-115131797D01*
X89603110Y-115155283D01*
X89596316Y-115167816D01*
X89593940Y-115175150D01*
X89593031Y-115184287D01*
X89594119Y-115197017D01*
X89597732Y-115215130D01*
X89604402Y-115240414D01*
X89614654Y-115274657D01*
X89629020Y-115319650D01*
X89648028Y-115377180D01*
X89672208Y-115449037D01*
X89702087Y-115537011D01*
X89727840Y-115612543D01*
X89870495Y-116030607D01*
X89671396Y-116099873D01*
X89606766Y-116122868D01*
X89671026Y-116304334D01*
X89949321Y-116205785D01*
X89991586Y-116333630D01*
X90033852Y-116461474D01*
X89898317Y-116512459D01*
X89762782Y-116563445D01*
X89671026Y-116304334D01*
X89606766Y-116122868D01*
X89597582Y-116126136D01*
X89537591Y-116148701D01*
X89492952Y-116166953D01*
X89465196Y-116180275D01*
X89456838Y-116186103D01*
X89445982Y-116200022D01*
X89439072Y-116215524D01*
X89436546Y-116234982D01*
X89438844Y-116260768D01*
X89446402Y-116295256D01*
X89459659Y-116340815D01*
X89479052Y-116399818D01*
X89505019Y-116474637D01*
X89515689Y-116504848D01*
X89544393Y-116585205D01*
X89544393Y-116585205D01*
G37*
X89544393Y-116585205D02*
X89567810Y-116648401D01*
X89587126Y-116696537D01*
X89603524Y-116731715D01*
X89618189Y-116756036D01*
X89632307Y-116771600D01*
X89647061Y-116780510D01*
X89663636Y-116784865D01*
X89674267Y-116786107D01*
X89696344Y-116783521D01*
X89735973Y-116773348D01*
X89793494Y-116755487D01*
X89869246Y-116729837D01*
X89904103Y-116717596D01*
X90104774Y-116646534D01*
X90170855Y-116833144D01*
X90236936Y-117019753D01*
X90179307Y-117033624D01*
X90145445Y-117042859D01*
X90124858Y-117052785D01*
X90110810Y-117067600D01*
X90102041Y-117081753D01*
X90082406Y-117116012D01*
X90150994Y-117319020D01*
X90219584Y-117522027D01*
X90105929Y-117562274D01*
X90057299Y-117579752D01*
X90024044Y-117592835D01*
X90002307Y-117603690D01*
X89988228Y-117614483D01*
X89977953Y-117627382D01*
X89971588Y-117637750D01*
X89959206Y-117664475D01*
X89958403Y-117689061D01*
X89966016Y-117715660D01*
X89981515Y-117748204D01*
X90002796Y-117768061D01*
X90012963Y-117773525D01*
X90027198Y-117779484D01*
X90041247Y-117781947D01*
X90059104Y-117780191D01*
X90084762Y-117773502D01*
X90122211Y-117761158D01*
X90164946Y-117746161D01*
X90285097Y-117703614D01*
X90486433Y-118272167D01*
X90528431Y-118390722D01*
X90564239Y-118491599D01*
X90594438Y-118576279D01*
X90619608Y-118646247D01*
X90640329Y-118702982D01*
X90657181Y-118747966D01*
X90670744Y-118782682D01*
X90681600Y-118808611D01*
X90690327Y-118827234D01*
X90697508Y-118840032D01*
X90703721Y-118848489D01*
X90709547Y-118854085D01*
X90715567Y-118858302D01*
X90716148Y-118858671D01*
X90747810Y-118870163D01*
X90779090Y-118871222D01*
X90813654Y-118865825D01*
X90885089Y-119057735D01*
X90911776Y-119128611D01*
X90933194Y-119182650D01*
X90950791Y-119222194D01*
X90966016Y-119249584D01*
X90980321Y-119267158D01*
X90995154Y-119277259D01*
X91011965Y-119282226D01*
X91025151Y-119283855D01*
X91050405Y-119281843D01*
X91083880Y-119274108D01*
X91098736Y-119269344D01*
X91126118Y-119260295D01*
X91143802Y-119255692D01*
X91147296Y-119255721D01*
X91149085Y-119266072D01*
X91153792Y-119294564D01*
X91161104Y-119339276D01*
X91170709Y-119398287D01*
X91182296Y-119469679D01*
X91195552Y-119551528D01*
X91210165Y-119641915D01*
X91225823Y-119738919D01*
X91228847Y-119757669D01*
X91229521Y-119761849D01*
X91639919Y-120920777D01*
X92741301Y-120530757D01*
X92767467Y-120604646D01*
X92710777Y-120631645D01*
X92690149Y-120640305D01*
X92652427Y-120654931D01*
X92599685Y-120674762D01*
X92534004Y-120699034D01*
X92457461Y-120726987D01*
X92372132Y-120757858D01*
X92280098Y-120790884D01*
X92183433Y-120825306D01*
X92162264Y-120832808D01*
X91670442Y-121006972D01*
X91639919Y-120920777D01*
X91229521Y-119761849D01*
X91256717Y-119930503D01*
X91281571Y-120084529D01*
X91303637Y-120221002D01*
X91323141Y-120341174D01*
X91340310Y-120446299D01*
X91355371Y-120537629D01*
X91368553Y-120616418D01*
X91380079Y-120683918D01*
X91390180Y-120741384D01*
X91399080Y-120790066D01*
X91407007Y-120831220D01*
X91414187Y-120866097D01*
X91420849Y-120895952D01*
X91427219Y-120922035D01*
X91433522Y-120945602D01*
X91439988Y-120967904D01*
X91446842Y-120990196D01*
X91454312Y-121013729D01*
X91458969Y-121028294D01*
X91481968Y-121097594D01*
X91501561Y-121149576D01*
X91519140Y-121186669D01*
X91536099Y-121211300D01*
X91553828Y-121225898D01*
X91573722Y-121232888D01*
X91576577Y-121233371D01*
X91589771Y-121231241D01*
X91618915Y-121223136D01*
X91664404Y-121208921D01*
X91726635Y-121188462D01*
X91806005Y-121161626D01*
X91902910Y-121128277D01*
X92017747Y-121088284D01*
X92150912Y-121041511D01*
X92280587Y-120995693D01*
X92961636Y-120754521D01*
X92976820Y-120722689D01*
X92985500Y-120684144D01*
X92980024Y-120654190D01*
X92964289Y-120605721D01*
X92950630Y-120563526D01*
X92938290Y-120526108D01*
X92926515Y-120491967D01*
X92914548Y-120459607D01*
X92901635Y-120427526D01*
X92887020Y-120394227D01*
X92869946Y-120358210D01*
X92849659Y-120317977D01*
X92825405Y-120272030D01*
X92796425Y-120218869D01*
X92761966Y-120156994D01*
X92721272Y-120084910D01*
X92673587Y-120001114D01*
X92618155Y-119904108D01*
X92554222Y-119792396D01*
X92481992Y-119666155D01*
X92418712Y-119555411D01*
X92358288Y-119449489D01*
X92301490Y-119349754D01*
X92249090Y-119257566D01*
X92201859Y-119174289D01*
X92160568Y-119101286D01*
X92125990Y-119039919D01*
X92098896Y-118991550D01*
X92080056Y-118957545D01*
X92070244Y-118939263D01*
X92069021Y-118936665D01*
X92067282Y-118925097D01*
X92074450Y-118916014D01*
X92094408Y-118906352D01*
X92118806Y-118897340D01*
X92151566Y-118884614D01*
X92170817Y-118872548D01*
X92182582Y-118856195D01*
X92189778Y-118839045D01*
X92204138Y-118800798D01*
X92065608Y-118409601D01*
X92094775Y-118399273D01*
X92124539Y-118378912D01*
X92143171Y-118346594D01*
X92147524Y-118309049D01*
X92144325Y-118293295D01*
X92138227Y-118274699D01*
X92126596Y-118240066D01*
X92110511Y-118192572D01*
X92091048Y-118135395D01*
X92069285Y-118071714D01*
X92056861Y-118035461D01*
X92034806Y-117971006D01*
X92014950Y-117912651D01*
X91998252Y-117863247D01*
X91985674Y-117825646D01*
X91978177Y-117802698D01*
X91976518Y-117797151D01*
X91979625Y-117793271D01*
X91990966Y-117786858D01*
X92011671Y-117777486D01*
X92042868Y-117764729D01*
X92085688Y-117748165D01*
X92141259Y-117727368D01*
X92210714Y-117701914D01*
X92295179Y-117671380D01*
X92395785Y-117635339D01*
X92513661Y-117593369D01*
X92608097Y-117559865D01*
X92740917Y-117512708D01*
X92855671Y-117471759D01*
X92953498Y-117436588D01*
X93035539Y-117406770D01*
X93102934Y-117381876D01*
X93156821Y-117361478D01*
X93198343Y-117345150D01*
X93228638Y-117332463D01*
X93248845Y-117322989D01*
X93260107Y-117316301D01*
X93262204Y-117314480D01*
X93276100Y-117289620D01*
X93281044Y-117261152D01*
X93277589Y-117245743D01*
X93268181Y-117214007D01*
X93253780Y-117168726D01*
X93235342Y-117112683D01*
X93213825Y-117048660D01*
X93190186Y-116979440D01*
X93165384Y-116907804D01*
X93140375Y-116836535D01*
X93116118Y-116768416D01*
X93093571Y-116706227D01*
X93073691Y-116652753D01*
X93057436Y-116610774D01*
X93055586Y-116606176D01*
X93040771Y-116587343D01*
X93016166Y-116569989D01*
X93012891Y-116568347D01*
X92978951Y-116552159D01*
X92847956Y-116600045D01*
X92913025Y-116783794D01*
X93055393Y-117202232D01*
X92900694Y-117259974D01*
X92745996Y-117317717D01*
X92707416Y-117208771D01*
X92689826Y-117162047D01*
X92672137Y-117120066D01*
X92656651Y-117088038D01*
X92647437Y-117073132D01*
X92616552Y-117049294D01*
X92578375Y-117040509D01*
X92539018Y-117046552D01*
X92504589Y-117067200D01*
X92494130Y-117078746D01*
X92482780Y-117101565D01*
X92479555Y-117131652D01*
X92484783Y-117171794D01*
X92498790Y-117224782D01*
X92518026Y-117282518D01*
X92554580Y-117385912D01*
X92413718Y-117429461D01*
X92363686Y-117303395D01*
X92343300Y-117252426D01*
X92328317Y-117217050D01*
X92316714Y-117193948D01*
X92306467Y-117179796D01*
X92295553Y-117171277D01*
X92281948Y-117165067D01*
X92278610Y-117163765D01*
X92235623Y-117156879D01*
X92196293Y-117168741D01*
X92165017Y-117197795D01*
X92159966Y-117205790D01*
X92152674Y-117219431D01*
X92148750Y-117232213D01*
X92148754Y-117247920D01*
X92153248Y-117270338D01*
X92162789Y-117303249D01*
X92177940Y-117350437D01*
X92184222Y-117369652D01*
X92227173Y-117500909D01*
X91907572Y-117614085D01*
X91757896Y-117192846D01*
X92913025Y-116783794D01*
X92847956Y-116600045D01*
X92340695Y-116785480D01*
X92232176Y-116825030D01*
X92129360Y-116862268D01*
X92033820Y-116896638D01*
X91947126Y-116927587D01*
X91870852Y-116954560D01*
X91806569Y-116977004D01*
X91755851Y-116994363D01*
X91720267Y-117006083D01*
X91701391Y-117011610D01*
X91698709Y-117011876D01*
X91694218Y-117000621D01*
X91683873Y-116973283D01*
X91668794Y-116932869D01*
X91650103Y-116882382D01*
X91628919Y-116824827D01*
X91625309Y-116814989D01*
X91555638Y-116625027D01*
X91515615Y-116608629D01*
X91487568Y-116599780D01*
X91461640Y-116599822D01*
X91428364Y-116608981D01*
X91423070Y-116610830D01*
X91370547Y-116629430D01*
X91290194Y-116402521D01*
X91429266Y-116346304D01*
X91460385Y-116334139D01*
X91508900Y-116315727D01*
X91573087Y-116291703D01*
X91651221Y-116262700D01*
X91741582Y-116229354D01*
X91842442Y-116192296D01*
X91952080Y-116152162D01*
X92068770Y-116109586D01*
X92190789Y-116065201D01*
X92316414Y-116019642D01*
X92380505Y-115996452D01*
X92504091Y-115951712D01*
X92622629Y-115908687D01*
X92734664Y-115867911D01*
X92838740Y-115829921D01*
X92933401Y-115795250D01*
X93017193Y-115764433D01*
X93088660Y-115738005D01*
X93146346Y-115716502D01*
X93188796Y-115700457D01*
X93214555Y-115690406D01*
X93221738Y-115687299D01*
X93247791Y-115664474D01*
X93261565Y-115639973D01*
X93264194Y-115630794D01*
X93265328Y-115620650D01*
X93264358Y-115607477D01*
X93260679Y-115589210D01*
X93253680Y-115563788D01*
X93242757Y-115529144D01*
X93227300Y-115483217D01*
X93206703Y-115423940D01*
X93180356Y-115349252D01*
X93154637Y-115276749D01*
X93120588Y-115181775D01*
X93090739Y-115100371D01*
X93065518Y-115033653D01*
X93045358Y-114982733D01*
X93030689Y-114948723D01*
X93021941Y-114932736D01*
X93021252Y-114932032D01*
X93013131Y-114925313D01*
X93004951Y-114919896D01*
X92995355Y-114916168D01*
X92982989Y-114914520D01*
X92966494Y-114915338D01*
X92944516Y-114919011D01*
X92915698Y-114925928D01*
X92878686Y-114936477D01*
X92832122Y-114951048D01*
X92774651Y-114970027D01*
X92704917Y-114993805D01*
X92621563Y-115022769D01*
X92523234Y-115057307D01*
X92408575Y-115097809D01*
X92276228Y-115144662D01*
X92264149Y-115148940D01*
X91588479Y-115388208D01*
X91482023Y-115087585D01*
X91451991Y-115003035D01*
X91427768Y-114935633D01*
X91408504Y-114883326D01*
X91393351Y-114844065D01*
X91381458Y-114815796D01*
X91371976Y-114796471D01*
X91364057Y-114784037D01*
X91356851Y-114776443D01*
X91351716Y-114772873D01*
X91333940Y-114768459D01*
X91296674Y-114764407D01*
X91240744Y-114760761D01*
X91166976Y-114757565D01*
X91076197Y-114754864D01*
X90978738Y-114752862D01*
X90883633Y-114751354D01*
X90806452Y-114750451D01*
X90744804Y-114750247D01*
X90715525Y-114750603D01*
X90787505Y-114953870D01*
X90793593Y-114952074D01*
X90795435Y-114952099D01*
X90812023Y-114952570D01*
X90844798Y-114953371D01*
X90889631Y-114954406D01*
X90942393Y-114955577D01*
X90966609Y-114956101D01*
X91044640Y-114957841D01*
X91104820Y-114959381D01*
X91149614Y-114960862D01*
X91181490Y-114962425D01*
X91202911Y-114964210D01*
X91216346Y-114966360D01*
X91224260Y-114969012D01*
X91227504Y-114970993D01*
X91233573Y-114982399D01*
X91245122Y-115010367D01*
X91261137Y-115052203D01*
X91280607Y-115105212D01*
X91302519Y-115166702D01*
X91320705Y-115218965D01*
X91403419Y-115459130D01*
X91007796Y-115605054D01*
X91070988Y-115783501D01*
X91808278Y-115529521D01*
X91930899Y-115487259D01*
X92051852Y-115445530D01*
X92169166Y-115405016D01*
X92280872Y-115366399D01*
X92384998Y-115330363D01*
X92479577Y-115297588D01*
X92562636Y-115268757D01*
X92632206Y-115244553D01*
X92686317Y-115225657D01*
X92720365Y-115213685D01*
X92895164Y-115151829D01*
X93041271Y-115564424D01*
X92961274Y-115589622D01*
X92881277Y-115614821D01*
X92831246Y-115488755D01*
X92810860Y-115437786D01*
X92795877Y-115402411D01*
X92784273Y-115379308D01*
X92774027Y-115365157D01*
X92763113Y-115356637D01*
X92749508Y-115350427D01*
X92746169Y-115349125D01*
X92705159Y-115341693D01*
X92667816Y-115353615D01*
X92644148Y-115372155D01*
X92628250Y-115391976D01*
X92620218Y-115415467D01*
X92620241Y-115445932D01*
X92628505Y-115486683D01*
X92645199Y-115541023D01*
X92655350Y-115570341D01*
X92696217Y-115685744D01*
X92552558Y-115736616D01*
X92509104Y-115614581D01*
X92489860Y-115561868D01*
X92475063Y-115525159D01*
X92463052Y-115501080D01*
X92452164Y-115486254D01*
X92441868Y-115477979D01*
X92400523Y-115462351D01*
X92359772Y-115463576D01*
X92324375Y-115480212D01*
X92299094Y-115510813D01*
X92294086Y-115522819D01*
X92290270Y-115538037D01*
X92290001Y-115554903D01*
X92294116Y-115577356D01*
X92303451Y-115609336D01*
X92318838Y-115654778D01*
X92326959Y-115677841D01*
X92370591Y-115801054D01*
X92309121Y-115822821D01*
X92274892Y-115835923D01*
X92247528Y-115848163D01*
X92234562Y-115855766D01*
X92228519Y-115858354D01*
X92222058Y-115853627D01*
X92213850Y-115838931D01*
X92202559Y-115811612D01*
X92186854Y-115769016D01*
X92176759Y-115740678D01*
X92132046Y-115614412D01*
X92094137Y-115596331D01*
X92051168Y-115585696D01*
X92010063Y-115595152D01*
X91978621Y-115617699D01*
X91965175Y-115635082D01*
X91958883Y-115656698D01*
X91960030Y-115685769D01*
X91968902Y-115725524D01*
X91985785Y-115779187D01*
X91995368Y-115806745D01*
X92036425Y-115922687D01*
X91629671Y-116060001D01*
X91543167Y-116089196D01*
X91462827Y-116116300D01*
X91390651Y-116140637D01*
X91328637Y-116161535D01*
X91278784Y-116178320D01*
X91243090Y-116190319D01*
X91223554Y-116196858D01*
X91220423Y-116197883D01*
X91216463Y-116188929D01*
X91206780Y-116163552D01*
X91192380Y-116124500D01*
X91174273Y-116074522D01*
X91153470Y-116016365D01*
X91144459Y-115990978D01*
X91070988Y-115783501D01*
X91007796Y-115605054D01*
X90943221Y-115422698D01*
X91058884Y-115381739D01*
X91107601Y-115364328D01*
X91140842Y-115351504D01*
X91162292Y-115341090D01*
X91175640Y-115330913D01*
X91184570Y-115318800D01*
X91192629Y-115302872D01*
X91203265Y-115259903D01*
X91193808Y-115218798D01*
X91171261Y-115187355D01*
X91153320Y-115173655D01*
X91130852Y-115167472D01*
X91100576Y-115169065D01*
X91059211Y-115178698D01*
X91003472Y-115196631D01*
X90988470Y-115201888D01*
X90878783Y-115240730D01*
X90827547Y-115096046D01*
X90808073Y-115040574D01*
X90794951Y-115001403D01*
X90787564Y-114975751D01*
X90785289Y-114960835D01*
X90787505Y-114953870D01*
X90715525Y-114750603D01*
X90696302Y-114750836D01*
X90658555Y-114752314D01*
X90629174Y-114754774D01*
X90605768Y-114758311D01*
X90585951Y-114763021D01*
X90567330Y-114768997D01*
X90504098Y-114791389D01*
X90434404Y-114594579D01*
X90408906Y-114523526D01*
X90388606Y-114469389D01*
X90372474Y-114429748D01*
X90359475Y-114402177D01*
X90348578Y-114384257D01*
X90340997Y-114375537D01*
X90308725Y-114358216D01*
X90266483Y-114354091D01*
X90221559Y-114363308D01*
X90194257Y-114372976D01*
X90090141Y-114078960D01*
X90111166Y-113975585D01*
X90136642Y-113800707D01*
X90142400Y-113626281D01*
X90128982Y-113453809D01*
X90096928Y-113284790D01*
X90046781Y-113120726D01*
X89979082Y-112963117D01*
X89894373Y-112813462D01*
X89793195Y-112673265D01*
X89676089Y-112544024D01*
X89555971Y-112437067D01*
X89489955Y-112384092D01*
X89426542Y-112205014D01*
X89399432Y-112130320D01*
X89376794Y-112072886D01*
X89357346Y-112030484D01*
X89339811Y-112000885D01*
X89322908Y-111981860D01*
X89305358Y-111971180D01*
X89290040Y-111967153D01*
X89271460Y-111969314D01*
X89236428Y-111978223D01*
X89187391Y-111993163D01*
X89126796Y-112013420D01*
X89100940Y-112022472D01*
X89064727Y-112035512D01*
X89132489Y-112226864D01*
X89209107Y-112199732D01*
X89242739Y-112294706D01*
X89259873Y-112346700D01*
X89268038Y-112380617D01*
X89267268Y-112396595D01*
X89266572Y-112397318D01*
X89249954Y-112404809D01*
X89228161Y-112410595D01*
X89199548Y-112416234D01*
X89132489Y-112226864D01*
X89064727Y-112035512D01*
X89034025Y-112046569D01*
X89019607Y-112052192D01*
X89222807Y-112626010D01*
X89390655Y-112566572D01*
X89436023Y-112601778D01*
X89486558Y-112644872D01*
X89542912Y-112699255D01*
X89599697Y-112759269D01*
X89651520Y-112819255D01*
X89687408Y-112865669D01*
X89768524Y-112993356D01*
X89836872Y-113131785D01*
X89890118Y-113275572D01*
X89924579Y-113412209D01*
X89945988Y-113575969D01*
X89947960Y-113740757D01*
X89930513Y-113903500D01*
X89921196Y-113952902D01*
X89906769Y-114022096D01*
X89860253Y-114038513D01*
X89926225Y-114224812D01*
X90002713Y-114440806D01*
X89926095Y-114467938D01*
X89852194Y-114259250D01*
X89889210Y-114242031D01*
X89926225Y-114224812D01*
X89860253Y-114038513D01*
X89750073Y-114077396D01*
X89695272Y-114034922D01*
X89576696Y-113930310D01*
X89554319Y-113905062D01*
X89840688Y-114713746D01*
X90217111Y-114580448D01*
X90247004Y-114684710D01*
X90260890Y-114732318D01*
X90274210Y-114776570D01*
X90285098Y-114811332D01*
X90289938Y-114825790D01*
X90302976Y-114862610D01*
X89939041Y-114991486D01*
X89840688Y-114713746D01*
X89554319Y-113905062D01*
X89469333Y-113809175D01*
X89374024Y-113672472D01*
X89372252Y-113669596D01*
X89335394Y-113602207D01*
X89298528Y-113521638D01*
X89263857Y-113433896D01*
X89233584Y-113344987D01*
X89209910Y-113260915D01*
X89195041Y-113187686D01*
X89194742Y-113185638D01*
X89184603Y-113086289D01*
X89181084Y-112980352D01*
X89183982Y-112874054D01*
X89193090Y-112773631D01*
X89208206Y-112685311D01*
X89211634Y-112670835D01*
X89222807Y-112626010D01*
X89019607Y-112052192D01*
X88984055Y-112066061D01*
X88948662Y-112082673D01*
X88925481Y-112098132D01*
X88912147Y-112114159D01*
X88906293Y-112132482D01*
X88905554Y-112154825D01*
X88906109Y-112164535D01*
X88910360Y-112186846D01*
X88920444Y-112224226D01*
X88935156Y-112272684D01*
X88953297Y-112328227D01*
X88969540Y-112375277D01*
X89030249Y-112546882D01*
X89011446Y-112632157D01*
X88985143Y-112796820D01*
X88977118Y-112967342D01*
X88987392Y-113140666D01*
X89007536Y-113272840D01*
X89024364Y-113342589D01*
X89049329Y-113423731D01*
X89080162Y-113510208D01*
X89114590Y-113595959D01*
X89150340Y-113674928D01*
X89179038Y-113730346D01*
X89250189Y-113844507D01*
X89333281Y-113955576D01*
X89424214Y-114058727D01*
X89518894Y-114149134D01*
X89569780Y-114190683D01*
X89628191Y-114235419D01*
X89734550Y-114535767D01*
X89707247Y-114545436D01*
X89679394Y-114559014D01*
X89652604Y-114577022D01*
X89637571Y-114591333D01*
X89627846Y-114607752D01*
X89623749Y-114628791D01*
X89625595Y-114656968D01*
X89633706Y-114694792D01*
X89648399Y-114744779D01*
X89669993Y-114809440D01*
X89688927Y-114863485D01*
X89756658Y-115054750D01*
X89738435Y-115064164D01*
X89805749Y-115254252D01*
X90571928Y-114982934D01*
X91175611Y-116687682D01*
X90812700Y-116816195D01*
X90877139Y-116998163D01*
X91422016Y-116805211D01*
X91937521Y-118260951D01*
X91391619Y-118454266D01*
X91291256Y-118489668D01*
X91196730Y-118522745D01*
X91109751Y-118552915D01*
X91032030Y-118579600D01*
X90965280Y-118602216D01*
X90930723Y-118613701D01*
X90999741Y-118808601D01*
X91892929Y-118492307D01*
X91899712Y-118530323D01*
X91906218Y-118557299D01*
X91917710Y-118596382D01*
X91932101Y-118640632D01*
X91937758Y-118656967D01*
X91969025Y-118745594D01*
X91452212Y-118928607D01*
X91520651Y-119121871D01*
X91599361Y-119094589D01*
X91870689Y-119001370D01*
X91920061Y-119086279D01*
X91934282Y-119110841D01*
X91957531Y-119151122D01*
X91988712Y-119205222D01*
X92026734Y-119271240D01*
X92070500Y-119347276D01*
X92118917Y-119431428D01*
X92170890Y-119521796D01*
X92225327Y-119616480D01*
X92265365Y-119686142D01*
X92320319Y-119781724D01*
X92373153Y-119873536D01*
X92422839Y-119959794D01*
X92468345Y-120038717D01*
X92508644Y-120108520D01*
X92542708Y-120167423D01*
X92569507Y-120213643D01*
X92588011Y-120245395D01*
X92595965Y-120258876D01*
X92614964Y-120291212D01*
X92630176Y-120318318D01*
X92637687Y-120333022D01*
X92638321Y-120336859D01*
X92635970Y-120341127D01*
X92629177Y-120346393D01*
X92616489Y-120353224D01*
X92596448Y-120362188D01*
X92567602Y-120373852D01*
X92528494Y-120388785D01*
X92477670Y-120407553D01*
X92413673Y-120430725D01*
X92335050Y-120458868D01*
X92240345Y-120492549D01*
X92128104Y-120532336D01*
X92113203Y-120537613D01*
X92014248Y-120572500D01*
X91921178Y-120605012D01*
X91835725Y-120634562D01*
X91759617Y-120660572D01*
X91694588Y-120682453D01*
X91642363Y-120699623D01*
X91604676Y-120711497D01*
X91583256Y-120717493D01*
X91578873Y-120717951D01*
X91576321Y-120705281D01*
X91570852Y-120673944D01*
X91562693Y-120625345D01*
X91552076Y-120560893D01*
X91539230Y-120481993D01*
X91524385Y-120390055D01*
X91507770Y-120286484D01*
X91489614Y-120172687D01*
X91482064Y-120125196D01*
X91458665Y-119978083D01*
X91436656Y-119840136D01*
X91416223Y-119712494D01*
X91397549Y-119596295D01*
X91380820Y-119492677D01*
X91366220Y-119402778D01*
X91353934Y-119327738D01*
X91344146Y-119268694D01*
X91337041Y-119226784D01*
X91332804Y-119203147D01*
X91331732Y-119198255D01*
X91337634Y-119192429D01*
X91358588Y-119182222D01*
X91395482Y-119167289D01*
X91449207Y-119147287D01*
X91520651Y-119121871D01*
X91452212Y-118928607D01*
X91087919Y-119057610D01*
X90999741Y-118808601D01*
X90930723Y-118613701D01*
X90911213Y-118620183D01*
X90871539Y-118632921D01*
X90847970Y-118639848D01*
X90841874Y-118640857D01*
X90837094Y-118628949D01*
X90826265Y-118599835D01*
X90810033Y-118555338D01*
X90789048Y-118497283D01*
X90763955Y-118427496D01*
X90735402Y-118347800D01*
X90704037Y-118260023D01*
X90670509Y-118165988D01*
X90635463Y-118067519D01*
X90599548Y-117966444D01*
X90563411Y-117864588D01*
X90527700Y-117763773D01*
X90493063Y-117665827D01*
X90460147Y-117572573D01*
X90429599Y-117485838D01*
X90402066Y-117407445D01*
X90378198Y-117339221D01*
X90358640Y-117282990D01*
X90344041Y-117240578D01*
X90335047Y-117213809D01*
X90332282Y-117204579D01*
X90336126Y-117200227D01*
X90348480Y-117193308D01*
X90370554Y-117183361D01*
X90403558Y-117169928D01*
X90448706Y-117152551D01*
X90507207Y-117130770D01*
X90580274Y-117104126D01*
X90669118Y-117072161D01*
X90774949Y-117034415D01*
X90877139Y-116998163D01*
X90812700Y-116816195D01*
X90409432Y-116959000D01*
X89805749Y-115254252D01*
X89738435Y-115064164D01*
X89713379Y-115077110D01*
X89660755Y-115106426D01*
X89624884Y-115131797D01*
X89603110Y-115155283D01*
X89596316Y-115167816D01*
X89593940Y-115175150D01*
X89593031Y-115184287D01*
X89594119Y-115197017D01*
X89597732Y-115215130D01*
X89604402Y-115240414D01*
X89614654Y-115274657D01*
X89629020Y-115319650D01*
X89648028Y-115377180D01*
X89672208Y-115449037D01*
X89702087Y-115537011D01*
X89727840Y-115612543D01*
X89870495Y-116030607D01*
X89671396Y-116099873D01*
X89606766Y-116122868D01*
X89671026Y-116304334D01*
X89949321Y-116205785D01*
X89991586Y-116333630D01*
X90033852Y-116461474D01*
X89898317Y-116512459D01*
X89762782Y-116563445D01*
X89671026Y-116304334D01*
X89606766Y-116122868D01*
X89597582Y-116126136D01*
X89537591Y-116148701D01*
X89492952Y-116166953D01*
X89465196Y-116180275D01*
X89456838Y-116186103D01*
X89445982Y-116200022D01*
X89439072Y-116215524D01*
X89436546Y-116234982D01*
X89438844Y-116260768D01*
X89446402Y-116295256D01*
X89459659Y-116340815D01*
X89479052Y-116399818D01*
X89505019Y-116474637D01*
X89515689Y-116504848D01*
X89544393Y-116585205D01*
G36*
X28688591Y-117291621D02*
G01*
X28672387Y-117298190D01*
X28667190Y-117301126D01*
X28664320Y-117303639D01*
X28657605Y-117310012D01*
X28647178Y-117320112D01*
X28633172Y-117333807D01*
X28615720Y-117350964D01*
X28594954Y-117371449D01*
X28571006Y-117395131D01*
X28544011Y-117421875D01*
X28514100Y-117451550D01*
X28481406Y-117484021D01*
X28446063Y-117519158D01*
X28408202Y-117556825D01*
X28367957Y-117596891D01*
X28325460Y-117639224D01*
X28280845Y-117683689D01*
X28234243Y-117730153D01*
X28185788Y-117778486D01*
X28135613Y-117828552D01*
X28083849Y-117880220D01*
X28030631Y-117933356D01*
X27976090Y-117987828D01*
X27920359Y-118043502D01*
X27863572Y-118100247D01*
X27805861Y-118157928D01*
X27747359Y-118216414D01*
X27688198Y-118275571D01*
X27628511Y-118335266D01*
X27568431Y-118395367D01*
X27508091Y-118455740D01*
X27447624Y-118516253D01*
X27387162Y-118576773D01*
X27326838Y-118637167D01*
X27266785Y-118697302D01*
X27207136Y-118757046D01*
X27148023Y-118816264D01*
X27089579Y-118874825D01*
X27031937Y-118932596D01*
X26975229Y-118989443D01*
X26919589Y-119045235D01*
X26865149Y-119099837D01*
X26812042Y-119153117D01*
X26760401Y-119204943D01*
X26710358Y-119255181D01*
X26662047Y-119303698D01*
X26615599Y-119350362D01*
X26571148Y-119395040D01*
X26528827Y-119437599D01*
X26488768Y-119477905D01*
X26451104Y-119515827D01*
X26415967Y-119551230D01*
X26383492Y-119583984D01*
X26353809Y-119613953D01*
X26327053Y-119641006D01*
X26303356Y-119665010D01*
X26282850Y-119685832D01*
X26265668Y-119703338D01*
X26251944Y-119717397D01*
X26241809Y-119727875D01*
X26235397Y-119734639D01*
X26232841Y-119737557D01*
X26232814Y-119737604D01*
X26227720Y-119753863D01*
X26227382Y-119771346D01*
X26231786Y-119788260D01*
X26233261Y-119791471D01*
X26234810Y-119793488D01*
X26238545Y-119797668D01*
X26244530Y-119804072D01*
X26252828Y-119812766D01*
X26263502Y-119823812D01*
X26276615Y-119837274D01*
X26292232Y-119853216D01*
X26310416Y-119871702D01*
X26331229Y-119892795D01*
X26354737Y-119916559D01*
X26381001Y-119943057D01*
X26410085Y-119972354D01*
X26442053Y-120004513D01*
X26476969Y-120039597D01*
X26514895Y-120077670D01*
X26555896Y-120118797D01*
X26600034Y-120163040D01*
X26647373Y-120210463D01*
X26697976Y-120261131D01*
X26751907Y-120315105D01*
X26809230Y-120372452D01*
X26870008Y-120433233D01*
X26934303Y-120497512D01*
X27002181Y-120565354D01*
X27073703Y-120636822D01*
X27148934Y-120711980D01*
X27227937Y-120790890D01*
X27310775Y-120873618D01*
X27397512Y-120960226D01*
X27451173Y-121013802D01*
X27520639Y-121083147D01*
X27589141Y-121151516D01*
X27656569Y-121218801D01*
X27722814Y-121284891D01*
X27787766Y-121349677D01*
X27851316Y-121413050D01*
X27913353Y-121474902D01*
X27973768Y-121535123D01*
X28032450Y-121593603D01*
X28089291Y-121650233D01*
X28144180Y-121704905D01*
X28197008Y-121757509D01*
X28247664Y-121807935D01*
X28296040Y-121856075D01*
X28342024Y-121901820D01*
X28385509Y-121945059D01*
X28426383Y-121985685D01*
X28464536Y-122023587D01*
X28499860Y-122058657D01*
X28532245Y-122090785D01*
X28561580Y-122119862D01*
X28587756Y-122145779D01*
X28610663Y-122168427D01*
X28630191Y-122187696D01*
X28646230Y-122203478D01*
X28658672Y-122215662D01*
X28667405Y-122224140D01*
X28672320Y-122228803D01*
X28673388Y-122229722D01*
X28687680Y-122235632D01*
X28703103Y-122237739D01*
X28717455Y-122235781D01*
X28719258Y-122235166D01*
X28728630Y-122230863D01*
X28737295Y-122225665D01*
X28737602Y-122225443D01*
X28740049Y-122223123D01*
X28746376Y-122216920D01*
X28756474Y-122206942D01*
X28770234Y-122193300D01*
X28787546Y-122176103D01*
X28808300Y-122155460D01*
X28832387Y-122131480D01*
X28859697Y-122104273D01*
X28890122Y-122073948D01*
X28923551Y-122040614D01*
X28959874Y-122004381D01*
X28998984Y-121965359D01*
X29040769Y-121923655D01*
X29085121Y-121879380D01*
X29131930Y-121832643D01*
X29181086Y-121783553D01*
X29232481Y-121732220D01*
X29286004Y-121678753D01*
X29341546Y-121623261D01*
X29398997Y-121565854D01*
X29458249Y-121506640D01*
X29519191Y-121445730D01*
X29581714Y-121383232D01*
X29645709Y-121319256D01*
X29700477Y-121264498D01*
X29160521Y-121264498D01*
X29156184Y-121281884D01*
X29152597Y-121289413D01*
X29149913Y-121293226D01*
X29144658Y-121299483D01*
X29136698Y-121308324D01*
X29125896Y-121319891D01*
X29112115Y-121334322D01*
X29095220Y-121351759D01*
X29075073Y-121372340D01*
X29051540Y-121396206D01*
X29024483Y-121423497D01*
X28993766Y-121454353D01*
X28959253Y-121488914D01*
X28931143Y-121517005D01*
X28902096Y-121545963D01*
X28874032Y-121573855D01*
X28847223Y-121600413D01*
X28821944Y-121625371D01*
X28798468Y-121648460D01*
X28777068Y-121669415D01*
X28758019Y-121687967D01*
X28741594Y-121703849D01*
X28728066Y-121716794D01*
X28717710Y-121726534D01*
X28710798Y-121732802D01*
X28707644Y-121735313D01*
X28691137Y-121741837D01*
X28675764Y-121743570D01*
X28659960Y-121740529D01*
X28648378Y-121735839D01*
X28644910Y-121733610D01*
X28639347Y-121729147D01*
X28631508Y-121722279D01*
X28621216Y-121712832D01*
X28608291Y-121700634D01*
X28592554Y-121685514D01*
X28573826Y-121667298D01*
X28551928Y-121645814D01*
X28526682Y-121620889D01*
X28497907Y-121592352D01*
X28465426Y-121560029D01*
X28451582Y-121546227D01*
X28419932Y-121514644D01*
X28392045Y-121486774D01*
X28367673Y-121462362D01*
X28346572Y-121441147D01*
X28328492Y-121422873D01*
X28313188Y-121407281D01*
X28300413Y-121394114D01*
X28289919Y-121383114D01*
X28281460Y-121374022D01*
X28274788Y-121366580D01*
X28269658Y-121360531D01*
X28265821Y-121355617D01*
X28263032Y-121351579D01*
X28261043Y-121348160D01*
X28260044Y-121346108D01*
X28254498Y-121328536D01*
X28254295Y-121311513D01*
X28259441Y-121293928D01*
X28260268Y-121292055D01*
X28263100Y-121288224D01*
X28269644Y-121280763D01*
X28279581Y-121269993D01*
X28292591Y-121256233D01*
X28308354Y-121239804D01*
X28326550Y-121221025D01*
X28346860Y-121200216D01*
X28368964Y-121177697D01*
X28392541Y-121153788D01*
X28417271Y-121128809D01*
X28442836Y-121103079D01*
X28468914Y-121076919D01*
X28495186Y-121050649D01*
X28521333Y-121024588D01*
X28547033Y-120999057D01*
X28571968Y-120974374D01*
X28595817Y-120950861D01*
X28618261Y-120928837D01*
X28638980Y-120908622D01*
X28657653Y-120890535D01*
X28673961Y-120874897D01*
X28687584Y-120862028D01*
X28698202Y-120852247D01*
X28705495Y-120845875D01*
X28709055Y-120843268D01*
X28726826Y-120837573D01*
X28743970Y-120837248D01*
X28761576Y-120842289D01*
X28763108Y-120842956D01*
X28766235Y-120844513D01*
X28769765Y-120846668D01*
X28773956Y-120849668D01*
X28779067Y-120853761D01*
X28785357Y-120859195D01*
X28793082Y-120866219D01*
X28802503Y-120875081D01*
X28813877Y-120886030D01*
X28827463Y-120899313D01*
X28843520Y-120915178D01*
X28862305Y-120933874D01*
X28884077Y-120955650D01*
X28909095Y-120980753D01*
X28937617Y-121009431D01*
X28962514Y-121034494D01*
X28989352Y-121061573D01*
X29015166Y-121087727D01*
X29039663Y-121112649D01*
X29062548Y-121136035D01*
X29083527Y-121157582D01*
X29102304Y-121176985D01*
X29118586Y-121193939D01*
X29132079Y-121208141D01*
X29142487Y-121219286D01*
X29149516Y-121227069D01*
X29152872Y-121231186D01*
X29152967Y-121231338D01*
X29159450Y-121247439D01*
X29160521Y-121264498D01*
X29700477Y-121264498D01*
X29711066Y-121253912D01*
X29777675Y-121187307D01*
X29845428Y-121119553D01*
X29914214Y-121050758D01*
X29954244Y-121010719D01*
X30040546Y-120924392D01*
X30122931Y-120841973D01*
X30201481Y-120763382D01*
X30276274Y-120688538D01*
X30347391Y-120617363D01*
X30414910Y-120549775D01*
X30478911Y-120485694D01*
X30539473Y-120425042D01*
X30596676Y-120367738D01*
X30650600Y-120313701D01*
X30701324Y-120262853D01*
X30748927Y-120215113D01*
X30793489Y-120170401D01*
X30829470Y-120134278D01*
X30278757Y-120134278D01*
X30278346Y-120152450D01*
X30273765Y-120167400D01*
X30272141Y-120169978D01*
X30268804Y-120174188D01*
X30263605Y-120180185D01*
X30256395Y-120188121D01*
X30247024Y-120198148D01*
X30235342Y-120210421D01*
X30221199Y-120225093D01*
X30204446Y-120242316D01*
X30184933Y-120262244D01*
X30162510Y-120285030D01*
X30137028Y-120310827D01*
X30108338Y-120339789D01*
X30076288Y-120372068D01*
X30040731Y-120407818D01*
X30001515Y-120447192D01*
X29958492Y-120490342D01*
X29944213Y-120504655D01*
X29907957Y-120541000D01*
X29872406Y-120576648D01*
X29837801Y-120611359D01*
X29804383Y-120644889D01*
X29772394Y-120676998D01*
X29742073Y-120707442D01*
X29713662Y-120735980D01*
X29687402Y-120762370D01*
X29663534Y-120786369D01*
X29642297Y-120807736D01*
X29623935Y-120826228D01*
X29608686Y-120841604D01*
X29596793Y-120853622D01*
X29588496Y-120862039D01*
X29585236Y-120865371D01*
X29572589Y-120878139D01*
X29560025Y-120890398D01*
X29548570Y-120901177D01*
X29539251Y-120909504D01*
X29534555Y-120913349D01*
X29526620Y-120919667D01*
X29520678Y-120924917D01*
X29518003Y-120927972D01*
X29517997Y-120927989D01*
X29515732Y-120930775D01*
X29509870Y-120937090D01*
X29500841Y-120946503D01*
X29489074Y-120958588D01*
X29474998Y-120972915D01*
X29459043Y-120989057D01*
X29441637Y-121006584D01*
X29423211Y-121025069D01*
X29404193Y-121044083D01*
X29385014Y-121063198D01*
X29366102Y-121081986D01*
X29347886Y-121100018D01*
X29330796Y-121116866D01*
X29315262Y-121132101D01*
X29301713Y-121145296D01*
X29290578Y-121156021D01*
X29282286Y-121163849D01*
X29277267Y-121168352D01*
X29276322Y-121169091D01*
X29258956Y-121178753D01*
X29242295Y-121182965D01*
X29225813Y-121181785D01*
X29211100Y-121176364D01*
X29207981Y-121173815D01*
X29201028Y-121167419D01*
X29190391Y-121157323D01*
X29176220Y-121143679D01*
X29158666Y-121126635D01*
X29137878Y-121106343D01*
X29114006Y-121082950D01*
X29087201Y-121056608D01*
X29057613Y-121027466D01*
X29025391Y-120995675D01*
X28990686Y-120961382D01*
X28953647Y-120924740D01*
X28914426Y-120885896D01*
X28873172Y-120845002D01*
X28830035Y-120802207D01*
X28785165Y-120757661D01*
X28738712Y-120711513D01*
X28690827Y-120663914D01*
X28641659Y-120615012D01*
X28591359Y-120564959D01*
X28540076Y-120513904D01*
X28487961Y-120461996D01*
X28435164Y-120409386D01*
X28381835Y-120356222D01*
X28328123Y-120302656D01*
X28274180Y-120248837D01*
X28220155Y-120194915D01*
X28166198Y-120141039D01*
X28112460Y-120087359D01*
X28059090Y-120034025D01*
X28006238Y-119981187D01*
X27954055Y-119928995D01*
X27902691Y-119877598D01*
X27852295Y-119827147D01*
X27803018Y-119777791D01*
X27755010Y-119729680D01*
X27708422Y-119682963D01*
X27663402Y-119637791D01*
X27620101Y-119594313D01*
X27578670Y-119552680D01*
X27539258Y-119513040D01*
X27502016Y-119475545D01*
X27467093Y-119440343D01*
X27434640Y-119407584D01*
X27404806Y-119377418D01*
X27377742Y-119349996D01*
X27353598Y-119325466D01*
X27332524Y-119303979D01*
X27314670Y-119285684D01*
X27300187Y-119270732D01*
X27289223Y-119259271D01*
X27281930Y-119251453D01*
X27278457Y-119247426D01*
X27278231Y-119247084D01*
X27271347Y-119229211D01*
X27269675Y-119210782D01*
X27273242Y-119192838D01*
X27276530Y-119185266D01*
X27279287Y-119181798D01*
X27285850Y-119174574D01*
X27296007Y-119163805D01*
X27309549Y-119149700D01*
X27326266Y-119132468D01*
X27345946Y-119112320D01*
X27368381Y-119089465D01*
X27393359Y-119064112D01*
X27420671Y-119036472D01*
X27450106Y-119006753D01*
X27481454Y-118975166D01*
X27514504Y-118941920D01*
X27549047Y-118907224D01*
X27584872Y-118871289D01*
X27621770Y-118834324D01*
X27659529Y-118796538D01*
X27697939Y-118758142D01*
X27736791Y-118719345D01*
X27775874Y-118680356D01*
X27814978Y-118641385D01*
X27853892Y-118602642D01*
X27892406Y-118564336D01*
X27930311Y-118526677D01*
X27967395Y-118489875D01*
X28003449Y-118454140D01*
X28038262Y-118419680D01*
X28071624Y-118386705D01*
X28103326Y-118355426D01*
X28133155Y-118326052D01*
X28160904Y-118298792D01*
X28186360Y-118273856D01*
X28209314Y-118251454D01*
X28229556Y-118231795D01*
X28246875Y-118215089D01*
X28261061Y-118201546D01*
X28271905Y-118191375D01*
X28279195Y-118184786D01*
X28282721Y-118181988D01*
X28282748Y-118181974D01*
X28300502Y-118175793D01*
X28318158Y-118175255D01*
X28335684Y-118180360D01*
X28340328Y-118182672D01*
X28343657Y-118185383D01*
X28350784Y-118191916D01*
X28361532Y-118202093D01*
X28375727Y-118215740D01*
X28393192Y-118232681D01*
X28413753Y-118252742D01*
X28437234Y-118275746D01*
X28463460Y-118301519D01*
X28492254Y-118329886D01*
X28523441Y-118360670D01*
X28556846Y-118393697D01*
X28592294Y-118428792D01*
X28629608Y-118465778D01*
X28668613Y-118504481D01*
X28709135Y-118544726D01*
X28750996Y-118586337D01*
X28794022Y-118629139D01*
X28838038Y-118672957D01*
X28882867Y-118717615D01*
X28928335Y-118762938D01*
X28974265Y-118808750D01*
X29020482Y-118854878D01*
X29066811Y-118901144D01*
X29113076Y-118947374D01*
X29159102Y-118993392D01*
X29204713Y-119039024D01*
X29249733Y-119084093D01*
X29293988Y-119128426D01*
X29337301Y-119171845D01*
X29379497Y-119214177D01*
X29420401Y-119255245D01*
X29459837Y-119294875D01*
X29497630Y-119332891D01*
X29533603Y-119369117D01*
X29567582Y-119403380D01*
X29599391Y-119435502D01*
X29628855Y-119465309D01*
X29655797Y-119492626D01*
X29680043Y-119517278D01*
X29701417Y-119539088D01*
X29719743Y-119557882D01*
X29734846Y-119573485D01*
X29746551Y-119585720D01*
X29754682Y-119594414D01*
X29759063Y-119599390D01*
X29759776Y-119600393D01*
X29765135Y-119617707D01*
X29765082Y-119635737D01*
X29759852Y-119653080D01*
X29756408Y-119658178D01*
X29749314Y-119666737D01*
X29739006Y-119678323D01*
X29725919Y-119692501D01*
X29710487Y-119708836D01*
X29693144Y-119726892D01*
X29674325Y-119746235D01*
X29654465Y-119766430D01*
X29633998Y-119787041D01*
X29613359Y-119807635D01*
X29592982Y-119827774D01*
X29573302Y-119847025D01*
X29554754Y-119864953D01*
X29537772Y-119881122D01*
X29522791Y-119895098D01*
X29510245Y-119906445D01*
X29500569Y-119914729D01*
X29494197Y-119919514D01*
X29493021Y-119920189D01*
X29474921Y-119926327D01*
X29456756Y-119926861D01*
X29438816Y-119921783D01*
X29438600Y-119921686D01*
X29436418Y-119920280D01*
X29432704Y-119917286D01*
X29427333Y-119912583D01*
X29420179Y-119906045D01*
X29411117Y-119897550D01*
X29400021Y-119886974D01*
X29386766Y-119874192D01*
X29371227Y-119859082D01*
X29353278Y-119841521D01*
X29332794Y-119821383D01*
X29309650Y-119798546D01*
X29283720Y-119772886D01*
X29254878Y-119744279D01*
X29223000Y-119712603D01*
X29187960Y-119677732D01*
X29149632Y-119639544D01*
X29107892Y-119597914D01*
X29062613Y-119552720D01*
X29013671Y-119503838D01*
X28960940Y-119451144D01*
X28931301Y-119421516D01*
X28436702Y-118927046D01*
X28229981Y-119133767D01*
X28023261Y-119340488D01*
X28567944Y-119885177D01*
X28614315Y-119931539D01*
X28659655Y-119976851D01*
X28703801Y-120020953D01*
X28746592Y-120063681D01*
X28787863Y-120104875D01*
X28827454Y-120144372D01*
X28865200Y-120182010D01*
X28900940Y-120217628D01*
X28934510Y-120251064D01*
X28965749Y-120282156D01*
X28994493Y-120310742D01*
X29020580Y-120336660D01*
X29043848Y-120359748D01*
X29064133Y-120379845D01*
X29081273Y-120396789D01*
X29095106Y-120410418D01*
X29105468Y-120420569D01*
X29112198Y-120427082D01*
X29115132Y-120429794D01*
X29115247Y-120429866D01*
X29117485Y-120427899D01*
X29123500Y-120422134D01*
X29133089Y-120412772D01*
X29146047Y-120400018D01*
X29162170Y-120384074D01*
X29181256Y-120365143D01*
X29203100Y-120343428D01*
X29227499Y-120319132D01*
X29254248Y-120292458D01*
X29283145Y-120263609D01*
X29313984Y-120232788D01*
X29346563Y-120200197D01*
X29380678Y-120166040D01*
X29416125Y-120130520D01*
X29452700Y-120093840D01*
X29465205Y-120081292D01*
X29509707Y-120036627D01*
X29550403Y-119995783D01*
X29587475Y-119958590D01*
X29621109Y-119924876D01*
X29651488Y-119894472D01*
X29678796Y-119867206D01*
X29703218Y-119842908D01*
X29724937Y-119821408D01*
X29744138Y-119802535D01*
X29761003Y-119786118D01*
X29775719Y-119771987D01*
X29788468Y-119759971D01*
X29799434Y-119749900D01*
X29808802Y-119741604D01*
X29816756Y-119734910D01*
X29823479Y-119729650D01*
X29829156Y-119725652D01*
X29833971Y-119722746D01*
X29838108Y-119720762D01*
X29841751Y-119719528D01*
X29845083Y-119718874D01*
X29848290Y-119718629D01*
X29851554Y-119718624D01*
X29855060Y-119718687D01*
X29856440Y-119718694D01*
X29860875Y-119718740D01*
X29865068Y-119719051D01*
X29869282Y-119719859D01*
X29873778Y-119721394D01*
X29878817Y-119723887D01*
X29884661Y-119727568D01*
X29891572Y-119732668D01*
X29899811Y-119739418D01*
X29909638Y-119748049D01*
X29921317Y-119758790D01*
X29935108Y-119771873D01*
X29951272Y-119787529D01*
X29970072Y-119805988D01*
X29991769Y-119827481D01*
X30016623Y-119852239D01*
X30044897Y-119880492D01*
X30076853Y-119912471D01*
X30082642Y-119918266D01*
X30116003Y-119951699D01*
X30145539Y-119981375D01*
X30171445Y-120007499D01*
X30193918Y-120030275D01*
X30213155Y-120049906D01*
X30229352Y-120066597D01*
X30242705Y-120080551D01*
X30253411Y-120091973D01*
X30261667Y-120101065D01*
X30267669Y-120108032D01*
X30271613Y-120113078D01*
X30273696Y-120116406D01*
X30273786Y-120116600D01*
X30278757Y-120134278D01*
X30829470Y-120134278D01*
X30835089Y-120128637D01*
X30873807Y-120089741D01*
X30909722Y-120053633D01*
X30942914Y-120020234D01*
X30973462Y-119989463D01*
X31001446Y-119961241D01*
X31026945Y-119935487D01*
X31050039Y-119912121D01*
X31070807Y-119891064D01*
X31089329Y-119872235D01*
X31105683Y-119855556D01*
X31119951Y-119840944D01*
X31132210Y-119828322D01*
X31142541Y-119817608D01*
X31151023Y-119808723D01*
X31157735Y-119801587D01*
X31162757Y-119796120D01*
X31166169Y-119792241D01*
X31168050Y-119789872D01*
X31168444Y-119789222D01*
X31173502Y-119771470D01*
X31173448Y-119769719D01*
X30657061Y-119769719D01*
X30652728Y-119786823D01*
X30650917Y-119791064D01*
X30648860Y-119795066D01*
X30646016Y-119799561D01*
X30642066Y-119804893D01*
X30636689Y-119811406D01*
X30629565Y-119819445D01*
X30620375Y-119829354D01*
X30608797Y-119841479D01*
X30594513Y-119856163D01*
X30577202Y-119873751D01*
X30556544Y-119894587D01*
X30532219Y-119919017D01*
X30529935Y-119921308D01*
X30503173Y-119948103D01*
X30480039Y-119971164D01*
X30460208Y-119990788D01*
X30443354Y-120007272D01*
X30429155Y-120020913D01*
X30417286Y-120032008D01*
X30407421Y-120040854D01*
X30399238Y-120047748D01*
X30392410Y-120052987D01*
X30386616Y-120056867D01*
X30381528Y-120059686D01*
X30376825Y-120061740D01*
X30376308Y-120061935D01*
X30361887Y-120064764D01*
X30345794Y-120063874D01*
X30330368Y-120059518D01*
X30323939Y-120056300D01*
X30320238Y-120053296D01*
X30312861Y-120046581D01*
X30302111Y-120036446D01*
X30288287Y-120023188D01*
X30271691Y-120007099D01*
X30252623Y-119988474D01*
X30231385Y-119967607D01*
X30208277Y-119944791D01*
X30183600Y-119920322D01*
X30157656Y-119894492D01*
X30130745Y-119867595D01*
X30128058Y-119864904D01*
X30095828Y-119832614D01*
X30067353Y-119804053D01*
X30042400Y-119778958D01*
X30020736Y-119757063D01*
X30002129Y-119738103D01*
X29986346Y-119721813D01*
X29973155Y-119707929D01*
X29962321Y-119696184D01*
X29953613Y-119686316D01*
X29946799Y-119678057D01*
X29941645Y-119671144D01*
X29937918Y-119665312D01*
X29935386Y-119660295D01*
X29933817Y-119655829D01*
X29932977Y-119651649D01*
X29932634Y-119647489D01*
X29932555Y-119643085D01*
X29932551Y-119642315D01*
X29932656Y-119636982D01*
X29933211Y-119631923D01*
X29934494Y-119626809D01*
X29936780Y-119621308D01*
X29940348Y-119615091D01*
X29945474Y-119607827D01*
X29952436Y-119599184D01*
X29961512Y-119588834D01*
X29972978Y-119576446D01*
X29987112Y-119561688D01*
X30004190Y-119544231D01*
X30024491Y-119523744D01*
X30048292Y-119499896D01*
X30071394Y-119476822D01*
X30098110Y-119450181D01*
X30121177Y-119427258D01*
X30140928Y-119407776D01*
X30157699Y-119391454D01*
X30171824Y-119378013D01*
X30183638Y-119367175D01*
X30193474Y-119358658D01*
X30201667Y-119352186D01*
X30208552Y-119347477D01*
X30214464Y-119344252D01*
X30219736Y-119342233D01*
X30224702Y-119341140D01*
X30229699Y-119340693D01*
X30234466Y-119340612D01*
X30238882Y-119340650D01*
X30243020Y-119340917D01*
X30247142Y-119341646D01*
X30251514Y-119343069D01*
X30256397Y-119345416D01*
X30262056Y-119348920D01*
X30268754Y-119353813D01*
X30276754Y-119360327D01*
X30286320Y-119368693D01*
X30297715Y-119379142D01*
X30311203Y-119391908D01*
X30327046Y-119407221D01*
X30345509Y-119425314D01*
X30366855Y-119446418D01*
X30391347Y-119470764D01*
X30419248Y-119498586D01*
X30450823Y-119530114D01*
X30458202Y-119537484D01*
X30493134Y-119572422D01*
X30524160Y-119603557D01*
X30551418Y-119631030D01*
X30575043Y-119654982D01*
X30595169Y-119675550D01*
X30611932Y-119692876D01*
X30625468Y-119707099D01*
X30635913Y-119718359D01*
X30643401Y-119726796D01*
X30648069Y-119732549D01*
X30649862Y-119735313D01*
X30656113Y-119752911D01*
X30657061Y-119769719D01*
X31173448Y-119769719D01*
X31172945Y-119753459D01*
X31167535Y-119737011D01*
X31166502Y-119735453D01*
X31164311Y-119732761D01*
X31160875Y-119728850D01*
X31156110Y-119723632D01*
X31149930Y-119717022D01*
X31142249Y-119708935D01*
X31132983Y-119699284D01*
X31122045Y-119687983D01*
X31109350Y-119674946D01*
X31094812Y-119660087D01*
X31078346Y-119643320D01*
X31059867Y-119624559D01*
X31039289Y-119603719D01*
X31016527Y-119580712D01*
X30991494Y-119555454D01*
X30964106Y-119527858D01*
X30934277Y-119497838D01*
X30901921Y-119465308D01*
X30866953Y-119430182D01*
X30829288Y-119392375D01*
X30788840Y-119351799D01*
X30745523Y-119308370D01*
X30699252Y-119262001D01*
X30694095Y-119256835D01*
X30141957Y-119256835D01*
X30137757Y-119274173D01*
X30135850Y-119278400D01*
X30132510Y-119283279D01*
X30125748Y-119291370D01*
X30115471Y-119302770D01*
X30101582Y-119317581D01*
X30083986Y-119335903D01*
X30062590Y-119357835D01*
X30037298Y-119383477D01*
X30010520Y-119410418D01*
X29988811Y-119432140D01*
X29968032Y-119452830D01*
X29948568Y-119472111D01*
X29930804Y-119489606D01*
X29915125Y-119504938D01*
X29901916Y-119517730D01*
X29891563Y-119527607D01*
X29884449Y-119534191D01*
X29881130Y-119536995D01*
X29868203Y-119544453D01*
X29854657Y-119549744D01*
X29842732Y-119552008D01*
X29841975Y-119552031D01*
X29835025Y-119551220D01*
X29825614Y-119549019D01*
X29820808Y-119547565D01*
X29818179Y-119546521D01*
X29815146Y-119544885D01*
X29811455Y-119542416D01*
X29806851Y-119538872D01*
X29801080Y-119534012D01*
X29793890Y-119527593D01*
X29785025Y-119519375D01*
X29774232Y-119509114D01*
X29761257Y-119496571D01*
X29745846Y-119481503D01*
X29727744Y-119463668D01*
X29706699Y-119442826D01*
X29682455Y-119418733D01*
X29654760Y-119391149D01*
X29623358Y-119359832D01*
X29620128Y-119356608D01*
X29584086Y-119320590D01*
X29551999Y-119288407D01*
X29523774Y-119259963D01*
X29499315Y-119235159D01*
X29478529Y-119213900D01*
X29461322Y-119196089D01*
X29447600Y-119181628D01*
X29437267Y-119170420D01*
X29430232Y-119162369D01*
X29426398Y-119157377D01*
X29425939Y-119156615D01*
X29419718Y-119140587D01*
X29418414Y-119129157D01*
X29418447Y-119123383D01*
X29418826Y-119118064D01*
X29419831Y-119112862D01*
X29421739Y-119107439D01*
X29424831Y-119101456D01*
X29429385Y-119094576D01*
X29435680Y-119086460D01*
X29443996Y-119076771D01*
X29454611Y-119065169D01*
X29467804Y-119051317D01*
X29483854Y-119034878D01*
X29503040Y-119015512D01*
X29525642Y-118992881D01*
X29551937Y-118966648D01*
X29555098Y-118963497D01*
X29583247Y-118935505D01*
X29607677Y-118911361D01*
X29628602Y-118890863D01*
X29646233Y-118873809D01*
X29660784Y-118859997D01*
X29672468Y-118849226D01*
X29681498Y-118841294D01*
X29688087Y-118835998D01*
X29692447Y-118833137D01*
X29692785Y-118832969D01*
X29709999Y-118827785D01*
X29728206Y-118827623D01*
X29745808Y-118832494D01*
X29746222Y-118832679D01*
X29750403Y-118835663D01*
X29758176Y-118842344D01*
X29769192Y-118852375D01*
X29783104Y-118865408D01*
X29799566Y-118881097D01*
X29818230Y-118899094D01*
X29838749Y-118919054D01*
X29860775Y-118940628D01*
X29883962Y-118963470D01*
X29907961Y-118987233D01*
X29932427Y-119011570D01*
X29957010Y-119036134D01*
X29981365Y-119060578D01*
X30005144Y-119084556D01*
X30028000Y-119107720D01*
X30049584Y-119129723D01*
X30069551Y-119150218D01*
X30087553Y-119168859D01*
X30103243Y-119185299D01*
X30116273Y-119199190D01*
X30126296Y-119210185D01*
X30132965Y-119217939D01*
X30135862Y-119221955D01*
X30141325Y-119238834D01*
X30141957Y-119256835D01*
X30694095Y-119256835D01*
X30649942Y-119212606D01*
X30597507Y-119160100D01*
X30541861Y-119104396D01*
X30482919Y-119045407D01*
X30420596Y-118983049D01*
X30354805Y-118917236D01*
X30285463Y-118847880D01*
X30212482Y-118774897D01*
X30174114Y-118736533D01*
X29627634Y-118736533D01*
X29627515Y-118742395D01*
X29626971Y-118747881D01*
X29625722Y-118753329D01*
X29623490Y-118759080D01*
X29619993Y-118765474D01*
X29614952Y-118772852D01*
X29608087Y-118781554D01*
X29599118Y-118791919D01*
X29587765Y-118804289D01*
X29573749Y-118819003D01*
X29556790Y-118836402D01*
X29536607Y-118856825D01*
X29512921Y-118880613D01*
X29491345Y-118902212D01*
X29464177Y-118929331D01*
X29440692Y-118952638D01*
X29420639Y-118972371D01*
X29403770Y-118988766D01*
X29389834Y-119002061D01*
X29378581Y-119012492D01*
X29369760Y-119020297D01*
X29363123Y-119025712D01*
X29358420Y-119028976D01*
X29356755Y-119029856D01*
X29338791Y-119034977D01*
X29319983Y-119035080D01*
X29301955Y-119030196D01*
X29298748Y-119028705D01*
X29294206Y-119025425D01*
X29286100Y-119018462D01*
X29274780Y-119008165D01*
X29260591Y-118994881D01*
X29243882Y-118978958D01*
X29224999Y-118960744D01*
X29204291Y-118940587D01*
X29182104Y-118918834D01*
X29158787Y-118895833D01*
X29134685Y-118871931D01*
X29110148Y-118847478D01*
X29085522Y-118822820D01*
X29061154Y-118798305D01*
X29037392Y-118774281D01*
X29014584Y-118751096D01*
X28993077Y-118729097D01*
X28973217Y-118708633D01*
X28955354Y-118690051D01*
X28939833Y-118673698D01*
X28927003Y-118659923D01*
X28917210Y-118649073D01*
X28910803Y-118641497D01*
X28908214Y-118637755D01*
X28903029Y-118620137D01*
X28903479Y-118602812D01*
X28909567Y-118585708D01*
X28910139Y-118584637D01*
X28913642Y-118579853D01*
X28920729Y-118571551D01*
X28930965Y-118560174D01*
X28943915Y-118546166D01*
X28959145Y-118529972D01*
X28976220Y-118512036D01*
X28994704Y-118492803D01*
X29014162Y-118472716D01*
X29034161Y-118452220D01*
X29054264Y-118431760D01*
X29074038Y-118411779D01*
X29093047Y-118392722D01*
X29110856Y-118375033D01*
X29127031Y-118359157D01*
X29141136Y-118345537D01*
X29152737Y-118334619D01*
X29161399Y-118326845D01*
X29166324Y-118322904D01*
X29177357Y-118316275D01*
X29187780Y-118312681D01*
X29198269Y-118311169D01*
X29203338Y-118310704D01*
X29207964Y-118310434D01*
X29212415Y-118310586D01*
X29216954Y-118311387D01*
X29221846Y-118313062D01*
X29227357Y-118315839D01*
X29233751Y-118319943D01*
X29241294Y-118325601D01*
X29250249Y-118333039D01*
X29260884Y-118342484D01*
X29273461Y-118354162D01*
X29288247Y-118368299D01*
X29305506Y-118385122D01*
X29325503Y-118404858D01*
X29348503Y-118427732D01*
X29374772Y-118453971D01*
X29404573Y-118483801D01*
X29429270Y-118508534D01*
X29461760Y-118541076D01*
X29490494Y-118569887D01*
X29515701Y-118595235D01*
X29537613Y-118617383D01*
X29556461Y-118636598D01*
X29572476Y-118653144D01*
X29585888Y-118667287D01*
X29596927Y-118679292D01*
X29605826Y-118689425D01*
X29612814Y-118697950D01*
X29618123Y-118705134D01*
X29621984Y-118711240D01*
X29624626Y-118716536D01*
X29626281Y-118721285D01*
X29627180Y-118725753D01*
X29627554Y-118730206D01*
X29627633Y-118734909D01*
X29627634Y-118736533D01*
X30174114Y-118736533D01*
X30135777Y-118698200D01*
X30055264Y-118617703D01*
X29970856Y-118533321D01*
X29955341Y-118517811D01*
X29883331Y-118445835D01*
X29812540Y-118375093D01*
X29743069Y-118305687D01*
X29675021Y-118237718D01*
X29668161Y-118230867D01*
X29112996Y-118230867D01*
X29107461Y-118249534D01*
X29107187Y-118250141D01*
X29105240Y-118253970D01*
X29102594Y-118258205D01*
X29098935Y-118263179D01*
X29093949Y-118269222D01*
X29087324Y-118276666D01*
X29078747Y-118285841D01*
X29067903Y-118297079D01*
X29054479Y-118310711D01*
X29038163Y-118327068D01*
X29018640Y-118346481D01*
X28995598Y-118369281D01*
X28978091Y-118386562D01*
X28956210Y-118408118D01*
X28935405Y-118428564D01*
X28916042Y-118447540D01*
X28898490Y-118464690D01*
X28883116Y-118479656D01*
X28870285Y-118492081D01*
X28860367Y-118501608D01*
X28853728Y-118507878D01*
X28850737Y-118510533D01*
X28835524Y-118517941D01*
X28818124Y-118521068D01*
X28800153Y-118519802D01*
X28785255Y-118515015D01*
X28782479Y-118513348D01*
X28778338Y-118510217D01*
X28772652Y-118505449D01*
X28765241Y-118498870D01*
X28755925Y-118490305D01*
X28744524Y-118479580D01*
X28730859Y-118466521D01*
X28714750Y-118450954D01*
X28696017Y-118432705D01*
X28674480Y-118411598D01*
X28649959Y-118387461D01*
X28622275Y-118360119D01*
X28591247Y-118329397D01*
X28556696Y-118295121D01*
X28518442Y-118257118D01*
X28495415Y-118234222D01*
X28471844Y-118210739D01*
X28451983Y-118190807D01*
X28435515Y-118174023D01*
X28422123Y-118159984D01*
X28411489Y-118148287D01*
X28403295Y-118138529D01*
X28397226Y-118130307D01*
X28392962Y-118123217D01*
X28390187Y-118116857D01*
X28388583Y-118110823D01*
X28387834Y-118104713D01*
X28387621Y-118098122D01*
X28387616Y-118097300D01*
X28387739Y-118091856D01*
X28388337Y-118086677D01*
X28389687Y-118081430D01*
X28392068Y-118075786D01*
X28395756Y-118069412D01*
X28401031Y-118061977D01*
X28408169Y-118053151D01*
X28417449Y-118042601D01*
X28429149Y-118029996D01*
X28443546Y-118015006D01*
X28460918Y-117997299D01*
X28481543Y-117976543D01*
X28505699Y-117952408D01*
X28526580Y-117931611D01*
X28555221Y-117903204D01*
X28580718Y-117878121D01*
X28602958Y-117856471D01*
X28621829Y-117838359D01*
X28637217Y-117823893D01*
X28649011Y-117813180D01*
X28657098Y-117806326D01*
X28661078Y-117803564D01*
X28676810Y-117798785D01*
X28693873Y-117798207D01*
X28710226Y-117801748D01*
X28718967Y-117805889D01*
X28723398Y-117809353D01*
X28731372Y-117816439D01*
X28742544Y-117826804D01*
X28756571Y-117840104D01*
X28773108Y-117855995D01*
X28791810Y-117874134D01*
X28812332Y-117894176D01*
X28834331Y-117915779D01*
X28857461Y-117938597D01*
X28881379Y-117962288D01*
X28905739Y-117986507D01*
X28930197Y-118010911D01*
X28954409Y-118035156D01*
X28978029Y-118058899D01*
X29000715Y-118081795D01*
X29022120Y-118103501D01*
X29041901Y-118123673D01*
X29059713Y-118141967D01*
X29075211Y-118158040D01*
X29088051Y-118171548D01*
X29097889Y-118182146D01*
X29104379Y-118189492D01*
X29107178Y-118193241D01*
X29107185Y-118193255D01*
X29112904Y-118212175D01*
X29112996Y-118230867D01*
X29668161Y-118230867D01*
X29608498Y-118171288D01*
X29543603Y-118106500D01*
X29480437Y-118043454D01*
X29419103Y-117982254D01*
X29359704Y-117923000D01*
X29302341Y-117865795D01*
X29247118Y-117810741D01*
X29194136Y-117757939D01*
X29143498Y-117707492D01*
X29095306Y-117659501D01*
X29049663Y-117614069D01*
X29006671Y-117571296D01*
X28966432Y-117531286D01*
X28929049Y-117494140D01*
X28894623Y-117459959D01*
X28863258Y-117428847D01*
X28835056Y-117400904D01*
X28810119Y-117376232D01*
X28788549Y-117354934D01*
X28770449Y-117337111D01*
X28755920Y-117322866D01*
X28745067Y-117312300D01*
X28737990Y-117305515D01*
X28734792Y-117302613D01*
X28734708Y-117302552D01*
X28718693Y-117293779D01*
X28703673Y-117290143D01*
X28688591Y-117291621D01*
X28688591Y-117291621D01*
G37*
X28688591Y-117291621D02*
X28672387Y-117298190D01*
X28667190Y-117301126D01*
X28664320Y-117303639D01*
X28657605Y-117310012D01*
X28647178Y-117320112D01*
X28633172Y-117333807D01*
X28615720Y-117350964D01*
X28594954Y-117371449D01*
X28571006Y-117395131D01*
X28544011Y-117421875D01*
X28514100Y-117451550D01*
X28481406Y-117484021D01*
X28446063Y-117519158D01*
X28408202Y-117556825D01*
X28367957Y-117596891D01*
X28325460Y-117639224D01*
X28280845Y-117683689D01*
X28234243Y-117730153D01*
X28185788Y-117778486D01*
X28135613Y-117828552D01*
X28083849Y-117880220D01*
X28030631Y-117933356D01*
X27976090Y-117987828D01*
X27920359Y-118043502D01*
X27863572Y-118100247D01*
X27805861Y-118157928D01*
X27747359Y-118216414D01*
X27688198Y-118275571D01*
X27628511Y-118335266D01*
X27568431Y-118395367D01*
X27508091Y-118455740D01*
X27447624Y-118516253D01*
X27387162Y-118576773D01*
X27326838Y-118637167D01*
X27266785Y-118697302D01*
X27207136Y-118757046D01*
X27148023Y-118816264D01*
X27089579Y-118874825D01*
X27031937Y-118932596D01*
X26975229Y-118989443D01*
X26919589Y-119045235D01*
X26865149Y-119099837D01*
X26812042Y-119153117D01*
X26760401Y-119204943D01*
X26710358Y-119255181D01*
X26662047Y-119303698D01*
X26615599Y-119350362D01*
X26571148Y-119395040D01*
X26528827Y-119437599D01*
X26488768Y-119477905D01*
X26451104Y-119515827D01*
X26415967Y-119551230D01*
X26383492Y-119583984D01*
X26353809Y-119613953D01*
X26327053Y-119641006D01*
X26303356Y-119665010D01*
X26282850Y-119685832D01*
X26265668Y-119703338D01*
X26251944Y-119717397D01*
X26241809Y-119727875D01*
X26235397Y-119734639D01*
X26232841Y-119737557D01*
X26232814Y-119737604D01*
X26227720Y-119753863D01*
X26227382Y-119771346D01*
X26231786Y-119788260D01*
X26233261Y-119791471D01*
X26234810Y-119793488D01*
X26238545Y-119797668D01*
X26244530Y-119804072D01*
X26252828Y-119812766D01*
X26263502Y-119823812D01*
X26276615Y-119837274D01*
X26292232Y-119853216D01*
X26310416Y-119871702D01*
X26331229Y-119892795D01*
X26354737Y-119916559D01*
X26381001Y-119943057D01*
X26410085Y-119972354D01*
X26442053Y-120004513D01*
X26476969Y-120039597D01*
X26514895Y-120077670D01*
X26555896Y-120118797D01*
X26600034Y-120163040D01*
X26647373Y-120210463D01*
X26697976Y-120261131D01*
X26751907Y-120315105D01*
X26809230Y-120372452D01*
X26870008Y-120433233D01*
X26934303Y-120497512D01*
X27002181Y-120565354D01*
X27073703Y-120636822D01*
X27148934Y-120711980D01*
X27227937Y-120790890D01*
X27310775Y-120873618D01*
X27397512Y-120960226D01*
X27451173Y-121013802D01*
X27520639Y-121083147D01*
X27589141Y-121151516D01*
X27656569Y-121218801D01*
X27722814Y-121284891D01*
X27787766Y-121349677D01*
X27851316Y-121413050D01*
X27913353Y-121474902D01*
X27973768Y-121535123D01*
X28032450Y-121593603D01*
X28089291Y-121650233D01*
X28144180Y-121704905D01*
X28197008Y-121757509D01*
X28247664Y-121807935D01*
X28296040Y-121856075D01*
X28342024Y-121901820D01*
X28385509Y-121945059D01*
X28426383Y-121985685D01*
X28464536Y-122023587D01*
X28499860Y-122058657D01*
X28532245Y-122090785D01*
X28561580Y-122119862D01*
X28587756Y-122145779D01*
X28610663Y-122168427D01*
X28630191Y-122187696D01*
X28646230Y-122203478D01*
X28658672Y-122215662D01*
X28667405Y-122224140D01*
X28672320Y-122228803D01*
X28673388Y-122229722D01*
X28687680Y-122235632D01*
X28703103Y-122237739D01*
X28717455Y-122235781D01*
X28719258Y-122235166D01*
X28728630Y-122230863D01*
X28737295Y-122225665D01*
X28737602Y-122225443D01*
X28740049Y-122223123D01*
X28746376Y-122216920D01*
X28756474Y-122206942D01*
X28770234Y-122193300D01*
X28787546Y-122176103D01*
X28808300Y-122155460D01*
X28832387Y-122131480D01*
X28859697Y-122104273D01*
X28890122Y-122073948D01*
X28923551Y-122040614D01*
X28959874Y-122004381D01*
X28998984Y-121965359D01*
X29040769Y-121923655D01*
X29085121Y-121879380D01*
X29131930Y-121832643D01*
X29181086Y-121783553D01*
X29232481Y-121732220D01*
X29286004Y-121678753D01*
X29341546Y-121623261D01*
X29398997Y-121565854D01*
X29458249Y-121506640D01*
X29519191Y-121445730D01*
X29581714Y-121383232D01*
X29645709Y-121319256D01*
X29700477Y-121264498D01*
X29160521Y-121264498D01*
X29156184Y-121281884D01*
X29152597Y-121289413D01*
X29149913Y-121293226D01*
X29144658Y-121299483D01*
X29136698Y-121308324D01*
X29125896Y-121319891D01*
X29112115Y-121334322D01*
X29095220Y-121351759D01*
X29075073Y-121372340D01*
X29051540Y-121396206D01*
X29024483Y-121423497D01*
X28993766Y-121454353D01*
X28959253Y-121488914D01*
X28931143Y-121517005D01*
X28902096Y-121545963D01*
X28874032Y-121573855D01*
X28847223Y-121600413D01*
X28821944Y-121625371D01*
X28798468Y-121648460D01*
X28777068Y-121669415D01*
X28758019Y-121687967D01*
X28741594Y-121703849D01*
X28728066Y-121716794D01*
X28717710Y-121726534D01*
X28710798Y-121732802D01*
X28707644Y-121735313D01*
X28691137Y-121741837D01*
X28675764Y-121743570D01*
X28659960Y-121740529D01*
X28648378Y-121735839D01*
X28644910Y-121733610D01*
X28639347Y-121729147D01*
X28631508Y-121722279D01*
X28621216Y-121712832D01*
X28608291Y-121700634D01*
X28592554Y-121685514D01*
X28573826Y-121667298D01*
X28551928Y-121645814D01*
X28526682Y-121620889D01*
X28497907Y-121592352D01*
X28465426Y-121560029D01*
X28451582Y-121546227D01*
X28419932Y-121514644D01*
X28392045Y-121486774D01*
X28367673Y-121462362D01*
X28346572Y-121441147D01*
X28328492Y-121422873D01*
X28313188Y-121407281D01*
X28300413Y-121394114D01*
X28289919Y-121383114D01*
X28281460Y-121374022D01*
X28274788Y-121366580D01*
X28269658Y-121360531D01*
X28265821Y-121355617D01*
X28263032Y-121351579D01*
X28261043Y-121348160D01*
X28260044Y-121346108D01*
X28254498Y-121328536D01*
X28254295Y-121311513D01*
X28259441Y-121293928D01*
X28260268Y-121292055D01*
X28263100Y-121288224D01*
X28269644Y-121280763D01*
X28279581Y-121269993D01*
X28292591Y-121256233D01*
X28308354Y-121239804D01*
X28326550Y-121221025D01*
X28346860Y-121200216D01*
X28368964Y-121177697D01*
X28392541Y-121153788D01*
X28417271Y-121128809D01*
X28442836Y-121103079D01*
X28468914Y-121076919D01*
X28495186Y-121050649D01*
X28521333Y-121024588D01*
X28547033Y-120999057D01*
X28571968Y-120974374D01*
X28595817Y-120950861D01*
X28618261Y-120928837D01*
X28638980Y-120908622D01*
X28657653Y-120890535D01*
X28673961Y-120874897D01*
X28687584Y-120862028D01*
X28698202Y-120852247D01*
X28705495Y-120845875D01*
X28709055Y-120843268D01*
X28726826Y-120837573D01*
X28743970Y-120837248D01*
X28761576Y-120842289D01*
X28763108Y-120842956D01*
X28766235Y-120844513D01*
X28769765Y-120846668D01*
X28773956Y-120849668D01*
X28779067Y-120853761D01*
X28785357Y-120859195D01*
X28793082Y-120866219D01*
X28802503Y-120875081D01*
X28813877Y-120886030D01*
X28827463Y-120899313D01*
X28843520Y-120915178D01*
X28862305Y-120933874D01*
X28884077Y-120955650D01*
X28909095Y-120980753D01*
X28937617Y-121009431D01*
X28962514Y-121034494D01*
X28989352Y-121061573D01*
X29015166Y-121087727D01*
X29039663Y-121112649D01*
X29062548Y-121136035D01*
X29083527Y-121157582D01*
X29102304Y-121176985D01*
X29118586Y-121193939D01*
X29132079Y-121208141D01*
X29142487Y-121219286D01*
X29149516Y-121227069D01*
X29152872Y-121231186D01*
X29152967Y-121231338D01*
X29159450Y-121247439D01*
X29160521Y-121264498D01*
X29700477Y-121264498D01*
X29711066Y-121253912D01*
X29777675Y-121187307D01*
X29845428Y-121119553D01*
X29914214Y-121050758D01*
X29954244Y-121010719D01*
X30040546Y-120924392D01*
X30122931Y-120841973D01*
X30201481Y-120763382D01*
X30276274Y-120688538D01*
X30347391Y-120617363D01*
X30414910Y-120549775D01*
X30478911Y-120485694D01*
X30539473Y-120425042D01*
X30596676Y-120367738D01*
X30650600Y-120313701D01*
X30701324Y-120262853D01*
X30748927Y-120215113D01*
X30793489Y-120170401D01*
X30829470Y-120134278D01*
X30278757Y-120134278D01*
X30278346Y-120152450D01*
X30273765Y-120167400D01*
X30272141Y-120169978D01*
X30268804Y-120174188D01*
X30263605Y-120180185D01*
X30256395Y-120188121D01*
X30247024Y-120198148D01*
X30235342Y-120210421D01*
X30221199Y-120225093D01*
X30204446Y-120242316D01*
X30184933Y-120262244D01*
X30162510Y-120285030D01*
X30137028Y-120310827D01*
X30108338Y-120339789D01*
X30076288Y-120372068D01*
X30040731Y-120407818D01*
X30001515Y-120447192D01*
X29958492Y-120490342D01*
X29944213Y-120504655D01*
X29907957Y-120541000D01*
X29872406Y-120576648D01*
X29837801Y-120611359D01*
X29804383Y-120644889D01*
X29772394Y-120676998D01*
X29742073Y-120707442D01*
X29713662Y-120735980D01*
X29687402Y-120762370D01*
X29663534Y-120786369D01*
X29642297Y-120807736D01*
X29623935Y-120826228D01*
X29608686Y-120841604D01*
X29596793Y-120853622D01*
X29588496Y-120862039D01*
X29585236Y-120865371D01*
X29572589Y-120878139D01*
X29560025Y-120890398D01*
X29548570Y-120901177D01*
X29539251Y-120909504D01*
X29534555Y-120913349D01*
X29526620Y-120919667D01*
X29520678Y-120924917D01*
X29518003Y-120927972D01*
X29517997Y-120927989D01*
X29515732Y-120930775D01*
X29509870Y-120937090D01*
X29500841Y-120946503D01*
X29489074Y-120958588D01*
X29474998Y-120972915D01*
X29459043Y-120989057D01*
X29441637Y-121006584D01*
X29423211Y-121025069D01*
X29404193Y-121044083D01*
X29385014Y-121063198D01*
X29366102Y-121081986D01*
X29347886Y-121100018D01*
X29330796Y-121116866D01*
X29315262Y-121132101D01*
X29301713Y-121145296D01*
X29290578Y-121156021D01*
X29282286Y-121163849D01*
X29277267Y-121168352D01*
X29276322Y-121169091D01*
X29258956Y-121178753D01*
X29242295Y-121182965D01*
X29225813Y-121181785D01*
X29211100Y-121176364D01*
X29207981Y-121173815D01*
X29201028Y-121167419D01*
X29190391Y-121157323D01*
X29176220Y-121143679D01*
X29158666Y-121126635D01*
X29137878Y-121106343D01*
X29114006Y-121082950D01*
X29087201Y-121056608D01*
X29057613Y-121027466D01*
X29025391Y-120995675D01*
X28990686Y-120961382D01*
X28953647Y-120924740D01*
X28914426Y-120885896D01*
X28873172Y-120845002D01*
X28830035Y-120802207D01*
X28785165Y-120757661D01*
X28738712Y-120711513D01*
X28690827Y-120663914D01*
X28641659Y-120615012D01*
X28591359Y-120564959D01*
X28540076Y-120513904D01*
X28487961Y-120461996D01*
X28435164Y-120409386D01*
X28381835Y-120356222D01*
X28328123Y-120302656D01*
X28274180Y-120248837D01*
X28220155Y-120194915D01*
X28166198Y-120141039D01*
X28112460Y-120087359D01*
X28059090Y-120034025D01*
X28006238Y-119981187D01*
X27954055Y-119928995D01*
X27902691Y-119877598D01*
X27852295Y-119827147D01*
X27803018Y-119777791D01*
X27755010Y-119729680D01*
X27708422Y-119682963D01*
X27663402Y-119637791D01*
X27620101Y-119594313D01*
X27578670Y-119552680D01*
X27539258Y-119513040D01*
X27502016Y-119475545D01*
X27467093Y-119440343D01*
X27434640Y-119407584D01*
X27404806Y-119377418D01*
X27377742Y-119349996D01*
X27353598Y-119325466D01*
X27332524Y-119303979D01*
X27314670Y-119285684D01*
X27300187Y-119270732D01*
X27289223Y-119259271D01*
X27281930Y-119251453D01*
X27278457Y-119247426D01*
X27278231Y-119247084D01*
X27271347Y-119229211D01*
X27269675Y-119210782D01*
X27273242Y-119192838D01*
X27276530Y-119185266D01*
X27279287Y-119181798D01*
X27285850Y-119174574D01*
X27296007Y-119163805D01*
X27309549Y-119149700D01*
X27326266Y-119132468D01*
X27345946Y-119112320D01*
X27368381Y-119089465D01*
X27393359Y-119064112D01*
X27420671Y-119036472D01*
X27450106Y-119006753D01*
X27481454Y-118975166D01*
X27514504Y-118941920D01*
X27549047Y-118907224D01*
X27584872Y-118871289D01*
X27621770Y-118834324D01*
X27659529Y-118796538D01*
X27697939Y-118758142D01*
X27736791Y-118719345D01*
X27775874Y-118680356D01*
X27814978Y-118641385D01*
X27853892Y-118602642D01*
X27892406Y-118564336D01*
X27930311Y-118526677D01*
X27967395Y-118489875D01*
X28003449Y-118454140D01*
X28038262Y-118419680D01*
X28071624Y-118386705D01*
X28103326Y-118355426D01*
X28133155Y-118326052D01*
X28160904Y-118298792D01*
X28186360Y-118273856D01*
X28209314Y-118251454D01*
X28229556Y-118231795D01*
X28246875Y-118215089D01*
X28261061Y-118201546D01*
X28271905Y-118191375D01*
X28279195Y-118184786D01*
X28282721Y-118181988D01*
X28282748Y-118181974D01*
X28300502Y-118175793D01*
X28318158Y-118175255D01*
X28335684Y-118180360D01*
X28340328Y-118182672D01*
X28343657Y-118185383D01*
X28350784Y-118191916D01*
X28361532Y-118202093D01*
X28375727Y-118215740D01*
X28393192Y-118232681D01*
X28413753Y-118252742D01*
X28437234Y-118275746D01*
X28463460Y-118301519D01*
X28492254Y-118329886D01*
X28523441Y-118360670D01*
X28556846Y-118393697D01*
X28592294Y-118428792D01*
X28629608Y-118465778D01*
X28668613Y-118504481D01*
X28709135Y-118544726D01*
X28750996Y-118586337D01*
X28794022Y-118629139D01*
X28838038Y-118672957D01*
X28882867Y-118717615D01*
X28928335Y-118762938D01*
X28974265Y-118808750D01*
X29020482Y-118854878D01*
X29066811Y-118901144D01*
X29113076Y-118947374D01*
X29159102Y-118993392D01*
X29204713Y-119039024D01*
X29249733Y-119084093D01*
X29293988Y-119128426D01*
X29337301Y-119171845D01*
X29379497Y-119214177D01*
X29420401Y-119255245D01*
X29459837Y-119294875D01*
X29497630Y-119332891D01*
X29533603Y-119369117D01*
X29567582Y-119403380D01*
X29599391Y-119435502D01*
X29628855Y-119465309D01*
X29655797Y-119492626D01*
X29680043Y-119517278D01*
X29701417Y-119539088D01*
X29719743Y-119557882D01*
X29734846Y-119573485D01*
X29746551Y-119585720D01*
X29754682Y-119594414D01*
X29759063Y-119599390D01*
X29759776Y-119600393D01*
X29765135Y-119617707D01*
X29765082Y-119635737D01*
X29759852Y-119653080D01*
X29756408Y-119658178D01*
X29749314Y-119666737D01*
X29739006Y-119678323D01*
X29725919Y-119692501D01*
X29710487Y-119708836D01*
X29693144Y-119726892D01*
X29674325Y-119746235D01*
X29654465Y-119766430D01*
X29633998Y-119787041D01*
X29613359Y-119807635D01*
X29592982Y-119827774D01*
X29573302Y-119847025D01*
X29554754Y-119864953D01*
X29537772Y-119881122D01*
X29522791Y-119895098D01*
X29510245Y-119906445D01*
X29500569Y-119914729D01*
X29494197Y-119919514D01*
X29493021Y-119920189D01*
X29474921Y-119926327D01*
X29456756Y-119926861D01*
X29438816Y-119921783D01*
X29438600Y-119921686D01*
X29436418Y-119920280D01*
X29432704Y-119917286D01*
X29427333Y-119912583D01*
X29420179Y-119906045D01*
X29411117Y-119897550D01*
X29400021Y-119886974D01*
X29386766Y-119874192D01*
X29371227Y-119859082D01*
X29353278Y-119841521D01*
X29332794Y-119821383D01*
X29309650Y-119798546D01*
X29283720Y-119772886D01*
X29254878Y-119744279D01*
X29223000Y-119712603D01*
X29187960Y-119677732D01*
X29149632Y-119639544D01*
X29107892Y-119597914D01*
X29062613Y-119552720D01*
X29013671Y-119503838D01*
X28960940Y-119451144D01*
X28931301Y-119421516D01*
X28436702Y-118927046D01*
X28229981Y-119133767D01*
X28023261Y-119340488D01*
X28567944Y-119885177D01*
X28614315Y-119931539D01*
X28659655Y-119976851D01*
X28703801Y-120020953D01*
X28746592Y-120063681D01*
X28787863Y-120104875D01*
X28827454Y-120144372D01*
X28865200Y-120182010D01*
X28900940Y-120217628D01*
X28934510Y-120251064D01*
X28965749Y-120282156D01*
X28994493Y-120310742D01*
X29020580Y-120336660D01*
X29043848Y-120359748D01*
X29064133Y-120379845D01*
X29081273Y-120396789D01*
X29095106Y-120410418D01*
X29105468Y-120420569D01*
X29112198Y-120427082D01*
X29115132Y-120429794D01*
X29115247Y-120429866D01*
X29117485Y-120427899D01*
X29123500Y-120422134D01*
X29133089Y-120412772D01*
X29146047Y-120400018D01*
X29162170Y-120384074D01*
X29181256Y-120365143D01*
X29203100Y-120343428D01*
X29227499Y-120319132D01*
X29254248Y-120292458D01*
X29283145Y-120263609D01*
X29313984Y-120232788D01*
X29346563Y-120200197D01*
X29380678Y-120166040D01*
X29416125Y-120130520D01*
X29452700Y-120093840D01*
X29465205Y-120081292D01*
X29509707Y-120036627D01*
X29550403Y-119995783D01*
X29587475Y-119958590D01*
X29621109Y-119924876D01*
X29651488Y-119894472D01*
X29678796Y-119867206D01*
X29703218Y-119842908D01*
X29724937Y-119821408D01*
X29744138Y-119802535D01*
X29761003Y-119786118D01*
X29775719Y-119771987D01*
X29788468Y-119759971D01*
X29799434Y-119749900D01*
X29808802Y-119741604D01*
X29816756Y-119734910D01*
X29823479Y-119729650D01*
X29829156Y-119725652D01*
X29833971Y-119722746D01*
X29838108Y-119720762D01*
X29841751Y-119719528D01*
X29845083Y-119718874D01*
X29848290Y-119718629D01*
X29851554Y-119718624D01*
X29855060Y-119718687D01*
X29856440Y-119718694D01*
X29860875Y-119718740D01*
X29865068Y-119719051D01*
X29869282Y-119719859D01*
X29873778Y-119721394D01*
X29878817Y-119723887D01*
X29884661Y-119727568D01*
X29891572Y-119732668D01*
X29899811Y-119739418D01*
X29909638Y-119748049D01*
X29921317Y-119758790D01*
X29935108Y-119771873D01*
X29951272Y-119787529D01*
X29970072Y-119805988D01*
X29991769Y-119827481D01*
X30016623Y-119852239D01*
X30044897Y-119880492D01*
X30076853Y-119912471D01*
X30082642Y-119918266D01*
X30116003Y-119951699D01*
X30145539Y-119981375D01*
X30171445Y-120007499D01*
X30193918Y-120030275D01*
X30213155Y-120049906D01*
X30229352Y-120066597D01*
X30242705Y-120080551D01*
X30253411Y-120091973D01*
X30261667Y-120101065D01*
X30267669Y-120108032D01*
X30271613Y-120113078D01*
X30273696Y-120116406D01*
X30273786Y-120116600D01*
X30278757Y-120134278D01*
X30829470Y-120134278D01*
X30835089Y-120128637D01*
X30873807Y-120089741D01*
X30909722Y-120053633D01*
X30942914Y-120020234D01*
X30973462Y-119989463D01*
X31001446Y-119961241D01*
X31026945Y-119935487D01*
X31050039Y-119912121D01*
X31070807Y-119891064D01*
X31089329Y-119872235D01*
X31105683Y-119855556D01*
X31119951Y-119840944D01*
X31132210Y-119828322D01*
X31142541Y-119817608D01*
X31151023Y-119808723D01*
X31157735Y-119801587D01*
X31162757Y-119796120D01*
X31166169Y-119792241D01*
X31168050Y-119789872D01*
X31168444Y-119789222D01*
X31173502Y-119771470D01*
X31173448Y-119769719D01*
X30657061Y-119769719D01*
X30652728Y-119786823D01*
X30650917Y-119791064D01*
X30648860Y-119795066D01*
X30646016Y-119799561D01*
X30642066Y-119804893D01*
X30636689Y-119811406D01*
X30629565Y-119819445D01*
X30620375Y-119829354D01*
X30608797Y-119841479D01*
X30594513Y-119856163D01*
X30577202Y-119873751D01*
X30556544Y-119894587D01*
X30532219Y-119919017D01*
X30529935Y-119921308D01*
X30503173Y-119948103D01*
X30480039Y-119971164D01*
X30460208Y-119990788D01*
X30443354Y-120007272D01*
X30429155Y-120020913D01*
X30417286Y-120032008D01*
X30407421Y-120040854D01*
X30399238Y-120047748D01*
X30392410Y-120052987D01*
X30386616Y-120056867D01*
X30381528Y-120059686D01*
X30376825Y-120061740D01*
X30376308Y-120061935D01*
X30361887Y-120064764D01*
X30345794Y-120063874D01*
X30330368Y-120059518D01*
X30323939Y-120056300D01*
X30320238Y-120053296D01*
X30312861Y-120046581D01*
X30302111Y-120036446D01*
X30288287Y-120023188D01*
X30271691Y-120007099D01*
X30252623Y-119988474D01*
X30231385Y-119967607D01*
X30208277Y-119944791D01*
X30183600Y-119920322D01*
X30157656Y-119894492D01*
X30130745Y-119867595D01*
X30128058Y-119864904D01*
X30095828Y-119832614D01*
X30067353Y-119804053D01*
X30042400Y-119778958D01*
X30020736Y-119757063D01*
X30002129Y-119738103D01*
X29986346Y-119721813D01*
X29973155Y-119707929D01*
X29962321Y-119696184D01*
X29953613Y-119686316D01*
X29946799Y-119678057D01*
X29941645Y-119671144D01*
X29937918Y-119665312D01*
X29935386Y-119660295D01*
X29933817Y-119655829D01*
X29932977Y-119651649D01*
X29932634Y-119647489D01*
X29932555Y-119643085D01*
X29932551Y-119642315D01*
X29932656Y-119636982D01*
X29933211Y-119631923D01*
X29934494Y-119626809D01*
X29936780Y-119621308D01*
X29940348Y-119615091D01*
X29945474Y-119607827D01*
X29952436Y-119599184D01*
X29961512Y-119588834D01*
X29972978Y-119576446D01*
X29987112Y-119561688D01*
X30004190Y-119544231D01*
X30024491Y-119523744D01*
X30048292Y-119499896D01*
X30071394Y-119476822D01*
X30098110Y-119450181D01*
X30121177Y-119427258D01*
X30140928Y-119407776D01*
X30157699Y-119391454D01*
X30171824Y-119378013D01*
X30183638Y-119367175D01*
X30193474Y-119358658D01*
X30201667Y-119352186D01*
X30208552Y-119347477D01*
X30214464Y-119344252D01*
X30219736Y-119342233D01*
X30224702Y-119341140D01*
X30229699Y-119340693D01*
X30234466Y-119340612D01*
X30238882Y-119340650D01*
X30243020Y-119340917D01*
X30247142Y-119341646D01*
X30251514Y-119343069D01*
X30256397Y-119345416D01*
X30262056Y-119348920D01*
X30268754Y-119353813D01*
X30276754Y-119360327D01*
X30286320Y-119368693D01*
X30297715Y-119379142D01*
X30311203Y-119391908D01*
X30327046Y-119407221D01*
X30345509Y-119425314D01*
X30366855Y-119446418D01*
X30391347Y-119470764D01*
X30419248Y-119498586D01*
X30450823Y-119530114D01*
X30458202Y-119537484D01*
X30493134Y-119572422D01*
X30524160Y-119603557D01*
X30551418Y-119631030D01*
X30575043Y-119654982D01*
X30595169Y-119675550D01*
X30611932Y-119692876D01*
X30625468Y-119707099D01*
X30635913Y-119718359D01*
X30643401Y-119726796D01*
X30648069Y-119732549D01*
X30649862Y-119735313D01*
X30656113Y-119752911D01*
X30657061Y-119769719D01*
X31173448Y-119769719D01*
X31172945Y-119753459D01*
X31167535Y-119737011D01*
X31166502Y-119735453D01*
X31164311Y-119732761D01*
X31160875Y-119728850D01*
X31156110Y-119723632D01*
X31149930Y-119717022D01*
X31142249Y-119708935D01*
X31132983Y-119699284D01*
X31122045Y-119687983D01*
X31109350Y-119674946D01*
X31094812Y-119660087D01*
X31078346Y-119643320D01*
X31059867Y-119624559D01*
X31039289Y-119603719D01*
X31016527Y-119580712D01*
X30991494Y-119555454D01*
X30964106Y-119527858D01*
X30934277Y-119497838D01*
X30901921Y-119465308D01*
X30866953Y-119430182D01*
X30829288Y-119392375D01*
X30788840Y-119351799D01*
X30745523Y-119308370D01*
X30699252Y-119262001D01*
X30694095Y-119256835D01*
X30141957Y-119256835D01*
X30137757Y-119274173D01*
X30135850Y-119278400D01*
X30132510Y-119283279D01*
X30125748Y-119291370D01*
X30115471Y-119302770D01*
X30101582Y-119317581D01*
X30083986Y-119335903D01*
X30062590Y-119357835D01*
X30037298Y-119383477D01*
X30010520Y-119410418D01*
X29988811Y-119432140D01*
X29968032Y-119452830D01*
X29948568Y-119472111D01*
X29930804Y-119489606D01*
X29915125Y-119504938D01*
X29901916Y-119517730D01*
X29891563Y-119527607D01*
X29884449Y-119534191D01*
X29881130Y-119536995D01*
X29868203Y-119544453D01*
X29854657Y-119549744D01*
X29842732Y-119552008D01*
X29841975Y-119552031D01*
X29835025Y-119551220D01*
X29825614Y-119549019D01*
X29820808Y-119547565D01*
X29818179Y-119546521D01*
X29815146Y-119544885D01*
X29811455Y-119542416D01*
X29806851Y-119538872D01*
X29801080Y-119534012D01*
X29793890Y-119527593D01*
X29785025Y-119519375D01*
X29774232Y-119509114D01*
X29761257Y-119496571D01*
X29745846Y-119481503D01*
X29727744Y-119463668D01*
X29706699Y-119442826D01*
X29682455Y-119418733D01*
X29654760Y-119391149D01*
X29623358Y-119359832D01*
X29620128Y-119356608D01*
X29584086Y-119320590D01*
X29551999Y-119288407D01*
X29523774Y-119259963D01*
X29499315Y-119235159D01*
X29478529Y-119213900D01*
X29461322Y-119196089D01*
X29447600Y-119181628D01*
X29437267Y-119170420D01*
X29430232Y-119162369D01*
X29426398Y-119157377D01*
X29425939Y-119156615D01*
X29419718Y-119140587D01*
X29418414Y-119129157D01*
X29418447Y-119123383D01*
X29418826Y-119118064D01*
X29419831Y-119112862D01*
X29421739Y-119107439D01*
X29424831Y-119101456D01*
X29429385Y-119094576D01*
X29435680Y-119086460D01*
X29443996Y-119076771D01*
X29454611Y-119065169D01*
X29467804Y-119051317D01*
X29483854Y-119034878D01*
X29503040Y-119015512D01*
X29525642Y-118992881D01*
X29551937Y-118966648D01*
X29555098Y-118963497D01*
X29583247Y-118935505D01*
X29607677Y-118911361D01*
X29628602Y-118890863D01*
X29646233Y-118873809D01*
X29660784Y-118859997D01*
X29672468Y-118849226D01*
X29681498Y-118841294D01*
X29688087Y-118835998D01*
X29692447Y-118833137D01*
X29692785Y-118832969D01*
X29709999Y-118827785D01*
X29728206Y-118827623D01*
X29745808Y-118832494D01*
X29746222Y-118832679D01*
X29750403Y-118835663D01*
X29758176Y-118842344D01*
X29769192Y-118852375D01*
X29783104Y-118865408D01*
X29799566Y-118881097D01*
X29818230Y-118899094D01*
X29838749Y-118919054D01*
X29860775Y-118940628D01*
X29883962Y-118963470D01*
X29907961Y-118987233D01*
X29932427Y-119011570D01*
X29957010Y-119036134D01*
X29981365Y-119060578D01*
X30005144Y-119084556D01*
X30028000Y-119107720D01*
X30049584Y-119129723D01*
X30069551Y-119150218D01*
X30087553Y-119168859D01*
X30103243Y-119185299D01*
X30116273Y-119199190D01*
X30126296Y-119210185D01*
X30132965Y-119217939D01*
X30135862Y-119221955D01*
X30141325Y-119238834D01*
X30141957Y-119256835D01*
X30694095Y-119256835D01*
X30649942Y-119212606D01*
X30597507Y-119160100D01*
X30541861Y-119104396D01*
X30482919Y-119045407D01*
X30420596Y-118983049D01*
X30354805Y-118917236D01*
X30285463Y-118847880D01*
X30212482Y-118774897D01*
X30174114Y-118736533D01*
X29627634Y-118736533D01*
X29627515Y-118742395D01*
X29626971Y-118747881D01*
X29625722Y-118753329D01*
X29623490Y-118759080D01*
X29619993Y-118765474D01*
X29614952Y-118772852D01*
X29608087Y-118781554D01*
X29599118Y-118791919D01*
X29587765Y-118804289D01*
X29573749Y-118819003D01*
X29556790Y-118836402D01*
X29536607Y-118856825D01*
X29512921Y-118880613D01*
X29491345Y-118902212D01*
X29464177Y-118929331D01*
X29440692Y-118952638D01*
X29420639Y-118972371D01*
X29403770Y-118988766D01*
X29389834Y-119002061D01*
X29378581Y-119012492D01*
X29369760Y-119020297D01*
X29363123Y-119025712D01*
X29358420Y-119028976D01*
X29356755Y-119029856D01*
X29338791Y-119034977D01*
X29319983Y-119035080D01*
X29301955Y-119030196D01*
X29298748Y-119028705D01*
X29294206Y-119025425D01*
X29286100Y-119018462D01*
X29274780Y-119008165D01*
X29260591Y-118994881D01*
X29243882Y-118978958D01*
X29224999Y-118960744D01*
X29204291Y-118940587D01*
X29182104Y-118918834D01*
X29158787Y-118895833D01*
X29134685Y-118871931D01*
X29110148Y-118847478D01*
X29085522Y-118822820D01*
X29061154Y-118798305D01*
X29037392Y-118774281D01*
X29014584Y-118751096D01*
X28993077Y-118729097D01*
X28973217Y-118708633D01*
X28955354Y-118690051D01*
X28939833Y-118673698D01*
X28927003Y-118659923D01*
X28917210Y-118649073D01*
X28910803Y-118641497D01*
X28908214Y-118637755D01*
X28903029Y-118620137D01*
X28903479Y-118602812D01*
X28909567Y-118585708D01*
X28910139Y-118584637D01*
X28913642Y-118579853D01*
X28920729Y-118571551D01*
X28930965Y-118560174D01*
X28943915Y-118546166D01*
X28959145Y-118529972D01*
X28976220Y-118512036D01*
X28994704Y-118492803D01*
X29014162Y-118472716D01*
X29034161Y-118452220D01*
X29054264Y-118431760D01*
X29074038Y-118411779D01*
X29093047Y-118392722D01*
X29110856Y-118375033D01*
X29127031Y-118359157D01*
X29141136Y-118345537D01*
X29152737Y-118334619D01*
X29161399Y-118326845D01*
X29166324Y-118322904D01*
X29177357Y-118316275D01*
X29187780Y-118312681D01*
X29198269Y-118311169D01*
X29203338Y-118310704D01*
X29207964Y-118310434D01*
X29212415Y-118310586D01*
X29216954Y-118311387D01*
X29221846Y-118313062D01*
X29227357Y-118315839D01*
X29233751Y-118319943D01*
X29241294Y-118325601D01*
X29250249Y-118333039D01*
X29260884Y-118342484D01*
X29273461Y-118354162D01*
X29288247Y-118368299D01*
X29305506Y-118385122D01*
X29325503Y-118404858D01*
X29348503Y-118427732D01*
X29374772Y-118453971D01*
X29404573Y-118483801D01*
X29429270Y-118508534D01*
X29461760Y-118541076D01*
X29490494Y-118569887D01*
X29515701Y-118595235D01*
X29537613Y-118617383D01*
X29556461Y-118636598D01*
X29572476Y-118653144D01*
X29585888Y-118667287D01*
X29596927Y-118679292D01*
X29605826Y-118689425D01*
X29612814Y-118697950D01*
X29618123Y-118705134D01*
X29621984Y-118711240D01*
X29624626Y-118716536D01*
X29626281Y-118721285D01*
X29627180Y-118725753D01*
X29627554Y-118730206D01*
X29627633Y-118734909D01*
X29627634Y-118736533D01*
X30174114Y-118736533D01*
X30135777Y-118698200D01*
X30055264Y-118617703D01*
X29970856Y-118533321D01*
X29955341Y-118517811D01*
X29883331Y-118445835D01*
X29812540Y-118375093D01*
X29743069Y-118305687D01*
X29675021Y-118237718D01*
X29668161Y-118230867D01*
X29112996Y-118230867D01*
X29107461Y-118249534D01*
X29107187Y-118250141D01*
X29105240Y-118253970D01*
X29102594Y-118258205D01*
X29098935Y-118263179D01*
X29093949Y-118269222D01*
X29087324Y-118276666D01*
X29078747Y-118285841D01*
X29067903Y-118297079D01*
X29054479Y-118310711D01*
X29038163Y-118327068D01*
X29018640Y-118346481D01*
X28995598Y-118369281D01*
X28978091Y-118386562D01*
X28956210Y-118408118D01*
X28935405Y-118428564D01*
X28916042Y-118447540D01*
X28898490Y-118464690D01*
X28883116Y-118479656D01*
X28870285Y-118492081D01*
X28860367Y-118501608D01*
X28853728Y-118507878D01*
X28850737Y-118510533D01*
X28835524Y-118517941D01*
X28818124Y-118521068D01*
X28800153Y-118519802D01*
X28785255Y-118515015D01*
X28782479Y-118513348D01*
X28778338Y-118510217D01*
X28772652Y-118505449D01*
X28765241Y-118498870D01*
X28755925Y-118490305D01*
X28744524Y-118479580D01*
X28730859Y-118466521D01*
X28714750Y-118450954D01*
X28696017Y-118432705D01*
X28674480Y-118411598D01*
X28649959Y-118387461D01*
X28622275Y-118360119D01*
X28591247Y-118329397D01*
X28556696Y-118295121D01*
X28518442Y-118257118D01*
X28495415Y-118234222D01*
X28471844Y-118210739D01*
X28451983Y-118190807D01*
X28435515Y-118174023D01*
X28422123Y-118159984D01*
X28411489Y-118148287D01*
X28403295Y-118138529D01*
X28397226Y-118130307D01*
X28392962Y-118123217D01*
X28390187Y-118116857D01*
X28388583Y-118110823D01*
X28387834Y-118104713D01*
X28387621Y-118098122D01*
X28387616Y-118097300D01*
X28387739Y-118091856D01*
X28388337Y-118086677D01*
X28389687Y-118081430D01*
X28392068Y-118075786D01*
X28395756Y-118069412D01*
X28401031Y-118061977D01*
X28408169Y-118053151D01*
X28417449Y-118042601D01*
X28429149Y-118029996D01*
X28443546Y-118015006D01*
X28460918Y-117997299D01*
X28481543Y-117976543D01*
X28505699Y-117952408D01*
X28526580Y-117931611D01*
X28555221Y-117903204D01*
X28580718Y-117878121D01*
X28602958Y-117856471D01*
X28621829Y-117838359D01*
X28637217Y-117823893D01*
X28649011Y-117813180D01*
X28657098Y-117806326D01*
X28661078Y-117803564D01*
X28676810Y-117798785D01*
X28693873Y-117798207D01*
X28710226Y-117801748D01*
X28718967Y-117805889D01*
X28723398Y-117809353D01*
X28731372Y-117816439D01*
X28742544Y-117826804D01*
X28756571Y-117840104D01*
X28773108Y-117855995D01*
X28791810Y-117874134D01*
X28812332Y-117894176D01*
X28834331Y-117915779D01*
X28857461Y-117938597D01*
X28881379Y-117962288D01*
X28905739Y-117986507D01*
X28930197Y-118010911D01*
X28954409Y-118035156D01*
X28978029Y-118058899D01*
X29000715Y-118081795D01*
X29022120Y-118103501D01*
X29041901Y-118123673D01*
X29059713Y-118141967D01*
X29075211Y-118158040D01*
X29088051Y-118171548D01*
X29097889Y-118182146D01*
X29104379Y-118189492D01*
X29107178Y-118193241D01*
X29107185Y-118193255D01*
X29112904Y-118212175D01*
X29112996Y-118230867D01*
X29668161Y-118230867D01*
X29608498Y-118171288D01*
X29543603Y-118106500D01*
X29480437Y-118043454D01*
X29419103Y-117982254D01*
X29359704Y-117923000D01*
X29302341Y-117865795D01*
X29247118Y-117810741D01*
X29194136Y-117757939D01*
X29143498Y-117707492D01*
X29095306Y-117659501D01*
X29049663Y-117614069D01*
X29006671Y-117571296D01*
X28966432Y-117531286D01*
X28929049Y-117494140D01*
X28894623Y-117459959D01*
X28863258Y-117428847D01*
X28835056Y-117400904D01*
X28810119Y-117376232D01*
X28788549Y-117354934D01*
X28770449Y-117337111D01*
X28755920Y-117322866D01*
X28745067Y-117312300D01*
X28737990Y-117305515D01*
X28734792Y-117302613D01*
X28734708Y-117302552D01*
X28718693Y-117293779D01*
X28703673Y-117290143D01*
X28688591Y-117291621D01*
D11*
X43274251Y-48891646D03*
X45070302Y-50687698D03*
X41478200Y-50687698D03*
X43274251Y-52483749D03*
X39682149Y-52483749D03*
X41478200Y-54279800D03*
D12*
G36*
X41478200Y-55752562D02*
G01*
X40005438Y-54279800D01*
X41478200Y-52807038D01*
X42950962Y-54279800D01*
X41478200Y-55752562D01*
X41478200Y-55752562D01*
G37*
D13*
X57531000Y-52070000D03*
X68580000Y-113157000D03*
X81534000Y-87503000D03*
X45974000Y-97282000D03*
D14*
X56896000Y-58801000D03*
D15*
X44196000Y-58801000D03*
D16*
X39185000Y-79477876D03*
X39185000Y-81174596D03*
X40960000Y-79477876D03*
X40960000Y-81174596D03*
X42735000Y-79477876D03*
X42735000Y-81174596D03*
X44510000Y-79477876D03*
X44510000Y-81174596D03*
X46285000Y-79477876D03*
X46285000Y-81174596D03*
X48060000Y-79477876D03*
X48060000Y-81174596D03*
X49835000Y-79477876D03*
X49835000Y-81174596D03*
X51610000Y-79477876D03*
X51610000Y-81174596D03*
X53385000Y-79477876D03*
X53385000Y-81174596D03*
X55160000Y-79477876D03*
X55160000Y-81174596D03*
X56935000Y-79477876D03*
X56935000Y-81174596D03*
X58710000Y-79477876D03*
X58710000Y-81174596D03*
X60485000Y-79477876D03*
X60485000Y-81174596D03*
X62260000Y-79477876D03*
X62260000Y-81174596D03*
X64035000Y-79477876D03*
X64035000Y-81174596D03*
X65810000Y-79477876D03*
X65810000Y-81174596D03*
X67585000Y-79477876D03*
X67585000Y-81174596D03*
X69360000Y-79477876D03*
X69360000Y-81174596D03*
X71135000Y-79477876D03*
X71135000Y-81174596D03*
X72910000Y-79477876D03*
X72910000Y-81174596D03*
X74685000Y-79477876D03*
X74685000Y-81174596D03*
X76460000Y-79477876D03*
X76460000Y-81174596D03*
X78235000Y-79477876D03*
X78235000Y-81174596D03*
D11*
X31496000Y-110490000D03*
X28956000Y-110490000D03*
X31496000Y-113030000D03*
X28956000Y-113030000D03*
X31496000Y-115570000D03*
X28956000Y-115570000D03*
D16*
X65786000Y-100289360D03*
X65786000Y-98592640D03*
D17*
X70698360Y-54356000D03*
X69001640Y-54356000D03*
D16*
X71628000Y-98541640D03*
X71628000Y-100238360D03*
X80518000Y-91099640D03*
X80518000Y-92796360D03*
X68834000Y-51902360D03*
X68834000Y-50205640D03*
X80772000Y-111592360D03*
X80772000Y-109895640D03*
X65786000Y-92796360D03*
X65786000Y-91099640D03*
X51562000Y-91099640D03*
X51562000Y-92796360D03*
D11*
X93349327Y-72930870D03*
X94252073Y-75318582D03*
X94664128Y-77837773D03*
X95566874Y-80225485D03*
X23236673Y-81820870D03*
X23648728Y-79301678D03*
X24551473Y-76913967D03*
X24963529Y-74394775D03*
X25866274Y-72007064D03*
D16*
X80010000Y-81174596D03*
X80010000Y-79477876D03*
D18*
X70172000Y-109988000D03*
D19*
X77222000Y-111438000D03*
D18*
X78672000Y-104388000D03*
D19*
X71622000Y-102938000D03*
X72422000Y-102938000D03*
X73222000Y-102938000D03*
X74022000Y-102938000D03*
X74822000Y-102938000D03*
X75622000Y-102938000D03*
X76422000Y-102938000D03*
X77222000Y-102938000D03*
D18*
X78672000Y-105188000D03*
X78672000Y-105988000D03*
X78672000Y-106788000D03*
X78672000Y-107588000D03*
X78672000Y-108388000D03*
X78672000Y-109188000D03*
X78672000Y-109988000D03*
D19*
X76422000Y-111438000D03*
X75622000Y-111438000D03*
X74822000Y-111438000D03*
X74022000Y-111438000D03*
X73222000Y-111438000D03*
X72422000Y-111438000D03*
X71622000Y-111438000D03*
D18*
X70172000Y-109188000D03*
X70172000Y-108388000D03*
X70172000Y-107588000D03*
X70172000Y-106788000D03*
X70172000Y-105988000D03*
X70172000Y-105188000D03*
X70172000Y-104388000D03*
D20*
X59944000Y-52070000D03*
D21*
X66244000Y-52070000D03*
X66244000Y-54370000D03*
X66244000Y-49770000D03*
D22*
X69977000Y-89248000D03*
X71247000Y-89248000D03*
X72517000Y-89248000D03*
X73787000Y-89248000D03*
X75057000Y-89248000D03*
X76327000Y-89248000D03*
X77597000Y-89248000D03*
X78867000Y-89248000D03*
X78867000Y-94648000D03*
X77597000Y-94648000D03*
X76327000Y-94648000D03*
X75057000Y-94648000D03*
X73787000Y-94648000D03*
X72517000Y-94648000D03*
X71247000Y-94648000D03*
X69977000Y-94648000D03*
X55245000Y-94648000D03*
X56515000Y-94648000D03*
X57785000Y-94648000D03*
X59055000Y-94648000D03*
X60325000Y-94648000D03*
X61595000Y-94648000D03*
X62865000Y-94648000D03*
X64135000Y-94648000D03*
X64135000Y-89248000D03*
X62865000Y-89248000D03*
X61595000Y-89248000D03*
X60325000Y-89248000D03*
X59055000Y-89248000D03*
X57785000Y-89248000D03*
X56515000Y-89248000D03*
X55245000Y-89248000D03*
X41021000Y-89248000D03*
X42291000Y-89248000D03*
X43561000Y-89248000D03*
X44831000Y-89248000D03*
X46101000Y-89248000D03*
X47371000Y-89248000D03*
X48641000Y-89248000D03*
X49911000Y-89248000D03*
X49911000Y-94648000D03*
X48641000Y-94648000D03*
X47371000Y-94648000D03*
X46101000Y-94648000D03*
X44831000Y-94648000D03*
X43561000Y-94648000D03*
X42291000Y-94648000D03*
X41021000Y-94648000D03*
D23*
X67607000Y-98591000D03*
X69807000Y-98591000D03*
X69807000Y-100291000D03*
X67607000Y-100291000D03*
M02*
