<?xml version="1.0" encoding="UTF-8" standalone="no"?>
<!-- Created with Inkscape (http://www.inkscape.org/) -->

<svg
   xmlns:dc="http://purl.org/dc/elements/1.1/"
   xmlns:cc="http://creativecommons.org/ns#"
   xmlns:rdf="http://www.w3.org/1999/02/22-rdf-syntax-ns#"
   xmlns:svg="http://www.w3.org/2000/svg"
   xmlns="http://www.w3.org/2000/svg"
   xmlns:sodipodi="http://sodipodi.sourceforge.net/DTD/sodipodi-0.dtd"
   xmlns:inkscape="http://www.inkscape.org/namespaces/inkscape"
   inkscape:version="0.92.4 5da689c313, 2019-01-14"
   sodipodi:docname="oldschoolcylon2_dose.svg"
   id="svg8"
   version="1.1"
   viewBox="0 0 130.0 130.0"
   height="130.0mm"
   width="130.0mm">
  <defs
     id="defs2" />
  <sodipodi:namedview
     id="base"
     pagecolor="#ffffff"
     bordercolor="#666666"
     borderopacity="1.0"
     inkscape:pageopacity="0.0"
     inkscape:pageshadow="2"
     inkscape:zoom="1.3066667"
     inkscape:cx="92.959192"
     inkscape:cy="535.71429"
     inkscape:document-units="mm"
     inkscape:current-layer="g1180"
     showgrid="true"
     inkscape:window-width="1920"
     inkscape:window-height="2096"
     inkscape:window-x="1920"
     inkscape:window-y="27"
     inkscape:window-maximized="0"
     borderlayer="true">
    <inkscape:grid
       id="grid1172"
       units="mm"
       type="xygrid"
       empspacing="1"
       spacingy="2.54"
       spacingx="2.54" />
  </sodipodi:namedview>
  <metadata
     id="metadata5">
    <rdf:RDF>
      <cc:Work
         rdf:about="">
        <dc:format>image/svg+xml</dc:format>
        <dc:type
           rdf:resource="http://purl.org/dc/dcmitype/StillImage" />
      </cc:Work>
    </rdf:RDF>
  </metadata>
  <g
     id="g1178"
     sodipodi:insensitive="true"
     inkscape:groupmode="layer"
     inkscape:label="[fixed] BG">
    <rect
       id="rect1176"
       style="fill:#ffffff;fill-opacity:1;stroke:none"
       height="130"
       width="130"
       y="0"
       x="0" />
  </g>
  <g
     id="g1180"
     inkscape:groupmode="layer"
     inkscape:label="Edge.Cuts"
     style="display:inline">
    <path
       inkscape:label="boardoutline"
       style="fill:#000000;stroke-width:0.05663427"
       d="m 44.746,1.7313566 -0.884128,5.922e-4 -0.883714,0.026499 -0.882554,0.05615 -0.879309,0.08911 -0.875475,0.1247069 -0.86979,0.1615544 -0.861676,0.1978137 -0.463061,0.1235835 -0.432104,0.1304156 -0.4544,0.1569505 -0.416637,0.1668163 -0.436567,0.2061019 -0.38937,0.2209226 -0.393607,0.2749338 -0.33578,0.2972148 -0.146879,0.1537849 -0.116257,0.1408537 -0.0924,0.1421101 -0.07532,0.1575541 -0.09616,0.2979033 -0.09588,0.4137269 -0.0631,0.3354274 -0.03741,0.3387807 -0.02096,0.6827527 -8.91e-4,0.6817892 0.01224,0.9276481 0.03122,0.9279028 0.046,0.9260253 0.0563,0.925945 0.06316,0.924828 0.06794,0.925636 0.0712,0.925286 0.07348,0.924575 0.07513,0.923919 0.07648,0.92509 0.07733,0.923956 0.07812,0.924677 0.07853,0.923072 0.07736,0.907514 0.07716,0.907317 0.07691,0.906965 0.0767,0.907592 0.07631,0.906928 0.07587,0.907085 0.07519,0.907133 0.07391,0.907177 0.0674,0.907662 -0.0058,0.0356 -0.02056,0.03348 -0.104362,0.06994 -0.220221,0.08944 -0.37393,0.127585 -0.919113,0.323474 -0.905212,0.358316 -0.892623,0.392318 -0.877209,0.423862 -0.860914,0.453749 -0.845646,0.483169 -0.828997,0.510975 -0.812864,0.538414 -0.794151,0.563515 -0.776297,0.588665 -0.757505,0.612731 -0.737835,0.635776 -0.718086,0.658569 -0.696845,0.679893 -0.667901,0.692976 -0.647732,0.712543 -0.627246,0.729066 -0.60813,0.744803 -0.590818,0.76086 -0.572131,0.773474 -0.554853,0.786485 -0.537824,0.798664 -0.520874,0.809965 -0.50361,0.819914 -0.486771,0.82987 -0.470236,0.839925 -0.453216,0.848873 -0.436576,0.858513 -0.419289,0.867094 -0.401367,0.874696 -0.383576,0.883197 -0.364931,0.890669 -0.345457,0.897243 -0.325843,0.905038 -0.305443,0.912874 -0.296237,0.920169 -0.346707,0.0021 -0.392288,0.01781 -0.427143,0.04806 -0.40451,0.06807 -0.402773,0.08902 -0.237421,0.07044 -0.225035,0.0919 -0.217064,0.117217 -0.213506,0.146398 -0.169881,0.139552 -0.172628,0.162306 -0.3623293,0.400598 -0.287045,0.363516 L 9.186082,55.38703 8.6443868,56.201138 8.1405825,57.04047 7.6672196,57.89735 7.2198789,58.767155 6.7949645,59.64875 6.3912112,60.539547 6.007201,61.439592 5.6431598,62.347044 5.2990083,63.262488 4.9758924,64.185223 4.6755273,65.115044 4.399961,66.054001 4.1440174,67.015388 3.9141646,67.982552 3.7181901,68.957875 3.5616579,69.94024 l -0.1170023,0.988593 -0.08217,0.991714 -0.054703,0.992867 -0.03459,0.993576 -0.020504,0.995769 -0.00758,0.946867 0.00516,0.947325 0.017183,0.946326 0.028954,0.946493 0.040871,0.945806 0.053534,0.946445 0.067373,0.944099 0.083806,0.943998 0.1043458,0.940079 0.1340816,0.937074 0.091177,0.500985 0.096274,0.427657 0.058516,0.197522 0.071527,0.180508 0.085609,0.164421 0.1007613,0.149263 0.1198863,0.13799 0.1380146,0.124089 0.1572897,0.111181 0.1777117,0.09927 0.3309427,0.136963 0.3912956,0.112923 0.5507346,0.110253 0.5567864,0.07952 0.3675828,0.02454 0.5294239,0.01718 0.8983718,0.01147 0.898798,-5.43e-4 0.9000126,-0.0092 0.899313,-0.01728 0.897885,-0.02612 0.96057,-0.02891 0.962626,-0.02018 0.961515,-0.01086 0.96121,0.002 0.680071,0.01883 0.19566,0.01578 0.08279,0.02002 0.02185,0.07258 0.0169,0.158923 0.01928,0.516068 -6.06e-4,0.753975 -0.02122,0.75346 -0.0514,0.750232 -0.05434,0.387829 -0.124668,0.513148 -0.272429,0.878913 -0.289845,0.871961 -0.295554,0.870575 -0.297969,0.869908 -0.299587,0.870844 -0.299969,0.870018 -0.300289,0.869964 -0.300137,0.869086 -0.322057,0.932921 -0.321936,0.93358 -0.32128,0.932802 -0.321018,0.93333 -0.320776,0.93406 -0.320212,0.93406 -0.3196,0.93412 -0.318503,0.93304 -0.318041,0.9341 -0.316945,0.93369 -0.316343,0.93516 -0.315158,0.93544 -0.31384,0.93598 -0.3122832,0.93663 -0.3104609,0.93748 -0.3081332,0.93809 -0.3050469,0.93802 -0.3017864,0.93956 -0.297526,0.94082 -0.2922115,0.94258 -0.2852846,0.94435 -0.2765739,0.94736 -0.2650022,0.9503 -0.2502693,0.9545 -0.2356654,0.96332 -0.1184932,0.54317 -0.074557,0.42794 -0.031734,0.29147 -0.00647,0.24961 0.016283,0.22542 0.036529,0.21893 0.057685,0.23384 0.074401,0.2113 0.095749,0.19147 0.1217292,0.17435 0.1337878,0.14283 0.1612394,0.13335 0.191946,0.12578 0.2259076,0.12011 0.3754142,0.16068 0.4556045,0.15853 0.856702,0.24592 0.864831,0.21664 0.879976,0.2024 0.883782,0.18712 0.885715,0.1737 0.888125,0.16155 0.890801,0.14979 0.892145,0.13746 0.895043,0.12422 0.896962,0.10846 0.899,0.0882 0.962688,0.0833 0.623723,0.0119 0.622409,-0.004 0.471961,-0.014 0.426654,-0.0299 0.473937,-0.0611 0.412117,-0.0893 0.234735,-0.0733 0.212602,-0.0864 0.191815,-0.1 0.172372,-0.11413 0.169766,-0.14347 0.149414,-0.16217 0.130888,-0.18161 0.114186,-0.20177 0.170456,-0.37412 0.219585,-0.54441 0.348871,-0.93447 0.336027,-0.94136 0.328799,-0.94284 0.32432,-0.94326 0.322099,-0.94564 0.252154,-0.73995 0.254021,-0.73816 0.261897,-0.73589 0.04873,-0.0448 0.102094,-0.0338 0.423333,-0.0472 0.723728,-0.0494 0.722079,-0.0498 0.722918,-0.0502 0.969506,-0.0656 0.970997,-0.0621 0.970745,-0.0587 0.971163,-0.0554 0.971566,-0.0523 0.971236,-0.0492 0.971751,-0.0461 0.971902,-0.0431 0.970497,-0.04 0.97214,-0.037 0.970599,-0.0339 0.970978,-0.0307 0.971285,-0.0274 0.971811,-0.024 0.97236,-0.0204 0.972683,-0.0166 0.971146,-0.0124 0.971623,-0.008 0.971872,-0.003 0.970797,0.003 0.971324,0.01 0.972696,0.0183 0.971575,0.0287 0.969937,0.0384 0.968637,0.0452 0.968939,0.0519 0.96913,0.0584 0.967535,0.0645 0.968131,0.0706 0.967682,0.0765 0.967805,0.0823 0.966013,0.0879 0.965686,0.0935 0.964828,0.099 0.964938,0.10452 0.963521,0.10987 0.963232,0.11532 0.962482,0.12073 0.963391,0.12637 0.962193,0.13177 0.762853,0.10891 0.761658,0.11268 0.761783,0.11711 0.756616,0.13209 0.271169,0.71043 0.266383,0.71244 0.264758,0.71198 0.297161,0.79974 0.298496,0.79847 0.302591,0.79738 0.312817,0.79307 0.190199,0.44705 0.158046,0.33092 0.140295,0.244 0.129317,0.17169 0.130011,0.125 0.142377,0.1039 0.16639,0.0999 0.178417,0.0827 0.198659,0.0667 0.227113,0.0521 0.370596,0.0498 0.459701,0.0284 0.834354,0.01 0.950855,-0.0266 0.948352,-0.0571 0.946495,-0.0772 0.94508,-0.0926 0.944276,-0.10558 0.943399,-0.11725 0.942034,-0.12833 0.941262,-0.13959 0.938818,-0.15132 0.93511,-0.16433 0.932644,-0.18032 0.930195,-0.20158 0.868616,-0.21585 0.480586,-0.14687 0.365205,-0.14771 0.216018,-0.11983 0.176228,-0.13236 0.147866,-0.1501 0.130931,-0.17303 0.07771,-0.13308 0.06746,-0.15265 0.09992,-0.34441 0.04533,-0.34597 0.0022,-0.16904 -0.01264,-0.16079 -0.064,-0.36516 -0.110844,-0.48667 -0.22119,-0.84079 -0.240203,-0.836 -0.252317,-0.83278 -0.261478,-0.8302 -0.269104,-0.8279 -0.275676,-0.82506 -0.313537,-0.91888 -0.317294,-0.91752 -0.320566,-0.91728 -0.322437,-0.91476 -0.3249,-0.91509 -0.326444,-0.91372 -0.328496,-0.91441 -0.329987,-0.91403 -0.330956,-0.91261 -0.33209,-0.91197 -0.333224,-0.9116 -0.334142,-0.91083 -0.335221,-0.91069 -0.336071,-0.91006 -0.337397,-0.91082 -0.338516,-0.91113 -0.338741,-0.9091 -0.340119,-0.910213 -0.340718,-0.909306 -0.341858,-0.909863 -0.342259,-0.908474 -0.343185,-0.90849 -0.343836,-0.90778 -0.344518,-0.907139 -0.345504,-0.907277 -0.346741,-0.908037 -0.346888,-0.905904 -0.348205,-0.906772 -0.250122,-0.650675 -0.250718,-0.652225 -0.25031,-0.651163 3.6e-4,-0.547535 0.01407,-0.354809 0.04745,-0.326013 0.08445,-0.311462 0.130433,-0.337844 0.30017,-0.615641 0.238417,-0.418994 0.107979,-0.146029 0.11332,-0.114125 0.136136,-0.09453 0.164166,-0.07684 0.203534,-0.06835 0.254238,-0.06905 0.426933,-0.09508 0.507179,-0.07696 0.948184,-0.08452 0.950328,-0.0536 0.950063,-0.04176 0.950145,-0.03633 0.949753,-0.03354 0.950785,-0.03207 0.849626,-0.03377 0.847615,-0.05446 0.445424,-0.04556 0.397517,-0.05688 0.415432,-0.08015 0.413616,-0.100779 0.406263,-0.13041 0.341642,-0.161237 0.170837,-0.108747 0.156034,-0.122575 0.143512,-0.137773 0.133272,-0.154343 0.105171,-0.152206 0.08857,-0.172246 0.07223,-0.196709 0.05614,-0.225596 0.05179,-0.369653 0.02193,-0.445808 -0.02059,-0.820009 -0.06051,-0.818868 -0.08037,-0.816946 -0.111701,-0.983862 -0.125295,-0.983079 -0.13844,-0.982021 L 91.284443,75.596457 91.120802,74.619055 90.944524,73.643388 90.755806,72.67132 90.554011,71.701171 90.33878,70.733728 90.109616,69.77 89.86534,68.809276 89.604844,67.852655 89.326797,66.901972 89.028433,65.956476 88.707043,65.018964 88.394669,64.161157 88.072222,63.307536 87.737628,62.458728 87.389226,61.615879 87.025902,60.779877 86.647341,59.9517 86.25419,59.129791 85.851643,58.324729 85.432776,57.5292 84.992879,56.744205 84.526951,55.974704 84.027741,55.228681 83.75113,54.853727 83.480599,54.515796 83.168158,54.163523 82.863996,53.862781 82.495081,53.558925 82.315325,53.436999 82.13866,53.335015 81.782344,53.173887 81.36116,53.028395 l -0.391755,-0.107396 -0.42135,-0.0932 -0.4072,-0.07181 -0.420808,-0.05737 -0.415704,-0.0407 -0.418413,-0.02495 -0.83375,-0.03318 -0.0885,-0.317324 L 77.717538,51.480997 77.448465,50.685813 77.15861,49.89839 76.780273,48.984429 76.375264,48.081001 75.950933,47.187052 75.510721,46.300476 75.057269,45.42121 74.591572,44.548056 74.114486,43.680964 73.627065,42.821207 73.128016,41.96681 72.617776,41.119749 72.094905,40.279872 71.557634,39.447991 71.00503,38.628227 70.465758,37.866743 69.907718,37.118513 69.330487,36.38547 68.732216,35.667806 68.113221,34.968359 67.472769,34.288558 66.81041,33.630046 66.125321,32.993981 65.418207,32.382726 64.689868,31.79827 63.939695,31.241144 63.170397,30.713952 62.38099,30.216257 61.572131,29.74855 60.74733,29.312464 59.952559,28.930048 59.143362,28.578651 58.320709,28.258445 57.488161,27.969271 56.64625,27.708833 55.795359,27.474362 54.94016,27.263943 54.0787,27.073917 53.46998,26.946711 v -0.233326 l 0.04274,-0.917346 0.04679,-0.917302 0.04766,-0.916624 0.04824,-0.916774 0.04866,-0.916395 0.04902,-0.915832 0.05259,-0.980834 0.05244,-0.982515 0.05205,-0.981085 0.05165,-0.980896 0.05119,-0.982044 0.05055,-0.98263 0.04958,-0.981055 0.04838,-0.981312 0.0467,-0.981011 0.0444,-0.982848 0.04085,-0.98213 L 54.32892,9.4316358 54.3556,8.4489046 54.36795,7.4664373 54.35905,6.4835026 54.330997,5.5549281 54.288212,5.0120289 54.21558,4.6352146 54.14209,4.3982334 54.047888,4.1753574 53.932141,3.9659667 53.794013,3.7694412 53.643877,3.5967781 53.472761,3.4343137 53.279985,3.2815412 53.064864,3.1379538 52.659894,2.9200725 52.189366,2.7234823 51.749488,2.5756637 51.26116,2.4395296 50.361305,2.2319116 49.450794,2.0681809 48.53524,1.9474143 47.615383,1.8614513 46.692818,1.8009833 45.76987,1.7582203 l -0.510862,-0.016853 -0.512997,-0.010107 -1.1e-5,9.7e-5"
       id="path1035"
       inkscape:connector-curvature="0" />
  </g>
  <g
     id="g1182"
     inkscape:groupmode="layer"
     inkscape:label="B.Cu-disabled"
     style="display:inline" />
  <g
     id="g1186"
     inkscape:groupmode="layer"
     inkscape:label="B.Silk-disabled"
     style="display:inline" />
  <g
     id="g1184"
     inkscape:groupmode="layer"
     inkscape:label="B.Mask-disabled"
     style="display:inline" />
  <g
     id="g1188"
     inkscape:groupmode="layer"
     inkscape:label="F.Cu"
     style="display:inline">
    <path
       inkscape:label="cu"
       inkscape:connector-curvature="0"
       id="path1023"
       d="m 46.36234,61.746609 c -0.25001,0.0016 -0.49521,0.0047 -0.73627,0.0097 -6.024478,0.124524 -12.349896,0.774919 -19.345661,1.988974 -5.16089,0.895616 -10.62858,2.201191 -12.065892,2.881144 -0.357298,0.169034 -0.818607,0.612014 -1.140704,1.095769 -0.645805,0.969928 -1.253926,2.6522 -1.541336,4.263474 -0.255518,1.432481 -0.126209,5.170777 0.199797,5.779912 0.08645,0.161542 0.0611,0.16682 2.631572,-0.569314 6.490228,-1.85869 9.767063,-2.684752 16.055938,-4.048115 2.740244,-0.594051 4.366985,-0.878371 5.029472,-0.87904 0.284898,-3.48e-4 0.317511,0.01525 0.618054,0.296935 0.448431,0.420296 1.543221,1.707905 2.555179,3.005581 1.009899,1.29504 1.324011,1.655147 1.543755,1.768782 0.186134,0.09626 1.209411,0.220974 2.543081,0.310066 1.435246,0.09586 8.412295,0.138992 9.783095,0.06047 1.20089,-0.06877 1.74509,-0.141682 1.87802,-0.251303 0.0436,-0.03599 0.35992,-0.485989 0.70309,-1.000018 1.08012,-1.617916 1.98831,-2.745977 2.97447,-3.695192 0.53666,-0.516592 0.54163,-0.518946 1.05705,-0.497073 0.37142,0.01572 1.56376,0.261557 3.99247,0.82338 8.12335,1.879125 16.95819,3.650301 18.21775,3.651639 0.28052,3.55e-4 0.29568,-0.0073 0.35328,-0.183548 0.15352,-0.469755 0.20078,-1.148182 0.19945,-2.845886 -10e-4,-1.37925 -0.0231,-1.895233 -0.10094,-2.406888 C 81.4843,69.447355 80.84947,67.294064 80.35811,66.52823 80.13523,66.18086 79.96128,66.102882 78.69027,65.781934 75.47508,64.970025 67.98143,63.722617 61.37022,62.898716 54.89294,62.091504 50.11257,61.723767 46.36234,61.746605 Z m -4.169099,1.527853 c 0.588844,-0.0076 1.085371,0.01953 1.790215,0.07777 1.590574,0.131454 4.665534,0.169007 6.218224,0.0757 0.72293,-0.04348 1.60726,-0.07447 1.96547,-0.06879 1.23983,0.01967 5.92847,0.496646 9.96768,1.013846 6.86795,0.879413 14.85245,2.243882 16.75108,2.862823 0.41928,0.136678 0.44799,0.180138 0.80472,1.214678 0.49046,1.422411 0.71699,2.607035 0.80057,4.186389 0.033,0.622974 0.0421,1.472622 0.0204,1.888382 l -0.0394,0.755974 -0.26305,-0.03839 c -1.38587,-0.203368 -5.89715,-1.0799 -9.77723,-1.899447 -2.66378,-0.562639 -3.59041,-0.768843 -7.24935,-1.612538 -2.55701,-0.589609 -3.46989,-0.781031 -4.04916,-0.848965 -0.3696,-0.04335 -1.00585,0.08863 -1.29867,0.269276 -0.82637,0.509782 -2.22589,2.109965 -3.65855,4.183281 l -0.6509,0.941944 -0.38161,0.03559 c -0.64041,0.05926 -7.54591,0.08383 -8.933453,0.03184 -1.697616,-0.06367 -3.3792,-0.207903 -3.462557,-0.296922 -0.03537,-0.03779 -0.504526,-0.629302 -1.042534,-1.314579 -1.576971,-2.008626 -2.600975,-3.167203 -3.097533,-3.504379 -0.748589,-0.508311 -1.744586,-0.424691 -6.046427,0.508818 -6.497436,1.409966 -10.521549,2.417644 -16.36704,4.097895 -0.654093,0.188017 -1.230226,0.341866 -1.28001,0.341866 -0.07539,0 -0.09663,-0.106376 -0.127206,-0.637062 -0.154834,-2.687106 0.140172,-4.4455 1.066042,-6.357181 0.470922,-0.972335 0.685454,-1.213369 1.287613,-1.445587 4.187352,-1.614813 15.882175,-3.664788 24.708704,-4.331222 1.07408,-0.08109 1.755132,-0.123451 2.343975,-0.131008 z"
       style="display:inline;fill:#1b1f1d;fill-opacity:1;stroke-width:0.05663427" />
  </g>
  <g
     id="g1190"
     inkscape:groupmode="layer"
     inkscape:label="F.Mask"
     style="display:inline">
    <path
       inkscape:label="cu"
       inkscape:connector-curvature="0"
       id="path17"
       d="m 46.36234,61.746609 c -0.25001,0.0016 -0.49521,0.0047 -0.73627,0.0097 -6.024478,0.124524 -12.349896,0.774919 -19.345661,1.988974 -5.16089,0.895616 -10.62858,2.201191 -12.065892,2.881144 -0.357298,0.169034 -0.818607,0.612014 -1.140704,1.095769 -0.645805,0.969928 -1.253926,2.6522 -1.541336,4.263474 -0.255518,1.432481 -0.126209,5.170777 0.199797,5.779912 0.08645,0.161542 0.0611,0.16682 2.631572,-0.569314 6.490228,-1.85869 9.767063,-2.684752 16.055938,-4.048115 2.740244,-0.594051 4.366985,-0.878371 5.029472,-0.87904 0.284898,-3.48e-4 0.317511,0.01525 0.618054,0.296935 0.448431,0.420296 1.543221,1.707905 2.555179,3.005581 1.009899,1.29504 1.324011,1.655147 1.543755,1.768782 0.186134,0.09626 1.209411,0.220974 2.543081,0.310066 1.435246,0.09586 8.412295,0.138992 9.783095,0.06047 1.20089,-0.06877 1.74509,-0.141682 1.87802,-0.251303 0.0436,-0.03599 0.35992,-0.485989 0.70309,-1.000018 1.08012,-1.617916 1.98831,-2.745977 2.97447,-3.695192 0.53666,-0.516592 0.54163,-0.518946 1.05705,-0.497073 0.37142,0.01572 1.56376,0.261557 3.99247,0.82338 8.12335,1.879125 16.95819,3.650301 18.21775,3.651639 0.28052,3.55e-4 0.29568,-0.0073 0.35328,-0.183548 0.15352,-0.469755 0.20078,-1.148182 0.19945,-2.845886 -10e-4,-1.37925 -0.0231,-1.895233 -0.10094,-2.406888 C 81.4843,69.447355 80.84947,67.294064 80.35811,66.52823 80.13523,66.18086 79.96128,66.102882 78.69027,65.781934 75.47508,64.970025 67.98143,63.722617 61.37022,62.898716 54.89294,62.091504 50.11257,61.723767 46.36234,61.746605 Z m -4.169099,1.527853 c 0.588844,-0.0076 1.085371,0.01953 1.790215,0.07777 1.590574,0.131454 4.665534,0.169007 6.218224,0.0757 0.72293,-0.04348 1.60726,-0.07447 1.96547,-0.06879 1.23983,0.01967 5.92847,0.496646 9.96768,1.013846 6.86795,0.879413 14.85245,2.243882 16.75108,2.862823 0.41928,0.136678 0.44799,0.180138 0.80472,1.214678 0.49046,1.422411 0.71699,2.607035 0.80057,4.186389 0.033,0.622974 0.0421,1.472622 0.0204,1.888382 l -0.0394,0.755974 -0.26305,-0.03839 c -1.38587,-0.203368 -5.89715,-1.0799 -9.77723,-1.899447 -2.66378,-0.562639 -3.59041,-0.768843 -7.24935,-1.612538 -2.55701,-0.589609 -3.46989,-0.781031 -4.04916,-0.848965 -0.3696,-0.04335 -1.00585,0.08863 -1.29867,0.269276 -0.82637,0.509782 -2.22589,2.109965 -3.65855,4.183281 l -0.6509,0.941944 -0.38161,0.03559 c -0.64041,0.05926 -7.54591,0.08383 -8.933453,0.03184 -1.697616,-0.06367 -3.3792,-0.207903 -3.462557,-0.296922 -0.03537,-0.03779 -0.504526,-0.629302 -1.042534,-1.314579 -1.576971,-2.008626 -2.600975,-3.167203 -3.097533,-3.504379 -0.748589,-0.508311 -1.744586,-0.424691 -6.046427,0.508818 -6.497436,1.409966 -10.521549,2.417644 -16.36704,4.097895 -0.654093,0.188017 -1.230226,0.341866 -1.28001,0.341866 -0.07539,0 -0.09663,-0.106376 -0.127206,-0.637062 -0.154834,-2.687106 0.140172,-4.4455 1.066042,-6.357181 0.470922,-0.972335 0.685454,-1.213369 1.287613,-1.445587 4.187352,-1.614813 15.882175,-3.664788 24.708704,-4.331222 1.07408,-0.08109 1.755132,-0.123451 2.343975,-0.131008 z"
       style="display:inline;fill:#1b1f1d;fill-opacity:1;stroke-width:0.05663427" />
  </g>
  <g
     id="g1192"
     inkscape:groupmode="layer"
     inkscape:label="F.Silk"
     style="display:inline">
    <path
       inkscape:label="Silkscreen"
       inkscape:connector-curvature="0"
       id="path1010"
       d="m 44.260683,3.2032166 c -3.450284,0.01318 -6.174925,0.553475 -7.611268,1.528888 -0.514221,0.349204 -0.552235,0.43656 -0.628769,1.444547 -0.109035,1.436042 0.08323,4.7528604 0.685459,11.8363684 0.495281,5.825541 0.685255,8.111852 0.847232,10.1941 0.486413,6.252817 0.845184,12.865863 1.13241,20.869713 0.09186,2.559821 0.194607,7.614037 0.155551,7.653093 -0.05381,0.05381 -1.721248,0.121755 -4.616744,0.188044 -3.772959,0.08638 -4.011859,0.06508 -11.040987,-0.991722 -6.609205,-0.993672 -9.242665,-1.287442 -10.647616,-1.187716 -0.849294,0.06029 -1.016703,0.132386 -1.485681,0.640178 -1.455814,1.576302 -3.482059,5.620659 -4.787503,9.555996 -0.87215,2.629138 -1.21143,4.280437 -1.443165,7.022594 -0.100029,1.183627 -0.134756,5.033766 -0.06049,6.711147 0.136407,3.080987 0.443118,6.035818 0.6623,6.383109 0.268965,0.426175 1.756633,0.478229 8.800711,0.307644 1.750293,-0.04241 3.161227,0.0033 3.482261,0.11338 0.404822,0.138324 0.609307,0.673919 0.710693,1.861419 0.06262,0.733365 0.0077,2.119792 -0.120291,3.040498 -0.08867,0.637824 -0.417278,1.637548 -2.882874,8.767178 -6.07969,17.580325 -7.870089,23.445935 -7.311226,23.951695 0.633497,0.57331 6.516142,1.77699 10.114249,2.06951 0.404937,0.0329 0.838092,0.0697 0.962687,0.0819 v -3.5e-4 c 0.124595,0.0124 0.710994,0.0148 1.302824,0.005 1.482845,-0.0233 1.630622,-0.0775 1.915,-0.70067 0.439211,-0.96249 1.877922,-5.12595 4.089599,-11.8343 5.399322,-16.376948 6.78523,-20.511927 7.984935,-23.824135 0.789397,-2.179412 1.22603,-3.248294 1.421732,-3.480874 0.390039,-0.46354 1.613054,-0.681317 4.495761,-0.801259 1.781793,-0.07411 9.807317,-0.03418 12.062777,0.06014 3.4489,0.144196 5.39393,0.400315 6.21995,0.818891 0.49727,0.251985 0.93991,0.917335 1.92917,2.900502 2.08085,4.171468 5.11552,11.854145 11.30578,28.621325 1.62527,4.40224 2.38578,6.42476 2.62223,6.97247 0.0726,0.16815 0.16015,0.27549 0.24578,0.30212 0.26033,0.081 1.73444,0.10035 2.70969,0.0356 3.93863,-0.26161 9.78537,-1.16734 11.0517,-1.7121 0.27261,-0.11718 0.27537,-0.12072 0.2748,-0.38024 -0.002,-1.40999 -3.94628,-12.63591 -10.11078,-28.777562 -1.67185,-4.377653 -1.65981,-4.343693 -1.71901,-4.872539 -0.12612,-1.127311 0.27462,-2.485517 1.10198,-3.733908 0.39162,-0.590894 0.94137,-0.887502 2.09234,-1.128951 1.19888,-0.251503 1.76359,-0.290326 6.71011,-0.459045 2.30463,-0.07861 3.30117,-0.242486 3.53929,-0.582452 0.33851,-0.483294 -0.34577,-6.267193 -1.25028,-10.567767 -0.69055,-3.283265 -1.49808,-5.908881 -2.81823,-9.165046 -1.59279,-3.928636 -3.35785,-7.048585 -4.5763,-8.088636 -0.66076,-0.564015 -1.70918,-0.76105 -4.05054,-0.761853 -2.54358,-8.7e-4 -4.60209,0.199978 -11.26049,1.099225 -3.80375,0.513714 -9.04377,1.200256 -10.22245,1.339464 -1.40487,0.165926 -3.40826,0.209331 -3.93612,0.08503 -1.10615,-0.26047 -1.13392,-0.395118 -1.12964,-5.46916 0.001,-1.946806 0.0343,-4.367991 0.0726,-5.380325 0.1345,-3.558037 0.29155,-7.876825 0.40512,-11.128786 0.1623,-4.646852 0.17354,-4.879254 0.84827,-17.584831 0.28742,-5.41195 0.34513,-6.798471 0.3799,-9.1461784 0.0354,-2.38965 0.002,-2.929031 -0.19773,-3.198121 -0.59973,-0.80846 -3.02899,-1.327801 -6.90542,-1.476004 -0.52087,-0.01993 -1.028379,-0.0285 -1.521276,-0.02662 z M 53.34,28.400003 c -0.1362,-0.0057 -0.0968,0.05892 -0.0971,0.184932 -3.5e-4,0.119285 -0.0254,0.701317 -0.0556,1.293145 -0.0302,0.591828 -0.10708,2.566741 -0.17077,4.388948 -0.0637,1.822208 -0.17803,5.007885 -0.25406,7.079284 -0.076,2.071398 -0.16746,4.734874 -0.20291,5.918529 -0.0657,2.194887 -0.0441,7.714357 0.0311,7.939997 0.0333,0.09974 0.0938,0.128736 0.30454,0.145527 0.52725,0.04202 0.73332,0.0396 1.65091,-0.01797 1.45047,-0.09101 3.23842,-0.313766 13.11085,-1.635357 4.17942,-0.559485 6.12856,-0.778204 8.06098,-0.904612 0.44652,-0.02921 0.82596,-0.06719 0.84309,-0.08434 0.0429,-0.04296 -0.44614,-1.491078 -0.80541,-2.38511 C 74.15248,46.333535 70.77461,40.492055 68.29403,37.41953 64.48379,32.700044 60.02141,29.861143 54.48977,28.637139 53.78802,28.481862 53.47628,28.405687 53.34008,28.400011 Z m -17.152744,0.713459 c -0.14538,0 -1.424689,0.471049 -2.341209,0.862096 -2.479053,1.057725 -4.709734,2.439691 -6.965905,4.315667 -0.866851,0.720776 -2.827288,2.676761 -3.62917,3.620873 -2.940475,3.462043 -5.476386,7.740443 -7.288757,12.297491 -0.49898,1.254636 -1.160194,3.175521 -1.110286,3.225428 0.01897,0.01896 0.490231,0.08462 1.047374,0.145872 1.483857,0.163138 3.132826,0.392066 7.129751,0.989994 4.692962,0.702054 6.432377,0.931741 7.645489,1.009006 0.855558,0.05449 6.745051,-0.03721 6.816919,-0.10612 0.02826,-0.02709 -0.08821,-4.541438 -0.192881,-7.473 -0.212909,-5.962949 -0.552836,-12.424185 -0.942292,-17.910449 -0.06168,-0.868856 -0.08031,-0.976858 -0.169033,-0.976858 z m 10.278784,32.59132 c 3.32147,-0.0086 6.5914,0.217045 11.19481,0.712076 8.28991,0.891475 19.04216,2.640879 21.95858,3.572826 0.41955,0.134076 0.55037,0.20289 0.6616,0.34878 0.47648,0.62484 1.07395,2.436885 1.42312,4.31601 0.33764,1.817157 0.30303,5.502596 -0.0571,6.085142 -0.0356,0.05753 -0.16028,0.06609 -0.54132,0.03732 -1.75526,-0.132504 -11.21219,-2.043248 -18.06497,-3.650255 -2.88314,-0.676112 -4.01546,-0.892397 -4.32604,-0.825801 -0.23821,0.05104 -1.37411,1.201976 -2.16008,2.188428 -0.32989,0.414068 -0.93087,1.243776 -1.33565,1.843794 -0.40479,0.600018 -0.792,1.127245 -0.86037,1.171814 -0.37602,0.245048 -2.53957,0.33725 -6.94863,0.295892 -1.88446,-0.01766 -3.885256,-0.05927 -4.445935,-0.0923 -1.310754,-0.07725 -2.547704,-0.215609 -2.770186,-0.309718 -0.235706,-0.0997 -0.610152,-0.510839 -1.448003,-1.590418 -0.995066,-1.282157 -1.988603,-2.470975 -2.520958,-3.015955 l -0.456627,-0.466999 h -0.342212 c -0.885073,0 -2.942755,0.391927 -7.753336,1.477386 -4.812281,1.085846 -7.799601,1.859766 -13.422295,3.477074 -2.510717,0.722194 -2.42639,0.705183 -2.547573,0.520237 v -3.55e-4 c -0.287624,-0.438971 -0.469276,-3.419869 -0.30799,-5.054013 0.20631,-2.090346 1.024251,-4.341971 2.01248,-5.540717 0.454516,-0.551341 1.209722,-0.881914 3.306662,-1.447658 6.484862,-1.749603 15.706323,-3.242717 23.418324,-3.79198 2.329247,-0.165892 4.340799,-0.255489 6.333679,-0.260632 z m -1.06465,24.238944 c -3.037248,5.28e-4 -5.947734,0.02682 -6.543155,0.07846 -1.175473,0.102002 -1.866942,0.209121 -1.961666,0.303845 -0.15486,0.154859 -1.034458,2.447804 -0.965451,2.516809 0.02115,0.02114 0.936911,0.006 2.034947,-0.03318 2.948426,-0.105621 10.031235,-0.143788 12.164405,-0.06569 2.71991,0.09959 5.95345,0.311357 8.23831,0.539937 v 3.54e-4 c 0.94816,0.09485 1.21745,0.101427 1.21745,0.03044 0,-0.179596 -1.16177,-2.303 -1.39823,-2.555519 -0.32983,-0.352221 -1.9935,-0.576392 -5.48264,-0.739044 -1.10268,-0.05144 -4.26672,-0.07684 -7.30397,-0.07639 z m 0.13965,4.090978 c -3.955948,0.002 -10.070589,0.157863 -10.172325,0.259597 -0.06005,0.06007 -0.928119,2.591506 -0.928119,2.706585 0,0.103394 0.02863,0.109835 0.353964,0.08261 1.534794,-0.128478 6.984876,-0.262473 10.80317,-0.265818 5.08319,-0.0047 9.10976,0.205221 14.27194,0.743184 0.82545,0.08603 1.53248,0.159515 1.57141,0.164197 0.0389,0.0047 0.0709,-0.02662 0.0709,-0.06879 0,-0.04214 -0.24404,-0.634601 -0.54235,-1.316647 -0.29831,-0.682046 -0.56865,-1.310151 -0.60043,-1.395811 -0.0318,-0.08566 -0.0927,-0.155548 -0.1355,-0.155548 -0.0428,0 -0.6076,-0.05084 -1.25478,-0.112692 -4.96503,-0.474798 -8.49385,-0.642874 -13.43784,-0.640868 z m 0.0639,4.132117 c -2.213156,6.69e-4 -4.546575,0.02401 -5.982137,0.06983 -2.440756,0.07783 -5.695658,0.216111 -5.718387,0.243008 -0.04563,0.05398 -1.069956,3.215531 -1.047721,3.233719 0.01462,0.01191 0.714489,-0.0103 1.555508,-0.04943 8.190478,-0.381411 13.853177,-0.395786 19.312477,-0.0491 2.82092,0.179148 6.24649,0.485909 8.43845,0.755974 v 3.55e-4 c 1.11871,0.137815 1.27413,0.141929 1.27413,0.03351 0,-0.04729 -0.28559,-0.798336 -0.63464,-1.668887 -0.57349,-1.430274 -0.64826,-1.585474 -0.77845,-1.61116 -0.2375,-0.04689 -2.80811,-0.304808 -4.53344,-0.454898 -1.8786,-0.163421 -4.49611,-0.335993 -6.62611,-0.436577 -0.95372,-0.04508 -3.04653,-0.06704 -5.25968,-0.06636 z m -0.18252,4.581489 c -2.595588,3.55e-4 -5.288454,0.02401 -6.535889,0.07121 -2.842932,0.107507 -5.681663,0.232285 -6.127659,0.269275 l -0.407197,0.03351 -0.512972,1.538915 c -0.282101,0.84632 -0.512972,1.58368 -0.512972,1.63846 0,0.0861 0.04015,0.0953 0.297275,0.0698 0.820993,-0.0813 5.857662,-0.28668 9.160552,-0.37367 2.72454,-0.0717 9.171682,-0.0373 10.874032,0.0581 4.49294,0.25183 9.54916,0.70874 12.54429,1.13345 0.98649,0.1399 1.10443,0.14192 1.1051,0.018 6.7e-4,-0.10139 -1.17588,-3.1856 -1.23956,-3.249283 -0.036,-0.03599 -2.22345,-0.297029 -4.19779,-0.500872 -2.31685,-0.239215 -5.26969,-0.460624 -8.49514,-0.637068 -0.85806,-0.04696 -3.35647,-0.0701 -5.95207,-0.06982 z m 0.2119,4.55383 c -2.067144,3.5e-4 -4.250246,0.0195 -5.615726,0.0577 -4.017646,0.11254 -9.130582,0.35637 -9.206871,0.439 -0.05688,0.0616 -1.015227,3.04237 -1.015227,3.15767 0,0.0839 0.04975,0.0909 0.410653,0.0605 1.838727,-0.15501 8.10072,-0.40432 12.247368,-0.48774 5.955203,-0.1198 11.234563,0.0974 17.330073,0.71312 2.23696,0.22597 6.876,0.7963 6.93306,0.85242 v 3.5e-4 c 0.0463,0.0455 0.45767,0.0222 0.45767,-0.026 0,-0.0553 -1.22089,-3.28667 -1.2534,-3.31738 -0.034,-0.0322 -4.10083,-0.52858 -5.57113,-0.67992 -3.40942,-0.35095 -6.45153,-0.57223 -9.79762,-0.71312 -0.90062,-0.038 -2.85171,-0.057 -4.91885,-0.0567 z m -0.76082,4.54485 c -0.970413,0.004 -1.954312,0.0167 -2.957188,0.0384 -4.117117,0.0889 -10.419716,0.34976 -12.202431,0.50502 l -0.451097,0.0394 -0.496726,1.52889 c -0.273267,0.84102 -0.497366,1.57767 -0.497762,1.63674 -7.36e-4,0.10095 0.03433,0.10509 0.579685,0.0705 10.50756,-0.66596 18.785829,-0.76932 25.471249,-0.31802 4.22931,0.28551 9.32629,0.83449 13.0825,1.40895 1.30513,0.19959 1.52901,0.21068 1.52958,0.076 5.4e-4,-0.12841 -1.14045,-3.20317 -1.20534,-3.24825 -0.0575,-0.0399 -0.44494,-0.0968 -2.44802,-0.36019 -7.47223,-0.98236 -13.61154,-1.40364 -20.40445,-1.37748 z m 0.49742,4.60464 c -4.624861,6.7e-4 -6.181247,0.0348 -10.505547,0.22883 -2.547716,0.11433 -6.654002,0.34728 -6.967286,0.39545 -0.169843,0.0261 -0.174981,0.0377 -0.649165,1.4677 -0.26289,0.79278 -0.462989,1.4565 -0.444875,1.47462 0.01811,0.0181 0.360967,0.007 0.762198,-0.0249 3.089118,-0.24491 7.879629,-0.50279 12.707797,-0.68373 2.64735,-0.0992 8.897008,-0.13383 10.958718,-0.0608 5.75705,0.20383 12.44834,0.82335 17.75489,1.644 1.27717,0.19752 1.47255,0.20788 1.47255,0.0795 0,-0.0799 -0.31148,-0.96099 -0.79019,-2.23648 l -0.12029,-0.32043 -0.3519,-0.0601 c -0.74277,-0.12743 -3.53557,-0.5205 -5.05263,-0.71104 -3.65066,-0.45851 -6.7048,-0.75196 -10.02403,-0.96338 -3.33751,-0.21256 -4.00272,-0.22985 -8.75024,-0.22918 z"
       style="display:inline;fill:#191919;fill-opacity:1;stroke-width:0.05663427" />
  </g>
  <g
     id="g1194"
     inkscape:groupmode="layer"
     inkscape:label="Drill"
     style="display:inline" />
</svg>
