<?xml version="1.0" encoding="UTF-8" standalone="no"?>
<!-- Created with Inkscape (http://www.inkscape.org/) -->

<svg
   xmlns:dc="http://purl.org/dc/elements/1.1/"
   xmlns:cc="http://creativecommons.org/ns#"
   xmlns:rdf="http://www.w3.org/1999/02/22-rdf-syntax-ns#"
   xmlns:svg="http://www.w3.org/2000/svg"
   xmlns="http://www.w3.org/2000/svg"
   xmlns:sodipodi="http://sodipodi.sourceforge.net/DTD/sodipodi-0.dtd"
   xmlns:inkscape="http://www.inkscape.org/namespaces/inkscape"
   width="210mm"
   height="297mm"
   viewBox="0 0 210 297"
   version="1.1"
   id="svg26"
   inkscape:version="0.92.4 5da689c313, 2019-01-14"
   sodipodi:docname="oldschoolcylon2.svg">
  <defs
     id="defs20" />
  <sodipodi:namedview
     id="base"
     pagecolor="#ffffff"
     bordercolor="#666666"
     borderopacity="1.0"
     inkscape:pageopacity="0.0"
     inkscape:pageshadow="2"
     inkscape:zoom="1.9393058"
     inkscape:cx="460.67568"
     inkscape:cy="567.36792"
     inkscape:document-units="mm"
     inkscape:current-layer="layer3"
     showgrid="false"
     inkscape:window-width="1920"
     inkscape:window-height="2096"
     inkscape:window-x="1920"
     inkscape:window-y="27"
     inkscape:window-maximized="0" />
  <metadata
     id="metadata23">
    <rdf:RDF>
      <cc:Work
         rdf:about="">
        <dc:format>image/svg+xml</dc:format>
        <dc:type
           rdf:resource="http://purl.org/dc/dcmitype/StillImage" />
        <dc:title></dc:title>
      </cc:Work>
    </rdf:RDF>
  </metadata>
  <g
     inkscape:groupmode="layer"
     id="layer3"
     inkscape:label="Board_outline"
     style="display:inline">
    <path
       style="display:inline;fill:#000000;fill-opacity:1;stroke:none;stroke-width:0.32000002"
       d="m 406.17773,234.26953 c -13.14076,-0.16527 -23.89497,1.00092 -34.67382,3.70899 -8.96542,2.25245 -14.97526,5.10555 -18.76758,8.91015 -2.1723,2.17935 -2.61257,3.10243 -3.51953,7.37891 -0.63464,2.99234 -0.70993,4.2524 -0.69141,11.51953 0.0305,12.05111 0.91726,25.26874 4.56055,67.96484 2.4223,28.3872 3.82389,45.29143 3.82422,46.13672 2.6e-4,0.5641 -0.60458,0.86194 -4.09571,2.01367 -23.18261,7.64792 -45.7959,21.94578 -64.54492,40.8125 -24.4249,24.57823 -46.09822,61.11928 -57.76758,97.39258 l -1.67383,5.20117 -1.95898,0.01 c -2.65632,0.0134 -6.0599,0.48039 -9.19141,1.25976 -4.38171,1.09055 -7.33798,3.67621 -12.42382,10.86329 -9.97224,14.09227 -21.12287,38.94501 -27.04297,60.27148 -4.74013,17.07583 -6.14937,27.94142 -6.48242,49.99609 -0.34433,22.80068 1.40895,48.24876 4.03906,58.61329 1.12219,4.42166 3.69997,6.65606 9.21875,7.99023 1.69845,0.41061 4.51572,0.89349 6.25976,1.07227 3.98513,0.40754 18.73436,0.40822 30.46289,0 12.9904,-0.45332 26.70314,-0.46096 27.14649,-0.0176 0.49754,0.4975 0.43838,12.25262 -0.0859,16.98047 -0.4828,4.35352 -0.75217,5.19092 -14.32226,44.48046 -26.71301,77.34222 -36.53925,107.43517 -41.53125,127.19922 -2.65193,10.49927 -3.02971,13.16182 -2.33985,16.49805 1.28249,6.20228 4.60404,8.14339 20.42578,11.94922 14.07547,3.38578 32.5856,6.46618 45.26758,7.53125 2.288,0.19223 4.73545,0.4038 5.43945,0.4707 0.70401,0.0677 3.87302,0.0869 7.04102,0.0449 10.52991,-0.13972 15.31779,-2.04502 17.85742,-7.10546 1.75357,-3.49414 5.07536,-12.61061 11.58399,-31.78907 2.23985,-6.6 4.19255,-12.22894 4.33984,-12.50976 0.20311,-0.38718 0.98602,-0.55856 3.24219,-0.70899 1.6363,-0.10919 7.15186,-0.48885 12.25586,-0.84375 45.07177,-3.13474 96.92187,-4.58749 126.24023,-3.53515 29.16609,1.04681 61.25213,3.93175 92.79883,8.34375 7.80714,1.09186 17.05578,2.52453 17.19336,2.66211 0.0506,0.0506 2.09042,5.47856 4.5332,12.0625 8.43912,22.74572 9.10344,24.20038 11.875,26.05273 2.6547,1.77426 5.5777,2.24281 13.75977,2.20313 15.25893,-0.0743 45.81928,-3.97584 63.83984,-8.14844 9.1155,-2.11064 11.48017,-3.18554 13.47852,-6.13281 1.21213,-1.78768 1.89686,-4.98045 1.58203,-7.38086 -0.60941,-4.64731 -4.42487,-17.80404 -9.57617,-33.02344 C 643.17074,849.4002 621.75722,791.1803 600.73242,736.50781 l -4.24609,-11.04101 0.004,-3.09375 c 0.003,-3.81751 0.66918,-6.06206 3.25782,-10.99219 2.11166,-4.02168 2.72485,-4.51912 6.88086,-5.58203 5.14257,-1.31528 10.15342,-1.65887 37.48047,-2.56641 10.08808,-0.33505 14.02182,-0.76884 19.0371,-2.09961 3.57207,-0.94775 5.81526,-2.30116 7.63672,-4.60547 2.53191,-3.20311 2.83898,-8.46715 1.32422,-22.70312 -3.10779,-29.20861 -9.73487,-60.17478 -17.53906,-81.95703 -4.66583,-13.02282 -8.73628,-22.79833 -13.85742,-33.2793 -9.03916,-18.49969 -16.71321,-29.30516 -23.25391,-32.74219 -4.02516,-2.11517 -11.28787,-3.68333 -18.37891,-3.96679 l -4.71093,-0.1875 -0.5,-1.79102 c -0.9521,-3.41518 -3.11087,-9.81026 -4.54883,-13.47266 -6.84076,-17.42309 -22.00841,-45.20237 -34.76953,-63.67968 -16.79618,-24.31979 -35.47397,-41.28249 -57.95899,-52.63672 -11.11706,-5.61377 -22.80569,-9.53805 -37.67968,-12.64844 l -3.44141,-0.71875 0.002,-1.31836 c 2.3e-4,-0.72506 0.71828,-14.71012 1.59766,-31.07812 3.10496,-57.79026 3.67258,-71.56359 3.42578,-83.22657 -0.13867,-6.55465 -0.28357,-8.41362 -0.81055,-10.44336 -1.59613,-6.14749 -6.53493,-9.81846 -16.69336,-12.40625 -8.99123,-2.29046 -17.22095,-3.311 -31.02734,-3.8496 -1.98168,-0.0773 -3.9079,-0.12874 -5.78516,-0.15235 z"
       transform="scale(0.26458333)"
       id="path4910"
       inkscape:connector-curvature="0" />
  </g>
  <g
     inkscape:groupmode="layer"
     id="layer2"
     inkscape:label="silkscreen"
     style="display:inline">
    <path
       style="display:inline;fill:#fffff4;fill-opacity:1;stroke-width:0.32000002"
       d="m 403.66992,242.27148 c -19.04862,0.0712 -34.662,3.01257 -42.51953,8.14258 -4.21364,2.751 -4.39657,3.39182 -4.33984,15.21485 0.0626,13.04236 0.83241,23.90802 6.01367,84.79882 4.17594,49.07621 6.05773,77.86889 8.00586,122.56055 1.19512,27.41874 2.41007,71.29698 1.98633,71.7207 -0.3113,0.31132 -9.66097,0.69476 -25.89063,1.0625 -21.54155,0.48809 -22.74685,0.37918 -62.49609,-5.58593 -37.88203,-5.6849 -52.28942,-7.29356 -60.25,-6.72852 -4.60688,0.32701 -5.7533,0.7851 -8.00977,3.19727 -4.23867,4.53116 -8.66285,11.54096 -14.14844,22.41406 -5.63568,11.17062 -9.85292,21.38938 -13.75586,33.33594 -6.04433,18.50124 -7.86578,30.72035 -8.21874,55.14453 -0.28191,19.50565 0.9334,41.23663 2.97851,53.27929 0.67257,3.96046 0.91263,4.37223 2.94141,5.02344 4.15295,1.33316 13.41531,1.45237 47.74218,0.6211 9.8921,-0.23955 17.85983,0.0202 19.68164,0.64062 1.61859,0.55125 2.74572,2.52706 3.53907,6.19531 0.72504,3.35301 0.73761,13.60574 0.0234,19.53907 -0.69976,5.81404 0.24139,2.88779 -17.01562,52.92968 -34.11128,98.91595 -43.95945,131.12946 -40.9082,133.81836 3.78816,3.33831 36.68347,10.10807 57.24023,11.7793 2.288,0.1858 4.73545,0.3941 5.43945,0.46289 v -0.002 c 0.704,0.0699 4.01733,0.0838 7.36133,0.0312 8.3779,-0.13206 9.21347,-0.43775 10.82227,-3.95899 2.68643,-5.87988 10.95566,-30.04922 28.53515,-83.40039 34.2416,-103.91818 44.97125,-134.82586 47.91211,-138.00781 2.20443,-2.38515 9.45278,-3.61206 25.20899,-4.26758 10.06764,-0.41877 55.41615,-0.19299 68.16015,0.33985 19.45028,0.8132 30.47706,2.26289 35.11914,4.61523 2.64382,1.33973 5.18308,4.98412 9.83008,14.11523 11.70048,22.99083 28.72111,65.8947 63.81641,160.85352 15.73856,42.5845 16.25836,43.9033 17.42578,44.26953 1.43263,0.44939 9.70488,0.54869 15.16992,0.1836 22.44741,-1.50033 55.35187,-6.58593 62.49805,-9.66016 l 1.58203,-0.67969 v -1.54687 c 0,-2.86927 -3.48694,-14.99508 -8.91797,-31.01563 -10.24513,-30.22099 -31.43008,-87.84377 -52.05859,-141.59961 -2.76907,-7.21602 -5.23518,-13.91089 -5.48047,-14.8789 -0.74438,-2.93549 -0.59546,-7.97861 0.34375,-11.62891 0.91045,-3.53866 3.19172,-8.56073 5.4043,-11.90039 2.31314,-3.49157 5.3172,-5.13566 11.91406,-6.51953 6.77405,-1.42107 9.96483,-1.6404 37.91406,-2.59375 13.0218,-0.44417 18.65261,-1.37007 19.99805,-3.29102 1.79645,-2.56475 -1.8529,-34.38016 -6.5957,-57.50781 -2.81005,-13.70268 -6.51177,-27.27873 -10.47071,-38.39844 -11.17436,-31.38603 -24.63751,-56.65362 -33.29297,-62.48437 -1.08434,-0.73047 -4.32543,-1.75054 -7.55859,-2.37696 -3.50899,-0.6799 -18.23762,-0.92887 -25.85352,-0.4375 -11.49687,0.74174 -22.69075,2.02497 -51.74609,5.93164 -56.80407,7.63764 -61.32382,8.17583 -70.40039,8.38672 -5.98553,0.13909 -7.57728,0.0782 -9.43945,-0.35937 -6.25006,-1.46861 -6.40927,-2.23101 -6.38282,-30.90039 0.01,-10.99998 0.19315,-24.68038 0.40821,-30.40039 1.00758,-26.82146 1.38899,-37.30294 2.13476,-58.56055 1.08371,-30.88966 1.17892,-32.87958 4.94922,-103.67969 1.76999,-33.23515 2.04373,-40.32823 2.06641,-54.08008 0.0276,-15.50573 0.084,-15.12463 -2.5918,-17.09375 -5.21133,-3.83503 -17.82919,-6.16342 -37.46289,-6.91406 -2.84881,-0.10891 -5.6401,-0.1586 -8.36133,-0.14844 z m 50.67774,142.29688 c -0.13864,0.1454 -1.04947,21.61326 -1.60547,37.85937 -0.26502,7.74403 -0.83435,23.72756 -1.26563,35.51954 -0.43124,11.79201 -0.94774,26.91357 -1.14844,33.60156 -0.37201,12.38354 -0.25151,43.26431 0.17383,44.54297 0.18611,0.55952 0.53862,0.73175 1.72071,0.83984 2.5858,0.23611 10.54262,-0.12574 17.00781,-0.77344 5.66959,-0.56802 30.82663,-3.82653 68.9375,-8.92968 21.05616,-2.81949 32.71252,-4.11308 43.00976,-4.77344 2.52295,-0.16199 4.66251,-0.37149 4.75586,-0.46485 0.23925,-0.23924 -2.55142,-8.52258 -4.54297,-13.48242 -5.95642,-14.83423 -16.66864,-35.02535 -28.26367,-53.27929 -17.67579,-27.82693 -36.69632,-46.17643 -60.05664,-57.9336 -8.31277,-4.18375 -15.33429,-6.9039 -24.32031,-9.42383 -4.04066,-1.13314 -14.24058,-3.47243 -14.40234,-3.30273 z m -96.51368,4.09961 c -0.83178,0 -8.01807,2.64054 -13.16992,4.83984 -26.26218,11.21114 -48.96286,29.6247 -68.38867,55.47266 -14.41819,19.18484 -27.1013,42.88433 -35.625,66.56836 -2.62706,7.29959 -3.5919,10.33598 -3.35742,10.57031 0.10191,0.1019 2.25381,0.39943 4.78125,0.66211 7.2243,0.75126 19.58361,2.46132 41.39453,5.72656 26.25451,3.93052 34.7568,5.05856 43.20117,5.72852 2.04554,0.16229 23.58708,-0.067 32.11914,-0.3418 l 6.51953,-0.20898 -0.21289,-8.34961 c -1.09967,-43.37658 -3.05965,-87.2477 -5.48632,-122.74805 -0.43913,-6.42399 -0.88879,-13.08476 -0.99805,-14.80078 -0.17352,-2.72546 -0.27092,-3.11914 -0.77735,-3.11914 z m 35.56446,193.75391 c 1.87673,0.007 3.43573,0.11921 5.67773,0.30664 14.67421,1.22675 30.79481,1.40806 41.99219,0.4707 5.10429,-0.42731 9.0427,-0.27048 21.01953,0.83594 46.8974,4.33224 116.24429,14.89384 136.55664,20.79882 2.09129,0.60798 2.18755,0.76122 4.24414,6.71485 2.26246,6.5495 3.71894,13.40218 4.27344,20.10351 0.40014,4.82729 0.39429,16.4431 -0.008,16.69141 -0.66369,0.41019 -28.23967,-4.84435 -54.56446,-10.39844 -15.91721,-3.35826 -23.37744,-5.0126 -40.96093,-9.08398 -17.12474,-3.96518 -20.53095,-4.65932 -24.03907,-4.89063 -5.80138,-0.38267 -8.67704,1.01851 -14.37109,7.00196 -5.15093,5.41273 -9.48029,10.88425 -14.60352,18.45117 -2.93518,4.33531 -3.26085,4.70033 -4.35937,4.9082 -0.6528,0.12325 -4.7134,0.30446 -9.02539,0.40235 h -0.002 c -30.45302,0.69054 -59.03739,-0.15217 -61.02149,-1.79883 -0.27443,-0.22776 -2.82062,-3.36868 -5.65625,-6.98047 -9.20163,-11.72039 -14.21526,-17.46928 -17.09375,-19.5957 -2.52916,-1.86841 -5.64093,-2.6276 -9.63867,-2.35547 -5.82791,0.39685 -16.08798,2.3795 -40.0293,7.74023 -29.31542,6.56402 -51.5365,12.24015 -77.71289,19.84766 -3.93379,1.14323 -7.24516,1.98366 -7.35937,1.86914 -0.11418,-0.11445 -0.20212,-4.47814 -0.19532,-9.69922 0.0137,-10.35262 0.24704,-12.46517 2.02149,-18.32813 2.04395,-6.75345 5.29819,-13.59603 7.61719,-16.01757 1.40869,-1.471 9.3926,-4.1402 21.70898,-7.25782 32.26367,-8.16684 81.67332,-15.96081 118.87891,-18.75195 9.51276,-0.71367 13.52249,-0.99604 16.65039,-0.98437 z m 16.79101,127.37304 c -24.45252,-0.005 -33.52668,0.0984 -37.27929,0.42383 -6.64176,0.5763 -10.54876,1.18158 -11.08399,1.7168 -0.87499,0.875 -5.84499,13.8308 -5.45508,14.2207 0.11949,0.11943 5.29383,0.0347 11.49805,-0.1875 16.65946,-0.59679 56.6774,-0.81247 68.73047,-0.37109 15.36824,0.56273 33.64067,1.76115 46.55078,3.05273 5.55432,0.5557 6.87891,0.57951 6.87891,0.12695 0,-0.56757 -4.92132,-9.9308 -6.4961,-12.35937 -0.76671,-1.18243 -1.61535,-2.33207 -1.88672,-2.55469 -1.2475,-1.02334 -8.8214,-2.26787 -17.85742,-2.93359 -12.38415,-0.91227 -22.5605,-1.12721 -53.59961,-1.13477 z m 0.48047,23.0957 c -22.35224,0.0102 -56.90173,0.89197 -57.47656,1.4668 -0.33929,0.33929 -5.24414,14.6427 -5.24414,15.29297 0,0.58416 0.16137,0.62176 2,0.4668 1.1,-0.0928 5.88862,-0.31216 10.64062,-0.48828 4.752,-0.1759 10.58299,-0.40016 12.95899,-0.49805 10.50937,-0.43521 42.56673,-0.69734 53.95898,-0.44336 21.31038,0.47478 44.69828,1.99361 65.72266,4.26953 3.78399,0.40955 7.05933,0.76639 7.2793,0.78906 0.22008,0.0235 0.40039,-0.15251 0.40039,-0.39062 0,-0.23826 -1.37894,-3.58765 -3.06446,-7.44141 -1.68555,-3.85379 -3.21267,-7.40275 -3.39258,-7.88672 -0.17967,-0.484 -0.52373,-0.8789 -0.76562,-0.8789 -0.24208,0 -3.43311,-0.28711 -7.08984,-0.63672 -28.05393,-2.68275 -47.99276,-3.63243 -75.92774,-3.6211 z m 0.34961,23.34766 c -12.50602,0.004 -25.68742,0.13738 -33.78906,0.39649 -13.65917,0.43683 -32.18653,1.22495 -32.3125,1.375 -0.25657,0.30538 -6.04262,18.1659 -5.91797,18.26757 0.0826,0.0673 4.03706,-0.0582 8.78906,-0.27929 46.1901,-2.15082 78.66483,-2.23597 109.1211,-0.28321 16.13442,1.0345 35.35245,2.75851 47.67968,4.27735 v -0.002 c 6.33374,0.78029 7.19922,0.80328 7.19922,0.18555 0,-0.43423 -6.93264,-18.03503 -7.23047,-18.35742 -0.18259,-0.19748 -15.82943,-1.821 -26.36914,-2.73633 -10.90575,-0.94711 -25.29791,-1.89742 -37.43945,-2.4707 -5.39427,-0.25378 -17.22444,-0.37739 -29.73047,-0.37305 z m 10.81055,25.79883 c -15.7294,-0.0904 -38.54577,0.12486 -49.88086,0.54297 -14.1148,0.52059 -31.00926,1.26163 -33.50195,1.46875 l -2.30079,0.1914 -2.89843,8.69336 c -1.59395,4.78198 -2.89844,8.94827 -2.89844,9.25782 0,0.48589 0.22889,0.53947 1.67969,0.40039 4.99555,-0.47898 33.51426,-1.64678 51.59961,-2.11328 15.85595,-0.40906 51.89093,-0.21955 61.60156,0.32421 26.24183,1.46945 55.38625,4.12268 72.1582,6.56641 4.23455,0.61682 4.96107,0.60794 4.96485,-0.0606 0.004,-0.5729 -6.64605,-17.99956 -7.00586,-18.35937 -0.33468,-0.33483 -21.2603,-2.66837 -33.95899,-3.78711 -17.41251,-1.53404 -31.10055,-2.39031 -46.8789,-2.92969 -2.98063,-0.10188 -7.43656,-0.16518 -12.67969,-0.19531 z m -7.83399,25.80078 c -17.24752,0.002 -37.80563,0.30509 -50.20703,0.83203 -26.28745,1.117 -36.03431,1.65355 -36.35156,2.00391 -0.31075,0.34307 -5.72852,17.20405 -5.72852,17.82812 0,0.46413 0.3094,0.50665 2.48047,0.34375 14.38947,-1.07992 44.61801,-2.27201 69.83985,-2.7539 35.32501,-0.67488 64.7721,0.63 101.75976,4.50976 8.8263,0.92584 34.071,4.04888 34.72071,4.29492 0.61538,0.2332 2.40039,0.16918 2.40039,-0.0859 0,-0.30301 -6.90207,-18.59315 -7.08008,-18.76172 -0.2208,-0.20916 -23.64381,-3.04395 -33.08008,-4.00391 -17.25657,-1.75555 -36.56832,-3.1472 -53.75977,-3.87109 -5.48744,-0.23107 -14.64562,-0.33726 -24.99414,-0.33594 z m -7.94921,25.70899 c -13.89035,0.0507 -28.65447,0.40596 -44.97657,1.04687 -13.12505,0.51541 -35.78896,1.65984 -39.82617,2.01172 l -2.54687,0.22265 -2.8086,8.64063 c -1.54459,4.752 -2.8093,8.91198 -2.8125,9.24609 -0.005,0.57045 0.19166,0.5958 3.27344,0.40039 60.75762,-3.85073 106.50482,-4.36393 146.16016,-1.63867 23.03191,1.58276 52.43847,4.79958 72.79882,7.96289 6.2072,0.96435 7.52023,1.01172 7.52344,0.26953 0.002,-0.45188 -6.28811,-17.8515 -6.60937,-18.2832 -0.35619,-0.47868 -27.11507,-3.90555 -43.95313,-5.6289 -29.34058,-3.00298 -55.66389,-4.36146 -86.22265,-4.25 z m -0.1875,25.8789 c -20.54307,0.0547 -42.73673,0.6839 -65.58985,1.88477 -11.57928,0.60846 -28.31298,1.61948 -29.28711,1.76953 -0.95959,0.14789 -0.98888,0.21576 -3.66797,8.29492 -1.4854,4.47942 -2.61834,8.22526 -2.51757,8.32617 0.10075,0.10061 3.04619,-0.0339 6.54687,-0.30078 44.24121,-3.3716 101.52214,-5.10532 132.60547,-4.01172 31.06643,1.09297 69.58014,4.68642 99.20117,9.25391 7.24849,1.11768 8.31836,1.17651 8.31836,0.45508 0,-0.45132 -1.75803,-5.43191 -4.46289,-12.63868 l -0.67969,-1.80859 -1.98828,-0.3418 c -4.00804,-0.68761 -19.83048,-2.91197 -28.54883,-4.01367 -19.05622,-2.40809 -36.34447,-4.09923 -54.24023,-5.30664 -16.25463,-1.09667 -35.14639,-1.61724 -55.68945,-1.5625 z"
       transform="scale(0.26458333)"
       id="path4954"
       inkscape:connector-curvature="0" />
  </g>
</svg>
