<?xml version="1.0" encoding="UTF-8" standalone="no"?>
<!-- Created with Inkscape (http://www.inkscape.org/) -->

<svg
   xmlns:dc="http://purl.org/dc/elements/1.1/"
   xmlns:cc="http://creativecommons.org/ns#"
   xmlns:rdf="http://www.w3.org/1999/02/22-rdf-syntax-ns#"
   xmlns:svg="http://www.w3.org/2000/svg"
   xmlns="http://www.w3.org/2000/svg"
   xmlns:sodipodi="http://sodipodi.sourceforge.net/DTD/sodipodi-0.dtd"
   xmlns:inkscape="http://www.inkscape.org/namespaces/inkscape"
   inkscape:version="0.92.4 5da689c313, 2019-01-14"
   sodipodi:docname="oldschoolcylon2_dose.svg"
   id="svg8"
   version="1.1"
   viewBox="0 0 130.0 130.0"
   height="130.0mm"
   width="130.0mm">
  <defs
     id="defs2">
    <inkscape:path-effect
       oposite_fuse="false"
       fuse_paths="false"
       discard_orig_path="false"
       mode="vertical"
       is_visible="true"
       id="path-effect142"
       center_point="245.66929,245.66929"
       end_point="245.66929,491.33859"
       start_point="245.66929,0"
       effect="mirror_symmetry" />
    <inkscape:path-effect
       effect="mirror_symmetry"
       start_point="245.66929,0"
       end_point="245.66929,491.33859"
       center_point="245.66929,245.66929"
       id="path-effect119"
       is_visible="true"
       mode="vertical"
       discard_orig_path="false"
       fuse_paths="false"
       oposite_fuse="false" />
    <inkscape:path-effect
       oposite_fuse="false"
       fuse_paths="false"
       discard_orig_path="false"
       mode="vertical"
       is_visible="true"
       id="path-effect117"
       center_point="245.66944,246.04499"
       end_point="245.66944,544.89137"
       start_point="245.66944,-52.801397"
       effect="mirror_symmetry" />
    <inkscape:path-effect
       effect="mirror_symmetry"
       start_point="245.66929,0"
       end_point="245.66929,491.33859"
       center_point="245.66929,245.66929"
       id="path-effect115"
       is_visible="true"
       mode="vertical"
       discard_orig_path="false"
       fuse_paths="false"
       oposite_fuse="false" />
  </defs>
  <sodipodi:namedview
     id="base"
     pagecolor="#ffffff"
     bordercolor="#666666"
     borderopacity="1.0"
     inkscape:pageopacity="0.0"
     inkscape:pageshadow="2"
     inkscape:zoom="1.5364929"
     inkscape:cx="302.71767"
     inkscape:cy="290.91806"
     inkscape:document-units="mm"
     inkscape:current-layer="g1192"
     showgrid="true"
     inkscape:window-width="1820"
     inkscape:window-height="1978"
     inkscape:window-x="1939"
     inkscape:window-y="46"
     inkscape:window-maximized="0"
     borderlayer="true"
     showguides="true"
     inkscape:pagecheckerboard="false">
    <inkscape:grid
       spacingx="2.54"
       spacingy="2.54"
       empspacing="1"
       type="xygrid"
       units="mm"
       id="grid1172" />
  </sodipodi:namedview>
  <metadata
     id="metadata5">
    <rdf:RDF>
      <cc:Work
         rdf:about="">
        <dc:format>image/svg+xml</dc:format>
        <dc:type
           rdf:resource="http://purl.org/dc/dcmitype/StillImage" />
        <dc:title />
      </cc:Work>
    </rdf:RDF>
  </metadata>
  <g
     id="g1178"
     sodipodi:insensitive="true"
     inkscape:groupmode="layer"
     inkscape:label="[fixed] BG">
    <rect
       id="rect1176"
       style="fill:#ffffff;fill-opacity:1;stroke:none"
       height="130"
       width="130"
       y="0"
       x="0" />
  </g>
  <g
     id="g1180"
     inkscape:groupmode="layer"
     inkscape:label="Edge.Cuts"
     style="display:inline">
    <path
       style="display:inline;fill:#000000;fill-opacity:1;stroke:none;stroke-width:0.0465567;stroke-opacity:1"
       d="m 65.642842,108.04349 0.199365,-0.003 0.199616,-0.003 0.199798,-0.003 0.19944,-0.003 0.199578,-0.002 0.199829,-0.002 0.200011,-0.002 0.199651,-0.002 0.199472,-6.6e-4 0.199722,-6.5e-4 0.199905,-6.5e-4 0.199544,-6.5e-4 0.199365,6.5e-4 0.199618,6.5e-4 0.199798,6.5e-4 0.19944,6.6e-4 0.199472,0.002 0.199722,0.002 0.199905,0.002 0.199544,0.002 0.199683,0.004 0.199935,0.004 0.200118,0.004 0.199757,0.004 0.199472,0.006 0.199722,0.006 0.199905,0.006 0.199546,0.006 0.199152,0.008 0.199405,0.008 0.199585,0.008 0.199226,0.008 0.198835,0.009 0.199085,0.009 0.199268,0.009 0.198908,0.009 0.198942,0.0107 0.199191,0.0107 0.199374,0.0108 0.199013,0.0107 0.199048,0.012 0.199296,0.012 0.199481,0.012 0.19912,0.012 0.198621,0.0133 0.198874,0.0133 0.199055,0.0133 0.198695,0.0133 0.198728,0.0144 0.198981,0.0144 0.199161,0.0145 0.198802,0.0144 0.198728,0.0157 0.198979,0.0157 0.199161,0.0157 0.198802,0.0157 0.198728,0.0169 0.198978,0.0169 0.199161,0.0169 0.198802,0.0169 0.198304,0.0181 0.198555,0.0182 0.198734,0.0182 0.198378,0.0181 0.198304,0.0192 0.198555,0.0192 0.198734,0.0192 0.198378,0.0192 0.198093,0.0203 0.198341,0.0203 0.198524,0.0203 0.198165,0.0203 0.198091,0.0214 0.198343,0.0215 0.198522,0.0215 0.198164,0.0215 0.19788,0.0226 0.19813,0.0226 0.198309,0.0226 0.197954,0.0226 0.197773,0.0237 0.198024,0.0237 0.198201,0.0237 0.197848,0.0237 0.197562,0.0248 0.19781,0.0249 0.197991,0.0249 0.197634,0.0248 0.19788,0.0259 0.19813,0.0259 0.198309,0.0259 0.197954,0.0259 0.197562,0.0271 0.19781,0.0271 0.197991,0.0271 0.197634,0.0271 0.209008,0.0299 0.209205,0.0299 0.208807,0.0298 0.208725,0.0309 0.208922,0.0309 0.208525,0.0308 0.208725,0.0321 0.208922,0.0322 0.208525,0.0321 0.207306,0.0361 0.207505,0.0361 0.20711,0.0361 0.07426,0.1945 0.07444,0.19496 0.07432,0.19465 0.07285,0.19507 0.07302,0.19553 0.0729,0.19521 0.07243,0.19479 0.0726,0.19525 0.07248,0.19493 0.06101,0.16424 0.06109,0.16446 0.06114,0.1646 0.06103,0.1643 0.06133,0.16393 0.0614,0.16414 0.06146,0.16428 0.06135,0.16399 0.06218,0.16371 0.06225,0.16392 0.06231,0.16407 0.0622,0.16378 0.06419,0.16287 0.06427,0.16307 0.06433,0.16322 0.06421,0.16292 0.07817,0.18373 0.07817,0.18374 0.06499,0.13593 0.065,0.13594 0.05756,0.10047 0.05756,0.10047 0.106627,0.14104 0.106628,0.1028 0.117247,0.0854 0.13679,0.082 0.146558,0.068 0.163127,0.0548 0.186918,0.0429 0.152294,0.0204 0.152295,0.0204 0.189041,0.0117 0.189041,0.0117 0.171248,0.002 0.171462,0.002 0.171621,0.002 0.171312,0.002 0.195226,-0.006 0.195475,-0.006 0.195653,-0.006 0.195298,-0.006 0.194698,-0.0117 0.194941,-0.0117 0.19512,-0.0117 0.194769,-0.0117 0.194379,-0.0159 0.194623,-0.0159 0.194801,-0.0159 0.194449,-0.0159 0.194061,-0.019 0.194304,-0.019 0.194483,-0.019 0.194132,-0.019 0.193847,-0.0216 0.194094,-0.0217 0.194269,-0.0217 0.193919,-0.0217 0.193743,-0.0241 0.193985,-0.0241 0.194165,-0.0241 0.193812,-0.0241 0.193424,-0.0263 0.193666,-0.0263 0.193844,-0.0264 0.193495,-0.0263 0.193212,-0.0288 0.193454,-0.0288 0.193632,-0.0288 0.193282,-0.0288 0.192788,-0.031 0.193029,-0.031 0.193206,-0.0311 0.192858,-0.031 0.191938,-0.0337 0.192179,-0.0338 0.192355,-0.0338 0.19201,-0.0337 0.191513,-0.037 0.191755,-0.0371 0.191932,-0.0371 0.191577,-0.037 0.19099,-0.0414 0.19122,-0.0414 0.1914,-0.0415 0.19106,-0.0414 0.17835,-0.0443 0.17858,-0.0444 0.17875,-0.0444 0.17842,-0.0444 0.19754,-0.0603 0.19754,-0.0603 0.15017,-0.0607 0.15017,-0.0607 0.17757,-0.0986 0.14486,-0.10875 0.12149,-0.12362 0.10748,-0.14188 0.0641,-0.10961 0.0552,-0.12531 0.0412,-0.14168 0.0412,-0.14167 0.0185,-0.1421 0.0185,-0.1421 0.002,-0.13891 -0.0102,-0.13254 -0.0263,-0.14996 -0.0263,-0.14996 -0.0457,-0.20009 -0.0457,-0.20008 -0.0454,-0.17263 -0.0455,-0.17285 -0.0455,-0.173 -0.0454,-0.17269 -0.0493,-0.17167 -0.0494,-0.17189 -0.0494,-0.17205 -0.0494,-0.17174 -0.0518,-0.17092 -0.0519,-0.17115 -0.0519,-0.1713 -0.0518,-0.17099 -0.0537,-0.17051 -0.0538,-0.17072 -0.0538,-0.17088 -0.0537,-0.17056 -0.0553,-0.16998 -0.0554,-0.17019 -0.0554,-0.17034 -0.0553,-0.17004 -0.0566,-0.16934 -0.0566,-0.16955 -0.0567,-0.16971 -0.0566,-0.1694 -0.0644,-0.18876 -0.0645,-0.18899 -0.0645,-0.18916 -0.0644,-0.18883 -0.0652,-0.18833 -0.0652,-0.18856 -0.0653,-0.18874 -0.0652,-0.18841 -0.0658,-0.18833 -0.0659,-0.18856 -0.0659,-0.18874 -0.0658,-0.18841 -0.0662,-0.1878 -0.0663,-0.18803 -0.0664,-0.18821 -0.0662,-0.18787 -0.0667,-0.18791 -0.0668,-0.18814 -0.0669,-0.18831 -0.0668,-0.18798 -0.0671,-0.18759 -0.0671,-0.18782 -0.0672,-0.188 -0.0671,-0.18766 -0.0674,-0.1878 -0.06746,-0.18803 -0.06752,-0.18821 -0.0674,-0.18787 -0.0678,-0.18769 -0.06789,-0.18794 -0.06794,-0.1881 -0.06782,-0.18776 -0.06791,-0.18738 -0.06799,-0.18761 -0.06805,-0.18778 -0.06793,-0.18745 -0.06822,-0.18716 -0.06831,-0.1874 -0.06837,-0.18757 -0.06825,-0.18723 -0.06843,-0.187165 -0.06852,-0.187398 -0.06858,-0.187571 -0.06846,-0.187233 -0.06854,-0.187057 -0.06863,-0.187294 -0.06869,-0.187463 -0.06857,-0.187127 -0.06886,-0.186953 -0.06895,-0.187185 -0.06901,-0.187359 -0.06889,-0.18702 -0.06897,-0.186846 -0.06905,-0.187079 -0.06912,-0.187253 -0.06899,-0.186913 -0.06928,-0.187057 -0.06937,-0.187294 -0.06944,-0.187464 -0.06931,-0.187126 -0.0695,-0.187057 -0.06959,-0.187294 -0.06965,-0.187464 -0.06952,-0.187127 -0.0696,-0.186632 -0.06969,-0.186868 -0.06975,-0.18704 -0.06963,-0.186702 -0.06981,-0.186951 -0.0699,-0.187187 -0.06997,-0.187357 -0.06984,-0.18702 -0.06992,-0.186633 -0.07001,-0.186868 -0.07007,-0.187039 -0.06995,-0.186703 -0.07024,-0.186846 -0.07033,-0.187079 -0.07039,-0.187252 -0.07026,-0.186914 -0.07024,-0.186528 -0.07033,-0.186761 -0.07039,-0.186933 -0.07026,-0.186596 -0.07045,-0.186526 -0.07054,-0.186762 -0.07061,-0.186933 -0.07048,-0.186595 -0.07066,-0.186422 -0.07075,-0.186655 -0.07082,-0.186826 -0.07069,-0.18649 -0.07067,-0.186208 -0.07075,-0.186444 -0.07082,-0.186613 -0.07069,-0.186278 -0.07098,-0.186316 -0.07107,-0.186548 -0.07114,-0.18672 -0.07101,-0.186382 -0.0712,-0.186422 -0.07129,-0.186655 -0.07135,-0.186826 -0.07122,-0.18649 -0.07119,-0.185995 -0.07128,-0.186233 -0.07135,-0.1864 -0.07122,-0.186065 -0.07151,-0.186209 -0.0716,-0.186443 -0.07167,-0.186614 -0.07154,-0.186278 -0.06846,-0.178091 -0.06863,-0.178518 -0.06852,-0.178227 -0.06861,-0.178517 -0.06877,-0.178942 -0.06866,-0.178651 -0.0686,-0.178235 -0.06877,-0.178659 -0.06866,-0.178368 1.46e-4,-0.149942 1.43e-4,-0.150301 1.46e-4,-0.150055 0.0057,-0.145712 0.0057,-0.14571 0.01953,-0.134027 0.01955,-0.134028 0.03462,-0.128081 0.03462,-0.128079 0.05374,-0.138702 0.05374,-0.138699 0.08219,-0.168615 0.08238,-0.169019 0.08225,-0.168741 0.09792,-0.172261 0.09792,-0.17226 0.08879,-0.119798 0.09304,-0.09388 0.112149,-0.07774 0.134665,-0.0633 0.167375,-0.05608 0.209007,-0.05692 0.175447,-0.03908 0.175446,-0.03908 0.208582,-0.03144 0.208583,-0.03144 0.194698,-0.0174 0.194941,-0.01742 0.19512,-0.01744 0.19477,-0.0174 0.195122,-0.01103 0.195365,-0.01105 0.195544,-0.01105 0.195194,-0.01103 0.195015,-0.0086 0.195261,-0.0086 0.19544,-0.0086 0.195087,-0.0086 0.195122,-0.0074 0.195366,-0.0074 0.195544,-0.0074 0.195193,-0.0074 0.195016,-0.0069 0.195261,-0.0069 0.19544,-0.0069 0.195087,-0.0069 0.195226,-0.0066 0.195474,-0.0066 0.195655,-0.0066 0.1953,-0.0066 0.17443,-0.0069 0.17465,-0.0069 0.17481,-0.0069 0.1745,-0.0069 0.174,-0.01125 0.17423,-0.01127 0.17438,-0.01127 0.17408,-0.01125 0.18309,-0.01868 0.18309,-0.01868 0.16334,-0.02336 0.16334,-0.02336 0.17078,-0.03292 0.17077,-0.03292 0.17014,-0.04142 0.17013,-0.04142 0.16695,-0.05353 0.16696,-0.05352 0.14039,-0.06627 0.1404,-0.06627 0.14019,-0.08964 0.1283,-0.10068 0.11809,-0.113424 0.1096,-0.126593 0.0862,-0.125321 0.0731,-0.141462 0.0595,-0.161852 0.0459,-0.185217 0.0212,-0.152083 0.0213,-0.152082 0.009,-0.183092 0.009,-0.183094 -0.004,-0.168385 -0.004,-0.168595 -0.004,-0.16875 -0.004,-0.168445 -0.0124,-0.168171 -0.0124,-0.168382 -0.0124,-0.168539 -0.0124,-0.168232 -0.0165,-0.167747 -0.0166,-0.167958 -0.0166,-0.168113 -0.0166,-0.167808 -0.0229,-0.201912 -0.0229,-0.202165 -0.023,-0.202352 -0.0229,-0.201986 -0.0257,-0.201912 -0.0257,-0.202165 -0.0257,-0.202352 -0.0257,-0.201986 -0.0284,-0.201593 -0.0285,-0.201849 -0.0285,-0.20203 -0.0284,-0.201669 -0.031,-0.200955 -0.031,-0.20121 -0.0311,-0.201395 -0.031,-0.201029 -0.0336,-0.200638 -0.0337,-0.200893 -0.0337,-0.201075 -0.0336,-0.200712 -0.0362,-0.20032 -0.0362,-0.200572 -0.0363,-0.200756 -0.0362,-0.200394 -0.0387,-0.199579 -0.0388,-0.199828 -0.0388,-0.200012 -0.0387,-0.19965 -0.0415,-0.199259 -0.0415,-0.199511 -0.0416,-0.199692 -0.0415,-0.199333 -0.0441,-0.198621 -0.0442,-0.198874 -0.0442,-0.199055 -0.0442,-0.198695 -0.0471,-0.19788 -0.0472,-0.19813 -0.0472,-0.198309 -0.0471,-0.197954 -0.0501,-0.197242 -0.0501,-0.197493 -0.0502,-0.197671 -0.0501,-0.197317 -0.0535,-0.196394 -0.0536,-0.196642 -0.0536,-0.196821 -0.0535,-0.196466 -0.0572,-0.195227 -0.0573,-0.195474 -0.0573,-0.195653 -0.0572,-0.195298 -0.0612,-0.19406 -0.0613,-0.194305 -0.0614,-0.194482 -0.0612,-0.194133 -0.066,-0.192468 -0.0661,-0.192712 -0.0661,-0.192886 -0.066,-0.19254 -0.0641,-0.17613 -0.0642,-0.176349 -0.0642,-0.176513 -0.0641,-0.176192 -0.0662,-0.175282 -0.0663,-0.175501 -0.0663,-0.175662 -0.0662,-0.175344 -0.0688,-0.174324 -0.0688,-0.174547 -0.0689,-0.174702 -0.0688,-0.17439 -0.0715,-0.173052 -0.0716,-0.173269 -0.0717,-0.173431 -0.0715,-0.173115 -0.0746,-0.171673 -0.0747,-0.171888 -0.0748,-0.172045 -0.0746,-0.171736 -0.0778,-0.169974 -0.0779,-0.17019 -0.0779,-0.170346 -0.0778,-0.170038 -0.0806,-0.168808 -0.08074,-0.16902 -0.08081,-0.169176 -0.08067,-0.168869 -0.08265,-0.165307 -0.08276,-0.165515 -0.08283,-0.165666 -0.08268,-0.165367 -0.08605,-0.163291 -0.08616,-0.163497 -0.08624,-0.163645 -0.08608,-0.163351 -0.09029,-0.16117 -0.09041,-0.16137 -0.09049,-0.161519 -0.09033,-0.161229 -0.0957,-0.157985 -0.09582,-0.158184 -0.09591,-0.158329 -0.09574,-0.158044 -0.102494,-0.153212 -0.102624,-0.153402 -0.102716,-0.153544 -0.102533,-0.153268 -0.113637,-0.153995 -0.113637,-0.153994 -0.1113,-0.138913 -0.111301,-0.138912 -0.128292,-0.144862 -0.128292,-0.144859 -0.125106,-0.12362 -0.125107,-0.12362 -0.151659,-0.124895 -0.151658,-0.124894 -0.147408,-0.100256 -0.145286,-0.08369 -0.14656,-0.06627 -0.14656,-0.06627 -0.173111,-0.0599 -0.173108,-0.0599 -0.161005,-0.04397 -0.161002,-0.04397 -0.173111,-0.03845 -0.17311,-0.03844 -0.167375,-0.02953 -0.167375,-0.02952 -0.173111,-0.02358 -0.173111,-0.02357 -0.170775,-0.01657 -0.170772,-0.01657 -0.172047,-0.0104 -0.172049,-0.01042 -0.171143,-0.0068 -0.171357,-0.0068 -0.171514,-0.0068 -0.171206,-0.0068 -0.03632,-0.130417 -0.03632,-0.130417 -0.0505,-0.164562 -0.05057,-0.164772 -0.05061,-0.164922 -0.05052,-0.164623 -0.05528,-0.163291 -0.05535,-0.163497 -0.0554,-0.163645 -0.0553,-0.163351 -0.05952,-0.161594 -0.0596,-0.161796 -0.05965,-0.161944 -0.05955,-0.161653 -0.07767,-0.187694 -0.07777,-0.187931 -0.07784,-0.188101 -0.07769,-0.187764 -0.08318,-0.185465 -0.08329,-0.1857 -0.08337,-0.185869 -0.08321,-0.185535 -0.08711,-0.183557 -0.08722,-0.183786 -0.0873,-0.183955 -0.08714,-0.183625 -0.0904,-0.18207 -0.09051,-0.1823 -0.0906,-0.182467 -0.09043,-0.182137 -0.09305,-0.18048 -0.09317,-0.180706 -0.09325,-0.180873 -0.09309,-0.180545 -0.0956,-0.179312 -0.09572,-0.179538 -0.09581,-0.179703 -0.09563,-0.179377 -0.09804,-0.178039 -0.09816,-0.178261 -0.09825,-0.178427 -0.09807,-0.178104 -0.100054,-0.176554 -0.10018,-0.176776 L 89.5345,47.491033 89.43441,47.314414 89.331915,47.139028 89.22929,46.96342 89.126574,46.787652 89.024041,46.612201 88.91932,46.4383 88.814464,46.264181 88.709514,46.089902 88.604754,45.915936 88.497379,45.743522 88.389868,45.570887 88.28226,45.398099 88.174844,45.225619 88.063774,45.05958 87.953395,44.888542 87.842917,44.717348 87.732636,44.54646 87.619106,44.378076 87.505435,44.20948 87.391659,44.04073 87.278088,43.872285 87.167424,43.715998 87.056619,43.559514 86.945715,43.402885 86.83501,43.24654 86.720421,43.092904 86.605686,42.939075 86.490848,42.785105 86.376215,42.631413 86.2577,42.480855 86.139035,42.330106 86.020261,42.179222 85.901702,42.028608 85.778837,41.881338 85.655815,41.733882 85.532682,41.586293 85.409771,41.43897 85.282662,41.295309 85.15539,41.151466 l -0.127385,-0.143974 -0.127156,-0.143715 -0.131461,-0.139524 -0.131627,-0.1397 -0.131745,-0.139827 -0.131509,-0.139576 -0.136022,-0.13528 -0.136194,-0.13545 -0.136318,-0.135574 -0.136072,-0.13533 -0.140692,-0.130611 -0.140868,-0.130776 -0.140996,-0.130895 -0.140744,-0.130659 -0.145147,-0.125412 -0.145331,-0.125571 -0.145462,-0.125686 -0.1452,-0.125458 -0.149497,-0.120001 -0.149685,-0.120153 -0.149823,-0.120262 -0.149553,-0.120044 -0.154059,-0.114379 -0.154256,-0.114521 -0.154394,-0.114627 -0.154116,-0.114419 -0.157986,-0.10833 -0.158183,-0.108466 -0.15833,-0.108567 -0.158044,-0.108369 -0.162018,-0.102176 -0.162222,-0.102305 -0.162371,-0.102398 -0.162076,-0.102214 -0.166155,-0.09602 -0.166364,-0.09614 -0.166518,-0.09623 -0.166216,-0.09606 -0.169339,-0.08955 -0.169553,-0.08966 -0.169706,-0.08974 -0.1694,-0.08958 -0.163184,-0.07852 -0.163391,-0.07861 -0.163538,-0.07869 -0.163245,-0.07854 -0.16605,-0.07215 -0.16626,-0.07224 -0.166409,-0.07231 -0.166112,-0.07218 -0.168912,-0.06568 -0.169129,-0.06576 -0.16928,-0.06582 -0.168976,-0.0657 -0.170929,-0.05942 -0.171147,-0.05949 -0.171301,-0.05955 -0.170992,-0.05944 -0.172945,-0.05347 -0.173165,-0.05354 -0.173322,-0.05359 -0.173011,-0.05349 -0.174644,-0.04817 -0.174861,-0.04823 -0.175025,-0.04828 -0.174707,-0.04819 -0.175599,-0.04318 -0.175819,-0.04324 -0.175981,-0.04328 -0.175662,-0.0432 -0.176872,-0.03905 -0.177095,-0.03909 -0.177256,-0.03913 -0.176937,-0.03906 -0.166635,-0.0348 -0.167032,-0.03488 -0.166759,-0.03482 v -0.192014 l 0.0088,-0.188332 0.0088,-0.188566 0.0088,-0.18874 0.0088,-0.188402 0.0095,-0.18833 0.0096,-0.188568 0.0096,-0.18874 0.0095,-0.1884 0.0098,-0.188225 0.0098,-0.188462 0.0098,-0.188634 0.0098,-0.188294 0.01,-0.188224 0.01,-0.188462 0.01001,-0.188634 0.01,-0.188294 0.01,-0.188118 0.01,-0.188356 0.01001,-0.188527 0.01,-0.188188 0.01007,-0.188012 0.01009,-0.188249 0.01009,-0.188422 0.01009,-0.188081 0.01072,-0.201382 0.01072,-0.201634 0.01074,-0.20182 0.01072,-0.201455 0.01083,-0.201806 0.01083,-0.20206 0.01085,-0.202244 0.01083,-0.20188 0.01072,-0.201381 0.01072,-0.201635 0.01075,-0.201819 0.01072,-0.201455 0.01061,-0.201382 0.01061,-0.201635 0.01064,-0.201819 0.01061,-0.201455 0.01051,-0.2017 0.01053,-0.201953 0.01053,-0.202138 0.01051,-0.201774 0.0104,-0.2017 0.01042,-0.201953 0.01042,-0.202138 0.0104,-0.201774 0.01007,-0.201487 0.01009,-0.201741 0.01009,-0.201926 0.01009,-0.201562 0.01,-0.201381 0.01,-0.201635 0.01001,-0.201819 0.01,-0.201455 0.0095,-0.201487 0.0096,-0.201742 0.0096,-0.201925 0.0095,-0.201561 0.0091,-0.201806 0.0091,-0.20206 0.0091,-0.202244 0.0091,-0.20188 0.0084,-0.201594 0.0084,-0.201847 0.0084,-0.202032 0.0084,-0.201667 0.0073,-0.201912 0.0073,-0.202166 0.0073,-0.202351 0.0073,-0.201986 0.0055,-0.2017 0.0055,-0.201953 0.0055,-0.202138 0.0055,-0.201774 0.0025,-0.201806 0.0025,-0.20206 0.0025,-0.202244 0.0025,-0.20188 -0.002,-0.201806 -0.002,-0.20206 -0.002,-0.202244 -0.002,-0.20188 -0.0057,-0.190665 -0.0057,-0.190905 -0.0057,-0.191079 -0.0057,-0.190736 -0.01174,-0.148528 -0.01177,-0.148883 -0.01175,-0.14864 -0.02974,-0.154843 -0.02974,-0.154844 -0.06032,-0.194988 -0.07732,-0.183093 -0.09516,-0.172048 -0.113847,-0.161853 -0.123196,-0.141887 -0.140614,-0.133391 -0.158453,-0.125744 -0.177145,-0.118097 -0.166314,-0.08942 -0.166314,-0.08942 -0.193501,-0.08093 -0.193502,-0.08093 -0.180758,-0.06075 -0.180756,-0.06075 -0.200723,-0.05586 -0.200722,-0.05586 -0.184723,-0.04265 -0.184956,-0.04271 -0.185126,-0.04275 -0.18479,-0.04267 -0.186953,-0.03363 -0.187185,-0.03368 -0.18736,-0.03371 -0.18702,-0.03365 -0.188011,-0.02483 -0.188249,-0.02486 -0.188421,-0.02488 -0.188081,-0.02484 -0.188863,-0.01761 -0.189099,-0.01764 -0.189271,-0.01765 -0.188932,-0.01762 -0.189393,-0.01241 -0.18963,-0.01243 -0.189802,-0.01244 -0.189462,-0.01242 -0.189498,-0.0088 -0.189736,-0.0088 -0.189911,-0.0088 -0.189567,-0.0088 -0.210069,-0.0068 -0.210069,-0.0068 -0.210941,-0.0043 -0.210938,-0.0043 H 65.493722 65.29647 65.098725 64.901137 64.703368 64.505521 64.30798 l -0.210919,0.0042 -0.210917,0.0042 -0.210069,0.0068 -0.210069,0.0068 -0.189497,0.0088 -0.189737,0.0088 -0.18991,0.0088 -0.189567,0.0088 -0.189393,0.01241 -0.18963,0.01243 -0.189802,0.01244 -0.189463,0.01242 -0.18886,0.01761 -0.189099,0.01764 -0.189274,0.01765 -0.188929,0.01762 -0.188012,0.02483 -0.188251,0.02486 -0.188421,0.02488 -0.188081,0.02484 -0.186953,0.03364 -0.187185,0.03368 -0.187359,0.03371 -0.18702,0.03365 -0.184724,0.04265 -0.184955,0.04271 -0.185126,0.04275 -0.184791,0.04267 -0.200722,0.05586 -0.200723,0.05586 -0.180758,0.06075 -0.180756,0.06075 -0.193502,0.08093 -0.193501,0.08093 -0.166314,0.08942 -0.166311,0.08942 -0.177148,0.118097 -0.158453,0.125744 -0.140614,0.133391 -0.123193,0.141887 -0.11385,0.161853 -0.09516,0.172048 -0.07731,0.183093 -0.06032,0.194988 -0.02974,0.154844 -0.02974,0.154844 -0.01175,0.148528 -0.01177,0.148883 -0.01174,0.148639 -0.0057,0.190665 -0.0057,0.190905 -0.0057,0.19108 -0.0057,0.190735 -0.002,0.201806 -0.002,0.20206 -0.002,0.202244 -0.002,0.20188 0.0025,0.201806 0.0025,0.202059 0.0025,0.202245 0.0025,0.20188 0.0055,0.2017 0.0055,0.201953 0.0055,0.202138 0.0055,0.201774 0.0073,0.201912 0.0073,0.202166 0.0073,0.20235 0.0073,0.201987 0.0084,0.201593 0.0084,0.201848 0.0084,0.202031 0.0084,0.201668 0.0091,0.201806 0.0091,0.20206 0.0091,0.202244 0.0091,0.20188 0.0095,0.201487 0.0096,0.201741 0.0096,0.201926 0.0095,0.201561 0.01,0.201382 0.01,0.201634 0.01001,0.201819 0.01,0.201456 0.01007,0.201487 0.01009,0.201741 0.01009,0.201925 0.01009,0.201562 0.0104,0.2017 0.01042,0.201953 0.01042,0.202138 0.0104,0.201774 0.01051,0.2017 0.01053,0.201953 0.01053,0.202139 0.01051,0.201774 0.01061,0.201381 0.01061,0.201634 0.01064,0.20182 0.01061,0.201455 0.01072,0.201381 0.01072,0.201635 0.01075,0.201819 0.01072,0.201456 0.01083,0.201805 0.01083,0.20206 0.01085,0.202244 0.01083,0.201881 0.01072,0.201381 0.01072,0.201634 0.01074,0.20182 0.01072,0.201455 0.01007,0.188013 0.01009,0.188248 0.01009,0.188422 0.01009,0.188081 0.01,0.188119 0.01,0.188355 0.01,0.188528 0.01,0.188188 0.01,0.188224 0.01,0.188462 0.01,0.188633 0.01,0.188294 0.0098,0.188225 0.0098,0.188462 0.0098,0.188634 0.0098,0.188294 0.0095,0.188331 0.0096,0.188567 0.0096,0.188741 0.0095,0.188399 0.0088,0.188332 0.0088,0.188566 0.0088,0.188741 0.0088,0.188401 v 0.192014 l -0.166635,0.0348 -0.167032,0.03488 -0.166759,0.03482 -0.176872,0.03905 -0.177095,0.03909 -0.177256,0.03913 -0.176937,0.03906 -0.175599,0.04318 -0.175818,0.04324 -0.175982,0.04328 -0.175662,0.0432 -0.174644,0.04817 -0.174862,0.04823 -0.175024,0.04827 -0.174707,0.04819 -0.172946,0.05348 -0.173165,0.05354 -0.173322,0.05359 -0.17301,0.0535 -0.170929,0.05942 -0.171147,0.05949 -0.171301,0.05955 -0.170992,0.05944 -0.168913,0.06568 -0.169128,0.06576 -0.169281,0.06582 -0.168976,0.0657 -0.16605,0.07215 -0.166259,0.07224 -0.16641,0.07231 -0.166111,0.07218 -0.163184,0.07852 -0.163391,0.07861 -0.163538,0.07869 -0.163245,0.07854 -0.169339,0.08955 -0.169552,0.08966 -0.169707,0.08974 -0.1694,0.08958 -0.166155,0.09602 -0.166364,0.09614 -0.166518,0.09623 -0.166216,0.09606 -0.162018,0.102177 -0.16222,0.102304 -0.16237,0.102399 -0.162077,0.102213 -0.157986,0.10833 -0.158185,0.108466 -0.158329,0.108567 -0.158045,0.108368 -0.154059,0.114379 -0.154253,0.114522 -0.154395,0.114626 -0.154116,0.11442 -0.149499,0.12 -0.149685,0.120153 -0.149823,0.120262 -0.149553,0.120044 -0.145146,0.125413 -0.145331,0.125571 -0.145462,0.125686 -0.145201,0.125458 -0.140692,0.130611 -0.140868,0.130775 -0.140996,0.130896 -0.140744,0.130658 -0.136022,0.135281 -0.136194,0.13545 -0.136318,0.135574 -0.136072,0.13533 -0.131461,0.139524 -0.131624,0.1397 -0.131746,0.139826 -0.131509,0.139576 -0.127111,0.143661 -0.127269,0.143844 -0.127388,0.143974 -0.127156,0.143715 -0.122866,0.147269 -0.123021,0.147456 -0.123133,0.147589 -0.122911,0.147323 -0.118516,0.150558 -0.118665,0.150749 -0.118774,0.150884 -0.118559,0.150615 -0.114589,0.153635 -0.114735,0.153829 -0.114837,0.153971 -0.114633,0.153692 -0.110663,0.156286 -0.110805,0.156485 -0.110905,0.156629 -0.110705,0.156345 -0.11353,0.168384 -0.113671,0.168596 -0.113776,0.168749 -0.113571,0.168446 -0.11024,0.170824 -0.110378,0.171038 -0.110479,0.171195 -0.11028,0.170888 -0.107375,0.172414 -0.107512,0.172635 -0.107607,0.172788 -0.107416,0.17248 -0.104721,0.1739 -0.104856,0.17412 -0.10495,0.174279 -0.10476,0.173965 -0.102494,0.175386 -0.102625,0.175608 -0.102716,0.175768 -0.102533,0.175451 -0.100053,0.176554 -0.10018,0.176776 -0.100273,0.176936 -0.100091,0.176619 -0.09804,0.17804 -0.09816,0.178261 -0.09825,0.178426 -0.09807,0.178105 -0.0956,0.179311 -0.09572,0.179538 -0.09581,0.179704 -0.09563,0.179376 -0.09305,0.18048 -0.09317,0.180706 -0.09325,0.180873 -0.09308,0.180545 -0.0904,0.18207 -0.09051,0.1823 -0.0906,0.182468 -0.09043,0.182137 -0.08711,0.183557 -0.08722,0.183786 -0.0873,0.183955 -0.08714,0.183625 -0.08318,0.185465 -0.08329,0.1857 -0.08337,0.185869 -0.08321,0.185534 -0.07767,0.187695 -0.07776,0.187931 -0.07784,0.188101 -0.07769,0.187764 -0.05952,0.161594 -0.0596,0.161796 -0.05965,0.161944 -0.05955,0.161653 -0.05528,0.16329 -0.05535,0.163497 -0.0554,0.163645 -0.0553,0.163351 -0.0505,0.164563 -0.05057,0.164772 -0.05061,0.164921 -0.05052,0.164624 -0.03632,0.130417 -0.03632,0.130417 -0.171143,0.0068 -0.171357,0.0068 -0.171514,0.0068 -0.171206,0.0068 -0.172049,0.01042 -0.172047,0.01042 -0.170773,0.01657 -0.170774,0.01657 -0.173111,0.02358 -0.173111,0.02358 -0.167375,0.02952 -0.167375,0.02953 -0.173111,0.03844 -0.17311,0.03845 -0.161005,0.04397 -0.161002,0.04397 -0.173111,0.0599 -0.173108,0.0599 -0.14656,0.06627 -0.14656,0.06627 -0.145286,0.08369 -0.147409,0.100255 -0.151658,0.124895 -0.151657,0.124895 -0.125107,0.12362 -0.125106,0.12362 -0.128293,0.144859 -0.128293,0.144861 -0.1113,0.138913 -0.111301,0.138913 -0.113637,0.153994 -0.113636,0.153994 -0.102495,0.153212 -0.102623,0.153402 -0.102717,0.153544 -0.102532,0.153268 -0.0957,0.157986 -0.09583,0.158183 -0.09591,0.158329 -0.09574,0.158045 -0.09029,0.161169 -0.09041,0.16137 -0.09049,0.16152 -0.09033,0.161229 -0.08605,0.16329 -0.08616,0.163497 -0.08624,0.163645 -0.08608,0.163351 -0.08265,0.165307 -0.08276,0.165516 -0.08283,0.165665 -0.08268,0.165368 -0.08064,0.168808 -0.08074,0.16902 -0.08081,0.169176 -0.08067,0.168869 -0.07777,0.169974 -0.07787,0.17019 -0.07794,0.170346 -0.0778,0.170037 -0.07459,0.171673 -0.07468,0.171889 -0.07475,0.172045 -0.07462,0.171736 -0.07151,0.173052 -0.0716,0.173269 -0.07167,0.17343 -0.07154,0.173115 -0.06875,0.174325 -0.06884,0.174546 -0.0689,0.174703 -0.06878,0.174389 -0.06621,0.175282 -0.06629,0.175501 -0.06635,0.175662 -0.06623,0.175344 -0.06409,0.17613 -0.06417,0.176349 -0.06423,0.176513 -0.06411,0.176192 -0.066,0.192469 -0.06608,0.192712 -0.06614,0.192886 -0.06602,0.19254 -0.06122,0.194061 -0.0613,0.194304 -0.06135,0.194482 -0.06124,0.194133 -0.05719,0.195226 -0.05726,0.195474 -0.05731,0.195653 -0.05721,0.195298 -0.05348,0.196395 -0.05354,0.196642 -0.05359,0.196821 -0.0535,0.196466 -0.05008,0.197242 -0.05014,0.197493 -0.05019,0.197671 -0.0501,0.197317 -0.04711,0.19788 -0.04717,0.19813 -0.04721,0.198308 -0.04713,0.197954 -0.04414,0.198622 -0.04419,0.198874 -0.04423,0.199054 -0.04415,0.198696 -0.04149,0.199259 -0.04154,0.199511 -0.04158,0.199691 -0.0415,0.199333 -0.03873,0.199579 -0.03878,0.199829 -0.03881,0.200011 -0.03874,0.199651 -0.03618,0.20032 -0.03623,0.200572 -0.03626,0.200756 -0.03619,0.200394 -0.03363,0.200638 -0.03368,0.200892 -0.03371,0.201075 -0.03365,0.200712 -0.03098,0.200955 -0.03102,0.20121 -0.03105,0.201395 -0.03099,0.20103 -0.02843,0.201592 -0.02847,0.20185 -0.0285,0.202029 -0.02845,0.201669 -0.02568,0.201913 -0.02571,0.202164 -0.02573,0.202352 -0.02569,0.201987 -0.02292,0.201912 -0.02295,0.202165 -0.02297,0.202352 -0.02293,0.201986 -0.01655,0.167747 -0.01657,0.167958 -0.01659,0.168112 -0.01656,0.167808 -0.01241,0.168172 -0.01243,0.168382 -0.01244,0.168539 -0.01242,0.168232 -0.0042,0.168384 -0.0043,0.168595 -0.0043,0.16875 -0.0042,0.168445 0.0091,0.183092 0.0091,0.183094 0.02124,0.152083 0.02124,0.152082 0.04588,0.185217 0.05947,0.161853 0.07307,0.141462 0.08624,0.12532 0.109601,0.126594 0.118097,0.113423 0.128293,0.10068 0.140188,0.08964 0.1404,0.06627 0.1404,0.06627 0.16695,0.05353 0.166951,0.05352 0.170136,0.04142 0.170137,0.04142 0.170774,0.03292 0.170774,0.03292 0.163339,0.02336 0.16334,0.02336 0.183094,0.01868 0.183093,0.01868 0.174007,0.01124 0.174226,0.01127 0.174386,0.01127 0.174071,0.01125 0.174431,0.0069 0.174651,0.0069 0.174811,0.0069 0.174495,0.0069 0.195228,0.0066 0.195473,0.0066 0.195651,0.0066 0.1953,0.0066 0.195015,0.0069 0.195261,0.0069 0.195439,0.0069 0.195087,0.0069 0.195121,0.0074 0.195367,0.0074 0.195545,0.0074 0.195194,0.0074 0.195015,0.0086 0.19526,0.0086 0.19544,0.0086 0.195087,0.0086 0.195121,0.01103 0.195367,0.01105 0.195545,0.01105 0.195194,0.01103 0.194696,0.0174 0.194943,0.01742 0.19512,0.01744 0.194768,0.0174 0.208583,0.03144 0.208581,0.03144 0.175447,0.03908 0.175446,0.03908 0.209008,0.05692 0.167375,0.05608 0.134665,0.0633 0.112148,0.07774 0.09304,0.09388 0.08878,0.119798 0.09792,0.172261 0.09792,0.17226 0.08219,0.168615 0.08238,0.169019 0.08225,0.168741 0.05374,0.1387 0.05374,0.138701 0.03462,0.128079 0.03462,0.128081 0.01953,0.134028 0.01953,0.134027 0.0057,0.145712 0.0057,0.14571 1.45e-4,0.149942 1.44e-4,0.150301 1.46e-4,0.150056 -0.0686,0.178235 -0.06877,0.178659 -0.06866,0.178368 -0.06861,0.178517 -0.06877,0.178942 -0.06866,0.178651 -0.06846,0.178091 -0.06863,0.178518 -0.06851,0.178226 -0.07151,0.186209 -0.0716,0.186444 -0.07167,0.186613 -0.07154,0.186278 -0.07119,0.185996 -0.07128,0.186233 -0.07135,0.1864 -0.07122,0.186065 -0.0712,0.186422 -0.07128,0.186654 -0.07135,0.186827 -0.07122,0.186489 -0.07098,0.186315 -0.07107,0.186548 -0.07114,0.18672 -0.07101,0.186383 -0.07066,0.186209 -0.07075,0.186443 -0.07082,0.186613 -0.07069,0.186279 -0.07066,0.186422 -0.07075,0.186654 -0.07082,0.186827 -0.07069,0.186489 -0.07045,0.186526 -0.07054,0.186761 -0.07061,0.186933 -0.07048,0.186596 -0.07024,0.186529 -0.07033,0.186761 -0.07039,0.186933 -0.07026,0.186596 -0.07024,0.186846 -0.07033,0.187078 -0.07039,0.187253 -0.07026,0.186913 -0.06992,0.186633 -0.07001,0.186868 -0.07007,0.18704 -0.06995,0.186702 -0.06981,0.18695 -0.0699,0.187188 -0.06997,0.187357 -0.06984,0.18702 -0.0696,0.186633 -0.06969,0.186868 -0.06975,0.187039 -0.06963,0.186703 -0.0695,0.187057 -0.06958,0.187294 -0.06965,0.187463 -0.06952,0.187127 -0.06929,0.187057 -0.06937,0.187294 -0.06944,0.187464 -0.06931,0.187126 -0.06897,0.186846 -0.06905,0.187079 -0.06912,0.187253 -0.06899,0.186913 -0.06886,0.186953 -0.06895,0.187185 -0.06901,0.187359 -0.06889,0.18702 -0.06854,0.187057 -0.06863,0.187294 -0.06869,0.187464 -0.06857,0.187127 -0.06844,0.187163 -0.06852,0.187399 -0.06858,0.18757 -0.06846,0.187239 -0.06822,0.18716 -0.06831,0.1874 -0.06837,0.18757 -0.06825,0.18723 -0.06791,0.18738 -0.06799,0.18761 -0.06805,0.18778 -0.06793,0.18745 -0.0678,0.18769 -0.06788,0.18793 -0.06795,0.1881 -0.06782,0.18777 -0.06738,0.1878 -0.06746,0.18803 -0.06752,0.18821 -0.0674,0.18787 -0.06706,0.18759 -0.06714,0.18782 -0.0672,0.188 -0.06708,0.18766 -0.06674,0.1879 -0.06682,0.18815 -0.06688,0.18831 -0.06676,0.18798 -0.06621,0.1878 -0.06629,0.18803 -0.06635,0.18821 -0.06623,0.18787 -0.06578,0.18833 -0.06587,0.18857 -0.06593,0.18874 -0.06581,0.1884 -0.06515,0.18833 -0.06523,0.18857 -0.06529,0.18874 -0.06517,0.1884 -0.0644,0.18876 -0.06449,0.18899 -0.06454,0.18916 -0.06443,0.18883 -0.05655,0.16934 -0.05662,0.16955 -0.05668,0.16971 -0.05657,0.1694 -0.05528,0.16997 -0.05535,0.17019 -0.0554,0.17035 -0.0553,0.17003 -0.05369,0.17051 -0.05375,0.17072 -0.05381,0.17088 -0.05371,0.17056 -0.05178,0.17093 -0.05184,0.17115 -0.05189,0.1713 -0.0518,0.17099 -0.04934,0.17168 -0.0494,0.17188 -0.04944,0.17205 -0.04936,0.17174 -0.04541,0.17262 -0.04547,0.17285 -0.04551,0.173 -0.04543,0.17269 -0.04567,0.20009 -0.04567,0.20009 -0.02634,0.14995 -0.02634,0.14996 -0.01019,0.13254 0.0017,0.13892 0.01848,0.14209 0.01848,0.1421 0.04121,0.14168 0.04121,0.14167 0.05523,0.12532 0.06415,0.1096 0.107477,0.14189 0.121496,0.12362 0.14486,0.10875 0.177571,0.0986 0.15017,0.0607 0.150171,0.0607 0.197537,0.0603 0.197537,0.0603 0.178357,0.0443 0.178582,0.0444 0.178745,0.0444 0.178423,0.0444 0.190983,0.0414 0.191224,0.0414 0.191398,0.0415 0.191054,0.0414 0.191514,0.037 0.191755,0.0371 0.19193,0.0371 0.191584,0.037 0.191938,0.0337 0.19218,0.0338 0.192356,0.0338 0.192008,0.0337 0.192788,0.031 0.193029,0.031 0.193206,0.0311 0.192858,0.031 0.193212,0.0287 0.193455,0.0288 0.193631,0.0288 0.193283,0.0288 0.193423,0.0263 0.193669,0.0263 0.193843,0.0264 0.193495,0.0263 0.193741,0.0241 0.193987,0.0241 0.194162,0.0241 0.193813,0.0241 0.193847,0.0216 0.194094,0.0217 0.194269,0.0217 0.193919,0.0217 0.194061,0.019 0.194304,0.019 0.194482,0.019 0.194133,0.019 0.194378,0.0159 0.194624,0.0159 0.1948,0.0159 0.19445,0.0159 0.194698,0.0117 0.194941,0.0117 0.19512,0.0117 0.19477,0.0117 0.195226,0.006 0.195474,0.006 0.195653,0.006 0.195298,0.006 0.171249,-0.002 0.171462,-0.002 0.171621,-0.002 0.171312,-0.002 0.18904,-0.0117 0.189041,-0.0117 0.152293,-0.0204 0.152296,-0.0204 0.186918,-0.0429 0.163127,-0.0548 0.146558,-0.068 0.13679,-0.082 0.117247,-0.0854 0.106629,-0.10281 0.106626,-0.14103 0.05756,-0.10047 0.05756,-0.10047 0.065,-0.13594 0.065,-0.13594 0.07816,-0.18373 0.07817,-0.18373 0.06419,-0.16286 0.06427,-0.16308 0.06433,-0.16322 0.06422,-0.16292 0.06218,-0.16372 0.06225,-0.16392 0.06231,-0.16407 0.0622,-0.16378 0.06133,-0.16392 0.0614,-0.16414 0.06146,-0.16428 0.06135,-0.16399 0.06101,-0.16424 0.06108,-0.16446 0.06114,-0.1646 0.06103,-0.1643 0.07243,-0.19479 0.0726,-0.19525 0.07248,-0.19493 0.07285,-0.19507 0.07302,-0.19553 0.0729,-0.19521 0.07426,-0.19451 0.07444,-0.19496 0.07432,-0.19465 0.207309,-0.0361 0.207504,-0.0361 0.207111,-0.0361 0.208722,-0.0322 0.208923,-0.0322 0.208524,-0.0321 0.208725,-0.0309 0.208922,-0.0309 0.208525,-0.0308 0.209007,-0.0299 0.209206,-0.0299 0.208807,-0.0298 0.197562,-0.0271 0.197811,-0.0271 0.19799,-0.0271 0.197635,-0.0271 0.19788,-0.0259 0.19813,-0.0259 0.198308,-0.0259 0.197954,-0.0259 0.197562,-0.0248 0.197811,-0.0249 0.19799,-0.0249 0.197635,-0.0248 0.197773,-0.0237 0.198023,-0.0237 0.198202,-0.0237 0.197847,-0.0237 0.19788,-0.0226 0.19813,-0.0226 0.198309,-0.0226 0.197954,-0.0226 0.198091,-0.0214 0.198343,-0.0215 0.198521,-0.0215 0.198165,-0.0214 0.198093,-0.0203 0.198341,-0.0203 0.198524,-0.0203 0.198165,-0.0203 0.198304,-0.0192 0.198554,-0.0192 0.198735,-0.0193 0.198378,-0.0192 0.198304,-0.0181 0.198554,-0.0182 0.198735,-0.0182 0.198378,-0.0182 0.198728,-0.0169 0.198978,-0.0169 0.199161,-0.0169 0.198803,-0.0169 0.198728,-0.0157 0.19898,-0.0157 0.199161,-0.0157 0.198802,-0.0157 0.198729,-0.0144 0.198978,-0.0144 0.199161,-0.0145 0.198802,-0.0144 0.198622,-0.0133 0.198873,-0.0133 0.199055,-0.0133 0.198695,-0.0133 0.199048,-0.012 0.199296,-0.012 0.199481,-0.012 0.19912,-0.012 0.198941,-0.0107 0.199192,-0.0107 0.199374,-0.0107 0.199013,-0.0107 0.198835,-0.009 0.199084,-0.009 0.199268,-0.009 0.198909,-0.009 0.199152,-0.008 0.199405,-0.008 0.199585,-0.008 0.199226,-0.008 0.199472,-0.006 0.199722,-0.006 0.199905,-0.006 0.199546,-0.006 0.199683,-0.004 0.199936,-0.004 0.200118,-0.004 0.199757,-0.004 0.199472,-0.002 0.199722,-0.002 0.199905,-0.002 0.199543,-0.002 0.199366,-6.5e-4 0.199618,-6.6e-4 0.199798,-6.5e-4 0.199439,-6.5e-4 0.199472,6.5e-4 0.199723,6.5e-4 0.199905,6.6e-4 0.199543,6.5e-4 0.199579,0.002 0.199829,0.002 0.200011,0.002 0.199651,0.002 0.199365,0.003 0.199616,0.003 0.199798,0.003 0.199439,0.003 0.214247,0.004 0.21445,0.004 0.214042,0.004 0.214389,-0.004 0.214593,-0.004 0.214186,-0.004"
       id="path937"
       inkscape:connector-curvature="0"
       sodipodi:nodetypes="cccccccccccccccccccccccccccccccccccccccccccccccccccccccccccccccccccccccccccccccccccccccccccccccccccccccccccccccccccccccccccccccccccccccccccccccccccccccccccccccccccccccccccccccccccccccccccccccccccccccccccccccccccccccccccccccccccccccccccccccccccccccccccccccccccccccccccccccccccccccccccccccccccccccccccccccccccccccccccccccccccccccccccccccccccccccccccccccccccccccccccccccccccccccccccccccccccccccccccccccccccccccccccccccccccccccccccccccccccccccccccccccccccccccccccccccccccccccccccccccccccccccccccccccccccccccccccccccccccccccccccccccccccccccccccccccccccccccccccccccccccccccccc" />
  </g>
  <g
     id="g1182"
     inkscape:groupmode="layer"
     inkscape:label="B.Cu-disabled"
     style="display:inline" />
  <g
     id="g1186"
     inkscape:groupmode="layer"
     inkscape:label="B.Silk-disabled"
     style="display:inline" />
  <g
     id="g1184"
     inkscape:groupmode="layer"
     inkscape:label="B.Mask-disabled"
     style="display:inline" />
  <g
     id="g1188"
     inkscape:groupmode="layer"
     inkscape:label="F.Cu"
     style="display:inline" />
  <g
     id="g1190"
     inkscape:groupmode="layer"
     inkscape:label="F.Mask"
     style="display:inline">
    <path
       inkscape:connector-curvature="0"
       d="m 254.95898,236.2832 c -0.94491,0.006 -1.8721,0.0182 -2.7832,0.0371 -2.1547,0.0445 -4.3296,0.12287 -6.50586,0.20313 v 5.80859 c 0.10944,0.009 0.18669,0.0103 0.29883,0.0195 6.01162,0.49684 17.63351,0.63782 23.50195,0.28516 2.73233,-0.16434 6.07387,-0.28123 7.42774,-0.25977 4.68597,0.0743 22.40752,1.87726 37.67383,3.83203 25.95759,3.32376 56.13461,8.48101 63.31054,10.82032 1.5847,0.51658 1.69275,0.68171 3.04102,4.59179 1.85371,5.37605 2.7095,9.85306 3.02539,15.82227 0.12472,2.35455 0.16014,5.56534 0.0781,7.13672 l -0.14843,2.85742 -0.99414,-0.14453 c -5.23793,-0.76864 -22.28826,-4.08219 -36.95313,-7.17969 -10.06783,-2.12651 -13.57133,-2.90499 -27.40039,-6.09375 -9.66429,-2.22845 -13.11338,-2.95222 -15.30273,-3.20898 -1.39693,-0.16385 -3.80149,0.33483 -4.90821,1.01757 -3.12329,1.92674 -8.41334,7.9744 -13.82812,15.81055 l -2.46094,3.56055 -1.44141,0.13476 c -2.42045,0.22398 -28.52137,0.31564 -33.76562,0.11914 -0.39337,-0.0147 -0.76276,-0.0397 -1.1543,-0.0566 v 5.15821 c 9.40197,0.23826 28.15855,0.31274 32.45899,0.0664 4.5388,-0.25991 6.59524,-0.53686 7.09765,-0.95117 0.16479,-0.13602 1.35923,-1.8365 2.65625,-3.7793 4.08234,-6.11496 7.51497,-10.37726 11.24219,-13.96484 2.02832,-1.95247 2.04805,-1.96157 3.99609,-1.8789 1.40379,0.0594 5.91047,0.98789 15.08985,3.11132 30.70243,7.1022 64.09297,13.79572 68.85351,13.80078 1.06024,10e-4 1.11824,-0.0272 1.33594,-0.69336 0.58023,-1.77544 0.7589,-4.33934 0.75391,-10.75585 -0.004,-5.21293 -0.0886,-7.1619 -0.38282,-9.09571 -1.06869,-7.02502 -3.46711,-15.1641 -5.32421,-18.05859 -0.84239,-1.3129 -1.50089,-1.60728 -6.30469,-2.82031 -12.1519,-3.06863 -40.47369,-7.78449 -65.46094,-10.89844 -24.48105,-3.05088 -42.54857,-4.43983 -56.72266,-4.35352 z m -18.57908,0 c 0.94491,0.006 1.8721,0.0182 2.7832,0.0371 2.1547,0.0445 4.3296,0.12287 6.50586,0.20313 v 5.80859 c -0.10944,0.009 -0.18669,0.0103 -0.29883,0.0195 -6.01162,0.49684 -17.63351,0.63782 -23.50195,0.28516 -2.73233,-0.16434 -6.07387,-0.28123 -7.42774,-0.25977 -4.68597,0.0743 -22.40752,1.87726 -37.67383,3.83203 -25.95759,3.32376 -56.13461,8.48101 -63.31054,10.82032 -1.5847,0.51658 -1.69275,0.68171 -3.04102,4.59179 -1.85371,5.37605 -2.7095,9.85306 -3.02539,15.82227 -0.12472,2.35455 -0.16014,5.56534 -0.0781,7.13672 l 0.14843,2.85742 0.99414,-0.14453 c 5.23793,-0.76864 22.28826,-4.08219 36.95313,-7.17969 10.06783,-2.12651 13.57133,-2.90499 27.40039,-6.09375 9.66429,-2.22845 13.11338,-2.95222 15.30273,-3.20898 1.39693,-0.16385 3.80149,0.33483 4.90821,1.01757 3.12329,1.92674 8.41334,7.9744 13.82812,15.81055 l 2.46094,3.56055 1.44141,0.13476 c 2.42045,0.22398 28.52137,0.31564 33.76562,0.11914 0.39337,-0.0147 0.76276,-0.0397 1.1543,-0.0566 v 5.15821 c -9.40197,0.23826 -28.15855,0.31274 -32.45899,0.0664 -4.5388,-0.25991 -6.59524,-0.53686 -7.09765,-0.95117 -0.16479,-0.13602 -1.35923,-1.8365 -2.65625,-3.7793 -4.08234,-6.11496 -7.51497,-10.37726 -11.24219,-13.96484 -2.02832,-1.95247 -2.04805,-1.96157 -3.99609,-1.8789 -1.40379,0.0594 -5.91047,0.98789 -15.08985,3.11132 -30.70243,7.1022 -64.09297,13.79572 -68.85351,13.80078 -1.06024,10e-4 -1.11824,-0.0272 -1.33594,-0.69336 -0.58023,-1.77544 -0.7589,-4.33934 -0.75391,-10.75585 0.004,-5.21293 0.0886,-7.1619 0.38282,-9.09571 1.06869,-7.02502 3.46711,-15.1641 5.32421,-18.05859 0.84239,-1.3129 1.50089,-1.60728 6.30469,-2.82031 12.1519,-3.06863 40.47369,-7.78449 65.46094,-10.89844 24.48105,-3.05088 42.54857,-4.43983 56.72266,-4.35352 z"
       inkscape:original-d="m 254.95898,236.2832 c -0.94491,0.006 -1.8721,0.0182 -2.7832,0.0371 -2.1547,0.0445 -4.3296,0.12287 -6.50586,0.20313 v 5.80859 c 0.10944,0.009 0.18669,0.0103 0.29883,0.0195 6.01162,0.49684 17.63351,0.63782 23.50195,0.28516 2.73233,-0.16434 6.07387,-0.28123 7.42774,-0.25977 4.68597,0.0743 22.40752,1.87726 37.67383,3.83203 25.95759,3.32376 56.13461,8.48101 63.31054,10.82032 1.5847,0.51658 1.69275,0.68171 3.04102,4.59179 1.85371,5.37605 2.7095,9.85306 3.02539,15.82227 0.12472,2.35455 0.16014,5.56534 0.0781,7.13672 l -0.14843,2.85742 -0.99414,-0.14453 c -5.23793,-0.76864 -22.28826,-4.08219 -36.95313,-7.17969 -10.06783,-2.12651 -13.57133,-2.90499 -27.40039,-6.09375 -9.66429,-2.22845 -13.11338,-2.95222 -15.30273,-3.20898 -1.39693,-0.16385 -3.80149,0.33483 -4.90821,1.01757 -3.12329,1.92674 -8.41334,7.9744 -13.82812,15.81055 l -2.46094,3.56055 -1.44141,0.13476 c -2.42045,0.22398 -28.52137,0.31564 -33.76562,0.11914 -0.39337,-0.0147 -0.76276,-0.0397 -1.1543,-0.0566 v 5.15821 c 9.40197,0.23826 28.15855,0.31274 32.45899,0.0664 4.5388,-0.25991 6.59524,-0.53686 7.09765,-0.95117 0.16479,-0.13602 1.35923,-1.8365 2.65625,-3.7793 4.08234,-6.11496 7.51497,-10.37726 11.24219,-13.96484 2.02832,-1.95247 2.04805,-1.96157 3.99609,-1.8789 1.40379,0.0594 5.91047,0.98789 15.08985,3.11132 30.70243,7.1022 64.09297,13.79572 68.85351,13.80078 1.06024,10e-4 1.11824,-0.0272 1.33594,-0.69336 0.58023,-1.77544 0.7589,-4.33934 0.75391,-10.75585 -0.004,-5.21293 -0.0886,-7.1619 -0.38282,-9.09571 -1.06869,-7.02502 -3.46711,-15.1641 -5.32421,-18.05859 -0.84239,-1.3129 -1.50089,-1.60728 -6.30469,-2.82031 -12.1519,-3.06863 -40.47369,-7.78449 -65.46094,-10.89844 -24.48105,-3.05088 -42.54857,-4.43983 -56.72266,-4.35352 z"
       inkscape:path-effect="#path-effect117"
       style="display:inline;fill:#1b1f1d;fill-opacity:1;stroke-width:0.21405078"
       transform="matrix(0.21750305,0,0,0.21750305,11.566147,11.484465)"
       id="path1023" />
  </g>
  <g
     id="g1192"
     inkscape:groupmode="layer"
     inkscape:label="F.Silk"
     style="display:inline">
    <path
       style="display:inline;fill:#191919;fill-opacity:1;stroke-width:0.0465567"
       d="m 64.706985,14.75041 c -0.405191,-0.0015 -0.82246,0.0053 -1.250643,0.02166 -3.186656,0.121832 -5.18373,0.549083 -5.676744,1.213684 -0.164237,0.221208 -0.191379,0.664296 -0.162279,2.628728 0.02858,1.929954 0.07596,3.069784 0.312236,7.518724 0.554668,10.444729 0.563694,10.635895 0.697115,14.455881 0.09336,2.673304 0.222484,6.223806 0.333051,9.148722 0.03148,0.832199 0.05903,2.822313 0.0599,4.422703 0.0035,4.17116 -0.01932,4.282076 -0.928636,4.496196 -0.433932,0.102183 -2.0809,0.06631 -3.235784,-0.07009 -0.968944,-0.114437 -5.276696,-0.678808 -8.403605,-1.101109 -5.47359,-0.739235 -7.165651,-0.904224 -9.256623,-0.903571 -1.924732,6.52e-4 -2.786481,0.162516 -3.329665,0.626169 -1.001639,0.854983 -2.452764,3.419992 -3.762123,6.649562 -1.08524,2.67676 -1.749245,4.83498 -2.316918,7.534017 -0.74356,3.535325 -1.305892,8.290083 -1.027617,8.687378 0.195749,0.279472 1.014988,0.414139 2.909528,0.478761 4.06633,0.138698 4.530617,0.170481 5.516167,0.377231 0.946164,0.198485 1.398122,0.442462 1.720057,0.928212 0.680139,1.026251 1.009375,2.142966 0.905698,3.069681 -0.04867,0.434743 -0.03899,0.406852 -1.413346,4.00554 -5.067586,13.269391 -8.30968,22.497761 -8.31142,23.656851 -4.78e-4,0.21335 0.0019,0.21591 0.225999,0.31224 1.041007,0.44783 5.847219,1.19234 9.085,1.4074 0.801712,0.0532 2.0137,0.0377 2.227708,-0.0289 0.07039,-0.0219 0.142103,-0.11028 0.201784,-0.24851 0.194378,-0.45025 0.819847,-2.11307 2.155914,-5.73197 5.08876,-13.783611 7.583426,-20.098949 9.294007,-23.528141 0.813229,-1.630279 1.177033,-2.177314 1.58582,-2.384462 0.679035,-0.344094 2.277822,-0.554787 5.11302,-0.673324 1.233503,-0.05159 4.500827,-0.08018 7.025094,-0.07774 v -5.620244 c -0.735554,0.0211 -1.754297,0.04211 -2.881491,0.05268 -3.624506,0.034 -5.403318,-0.04197 -5.712429,-0.243416 -0.0562,-0.03664 -0.374549,-0.470222 -0.707309,-0.963472 -0.332753,-0.493249 -0.826522,-1.174912 -1.097712,-1.5153 -0.646112,-0.810921 -1.579885,-1.757113 -1.775707,-1.799072 -0.255314,-0.05475 -1.186406,0.123044 -3.556515,0.678847 -5.633389,1.321055 -13.407597,2.891511 -14.850531,3.000437 -0.313237,0.02365 -0.415512,0.0167 -0.444777,-0.03059 -0.296047,-0.478888 -0.324714,-3.508338 -0.04715,-5.002146 0.287038,-1.544753 0.778234,-3.034364 1.169929,-3.548019 0.09144,-0.119931 0.199287,-0.17653 0.544182,-0.286747 2.397473,-0.766115 11.236262,-2.204296 18.051054,-2.93714 3.784275,-0.406943 6.47223,-0.592458 9.202674,-0.585389 0.691553,0.0017 1.390273,0.01857 2.105786,0.0446 V 14.757631 c -0.09877,-0.0015 -0.192416,-0.0064 -0.292694,-0.0068 z m 0.585812,0 v 4.35e-4 c -0.100276,3.91e-4 -0.193926,0.0053 -0.292694,0.0068 v 48.129336 c 0.715513,-0.02602 1.414233,-0.04282 2.105786,-0.0446 2.730444,-0.0071 5.418399,0.178446 9.202674,0.585389 6.814792,0.732844 15.653581,2.171025 18.051054,2.93714 0.344895,0.110217 0.452743,0.166816 0.544182,0.286747 0.391694,0.513655 0.88289,2.003266 1.169929,3.548019 0.27756,1.493808 0.248893,4.523258 -0.04716,5.002146 -0.02926,0.04729 -0.131539,0.05424 -0.444776,0.03059 -1.442935,-0.108926 -9.217142,-1.679382 -14.850532,-3.000437 -2.370109,-0.555803 -3.3012,-0.733595 -3.556514,-0.678847 -0.195822,0.04196 -1.129595,0.988151 -1.775708,1.799072 -0.271189,0.340388 -0.764958,1.022051 -1.097711,1.5153 -0.332761,0.49325 -0.651107,0.926833 -0.70731,0.963472 -0.309111,0.201444 -2.087922,0.277414 -5.712428,0.243416 -1.127194,-0.01057 -2.145937,-0.03157 -2.881491,-0.05268 v 5.620244 c 2.524266,-0.0024 5.791591,0.02616 7.025094,0.07774 2.835198,0.118537 4.433984,0.32923 5.11302,0.673324 0.408786,0.207148 0.772591,0.754183 1.585819,2.384462 1.710581,3.429192 4.205248,9.74453 9.294008,23.528142 1.336067,3.6189 1.961536,5.28172 2.155914,5.73197 0.05968,0.13823 0.131391,0.22662 0.201784,0.24851 0.214008,0.0666 1.425996,0.0821 2.227708,0.0289 3.23778,-0.21506 8.043995,-0.95957 9.085005,-1.4074 0.22409,-0.0963 0.22647,-0.0989 0.226,-0.31224 -0.002,-1.15909 -3.243841,-10.38746 -8.311427,-23.656852 -1.374358,-3.598688 -1.364677,-3.570797 -1.413345,-4.00554 -0.103678,-0.926715 0.225559,-2.04343 0.905698,-3.069681 0.321935,-0.48575 0.773893,-0.729727 1.720057,-0.928212 0.98555,-0.20675 1.449836,-0.238533 5.516157,-0.377231 1.89455,-0.06462 2.71378,-0.199289 2.90953,-0.478761 0.27828,-0.397295 -0.28404,-5.152053 -1.0276,-8.687378 -0.56768,-2.699037 -1.23168,-4.857257 -2.316926,-7.534017 -1.30936,-3.22957 -2.760486,-5.794579 -3.762124,-6.649562 -0.543184,-0.463653 -1.404933,-0.62551 -3.329665,-0.626169 -2.090973,-6.53e-4 -3.783031,0.164336 -9.256624,0.903571 -3.126908,0.422301 -7.43466,0.986672 -8.403604,1.101109 -1.154885,0.136402 -2.801852,0.172277 -3.235784,0.07009 -0.909319,-0.21412 -0.932153,-0.325036 -0.928636,-4.496196 8.7e-4,-1.60039 0.02841,-3.590504 0.0599,-4.422703 0.110568,-2.924916 0.239691,-6.475418 0.333052,-9.148722 0.133421,-3.819986 0.142447,-4.011152 0.697115,-14.455881 0.236275,-4.44894 0.283654,-5.58877 0.312236,-7.518724 0.0291,-1.964433 0.002,-2.40752 -0.162279,-2.628728 -0.493014,-0.664602 -2.490088,-1.091852 -5.676745,-1.213684 -0.428181,-0.01638 -0.845451,-0.02321 -1.250642,-0.02166 z m -8.049736,20.713342 c -0.111964,0.0047 -0.368324,0.06734 -0.945203,0.194987 -4.547334,1.006204 -8.215303,3.339962 -11.347543,7.219657 -2.039182,2.525796 -4.816392,7.327967 -6.134264,10.607522 -0.295343,0.734947 -0.697121,1.925187 -0.661856,1.9605 0.01407,0.01409 0.3258,0.04523 0.692865,0.06925 1.588564,0.103914 3.190894,0.283915 6.626622,0.743845 8.115717,1.086421 9.585501,1.269709 10.777872,1.344526 0.754314,0.04732 0.923838,0.04899 1.357269,0.01444 0.173241,-0.01381 0.222838,-0.03738 0.250213,-0.119372 0.06182,-0.185489 0.07992,-4.722888 0.02591,-6.527215 -0.02914,-0.973032 -0.104474,-3.162544 -0.166951,-4.865356 -0.0625,-1.702812 -0.156639,-4.321518 -0.209006,-5.819481 -0.05235,-1.497961 -0.115361,-3.121399 -0.140189,-3.607917 -0.02482,-0.486517 -0.04566,-0.965241 -0.04588,-1.0633 -2.17e-4,-0.10359 0.0321,-0.156781 -0.07987,-0.152083 z m 15.51366,0 c -0.111964,-0.0047 -0.07962,0.04849 -0.07986,0.152083 -2.18e-4,0.09806 -0.02106,0.576783 -0.04588,1.0633 -0.02483,0.486518 -0.08783,2.109956 -0.140188,3.607917 -0.05237,1.497963 -0.146505,4.116669 -0.209007,5.819481 -0.06248,1.702812 -0.13781,3.892324 -0.166951,4.865356 -0.05401,1.804327 -0.03591,6.341726 0.02591,6.527215 0.02738,0.08199 0.07697,0.105567 0.250214,0.119372 0.433431,0.03454 0.602957,0.03288 1.357269,-0.01444 1.192371,-0.07482 2.662154,-0.258105 10.777872,-1.344526 3.435728,-0.45993 5.038058,-0.639931 6.626622,-0.743845 0.367064,-0.02401 0.678783,-0.05515 0.692864,-0.06925 0.03527,-0.03531 -0.366512,-1.225553 -0.661855,-1.9605 C 89.865858,50.20636 87.088649,45.404189 85.049466,42.878393 81.917227,38.998698 78.249258,36.66494 73.701924,35.658736 73.125045,35.53109 72.868685,35.468415 72.756721,35.463749 Z m -8.987718,47.304364 c -2.4968,-4.35e-4 -5.097806,0.02058 -6.004274,0.06287 -2.868278,0.13371 -4.235678,0.317933 -4.506817,0.60748 -0.194385,0.207585 -1.149537,1.953049 -1.149537,2.100688 0,0.05836 0.221412,0.05291 1.000854,-0.02506 1.878289,-0.187905 4.536406,-0.362058 6.772331,-0.443928 0.932418,-0.03414 3.007548,-0.03979 5.118119,-0.02591 v -2.270188 c -0.429395,-0.0015 -0.784347,-0.0059 -1.230676,-0.0059 z m 2.461776,0 c -0.446327,7.8e-5 -0.801282,0.0045 -1.230676,0.0059 v 2.270188 c 2.110571,-0.01388 4.1857,-0.0082 5.118119,0.02591 2.235924,0.08187 4.894042,0.256023 6.772331,0.443928 0.779442,0.07797 1.000853,0.08342 1.000853,0.02506 0,-0.147639 -0.955151,-1.893103 -1.149536,-2.100688 -0.271139,-0.289546 -1.63854,-0.473769 -4.506817,-0.607479 -0.906468,-0.04229 -3.507474,-0.06324 -6.004274,-0.06287 z m -2.576476,3.363226 c -4.064251,-0.0017 -6.965229,0.136455 -11.046776,0.526764 -0.532018,0.05085 -0.996255,0.09261 -1.03144,0.09261 -0.03519,-2e-6 -0.08516,0.05745 -0.111301,0.127868 -0.02612,0.07042 -0.248401,0.58673 -0.49363,1.147414 -0.245228,0.560683 -0.445626,1.047775 -0.445626,1.082417 0,0.03467 0.02622,0.06037 0.0582,0.0565 0.032,-0.0038 0.613283,-0.06437 1.291849,-0.135089 4.243614,-0.442236 7.553739,-0.614748 11.732421,-0.610877 0.430895,4.35e-4 0.922021,0.0069 1.39168,0.01105 v -2.28761 c -0.453105,-0.0039 -0.935248,-0.01083 -1.345376,-0.01105 z m 2.691176,0 c -0.410128,2.17e-4 -0.892272,0.0072 -1.345376,0.01105 v 2.287606 c 0.469659,-0.0041 0.960785,-0.01068 1.39168,-0.01105 4.178682,-0.0039 7.488806,0.168641 11.732421,0.610877 0.678568,0.07072 1.259845,0.131244 1.291849,0.135089 0.03198,0.0039 0.0582,-0.02183 0.0582,-0.0565 0,-0.03464 -0.200398,-0.521734 -0.445627,-1.082417 -0.245228,-0.560684 -0.467505,-1.076997 -0.493629,-1.147414 -0.02614,-0.07042 -0.07612,-0.12787 -0.111301,-0.127868 -0.03518,0 -0.499422,-0.04176 -1.031441,-0.09261 -4.081547,-0.390309 -6.982524,-0.528413 -11.046775,-0.526764 z m -2.743427,3.396786 c -1.819339,-6.52e-4 -3.540134,0.01731 -4.324148,0.05438 -1.750984,0.08269 -3.902602,0.224622 -5.446922,0.358965 -1.418324,0.123383 -3.531627,0.335285 -3.726865,0.373833 -0.107024,0.02112 -0.168321,0.14879 -0.639763,1.324559 -0.286939,0.715644 -0.521668,1.332839 -0.521668,1.371713 0,0.08913 0.12794,0.08611 1.047584,-0.02719 v -4.35e-4 c 1.801921,-0.222009 4.61777,-0.47423 6.936731,-0.621497 2.520456,-0.160058 5.10827,-0.223039 8.072678,-0.194989 v -2.631702 c -0.469887,-0.0026 -0.926465,-0.0075 -1.397627,-0.0076 z m 2.795678,0 c -0.471162,1.68e-4 -0.92774,0.005 -1.397627,0.0076 v 2.631702 c 2.964408,-0.02805 5.552222,0.03493 8.072678,0.194989 2.318961,0.147267 5.13481,0.399488 6.936731,0.621497 v 4.35e-4 c 0.919644,0.113293 1.047584,0.116317 1.047584,0.02719 0,-0.03887 -0.234729,-0.656069 -0.521668,-1.371713 -0.471442,-1.175769 -0.532739,-1.303446 -0.639764,-1.324559 -0.195237,-0.03855 -2.30854,-0.25045 -3.726864,-0.373833 -1.54432,-0.134343 -3.695938,-0.276279 -5.446923,-0.358965 -0.784013,-0.03706 -2.504808,-0.05494 -4.324147,-0.05438 z m -2.64572,3.76637 c -2.133736,-2.18e-4 -4.187593,0.01875 -4.892969,0.05735 -2.651507,0.145048 -5.078874,0.326718 -6.983463,0.523367 -1.623019,0.167568 -3.421567,0.382472 -3.45116,0.412068 -0.05235,0.05235 -1.01935,2.587436 -1.018698,2.670783 6.53e-4,0.10187 0.09729,0.100562 0.908245,-0.01444 2.462174,-0.349138 6.61882,-0.725016 10.312279,-0.932036 0.993788,-0.05568 3.938399,-0.0842 6.373435,-0.07604 v -2.635099 c -0.425266,-0.0015 -0.818558,-0.0059 -1.247669,-0.006 z m 2.495762,0 c -0.429112,4.3e-5 -0.822403,0.0043 -1.247669,0.006 v 2.635099 c 2.435036,-0.0082 5.379646,0.02036 6.373435,0.07604 3.693459,0.20702 7.850105,0.582898 10.312279,0.932036 0.810953,0.115004 0.907692,0.116312 0.908245,0.01444 6.52e-4,-0.08335 -0.966349,-2.618428 -1.018698,-2.670783 -0.02959,-0.0296 -1.828139,-0.2445 -3.45116,-0.412068 -1.904589,-0.196649 -4.331956,-0.378319 -6.983464,-0.523367 -0.705375,-0.0386 -2.759232,-0.05758 -4.892968,-0.05735 z m -2.669935,3.743008 c -1.699312,-2.18e-4 -3.30341,0.01549 -4.043773,0.04673 -2.750682,0.11582 -5.251239,0.297738 -8.053983,0.586238 -1.208673,0.124403 -4.551934,0.53258 -4.579886,0.559053 -0.02672,0.02524 -1.03059,2.681393 -1.03059,2.726853 0,0.0396 0.338322,0.0591 0.376382,0.0217 v -4.4e-4 c 0.04691,-0.0461 3.860349,-0.51475 5.699261,-0.70051 4.598876,-0.46454 8.637651,-0.650216 13.054431,-0.601955 v -2.630416 c -0.476571,-0.0025 -0.94325,-0.0067 -1.421842,-0.0068 z m 2.844107,0 v 4.35e-4 c -0.478591,6.1e-5 -0.94527,0.0043 -1.421841,0.0068 v 2.630427 c 4.41678,-0.04826 8.455555,0.137414 13.054431,0.601952 1.838912,0.18576 5.652351,0.65438 5.69926,0.70051 v 4.4e-4 c 0.03806,0.0374 0.376383,0.018 0.376383,-0.0217 0,-0.0455 -1.003866,-2.701617 -1.030591,-2.72686 -0.02795,-0.02647 -3.371212,-0.43465 -4.579885,-0.559053 -2.802742,-0.2885 -5.303301,-0.470418 -8.053984,-0.586238 -0.740363,-0.03124 -2.344461,-0.04698 -4.043773,-0.04673 z m -2.218785,3.736204 c -5.584174,-0.0215 -10.631038,0.32499 -16.773648,1.13255 -1.646648,0.21652 -1.96506,0.26329 -2.012328,0.29609 -0.05334,0.0371 -0.991518,2.5648 -0.991085,2.67036 4.35e-4,0.11072 0.184549,0.10163 1.257442,-0.0624 3.087823,-0.47223 7.277763,-0.92375 10.754505,-1.15845 2.549612,-0.17211 5.396153,-0.24189 8.561634,-0.21708 v -2.65039 c -0.263944,-0.003 -0.535116,-0.009 -0.79652,-0.0102 z m 1.593464,0 v 4.4e-4 c -0.261404,10e-4 -0.532576,0.008 -0.79652,0.0102 v 2.65039 c 3.165481,-0.0248 6.012021,0.045 8.561633,0.21708 3.476743,0.23471 7.666683,0.68622 10.754508,1.15846 1.072893,0.16408 1.256972,0.17316 1.25744,0.0624 4.35e-4,-0.10556 -0.937743,-2.6333 -0.991086,-2.67036 -0.04727,-0.0328 -0.365679,-0.0796 -2.012327,-0.2961 -6.14261,-0.80755 -11.189475,-1.15404 -16.773648,-1.13254 z m -2.002557,3.78549 c -3.90274,-6.5e-4 -4.449264,0.0139 -7.192893,0.18862 -2.728602,0.1738 -5.23942,0.41492 -8.240477,0.79185 -1.247113,0.15663 -3.542775,0.47978 -4.153373,0.58453 l -0.289297,0.0493 -0.09898,0.26339 c -0.393528,1.04852 -0.649536,1.77289 -0.649536,1.83858 0,0.10553 0.160376,0.0969 1.210285,-0.0654 4.362295,-0.67462 9.863013,-1.18376 14.595644,-1.35132 1.124793,-0.0399 3.738717,-0.038 6.024241,-0.0102 v -2.28591 c -0.399782,-0.001 -0.738604,-0.003 -1.205613,-0.003 z m 2.41165,0 c -0.46701,8e-5 -0.805832,0.002 -1.205613,0.003 v 2.2859 c 2.285524,-0.0278 4.899448,-0.0297 6.024241,0.0102 4.732631,0.16756 10.233348,0.67671 14.595644,1.35133 1.049909,0.16237 1.210285,0.17095 1.210285,0.0654 0,-0.0657 -0.256008,-0.79005 -0.649536,-1.83858 l -0.09898,-0.26339 -0.289297,-0.0493 c -0.610596,-0.10476 -2.90626,-0.42791 -4.153373,-0.58454 -3.001057,-0.37692 -5.511875,-0.61805 -8.240477,-0.79185 -2.743629,-0.17474 -3.290153,-0.18917 -7.192893,-0.18862 z"
       id="path95"
       inkscape:connector-curvature="0" />
  </g>
  <g
     id="g1194"
     inkscape:groupmode="layer"
     inkscape:label="Drill"
     style="display:inline" />
</svg>
