<?xml version="1.0" encoding="UTF-8" standalone="no"?>
<!-- Created with Inkscape (http://www.inkscape.org/) -->

<svg
   xmlns:dc="http://purl.org/dc/elements/1.1/"
   xmlns:cc="http://creativecommons.org/ns#"
   xmlns:rdf="http://www.w3.org/1999/02/22-rdf-syntax-ns#"
   xmlns:svg="http://www.w3.org/2000/svg"
   xmlns="http://www.w3.org/2000/svg"
   xmlns:sodipodi="http://sodipodi.sourceforge.net/DTD/sodipodi-0.dtd"
   xmlns:inkscape="http://www.inkscape.org/namespaces/inkscape"
   width="130.0mm"
   height="130.0mm"
   viewBox="0 0 130.0 130.0"
   version="1.1"
   id="svg26"
   inkscape:version="0.92.4 5da689c313, 2019-01-14"
   sodipodi:docname="oldschoolcylon2.svg">
  <defs
     id="defs20" />
  <sodipodi:namedview
     id="base"
     pagecolor="#ffffff"
     bordercolor="#666666"
     borderopacity="1.0"
     inkscape:pageopacity="0.0"
     inkscape:pageshadow="2"
     inkscape:zoom="1.6133652"
     inkscape:cx="113.39571"
     inkscape:cy="-40.177374"
     inkscape:document-units="mm"
     inkscape:current-layer="g4985"
     showgrid="true"
     inkscape:window-width="1920"
     inkscape:window-height="2096"
     inkscape:window-x="1920"
     inkscape:window-y="27"
     inkscape:window-maximized="0"
     borderlayer="true">
    <inkscape:grid
       id="grid4961"
       units="mm"
       type="xygrid"
       empspacing="1"
       spacingy="2.54"
       spacingx="2.54" />
  </sodipodi:namedview>
  <metadata
     id="metadata23">
    <rdf:RDF>
      <cc:Work
         rdf:about="">
        <dc:format>image/svg+xml</dc:format>
        <dc:type
           rdf:resource="http://purl.org/dc/dcmitype/StillImage" />
        <dc:title />
      </cc:Work>
    </rdf:RDF>
  </metadata>
  <g
     id="g4971"
     inkscape:groupmode="layer"
     inkscape:label="[fixed] BG"
     style="display:inline"
     sodipodi:insensitive="true">
    <rect
       id="rect4969"
       style="display:inline;fill:#ffffff;fill-opacity:1;stroke:none"
       height="130"
       width="130"
       y="0"
       x="0" />
  </g>
  <g
     id="g4973"
     inkscape:groupmode="layer"
     inkscape:label="Edge.Cuts"
     sodipodi:insensitive="true"
     style="display:inline">
    <path
       sodipodi:insensitive="true"
       style="display:inline;fill:#000000;fill-opacity:1;stroke:none;stroke-width:0.05754014"
       d="m 52.298425,1.3743309 -0.89827,5.956e-4 -0.897848,0.02692 -0.89667,0.057048 -0.893374,0.090537 -0.889478,0.126704 -0.883701,0.1641407 -0.87546,0.2009788 -0.470468,0.1255604 -0.439016,0.1325018 -0.461668,0.1594612 -0.4233,0.1694848 -0.44355,0.2093985 -0.395598,0.224456 -0.399903,0.2793304 -0.341151,0.301967 -0.149229,0.1562447 -0.118117,0.1431068 -0.09388,0.1443833 -0.07652,0.1600744 -0.0977,0.3026689 -0.09741,0.4203452 -0.06411,0.3407925 -0.03801,0.3441997 -0.0213,0.6936737 -9.05e-4,0.6926944 0.01244,0.9424856 0.03172,0.9427446 0.04674,0.9408379 0.0572,0.9407552 0.06417,0.939621 0.06903,0.940442 0.07234,0.940085 0.07465,0.939364 0.07633,0.938697 0.0777,0.939887 0.07857,0.938735 0.07937,0.939466 0.07979,0.937837 0.07859,0.92203 0.07839,0.92183 0.07814,0.921472 0.07793,0.922109 0.07753,0.921433 0.07709,0.921593 0.07639,0.921642 0.07509,0.921687 0.06848,0.922182 -0.0059,0.03619 -0.02089,0.03406 -0.106032,0.07117 -0.223744,0.09099 -0.379911,0.12968 -0.933815,0.328643 -0.91969,0.364032 -0.906901,0.39857 -0.891239,0.430613 -0.874684,0.460972 -0.859172,0.490861 -0.842257,0.51911 -0.825865,0.546989 -0.806854,0.572493 -0.788713,0.598049 -0.769621,0.622504 -0.749636,0.645925 -0.729572,0.66909 -0.707991,0.690764 -0.678584,0.70406 -0.658094,0.72394 -0.637278,0.740726 -0.617857,0.756716 -0.600269,0.77303 -0.581283,0.785846 -0.563727,0.799065 -0.546426,0.811439 -0.529207,0.82292 -0.511665,0.833029 -0.494557,0.843144 -0.477757,0.85336 -0.460465,0.86245 -0.44356,0.872245 -0.425995,0.880964 -0.407787,0.888687 -0.389711,0.897323 -0.370769,0.904916 -0.350982,0.911594 -0.331055,0.919514 -0.310329,0.927476 -0.300977,0.935237 -0.352249,0.0018 -0.398564,0.01815 -0.433975,0.04879 -0.41098,0.06915 -0.409216,0.09043 -0.361458,0.117198 -0.170861,0.07842 -0.166907,0.09392 -0.29038,0.208394 -0.294987,0.271245 -0.241212,0.262406 -0.25581,0.311241 -0.452348,0.610534 -0.55036,0.827129 -0.511863,0.852757 -0.480935,0.870585 -0.454496,0.883719 -0.431711,0.895695 -0.410211,0.905047 -0.390152,0.914441 -0.369864,0.921967 -0.349657,0.930087 -0.328284,0.937494 -0.305169,0.944693 -0.279974,0.953976 -0.235114,0.878954 -0.214435,0.884029 -0.187601,0.890015 -0.156057,0.896288 -0.122856,0.901325 -0.09184,0.905565 -0.06544,0.907022 -0.04474,0.907449 -0.02935,0.909097 -0.01818,0.910199 -0.0077,0.962014 0.0052,0.962483 0.01743,0.961474 0.02938,0.961646 0.04149,0.960953 0.05435,0.961607 0.06841,0.95923 0.0851,0.959136 0.10597,0.955165 0.136188,0.952128 0.09262,0.509044 0.09781,0.434547 0.05945,0.200681 0.07267,0.183394 0.08698,0.167052 0.102373,0.151651 0.121804,0.140197 0.140222,0.126074 0.159805,0.11296 0.180555,0.100855 0.336236,0.139154 0.397555,0.114729 0.559719,0.112035 0.565867,0.08077 0.373463,0.02493 0.537892,0.01746 0.912742,0.01165 0.913174,-5.53e-4 0.914408,-0.0094 0.913696,-0.01756 0.912246,-0.02654 0.975934,-0.02937 0.978024,-0.0205 0.976894,-0.01103 0.976585,0.0021 0.69095,0.01916 0.198789,0.01607 0.08411,0.02039 0.0222,0.07374 0.01717,0.161465 0.01959,0.524323 -6.15e-4,0.766034 -0.02156,0.765511 -0.05223,0.762232 -0.0552,0.394033 -0.126665,0.521356 -0.276786,0.89297 -0.294482,0.885906 -0.300282,0.8845 -0.302736,0.883822 -0.304378,0.884773 -0.304768,0.883934 -0.305092,0.883879 -0.304938,0.882988 -0.313962,0.909452 -0.314,0.910495 -0.313292,0.9095 -0.313232,0.91051 -0.31275,0.91042 -0.312299,0.9106 -0.31155,0.9101 -0.311331,0.91137 -0.310538,0.91122 -0.309774,0.91148 -0.308867,0.91166 -0.307941,0.91224 -0.306851,0.91287 -0.305231,0.91257 -0.303426,0.9125 -0.301931,0.91437 -0.299803,0.9156 -0.296822,0.91585 -0.293582,0.91738 -0.289069,0.91769 -0.28371,0.91893 -0.277585,0.9227 -0.268954,0.92493 -0.257595,0.92667 -0.24376,0.93096 -0.181256,0.73268 -0.166202,0.7367 -0.07549,0.41158 -0.04134,0.33455 -0.01049,0.20828 0.0046,0.18866 0.04943,0.35411 0.05861,0.23758 0.07559,0.21468 0.09728,0.19453 0.123676,0.17714 0.135928,0.14512 0.163819,0.13548 0.195016,0.12779 0.229521,0.12203 0.381419,0.16325 0.462892,0.16107 0.870405,0.24985 0.878664,0.2201 0.894051,0.20564 0.897918,0.19011 0.899883,0.17648 0.90233,0.16413 0.905049,0.15219 0.906415,0.13966 0.90936,0.12621 0.91131,0.11019 0.91338,0.0896 0.978083,0.0846 0.633702,0.012 0.632364,-0.004 0.47951,-0.0142 0.433478,-0.0305 0.481519,-0.0621 0.418708,-0.0908 0.23849,-0.0745 0.216002,-0.0878 0.194882,-0.10162 0.175129,-0.11598 0.172481,-0.1458 0.151804,-0.16479 0.132981,-0.18453 0.116011,-0.20501 0.152325,-0.33134 0.191491,-0.46755 0.308003,-0.81302 0.295613,-0.81827 0.288614,-0.81946 0.285048,-0.82221 0.281609,-0.82099 0.280248,-0.82325 0.256187,-0.75179 0.258085,-0.74996 0.266088,-0.74766 0.04945,-0.0455 0.103606,-0.0342 0.429932,-0.0478 0.735448,-0.0502 0.733772,-0.0506 0.734542,-0.051 0.985013,-0.0666 0.986529,-0.0631 0.986272,-0.0596 0.986697,-0.0563 0.987106,-0.0532 0.986771,-0.05 0.987295,-0.0469 0.987448,-0.0438 0.98602,-0.0407 0.987689,-0.0376 0.986124,-0.0344 0.98651,-0.0312 0.986821,-0.0279 0.987355,-0.0244 0.987914,-0.0208 0.987149,-0.0168 0.986843,-0.0126 0.987328,-0.008 0.987579,-0.003 0.986484,0.003 0.987016,0.0102 0.988405,0.0186 0.987257,0.0291 0.985446,0.039 0.984119,0.046 0.98442,0.0527 0.984609,0.0593 0.982986,0.0655 0.983587,0.0717 0.983131,0.0777 0.983254,0.0836 0.981433,0.0893 0.981102,0.095 0.980232,0.10056 0.980347,0.1062 0.978909,0.11162 0.978619,0.11717 0.977863,0.12265 0.978791,0.12839 0.97758,0.13388 0.775054,0.11068 0.773841,0.11455 0.773971,0.11908 0.768723,0.13437 0.275487,0.72174 0.270649,0.72387 0.268991,0.72339 0.30192,0.81253 0.303288,0.81122 0.307467,0.8101 0.317882,0.80569 0.193293,0.45415 0.160628,0.33617 0.14259,0.24784 0.131428,0.1744 0.132119,0.12696 0.144664,0.10555 0.169049,0.10155 0.18127,0.084 0.201835,0.0678 0.230745,0.0529 0.376524,0.0507 0.467056,0.0289 0.847705,0.0102 0.966063,-0.027 0.963521,-0.058 0.961634,-0.0785 0.960197,-0.0941 0.959379,-0.10732 0.958489,-0.11916 0.9571,-0.13042 0.956317,-0.14186 0.953833,-0.15378 0.950066,-0.16699 0.947559,-0.18323 0.94507,-0.20481 0.88252,-0.21926 0.488275,-0.14915 0.371048,-0.14999 0.219472,-0.12168 0.179046,-0.13443 0.150229,-0.15246 0.133022,-0.17579 0.07896,-0.13523 0.06853,-0.15513 0.10152,-0.35004 0.04605,-0.35161 0.0022,-0.17178 -0.01284,-0.16338 -0.06502,-0.371 -0.112617,-0.49446 -0.224728,-0.85424 -0.244044,-0.84937 -0.256353,-0.8461 -0.265661,-0.84348 -0.27341,-0.84113 -0.280088,-0.83826 -0.318552,-0.93359 -0.322369,-0.93219 -0.325693,-0.93196 -0.327996,-0.93053 -0.330095,-0.92973 -0.331661,-0.92831 -0.333743,-0.92901 -0.335256,-0.92863 -0.336239,-0.92717 -0.33739,-0.92653 -0.33854,-0.92613 -0.339472,-0.92536 -0.340567,-0.92521 -0.34143,-0.92457 -0.342776,-0.92535 -0.343912,-0.92564 -0.344141,-0.92359 -0.34554,-0.92473 L 90.434281,99.982512 90.086975,99.058153 89.739262,98.135205 89.390609,97.212241 89.041294,96.29 88.691287,95.368411 88.340279,94.446682 87.988013,93.52418 87.635598,92.603847 87.281845,91.682631 87.02761,91.02155 l -0.254841,-0.662658 -0.254426,-0.661577 7.19e-4,-0.556297 0.01429,-0.360448 0.04821,-0.331147 0.0858,-0.31635 0.132517,-0.343163 0.304978,-0.625429 0.242229,-0.425695 0.109705,-0.148365 0.115133,-0.11595 0.138314,-0.09604 0.166792,-0.07807 0.20679,-0.06944 0.258305,-0.07016 0.433759,-0.09662 0.51529,-0.07825 0.963349,-0.08598 0.965529,-0.05452 0.965261,-0.04247 0.965344,-0.03695 0.964946,-0.03409 0.965994,-0.03259 0.863216,-0.0343 0.861172,-0.05532 0.452549,-0.04629 0.403875,-0.0578 0.422076,-0.08143 0.420229,-0.102396 0.412762,-0.132493 0.347107,-0.163813 0.17357,-0.110487 0.15853,-0.124536 0.145809,-0.139979 0.135405,-0.156815 0.106852,-0.154641 0.08999,-0.175001 0.0734,-0.199856 0.057,-0.229204 0.0526,-0.375567 0.0223,-0.452939 -0.002,-0.389926 -0.0187,-0.443201 -0.0615,-0.831966 -0.0817,-0.830013 -0.10605,-0.93766 L 99.891672,78.536623 99.76184,77.601973 99.620692,76.669571 99.468235,75.738492 99.304368,74.808124 99.12934,73.88043 98.943044,72.955804 98.74505,72.033734 98.534565,71.113 98.311552,70.196492 98.074539,69.28202 97.82288,68.37197 97.554897,67.466259 97.269283,66.567873 96.962225,65.674527 96.644872,64.803 96.317313,63.935726 95.977433,63.073342 95.623536,62.217013 95.254474,61.36764 94.869904,60.525536 94.470482,59.690479 94.061496,58.87254 93.635928,58.064285 93.188995,57.266733 92.715613,56.484923 92.208418,55.726966 91.927383,55.346013 91.652525,55.002677 91.335087,54.64477 91.026061,54.339217 90.651248,54.0305 90.468618,53.906624 90.289129,53.80301 89.92711,53.639303 l -0.427922,-0.147821 -0.398023,-0.109118 -0.428088,-0.09469 -0.413713,-0.07296 -0.42754,-0.05828 -0.422354,-0.04135 -0.425107,-0.02535 -0.847086,-0.03372 -0.08991,-0.322049 L 85.797294,51.919574 85.523919,51.111518 85.229432,50.311405 84.873336,49.448364 84.493815,48.59578 84.096329,47.751121 83.684509,46.91305 83.26058,46.081451 82.825286,45.254786 82.380551,44.434916 81.925573,43.619483 81.461161,42.809833 80.986748,42.005511 80.502104,41.20738 80.006935,40.416969 79.499609,39.634767 78.977483,38.861463 78.429585,38.087799 77.862618,37.327601 77.276155,36.582838 76.668314,35.853696 76.039419,35.143061 75.388723,34.452386 74.71577,33.783342 74.019723,33.137103 73.301299,32.516072 72.561309,31.922268 71.799138,31.35623 71.017534,30.820606 70.2155,30.31495 69.393702,29.839762 68.555708,29.3967 l -0.807483,-0.388533 -0.822141,-0.357019 -0.835811,-0.325327 -0.845864,-0.2938 -0.855377,-0.264604 -0.864501,-0.23822 -0.868877,-0.213785 -0.875239,-0.193065 -0.61881,-0.12924 3.6e-4,-0.237058 0.04332,-0.932018 0.04745,-0.931974 0.04836,-0.931285 0.04896,-0.931437 0.0494,-0.931053 0.04979,-0.930481 0.05344,-0.996523 0.05329,-0.99823 0.05289,-0.996777 0.05248,-0.996586 0.05203,-0.997752 0.05137,-0.998347 0.05039,-0.996747 0.04918,-0.997009 0.04747,-0.996702 0.04514,-0.998569 0.04154,-0.997839 0.03606,-0.9988419 0.02715,-0.9984503 0.01258,-0.9981822 -0.009,-0.9986573 L 62.036795,5.2591616 61.993306,4.7075789 61.919497,4.3247372 61.84483,4.0839648 61.749121,3.8575233 61.631523,3.6447829 61.491185,3.4451138 61.338647,3.2696889 61.164795,3.1046259 60.968936,2.9494099 60.750374,2.8035261 60.338927,2.5821602 59.860871,2.3824264 59.413956,2.232244 58.917815,2.0939332 58.003568,1.8829925 57.078493,1.7166432 56.148295,1.593946 55.213727,1.506609 54.276407,1.445174 53.338698,1.401726 52.81966,1.384624 52.298452,1.374331 l -2.7e-5,5e-7"
       id="path4910"
       inkscape:connector-curvature="0" />
  </g>
  <g
     id="g4975"
     inkscape:groupmode="layer"
     inkscape:label="B.Cu-disabled" />
  <g
     id="g4977"
     inkscape:groupmode="layer"
     inkscape:label="B.Mask-disabled" />
  <g
     id="g4979"
     inkscape:groupmode="layer"
     inkscape:label="B.Silk-disabled" />
  <g
     id="g4981"
     inkscape:groupmode="layer"
     inkscape:label="F.Cu-disabled" />
  <g
     id="g4983"
     inkscape:groupmode="layer"
     inkscape:label="F.Mask-disabled" />
  <g
     id="g4985"
     inkscape:groupmode="layer"
     inkscape:label="F.Silk"
     style="display:inline"
     sodipodi:insensitive="true">
    <path
       style="display:inline;fill:#000000;fill-opacity:1;stroke-width:0.05754014"
       d="m 51.847488,2.8131849 c -3.425188,0.012803 -6.232675,0.541699 -7.645561,1.464141 -0.757667,0.4946654 -0.79056,0.6098931 -0.780359,2.7358266 0.01126,2.3451851 0.149678,4.2989715 1.081335,15.2479235 0.750888,8.824537 1.089259,14.001833 1.439558,22.037971 0.214898,4.930243 0.433361,12.820118 0.357167,12.896308 -0.05598,0.05598 -1.737167,0.124927 -4.655469,0.191051 -3.873449,0.08776 -4.090178,0.06818 -11.237605,-1.004422 -6.811678,-1.022218 -9.402313,-1.311476 -10.833728,-1.209875 -0.828377,0.0588 -1.034518,0.141171 -1.44026,0.574911 -0.762168,0.814761 -1.557693,2.075213 -2.544073,4.030337 -1.013368,2.008622 -1.771682,3.846087 -2.473481,5.994233 -1.086849,3.326762 -1.414369,5.523916 -1.477836,9.915699 -0.05069,3.507368 0.167838,7.414879 0.535575,9.580305 0.120937,0.712142 0.164102,0.786183 0.528903,0.903279 0.746754,0.239719 2.412246,0.261155 8.584661,0.111682 1.778728,-0.04307 3.211428,0.0036 3.539013,0.115192 0.291044,0.09912 0.493716,0.454398 0.636371,1.113996 0.130371,0.602915 0.132632,2.446488 0.0042,3.513378 -0.125825,1.045439 0.0434,0.519262 -3.059628,9.517439 -6.133649,17.78637 -7.904477,23.57877 -7.355823,24.06227 0.68116,0.60027 6.596162,1.81756 10.292533,2.11807 0.411412,0.0334 0.851495,0.0709 0.978083,0.0832 v -3.6e-4 c 0.126589,0.0126 0.722368,0.0151 1.323663,0.006 1.506454,-0.0237 1.656701,-0.0787 1.945984,-0.71188 0.483055,-1.05728 1.969969,-5.40324 5.130988,-14.99647 6.157082,-18.685831 8.086412,-24.243431 8.615217,-24.815587 0.396385,-0.428881 1.699732,-0.649495 4.532902,-0.767366 1.810292,-0.0753 9.96454,-0.0347 12.256075,0.06111 3.497412,0.146224 5.48017,0.406897 6.314876,0.829878 0.475393,0.240901 0.931984,0.89621 1.767575,2.538101 2.103897,4.134048 5.164427,11.848714 11.475015,28.923544 2.829996,7.65724 2.923463,7.89438 3.13338,7.96023 0.257606,0.0808 1.745063,0.0987 2.727748,0.033 4.036334,-0.26977 9.952981,-1.18423 11.237957,-1.73702 l 0.284469,-0.12221 v -0.27815 c 0,-0.51593 -0.626997,-2.69631 -1.603566,-5.57701 -1.842207,-5.43413 -5.651534,-15.79545 -9.360807,-25.461442 -0.497915,-1.297533 -0.941353,-2.501358 -0.985459,-2.675418 -0.133849,-0.527839 -0.107072,-1.434657 0.06181,-2.091029 0.163711,-0.636296 0.573913,-1.539329 0.971763,-2.139843 0.415933,-0.62783 0.956102,-0.923458 2.142302,-1.172296 1.218062,-0.255527 1.791805,-0.294965 6.817438,-0.46639 2.341488,-0.07987 3.35398,-0.246356 3.595908,-0.591768 C 99.029334,83.092208 98.373133,77.371386 97.520317,73.212736 97.015033,70.748817 96.349416,68.307668 95.637548,66.3082 93.628254,60.664587 91.207405,56.121147 89.651042,55.072703 89.456063,54.941355 88.873273,54.757934 88.29191,54.645295 c -0.630962,-0.122255 -3.27936,-0.167023 -4.648797,-0.07867 -2.067286,0.133374 -4.08009,0.364116 -9.304616,1.066586 -10.214106,1.373346 -11.026815,1.470119 -12.6589,1.50804 -1.076275,0.02501 -1.362492,0.01406 -1.697335,-0.06462 -1.123841,-0.264075 -1.152469,-0.401165 -1.147713,-5.55629 0.0018,-1.977938 0.03473,-4.437851 0.0734,-5.466382 0.181176,-4.822846 0.249759,-6.707551 0.383858,-10.529944 0.194865,-5.55436 0.211985,-5.912173 0.889933,-18.642948 0.318267,-5.976109 0.367489,-7.2515374 0.371568,-9.7242973 0.005,-2.7881306 0.0151,-2.7196039 -0.46604,-3.0736771 C 59.150205,3.3935077 56.881351,2.9748331 53.350958,2.8398583 52.838705,2.8202749 52.336795,2.81134 51.847483,2.8131669 Z M 60.96,28.400003 c -0.02493,0.02614 -0.188708,3.886343 -0.288684,6.807604 -0.04765,1.392476 -0.150027,4.266521 -0.227576,6.386872 -0.07754,2.120356 -0.170416,4.839407 -0.206505,6.041994 -0.06689,2.226721 -0.04523,7.779482 0.03126,8.009402 0.03346,0.100609 0.09685,0.131578 0.309406,0.151014 0.46496,0.04246 1.895699,-0.02261 3.058224,-0.139074 1.019465,-0.102138 5.543026,-0.68806 12.395853,-1.605672 3.78617,-0.506981 5.882134,-0.739585 7.733711,-0.858326 0.453659,-0.02913 0.838379,-0.0668 0.855165,-0.08359 0.04302,-0.04302 -0.458779,-1.53247 -0.816885,-2.424313 -1.071041,-2.667386 -2.997237,-6.29801 -5.082173,-9.580305 C 75.543461,36.101968 72.123324,32.802491 67.922836,30.6884 66.428093,29.936107 65.165533,29.446989 63.54973,28.993873 62.823167,28.79012 60.98909,28.369485 60.960003,28.4 Z m -17.354406,0.737163 c -0.149565,0 -1.441753,0.474803 -2.368122,0.870265 -4.722279,2.015908 -8.804155,5.326904 -12.297166,9.974701 -2.592577,3.449682 -4.873164,7.711157 -6.405836,11.969852 -0.472379,1.31256 -0.64587,1.858542 -0.603707,1.900678 0.01833,0.01832 0.405264,0.07182 0.85973,0.119056 1.299023,0.135086 3.521386,0.442577 7.443272,1.029709 4.7209,0.706759 6.249721,0.909595 7.768128,1.030062 0.367815,0.02918 4.241262,-0.01205 5.775437,-0.06146 l 1.172295,-0.03758 -0.03828,-1.501368 C 44.71361,46.631415 44.36118,38.74282 43.924834,32.359399 c -0.07896,-1.155117 -0.159816,-2.352809 -0.179463,-2.661372 -0.0312,-0.490073 -0.04872,-0.560861 -0.139777,-0.560861 z m 6.394949,34.839456 c 0.337461,0.0013 0.617789,0.02143 1.020929,0.05514 2.638613,0.220585 5.537305,0.253187 7.550739,0.08464 0.917817,-0.07684 1.625994,-0.04864 3.779583,0.150313 8.432758,0.778992 20.902225,2.678104 24.554648,3.739896 0.376041,0.109323 0.39335,0.136877 0.763151,1.207417 0.40682,1.177685 0.668714,2.409885 0.76842,3.614871 0.07195,0.868009 0.0709,2.956682 -0.0014,3.001331 -0.11934,0.07376 -5.077857,-0.871077 -9.811394,-1.869774 -2.86212,-0.603859 -4.203566,-0.90133 -7.365305,-1.633417 -3.079249,-0.712991 -3.69173,-0.837806 -4.322535,-0.879398 -1.043163,-0.06881 -1.560244,0.183141 -2.584108,1.259042 -0.926204,0.973279 -1.704679,1.957129 -2.625902,3.317759 -0.527783,0.779545 -0.586342,0.84518 -0.783871,0.882558 -0.117381,0.02216 -0.84753,0.05475 -1.622881,0.07235 h -3.6e-4 c -5.475846,0.124168 -10.615685,-0.02736 -10.972452,-0.323453 -0.04935,-0.04095 -0.507184,-0.605732 -1.017067,-1.255179 -1.654572,-2.107477 -2.556087,-3.141202 -3.073677,-3.52356 -0.454776,-0.335964 -1.014312,-0.472476 -1.733158,-0.423544 -1.047933,0.07136 -2.892826,0.427865 -7.197785,1.391794 -5.271291,1.180295 -9.266928,2.200937 -13.973782,3.568865 -0.707346,0.205568 -1.302773,0.356688 -1.323309,0.336096 -0.02053,-0.02058 -0.03634,-0.805228 -0.03512,-1.744045 0.0025,-1.861535 0.04442,-2.241399 0.36349,-3.295635 0.367528,-1.214357 0.952683,-2.444742 1.369669,-2.880166 0.2533,-0.264505 1.688911,-0.744461 3.903555,-1.30505 5.801425,-1.468503 14.685918,-2.86996 21.375964,-3.371843 1.710517,-0.128327 2.431518,-0.179101 2.993955,-0.177002 z m 3.019241,22.903318 c -4.396879,-8.99e-4 -6.02853,0.01769 -6.703298,0.07621 -1.194274,0.103626 -1.896804,0.212464 -1.993045,0.308703 -0.157334,0.157336 -1.051005,2.486957 -0.980894,2.557066 0.02149,0.02148 0.951899,0.0062 2.067498,-0.03372 2.995586,-0.107311 10.191329,-0.146093 12.358627,-0.06673 2.763408,0.101186 6.049027,0.316678 8.370431,0.54892 0.998739,0.09992 1.236917,0.104204 1.236917,0.02283 0,-0.102057 -0.884917,-1.785687 -1.168082,-2.222375 -0.137865,-0.212616 -0.290461,-0.419336 -0.339257,-0.459366 -0.224317,-0.18401 -1.586202,-0.407792 -3.210995,-0.527498 -2.22683,-0.164037 -4.056669,-0.202686 -9.637902,-0.204046 z m 0.08639,4.152905 c -4.019221,0.0018 -10.231666,0.160388 -10.335028,0.26375 -0.06101,0.06101 -0.942964,2.632947 -0.942964,2.749874 0,0.105039 0.02902,0.1118 0.359626,0.08394 0.197794,-0.01669 1.05885,-0.05613 1.913321,-0.0878 0.854471,-0.03163 1.902958,-0.07195 2.330194,-0.08956 1.88972,-0.07826 7.654048,-0.12539 9.702522,-0.07972 3.831881,0.08537 8.037328,0.358476 11.817783,0.767716 0.68041,0.07364 1.269359,0.137807 1.308912,0.141883 0.03957,0.0042 0.072,-0.02742 0.072,-0.07024 0,-0.04284 -0.247952,-0.645106 -0.55103,-1.338062 -0.303084,-0.692961 -0.57768,-1.33111 -0.61003,-1.418134 -0.03231,-0.08703 -0.09417,-0.158038 -0.137668,-0.158038 -0.04353,0 -0.617318,-0.05163 -1.274845,-0.11449 -5.044459,-0.482393 -8.629718,-0.653158 -13.652789,-0.651121 z m 0.06287,4.198211 c -2.248744,7.2e-4 -4.61893,0.0247 -6.07571,0.07129 -2.456095,0.07855 -5.787554,0.220262 -5.810205,0.247243 -0.04613,0.05491 -1.086541,3.26647 -1.064127,3.28475 0.01485,0.0121 0.725915,-0.0105 1.580386,-0.0502 8.305577,-0.38675 14.144953,-0.40206 19.621384,-0.0509 2.901177,0.18602 6.356827,0.49602 8.573423,0.76913 v -3.6e-4 c 1.138888,0.1403 1.294512,0.14444 1.294512,0.0334 0,-0.0781 -1.246578,-3.242933 -1.300132,-3.300903 -0.03283,-0.03551 -2.846336,-0.32744 -4.741512,-0.492028 -1.960994,-0.170302 -4.548891,-0.34118 -6.732097,-0.444264 -0.969959,-0.04563 -3.097176,-0.06786 -5.345922,-0.06708 z m 1.943876,4.638963 c -2.828349,-0.0162 -6.931027,0.0225 -8.969223,0.0976 -2.538023,0.0936 -5.575865,0.226861 -6.024083,0.264101 l -0.413712,0.0344 -0.521175,1.56318 c -0.286613,0.85986 -0.521177,1.60901 -0.521177,1.66467 0,0.0874 0.04116,0.097 0.30203,0.072 0.898264,-0.0861 6.026297,-0.29611 9.278277,-0.38 2.851104,-0.0735 9.330659,-0.0395 11.076756,0.0583 4.71862,0.26423 9.959163,0.74131 12.974977,1.18073 0.761426,0.11091 0.892064,0.10931 0.892744,-0.0109 7.19e-4,-0.10301 -1.195046,-3.23655 -1.259744,-3.30125 -0.06018,-0.0602 -3.822877,-0.47981 -6.106266,-0.68097 -3.130994,-0.27584 -5.59228,-0.42981 -8.429431,-0.526801 -0.535956,-0.0183 -1.33719,-0.0297 -2.279973,-0.0351 z m -1.408652,4.639311 c -3.101327,3.6e-4 -6.797941,0.0549 -9.027873,0.14961 -4.726823,0.20085 -6.479434,0.29733 -6.53648,0.36033 -0.05588,0.0617 -1.030062,3.09351 -1.030062,3.20573 0,0.0835 0.05563,0.0911 0.446021,0.0618 2.587412,-0.19418 8.022894,-0.40854 12.558107,-0.49519 6.351893,-0.12135 11.64686,0.11328 18.29772,0.81092 1.587082,0.16647 6.126406,0.72804 6.243232,0.77228 0.110653,0.0419 0.431621,0.0304 0.431621,-0.0155 0,-0.0545 -1.241081,-3.34329 -1.27309,-3.3736 -0.0397,-0.0376 -4.251462,-0.54734 -5.948226,-0.71995 -3.102954,-0.31567 -6.575456,-0.56591 -9.666701,-0.69607 -0.986713,-0.0416 -2.633472,-0.0606 -4.494269,-0.0604 z m -1.429371,4.62281 c -2.497664,0.009 -5.152444,0.073 -8.087368,0.18824 -2.360054,0.0927 -6.435318,0.29846 -7.16126,0.36174 l -0.45796,0.04 -0.505023,1.5537 c -0.277737,0.85447 -0.505148,1.60249 -0.505724,1.66257 -8.99e-4,0.10257 0.03446,0.10713 0.588607,0.072 10.925005,-0.69241 19.150943,-0.78469 26.281485,-0.29465 4.141435,0.2846 9.429115,0.86302 13.090169,1.43183 1.116134,0.1734 1.352234,0.18192 1.352811,0.0485 3.6e-4,-0.0812 -1.130683,-3.20993 -1.18845,-3.28755 -0.06405,-0.0861 -4.87564,-0.70227 -7.90334,-1.01215 -5.275816,-0.53998 -10.009087,-0.78425 -15.503947,-0.76421 z m -0.03372,4.65336 c -3.693909,0.01 -7.684616,0.12298 -11.793902,0.33891 -2.082104,0.10941 -5.09104,0.2912 -5.266201,0.31818 -0.172547,0.0266 -0.177813,0.0388 -0.659548,1.49154 -0.267094,0.80545 -0.470812,1.47901 -0.452692,1.49715 0.01812,0.0181 0.547744,-0.006 1.177212,-0.0541 7.955141,-0.60626 18.254992,-0.91801 23.844177,-0.72136 5.586145,0.19653 12.511408,0.84268 17.837652,1.66397 1.303372,0.20097 1.495748,0.21155 1.495748,0.0818 0,-0.0812 -0.316116,-0.97673 -0.802485,-2.2726 l -0.122217,-0.32521 -0.357519,-0.0615 c -0.720697,-0.12364 -3.565776,-0.52361 -5.133448,-0.72171 -3.426555,-0.433 -6.535205,-0.73709 -9.753094,-0.9542 -2.922793,-0.19719 -6.319775,-0.2908 -10.013683,-0.28096 z"
       id="path4954"
       inkscape:connector-curvature="0"
       sodipodi:insensitive="true" />
  </g>
  <g
     id="g4987"
     inkscape:groupmode="layer"
     inkscape:label="Drill" />
</svg>
