<?xml version="1.0" encoding="UTF-8" standalone="no"?>
<!-- Generator: Adobe Illustrator 16.0.0, SVG Export Plug-In . SVG Version: 6.00 Build 0)  -->

<svg
   xmlns:dc="http://purl.org/dc/elements/1.1/"
   xmlns:cc="http://creativecommons.org/ns#"
   xmlns:rdf="http://www.w3.org/1999/02/22-rdf-syntax-ns#"
   xmlns:svg="http://www.w3.org/2000/svg"
   xmlns="http://www.w3.org/2000/svg"
   xmlns:xlink="http://www.w3.org/1999/xlink"
   xmlns:sodipodi="http://sodipodi.sourceforge.net/DTD/sodipodi-0.dtd"
   xmlns:inkscape="http://www.inkscape.org/namespaces/inkscape"
   version="1.1"
   id="Layer_1"
   x="0px"
   y="0px"
   width="30.0mm"
   height="30.0mm"
   viewBox="0 0 30.0 30.0"
   style="enable-background:new 0 0 64 64;"
   xml:space="preserve"
   sodipodi:docname="lettuce_shz.svg"
   inkscape:version="0.92.4 5da689c313, 2019-01-14"><metadata
   id="metadata53"><rdf:RDF><cc:Work
       rdf:about=""><dc:format>image/svg+xml</dc:format><dc:type
         rdf:resource="http://purl.org/dc/dcmitype/StillImage" /><dc:title /></cc:Work></rdf:RDF></metadata><defs
   id="defs51">
	<defs
   id="defs3">
		<rect
   y="0"
   x="0"
   height="64"
   width="64"
   id="SVGID_1_" />
	</defs>
	<clipPath
   id="SVGID_2_">
		<use
   height="100%"
   width="100%"
   y="0"
   x="0"
   id="use5"
   style="overflow:visible"
   xlink:href="#SVGID_1_" />
	</clipPath>
	

		<defs
   id="defs9">
			<rect
   id="SVGID_3_"
   width="64"
   height="64"
   x="0"
   y="0" />
		</defs>
		<clipPath
   id="SVGID_4_">
			<use
   xlink:href="#SVGID_3_"
   style="overflow:visible"
   id="use11"
   x="0"
   y="0"
   width="100%"
   height="100%" />
		</clipPath>
		
		
		
		
		
		
		
		
		
		
		
		
		
		
		
	</defs><sodipodi:namedview
   pagecolor="#ffffff"
   bordercolor="#666666"
   borderopacity="1"
   objecttolerance="10"
   gridtolerance="10"
   guidetolerance="10"
   inkscape:pageopacity="0"
   inkscape:pageshadow="2"
   inkscape:window-width="1280"
   inkscape:window-height="1376"
   id="namedview49"
   showgrid="true"
   inkscape:zoom="5.6568542"
   inkscape:cx="-13.371482"
   inkscape:cy="76.137798"
   inkscape:window-x="1280"
   inkscape:window-y="27"
   inkscape:window-maximized="0"
   inkscape:current-layer="g894"
   borderlayer="true"
   inkscape:document-units="mm"><inkscape:grid
     id="grid862"
     units="mm"
     type="xygrid"
     empspacing="1"
     spacingy="2.54"
     spacingx="2.54" /></sodipodi:namedview>
<path
   style="display:none;fill:#8ba43c"
   d="m 52.082,20.053 c -0.936,-2.531 -7.734,-9.854 -12.396,-10.046 -3.185,-0.133 -4.208,1.739 -4.208,1.739 -8.729,-3.32 -15.745,3.007 -15.745,3.007 -2.182,-0.949 -7.637,4.428 -8.107,9.651 -0.228,2.557 0.541,2.469 -2.159,3.866 -3.279,1.693 -1.894,4.066 -0.519,6.779 1.012,2.001 -0.908,5.374 1.612,6.34 1.042,0.4 2.192,0.438 3.283,0.612 1.732,0.28 2.773,3.196 3.949,4.497 5.208,5.771 13.38,8.274 20.958,6.42 7.012,-1.717 12.801,-7.033 15.082,-13.836 1.292,-3.857 1.429,-8.073 0.4,-12.008 6.269,-9.868 -2.15,-7.021 -2.15,-7.021"
   clip-path="url(#SVGID_4_)"
   id="path14"
   inkscape:connector-curvature="0"
   inkscape:label="bg"
   transform="matrix(0.19,0,0,0.19,2.22286,2.54884)" /><g
   id="g991"
   inkscape:label="veins"
   style="display:none"
   transform="matrix(0.19,0,0,0.19,2.22286,2.54884)"><path
     inkscape:connector-curvature="0"
     id="path24"
     clip-path="url(#SVGID_4_)"
     d="m 30.975,54.5 c -0.042,0 -0.085,-0.005 -0.128,-0.017 -8.247,-2.188 -10.633,-9.577 -10.73,-9.891 -0.082,-0.264 0.065,-0.543 0.328,-0.625 0.267,-0.081 0.545,0.064 0.627,0.327 0.022,0.072 2.333,7.179 10.031,9.222 0.268,0.071 0.426,0.345 0.355,0.611 -0.06,0.226 -0.261,0.373 -0.483,0.373"
     style="display:inline;fill:#a8bb6d" /><path
     inkscape:connector-curvature="0"
     id="path26"
     clip-path="url(#SVGID_4_)"
     d="m 38.068,54.424 c -0.027,0 -0.056,-0.002 -0.083,-0.007 -9.127,-1.521 -10.771,-8.557 -10.787,-8.626 -0.06,-0.27 0.111,-0.535 0.38,-0.596 0.281,-0.065 0.536,0.112 0.596,0.38 0.059,0.263 1.54,6.449 9.975,7.855 0.273,0.045 0.457,0.303 0.411,0.575 -0.04,0.246 -0.252,0.419 -0.492,0.419"
     style="display:inline;fill:#a8bb6d" /><path
     inkscape:connector-curvature="0"
     id="path28"
     clip-path="url(#SVGID_4_)"
     d="m 51.251,46.514 c -0.067,0 -0.137,-0.014 -0.202,-0.043 C 50.796,46.36 50.682,46.065 50.794,45.812 53.8,39.008 50.66,31.789 50.628,31.717 c -0.112,-0.252 0.002,-0.548 0.254,-0.66 0.253,-0.111 0.548,0.001 0.66,0.254 0.138,0.31 3.351,7.7 0.166,14.905 -0.082,0.186 -0.266,0.298 -0.457,0.298"
     style="display:inline;fill:#a8bb6d" /><path
     inkscape:connector-curvature="0"
     id="path30"
     clip-path="url(#SVGID_4_)"
     d="m 15.162,32.672 c -0.227,0 -0.433,-0.155 -0.486,-0.385 -2.2,-9.302 2.487,-12.437 2.687,-12.566 0.233,-0.15 0.541,-0.082 0.692,0.15 0.148,0.232 0.082,0.54 -0.149,0.69 -0.176,0.116 -4.283,2.928 -2.258,11.496 0.064,0.269 -0.102,0.538 -0.371,0.602 -0.039,0.009 -0.077,0.013 -0.115,0.013"
     style="display:inline;fill:#a8bb6d" /><path
     inkscape:connector-curvature="0"
     id="path32"
     clip-path="url(#SVGID_4_)"
     d="m 19.775,33.989 c -0.237,0 -0.448,-0.171 -0.491,-0.413 -1.008,-5.715 0.963,-9.251 1.047,-9.399 0.136,-0.239 0.441,-0.322 0.681,-0.186 0.24,0.137 0.324,0.441 0.188,0.682 -0.019,0.033 -1.873,3.392 -0.932,8.729 0.048,0.273 -0.134,0.531 -0.405,0.579 -0.029,0.006 -0.059,0.008 -0.088,0.008"
     style="display:inline;fill:#a8bb6d" /><path
     inkscape:connector-curvature="0"
     id="path34"
     clip-path="url(#SVGID_4_)"
     d="m 45.977,28.057 c -0.245,0 -0.46,-0.182 -0.494,-0.432 -0.609,-4.409 -7.338,-6.657 -7.406,-6.678 -0.263,-0.086 -0.405,-0.369 -0.32,-0.631 0.086,-0.263 0.369,-0.405 0.631,-0.321 0.301,0.099 7.39,2.464 8.086,7.494 0.038,0.273 -0.153,0.525 -0.427,0.563 -0.025,0.003 -0.047,0.005 -0.07,0.005"
     style="display:inline;fill:#a8bb6d" /><path
     inkscape:label="path36"
     inkscape:connector-curvature="0"
     id="path36"
     clip-path="url(#SVGID_4_)"
     d="m 49.768,23.773 c -0.198,0 -0.386,-0.119 -0.464,-0.314 -2.828,-7.071 -9.955,-8.747 -10.027,-8.762 -0.269,-0.061 -0.438,-0.328 -0.378,-0.598 0.06,-0.267 0.326,-0.437 0.596,-0.379 0.313,0.071 7.709,1.794 10.737,9.367 0.103,0.256 -0.021,0.547 -0.278,0.65 -0.061,0.024 -0.124,0.036 -0.186,0.036"
     style="display:inline;fill:#a8bb6d" /></g><g
   id="g892"
   sodipodi:insensitive="true"
   inkscape:groupmode="layer"
   inkscape:label="[fixed] BG"
   style="display:inline"><rect
     id="rect890"
     style="fill:#ffffff;fill-opacity:1;stroke:none"
     height="30"
     width="30"
     y="0"
     x="0" /></g>
<g
   id="g894"
   inkscape:groupmode="layer"
   inkscape:label="Edge.Cuts"
   style="display:inline">
     <path
   style="display:inline;fill:#000000;fill-opacity:1;stroke:none"
   d="M 39.368,8 V 8 L 38.877116,8.012874 38.412333,8.050096 37.924822,8.117637 37.468297,8.209872 36.992686,8.3389706 36.554036,8.4913542 36.099251,8.6875524 35.689343,8.9025627 35.266429,9.1687983 34.9,9.443 33.998781,9.2074045 33.086757,9.0224915 32.164839,8.8892478 31.236734,8.8088766 30.305,8.782 29.802548,8.78968 29.307633,8.812227 28.806181,8.850181 28.313225,8.902276 27.324739,9.0508186 26.347253,9.2555762 25.381643,9.5146201 24.43326,9.8245693 23.500402,10.18412 l -0.912875,0.405832 -0.891336,0.449931 -0.867874,0.49218 -0.844038,0.534672 -0.44143,0.304306 L 19.169,12.644 h -0.002 l -0.243289,0.008 -0.246266,0.02374 -0.500186,0.09331 -0.469345,0.138263 -0.474233,0.185757 -0.442335,0.212543 -0.443207,0.249328 -0.414517,0.265182 -0.412559,0.294151 -0.388798,0.30472 -0.384715,0.328035 -0.364297,0.33544 -0.358502,0.354437 -0.341477,0.361039 -0.334167,0.376687 -0.628566,0.777219 -0.582857,0.813378 -0.535395,0.845236 -0.48486,0.873074 -0.223613,0.448707 -0.208666,0.453286 -0.195023,0.462133 -0.178058,0.464786 -0.163076,0.475159 -0.143707,0.47577 -0.1263363,0.487468 -0.1040641,0.485806 -0.082733,0.496317 L 9.635,24.225 9.5868305,24.988096 9.574,25.753 9.573,25.93 9.0652702,26.219938 8.549,26.493 8.1089056,26.735411 7.7084753,26.986561 7.3013764,27.280548 6.9411385,27.584096 6.586691,27.938801 6.2867819,28.303433 6.0133182,28.719551 5.7994937,29.144675 5.7081697,29.375101 5.6320577,29.607338 5.5229,30.076188 5.466135,30.56075 l -0.0065,0.486537 0.037994,0.484201 0.076909,0.481633 0.1098767,0.47495 0.137684,0.46793 0.1615842,0.462642 0.1788617,0.450936 0.4016626,0.887137 L 7,35.628 l 0.165,0.325 0.054793,0.159297 0.033732,0.207751 0.016323,0.245182 0.00257,0.271593 -0.040415,0.897177 -0.025456,0.448421 -0.015597,0.499836 0.0052,0.463736 0.032066,0.483115 0.063023,0.465628 0.1025803,0.467494 0.1441781,0.447392 0.1952754,0.435353 0.1136574,0.20229 0.127721,0.197226 0.1425419,0.191416 0.1581204,0.18486 0.3323294,0.318962 0.1881465,0.148876 0.2035757,0.141045 0.3970064,0.22721 0.4496302,0.19814 0.4645303,0.160624 0.462452,0.127988 0.480805,0.105632 0.472105,0.08253 0.961108,0.129227 0.808,0.108 0.12102,0.08122 0.13637,0.128792 0.30365,0.36571 0.232007,0.323404 0.228856,0.342526 0.432096,0.685346 0.419347,0.669773 0.444898,0.654553 0.242368,0.318147 0.253387,0.298527 0.672576,0.713865 0.701311,0.683313 0.730632,0.65353 0.757273,0.621472 0.782812,0.588745 0.808417,0.55611 0.831133,0.521523 0.850967,0.485397 0.870121,0.449167 0.889572,0.413131 0.905606,0.375537 0.919591,0.337272 0.934292,0.299299 0.944918,0.260041 0.955158,0.220773 0.96254,0.18092 0.970606,0.141195 0.976005,0.100998 0.977763,0.06053 0.979708,0.02019 0.923632,-0.0184 0.92413,-0.0553 0.920031,-0.09196 0.916032,-0.128637 0.910355,-0.165244 0.90182,-0.201465 0.940515,-0.251771 0.928447,-0.291567 0.915355,-0.330811 0.900695,-0.369288 0.884002,-0.406689 0.865885,-0.443165 0.847589,-0.479389 0.826353,-0.513788 0.804948,-0.547921 0.780661,-0.579922 0.75679,-0.612116 0.730318,-0.642164 0.704308,-0.672673 0.675327,-0.700451 0.646571,-0.728598 0.614609,-0.75324 0.58379,-0.779504 0.550173,-0.802422 0.516152,-0.825052 0.480949,-0.846289 0.444516,-0.865877 0.406691,-0.883153 0.368966,-0.901346 0.32939,-0.915804 0.285038,-0.916394 0.245442,-0.927856 0.20563,-0.935546 0.16657,-0.943779 0.127501,-0.949671 0.08863,-0.955169 0.04959,-0.956624 0.01069,-0.959294 -0.02836,-0.958532 -0.06746,-0.956034 L 56.705437,29.303805 56.558989,28.355329 56.373,27.415 l 0.467111,-0.802736 0.438696,-0.818961 0.401669,-0.837937 0.187307,-0.436908 0.164717,-0.422613 0.15578,-0.450585 0.128457,-0.434078 0.110955,-0.464127 0.07746,-0.444968 0.04708,-0.474303 0.0059,-0.452258 -0.04058,-0.471533 -0.08947,-0.447385 L 58.28283,20.014011 58.085,19.595 57.8695,19.25361 57.727897,19.069408 57.561482,18.881498 57.252732,18.593982 57.07286,18.454992 56.874966,18.321598 56.50355,18.116904 56.07653,17.941102 55.668276,17.820896 55.215337,17.732568 54.79097,17.686173 54.331,17.67 53.716941,17.69557 53.107,17.767 52.535846,16.946636 51.925386,16.15523 51.283669,15.387934 50.616792,14.644491 49.926052,13.922666 49.212808,13.222641 48.477862,12.545517 47.721742,11.89329 46.943243,11.267617 46.141003,10.671418 45.314962,10.109986 44.462,9.5882718 44.021785,9.3431501 43.58097,9.1149361 43.125579,8.8980587 42.671058,8.7016385 42.199556,8.5201792 41.730693,8.3636018 41.243186,8.2277356 40.760524,8.1222888 40.260981,8.0461551 39.769,8.007 39.368,8"
   transform="matrix(0.19,0,0,0.19,2.22286,2.54884)"
   id="path1047"
   inkscape:connector-curvature="0"
   inkscape:label="outline" />
   </g><g
   id="g896"
   inkscape:groupmode="layer"
   inkscape:label="B.Cu-disabled" /><g
   id="g898"
   inkscape:groupmode="layer"
   inkscape:label="B.Mask-disabled" /><g
   id="g900"
   inkscape:groupmode="layer"
   inkscape:label="B.Silk-disabled" /><g
   id="g902"
   inkscape:groupmode="layer"
   inkscape:label="F.Cu">
     <g
   id="g897"
   inkscape:label="cu"><path
     transform="matrix(0.19,0,0,0.19,2.22286,2.54884)"
     inkscape:label="_path20"
     inkscape:connector-curvature="0"
     id="path20"
     clip-path="url(#SVGID_4_)"
     d="m 28.406,24.164 c -0.093,0 -0.187,-0.025 -0.27,-0.079 -0.232,-0.15 -0.3,-0.458 -0.151,-0.691 0.921,-1.437 2.316,-2.131 3.546,-2.746 0.97,-0.483 1.885,-0.939 2.484,-1.69 0.683,-0.856 0.704,-2.546 0.724,-4.181 0.026,-2.094 0.053,-4.261 1.54,-5.036 0.245,-0.125 0.547,-0.034 0.675,0.212 0.128,0.245 0.032,0.547 -0.212,0.675 -0.958,0.499 -0.98,2.361 -1.003,4.162 -0.021,1.803 -0.045,3.667 -0.942,4.791 -0.736,0.924 -1.796,1.452 -2.819,1.963 -1.169,0.583 -2.378,1.185 -3.15,2.39 -0.097,0.149 -0.258,0.23 -0.422,0.23"
     style="display:inline;fill:#000000;fill-opacity:1" /><path
     transform="matrix(0.19,0,0,0.19,2.22286,2.54884)"
     inkscape:label="_path18"
     inkscape:connector-curvature="0"
     id="path18"
     clip-path="url(#SVGID_4_)"
     d="m 41.528,30.94 c -0.225,0 -0.429,-0.151 -0.485,-0.379 -0.866,-3.464 -4.731,-4.244 -8.824,-5.07 C 28.3,24.699 24.245,23.88 22.647,20.54 22.446,20.12 22.28,19.574 22.087,18.941 21.522,17.091 20.819,14.79 18.925,14.597 18.65,14.57 18.45,14.325 18.478,14.049 c 0.028,-0.274 0.278,-0.478 0.548,-0.446 2.556,0.258 3.4,3.025 4.017,5.046 0.174,0.569 0.338,1.107 0.507,1.459 1.382,2.892 5.187,3.659 8.868,4.402 4.216,0.852 8.577,1.733 9.597,5.809 0.066,0.267 -0.096,0.539 -0.364,0.606 -0.042,0.011 -0.083,0.015 -0.123,0.015"
     style="display:inline;fill:#000000;fill-opacity:1" /><path
     transform="matrix(0.19,0,0,0.19,2.22286,2.54884)"
     inkscape:label="_path22"
     inkscape:connector-curvature="0"
     id="path22"
     clip-path="url(#SVGID_4_)"
     d="m 32.246,21.304 c -0.059,0 -0.118,-0.011 -0.177,-0.032 -4.244,-1.606 -6.513,-3.556 -6.743,-5.799 -0.311,-3.031 3.227,-5.317 3.377,-5.413 0.234,-0.148 0.542,-0.079 0.69,0.153 0.148,0.233 0.08,0.542 -0.153,0.691 -0.031,0.02 -3.17,2.052 -2.92,4.469 0.188,1.809 2.298,3.525 6.103,4.963 0.259,0.098 0.389,0.387 0.291,0.645 -0.076,0.2 -0.266,0.323 -0.468,0.323"
     style="display:inline;fill:#000000;fill-opacity:1" /><path
     transform="matrix(0.19,0,0,0.19,2.22286,2.54884)"
     inkscape:label="_path16"
     inkscape:connector-curvature="0"
     id="path16"
     clip-path="url(#SVGID_4_)"
     d="m 27.158,43.849 c -0.964,0 -1.973,-0.241 -3.043,-0.857 -4.149,-2.39 -5.706,-1.564 -7.21,-0.766 -0.976,0.518 -1.981,1.052 -3.519,0.699 -0.269,-0.062 -0.437,-0.33 -0.375,-0.6 0.061,-0.269 0.33,-0.438 0.599,-0.375 1.171,0.271 1.902,-0.118 2.826,-0.608 1.663,-0.883 3.55,-1.881 8.177,0.782 2.558,1.471 4.63,0.443 7.03,-0.746 1.779,-0.881 3.624,-1.794 5.762,-1.658 0.275,0.018 0.485,0.255 0.468,0.53 -0.018,0.274 -0.227,0.495 -0.53,0.468 -1.871,-0.123 -3.595,0.733 -5.256,1.556 -1.572,0.779 -3.177,1.575 -4.929,1.575"
     style="display:inline;fill:#000000;fill-opacity:1" /><path
     transform="matrix(0.19,0,0,0.19,2.22286,2.54884)"
     inkscape:label="_path38"
     inkscape:connector-curvature="0"
     id="path38"
     clip-path="url(#SVGID_4_)"
     d="m 39.367,10 c 0.105,0 0.211,0.002 0.32,0.007 4.66,0.192 11.459,7.514 12.395,10.046 0,0 1.127,-0.381 2.249,-0.381 1.945,0 3.877,1.144 -0.098,7.401 1.028,3.936 0.892,8.151 -0.4,12.009 -2.281,6.803 -8.069,12.119 -15.082,13.836 -1.657,0.405 -3.344,0.604 -5.021,0.604 -5.991,0 -11.869,-2.516 -15.938,-7.023 C 16.616,45.198 15.575,42.282 13.843,42.002 12.752,41.828 11.602,41.79 10.56,41.39 8.04,40.424 9.96,37.051 8.948,35.05 7.573,32.337 6.188,29.964 9.467,28.271 c 2.7,-1.397 1.931,-1.309 2.159,-3.867 0.432,-4.814 5.102,-9.76 7.54,-9.759 0.206,0 0.396,0.035 0.567,0.109 0,0 4.402,-3.971 10.571,-3.971 1.619,0 3.36,0.274 5.174,0.964 C 35.479,11.746 36.433,10 39.367,10 M 39.368,8 V 8 C 37.207,8 35.78,8.729 34.9,9.443 33.395,9.005 31.855,8.782 30.305,8.782 c -5.357,0 -9.487,2.624 -11.136,3.862 H 19.167 C 15.279,12.643 10.112,18.92 9.635,24.225 9.577,24.879 9.575,25.384 9.574,25.753 9.573,25.81 9.573,25.87 9.573,25.93 9.392,26.042 9.08,26.218 8.549,26.493 3.638,29.03 5.742,33.16 7,35.628 l 0.165,0.325 c 0.158,0.312 0.107,1.127 0.067,1.781 -0.095,1.543 -0.273,4.416 2.614,5.521 0.982,0.378 1.969,0.499 2.841,0.606 0.271,0.034 0.541,0.066 0.808,0.108 0.376,0.183 1.075,1.315 1.454,1.927 0.419,0.679 0.853,1.38 1.36,1.941 4.406,4.882 10.755,7.683 17.421,7.683 1.856,0 3.706,-0.223 5.496,-0.661 7.678,-1.88 14.001,-7.682 16.503,-15.143 1.312,-3.916 1.535,-8.25 0.644,-12.301 2.169,-3.601 2.695,-6.031 1.712,-7.82 -0.396,-0.719 -1.408,-1.925 -3.754,-1.925 -0.425,0 -0.843,0.039 -1.224,0.097 C 50.735,14.135 44.609,8.206 39.769,8.007 39.634,8.003 39.499,8 39.368,8"
     style="display:inline;fill:#000000;fill-opacity:1" /><path
     transform="matrix(0.19,0,0,0.19,2.22286,2.54884)"
     inkscape:label="_path40"
     inkscape:connector-curvature="0"
     id="path40"
     clip-path="url(#SVGID_4_)"
     d="m 39.221,33.327 c -0.104,0 -0.208,-0.032 -0.297,-0.098 -0.223,-0.164 -0.27,-0.478 -0.105,-0.699 1.4,-1.897 3.308,-2.986 5.151,-4.04 1.831,-1.046 3.561,-2.034 4.694,-3.735 0.383,-0.574 0.749,-1.242 1.104,-1.89 1.392,-2.537 2.968,-5.414 6.361,-4.026 0.255,0.104 0.378,0.396 0.273,0.652 -0.104,0.255 -0.396,0.378 -0.652,0.273 -2.393,-0.979 -3.526,0.701 -5.105,3.582 -0.364,0.666 -0.742,1.354 -1.148,1.963 -1.265,1.898 -3.18,2.992 -5.03,4.049 -1.754,1.002 -3.567,2.038 -4.843,3.766 -0.099,0.133 -0.25,0.203 -0.403,0.203"
     style="display:inline;fill:#000000;fill-opacity:1" /><path
     transform="matrix(0.19,0,0,0.19,2.22286,2.54884)"
     inkscape:label="_path42"
     inkscape:connector-curvature="0"
     id="path42"
     clip-path="url(#SVGID_4_)"
     d="m 45.445,52.106 c -0.298,0 -0.593,-0.133 -0.79,-0.386 -0.339,-0.437 -0.261,-1.064 0.175,-1.403 2.631,-2.047 4.498,-9.169 1.771,-12.85 -3.029,-4.088 -9.79,-3.707 -14.611,-3.068 -4.395,0.585 -14.688,1.955 -19.583,-2.332 -1.827,-1.6 -2.753,-3.81 -2.753,-6.567 0,-0.553 0.447,-1 1,-1 0.553,0 1,0.447 1,1 0,2.186 0.677,3.842 2.07,5.062 4.213,3.689 13.876,2.402 18.002,1.854 5.324,-0.708 12.824,-1.078 16.483,3.859 3.491,4.713 1.13,13.068 -2.149,15.619 -0.184,0.144 -0.401,0.212 -0.615,0.212"
     style="display:inline;fill:#000000;fill-opacity:1" /></g>
   </g><g
   id="g904"
   inkscape:groupmode="layer"
   inkscape:label="F.Mask-disabled" /><g
   id="g906"
   inkscape:groupmode="layer"
   inkscape:label="F.Silk-disabled" /><g
   id="g908"
   inkscape:groupmode="layer"
   inkscape:label="Drill" /></svg>