<?xml version="1.0" encoding="iso-8859-1"?>
<!-- Generator: Adobe Illustrator 16.0.0, SVG Export Plug-In . SVG Version: 6.00 Build 0)  -->
<!DOCTYPE svg PUBLIC "-//W3C//DTD SVG 1.1//EN" "http://www.w3.org/Graphics/SVG/1.1/DTD/svg11.dtd">
<svg version="1.1" id="Layer_1" xmlns="http://www.w3.org/2000/svg" xmlns:xlink="http://www.w3.org/1999/xlink" x="0px" y="0px"
	 width="64px" height="64px" viewBox="0 0 64 64" style="enable-background:new 0 0 64 64;" xml:space="preserve">
<g>
	<defs>
		<rect id="SVGID_1_" width="64" height="64"/>
	</defs>
	<clipPath id="SVGID_2_">
		<use xlink:href="#SVGID_1_"  style="overflow:visible;"/>
	</clipPath>
	<g style="clip-path:url(#SVGID_2_);">
		<defs>
			<rect id="SVGID_3_" width="64" height="64"/>
		</defs>
		<clipPath id="SVGID_4_">
			<use xlink:href="#SVGID_3_"  style="overflow:visible;"/>
		</clipPath>
		<path style="clip-path:url(#SVGID_4_);fill:#8BA43C;" d="M52.082,20.053c-0.936-2.531-7.734-9.854-12.396-10.046
			c-3.185-0.133-4.208,1.739-4.208,1.739c-8.729-3.32-15.745,3.007-15.745,3.007c-2.182-0.949-7.637,4.428-8.107,9.651
			c-0.228,2.557,0.541,2.469-2.159,3.866c-3.279,1.693-1.894,4.066-0.519,6.779c1.012,2.001-0.908,5.374,1.612,6.34
			c1.042,0.4,2.192,0.438,3.283,0.612c1.732,0.28,2.773,3.196,3.949,4.497c5.208,5.771,13.38,8.274,20.958,6.42
			c7.012-1.717,12.801-7.033,15.082-13.836c1.292-3.857,1.429-8.073,0.4-12.008C60.501,17.206,52.082,20.053,52.082,20.053"/>
		<path style="clip-path:url(#SVGID_4_);fill:#4D642E;" d="M27.158,43.849c-0.964,0-1.973-0.241-3.043-0.857
			c-4.149-2.39-5.706-1.564-7.21-0.766c-0.976,0.518-1.981,1.052-3.519,0.699c-0.269-0.062-0.437-0.33-0.375-0.6
			c0.061-0.269,0.33-0.438,0.599-0.375c1.171,0.271,1.902-0.118,2.826-0.608c1.663-0.883,3.55-1.881,8.177,0.782
			c2.558,1.471,4.63,0.443,7.03-0.746c1.779-0.881,3.624-1.794,5.762-1.658c0.275,0.018,0.485,0.255,0.468,0.53
			c-0.018,0.274-0.227,0.495-0.53,0.468c-1.871-0.123-3.595,0.733-5.256,1.556C30.515,43.053,28.91,43.849,27.158,43.849"/>
		<path style="clip-path:url(#SVGID_4_);fill:#4D642E;" d="M41.528,30.94c-0.225,0-0.429-0.151-0.485-0.379
			c-0.866-3.464-4.731-4.244-8.824-5.07c-3.919-0.792-7.974-1.611-9.572-4.951c-0.201-0.42-0.367-0.966-0.56-1.599
			c-0.565-1.85-1.268-4.151-3.162-4.344c-0.275-0.027-0.475-0.272-0.447-0.548c0.028-0.274,0.278-0.478,0.548-0.446
			c2.556,0.258,3.4,3.025,4.017,5.046c0.174,0.569,0.338,1.107,0.507,1.459c1.382,2.892,5.187,3.659,8.868,4.402
			c4.216,0.852,8.577,1.733,9.597,5.809c0.066,0.267-0.096,0.539-0.364,0.606C41.609,30.936,41.568,30.94,41.528,30.94"/>
		<path style="clip-path:url(#SVGID_4_);fill:#4D642E;" d="M28.406,24.164c-0.093,0-0.187-0.025-0.27-0.079
			c-0.232-0.15-0.3-0.458-0.151-0.691c0.921-1.437,2.316-2.131,3.546-2.746c0.97-0.483,1.885-0.939,2.484-1.69
			c0.683-0.856,0.704-2.546,0.724-4.181c0.026-2.094,0.053-4.261,1.54-5.036c0.245-0.125,0.547-0.034,0.675,0.212
			c0.128,0.245,0.032,0.547-0.212,0.675c-0.958,0.499-0.98,2.361-1.003,4.162c-0.021,1.803-0.045,3.667-0.942,4.791
			c-0.736,0.924-1.796,1.452-2.819,1.963c-1.169,0.583-2.378,1.185-3.15,2.39C28.731,24.083,28.57,24.164,28.406,24.164"/>
		<path style="clip-path:url(#SVGID_4_);fill:#4D642E;" d="M32.246,21.304c-0.059,0-0.118-0.011-0.177-0.032
			c-4.244-1.606-6.513-3.556-6.743-5.799c-0.311-3.031,3.227-5.317,3.377-5.413c0.234-0.148,0.542-0.079,0.69,0.153
			c0.148,0.233,0.08,0.542-0.153,0.691c-0.031,0.02-3.17,2.052-2.92,4.469c0.188,1.809,2.298,3.525,6.103,4.963
			c0.259,0.098,0.389,0.387,0.291,0.645C32.638,21.181,32.448,21.304,32.246,21.304"/>
		<path style="clip-path:url(#SVGID_4_);fill:#A8BB6D;" d="M30.975,54.5c-0.042,0-0.085-0.005-0.128-0.017
			c-8.247-2.188-10.633-9.577-10.73-9.891c-0.082-0.264,0.065-0.543,0.328-0.625c0.267-0.081,0.545,0.064,0.627,0.327
			c0.022,0.072,2.333,7.179,10.031,9.222c0.268,0.071,0.426,0.345,0.355,0.611C31.398,54.353,31.197,54.5,30.975,54.5"/>
		<path style="clip-path:url(#SVGID_4_);fill:#A8BB6D;" d="M38.068,54.424c-0.027,0-0.056-0.002-0.083-0.007
			c-9.127-1.521-10.771-8.557-10.787-8.626c-0.06-0.27,0.111-0.535,0.38-0.596c0.281-0.065,0.536,0.112,0.596,0.38
			c0.059,0.263,1.54,6.449,9.975,7.855c0.273,0.045,0.457,0.303,0.411,0.575C38.52,54.251,38.308,54.424,38.068,54.424"/>
		<path style="clip-path:url(#SVGID_4_);fill:#A8BB6D;" d="M51.251,46.514c-0.067,0-0.137-0.014-0.202-0.043
			c-0.253-0.111-0.367-0.406-0.255-0.659c3.006-6.804-0.134-14.023-0.166-14.095c-0.112-0.252,0.002-0.548,0.254-0.66
			c0.253-0.111,0.548,0.001,0.66,0.254c0.138,0.31,3.351,7.7,0.166,14.905C51.626,46.402,51.442,46.514,51.251,46.514"/>
		<path style="clip-path:url(#SVGID_4_);fill:#A8BB6D;" d="M15.162,32.672c-0.227,0-0.433-0.155-0.486-0.385
			c-2.2-9.302,2.487-12.437,2.687-12.566c0.233-0.15,0.541-0.082,0.692,0.15c0.148,0.232,0.082,0.54-0.149,0.69
			c-0.176,0.116-4.283,2.928-2.258,11.496c0.064,0.269-0.102,0.538-0.371,0.602C15.238,32.668,15.2,32.672,15.162,32.672"/>
		<path style="clip-path:url(#SVGID_4_);fill:#A8BB6D;" d="M19.775,33.989c-0.237,0-0.448-0.171-0.491-0.413
			c-1.008-5.715,0.963-9.251,1.047-9.399c0.136-0.239,0.441-0.322,0.681-0.186c0.24,0.137,0.324,0.441,0.188,0.682
			c-0.019,0.033-1.873,3.392-0.932,8.729c0.048,0.273-0.134,0.531-0.405,0.579C19.834,33.987,19.804,33.989,19.775,33.989"/>
		<path style="clip-path:url(#SVGID_4_);fill:#A8BB6D;" d="M45.977,28.057c-0.245,0-0.46-0.182-0.494-0.432
			c-0.609-4.409-7.338-6.657-7.406-6.678c-0.263-0.086-0.405-0.369-0.32-0.631c0.086-0.263,0.369-0.405,0.631-0.321
			c0.301,0.099,7.39,2.464,8.086,7.494c0.038,0.273-0.153,0.525-0.427,0.563C46.022,28.055,46,28.057,45.977,28.057"/>
		<path style="clip-path:url(#SVGID_4_);fill:#A8BB6D;" d="M49.768,23.773c-0.198,0-0.386-0.119-0.464-0.314
			c-2.828-7.071-9.955-8.747-10.027-8.762c-0.269-0.061-0.438-0.328-0.378-0.598c0.06-0.267,0.326-0.437,0.596-0.379
			c0.313,0.071,7.709,1.794,10.737,9.367c0.103,0.256-0.021,0.547-0.278,0.65C49.893,23.761,49.83,23.773,49.768,23.773"/>
		<path style="clip-path:url(#SVGID_4_);fill:#4D642E;" d="M39.367,10c0.105,0,0.211,0.002,0.32,0.007
			c4.66,0.192,11.459,7.514,12.395,10.046c0,0,1.127-0.381,2.249-0.381c1.945,0,3.877,1.144-0.098,7.401
			c1.028,3.936,0.892,8.151-0.4,12.009c-2.281,6.803-8.069,12.119-15.082,13.836c-1.657,0.405-3.344,0.604-5.021,0.604
			c-5.991,0-11.869-2.516-15.938-7.023c-1.176-1.301-2.217-4.217-3.949-4.497c-1.091-0.174-2.241-0.212-3.283-0.612
			c-2.52-0.966-0.6-4.339-1.612-6.34c-1.375-2.713-2.76-5.086,0.519-6.779c2.7-1.397,1.931-1.309,2.159-3.867
			c0.432-4.814,5.102-9.76,7.54-9.759c0.206,0,0.396,0.035,0.567,0.109c0,0,4.402-3.971,10.571-3.971
			c1.619,0,3.36,0.274,5.174,0.964C35.479,11.746,36.433,10,39.367,10 M39.368,8L39.368,8C37.207,8,35.78,8.729,34.9,9.443
			c-1.505-0.438-3.045-0.661-4.595-0.661c-5.357,0-9.487,2.624-11.136,3.862h-0.002c-3.888-0.001-9.055,6.276-9.532,11.581
			c-0.058,0.654-0.06,1.159-0.061,1.528C9.573,25.81,9.573,25.87,9.573,25.93c-0.181,0.112-0.493,0.288-1.024,0.563
			C3.638,29.03,5.742,33.16,7,35.628l0.165,0.325c0.158,0.312,0.107,1.127,0.067,1.781c-0.095,1.543-0.273,4.416,2.614,5.521
			c0.982,0.378,1.969,0.499,2.841,0.606c0.271,0.034,0.541,0.066,0.808,0.108c0.376,0.183,1.075,1.315,1.454,1.927
			c0.419,0.679,0.853,1.38,1.36,1.941c4.406,4.882,10.755,7.683,17.421,7.683c1.856,0,3.706-0.223,5.496-0.661
			c7.678-1.88,14.001-7.682,16.503-15.143c1.312-3.916,1.535-8.25,0.644-12.301c2.169-3.601,2.695-6.031,1.712-7.82
			c-0.396-0.719-1.408-1.925-3.754-1.925c-0.425,0-0.843,0.039-1.224,0.097c-2.372-3.632-8.498-9.561-13.338-9.76
			C39.634,8.003,39.499,8,39.368,8"/>
		<path style="clip-path:url(#SVGID_4_);fill:#4D642E;" d="M39.221,33.327c-0.104,0-0.208-0.032-0.297-0.098
			c-0.223-0.164-0.27-0.478-0.105-0.699c1.4-1.897,3.308-2.986,5.151-4.04c1.831-1.046,3.561-2.034,4.694-3.735
			c0.383-0.574,0.749-1.242,1.104-1.89c1.392-2.537,2.968-5.414,6.361-4.026c0.255,0.104,0.378,0.396,0.273,0.652
			c-0.104,0.255-0.396,0.378-0.652,0.273c-2.393-0.979-3.526,0.701-5.105,3.582c-0.364,0.666-0.742,1.354-1.148,1.963
			c-1.265,1.898-3.18,2.992-5.03,4.049c-1.754,1.002-3.567,2.038-4.843,3.766C39.525,33.257,39.374,33.327,39.221,33.327"/>
		<path style="clip-path:url(#SVGID_4_);fill:#4D642E;" d="M45.445,52.106c-0.298,0-0.593-0.133-0.79-0.386
			c-0.339-0.437-0.261-1.064,0.175-1.403c2.631-2.047,4.498-9.169,1.771-12.85c-3.029-4.088-9.79-3.707-14.611-3.068
			c-4.395,0.585-14.688,1.955-19.583-2.332c-1.827-1.6-2.753-3.81-2.753-6.567c0-0.553,0.447-1,1-1s1,0.447,1,1
			c0,2.186,0.677,3.842,2.07,5.062c4.213,3.689,13.876,2.402,18.002,1.854c5.324-0.708,12.824-1.078,16.483,3.859
			c3.491,4.713,1.13,13.068-2.149,15.619C45.876,52.038,45.659,52.106,45.445,52.106"/>
	</g>
</g>
</svg>
