<?xml version="1.0" encoding="UTF-8" standalone="no"?>
<svg
   xmlns:dc="http://purl.org/dc/elements/1.1/"
   xmlns:cc="http://creativecommons.org/ns#"
   xmlns:rdf="http://www.w3.org/1999/02/22-rdf-syntax-ns#"
   xmlns:svg="http://www.w3.org/2000/svg"
   xmlns="http://www.w3.org/2000/svg"
   xmlns:sodipodi="http://sodipodi.sourceforge.net/DTD/sodipodi-0.dtd"
   xmlns:inkscape="http://www.inkscape.org/namespaces/inkscape"
   height="50.0mm"
   viewBox="0 0 50.0 50.0"
   width="50.0mm"
   version="1.1"
   id="svg32"
   sodipodi:docname="bow-tie.svg.2019_06_28_19_52_47.0.svg"
   inkscape:version="0.92.4 5da689c313, 2019-01-14">
  <metadata
     id="metadata38">
    <rdf:RDF>
      <cc:Work
         rdf:about="">
        <dc:format>image/svg+xml</dc:format>
        <dc:type
           rdf:resource="http://purl.org/dc/dcmitype/StillImage" />
      </cc:Work>
    </rdf:RDF>
  </metadata>
  <defs
     id="defs36">
    <inkscape:path-effect
       effect="mirror_symmetry"
       start_point="25,0"
       end_point="25,50"
       center_point="25,25"
       id="path-effect984"
       is_visible="true"
       mode="vertical"
       discard_orig_path="false"
       fuse_paths="false"
       oposite_fuse="false" />
    <inkscape:path-effect
       effect="mirror_symmetry"
       start_point="25,0"
       end_point="25,50"
       center_point="25,25"
       id="path-effect982"
       is_visible="true"
       mode="vertical"
       discard_orig_path="false"
       fuse_paths="false"
       oposite_fuse="false" />
    <inkscape:path-effect
       effect="mirror_symmetry"
       start_point="94.48819,0"
       end_point="94.48819,188.97638"
       center_point="94.48819,94.48819"
       id="path-effect945"
       is_visible="true"
       mode="vertical"
       discard_orig_path="false"
       fuse_paths="false"
       oposite_fuse="false" />
    <inkscape:path-effect
       effect="mirror_symmetry"
       start_point="94.48819,0"
       end_point="94.48819,188.97638"
       center_point="94.48819,94.48819"
       id="path-effect943"
       is_visible="true"
       mode="vertical"
       discard_orig_path="false"
       fuse_paths="false"
       oposite_fuse="false" />
  </defs>
  <sodipodi:namedview
     pagecolor="#ffffff"
     bordercolor="#666666"
     borderopacity="1"
     objecttolerance="10"
     gridtolerance="10"
     guidetolerance="10"
     inkscape:pageopacity="0"
     inkscape:pageshadow="2"
     inkscape:window-width="1280"
     inkscape:window-height="1376"
     id="namedview34"
     showgrid="true"
     inkscape:zoom="3.1365639"
     inkscape:cx="58.830345"
     inkscape:cy="110.25281"
     inkscape:window-x="1280"
     inkscape:window-y="27"
     inkscape:window-maximized="0"
     inkscape:current-layer="g869"
     borderlayer="true"
     inkscape:document-units="mm">
    <inkscape:grid
       id="grid847"
       units="mm"
       type="xygrid"
       empspacing="1"
       spacingy="2.54"
       spacingx="2.54" />
    <inkscape:grid
       spacingx="2.54"
       spacingy="2.54"
       empspacing="1"
       type="xygrid"
       units="mm"
       id="grid933" />
    <inkscape:grid
       id="grid855"
       units="mm"
       type="xygrid"
       empspacing="1"
       spacingy="2.54"
       spacingx="2.54" />
  </sodipodi:namedview>
  <g
     id="g867"
     sodipodi:insensitive="true"
     inkscape:groupmode="layer"
     inkscape:label="[fixed] BG"
     style="display:inline">
    <rect
       id="rect865"
       style="display:inline;fill:#ffffff;fill-opacity:1;stroke:none"
       height="38"
       width="38"
       y="0"
       x="0" />
  </g>
  <g
     id="g869"
     inkscape:groupmode="layer"
     inkscape:label="Edge.Cuts"
     style="display:inline">
    <path
       inkscape:connector-curvature="0"
       id="path997"
       transform="scale(0.26458333)"
       d="m 49.255859,45.666016 -0.75575,0.03116 -0.75562,0.06209 -0.755306,0.09359 -0.754808,0.125656 -0.57089,0.130356 -0.560437,0.173636 -0.548877,0.21583 -0.536209,0.256933 -0.522434,0.29695 -0.507552,0.335878 -0.491563,0.373716 -0.474465,0.410467 -0.45626,0.44613 -0.436949,0.480703 -0.41653,0.514189 -0.395003,0.546586 -0.372369,0.577895 -0.348627,0.608115 -0.323779,0.637247 -0.297822,0.665291 -0.818147,0.02844 -0.818006,0.04843 -0.8178,0.07005 -0.817531,0.09331 -0.712598,0.113704 -0.700135,0.155803 -0.686064,0.196788 -0.670386,0.236662 -0.653102,0.275423 -0.634208,0.313071 -0.613709,0.349606 -0.591601,0.38503 -0.567887,0.41934 -0.542564,0.452538 -0.515634,0.484624 -0.487098,0.515596 -0.456953,0.545457 -0.425202,0.574204 -0.391842,0.601839 -0.356876,0.628362 -0.641075,1.270694 -0.323248,0.689673 -0.321678,0.72465 -0.317574,0.758698 -0.310938,0.791817 -0.301768,0.824006 -0.290065,0.855265 -0.27583,0.885596 -0.25906,0.914996 -0.239759,0.943467 -0.217924,0.971009 -0.193555,0.997621 -0.166654,1.023303 -0.13722,1.048057 -0.105253,1.07188 -0.07075,1.094774 -0.03372,1.116739 0.0058,1.137774 0.04795,1.157879 0.09258,1.177056 0.139746,1.195302 0.189445,1.212618 0.241676,1.229007 0.296442,1.244464 0.35374,1.258993 0.413571,1.272592 0.475936,1.285262 0.540833,1.297001 0.608263,1.307812 0.678227,1.317694 0.366141,0.662261 0.384582,0.664383 0.12514,0.228643 0.108455,0.234647 0.09177,0.239792 0.07508,0.244082 0.0584,0.247512 0.04171,0.250085 0.02503,0.2518 0.0083,0.252658 -0.0083,0.252658 -0.02503,0.2518 -0.04171,0.250085 -0.0584,0.247512 -0.07508,0.244082 -0.09177,0.239792 -0.108455,0.234647 -0.12514,0.228643 -0.384581,0.664382 -0.366139,0.662259 -0.678218,1.317684 -0.608249,1.307793 -0.540814,1.29699 -0.475913,1.28523 -0.413545,1.27257 -0.35371,1.25896 -0.296411,1.24444 -0.241644,1.22897 -0.189411,1.21258 -0.139712,1.19527 -0.09255,1.17702 -0.04791,1.15785 -0.0058,1.13774 0.03375,1.11671 0.07078,1.09475 0.105277,1.07185 0.13724,1.04804 0.16667,1.02328 0.193566,0.99761 0.217929,0.97101 0.239758,0.94347 0.259052,0.915 0.275814,0.88561 0.290042,0.85529 0.301736,0.82404 0.310896,0.79186 0.317523,0.75875 0.321616,0.72471 0.323176,0.68974 0.640894,1.27088 0.356876,0.62818 0.391842,0.6017 0.425202,0.57412 0.456953,0.5454 0.487098,0.51557 0.515634,0.48463 0.542564,0.45256 0.567887,0.41939 0.591601,0.38509 0.613709,0.34967 0.634208,0.31314 0.653102,0.27549 0.670386,0.23672 0.686064,0.19684 0.700135,0.15583 0.712598,0.11372 0.817531,0.0932 0.8178,0.0708 0.818006,0.0494 0.818147,0.0289 0.297822,0.66527 0.323779,0.63718 0.348627,0.60802 0.372369,0.57777 0.395003,0.54644 0.41653,0.51402 0.436949,0.48053 0.45626,0.44595 0.474465,0.41028 0.491563,0.37354 0.507552,0.33572 0.522434,0.2968 0.536209,0.25681 0.548877,0.21573 0.560437,0.17358 0.57089,0.13033 0.749761,0.12479 0.750254,0.093 0.75057,0.0619 0.750708,0.0314 0.750668,0.002 0.75045,-0.0276 0.750056,-0.0562 0.749483,-0.0842 0.748733,-0.11149 0.747804,-0.13817 0.746699,-0.16422 0.745415,-0.18962 0.743954,-0.21441 0.742315,-0.23855 0.740499,-0.26205 0.738504,-0.28493 0.736333,-0.30717 0.733983,-0.32877 0.731455,-0.34975 0.728751,-0.37008 0.725868,-0.38978 0.722807,-0.40885 0.71957,-0.42728 0.716153,-0.44509 0.712561,-0.46225 0.708789,-0.47877 1.405554,-1.00461 1.388337,-1.06312 1.369699,-1.11655 1.34964,-1.16491 1.328158,-1.20819 1.305256,-1.24641 1.280931,-1.27954 1.255185,-1.30759 1.228018,-1.33058 1.19943,-1.3485 1.169419,-1.36132 1.137987,-1.36909 1.105134,-1.37177 1.070859,-1.36938 1.035163,-1.36192 0.998045,-1.34938 0.959506,-1.33176 0.919545,-1.30908 0.878163,-1.28131 0.751056,0.22039 0.758346,0.19159 0.764769,0.16265 0.770327,0.13359 0.775019,0.10439 0.778844,0.075 0.781804,0.0456 0.783897,0.016 0.513672,-0.0254 0.513672,0.0254 0.783897,-0.016 0.781804,-0.0456 0.778845,-0.075 0.775019,-0.10439 0.770327,-0.13359 0.76477,-0.16266 0.758342,-0.19159 0.75106,-0.22039 0.87816,1.28131 0.91955,1.30908 0.9595,1.33176 0.99805,1.34938 1.03516,1.36192 1.07086,1.36938 1.10513,1.37177 1.13799,1.36909 1.16942,1.36132 1.19943,1.3485 1.22801,1.33058 1.25519,1.30759 1.28093,1.27954 1.30526,1.24641 1.32815,1.20819 1.34964,1.16491 1.3697,1.11655 1.38834,1.06312 1.40555,1.00461 0.70879,0.47877 0.71256,0.46225 0.71616,0.44509 0.71957,0.42728 0.72281,0.40885 0.72586,0.38978 0.72875,0.37008 0.73146,0.34975 0.73398,0.32877 0.73634,0.30717 0.7385,0.28493 0.7405,0.26205 0.74231,0.23855 0.74396,0.21441 0.74541,0.18962 0.7467,0.16422 0.74781,0.13817 0.74873,0.11149 0.74948,0.0842 0.75006,0.0562 0.75045,0.0276 0.75067,-0.002 0.75071,-0.0314 0.75057,-0.0619 0.75025,-0.093 0.74976,-0.12479 0.57089,-0.13033 0.56044,-0.17358 0.54887,-0.21573 0.53621,-0.25681 0.52244,-0.2968 0.50755,-0.33572 0.49156,-0.37354 0.47446,-0.41028 0.45626,-0.44595 0.43695,-0.48053 0.41653,-0.51402 0.395,-0.54644 0.37237,-0.57777 0.34863,-0.60802 0.32378,-0.63718 0.29782,-0.66527 0.81815,-0.0289 0.818,-0.0494 0.81781,-0.0708 0.81753,-0.0932 0.7126,-0.11372 0.70013,-0.15583 0.68607,-0.19684 0.67038,-0.23672 0.6531,-0.27549 0.63421,-0.31314 0.61371,-0.34967 0.5916,-0.38509 0.56789,-0.41939 0.54256,-0.45256 0.51564,-0.48463 0.4871,-0.51557 0.45695,-0.5454 0.4252,-0.57412 0.39184,-0.6017 0.35688,-0.62818 0.64089,-1.27088 0.32318,-0.68974 0.32161,-0.72471 0.31753,-0.75875 0.31089,-0.79186 0.30174,-0.82404 0.29004,-0.85529 0.27581,-0.88561 0.25906,-0.915 0.23975,-0.94347 0.21793,-0.97101 0.19357,-0.99761 0.16667,-1.02328 0.13724,-1.04804 0.10527,-1.07185 0.0708,-1.09475 0.0337,-1.11671 -0.006,-1.13774 -0.0479,-1.15785 -0.0925,-1.17702 -0.13972,-1.19527 -0.18941,-1.21258 -0.24164,-1.22897 -0.29641,-1.24444 -0.35371,-1.25896 -0.41355,-1.27257 -0.47591,-1.28523 -0.54081,-1.29699 -0.60825,-1.307793 -0.67822,-1.317684 -0.36614,-0.662259 -0.38458,-0.664382 -0.12514,-0.228643 -0.10846,-0.234647 -0.0918,-0.239792 -0.0751,-0.244082 -0.0584,-0.247512 -0.0417,-0.250085 -0.025,-0.2518 -0.008,-0.252658 0.008,-0.252658 0.025,-0.2518 0.0417,-0.250085 0.0584,-0.247512 0.0751,-0.244082 0.0918,-0.239792 0.10846,-0.234647 0.12514,-0.228643 0.38458,-0.664383 0.36614,-0.662261 0.67823,-1.317694 0.60826,-1.307812 0.54084,-1.297001 0.47593,-1.285262 0.41357,-1.272592 0.35374,-1.258993 0.29644,-1.244464 0.24168,-1.229007 0.18945,-1.212618 0.13974,-1.195302 0.0926,-1.177056 0.048,-1.157879 0.006,-1.137774 -0.0337,-1.116739 -0.0708,-1.094774 -0.10526,-1.07188 -0.13721,-1.048057 -0.16666,-1.023303 -0.19355,-0.997621 -0.21793,-0.971009 -0.23976,-0.943467 -0.25906,-0.914996 -0.27583,-0.885596 -0.29006,-0.855265 -0.30177,-0.824006 -0.31094,-0.791817 -0.31757,-0.758698 -0.32168,-0.72465 -0.32325,-0.689673 -0.64107,-1.270694 -0.35688,-0.628362 -0.39184,-0.601839 -0.4252,-0.574204 -0.45695,-0.545457 -0.4871,-0.515596 -0.51564,-0.484624 -0.54256,-0.452538 -0.56789,-0.41934 -0.5916,-0.38503 -0.61371,-0.349606 -0.63421,-0.313071 -0.6531,-0.275423 -0.67038,-0.236662 -0.68607,-0.196788 -0.70013,-0.155803 -0.7126,-0.113704 -0.81753,-0.09331 -0.81781,-0.07005 -0.818,-0.04843 -0.81815,-0.02844 -0.29782,-0.665291 -0.32378,-0.637247 -0.34863,-0.608115 -0.37237,-0.577895 -0.395,-0.546586 -0.41653,-0.514189 -0.43695,-0.480703 -0.45626,-0.44613 -0.47446,-0.410467 -0.49156,-0.373716 -0.50755,-0.335878 -0.52244,-0.29695 -0.53621,-0.256933 -0.54887,-0.21583 -0.56044,-0.173636 -0.57089,-0.130356 -0.75481,-0.125656 -0.75531,-0.09359 -0.75562,-0.06209 -0.75575,-0.03116 -0.70428,-0.0017 -0.70408,0.02407 -0.70374,0.04928 -0.70325,0.07396 -0.70262,0.09811 -0.70183,0.121747 -0.7009,0.144857 -0.69983,0.167443 -0.6986,0.189505 -0.69723,0.211044 -0.69573,0.23206 -0.69406,0.252552 -0.69225,0.272521 -0.6903,0.291965 -0.6882,0.310886 -0.68595,0.329285 -0.68356,0.347158 -0.68102,0.364509 -0.67833,0.381336 -0.6755,0.39764 -1.34193,0.842095 -1.32884,0.901027 -1.31459,0.955769 -1.29916,1.006324 -1.28256,1.05269 -1.2648,1.094867 -1.24586,1.132856 -1.22575,1.166657 -1.20447,1.196269 -1.18202,1.221692 -1.1584,1.242928 -1.1336,1.259974 -1.10764,1.272832 -1.08051,1.281502 -1.0522,1.285984 -1.02273,1.286276 -0.99208,1.28238 -0.96026,1.274297 -0.92728,1.262024 -0.89311,1.245562 -0.85779,1.224914 -0.82128,1.200075 -0.74808,-0.220615 -0.755368,-0.192028 -0.761793,-0.163309 -0.767363,-0.134456 -0.772076,-0.105469 -0.775934,-0.07635 -0.778933,-0.04709 -0.781077,-0.01771 -0.513672,0.02148 -0.513672,-0.02148 -0.781077,0.0177 -0.778933,0.04709 -0.775933,0.07635 -0.772076,0.105471 -0.767363,0.134458 -0.761793,0.163312 -0.755367,0.19203 -0.748083,0.220616 -0.821284,-1.200075 -0.857784,-1.224914 -0.893115,-1.245562 -0.927274,-1.262024 -0.960263,-1.274297 -0.99208,-1.28238 L 81.359459,66.8377 80.307256,65.551716 79.226748,64.270214 78.119106,62.997382 76.9855,61.737408 75.827102,60.49448 74.645083,59.272788 73.440612,58.076519 72.214862,56.909862 70.969003,55.777006 69.704206,54.682139 68.421641,53.629449 67.12248,52.623125 65.807894,51.667356 64.479053,50.766329 63.137128,49.924234 62.461625,49.526594 61.78329,49.145258 61.10227,48.780749 60.41871,48.433591 59.732758,48.104306 59.044559,47.79342 58.35426,47.501455 l -0.692252,-0.272521 -0.69406,-0.252552 -0.695721,-0.23206 -0.697235,-0.211044 -0.698604,-0.189505 -0.699826,-0.167443 -0.700901,-0.144857 -0.701831,-0.121747 -0.702613,-0.09811 -0.70325,-0.07396 -0.70374,-0.04928 -0.704084,-0.02407 -0.704281,0.0017 v 0"
       style="display:inline;fill:#000000;fill-opacity:1;stroke:none;stroke-width:0.28124753;stroke-opacity:1" />
  </g>
  <g
     id="g871"
     inkscape:groupmode="layer"
     inkscape:label="B.Cu-disabled" />
  <g
     id="g873"
     inkscape:groupmode="layer"
     inkscape:label="B.Mask-disabled" />
  <g
     id="g875"
     inkscape:groupmode="layer"
     inkscape:label="B.Silk-disabled" />
  <g
     id="g877"
     inkscape:groupmode="layer"
     inkscape:label="F.Cu"
     style="display:inline">
    <path
       style="display:inline;fill:#000000;fill-opacity:1;stroke-width:0.28124756"
       d="m 49.78125,47.972656 c -1.068264,-0.01037 -2.135477,0.07921 -3.199219,0.279297 -2.531229,0.475703 -4.757212,2.737455 -5.949219,6.041016 -0.04624,0.126987 -0.09252,0.26118 -0.138671,0.392578 -1.523528,-0.03885 -3.047623,0.02011 -4.564453,0.214844 -3.151951,0.404292 -5.922865,2.330346 -7.408204,5.140625 -3.18381,6.02485 -7.294609,18.040762 0.578125,31.341796 1.100821,1.857771 1.100821,4.188006 0,6.046876 -7.872734,13.301032 -3.760836,25.318902 -0.578125,31.343752 1.485339,2.80918 4.256253,4.73328 7.408204,5.13867 1.51683,0.19473 3.040925,0.25389 4.564453,0.21484 0.04636,0.1314 0.0931,0.26559 0.138671,0.39258 1.192007,3.30246 3.41799,5.56727 5.949219,6.04297 16.781698,3.15551 34.480258,-21.17929 40.261719,-29.95312 2.31319,1.09076 4.885002,1.71874 7.607422,1.71874 1.453478,0 2.865244,-0.17737 4.21875,-0.50585 -7.851863,-1.90172 -13.703125,-8.98738 -13.703125,-17.41602 0,-8.429737 5.851262,-15.514297 13.703125,-17.416016 -1.353506,-0.328478 -2.765272,-0.505859 -4.21875,-0.505859 -2.72242,0 -5.294232,0.627983 -7.607422,1.71875 C 81.427771,69.984452 65.566026,48.125926 49.78125,47.972656 Z m 89.41406,0 c -16.02396,0.155593 -32.18496,22.74893 -37.35742,30.66211 0.68993,0.314203 1.35584,0.670658 1.99414,1.068359 7.47943,-7.55743 26.13872,-24.337163 44.74609,-24.748047 -0.0791,-0.226318 -0.15636,-0.447886 -0.23437,-0.662109 -1.19201,-3.303561 -3.41799,-5.565313 -5.94922,-6.041016 -1.06374,-0.200087 -2.13095,-0.28967 -3.19922,-0.279297 z M 43.126953,55.140625 C 60.5441,56.96883 77.475725,72.024799 84.775391,79.34375 c -4.9522,3.192433 -8.246094,8.745074 -8.246094,15.0625 0,6.31683 3.292722,11.86992 8.244141,15.0625 -7.300601,7.32061 -24.22989,22.37506 -41.646485,24.20313 -2.657836,-0.67984 -4.940657,-2.44407 -6.238281,-4.89844 -3.182712,-6.02485 -7.293755,-18.04382 0.580078,-31.343752 1.099723,-1.85887 1.099723,-4.189105 0,-6.046876 -7.873833,-13.301034 -3.763889,-25.316946 -0.580078,-31.341796 1.297624,-2.454376 3.580445,-4.21975 6.238281,-4.900391 z m 60.705077,53.966795 c -0.6383,0.3977 -1.30531,0.75612 -1.99414,1.07031 5.51619,8.43963 23.53677,33.58506 40.55664,30.38477 2.53123,-0.4757 4.75721,-2.74051 5.94922,-6.04297 0.0769,-0.21423 0.15527,-0.43579 0.23437,-0.66211 -18.60848,-0.41088 -37.26666,-17.19147 -44.74609,-24.75 z"
       transform="scale(0.26458333)"
       id="path28"
       inkscape:connector-curvature="0"
       inkscape:label="cu" />
  </g>
  <g
     id="g879"
     inkscape:groupmode="layer"
     inkscape:label="F.Mask-disabled" />
  <g
     id="g881"
     inkscape:groupmode="layer"
     inkscape:label="F.Silk"
     style="display:inline">
    <path
       style="display:inline;stroke-width:0.28124756"
       d="m 49.253906,45.666016 c -1.007668,0.02102 -2.015488,0.12333 -3.021484,0.3125 -3.070651,0.577878 -5.742569,3.048858 -7.259766,6.669922 -1.090934,0.02532 -2.18165,0.0996 -3.271484,0.240234 -3.8309,0.492181 -7.196671,2.828035 -9.003906,6.248047 -3.372774,6.380806 -7.774464,19.207031 0.628906,33.402343 0.711908,1.201894 0.711908,2.696544 0,3.898438 -8.40337,14.19531 -4.000581,27.02044 -0.628906,33.40234 1.807235,3.41892 5.173006,5.75587 9.003906,6.24805 1.089834,0.13954 2.18055,0.2169 3.271484,0.24219 1.517197,3.62106 4.189115,6.09009 7.259766,6.66797 16.090435,3.02451 32.652424,-16.35107 41.757812,-29.86524 2.104888,0.73586 4.301039,1.10498 6.498047,1.10547 v -4.21875 c -8.991504,-0.002 -16.229498,-7.70002 -15.472656,-16.818358 0.531734,-6.324775 4.956229,-11.831802 11.142578,-13.626953 1.119496,-0.324095 1.762694,-1.493785 1.4375,-2.613281 -0.32519,-1.1184 -1.493785,-1.761591 -2.613281,-1.4375 -0.335093,0.09778 -0.664797,0.206057 -0.992188,0.320312 C 79.45496,63.175251 64.36893,45.350692 49.253906,45.666016 Z m -0.0078,4.21875 C 60.463929,49.553968 72.215768,61.902538 79.525391,71.335938 69.587244,62.755688 56.59376,54.305651 43.59375,52.855469 c 0.928335,-1.495227 2.14906,-2.492068 3.417969,-2.730469 0.741639,-0.139388 1.486519,-0.218181 2.234375,-0.240234 z m -9.470703,6.966796 c 15.140126,0 31.390229,11.971406 42.152343,22.398438 -1.435903,1.179919 -2.681041,2.540783 -3.714843,4.037109 C 74.230384,80.290065 68.912066,77.45423 63.603516,78.138672 62.448862,78.286981 61.631834,79.344247 61.78125,80.5 c 0.147213,1.154653 1.205575,1.973874 2.361328,1.822266 3.344209,-0.427367 7.582802,1.246124 12.041016,4.726562 -1.916002,4.731772 -1.908576,10.16447 0.002,14.880862 -3.019015,2.34776 -7.753946,5.27636 -12.042969,4.72265 -1.155753,-0.1494 -2.213016,0.66761 -2.361328,1.82227 -0.148309,1.15575 0.666513,2.21387 1.822266,2.36328 5.181105,0.66577 10.435707,-2.00748 14.609375,-5.14844 1.033806,1.49633 2.278944,2.85829 3.714843,4.03711 -11.681688,11.31802 -29.574846,24.24559 -45.689453,22.17578 -2.471902,-0.3175 -4.643808,-1.82497 -5.810547,-4.0332 -2.959691,-5.60188 -6.828183,-16.85558 0.529297,-29.283202 1.496325,-2.527934 1.496325,-5.66738 0,-8.195313 -7.35748,-12.427627 -3.488988,-23.681323 -0.529297,-29.283203 1.958846,-3.705657 5.392612,-4.255859 9.347657,-4.25586 z m 39.751953,60.787108 c -7.796927,10.06229 -20.646098,23.44749 -32.515625,21.21289 -1.268909,-0.23951 -2.489634,-1.23719 -3.417969,-2.73242 13.018685,-1.46446 25.984464,-9.89034 35.933594,-18.48047 z M 139.72247,45.666016 c 1.00767,0.02102 2.01549,0.12333 3.02149,0.3125 3.07065,0.577878 5.74257,3.048858 7.25976,6.669922 1.09094,0.02532 2.18165,0.0996 3.27149,0.240234 3.8309,0.492181 7.19667,2.828035 9.0039,6.248047 3.37278,6.380806 7.77447,19.207031 -0.6289,33.402343 -0.71191,1.201894 -0.71191,2.696544 0,3.898438 8.40337,14.19531 4.00058,27.02044 0.6289,33.40234 -1.80723,3.41892 -5.173,5.75587 -9.0039,6.24805 -1.08984,0.13954 -2.18055,0.2169 -3.27149,0.24219 -1.51719,3.62106 -4.18911,6.09009 -7.25976,6.66797 -16.09044,3.02451 -32.65243,-16.35107 -41.75781,-29.86524 -2.104892,0.73586 -4.301043,1.10498 -6.498051,1.10547 v -4.21875 c 8.991501,-0.002 16.229501,-7.70002 15.472661,-16.818358 -0.53174,-6.324775 -4.95623,-11.831802 -11.142583,-13.626953 -1.119496,-0.324095 -1.762694,-1.493785 -1.4375,-2.613281 0.32519,-1.1184 1.493785,-1.761591 2.613281,-1.4375 0.335092,0.09778 0.664802,0.206057 0.992192,0.320312 8.53527,-12.668499 23.6213,-30.493058 38.73632,-30.177734 z m 0.008,4.21875 c -11.21782,-0.330798 -22.96966,12.017772 -30.27928,21.451172 9.93815,-8.58025 22.93163,-17.030287 35.93164,-18.480469 -0.92833,-1.495227 -2.14906,-2.492068 -3.41797,-2.730469 -0.74164,-0.139388 -1.48652,-0.218181 -2.23437,-0.240234 z m 9.47071,6.966796 c -15.14013,0 -31.39023,11.971406 -42.15235,22.398438 1.43591,1.179919 2.68105,2.540783 3.71485,4.037109 3.98252,-2.997044 9.30083,-5.832879 14.60938,-5.148437 1.15466,0.148309 1.97169,1.205575 1.82227,2.361328 -0.14721,1.154653 -1.20557,1.973874 -2.36133,1.822266 -3.34421,-0.427367 -7.5828,1.246124 -12.04101,4.726562 1.916,4.731772 1.90857,10.16447 -0.002,14.880862 3.01901,2.34776 7.75394,5.27636 12.04297,4.72265 1.15575,-0.1494 2.21301,0.66761 2.36132,1.82227 0.14831,1.15575 -0.66651,2.21387 -1.82226,2.36328 -5.18111,0.66577 -10.43571,-2.00748 -14.60938,-5.14844 -1.0338,1.49633 -2.27894,2.85829 -3.71484,4.03711 11.68169,11.31802 29.57485,24.24559 45.68945,22.17578 2.4719,-0.3175 4.64381,-1.82497 5.81055,-4.0332 2.95969,-5.60188 6.82818,-16.85558 -0.5293,-29.283202 -1.49632,-2.527934 -1.49632,-5.66738 0,-8.195313 7.35748,-12.427627 3.48899,-23.681323 0.5293,-29.283203 -1.95885,-3.705657 -5.39261,-4.255859 -9.34766,-4.25586 z m -39.75196,60.787108 c 7.79693,10.06229 20.6461,23.44749 32.51563,21.21289 1.26891,-0.23951 2.48963,-1.23719 3.41797,-2.73242 -13.01869,-1.46446 -25.98447,-9.89034 -35.9336,-18.48047 z"
       transform="scale(0.26458333)"
       id="path30"
       inkscape:connector-curvature="0"
       inkscape:label="Silk"
       inkscape:path-effect="#path-effect945"
       inkscape:original-d="m 49.253906,45.666016 c -1.007668,0.02102 -2.015488,0.12333 -3.021484,0.3125 -3.070651,0.577878 -5.742569,3.048858 -7.259766,6.669922 -1.090934,0.02532 -2.18165,0.0996 -3.271484,0.240234 -3.8309,0.492181 -7.196671,2.828035 -9.003906,6.248047 -3.372774,6.380806 -7.774464,19.207031 0.628906,33.402343 0.711908,1.201894 0.711908,2.696544 0,3.898438 -8.40337,14.19531 -4.000581,27.02044 -0.628906,33.40234 1.807235,3.41892 5.173006,5.75587 9.003906,6.24805 1.089834,0.13954 2.18055,0.2169 3.271484,0.24219 1.517197,3.62106 4.189115,6.09009 7.259766,6.66797 16.090435,3.02451 32.652424,-16.35107 41.757812,-29.86524 2.104888,0.73586 4.301039,1.10498 6.498047,1.10547 v -4.21875 c -8.991504,-0.002 -16.229498,-7.70002 -15.472656,-16.818358 0.531734,-6.324775 4.956229,-11.831802 11.142578,-13.626953 1.119496,-0.324095 1.762694,-1.493785 1.4375,-2.613281 -0.32519,-1.1184 -1.493785,-1.761591 -2.613281,-1.4375 -0.335093,0.09778 -0.664797,0.206057 -0.992188,0.320312 C 79.45496,63.175251 64.36893,45.350692 49.253906,45.666016 Z m -0.0078,4.21875 C 60.463929,49.553968 72.215768,61.902538 79.525391,71.335938 69.587244,62.755688 56.59376,54.305651 43.59375,52.855469 c 0.928335,-1.495227 2.14906,-2.492068 3.417969,-2.730469 0.741639,-0.139388 1.486519,-0.218181 2.234375,-0.240234 z m -9.470703,6.966796 c 15.140126,0 31.390229,11.971406 42.152343,22.398438 -1.435903,1.179919 -2.681041,2.540783 -3.714843,4.037109 C 74.230384,80.290065 68.912066,77.45423 63.603516,78.138672 62.448862,78.286981 61.631834,79.344247 61.78125,80.5 c 0.147213,1.154653 1.205575,1.973874 2.361328,1.822266 3.344209,-0.427367 7.582802,1.246124 12.041016,4.726562 -1.916002,4.731772 -1.908576,10.16447 0.002,14.880862 -3.019015,2.34776 -7.753946,5.27636 -12.042969,4.72265 -1.155753,-0.1494 -2.213016,0.66761 -2.361328,1.82227 -0.148309,1.15575 0.666513,2.21387 1.822266,2.36328 5.181105,0.66577 10.435707,-2.00748 14.609375,-5.14844 1.033806,1.49633 2.278944,2.85829 3.714843,4.03711 -11.681688,11.31802 -29.574846,24.24559 -45.689453,22.17578 -2.471902,-0.3175 -4.643808,-1.82497 -5.810547,-4.0332 -2.959691,-5.60188 -6.828183,-16.85558 0.529297,-29.283202 1.496325,-2.527934 1.496325,-5.66738 0,-8.195313 -7.35748,-12.427627 -3.488988,-23.681323 -0.529297,-29.283203 1.958846,-3.705657 5.392612,-4.255859 9.347657,-4.25586 z m 39.751953,60.787108 c -7.796927,10.06229 -20.646098,23.44749 -32.515625,21.21289 -1.268909,-0.23951 -2.489634,-1.23719 -3.417969,-2.73242 13.018685,-1.46446 25.984464,-9.89034 35.933594,-18.48047 z" />
  </g>
  <g
     id="g883"
     inkscape:groupmode="layer"
     inkscape:label="Drill" />
</svg>
