<svg height="512pt" viewBox="0 -82 512.00403 512" width="512pt" xmlns="http://www.w3.org/2000/svg"><path d="m288.964844 121.039062c26.589844-26.871093 92.933594-86.535156 159.09375-87.996093-.277344-.804688-.554688-1.589844-.828125-2.351563-4.242188-11.742187-12.152344-19.792968-21.152344-21.484375-60.515625-11.378906-124.59375 78.027344-144.207031 108.035157 2.453125 1.117187 4.824218 2.382812 7.09375 3.796874zm0 0" fill="#22a7ff"/><path d="m427.492188 9.535156c-.46875-.125-.941407-.238281-1.414063-.328125-60.515625-11.382812-124.59375 78.023438-144.207031 108.03125 2.453125 1.121094 4.824218 2.386719 7.09375 3.800781 9.582031-9.679687 24.320312-23.617187 42.351562-37.554687 24.078125-30.324219 59.640625-66.648437 96.175782-73.949219zm0 0" fill="#0094fd"/><path d="m288.964844 225.589844c-2.269532 1.414062-4.640625 2.683594-7.09375 3.800781 19.613281 30.007813 83.6875 119.414063 144.203125 108.035156 9-1.691406 16.914062-9.742187 21.15625-21.484375.273437-.761718.550781-1.546875.828125-2.351562-66.160156-1.460938-132.503906-61.125-159.09375-88zm0 0" fill="#22a7ff"/><path d="m335.328125 266.207031c-19.855469-14.933593-36.082031-30.226562-46.363281-40.613281-2.269532 1.414062-4.640625 2.679688-7.09375 3.800781 19.613281 30.003907 83.691406 119.414063 144.207031 108.03125.695313-.128906 1.382813-.3125 2.066406-.519531-34.996093-7.453125-69.015625-41.292969-92.816406-70.699219zm0 0" fill="#0094fd"/><path d="m488.230469 162.566406c27.996093-47.292968 13.378906-90.019531 2.058593-111.441406-5.277343-9.992188-15.132812-16.839844-26.339843-18.277344-71.15625-9.140625-146.265625 58.160156-174.984375 87.191406 17.785156 11.070313 29.628906 30.785157 29.628906 53.277344 0 22.488282-11.84375 42.207032-29.628906 53.273438 28.71875 29.03125 103.828125 96.335937 174.984375 87.195312 11.207031-1.441406 21.0625-8.289062 26.339843-18.28125 11.320313-21.417968 25.9375-64.148437-2.058593-111.4375-3.910157-6.609375-3.910157-14.894531 0-21.5zm0 0" fill="#60b8ff"/><path d="m222.777344 121.039062c2.269531-1.414062 4.640625-2.679687 7.09375-3.796874-19.617188-30.011719-83.691406-119.417969-144.207032-108.035157-9 1.691407-16.914062 9.738281-21.152343 21.484375-.277344.761719-.550781 1.546875-.832031 2.351563 66.160156 1.460937 132.503906 61.125 159.097656 87.996093zm0 0" fill="#22a7ff"/><path d="m222.777344 225.589844c-26.59375 26.875-92.933594 86.539062-159.097656 88 .28125.804687.558593 1.589844.832031 2.351562 4.238281 11.742188 12.152343 19.792969 21.152343 21.484375 60.515626 11.378907 124.589844-78.027343 144.203126-108.035156-2.449219-1.117187-4.820313-2.386719-7.089844-3.800781zm0 0" fill="#22a7ff"/><path d="m120.558594 19.957031c4.746094-.894531 9.515625-1.164062 14.28125-.894531-16.011719-8.585938-32.722656-12.949219-49.175782-9.855469-9 1.691407-16.914062 9.738281-21.152343 21.484375-.277344.761719-.550781 1.546875-.832031 2.351563 12.269531.269531 24.539062 2.546875 36.566406 6.238281 4.394531-10.566406 11.875-17.738281 20.3125-19.324219zm0 0" fill="#0094fd"/><path d="m121.597656 327.675781c-8.742187-1.644531-16.449218-9.296875-20.769531-20.503906-12.210937 3.800781-24.683594 6.140625-37.148437 6.417969.28125.804687.558593 1.589844.832031 2.351562 4.238281 11.742188 12.152343 19.792969 21.152343 21.484375 15.738282 2.960938 31.714844-.90625 47.085938-8.761719-3.722656.023438-7.445312-.289062-11.152344-.988281zm0 0" fill="#0094fd"/><path d="m193.148438 173.316406c0-22.488281 11.84375-42.207031 29.628906-53.277344-28.722656-29.027343-103.828125-96.332031-174.984375-87.191406-11.207031 1.441406-21.0625 8.289063-26.34375 18.277344-11.320313 21.421875-25.933594 64.152344 2.058593 111.441406 3.914063 6.609375 3.914063 14.894532 0 21.503906-27.992187 47.289063-13.378906 90.015626-2.058593 111.4375 5.28125 9.992188 15.136719 16.839844 26.34375 18.277344 71.15625 9.140625 146.265625-58.160156 174.984375-87.191406-17.785156-11.070312-29.628906-30.789062-29.628906-53.277344zm0 0" fill="#60b8ff"/><path d="m308.515625 245.105469c23.964844-14.917969 39.925781-41.484375 39.925781-71.789063 0-30.304687-15.960937-56.871094-39.925781-71.789062.167969-.167969.347656-.347656.519531-.519532-8.03125 7.152344-14.828125 13.734376-20.070312 19.03125 17.785156 11.074219 29.628906 30.789063 29.628906 53.277344 0 22.492188-11.84375 42.207032-29.628906 53.277344 5.242187 5.300781 12.039062 11.878906 20.070312 19.03125-.171875-.171875-.351562-.351562-.519531-.519531zm0 0" fill="#22a7ff"/><path d="m51.199219 295.507812c-11.316407-21.421874-25.933594-64.152343 2.0625-111.441406 3.910156-6.609375 3.910156-14.894531 0-21.5-27.996094-47.292968-13.382813-90.019531-2.0625-111.441406 5.109375-9.664062 14.5-16.371094 25.257812-18.105469-9.546875-1.238281-19.140625-1.394531-28.664062-.171875-11.207031 1.4375-21.0625 8.285156-26.34375 18.277344-11.320313 21.421875-25.933594 64.148438 2.058593 111.441406 3.914063 6.605469 3.914063 14.890625 0 21.5-27.992187 47.292969-13.375 90.019532-2.058593 111.441406 5.28125 9.988282 15.136719 16.835938 26.34375 18.277344 9.523437 1.222656 19.117187 1.066406 28.664062-.175781-10.757812-1.730469-20.148437-8.4375-25.257812-18.101563zm0 0" fill="#22a7ff"/><path d="m255.871094 109.59375c-35.136719 0-63.722656 28.585938-63.722656 63.722656 0 35.136719 28.585937 63.722656 63.722656 63.722656 35.136718 0 63.722656-28.585937 63.722656-63.722656 0-35.136718-28.585938-63.722656-63.722656-63.722656zm0 0" fill="#0094fd"/><path d="m222.148438 173.316406c0-29.972656 20.804687-55.160156 48.722656-61.921875-4.8125-1.167969-9.832032-1.800781-15-1.800781-35.136719 0-63.722656 28.585938-63.722656 63.722656 0 35.136719 28.585937 63.722656 63.722656 63.722656 5.167968 0 10.1875-.632812 15-1.800781-27.917969-6.761719-48.722656-31.953125-48.722656-61.921875zm0 0" fill="#0083fd"/><path d="m488.679688 184.433594c-3.6875 1.890625-5.140626 6.414062-3.25 10.097656 21.449218 41.796875 8.1875 79.191406-1.625 97.761719-7.175782 13.574219-20.050782 15.414062-35.433594 15.089843-58.972656-1.300781-119.175782-51.980468-147.679688-79.59375 5.105469-4.195312 9.53125-9.03125 13.203125-14.351562 14.847657 11.171875 33.53125 20.671875 51.945313 18.300781 4.105468-.527343 7.011718-4.285156 6.480468-8.394531-.527343-4.105469-4.269531-7.019531-8.394531-6.480469-15.242187 1.957031-32.078125-8.453125-42.816406-16.800781 6.507813-16.0625 7.09375-35.40625 0-52.917969 11.972656-9.363281 28.023437-18.683593 42.816406-16.789062 4.089844.53125 7.867188-2.375 8.394531-6.484375.527344-4.109375-2.375-7.867188-6.480468-8.394532-18.882813-2.4375-37.78125 7.644532-51.945313 18.300782-3.671875-5.320313-8.097656-10.15625-13.203125-14.351563 28.503906-27.613281 88.707032-78.292969 147.679688-79.59375.097656 0 .191406-.015625.289062-.023437 15.28125-.277344 28.027344 1.648437 35.144532 15.113281 9.8125 18.570313 23.074218 55.964844 1.625 97.761719-1.890626 3.6875-.4375 8.207031 3.25 10.097656 3.679687 1.890625 8.203124.4375 10.097656-3.25 24.550781-47.84375 9.46875-90.46875-1.710938-111.617188-6.425781-12.160156-18.394531-20.464843-32.015625-22.214843-3.871093-.496094-7.753906-.769531-11.632812-.859375-5.390625-12.875-14.890625-21.660156-25.808594-23.710938-57.257813-10.757812-116.128906 58.179688-148.476563 106.1875-1.160156-.40625-2.335937-.792968-3.527343-1.140625-3.976563-1.152343-8.140625 1.136719-9.292969 5.113281-1.152344 3.980469 1.136719 8.140626 5.113281 9.292969 24.671875 7.15625 42.289063 31.386719 39.519531 58.71875-2.878906 27.996094-26.640624 49.53125-54.929687 49.53125-31.976563 0-57.71875-27.375-55.027344-59.800781 1.890625-22.488281 17.621094-42.066406 39.617188-48.449219 3.980469-1.152343 6.269531-5.3125 5.113281-9.292969-1.15625-3.976562-5.3125-6.265624-9.292969-5.113281-1.191406.347657-2.363281.734375-3.527343 1.140625-32.371094-48.046875-91.242188-116.953125-148.472657-106.191406-10.917969 2.054688-20.417969 10.839844-25.8125 23.714844-3.878906.089844-7.757812.359375-11.632812.859375-13.621094 1.75-25.589844 10.054687-32.015625 22.214843-11.992188 22.6875-27.644532 68.289063 2.234375 118.761719 2.53125 4.273438 2.53125 9.589844 0 13.863281-29.878907 50.472657-14.222657 96.074219-2.234375 118.765626 6.425781 12.15625 18.394531 20.460937 32.015625 22.210937 3.875.496094 7.753906.773437 11.632812.863281 5.394531 12.875 14.894531 21.65625 25.8125 23.710938 57.210938 10.753906 116.097657-58.136719 148.472657-106.1875 14.972656 5.234375 31.246093 5.242187 46.238281 0 32.355469 48.03125 91.253906 116.945312 148.472656 106.1875 10.917969-2.054688 20.417969-10.835938 25.808594-23.714844 3.882812-.085938 7.761719-.363281 11.632812-.859375 13.625-1.75 25.59375-10.054687 32.019531-22.214844 11.175782-21.148437 26.261719-63.773437 1.707032-111.617187-1.894532-3.6875-6.414063-5.140625-10.097656-3.25zm-401.484376-168.566406c42.191407-7.929688 87.882813 39.644531 115.605469 75.421874-35.335937-30.507812-81.535156-60.554687-127.757812-65.710937 3.300781-5.316406 7.640625-8.863281 12.152343-9.710937zm-58.96875 276.425781c-10.523437-19.917969-24.277343-59.925781 1.882813-104.113281 5.320313-8.988282 5.320313-20.15625 0-29.144532-26.160156-44.1875-12.40625-84.195312-1.882813-104.113281 6.964844-13.175781 19.179688-15.136719 33.242188-15.136719 53.832031 0 111.605469 42.566406 149.871094 79.640625-5.105469 4.195313-9.53125 9.03125-13.207032 14.351563-14.160156-10.65625-33.066406-20.734375-51.941406-18.300782-4.105468.527344-7.011718 4.285157-6.480468 8.394532.523437 4.105468 4.285156 7.019531 8.394531 6.480468 11.890625-1.519531 26.960937 4.429688 42.8125 16.804688-6.8125 16.824219-6.789063 36.136719.003906 52.90625-10.734375 8.347656-27.566406 18.765625-42.816406 16.796875-4.109375-.53125-7.871094 2.375-8.398438 6.480469-.527343 4.109375 2.375 7.867187 6.484375 8.398437 18.421875 2.367188 37.101563-7.132812 51.941406-18.300781 3.675782 5.320312 8.101563 10.15625 13.207032 14.347656-41.535156 40.242188-105.152344 86.210938-162.449219 78.851563-8.789063-1.128907-16.515625-6.492188-20.664063-14.34375zm58.96875 39.054687c-4.511718-.851562-8.851562-4.398437-12.152343-9.714844 46.289062-5.207031 92.390625-35.171874 127.765625-65.714843-27.722656 35.777343-73.410156 83.375-115.613282 75.429687zm328.117188-316.355468c10.125 0 16.101562 1.613281 21.675781 10.585937-46.355469 5.167969-92.605469 35.359375-127.753906 65.707031 25.652344-33.101562 66.675781-76.292968 106.078125-76.292968zm9.523438 316.355468c-42.1875 7.929688-87.882813-39.644531-115.609376-75.421875 35.390626 30.550781 81.523438 60.523438 127.765626 65.707031-3.304688 5.316407-7.644532 8.863282-12.15625 9.714844zm0 0"/></svg>